<svg width="48" height="63" viewBox="0 0 48 63" fill="none" xmlns="http://www.w3.org/2000/svg">
<rect width="48" height="63" rx="3" fill="rgba(255, 255, 255, 0.4)"/>
<path d="M36.1279 35.5021C34.7574 35.5581 33.9999 36.5446 33.9999 36.5446C33.9999 36.5446 33.2424 35.5581 31.8719 35.5021C30.9529 35.4646 30.1104 35.9221 29.5554 36.6556C27.6244 39.2076 31.2804 42.1931 32.1404 42.9946C32.6549 43.4741 33.2899 44.0436 33.6689 44.3811C33.8584 44.5501 34.1409 44.5501 34.3304 44.3811C34.7094 44.0436 35.3444 43.4741 35.8589 42.9946C36.7189 42.1931 40.3754 39.2076 38.4439 36.6556C37.8894 35.9221 37.0469 35.4646 36.1279 35.5021Z" fill="rgba(155, 0, 0, 0.8)"/>
<path d="M16.8924 52.8445C16.1321 52.8445 15.4984 53.2064 14.8956 53.5973C15.3821 52.8417 15.9662 52.0805 15.9662 51.1027C15.9662 50.017 15.0849 49.1367 14.0003 49.1367C12.9156 49.1367 12.0353 50.018 12.0353 51.1027C12.0353 52.072 12.6212 52.8352 13.1087 53.5936C12.5078 53.2036 11.874 52.8445 11.1081 52.8445C10.0234 52.8445 9.14307 53.7248 9.14307 54.8123C9.14307 55.897 10.0243 56.7773 11.1081 56.7773C12.0146 56.7773 12.7403 56.2655 13.4499 55.8014L12.4834 59.0508C13.494 58.8698 14.5149 58.8783 15.5171 59.0508C15.5171 59.0508 14.9856 57.2648 14.5524 55.8061C15.2574 56.2692 15.9812 56.7773 16.8924 56.7773C17.9771 56.7773 18.8574 55.897 18.8574 54.8123C18.8574 53.7258 17.9762 52.8445 16.8924 52.8445Z" fill="black"/>
<path d="M34.0001 49.7998C33.8643 49.8 33.7309 49.8347 33.6122 49.9007C33.4936 49.9668 33.3937 50.0619 33.322 50.1771L29.8024 54.4693C29.6724 54.6155 29.6004 54.8042 29.6001 54.9998C29.6003 55.1939 29.6711 55.3814 29.7993 55.5271L33.3196 59.8201C33.3913 59.9362 33.4914 60.032 33.6105 60.0984C33.7296 60.1649 33.8637 60.1998 34.0001 60.1998C34.1359 60.1996 34.2693 60.1649 34.388 60.0989C34.5066 60.0329 34.6065 59.9377 34.6782 59.8225L38.1978 55.5303C38.3278 55.3841 38.3998 55.1954 38.4001 54.9998C38.3996 54.8105 38.3321 54.6276 38.2095 54.4834L38.2009 54.4725L34.6806 50.1795C34.6089 50.0634 34.5088 49.9677 34.3897 49.9012C34.2706 49.8347 34.1365 49.7998 34.0001 49.7998Z" fill="rgba(155, 0, 0, 0.8)"/>
<path d="M14.0002 35.2002C13.8265 35.2004 13.6575 35.2572 13.5189 35.3619V35.3611C12.1689 36.4195 9.2002 37.6458 9.2002 40.1822C9.2002 41.6282 10.3722 42.8002 11.8182 42.8002C12.7274 42.8002 13.378 42.2845 13.7213 41.9291C13.484 42.6466 13.0455 43.4666 12.2244 44.04V44.0416C12.1573 44.0745 12.1007 44.1255 12.061 44.1888C12.0214 44.2522 12.0003 44.3254 12.0002 44.4002C12.0002 44.5063 12.0423 44.608 12.1174 44.683C12.1924 44.7581 12.2941 44.8002 12.4002 44.8002H15.6002C15.7063 44.8002 15.808 44.7581 15.883 44.683C15.9581 44.608 16.0002 44.5063 16.0002 44.4002C16.0001 44.3254 15.979 44.2522 15.9394 44.1888C15.8997 44.1255 15.8431 44.0745 15.776 44.0416V44.04C14.9549 43.4666 14.5164 42.6466 14.2791 41.9291C14.6224 42.2845 15.273 42.8002 16.1822 42.8002C17.6282 42.8002 18.8002 41.6282 18.8002 40.1822C18.8002 37.6458 15.8314 36.4195 14.4814 35.3611L14.4807 35.3619C14.3423 35.2573 14.1736 35.2006 14.0002 35.2002Z" fill="black"/>
<path d="M30.2305 20.1836C30.2305 21.4987 30.0124 22.6478 29.5762 23.6309C29.14 24.6074 28.5378 25.3919 27.7695 25.9844L30.0645 27.8008L27.9453 29.5977L24.8887 27.1367C24.6022 27.1758 24.3158 27.1953 24.0293 27.1953C22.8184 27.1953 21.7441 26.9154 20.8066 26.3555C19.8691 25.7956 19.1367 24.9948 18.6094 23.9531C18.0885 22.9115 17.8184 21.7135 17.7988 20.3594V19.6074C17.7988 18.2077 18.0527 16.9772 18.5605 15.916C19.0749 14.8548 19.804 14.0345 20.748 13.4551C21.6986 12.8757 22.7858 12.5859 24.0098 12.5859C25.2142 12.5859 26.2884 12.8724 27.2324 13.4453C28.1764 14.0182 28.9089 14.8353 29.4297 15.8965C29.957 16.9512 30.224 18.1621 30.2305 19.5293V20.1836ZM26.7441 19.5879C26.7441 18.1751 26.5065 17.1042 26.0312 16.375C25.5625 15.6393 24.8887 15.2715 24.0098 15.2715C23.1048 15.2715 22.4245 15.6328 21.9688 16.3555C21.513 17.0781 21.2819 18.1361 21.2754 19.5293V20.1836C21.2754 21.5833 21.5065 22.6576 21.9688 23.4062C22.431 24.1484 23.1178 24.5195 24.0293 24.5195C24.9017 24.5195 25.569 24.1517 26.0312 23.416C26.5 22.6803 26.7376 21.6224 26.7441 20.2422V19.5879Z" fill="black"/>
</svg>
