<svg width="18" height="18" viewBox="0 0 18 18" fill="none" xmlns="http://www.w3.org/2000/svg">
<path d="M13.8204 7.07519C12.5532 7.07519 11.497 7.67832 10.4923 8.32988C11.3032 7.07051 12.2767 5.80176 12.2767 4.17207C12.2767 2.3627 10.8079 0.895508 9.0001 0.895508C7.19229 0.895508 5.7251 2.36426 5.7251 4.17207C5.7251 5.7877 6.70166 7.05957 7.51416 8.32363C6.5126 7.67363 5.45635 7.07519 4.17979 7.07519C2.37197 7.07519 0.904785 8.54238 0.904785 10.3549C0.904785 12.1627 2.37354 13.6299 4.17979 13.6299C5.69072 13.6299 6.9001 12.7768 8.08291 12.0033L6.47197 17.4189C8.15635 17.1174 9.85791 17.1314 11.5282 17.4189C11.5282 17.4189 10.6423 14.4424 9.92041 12.0111C11.0954 12.783 12.3017 13.6299 13.8204 13.6299C15.6282 13.6299 17.0954 12.1627 17.0954 10.3549C17.0954 8.54394 15.6267 7.07519 13.8204 7.07519Z" fill="black"/>
</svg>
