<svg width="16" height="18" viewBox="0 0 16 18" fill="none" xmlns="http://www.w3.org/2000/svg">
<path d="M7.99984 0.333008C7.77356 0.333322 7.55109 0.391217 7.35337 0.50124C7.15564 0.611264 6.98917 0.769797 6.86963 0.961914L1.00374 8.11556C0.78702 8.35912 0.667045 8.67365 0.666504 8.99967C0.666876 9.32322 0.784885 9.6356 0.998535 9.87858L6.86572 17.0335C6.98515 17.2269 7.15203 17.3866 7.35052 17.4974C7.54902 17.6081 7.77253 17.6663 7.99984 17.6663C8.22611 17.666 8.44858 17.6081 8.6463 17.4981C8.84403 17.3881 9.0105 17.2296 9.13004 17.0374L14.9959 9.88379C15.2127 9.64023 15.3326 9.3257 15.3332 8.99967C15.3324 8.68423 15.2198 8.37928 15.0155 8.139L15.0011 8.12077L9.13395 0.96582C9.01453 0.772416 8.84764 0.612754 8.64915 0.501998C8.45065 0.391242 8.22714 0.33307 7.99984 0.333008Z" fill="#FF0000"/>
</svg>
