<svg width="17" height="22" viewBox="0 0 17 22" fill="none" xmlns="http://www.w3.org/2000/svg">
<path d="M8.49984 0.0415039C5.03754 0.0415039 2.24984 2.8292 2.24984 6.2915V7.33317C1.104 7.33317 0.166504 8.27067 0.166504 9.4165V19.8332C0.166504 20.979 1.104 21.9165 2.24984 21.9165H14.7498C15.8957 21.9165 16.8332 20.979 16.8332 19.8332V9.4165C16.8332 8.27067 15.8957 7.33317 14.7498 7.33317V6.2915C14.7498 2.8292 11.9621 0.0415039 8.49984 0.0415039ZM8.49984 2.12484C10.8709 2.12484 12.6665 3.92047 12.6665 6.2915V7.33317H4.33317V6.2915C4.33317 3.92047 6.12881 2.12484 8.49984 2.12484ZM8.49984 12.5415C9.64567 12.5415 10.5832 13.479 10.5832 14.6248C10.5832 15.7707 9.64567 16.7082 8.49984 16.7082C7.354 16.7082 6.4165 15.7707 6.4165 14.6248C6.4165 13.479 7.354 12.5415 8.49984 12.5415Z" fill="white"/>
</svg>
