<svg width="14" height="12" viewBox="0 0 14 12" fill="none" xmlns="http://www.w3.org/2000/svg">
<path d="M7.47779 11.8366L11.8021 8.26556C12.066 8.04769 12.066 7.69434 11.8021 7.47646C11.5382 7.25854 11.1104 7.25854 10.8466 7.47646L7.67568 10.0949L7.67568 0.557968C7.67568 0.249836 7.37314 0 7.00001 0C6.62693 0 6.32433 0.249836 6.32433 0.557968L6.32433 10.0949L3.15346 7.47655C2.88957 7.25863 2.46178 7.25863 2.19789 7.47655C2.06605 7.58547 2 7.72831 2 7.8711C2 8.0139 2.06605 8.15669 2.19789 8.26565L6.52222 11.8366C6.78611 12.0545 7.2139 12.0545 7.47779 11.8366Z" fill="#E90038"/>
</svg>
