<svg width="14" height="12" viewBox="0 0 14 12" fill="none" xmlns="http://www.w3.org/2000/svg">
<path d="M6.52221 0.163441L2.19788 3.73444C1.93404 3.95231 1.93404 4.30566 2.19788 4.52354C2.46177 4.74146 2.88956 4.74146 3.15345 4.52354L6.32432 1.90506L6.32432 11.442C6.32432 11.7502 6.62686 12 6.99999 12C7.37307 12 7.67567 11.7502 7.67567 11.442L7.67567 1.90506L10.8465 4.52345C11.1104 4.74137 11.5382 4.74137 11.8021 4.52345C11.9339 4.41453 12 4.27169 12 4.1289C12 3.9861 11.9339 3.84331 11.8021 3.73435L7.47778 0.163441C7.21389 -0.0544796 6.7861 -0.0544796 6.52221 0.163441Z" fill="#00A473"/>
</svg>
