<svg width="120" height="12" viewBox="0 0 120 12" fill="none" xmlns="http://www.w3.org/2000/svg">
<path d="M72.7345 6.80359C72.7345 4.86162 73.9083 4.83483 75.4859 4.83483H75.6626C77.2023 4.83483 78.0479 5.10269 78.0479 6.99109V8.30359C78.0479 9.87055 77.6693 10.5402 75.6121 10.5402H75.2208C73.2772 10.5402 72.7471 9.9643 72.7471 8.39734V6.80359H72.7345ZM72.7345 10.9688H72.7598C73.2394 11.6518 74.1354 12 75.2335 12H75.8014C78.0858 12 79.7644 11.3839 79.7644 8.58484V6.87055C79.7644 4.28573 78.6916 3.36162 75.8771 3.36162H75.0063C73.7821 3.36162 73.0879 3.80358 72.7724 4.28573H72.7345V0.133942H71.0181V11.7322H72.7345V10.9688Z" fill="white"/>
<path d="M100.639 3.56251H98.3298V2.81251C98.3298 2.10269 98.7716 1.5268 99.7055 1.5268H101.422V0.133942H99.1376C97.7619 0.133942 96.6008 0.897335 96.6008 2.82591V3.56251H95.6794V5.03573H96.6008V12H98.3298V5.03573H100.639V3.56251Z" fill="white"/>
<path d="M90.694 9.30805C90.694 11.2366 91.8552 12 93.2309 12H95.3638V10.5268H93.6473C92.7134 10.5268 92.4105 10.0313 92.4105 9.30805V5.02234H94.7201V3.54912H92.4105V0.133942H90.694V3.56251H89.7727V5.03573H90.694V9.30805Z" fill="white"/>
<path d="M110.522 1.86161H112.238V0H110.522V1.86161Z" fill="white"/>
<path d="M110.522 12H112.238V3.3616H110.522V12Z" fill="white"/>
<path d="M82.3517 6.65625C82.3517 4.99553 83.0837 4.83482 84.8506 4.83482H85.204C87.2107 4.82142 87.4631 5.35714 87.4631 6.45535V6.9241H82.3517V6.65625ZM84.2322 12H85.7846C87.867 12 88.8262 11.3036 89.066 10.0714L87.5389 9.57589C87.2864 10.3393 86.668 10.5268 85.3176 10.5268H84.9137C82.705 10.5268 82.3517 10.2321 82.3517 8.38393H89.1922V6.79018C89.1922 3.89732 87.7787 3.3616 85.5195 3.3616H84.6739C82.8817 3.3616 80.7109 3.69642 80.7109 6.64285V8.67857C80.7109 11.5312 82.5915 12 84.2322 12Z" fill="white"/>
<path d="M107.278 9.41518C107.278 10.2321 106.748 10.5268 104.716 10.5268H104.249C102.52 10.5268 102.293 10.1652 102.293 9.46875V9.01339C102.293 8.19643 102.722 7.90178 104.161 7.90178H104.931C106.243 7.90178 107.278 8.16964 107.278 9.08036V9.41518ZM105.133 3.3616H104.489C102.154 3.3616 101.144 4.125 101.081 5.26339L102.722 5.83928C102.798 5.0625 103.643 4.83482 104.918 4.83482C106.824 4.83482 107.278 4.95535 107.278 6.41518V7.20535H107.24C106.811 6.58928 106.218 6.44196 104.729 6.44196H104.06C101.864 6.44196 100.576 7.01785 100.576 8.86607V9.38839C100.576 10.9152 101.119 12 103.416 12H105.082C106.748 12 106.912 11.7054 107.24 11.2098H107.266V12H108.982V6.44196C108.995 4.01785 107.48 3.3616 105.133 3.3616Z" fill="white"/>
<path d="M117.501 3.3616C116.731 3.3616 115.961 3.66964 115.469 4.51339H115.406V3.3616H113.778V12H115.507V6.80357C115.507 5.75892 116.075 4.83482 117.413 4.83482C118.372 4.83482 118.826 5.11607 118.927 5.39732L120.013 4.62053C119.735 3.83035 119.015 3.3616 117.501 3.3616Z" fill="white"/>
<path d="M67.8503 0.160706H63.3951V2.54463H61.0098L65.6164 8.26338L70.2231 2.54463H67.8377V0.160706" fill="white"/>
<path d="M55.1284 9.5759H57.5138V11.9464H61.969V9.5759H64.3543L59.7477 3.85715L55.1284 9.5759Z" fill="white"/>
<path d="M1.3883 6.58928V9.37499H0V1.45981H2.43584C2.87758 1.44642 3.30669 1.51338 3.7358 1.64731C4.06395 1.75445 4.37947 1.92856 4.64451 2.16963C4.88431 2.38392 5.061 2.66517 5.17459 2.9732C5.40177 3.64285 5.40177 4.37946 5.16197 5.0491C5.04838 5.37053 4.85907 5.65178 4.61927 5.87946C4.35423 6.12053 4.05133 6.30803 3.71056 6.41517C3.29407 6.5491 2.86496 6.61606 2.43584 6.60267L1.3883 6.58928ZM1.3883 5.43749H2.43584C2.66302 5.43749 2.8902 5.4107 3.10475 5.33035C3.28145 5.27678 3.44552 5.16963 3.57173 5.0357C3.69794 4.90178 3.79891 4.75446 3.84939 4.58035C3.91249 4.37946 3.95036 4.17856 3.93774 3.97767C3.93774 3.79017 3.91249 3.58928 3.84939 3.41517C3.78629 3.25445 3.69794 3.09374 3.57173 2.9732C3.4329 2.83928 3.28145 2.74553 3.10475 2.69195C2.8902 2.62499 2.66302 2.58481 2.43584 2.5982H1.3883V5.43749Z" fill="white"/>
<path d="M8.44344 3.66963C8.80945 3.66963 9.17546 3.7366 9.51622 3.87053C9.83175 3.99106 10.1094 4.19195 10.3366 4.44642C10.5764 4.70088 10.7531 5.02231 10.8667 5.35713C10.9929 5.74553 11.056 6.14731 11.056 6.56249C11.056 6.97767 10.9929 7.37946 10.8667 7.76785C10.7531 8.10267 10.5764 8.4241 10.3366 8.67856C10.1094 8.93303 9.81913 9.13392 9.51622 9.25446C8.82207 9.52231 8.05219 9.52231 7.35804 9.25446C7.04252 9.12053 6.76486 8.93303 6.52506 8.67856C6.28526 8.41071 6.10857 8.10267 5.99498 7.76785C5.86877 7.37946 5.80566 6.97767 5.80566 6.56249C5.80566 6.14731 5.86877 5.74553 5.99498 5.35713C6.10857 5.02231 6.28526 4.71428 6.52506 4.44642C6.76486 4.19195 7.04252 4.00445 7.35804 3.87053C7.71143 3.7366 8.06481 3.65624 8.44344 3.66963ZM8.44344 8.41071C8.88518 8.41071 9.21332 8.24999 9.42788 7.94196C9.64243 7.63392 9.7434 7.16517 9.7434 6.56249C9.7434 5.95981 9.64243 5.49106 9.42788 5.18303C9.21332 4.8616 8.88518 4.70088 8.44344 4.70088C8.00171 4.70088 7.66094 4.8616 7.45901 5.18303C7.24445 5.50445 7.14348 5.95981 7.14348 6.56249C7.14348 7.16517 7.24445 7.62053 7.45901 7.94196C7.66094 8.24999 7.98909 8.41071 8.44344 8.41071Z" fill="white"/>
<path d="M11.3967 3.75H12.4064C12.4948 3.75 12.5705 3.77678 12.6462 3.81696C12.7093 3.85714 12.7472 3.9241 12.7724 3.99107L13.5297 6.99107C13.5675 7.15178 13.6054 7.31249 13.6306 7.47321C13.6559 7.63392 13.6811 7.78124 13.7064 7.94196C13.7442 7.78124 13.7821 7.63392 13.8326 7.47321C13.8831 7.31249 13.9209 7.15178 13.9714 6.99107L14.8549 3.97767C14.8801 3.89732 14.918 3.84375 14.9811 3.80357C15.0442 3.76339 15.1073 3.7366 15.183 3.7366H15.751C15.8393 3.7366 15.915 3.76339 15.9781 3.80357C16.0412 3.84375 16.0791 3.91071 16.1043 3.97767L16.9752 7.04464C17.0257 7.20535 17.0635 7.35267 17.1014 7.49999C17.1393 7.64732 17.1771 7.79464 17.2024 7.94196C17.2276 7.78124 17.2528 7.63392 17.2781 7.47321C17.3033 7.31249 17.3412 7.15178 17.3917 6.99107L18.1742 3.99107C18.1868 3.91071 18.2373 3.85714 18.3004 3.81696C18.3635 3.76339 18.4518 3.75 18.5276 3.75H19.4868L17.8082 9.37499H16.7859C16.6723 9.37499 16.5966 9.29464 16.5461 9.13392L15.5995 5.89285C15.5743 5.78571 15.5364 5.67857 15.5112 5.57142C15.4859 5.46428 15.4607 5.35714 15.4481 5.25C15.4228 5.35714 15.4102 5.46428 15.3849 5.57142C15.3597 5.67857 15.3345 5.78571 15.3092 5.89285L14.35 9.13392C14.3248 9.28124 14.2112 9.37499 14.0724 9.37499H13.1006L11.3967 3.75Z" fill="white"/>
<path d="M22.4022 3.66963C22.7177 3.66963 23.0332 3.7232 23.3235 3.84374C23.6012 3.95088 23.841 4.12499 24.0555 4.33928C24.2701 4.56695 24.4215 4.8482 24.5351 5.14285C24.6487 5.49106 24.7118 5.85267 24.7118 6.22767C24.7118 6.30803 24.7118 6.40178 24.6992 6.48213C24.6992 6.5357 24.6739 6.58928 24.6487 6.64285C24.6235 6.68303 24.5982 6.70981 24.5603 6.7232C24.5099 6.7366 24.4594 6.74999 24.4215 6.74999H21.1401C21.1779 7.32588 21.3294 7.75446 21.5818 8.02231C21.8468 8.30356 22.2128 8.43749 22.5915 8.4241C22.7682 8.4241 22.9575 8.39731 23.1216 8.34374C23.2604 8.30356 23.3866 8.2366 23.5128 8.16963C23.6264 8.10267 23.7274 8.0491 23.8031 7.99553C23.8788 7.94196 23.9672 7.91517 24.0429 7.91517C24.0934 7.91517 24.1312 7.92856 24.1817 7.94196C24.2196 7.96874 24.2574 7.99553 24.2827 8.03571L24.6487 8.53124C24.5099 8.70535 24.3584 8.85267 24.1691 8.97321C23.9924 9.09374 23.8157 9.18749 23.6138 9.25446C23.4245 9.32142 23.2351 9.37499 23.0332 9.40178C22.8439 9.42856 22.6546 9.44196 22.4526 9.44196C22.0993 9.44196 21.7585 9.37499 21.4303 9.25446C21.1148 9.13392 20.8372 8.93303 20.61 8.67856C20.3702 8.41071 20.1809 8.08928 20.0547 7.74106C19.9158 7.32588 19.8527 6.88392 19.8653 6.42856C19.8653 6.05356 19.9285 5.69195 20.042 5.34374C20.1556 5.02231 20.3197 4.71428 20.5469 4.45981C20.7741 4.20535 21.0391 4.00445 21.342 3.87053C21.6701 3.7366 22.0362 3.65624 22.4022 3.66963ZM22.4274 4.63392C22.1119 4.62053 21.7964 4.74106 21.5566 4.96874C21.3294 5.2366 21.1905 5.55803 21.1527 5.91963H23.5507C23.5507 5.74553 23.5254 5.58481 23.4876 5.4241C23.4371 5.27678 23.374 5.14285 23.273 5.02231C23.172 4.90178 23.0585 4.80803 22.9196 4.74106C22.7555 4.6741 22.5915 4.63392 22.4274 4.63392Z" fill="white"/>
<path d="M25.7214 9.375V3.75H26.4661C26.567 3.73661 26.6554 3.7634 26.7437 3.83036C26.8068 3.91072 26.8447 4.00447 26.8447 4.09822L26.9204 4.78125C27.0845 4.45982 27.3117 4.17857 27.5893 3.9509C27.8418 3.75 28.132 3.64286 28.4476 3.65625C28.6747 3.64286 28.9019 3.70983 29.1039 3.84375L28.9398 4.86161C28.9398 4.91518 28.9145 4.95536 28.8767 4.99554C28.8388 5.02232 28.7883 5.03572 28.7378 5.03572C28.6621 5.03572 28.599 5.02232 28.5233 4.99554C28.4097 4.96875 28.2835 4.95536 28.1699 4.95536C27.9301 4.94197 27.6777 5.03572 27.4884 5.18304C27.2738 5.37054 27.1097 5.59822 27.0088 5.86607V9.375H25.7214Z" fill="white"/>
<path d="M32.1329 3.66966C32.4484 3.66966 32.7639 3.72323 33.0542 3.84377C33.3319 3.95091 33.5717 4.12502 33.7862 4.3393C34.0008 4.56698 34.1523 4.84823 34.2658 5.14287C34.3794 5.49109 34.4425 5.85269 34.4425 6.22769C34.4425 6.30805 34.4425 6.4018 34.4299 6.48216C34.4299 6.53573 34.4047 6.5893 34.3794 6.64287C34.3542 6.68305 34.3289 6.70984 34.2911 6.72323C34.2406 6.73662 34.1901 6.75002 34.1523 6.75002H30.8834C30.9213 7.32591 31.0727 7.75448 31.3252 8.02234C31.5902 8.30359 31.9562 8.43752 32.3348 8.42412C32.5115 8.42412 32.7008 8.39734 32.8649 8.34377C33.0037 8.30359 33.13 8.23662 33.2562 8.16966C33.3698 8.10269 33.4707 8.04912 33.5464 7.99555C33.6222 7.94198 33.7105 7.91519 33.7862 7.91519C33.8367 7.91519 33.8746 7.92859 33.9251 7.94198C33.9629 7.96877 34.0008 7.99555 34.026 8.03573L34.392 8.53127C34.2532 8.70537 34.1018 8.85269 33.9125 8.97323C33.7358 9.09377 33.5591 9.18752 33.3571 9.25448C33.1678 9.32144 32.9785 9.37502 32.7766 9.4018C32.5873 9.42859 32.3979 9.44198 32.196 9.44198C31.8426 9.44198 31.5019 9.37502 31.1737 9.25448C30.8582 9.13394 30.5805 8.93305 30.3533 8.67859C30.1135 8.41073 29.9242 8.0893 29.798 7.74109C29.6592 7.32591 29.5835 6.88394 29.5961 6.44198C29.5961 6.06698 29.6592 5.70537 29.7728 5.35716C29.8864 5.03573 30.0504 4.72769 30.2776 4.47323C30.5048 4.21877 30.7698 4.01787 31.0727 3.88394C31.4009 3.73662 31.7669 3.65626 32.1329 3.66966ZM32.1581 4.63394C31.8426 4.62055 31.5271 4.74109 31.2873 4.96876C31.0601 5.23662 30.9213 5.55805 30.8834 5.91966H33.2814C33.2814 5.74555 33.2562 5.58484 33.2183 5.42412C33.1804 5.2768 33.1047 5.14287 33.0164 5.02234C32.9154 4.9018 32.8018 4.80805 32.663 4.74109C32.4989 4.67412 32.3222 4.63394 32.1581 4.63394Z" fill="white"/>
<path d="M39.1879 9.375C39.0365 9.3884 38.8977 9.28125 38.8598 9.13393L38.7588 8.59822C38.6579 8.71875 38.5316 8.83929 38.4054 8.94643C38.2792 9.05358 38.153 9.13393 38.0142 9.21429C37.8754 9.29465 37.7239 9.34822 37.5598 9.3884C37.3958 9.42857 37.2191 9.45536 37.0424 9.45536C36.4871 9.46875 35.957 9.1875 35.6288 8.71875C35.4395 8.4509 35.3007 8.14286 35.225 7.82143C35.124 7.41965 35.0735 7.00447 35.0861 6.58929C35.0861 6.2009 35.1366 5.79911 35.2502 5.42411C35.3512 5.08929 35.5026 4.76786 35.7046 4.48661C35.8939 4.23215 36.1463 4.01786 36.424 3.87054C36.7142 3.72322 37.0424 3.64286 37.3579 3.64286C37.6229 3.62947 37.8754 3.68304 38.1152 3.79018C38.3171 3.88393 38.519 4.03125 38.6831 4.19197V1.23215H39.9578V9.375H39.1879ZM37.4841 8.38393C37.7239 8.38393 37.9511 8.33036 38.153 8.20982C38.355 8.0759 38.5317 7.91518 38.6831 7.71429V5.19643C38.5569 5.02233 38.3928 4.8884 38.2161 4.80804C38.0394 4.72768 37.8501 4.6875 37.6608 4.6875C37.4841 4.6875 37.3074 4.72768 37.1433 4.80804C36.9793 4.8884 36.8531 5.00893 36.7521 5.15625C36.6385 5.33036 36.5502 5.53125 36.4997 5.74554C36.4366 6.02679 36.4113 6.30804 36.4113 6.58929C36.4113 6.87054 36.4366 7.15179 36.4871 7.41965C36.5249 7.62054 36.6006 7.80804 36.7016 7.98215C36.79 8.11607 36.9035 8.22322 37.0424 8.29018C37.1686 8.35715 37.3327 8.38393 37.4841 8.38393Z" fill="white"/>
<path d="M43.353 9.375V1.23215H44.6277V4.44643C44.8297 4.21875 45.0695 4.01786 45.3345 3.88393C45.6248 3.73661 45.9403 3.66965 46.2685 3.66965C46.8238 3.65625 47.3539 3.9375 47.682 4.40625C47.8713 4.67411 48.0102 4.98215 48.0859 5.30357C48.1869 5.70536 48.2373 6.10715 48.2247 6.52232C48.2247 6.92411 48.1742 7.3125 48.0606 7.6875C47.9597 8.02232 47.8082 8.34375 47.6063 8.625C47.417 8.87947 47.1646 9.09375 46.8869 9.24107C46.5966 9.3884 46.2685 9.46875 45.9403 9.46875C45.7889 9.46875 45.6374 9.45536 45.4986 9.41518C45.2462 9.34822 45.019 9.21429 44.8297 9.02679C44.7287 8.93304 44.6404 8.83929 44.5646 8.73214L44.5015 9.10715C44.4889 9.1875 44.451 9.25447 44.4006 9.30804C44.3375 9.34822 44.2744 9.375 44.1986 9.36161L43.353 9.375ZM45.8267 4.71429C45.5869 4.7009 45.3598 4.76786 45.1452 4.8884C44.9433 5.02232 44.7666 5.19643 44.6277 5.38393V7.90179C44.754 8.0759 44.918 8.20982 45.0947 8.30357C45.2714 8.38393 45.4607 8.42411 45.65 8.41072C45.8267 8.41072 46.0034 8.37054 46.1675 8.29018C46.3316 8.20982 46.4578 8.08929 46.5587 7.94197C46.6723 7.76786 46.7607 7.56697 46.8112 7.35268C46.8743 7.07143 46.8995 6.79018 46.8995 6.50893C46.8995 6.22768 46.8743 5.94643 46.8238 5.67857C46.7859 5.47768 46.7102 5.29018 46.6092 5.11607C46.5209 4.98215 46.4073 4.875 46.2685 4.80804C46.1423 4.75447 45.9782 4.71429 45.8267 4.71429Z" fill="white"/>
<path d="M50.9256 10.9152C50.9003 10.9955 50.8498 11.0759 50.7741 11.1295C50.6858 11.183 50.5974 11.2098 50.4964 11.2098H49.5499L50.5469 8.95983L48.4014 3.7634H49.5246C49.613 3.7634 49.6887 3.79018 49.7644 3.84375C49.8149 3.89733 49.8654 3.9509 49.8906 4.01786L51.0265 6.9375C51.0644 7.03125 51.1023 7.1384 51.1275 7.23215C51.1527 7.33929 51.178 7.43304 51.2032 7.54018C51.2285 7.43304 51.2663 7.3259 51.2916 7.23215C51.3294 7.1384 51.3547 7.03125 51.3925 6.9375L52.4527 4.03125C52.4779 3.96429 52.5284 3.89733 52.5915 3.85715C52.6546 3.80358 52.7304 3.79018 52.8061 3.79018H53.8158L50.9256 10.9152Z" fill="white"/>
</svg>
