<svg width="14" height="10" viewBox="0 0 14 10" fill="none" xmlns="http://www.w3.org/2000/svg">
<path d="M13.0461 0.485823C13.1823 0.630647 13.2555 0.823671 13.2495 1.02245C13.2435 1.22123 13.1588 1.40948 13.0141 1.54582L5.08406 9.01982C4.9224 9.17206 4.70759 9.25499 4.48558 9.25088C4.26356 9.24677 4.05197 9.15594 3.89606 8.99782L1.21606 6.27782C1.14509 6.20809 1.0887 6.12494 1.05019 6.0332C1.01167 5.94147 0.991786 5.84299 0.991699 5.74349C0.991613 5.644 1.01132 5.54548 1.04968 5.45368C1.08804 5.36188 1.14428 5.27863 1.21513 5.20878C1.28598 5.13892 1.37002 5.08387 1.46235 5.04681C1.55469 5.00975 1.65347 4.99144 1.75296 4.99293C1.85244 4.99442 1.95063 5.0157 2.04181 5.05551C2.13299 5.09532 2.21534 5.15288 2.28406 5.22482L4.51806 7.49182L11.9861 0.453823C12.1309 0.317533 12.3239 0.244341 12.5227 0.250342C12.7215 0.256343 12.9097 0.341045 13.0461 0.485823Z" fill="white"/>
</svg>
