<svg width="13" height="14" viewBox="0 0 13 14" fill="none" xmlns="http://www.w3.org/2000/svg">
<path d="M7.96881 6.99994L12.448 2.70994C12.6441 2.52164 12.7543 2.26624 12.7543 1.99994C12.7543 1.73364 12.6441 1.47825 12.448 1.28994C12.2518 1.10164 11.9858 0.99585 11.7084 0.99585C11.431 0.99585 11.165 1.10164 10.9688 1.28994L6.50006 5.58994L2.03131 1.28994C1.83516 1.10164 1.56912 0.99585 1.29173 0.99585C1.01433 0.99585 0.748292 1.10164 0.552142 1.28994C0.355992 1.47825 0.245796 1.73364 0.245796 1.99994C0.245796 2.26624 0.355992 2.52164 0.552142 2.70994L5.03131 6.99994L0.552142 11.2899C0.454508 11.3829 0.377014 11.4935 0.32413 11.6154C0.271246 11.7372 0.244019 11.8679 0.244019 11.9999C0.244019 12.132 0.271246 12.2627 0.32413 12.3845C0.377014 12.5064 0.454508 12.617 0.552142 12.7099C0.648978 12.8037 0.764188 12.8781 0.891124 12.9288C1.01806 12.9796 1.15421 13.0057 1.29173 13.0057C1.42924 13.0057 1.56539 12.9796 1.69233 12.9288C1.81926 12.8781 1.93447 12.8037 2.03131 12.7099L6.50006 8.40994L10.9688 12.7099C11.0656 12.8037 11.1809 12.8781 11.3078 12.9288C11.4347 12.9796 11.5709 13.0057 11.7084 13.0057C11.8459 13.0057 11.9821 12.9796 12.109 12.9288C12.2359 12.8781 12.3511 12.8037 12.448 12.7099C12.5456 12.617 12.6231 12.5064 12.676 12.3845C12.7289 12.2627 12.7561 12.132 12.7561 11.9999C12.7561 11.8679 12.7289 11.7372 12.676 11.6154C12.6231 11.4935 12.5456 11.3829 12.448 11.2899L7.96881 6.99994Z" fill="white"/>
</svg>
