<svg width="17" height="16" viewBox="0 0 17 16" fill="none" xmlns="http://www.w3.org/2000/svg">
<path d="M10.25 11.875C10.5261 11.875 10.75 11.6511 10.75 11.375V6.375C10.75 6.0989 10.5261 5.875 10.25 5.875C9.9739 5.875 9.75 6.0989 9.75 6.375V11.375C9.75 11.6511 9.9739 11.875 10.25 11.875Z" fill="#EF4444"/>
<path d="M6.75 11.875C7.0261 11.875 7.25 11.6511 7.25 11.375V6.375C7.25 6.0989 7.0261 5.875 6.75 5.875C6.4739 5.875 6.25 6.0989 6.25 6.375V11.375C6.25 11.6511 6.4739 11.875 6.75 11.875Z" fill="#EF4444"/>
<path d="M10.5 2.125C10.7761 2.125 11 1.9011 11 1.625C11 1.3489 10.7761 1.125 10.5 1.125H6.5C6.2239 1.125 6 1.3489 6 1.625C6 1.9011 6.2239 2.125 6.5 2.125H10.5Z" fill="#EF4444"/>
<path d="M3 2.625C2.7239 2.625 2.5 2.8489 2.5 3.125C2.5 3.4011 2.7239 3.625 3 3.625H3.5V12.825C3.5 13.955 4.42 14.875 5.55 14.875H11.45C12.58 14.875 13.5 13.955 13.5 12.825V3.625H14C14.2761 3.625 14.5 3.4011 14.5 3.125C14.5 2.8489 14.2761 2.625 14 2.625H13H4H3ZM12.5 3.625V12.825C12.5 13.405 12.03 13.875 11.45 13.875H5.55C4.97 13.875 4.5 13.405 4.5 12.825V3.625H12.5Z" fill="#EF4444"/>
</svg>
