<svg width="20" height="20" viewBox="0 0 20 20" fill="none" xmlns="http://www.w3.org/2000/svg">
<path d="M13.975 8.125C13.7519 7.22125 13.0419 6.25 11.5625 6.25C10.37 6.25 9.87562 7.23187 9.55437 8.125H7.3225C7.595 7.5725 8.21375 7.50375 8.44125 7.5C8.78437 7.49812 9.0625 7.21875 9.0625 6.875C9.0625 6.53 8.7825 6.25 8.4375 6.25C7.55625 6.25 6.29938 6.7625 6.0025 8.125H5.625C5.28 8.125 5 8.405 5 8.75C5 9.095 5.28 9.375 5.625 9.375H6.0025C6.29938 10.7375 7.55625 11.25 8.4375 11.25C9.63 11.25 10.1244 10.2681 10.4456 9.375H12.6688C12.5181 9.69062 12.2112 10 11.5625 10C11.2169 10 10.9375 10.28 10.9375 10.625C10.9375 10.9706 11.2169 11.25 11.5625 11.25C13.0419 11.25 13.7525 10.2787 13.975 9.375H14.375C14.7206 9.375 15 9.095 15 8.75C15 8.405 14.7206 8.125 14.375 8.125H13.975ZM8.4375 10C8.275 10 7.61125 9.95563 7.32437 9.375H9.10062C8.91312 9.79375 8.72687 10 8.4375 10ZM10.8987 8.125C11.0862 7.70625 11.2731 7.5 11.5625 7.5C12.2069 7.5 12.5144 7.80625 12.6663 8.125H10.8987ZM17.5 10V1.875C17.5 0.499375 16.3787 0 15.625 0H4.375C2.99938 0 2.5 1.12125 2.5 1.875V10H0V13.75H20V10H17.5ZM2.5 12.5H1.25V11.25H2.5V12.5ZM3.75 1.8825C3.7575 1.59375 3.87187 1.25 4.375 1.25H4.885C4.69625 1.77938 4.27938 2.19625 3.75 2.385V1.8825ZM16.25 12.5H3.75V3.68688C4.9725 3.4375 5.9375 2.4725 6.18688 1.25H13.8131C14.0625 2.4725 15.0275 3.4375 16.25 3.68688V12.5ZM16.25 2.385C15.7206 2.19625 15.3038 1.77938 15.115 1.25H15.6175C15.9063 1.2575 16.25 1.37187 16.25 1.875V2.385ZM18.75 12.5H17.5V11.25H18.75V12.5ZM12.9419 16.4331C13.1863 16.6775 13.1863 17.0725 12.9419 17.3169L10.4419 19.8169C10.32 19.9388 10.16 20 10 20C9.84 20 9.68 19.9388 9.55813 19.8169L7.05813 17.3169C6.81375 17.0725 6.81375 16.6775 7.05813 16.4331C7.3025 16.1887 7.6975 16.1887 7.94187 16.4331L9.375 17.8663V15C9.375 14.6544 9.655 14.375 10 14.375C10.345 14.375 10.625 14.6544 10.625 15V17.8663L12.0581 16.4331C12.3025 16.1887 12.6975 16.1887 12.9419 16.4331Z" fill="white"/>
</svg>
