<svg width="13" height="14" viewBox="0 0 13 14" fill="none" xmlns="http://www.w3.org/2000/svg">
<path d="M0 6.56121C0.0051412 5.78489 0.126816 5.06341 0.368453 4.36249C0.608376 3.66843 0.959691 3.03434 1.41383 2.45682C2.04449 1.6565 2.82252 1.04299 3.74622 0.616265C4.27063 0.374629 4.81559 0.194687 5.38455 0.0952901C5.65704 0.0473056 5.93295 0.0233133 6.21057 0.0164584C6.36138 0.0113172 6.51219 -0.00410646 6.66129 0.00103475C6.87208 0.00960342 7.08286 0.0267408 7.29194 0.0490193C7.88832 0.112427 8.45728 0.283801 9.0091 0.513441C9.54207 0.736227 10.0425 1.02071 10.4983 1.37888C11.2661 1.9804 11.8745 2.71388 12.3098 3.58788C12.5463 4.06259 12.7176 4.56128 12.8273 5.08054C12.8804 5.33589 12.9267 5.59295 12.961 5.85001C13.0004 6.15334 13.0072 6.45839 12.9935 6.76514C12.9456 7.81566 12.6508 8.79592 12.1658 9.72305C11.9773 10.0846 11.7391 10.4137 11.4735 10.7239C11.2609 10.9724 11.0365 11.2071 10.7862 11.4162C10.4058 11.735 10.0031 12.0212 9.56778 12.2594C9.05195 12.5421 8.50869 12.7546 7.93288 12.878C7.65354 12.938 7.37249 12.9809 7.08801 13.0083C6.77097 13.0374 6.45221 13.0391 6.13346 13.0186C5.53879 12.9791 4.95955 12.8626 4.39744 12.669C3.93988 12.5113 3.50973 12.3005 3.09843 12.0469C2.59631 11.7367 2.12846 11.3819 1.72573 10.9484C1.08479 10.2577 0.618658 9.46428 0.323896 8.56971C0.193652 8.17041 0.0976829 7.76425 0.0394159 7.34953C0.0051412 7.07362 0.00171373 6.79942 0 6.56121ZM4.94241 6.20818C4.95612 6.39326 4.9664 6.56121 4.9784 6.72744C4.99382 6.92795 5.00753 7.12846 5.02467 7.32896C5.04523 7.55689 5.06751 7.78653 5.08979 8.01446C5.1155 8.25781 5.1412 8.50287 5.17034 8.74622C5.17205 8.75993 5.18747 8.77707 5.20118 8.78564C5.23889 8.80449 5.28002 8.81991 5.31943 8.83534C5.68446 8.98443 6.04948 9.13181 6.41451 9.28262C6.83951 9.45742 7.25081 9.66478 7.69467 9.7916C7.71009 9.79674 7.73237 9.79503 7.74437 9.78817C7.85576 9.7162 7.96715 9.64422 8.07512 9.5671C8.37673 9.34603 8.67492 9.12153 8.97483 8.89874C9.24217 8.69995 9.50951 8.49944 9.77514 8.29894C9.78542 8.29037 9.79399 8.2698 9.79399 8.25609C9.77857 8.02645 9.76486 7.79681 9.74258 7.56889C9.7203 7.32896 9.69288 7.08904 9.66032 6.85083C9.62605 6.60234 9.58492 6.35556 9.5455 6.10707C9.52494 5.98197 9.49752 5.85858 9.48209 5.73348C9.47352 5.66664 9.4461 5.63579 9.38441 5.61009C8.95598 5.42843 8.52926 5.24163 8.10254 5.05655C7.77007 4.91088 7.43761 4.76522 7.10686 4.61784C7.05887 4.59727 7.01946 4.60413 6.98175 4.63155C6.63044 4.87832 6.27398 5.11825 5.92952 5.37359C5.62276 5.60152 5.328 5.84658 5.0281 6.08308C4.98011 6.12078 4.92185 6.15163 4.94241 6.20818ZM2.56375 3.89121C2.56375 3.98889 2.56546 4.08829 2.56375 4.18597C2.55861 4.55957 2.58431 4.93316 2.62544 5.30504C2.62887 5.33246 2.63915 5.35303 2.66828 5.36331C2.73855 5.3873 2.8071 5.41644 2.87736 5.44043C3.50801 5.6495 4.13867 5.85687 4.76932 6.06594C4.82759 6.08479 4.87043 6.0728 4.9167 6.03509C5.27145 5.73005 5.64333 5.44386 6.02378 5.17309C6.34424 4.94516 6.66814 4.72066 6.99032 4.49445C7.00917 4.48074 7.0246 4.46874 7.02288 4.43961C7.0126 4.30251 7.00403 4.16712 6.99546 4.03002C6.98175 3.79867 6.96804 3.56903 6.95605 3.33768C6.94577 3.16287 6.9372 2.98636 6.92692 2.81156C6.91663 2.63504 6.90635 2.45853 6.89778 2.28202C6.89435 2.21518 6.89778 2.21518 6.83437 2.1929C6.44021 2.04895 6.0512 1.893 5.64504 1.77989C5.36399 1.70106 5.08979 1.60338 4.81217 1.51255C4.75047 1.49198 4.7042 1.49027 4.64422 1.5314C4.5414 1.60166 4.42658 1.6565 4.3169 1.71648C3.95187 1.92042 3.61427 2.16205 3.28352 2.41569C3.04359 2.60077 2.8071 2.78757 2.59288 3.0035C2.57917 3.01721 2.56717 3.03949 2.56717 3.05662C2.56203 3.33425 2.56375 3.61359 2.56375 3.89121ZM7.86604 11.6681C7.86604 11.6441 7.86775 11.6202 7.86604 11.5962C7.8489 11.3237 7.83519 11.0512 7.81634 10.7804C7.80435 10.6176 7.7855 10.4548 7.76836 10.2903C7.75636 10.1806 7.74265 10.0692 7.73408 9.95955C7.73237 9.9287 7.7238 9.91499 7.69467 9.90642C7.55928 9.86015 7.42047 9.81731 7.28851 9.76247C6.60302 9.47799 5.91753 9.19008 5.23375 8.90046C5.19262 8.88332 5.16005 8.87647 5.12749 8.91074C5.11378 8.92274 5.09836 8.93473 5.08122 8.94159C4.89957 9.01356 4.71962 9.09068 4.53626 9.15238C4.05127 9.3169 3.56457 9.47285 3.07787 9.63222C3.04188 9.64422 3.02303 9.65964 3.02817 9.70077C3.04188 9.80017 3.04873 9.89957 3.06244 9.99725C3.09158 10.2149 3.12071 10.4325 3.15499 10.6485C3.18069 10.8096 3.21325 10.9706 3.24581 11.13C3.25438 11.1729 3.26466 11.2191 3.28866 11.2534C3.32636 11.3048 3.37606 11.3477 3.42404 11.3922C3.65882 11.6167 3.89532 11.8412 4.13181 12.064C4.14552 12.0777 4.16266 12.0914 4.1798 12.0983C4.66993 12.2954 5.17719 12.4325 5.70331 12.501C5.75129 12.5079 5.80271 12.5199 5.84555 12.5096C6.07862 12.453 6.3134 12.3948 6.54304 12.3296C6.89778 12.2285 7.24224 12.0983 7.56785 11.9201C7.63811 11.8806 7.71009 11.8429 7.78378 11.8087C7.87118 11.7624 7.87118 11.7658 7.86604 11.6681ZM11.3055 9.19522C11.3518 9.15066 11.3998 9.11296 11.4375 9.06669C11.5711 8.90731 11.7048 8.74794 11.835 8.58513C11.9704 8.41376 12.1041 8.24238 12.2326 8.06587C12.3166 7.95105 12.3886 7.82766 12.464 7.70599C12.4794 7.68199 12.4897 7.65629 12.4966 7.62887C12.5822 7.221 12.6079 6.80799 12.6165 6.39155C12.6182 6.32814 12.6114 6.26645 12.5925 6.20304C12.4417 5.7112 12.2755 5.22621 12.0818 4.74979C12.075 4.73266 12.0647 4.71209 12.051 4.70009C11.9653 4.63669 11.8796 4.57328 11.7905 4.5133C11.7408 4.47902 11.6877 4.44475 11.6363 4.4139C11.4032 4.27166 11.1684 4.13113 10.9371 3.98718C10.9028 3.96662 10.8822 3.97347 10.8634 4.0026C10.8394 4.04031 10.8188 4.07972 10.7931 4.114C10.4195 4.59384 10.0459 5.0754 9.66718 5.55353C9.6209 5.61352 9.60548 5.66493 9.62091 5.73862C9.65004 5.87914 9.67232 6.02138 9.69288 6.16362C9.72716 6.38984 9.76143 6.61434 9.78885 6.84055C9.81799 7.07019 9.84369 7.29983 9.86254 7.52947C9.88311 7.76425 9.89339 7.99903 9.9071 8.23382C9.91053 8.29551 9.92424 8.34349 9.99107 8.36063C10.0151 8.36749 10.0373 8.38291 10.0596 8.39662C10.4229 8.62626 10.7862 8.85762 11.1496 9.08897C11.201 9.12153 11.2507 9.15752 11.3055 9.19522ZM2.44036 3.04977C2.42493 3.04634 2.4078 3.04291 2.38895 3.0412C2.09932 3.00864 1.80799 2.97779 1.51837 2.94352C1.49095 2.94009 1.47724 2.94694 1.46353 2.96922C1.28016 3.23828 1.11735 3.51762 0.976829 3.81067C0.663215 4.46017 0.495269 5.15081 0.423292 5.86543C0.409583 6.00767 0.411296 6.14991 0.404441 6.29215C0.387304 6.61776 0.428434 6.93823 0.452426 7.26213C0.45414 7.28783 0.466136 7.29812 0.493556 7.29983C0.56896 7.30497 0.644364 7.31011 0.719768 7.31868C0.947695 7.3461 1.17562 7.37523 1.40355 7.40265C1.41383 7.40437 1.43268 7.39409 1.43782 7.3838C1.46867 7.31525 1.49438 7.24499 1.52522 7.17644C1.62976 6.95023 1.72744 6.71716 1.84741 6.4978C2.04791 6.12764 2.26042 5.76604 2.51576 5.43015C2.52262 5.41986 2.52776 5.40444 2.52604 5.39073C2.51233 5.24678 2.4952 5.10454 2.48492 4.9623C2.46949 4.74637 2.45064 4.53043 2.44721 4.31279C2.44036 4.01631 2.4455 3.71984 2.44721 3.42165C2.44036 3.29997 2.44036 3.17658 2.44036 3.04977ZM9.28673 1.89985C9.29358 1.84501 9.2953 1.79874 9.30387 1.75247C9.34499 1.53483 9.38784 1.31718 9.43239 1.09954C9.43925 1.06869 9.43411 1.05155 9.40497 1.03442C9.08108 0.852761 8.74347 0.701952 8.39044 0.588846C7.95001 0.448319 7.50102 0.347209 7.03488 0.330072C6.74355 0.318076 6.4505 0.287228 6.15916 0.314648C6.07176 0.323217 5.98093 0.318076 5.89525 0.331786C5.67075 0.364346 5.44796 0.400335 5.22518 0.438037C5.13092 0.453461 5.04009 0.48088 4.94755 0.501445C4.92013 0.5083 4.90985 0.525437 4.90814 0.552857C4.89443 0.700238 4.879 0.84762 4.86187 0.995001C4.84987 1.09611 4.83959 1.19894 4.81902 1.30005C4.8036 1.37888 4.80531 1.39087 4.88072 1.41315C4.88414 1.41487 4.88928 1.41658 4.89271 1.41829C5.55593 1.61366 6.21743 1.81588 6.86351 2.06266C6.92006 2.08322 6.9749 2.10721 7.04516 2.0935C7.20797 2.06266 7.37591 2.04723 7.54043 2.0301C7.83177 1.99925 8.12139 1.96669 8.41272 1.9427C8.65093 1.92213 8.88914 1.91356 9.12564 1.90157C9.17876 1.89814 9.23189 1.89985 9.28673 1.89985ZM3.13956 11.2843C3.13442 11.2551 3.13099 11.2311 3.12585 11.2071C3.07787 10.9621 3.02474 10.7187 2.98361 10.4737C2.95105 10.2749 2.9322 10.0727 2.90821 9.87214C2.90135 9.81559 2.8945 9.75904 2.89278 9.70249C2.89107 9.67507 2.89621 9.65107 2.87565 9.62537C2.75054 9.48141 2.62373 9.33746 2.50377 9.18837C2.26384 8.88846 2.04277 8.57485 1.84569 8.24581C1.71716 8.03331 1.59549 7.81566 1.47553 7.59802C1.44811 7.54832 1.41726 7.52604 1.35899 7.51919C1.14306 7.4952 0.92713 7.46435 0.709486 7.43864C0.630654 7.43007 0.551822 7.42665 0.469563 7.41979C0.471277 7.4455 0.474704 7.46778 0.476418 7.49177C0.476418 7.49862 0.479846 7.50548 0.479846 7.51233C0.587811 8.12928 0.795173 8.71023 1.08651 9.26377C1.335 9.73505 1.63319 10.172 1.99136 10.5662C2.22957 10.8284 2.49177 11.0632 2.77968 11.2688C2.78996 11.2757 2.80196 11.2843 2.81395 11.2843C2.91849 11.2843 3.02646 11.2843 3.13956 11.2843ZM12.3046 4.53215C11.8231 3.03263 10.8754 1.92213 9.5455 1.11839C9.50266 1.36345 9.45982 1.60166 9.4204 1.83987C9.41697 1.8553 9.42554 1.87929 9.43754 1.89128C9.47867 1.93755 9.52151 1.9804 9.56607 2.02324C9.75458 2.19633 9.9191 2.39341 10.0802 2.59049C10.2875 2.84241 10.4709 3.10975 10.644 3.38566C10.7194 3.50562 10.7931 3.62901 10.8634 3.75069C10.8925 3.80038 10.9148 3.84665 10.9713 3.87922C11.3346 4.08486 11.6842 4.3145 12.0236 4.55786C12.0304 4.563 12.039 4.56642 12.0458 4.56642C12.1332 4.55614 12.2155 4.54415 12.3046 4.53215ZM9.47181 11.7658C9.31243 11.783 9.16505 11.8018 9.01596 11.8138C8.83087 11.8275 8.64579 11.8378 8.46071 11.8447C8.32704 11.8498 8.19165 11.8549 8.05798 11.8447C7.98429 11.8395 7.92774 11.8584 7.86947 11.8926C7.85405 11.9012 7.84034 11.9098 7.82491 11.9166C7.65525 11.9972 7.48388 12.0743 7.31593 12.1583C7.05887 12.2851 6.79153 12.3811 6.51905 12.4616C6.43165 12.4873 6.34596 12.5113 6.25856 12.537C7.39991 12.5833 8.46756 12.3245 9.47181 11.7658ZM12.3954 8.04188C12.392 8.04016 12.3886 8.03674 12.3852 8.03502C12.356 8.07444 12.3252 8.11385 12.2978 8.15498C12.0784 8.48573 11.8316 8.79592 11.5677 9.09411C11.4529 9.22264 11.3432 9.35117 11.3089 9.52769C11.3089 9.5294 11.3072 9.5294 11.3072 9.53111C11.1478 9.94412 10.9679 10.3486 10.7794 10.7496C10.7725 10.7633 10.7674 10.777 10.7605 10.7907C10.764 10.7924 10.7674 10.7941 10.7708 10.7958C11.5626 10.0247 12.099 9.10611 12.3954 8.04188Z" fill="white"/>
<path d="M4.94265 6.2085C4.92037 6.15023 4.97863 6.11938 5.0249 6.0834C5.32481 5.84519 5.61786 5.60184 5.92633 5.37391C6.27079 5.11856 6.62725 4.87864 6.97856 4.63186C7.01798 4.60444 7.05568 4.59588 7.10366 4.61815C7.43442 4.76553 7.76688 4.9112 8.09934 5.05687C8.52606 5.24195 8.95279 5.42875 9.38122 5.61041C9.44291 5.63611 9.47033 5.66696 9.4789 5.73379C9.49432 5.8589 9.52346 5.98229 9.54231 6.10739C9.58172 6.35417 9.62285 6.60266 9.65713 6.85115C9.68969 7.08936 9.71711 7.32928 9.73939 7.5692C9.76167 7.79713 9.77538 8.02677 9.7908 8.25641C9.79251 8.27012 9.78395 8.29069 9.77195 8.29925C9.50632 8.49976 9.23898 8.69855 8.97164 8.89906C8.67173 9.12185 8.37354 9.34635 8.07192 9.56742C7.96567 9.64625 7.85257 9.71651 7.74117 9.78849C7.72918 9.79706 7.7069 9.79706 7.69148 9.79192C7.24762 9.6651 6.83632 9.45774 6.41132 9.28294C6.04629 9.13213 5.68127 8.98475 5.31624 8.83565C5.27682 8.82023 5.23569 8.80481 5.19799 8.78596C5.18428 8.7791 5.16886 8.76196 5.16714 8.74654C5.13972 8.50319 5.11231 8.25984 5.0866 8.01478C5.06261 7.78685 5.04033 7.55721 5.02148 7.32928C5.00434 7.12877 4.99063 6.92827 4.97521 6.72776C4.96835 6.56153 4.95636 6.3953 4.94265 6.2085Z" fill="black"/>
<path d="M2.56405 3.89174C2.56405 3.61412 2.56405 3.33478 2.56576 3.05716C2.56576 3.0383 2.57776 3.01603 2.59147 3.00403C2.80569 2.7881 3.04218 2.6013 3.2821 2.41622C3.61285 2.16259 3.95046 1.91924 4.31549 1.71702C4.42517 1.65532 4.53827 1.6022 4.64281 1.53193C4.70279 1.4908 4.74906 1.49423 4.81076 1.51308C5.08667 1.60562 5.36258 1.70159 5.64363 1.78042C6.04807 1.89353 6.4388 2.04948 6.83296 2.19343C6.89637 2.21571 6.89294 2.21571 6.89637 2.28255C6.90494 2.45906 6.91693 2.63558 6.9255 2.81209C6.93579 2.98689 6.94435 3.16341 6.95464 3.33821C6.96835 3.56956 6.98034 3.7992 6.99405 4.03056C7.00262 4.16766 7.01119 4.30475 7.02147 4.44014C7.02319 4.46756 7.00948 4.47956 6.98891 4.49498C6.66673 4.72119 6.34283 4.94398 6.02237 5.17362C5.64192 5.4461 5.27004 5.73058 4.91529 6.03563C4.86902 6.07504 4.82789 6.08704 4.76791 6.06647C4.13726 5.8574 3.5066 5.65004 2.87595 5.44096C2.80569 5.41697 2.73714 5.38955 2.66687 5.36384C2.63774 5.35356 2.62746 5.333 2.62403 5.30558C2.5829 4.9337 2.55891 4.56181 2.56234 4.18651C2.56405 4.08882 2.56405 3.98943 2.56405 3.89174Z" fill="black"/>
<path d="M7.86581 11.6682C7.87095 11.7659 7.87095 11.7642 7.78184 11.807C7.70815 11.8413 7.63788 11.8807 7.56591 11.9184C7.2403 12.0967 6.89755 12.2269 6.5411 12.328C6.30974 12.3931 6.07667 12.4514 5.84361 12.508C5.79905 12.5182 5.74764 12.5045 5.70137 12.4994C5.17696 12.4308 4.6697 12.2937 4.17786 12.0967C4.16072 12.0898 4.14358 12.0761 4.12987 12.0624C3.89338 11.8379 3.65688 11.6151 3.4221 11.3906C3.37583 11.3461 3.32442 11.3032 3.28671 11.2518C3.26272 11.2175 3.25244 11.1713 3.24387 11.1284C3.21131 10.9673 3.17875 10.8079 3.15304 10.6468C3.11877 10.4309 3.08963 10.2133 3.0605 9.99563C3.04679 9.89623 3.03822 9.79684 3.02623 9.69915C3.02108 9.65802 3.03994 9.6426 3.07592 9.6306C3.56262 9.47123 4.04933 9.31356 4.53431 9.15076C4.7194 9.08906 4.89762 9.01195 5.07928 8.93997C5.09642 8.93311 5.11184 8.92283 5.12555 8.90912C5.15983 8.87485 5.19239 8.8817 5.2318 8.89884C5.91558 9.18675 6.60108 9.47465 7.28657 9.76085C7.41853 9.81569 7.55734 9.85853 7.69272 9.9048C7.72186 9.91508 7.73043 9.92879 7.73214 9.95793C7.74071 10.0693 7.75442 10.179 7.76642 10.2887C7.78355 10.4515 7.8024 10.6143 7.8144 10.7788C7.83325 11.0513 7.84867 11.3221 7.8641 11.5945C7.86753 11.6185 7.86581 11.6425 7.86581 11.6682Z" fill="black"/>
<path d="M11.3051 9.19511C11.2503 9.15741 11.2006 9.12142 11.1492 9.08886C10.7859 8.85751 10.4226 8.62787 10.0592 8.39651C10.037 8.3828 10.0147 8.36738 9.9907 8.36052C9.92386 8.34167 9.91015 8.29369 9.90672 8.23371C9.89301 7.99893 9.88273 7.76414 9.86217 7.52936C9.84332 7.29972 9.81761 7.07008 9.78848 6.84044C9.75934 6.61423 9.72678 6.38973 9.69251 6.16352C9.67023 6.02128 9.64795 5.87904 9.62053 5.73851C9.60511 5.66653 9.62053 5.61341 9.6668 5.55343C10.0438 5.0753 10.4191 4.59545 10.7927 4.11389C10.8201 4.07962 10.8407 4.0402 10.863 4.0025C10.8818 3.97336 10.9024 3.96651 10.9367 3.98707C11.1697 4.13103 11.4028 4.27155 11.6359 4.41379C11.689 4.44635 11.7404 4.47892 11.7901 4.51319C11.8775 4.57488 11.9649 4.63658 12.0506 4.69999C12.0643 4.71027 12.0746 4.73084 12.0815 4.74969C12.2734 5.2261 12.4413 5.71109 12.5921 6.20293C12.611 6.26634 12.6161 6.32632 12.6161 6.39144C12.6093 6.80788 12.5819 7.22089 12.4962 7.62876C12.491 7.65618 12.479 7.68189 12.4636 7.70588C12.3882 7.82755 12.3162 7.95094 12.2323 8.06576C12.1037 8.24228 11.9701 8.41536 11.8347 8.58502C11.7044 8.74783 11.5708 8.90721 11.4371 9.06658C11.3994 9.11285 11.3514 9.15056 11.3051 9.19511Z" fill="black"/>
<path d="M2.4403 3.04983C2.4403 3.17664 2.4403 3.29832 2.4403 3.42171C2.4403 3.71818 2.43515 4.01637 2.4403 4.31285C2.44544 4.52878 2.46257 4.74642 2.478 4.96235C2.48828 5.10631 2.50542 5.24855 2.51913 5.39079C2.52084 5.40278 2.5157 5.41992 2.50885 5.4302C2.2535 5.7661 2.041 6.12941 1.84049 6.49786C1.72224 6.71722 1.62456 6.94857 1.51831 7.1765C1.48746 7.24505 1.46175 7.31531 1.43091 7.38386C1.42576 7.39414 1.40863 7.40443 1.39663 7.40271C1.1687 7.37529 0.940778 7.34616 0.712851 7.31874C0.637447 7.31017 0.562043 7.30332 0.486638 7.29989C0.459219 7.29817 0.448936 7.28961 0.445509 7.26219C0.421517 6.94 0.382101 6.61782 0.397524 6.29221C0.404379 6.14997 0.402665 6.00602 0.416375 5.86549C0.488352 5.15086 0.656298 4.46194 0.969912 3.81072C1.11215 3.51768 1.27324 3.23662 1.45661 2.96928C1.47204 2.947 1.48575 2.94186 1.51145 2.94358C1.80107 2.97785 2.09241 3.0087 2.38203 3.04126C2.40773 3.04297 2.42487 3.04811 2.4403 3.04983Z" fill="black"/>
<path d="M9.28647 1.90007C9.23163 1.90007 9.17679 1.89836 9.12367 1.90007C8.88546 1.91207 8.64725 1.92063 8.41075 1.9412C8.11942 1.96519 7.8298 1.99775 7.53846 2.0286C7.37223 2.04574 7.206 2.06116 7.04319 2.09201C6.97293 2.10572 6.91809 2.08173 6.86154 2.06116C6.21546 1.81438 5.55396 1.61045 4.89074 1.4168C4.88732 1.41508 4.88218 1.41337 4.87875 1.41166C4.80334 1.38766 4.80163 1.37567 4.81705 1.29855C4.8359 1.19744 4.8479 1.09633 4.8599 0.993505C4.87703 0.846124 4.89074 0.698742 4.90617 0.551361C4.90959 0.523941 4.91816 0.50509 4.94558 0.499949C5.03813 0.477671 5.13067 0.451965 5.22321 0.436541C5.44599 0.398839 5.67049 0.36285 5.89328 0.330289C5.98068 0.318293 6.06979 0.321721 6.15719 0.313152C6.45024 0.285732 6.74158 0.318293 7.03291 0.328576C7.49733 0.345713 7.94633 0.446823 8.38848 0.58735C8.74151 0.700456 9.07911 0.851265 9.40301 1.03292C9.43214 1.05006 9.43728 1.06548 9.43043 1.09804C9.38587 1.31569 9.34474 1.53333 9.3019 1.75098C9.29676 1.79896 9.29333 1.84694 9.28647 1.90007Z" fill="black"/>
<path d="M3.13973 11.2842C3.02662 11.2842 2.92037 11.2842 2.81241 11.2842C2.80041 11.2842 2.78841 11.2773 2.77813 11.2688C2.49022 11.0631 2.22802 10.8283 1.98981 10.5661C1.63164 10.172 1.33345 9.73499 1.08496 9.26371C0.793627 8.71017 0.586265 8.12922 0.4783 7.51227C0.476586 7.50542 0.474873 7.49856 0.474873 7.49171C0.473159 7.46943 0.471445 7.44715 0.468018 7.41973C0.548563 7.42659 0.629109 7.4283 0.70794 7.43858C0.923871 7.46429 1.1398 7.49513 1.35745 7.51913C1.41571 7.52598 1.44656 7.54826 1.47398 7.59796C1.59394 7.8156 1.71562 8.03325 1.84415 8.24575C2.04294 8.57479 2.2623 8.8884 2.50222 9.1883C2.62218 9.3374 2.749 9.48135 2.8741 9.62531C2.89638 9.65101 2.89124 9.675 2.89124 9.70242C2.89295 9.75898 2.89981 9.81553 2.90666 9.87208C2.93065 10.0726 2.94951 10.2748 2.98207 10.4736C3.0232 10.7187 3.07632 10.962 3.12431 11.2071C3.13116 11.2311 3.13459 11.2551 3.13973 11.2842Z" fill="black"/>
<path d="M12.3049 4.53185C12.2158 4.54385 12.1318 4.55584 12.0495 4.56613C12.0427 4.56784 12.0324 4.5627 12.0273 4.55756C11.6862 4.31421 11.3383 4.08628 10.975 3.87892C10.9185 3.84636 10.8945 3.80009 10.8671 3.75039C10.7951 3.627 10.7231 3.50533 10.6477 3.38536C10.4746 3.10945 10.2912 2.84211 10.0839 2.59019C9.92107 2.39311 9.75827 2.19603 9.56976 2.02295C9.5252 1.98182 9.48236 1.93726 9.44123 1.89099C9.42923 1.87899 9.42237 1.855 9.42409 1.83958C9.4635 1.60137 9.50635 1.36316 9.54919 1.11809C10.8756 1.92184 11.8233 3.03233 12.3049 4.53185Z" fill="black"/>
<path d="M9.47204 11.7656C8.46608 12.3243 7.40014 12.5831 6.25879 12.5368C6.34619 12.5111 6.43188 12.4871 6.51928 12.4614C6.79176 12.3808 7.06082 12.2849 7.31616 12.1581C7.48411 12.0758 7.65548 11.997 7.82514 11.9164C7.84057 11.9096 7.85599 11.901 7.8697 11.8924C7.92797 11.8581 7.98452 11.8393 8.05821 11.8444C8.19188 11.8547 8.32727 11.8496 8.46094 11.8444C8.64602 11.8376 8.8311 11.8273 9.01619 11.8136C9.16528 11.8016 9.31438 11.7827 9.47204 11.7656Z" fill="black"/>
<path d="M12.3956 8.04163C12.0992 9.10586 11.5628 10.0244 10.7727 10.7956C10.7693 10.7939 10.7659 10.7922 10.7625 10.7905C10.7693 10.7767 10.7744 10.763 10.7813 10.7493C10.9698 10.3483 11.148 9.94387 11.3091 9.53086C11.3091 9.52915 11.3108 9.52915 11.3108 9.52744C11.3451 9.35092 11.4548 9.22239 11.5696 9.09386C11.8335 8.79738 12.0803 8.4872 12.2997 8.15473C12.3271 8.1136 12.3579 8.07419 12.3871 8.03477C12.3888 8.0382 12.3922 8.03991 12.3956 8.04163Z" fill="black"/>
</svg>
