<svg width="15" height="15" viewBox="0 0 15 15" fill="none" xmlns="http://www.w3.org/2000/svg">
<path d="M7.07753 6.67797C4.40891 6.67797 4.27614 12.0795 4.69311 15C4.69311 15 3.02536 14.5826 1.77416 13.7482C0.522969 12.9137 0.106552 11.6621 0.106552 11.6621C-0.560603 8.3243 2.07387 4.87001 3.32478 3.34021L4.72996 4.7468C3.81197 3.70327 2.82925 1.33271 3.74176 0.419665C4.74249 -0.581664 6.66056 0.419665 6.77797 1.23174C7.91148 0.836885 9.41257 1.42099 10.4133 2.08854C11.6642 2.92299 12.4982 2.92299 15 3.75743C12.9151 6.67797 10.4133 6.67797 7.07753 6.67797Z" fill="white"/>
</svg>
