<svg width="15" height="15" viewBox="0 0 15 15" fill="none" xmlns="http://www.w3.org/2000/svg">
<path fill-rule="evenodd" clip-rule="evenodd" d="M7.5 15C11.6421 15 15 11.6421 15 7.5C15 3.35786 11.6421 0 7.5 0C3.35786 0 0 3.35786 0 7.5C0 11.6421 3.35786 15 7.5 15ZM7.66789 11.9571C8.05842 12.3476 8.69158 12.3476 9.08211 11.9571C9.47263 11.5666 9.47263 10.9334 9.08211 10.5429L6.03921 7.5L9.08211 4.45711C9.47263 4.06658 9.47263 3.43342 9.08211 3.04289C8.69158 2.65237 8.05842 2.65237 7.66789 3.04289L3.9886 6.72218C3.55903 7.15176 3.55903 7.84824 3.9886 8.27782L7.66789 11.9571Z" fill="black"/>
</svg>
