<svg width="15" height="15" viewBox="0 0 15 15" fill="none" xmlns="http://www.w3.org/2000/svg">
<path fill-rule="evenodd" clip-rule="evenodd" d="M7.5 15C11.6421 15 15 11.6421 15 7.5C15 3.35791 11.6421 0 7.5 0C3.35791 0 0 3.35791 0 7.5C0 11.6421 3.35791 15 7.5 15ZM7.66797 11.9572C8.05835 12.3477 8.69165 12.3477 9.08203 11.9572C9.47266 11.5665 9.47266 10.9335 9.08203 10.5428L6.03931 7.5L9.08203 4.45715C9.47266 4.06653 9.47266 3.43347 9.08203 3.04285C8.69165 2.65234 8.05835 2.65234 7.66797 3.04285L3.98853 6.72217C3.55908 7.15173 3.55908 7.84827 3.98853 8.27783L7.66797 11.9572Z" fill="#5F783C"/>
</svg>
