<svg width="12" height="15" viewBox="0 0 12 15" fill="none" xmlns="http://www.w3.org/2000/svg">
<path d="M11.7103 6.88115L11.3582 6.36488C11.3582 6.36488 10.4195 3.44426 9.58335 2.5961C9.58335 2.5961 9.28998 1.1358 9.58335 0.457268C9.58335 0.457268 9.06995 0.75228 8.9086 1.03992C8.9086 1.03992 8.97461 0.162257 9.13596 0C9.13596 0 7.66911 0.405641 7.45641 1.52669C7.45641 1.52669 4.44937 1.69632 2.82116 3.03125C1.72103 3.93103 0.972932 4.77182 0.415528 6.31325C-0.0465297 7.58918 -0.464582 9.52888 1.15629 11.5792C3.31989 14.3081 7.55176 14.6547 7.55176 14.6547C7.55176 14.6547 8.31452 12.4642 7.27306 11.1146C6.50296 10.1115 5.52017 7.56705 7.05303 6.48288C6.5763 5.68635 6.54697 4.80132 6.73032 3.57702C6.60564 5.28071 7.45641 6.54189 7.45641 6.54189C7.79379 6.96965 8.6519 7.92844 9.7227 8.05382C9.7227 8.05382 9.88405 9.71326 11.5636 8.79873C11.9963 8.55534 12.165 7.53755 11.7103 6.88115Z" fill="white"/>
</svg>
