<svg width="15" height="15" viewBox="0 0 15 15" fill="none" xmlns="http://www.w3.org/2000/svg">
<path d="M7.52745 14.9881C7.32865 14.9881 7.13179 14.9881 6.93299 14.9881C6.9018 14.9881 6.89206 14.9822 6.894 14.9484C6.92909 14.5914 6.92129 14.2364 6.9057 13.8795C6.89205 13.5522 6.86087 13.227 6.8024 12.9057C6.703 12.3623 6.55487 11.8308 6.36191 11.3112C6.0598 10.498 5.64465 9.74835 5.11451 9.06413C4.83579 8.70318 4.52979 8.36801 4.20235 8.05465C3.6722 7.54892 3.08553 7.12451 2.44234 6.77942C1.82644 6.4502 1.18715 6.18445 0.510821 6.01984C0.42896 6 0.347099 5.98216 0.265239 5.96431C0.237952 5.95836 0.228207 5.95241 0.234054 5.91671C0.28278 5.68863 0.32566 5.45858 0.38803 5.23249C0.53226 4.70494 0.733014 4.19921 0.998087 3.72125C1.19104 3.37021 1.40154 3.03108 1.64712 2.71574C1.91804 2.36669 2.2143 2.0454 2.54564 1.75585C2.87503 1.46629 3.22587 1.21045 3.60204 0.986346C4.26862 0.591679 4.97613 0.308074 5.73041 0.147431C6.0598 0.0780168 6.39504 0.0343853 6.73223 0.0125695C7.12204 -0.0112295 7.51186 0.00463652 7.90167 0.0125695C7.93091 0.0125695 7.93675 0.024469 7.9348 0.0502513C7.93091 0.125615 7.93091 0.202962 7.92701 0.278325C7.91531 0.528215 7.91921 0.778104 7.92701 1.02601C7.93675 1.31557 7.96599 1.60314 8.00497 1.88873C8.05954 2.28141 8.1414 2.66814 8.25055 3.04893C8.41427 3.62407 8.64426 4.16946 8.92103 4.69701C9.19 5.21067 9.5038 5.6926 9.86827 6.14082C10.262 6.62473 10.7064 7.05906 11.1956 7.44183C11.7686 7.89203 12.3865 8.26686 13.0452 8.57228C13.513 8.78846 14.0003 8.9491 14.4973 9.07801C14.6025 9.10578 14.6006 9.10578 14.5811 9.21089C14.4564 9.88321 14.2361 10.5238 13.9282 11.1307C13.6806 11.6146 13.3785 12.0608 13.0316 12.4773C12.5541 13.0485 12.0025 13.5324 11.3769 13.9251C10.7064 14.3475 9.98912 14.6549 9.21924 14.8294C8.884 14.9048 8.54291 14.9544 8.19988 14.9802C7.97573 14.996 7.75159 15 7.52745 15C7.52745 14.996 7.52745 14.9921 7.52745 14.9881Z" fill="white"/>
<path d="M0 7.80486C0.263124 7.87428 0.516502 7.95162 0.765982 8.04682C1.46375 8.31059 2.09329 8.69336 2.66437 9.17529C3.12045 9.56004 3.51221 10.0063 3.8572 10.4961C4.27625 11.0931 4.5881 11.7456 4.79665 12.4477C4.90969 12.8284 4.98765 13.2152 5.03248 13.6079C5.06172 13.8617 5.07341 14.1156 5.07926 14.3694C5.08121 14.4408 5.08121 14.5122 5.06172 14.5816C5.04223 14.6491 5.02663 14.655 4.96232 14.6312C4.39124 14.419 3.85525 14.1374 3.35239 13.7903C3.04834 13.5801 2.76182 13.348 2.48895 13.0982C2.14202 12.7789 1.82822 12.4298 1.54561 12.051C1.29223 11.7119 1.07004 11.3549 0.87513 10.9781C0.598363 10.4446 0.382016 9.88728 0.231939 9.3042C0.136434 8.9254 0.0662682 8.54065 0.0272869 8.15193C0.0155925 8.0369 0.00974532 7.92187 0 7.80486Z" fill="white"/>
<path d="M15.0002 7.19971C14.4603 7.0589 13.9477 6.86256 13.4604 6.59482C13.0296 6.35882 12.632 6.07521 12.2617 5.75194C11.7179 5.27794 11.2618 4.72858 10.8915 4.10783C10.5524 3.53665 10.2971 2.92779 10.1314 2.28125C10.0339 1.90245 9.96962 1.5177 9.94233 1.127C9.92674 0.916778 9.91895 0.70457 9.92479 0.492362C9.92479 0.47848 9.92674 0.462614 9.92869 0.448731C9.94623 0.353535 9.96377 0.343619 10.0515 0.377334C10.4978 0.54591 10.9247 0.756135 11.332 1.00801C11.7374 1.25988 12.1194 1.54547 12.4742 1.86477C12.7275 2.09284 12.9653 2.34075 13.1856 2.60452C13.7664 3.30263 14.2127 4.08204 14.5402 4.93286C14.7195 5.39892 14.8403 5.88085 14.9163 6.37468C14.9573 6.64044 14.9807 6.90818 15.0002 7.17591C15.0002 7.18385 15.0002 7.19178 15.0002 7.19971Z" fill="white"/>
</svg>
