<svg width="15" height="15" viewBox="0 0 15 15" fill="none" xmlns="http://www.w3.org/2000/svg">
<path d="M3.63079 13.9256C3.62085 13.9197 3.61291 13.9138 3.60297 13.9079C3.23145 13.673 2.87184 13.4225 2.54402 13.1304C2.42283 13.0219 2.30958 12.9074 2.19037 12.7969C2.16057 12.7713 2.17845 12.7555 2.19236 12.7358C2.34137 12.5444 2.49236 12.351 2.64137 12.1596C3.26323 11.3624 3.88708 10.5633 4.50894 9.76614C5.22219 8.85255 5.93346 7.93896 6.64671 7.02538C7.33414 6.14336 8.02355 5.25938 8.71097 4.37736C9.43615 3.45194 10.1593 2.52454 10.8825 1.59911C11.0196 1.4235 11.1587 1.24591 11.2938 1.06833C11.3117 1.04465 11.3216 1.03873 11.3514 1.05451C11.6176 1.2104 11.868 1.39193 12.1064 1.5853C12.2196 1.67607 12.3388 1.75894 12.4501 1.85168C12.5633 1.95034 12.6726 2.05295 12.7819 2.15555C12.8097 2.1812 12.7898 2.19304 12.7759 2.2108C12.5792 2.46337 12.3805 2.71791 12.1839 2.97048C11.5997 3.72029 11.0136 4.4701 10.4295 5.21991C9.7739 6.06049 9.11826 6.90107 8.46064 7.74164C7.8507 8.52303 7.24275 9.30441 6.63281 10.0858C5.92949 10.9856 5.22816 11.8873 4.52484 12.7871C4.23675 13.1561 3.95066 13.5231 3.66258 13.8921C3.65463 13.9039 3.64867 13.9197 3.63079 13.9256Z" fill="white"/>
<path d="M14.9893 7.08082C14.9754 6.80457 14.9495 6.5303 14.9058 6.258C14.8522 5.92848 14.7707 5.60487 14.6734 5.28325C14.4767 4.62617 14.1807 4.01646 13.8131 3.43634C13.6899 3.24297 13.5588 3.05749 13.4138 2.87596C13.4019 2.88977 13.3899 2.90161 13.38 2.91542C13.0979 3.27849 12.8177 3.64155 12.5356 4.00265C11.8641 4.86888 11.1926 5.73511 10.521 6.60133C9.82766 7.49519 9.13627 8.38904 8.44289 9.28092C7.78527 10.1294 7.12566 10.9798 6.46804 11.8283C5.82036 12.6649 5.17068 13.5016 4.523 14.3362C4.49916 14.3658 4.50114 14.3757 4.53691 14.3915C5.35545 14.7388 6.20778 14.9341 7.09586 14.9834C7.5409 15.0071 7.98593 14.9933 8.42898 14.938C8.80448 14.8907 9.17402 14.8177 9.53561 14.7092C10.2012 14.5099 10.833 14.2376 11.425 13.8745C12.0469 13.4937 12.5992 13.032 13.0879 12.4913C13.4118 12.1322 13.6999 11.7474 13.9462 11.333C14.3217 10.7016 14.5899 10.0288 14.7747 9.32039C14.8899 8.87642 14.9615 8.42456 14.9853 7.96678C15.0032 7.67278 15.0052 7.3768 14.9893 7.08082ZM7.64421 13.2155C7.44156 13.468 7.24686 13.7265 7.05017 13.985C6.93692 14.135 6.79189 14.206 6.60314 14.1626C6.40844 14.1172 6.28327 13.9534 6.28526 13.7541C6.28327 13.6515 6.31904 13.5627 6.38261 13.4818C6.5793 13.2312 6.77599 12.9787 6.97268 12.7281C7.10182 12.5663 7.31242 12.5051 7.48527 12.5939C7.76143 12.734 7.77533 13.0497 7.64421 13.2155ZM9.24952 11.0509C9.24157 11.1337 9.20779 11.2028 9.15812 11.2679C8.95945 11.5225 8.76474 11.779 8.56805 12.0335C8.46474 12.1677 8.32964 12.2328 8.16077 12.2032C7.97997 12.1716 7.86673 12.0572 7.82302 11.8796C7.81507 11.85 7.81507 11.8184 7.81308 11.7869C7.81308 11.6882 7.84686 11.5994 7.90646 11.5225C8.10911 11.264 8.31176 11.0035 8.5164 10.745C8.62766 10.6049 8.83825 10.5517 9.00117 10.6187C9.16011 10.6858 9.2674 10.8713 9.24952 11.0509ZM10.6959 9.28684C10.4893 9.5473 10.2886 9.81171 10.078 10.0682C9.97866 10.1886 9.83958 10.2557 9.67667 10.2202C9.50183 10.1807 9.3866 10.0682 9.34885 9.89064C9.32303 9.77225 9.35084 9.65977 9.42634 9.56111C9.61905 9.30855 9.81574 9.05993 10.0065 8.80538C10.2032 8.54098 10.6204 8.56663 10.7535 8.88826C10.7754 8.93956 10.7813 8.99284 10.7813 9.04611C10.7813 9.13688 10.7535 9.21581 10.6959 9.28684ZM12.2158 7.31366C12.0111 7.57609 11.8085 7.84247 11.6058 8.10688C11.4946 8.25092 11.3018 8.31209 11.127 8.25684C10.9621 8.20554 10.8449 8.05163 10.8389 7.87207C10.835 7.76354 10.8767 7.66488 10.9422 7.58201C11.1409 7.32549 11.3456 7.0749 11.5482 6.82233C11.6634 6.68026 11.8482 6.62501 12.0151 6.68421C12.182 6.7434 12.2932 6.89929 12.2952 7.08279C12.2893 7.16172 12.2714 7.24262 12.2158 7.31366ZM13.7535 5.33455C13.5509 5.59698 13.3482 5.86139 13.1475 6.12382C13.0164 6.29549 12.8356 6.35271 12.6449 6.28168C12.486 6.22248 12.3787 6.06068 12.3826 5.86534C12.3807 5.78641 12.4184 5.69762 12.48 5.61671C12.6747 5.36809 12.8674 5.11947 13.0641 4.87085C13.2151 4.67748 13.4376 4.63999 13.6482 4.77022C13.823 4.88072 13.8787 5.17275 13.7535 5.33455Z" fill="white"/>
<path d="M10.4276 0.591599C9.58918 0.228532 8.71103 0.0391064 7.79711 0.00556225C7.15339 -0.018116 6.51564 0.0331869 5.88583 0.17131C5.27787 0.303513 4.69376 0.504779 4.13945 0.786944C3.15798 1.28419 2.32155 1.95902 1.63611 2.8213C1.23876 3.32249 0.906964 3.86117 0.648683 4.44523C0.386428 5.03719 0.199671 5.6548 0.0923851 6.29214C0.0447025 6.56838 0.0208612 6.8466 0.0089405 7.12482C-0.00298017 7.37542 -0.00298017 7.62404 0.0089405 7.87463C0.0188744 8.10747 0.0387422 8.34228 0.0705306 8.57314C0.11424 8.89477 0.189737 9.21048 0.277155 9.52224C0.376494 9.88136 0.497688 10.2346 0.654643 10.574C0.811599 10.9114 0.994382 11.235 1.19306 11.5507C1.31028 11.7362 1.43545 11.9137 1.57055 12.0913C4.53482 8.26335 7.49512 4.43537 10.4554 0.611331C10.4495 0.597518 10.4375 0.595545 10.4276 0.591599ZM2.54009 9.28152C2.33744 9.54198 2.13479 9.80441 1.92817 10.0609C1.80499 10.2148 1.5924 10.2642 1.41955 10.1734C1.20895 10.0609 1.07981 9.78665 1.26856 9.56171C1.33809 9.47883 1.39968 9.39004 1.46525 9.30322C1.59836 9.12761 1.7275 8.94805 1.8626 8.77441C1.97386 8.63036 2.12287 8.56919 2.30367 8.61063C2.48447 8.65207 2.58778 8.77046 2.62553 8.95002C2.62751 8.95594 2.62751 8.96383 2.6295 8.96975C2.6295 8.98751 2.6295 9.00527 2.6295 9.02303C2.63149 9.11774 2.5997 9.20456 2.54009 9.28152ZM4.06395 7.32017C3.89706 7.53327 3.73017 7.74835 3.56329 7.96145C3.53348 8.00092 3.50368 8.04038 3.47189 8.07787C3.38249 8.19034 3.25931 8.24954 3.06063 8.24757C2.93546 8.24362 2.81824 8.14299 2.74473 7.99302C2.67321 7.85096 2.70102 7.71678 2.79838 7.59049C2.99904 7.33003 3.19374 7.06563 3.39242 6.80319C3.49772 6.66507 3.64077 6.60587 3.80965 6.63547C3.98051 6.66507 4.09375 6.7657 4.14144 6.9354C4.18316 7.07747 4.15336 7.20572 4.06395 7.32017ZM5.57589 5.35882C5.3792 5.61139 5.18251 5.86198 4.98582 6.11258C4.87257 6.25662 4.71959 6.29806 4.54873 6.25662C4.3878 6.21716 4.28449 6.10666 4.24276 5.94683C4.21097 5.82055 4.24475 5.70215 4.32025 5.60349C4.52687 5.33514 4.73946 5.07271 4.95403 4.8083C5.05536 4.68399 5.19244 4.64255 5.34543 4.6761C5.51033 4.71161 5.61364 4.82014 5.65934 4.98391C5.66927 5.01746 5.67126 5.051 5.66927 5.09639C5.67523 5.18913 5.63947 5.27792 5.57589 5.35882ZM7.15737 3.29289C7.09975 3.41523 7.00637 3.51192 6.9269 3.61649C6.78783 3.79803 6.64676 3.97956 6.50372 4.15715C6.39643 4.29132 6.24941 4.34263 6.08451 4.30908C5.90967 4.27357 5.79642 4.16307 5.75669 3.98745C5.75073 3.95983 5.75073 3.92826 5.74675 3.89866C5.74874 3.79605 5.79046 3.71121 5.85007 3.63228C6.04278 3.37774 6.23749 3.12517 6.43418 2.8726C6.56332 2.70686 6.77193 2.64766 6.95074 2.73448C7.18518 2.85287 7.25472 3.08571 7.15737 3.29289ZM8.63553 1.42231C8.43685 1.68672 8.2342 1.94718 8.03155 2.20961C7.92426 2.34774 7.72956 2.40298 7.56267 2.34971C7.39578 2.29643 7.28055 2.14252 7.27459 1.96296C7.2726 1.85444 7.31432 1.75578 7.37591 1.67093C7.57062 1.41244 7.76929 1.15593 7.96797 0.899416C8.04943 0.794837 8.16069 0.737615 8.30771 0.731695C8.47063 0.745507 8.59977 0.832328 8.68122 0.980317C8.76864 1.13423 8.73685 1.28813 8.63553 1.42231Z" fill="white"/>
</svg>
