<svg width="14" height="10" viewBox="0 0 14 10" fill="none" xmlns="http://www.w3.org/2000/svg">
<path d="M13.0465 0.486067C13.1828 0.630891 13.256 0.823915 13.25 1.02269C13.244 1.22147 13.1593 1.40973 13.0145 1.54607L5.08455 9.02007C4.92289 9.17231 4.70808 9.25524 4.48606 9.25113C4.26405 9.24701 4.05245 9.15619 3.89655 8.99807L1.21655 6.27807C1.14558 6.20834 1.08919 6.12518 1.05067 6.03345C1.01216 5.94171 0.992274 5.84323 0.992188 5.74374C0.992102 5.64425 1.01181 5.54573 1.05017 5.45393C1.08853 5.36213 1.14477 5.27888 1.21562 5.20902C1.28647 5.13917 1.37051 5.08411 1.46284 5.04705C1.55518 5.01 1.65396 4.99168 1.75344 4.99317C1.85293 4.99467 1.95112 5.01594 2.0423 5.05575C2.13348 5.09556 2.21583 5.15312 2.28455 5.22507L4.51855 7.49207L11.9865 0.454067C12.1314 0.317777 12.3244 0.244585 12.5232 0.250586C12.722 0.256587 12.9102 0.341289 13.0465 0.486067Z" fill="white"/>
</svg>
