<svg width="160" height="160" viewBox="0 0 160 160" fill="none" xmlns="http://www.w3.org/2000/svg">
<path d="M160 80C160 124.183 124.183 160 80 160C35.8172 160 0 124.183 0 80C0 35.8172 35.8172 0 80 0C124.183 0 160 35.8172 160 80Z" fill="#B2493E" fill-opacity="0.1"/>
<path d="M150 80C150 118.66 118.66 150 80 150C41.3401 150 10 118.66 10 80C10 41.3401 41.3401 10 80 10C118.66 10 150 41.3401 150 80Z" fill="#B2493E" fill-opacity="0.3"/>
<path d="M140 80C140 113.137 113.137 140 80 140C46.8629 140 20 113.137 20 80C20 46.8629 46.8629 20 80 20C113.137 20 140 46.8629 140 80Z" fill="#B2493E" fill-opacity="0.5"/>
<path d="M130 80C130 107.614 107.614 130 80 130C52.3858 130 30 107.614 30 80C30 52.3858 52.3858 30 80 30C107.614 30 130 52.3858 130 80Z" fill="#B2493E" fill-opacity="0.8"/>
<path d="M84.0863 55.39V75.41C84.0863 77.5333 83.9812 79.6217 83.7712 81.675C83.5612 83.705 83.2929 85.8633 82.9662 88.15H77.0863C76.7596 85.8633 76.4912 83.705 76.2812 81.675C76.0713 79.6217 75.9662 77.5333 75.9662 75.41V55.39H84.0863ZM74.6012 101.24C74.6012 100.517 74.7296 99.8283 74.9863 99.175C75.2663 98.5217 75.6396 97.9617 76.1062 97.495C76.5962 97.0283 77.1679 96.655 77.8213 96.375C78.4746 96.095 79.1746 95.955 79.9212 95.955C80.6446 95.955 81.3329 96.095 81.9863 96.375C82.6396 96.655 83.1996 97.0283 83.6663 97.495C84.1562 97.9617 84.5413 98.5217 84.8213 99.175C85.1012 99.8283 85.2412 100.517 85.2412 101.24C85.2412 101.987 85.1012 102.687 84.8213 103.34C84.5413 103.97 84.1562 104.518 83.6663 104.985C83.1996 105.452 82.6396 105.813 81.9863 106.07C81.3329 106.35 80.6446 106.49 79.9212 106.49C79.1746 106.49 78.4746 106.35 77.8213 106.07C77.1679 105.813 76.5962 105.452 76.1062 104.985C75.6396 104.518 75.2663 103.97 74.9863 103.34C74.7296 102.687 74.6012 101.987 74.6012 101.24Z" fill="white"/>
</svg>
