<svg width="30" height="30" viewBox="0 0 30 30" fill="none" xmlns="http://www.w3.org/2000/svg">
<path d="M8.23639 27.289C6.8594 25.7242 5.48247 24.0969 4.60618 22.1566C3.72995 20.0912 3.47957 17.7128 3.91772 15.4596C4.35586 13.2064 5.35726 11.0783 6.79685 9.26325C6.67169 10.828 7.235 12.4553 8.299 13.6445C7.67308 10.6402 8.67453 7.38556 10.6774 5.00719C12.6802 2.62881 15.4342 1.064 18.3133 0C16.8737 1.50214 16.686 3.88052 17.2493 5.88342C17.8126 7.88626 19.0018 9.63878 20.0658 11.4539C21.1298 13.2689 22.1312 15.1466 22.1938 17.2121C22.7571 16.1481 23.3831 15.084 23.7586 13.8948C24.1341 12.7056 24.3219 11.4539 24.009 10.2646C25.1356 11.6416 25.7615 13.0185 26.0744 14.7711C26.3873 16.5236 26.3248 18.3387 26.137 20.0912C25.8867 22.0315 25.386 24.0343 24.322 25.6616C23.0702 27.6019 21.0673 28.9788 18.8767 29.7299C14.996 30.4184 11.1781 29.8551 8.23639 27.289Z" fill="#F3705A"/>
<path d="M12.9932 29.6052C18.1255 31.6081 23.1952 25.5369 20.3787 20.8427C20.3787 20.7801 20.3161 20.7801 20.3161 20.7176C20.5664 23.2837 19.9405 25.1614 18.7513 26.2255C19.3772 24.7233 18.9391 22.9708 18.188 21.4687C17.4369 20.0291 16.3729 18.7147 15.5592 17.3378C14.7456 15.8982 14.1197 14.2709 14.4952 12.6436C12.9931 13.7702 11.9291 15.4601 11.491 17.2751C11.0528 19.0902 11.3032 21.0931 12.1169 22.783C11.178 22.0946 10.4896 20.968 10.427 19.7787C9.42551 20.968 8.79965 22.5326 8.8622 24.0974C8.86226 26.5384 10.8025 28.729 12.9932 29.6052Z" fill="#FFD15C"/>
</svg>
