<svg width="16" height="16" viewBox="0 0 16 16" fill="white" xmlns="http://www.w3.org/2000/svg">
<path d="M7.07074 12.0117V7.51172H8.58246V12.0117H7.07074ZM2.50043 2.97656C3.97699 1.5 5.74652 0.761719 7.80902 0.761719C9.89496 0.761719 11.6645 1.5 13.1176 2.97656C14.5942 4.42969 15.3325 6.1875 15.3325 8.25C15.3325 10.3125 14.5942 12.082 13.1176 13.5586C11.6645 15.0117 9.89496 15.7383 7.80902 15.7383C5.74652 15.7383 3.97699 15.0117 2.50043 13.5586C1.0473 12.082 0.32074 10.3125 0.32074 8.25C0.32074 6.1875 1.0473 4.42969 2.50043 2.97656ZM3.59027 12.5039C4.76215 13.6758 6.1684 14.2617 7.80902 14.2617C9.47308 14.2617 10.8911 13.6758 12.0629 12.5039C13.2348 11.332 13.8207 9.91406 13.8207 8.25C13.8207 6.58594 13.2348 5.16797 12.0629 3.99609C10.8911 2.82422 9.47308 2.23828 7.80902 2.23828C6.1684 2.23828 4.76215 2.82422 3.59027 3.99609C2.4184 5.16797 1.83246 6.58594 1.83246 8.25C1.83246 9.91406 2.4184 11.332 3.59027 12.5039ZM7.07074 6V4.48828H8.58246V6H7.07074Z" fill="#white"/>
</svg>