<svg width="16" height="20" viewBox="0 0 16 20" fill="none" xmlns="http://www.w3.org/2000/svg">
<path d="M8.48918 8.92V14H7.51418V8.92H8.48918ZM8.67418 7.35C8.67418 7.44 8.65585 7.52667 8.61918 7.61C8.58251 7.69 8.53251 7.76167 8.46918 7.825C8.40918 7.885 8.33751 7.93333 8.25418 7.97C8.17085 8.00333 8.08418 8.02 7.99418 8.02C7.90418 8.02 7.81918 8.00333 7.73918 7.97C7.65918 7.93333 7.58751 7.885 7.52418 7.825C7.46418 7.76167 7.41585 7.69 7.37918 7.61C7.34585 7.52667 7.32918 7.44 7.32918 7.35C7.32918 7.25667 7.34585 7.17 7.37918 7.09C7.41585 7.00667 7.46418 6.935 7.52418 6.875C7.58751 6.81167 7.65918 6.76333 7.73918 6.73C7.81918 6.69333 7.90418 6.675 7.99418 6.675C8.08418 6.675 8.17085 6.69333 8.25418 6.73C8.33751 6.76333 8.40918 6.81167 8.46918 6.875C8.53251 6.935 8.58251 7.00667 8.61918 7.09C8.65585 7.17 8.67418 7.25667 8.67418 7.35Z" fill="#694B1C"/>
<circle cx="8" cy="10" r="7.5" stroke="#694B1C"/>
</svg>
