<svg xmlns="http://www.w3.org/2000/svg" width="128" height="30" viewBox="0 0 128 30" fill="none">
  <path d="M1.1 14.8C1.44667 14.8 1.74 14.68 1.98 14.44C2.23333 14.1867 2.36667 13.8867 2.38 13.54V2.44C2.36667 1.96 2.14667 1.6 1.72 1.36C1.53333 1.25333 1.32667 1.2 1.1 1.2H0.84V0.999999H6.92L6.9 1.2H6.66C6.18 1.2 5.81333 1.40667 5.56 1.82C5.44 2.00667 5.38 2.21333 5.38 2.44V13.54C5.38 13.8867 5.50667 14.1867 5.76 14.44C6.01333 14.68 6.31333 14.8 6.66 14.8H6.9L6.92 15H0.84V14.8H1.1ZM15.54 15H13.9C11.8733 15 10.44 14.4467 9.6 13.34C7.21333 10.1 6.02 8.45333 6.02 8.4L10.76 2.12C10.8667 1.98667 10.92 1.86667 10.92 1.76C10.92 1.65333 10.9 1.56 10.86 1.48C10.7533 1.28 10.5667 1.18 10.3 1.18H10.1V0.999999H14.68V1.18H14.6C13.7067 1.18 12.98 1.5 12.42 2.14L8.52 6.76L13.5 13.56C14.1133 14.36 14.7933 14.7733 15.54 14.8V15ZM25.6972 14.8C26.0439 14.8 26.3105 14.7133 26.4972 14.54C26.8039 14.2333 26.9639 13.9067 26.9772 13.56V8.46H20.4972V13.54C20.4972 13.8867 20.6239 14.1867 20.8772 14.44C21.1305 14.68 21.4305 14.8 21.7772 14.8H22.0172L22.0372 15H15.9572V14.8H16.2172C16.5639 14.8 16.8572 14.68 17.0972 14.44C17.3505 14.1867 17.4839 13.8867 17.4972 13.54V2.44C17.4839 2.09333 17.3505 1.8 17.0972 1.56C16.8572 1.32 16.5639 1.2 16.2172 1.2H15.9572V0.999999H22.0372L22.0172 1.2H21.7772C21.4305 1.2 21.1305 1.32 20.8772 1.56C20.6239 1.8 20.4972 2.09333 20.4972 2.44V7.6H26.9772V2.44C26.9639 2.09333 26.8305 1.8 26.5772 1.56C26.3372 1.32 26.0439 1.2 25.6972 1.2H25.4372V0.999999H31.5172V1.2H31.2572C30.9105 1.2 30.6105 1.32667 30.3572 1.58C30.1039 1.82 29.9772 2.11333 29.9772 2.46V13.54C29.9772 13.8867 30.1039 14.1867 30.3572 14.44C30.6105 14.68 30.9105 14.8 31.2572 14.8H31.5172V15H25.4372V14.8H25.6972ZM25.768 14.8C26.1146 14.8 26.408 14.68 26.648 14.44C26.9013 14.1867 27.0346 13.8867 27.048 13.54V2.4C27.008 1.93333 26.788 1.58667 26.388 1.36C26.188 1.25333 25.9813 1.2 25.768 1.2H25.508V0.999999H33.168C33.5813 0.999999 34.0346 0.959999 34.528 0.879999C35.0213 0.8 35.368 0.719999 35.568 0.639999V4.14H35.368V3.9C35.368 3.3 35.188 2.82 34.828 2.46C34.4813 2.08667 34.008 1.88667 33.408 1.86H30.048V7.68H32.688C33.1813 7.66667 33.588 7.5 33.908 7.18C34.228 6.84667 34.388 6.44 34.388 5.96V5.78H34.588V10.4H34.388V10.24C34.388 9.57333 34.1213 9.08 33.588 8.76C33.3213 8.61333 33.028 8.53333 32.708 8.52H30.048V14.14H32.668C33.6413 14.14 34.4546 13.86 35.108 13.3C35.7746 12.74 36.268 11.9467 36.588 10.92H36.788L35.868 15H25.508V14.8H25.768ZM38.307 14.8C38.6537 14.8 38.947 14.68 39.187 14.44C39.4404 14.1867 39.5737 13.8867 39.587 13.54V2.46C39.5737 2.11333 39.4404 1.82 39.187 1.58C38.947 1.32667 38.6537 1.2 38.307 1.2H38.047V0.999999H44.127L44.107 1.2H43.867C43.5204 1.2 43.2204 1.32667 42.967 1.58C42.7137 1.82 42.587 2.11333 42.587 2.46V14.14H45.207C46.1804 14.14 46.9937 13.86 47.647 13.3C48.3137 12.74 48.807 11.9467 49.127 10.92H49.327L48.407 15H38.047V14.8H38.307ZM58.175 0.719999C60.6417 0.719999 62.6017 1.37333 64.055 2.68C65.5083 3.98667 66.235 5.76 66.235 8C66.235 10.24 65.5083 12.0133 64.055 13.32C62.6017 14.6267 60.6417 15.28 58.175 15.28C55.7083 15.28 53.7483 14.6267 52.295 13.32C50.8417 12.0133 50.115 10.24 50.115 8C50.115 6.52 50.4417 5.23333 51.095 4.14C51.7617 3.03333 52.7017 2.18667 53.915 1.6C55.1283 1.01333 56.5483 0.719999 58.175 0.719999ZM54.675 12.72C55.5417 13.8667 56.7083 14.44 58.175 14.44C59.6417 14.44 60.8017 13.8667 61.655 12.72C62.5217 11.56 62.955 9.98667 62.955 8C62.955 6.69333 62.7617 5.55333 62.375 4.58C61.9883 3.60667 61.435 2.86 60.715 2.34C59.995 1.82 59.1483 1.56 58.175 1.56C56.7083 1.56 55.5417 2.14 54.675 3.3C53.8217 4.44667 53.395 6.01333 53.395 8C53.395 9.98667 53.8217 11.56 54.675 12.72ZM76.3084 15.26C73.7351 15.26 71.7151 14.6133 70.2484 13.32C68.7818 12.0267 68.0484 10.2533 68.0484 8C68.0484 5.74667 68.7751 3.97333 70.2284 2.68C71.6818 1.37333 73.6751 0.719999 76.2084 0.719999C78.1418 0.719999 79.8018 1.08 81.1884 1.8L81.2284 5.24H81.0684C80.3884 2.78667 78.8351 1.56 76.4084 1.56C74.8351 1.56 73.5884 2.13333 72.6684 3.28C71.7618 4.41333 71.3084 5.96667 71.3084 7.94C71.3084 9.91333 71.7418 11.48 72.6084 12.64C73.4884 13.8 74.6751 14.4 76.1684 14.44C77.7151 14.44 78.8951 14.0533 79.7084 13.28C80.5351 12.48 81.1084 11.1067 81.4284 9.16H81.5884L81.7884 12.6C80.7084 14.3867 78.8818 15.2733 76.3084 15.26ZM97.5139 14.8H97.6939V15H91.3139V14.8H91.4939C91.7872 14.8 92.0006 14.7133 92.1339 14.54C92.2806 14.3533 92.3539 14.18 92.3539 14.02C92.3539 13.86 92.3206 13.7 92.2539 13.54L91.2739 11.08H86.5939L85.5539 13.54C85.4872 13.7133 85.4539 13.88 85.4539 14.04C85.4539 14.1867 85.5206 14.3533 85.6539 14.54C85.8006 14.7133 86.0272 14.8 86.3339 14.8H86.4939V15H82.2139V14.8H82.3939C82.7006 14.8 83.0072 14.7067 83.3139 14.52C83.6206 14.3333 83.8739 14.0533 84.0739 13.68L88.6939 3.22C89.3206 1.9 89.6539 1.02667 89.6939 0.599999H89.8739L95.8139 13.64C96.0139 14.0267 96.2672 14.32 96.5739 14.52C96.8806 14.7067 97.1939 14.8 97.5139 14.8ZM86.9339 10.24H90.9339L88.9939 5.32L86.9339 10.24ZM103.43 1.88H102.57C102.544 1.88 102.524 1.88 102.51 1.88V13.54C102.524 14.0333 102.737 14.4 103.15 14.64C103.35 14.7467 103.564 14.8 103.79 14.8H104.05V15H97.9703V14.8H98.2303C98.7103 14.8 99.077 14.5933 99.3303 14.18C99.437 13.9933 99.497 13.7867 99.5103 13.56V2.46C99.497 2.11333 99.3636 1.82 99.1103 1.58C98.8703 1.32667 98.577 1.2 98.2303 1.2H97.9703V0.999999H104.83C106.124 0.999999 107.217 1.28 108.11 1.84C108.564 2.12 108.924 2.51333 109.19 3.02C109.457 3.51333 109.59 4.08 109.59 4.72C109.59 5.34667 109.477 5.92667 109.25 6.46C109.037 6.99333 108.67 7.46 108.15 7.86C107.644 8.26 107.03 8.5 106.31 8.58C107.084 8.83333 107.764 9.42 108.35 10.34C109.79 12.6467 110.857 14.02 111.55 14.46C111.897 14.6733 112.33 14.7867 112.85 14.8V15H110.89C109.757 15 108.81 14.8467 108.05 14.54C107.29 14.22 106.67 13.68 106.19 12.92C105.95 12.5333 105.644 11.9533 105.27 11.18C104.897 10.3933 104.65 9.83333 104.53 9.5C104.17 8.7 103.717 8.25333 103.17 8.16V7.96H103.79C104.39 7.96 104.917 7.78 105.37 7.42C105.837 7.06 106.15 6.47333 106.31 5.66C106.364 5.38 106.39 5.16 106.39 5C106.39 3.90667 106.17 3.12 105.73 2.64C105.29 2.14667 104.724 1.89333 104.03 1.88C103.897 1.88 103.697 1.88 103.43 1.88ZM119.858 0.999999C122.218 0.999999 124.084 1.62667 125.458 2.88C126.831 4.13333 127.518 5.84 127.518 8C127.518 10.16 126.831 11.8667 125.458 13.12C124.084 14.3733 122.218 15 119.858 15H112.598V14.8H112.858C113.204 14.8 113.498 14.68 113.738 14.44C113.991 14.1867 114.124 13.8867 114.138 13.54V2.34C114.098 2.02 113.958 1.75333 113.718 1.54C113.478 1.31333 113.191 1.2 112.858 1.2H112.598V0.999999H119.858ZM119.598 14.16C120.558 14.16 121.384 13.9133 122.078 13.42C122.784 12.9133 123.324 12.2 123.698 11.28C124.071 10.3467 124.258 9.25333 124.258 8C124.258 6.10667 123.838 4.60667 122.998 3.5C122.171 2.39333 121.038 1.84 119.598 1.84H117.138V14.16H119.598Z" fill="#800020"/>
</svg>