<svg width="25" height="25" viewBox="0 0 25 25" fill="none" xmlns="http://www.w3.org/2000/svg">
<path d="M12.4998 1.04163C9.03754 1.04163 6.24984 3.82932 6.24984 7.29163V8.33329C5.104 8.33329 4.1665 9.27079 4.1665 10.4166V20.8333C4.1665 21.9791 5.104 22.9166 6.24984 22.9166H18.7498C19.8957 22.9166 20.8332 21.9791 20.8332 20.8333V10.4166C20.8332 9.27079 19.8957 8.33329 18.7498 8.33329V7.29163C18.7498 3.82932 15.9621 1.04163 12.4998 1.04163ZM12.4998 3.12496C14.8709 3.12496 16.6665 4.92059 16.6665 7.29163V8.33329H8.33317V7.29163C8.33317 4.92059 10.1288 3.12496 12.4998 3.12496ZM12.4998 13.5416C13.6457 13.5416 14.5832 14.4791 14.5832 15.625C14.5832 16.7708 13.6457 17.7083 12.4998 17.7083C11.354 17.7083 10.4165 16.7708 10.4165 15.625C10.4165 14.4791 11.354 13.5416 12.4998 13.5416Z" fill="white"/>
</svg>
