<svg width="10" height="13" viewBox="0 0 10 13" fill="none" xmlns="http://www.w3.org/2000/svg">
<path d="M5 0C2.92262 0 1.25 1.65669 1.25 3.71429V4.33333C0.5625 4.33333 0 4.89048 0 5.57143V11.7619C0 12.4429 0.5625 13 1.25 13H8.75C9.4375 13 10 12.4429 10 11.7619V5.57143C10 4.89048 9.4375 4.33333 8.75 4.33333V3.71429C8.75 1.65669 7.07738 0 5 0ZM5 1.2381C6.42262 1.2381 7.5 2.30522 7.5 3.71429V4.33333H2.5V3.71429C2.5 2.30522 3.57738 1.2381 5 1.2381ZM5 7.42857C5.6875 7.42857 6.25 7.98571 6.25 8.66667C6.25 9.34762 5.6875 9.90476 5 9.90476C4.3125 9.90476 3.75 9.34762 3.75 8.66667C3.75 7.98571 4.3125 7.42857 5 7.42857Z" fill="white"/>
</svg>
