<svg width="68" height="68" viewBox="0 0 68 68" fill="none" xmlns="http://www.w3.org/2000/svg">
<path d="M21.304 8.20781L24.7397 6.78459C26.0949 6.22306 26.7387 4.66928 26.1771 3.31393C25.6156 1.95858 24.062 1.31457 22.7065 1.8765L19.2707 3.29972C17.9155 3.86125 17.2718 5.41503 17.8333 6.77038C18.393 8.12121 19.9442 8.77067 21.304 8.20781Z" fill="#8D8D8D"/>
<path d="M34 0C32.533 0 31.3438 1.1892 31.3438 2.65625C31.3438 4.1233 32.533 5.3125 34 5.3125C49.8549 5.3125 62.6875 18.1432 62.6875 34C62.6875 49.8549 49.8568 62.6875 34 62.6875C18.1451 62.6875 5.3125 49.8568 5.3125 34C5.3125 32.533 4.1233 31.3438 2.65625 31.3438C1.1892 31.3438 0 32.533 0 34C0 52.7907 15.2066 68 34 68C52.7907 68 68 52.7934 68 34C68 15.2093 52.7934 0 34 0Z" fill="#8D8D8D"/>
<path d="M12.4001 15.0297L15.0297 12.4002C16.0671 11.3628 16.0671 9.68083 15.0297 8.64357C13.9923 7.6063 12.3103 7.60617 11.2731 8.64357L8.64353 11.2731C7.60613 12.3105 7.60613 13.9925 8.64353 15.0297C9.68066 16.0669 11.3627 16.0671 12.4001 15.0297Z" fill="#8D8D8D"/>
<path d="M3.31396 26.1772C4.67224 26.7398 6.22441 26.0919 6.78462 24.7398L8.20784 21.3039C8.76937 19.9486 8.12563 18.3948 6.77041 17.8333C5.41479 17.2719 3.86128 17.9155 3.29975 19.2707L1.87653 22.7064C1.315 24.0619 1.95874 25.6157 3.31396 26.1772Z" fill="#8D8D8D"/>
<path d="M36.945 15.235V30.965C36.945 32.6333 36.8625 34.2742 36.6975 35.8875C36.5325 37.4825 36.3217 39.1783 36.065 40.975H31.445C31.1883 39.1783 30.9775 37.4825 30.8125 35.8875C30.6475 34.2742 30.565 32.6333 30.565 30.965V15.235H36.945ZM29.4925 51.26C29.4925 50.6917 29.5933 50.1508 29.795 49.6375C30.015 49.1242 30.3083 48.6842 30.675 48.3175C31.06 47.9508 31.5092 47.6575 32.0225 47.4375C32.5358 47.2175 33.0858 47.1075 33.6725 47.1075C34.2408 47.1075 34.7817 47.2175 35.295 47.4375C35.8083 47.6575 36.2483 47.9508 36.615 48.3175C37 48.6842 37.3025 49.1242 37.5225 49.6375C37.7425 50.1508 37.8525 50.6917 37.8525 51.26C37.8525 51.8467 37.7425 52.3967 37.5225 52.91C37.3025 53.405 37 53.8358 36.615 54.2025C36.2483 54.5692 35.8083 54.8533 35.295 55.055C34.7817 55.275 34.2408 55.385 33.6725 55.385C33.0858 55.385 32.5358 55.275 32.0225 55.055C31.5092 54.8533 31.06 54.5692 30.675 54.2025C30.3083 53.8358 30.015 53.405 29.795 52.91C29.5933 52.3967 29.4925 51.8467 29.4925 51.26Z" fill="#8D8D8D"/>
</svg>
