<svg width="12" height="12" viewBox="0 0 12 12" fill="none" xmlns="http://www.w3.org/2000/svg">
<path d="M10.9109 0.00750731C10.8985 0.00650025 10.888 0 10.875 0H5.5C4.673 0 4 0.673004 4 1.5V1.99997C4 2.276 4.22394 2.50003 4.49997 2.50003C4.776 2.50003 4.99994 2.276 4.99994 1.99997V1.5C4.99994 1.22452 5.22443 1.00003 5.5 1.00003H7.82947L7.67694 1.05103C7.272 1.19101 7 1.57251 7 1.99997V9.49997H5.5C5.22443 9.49997 4.99994 9.27548 4.99994 9V7.99997C4.99994 7.72403 4.776 7.5 4.49997 7.5C4.22394 7.5 4 7.72403 4 7.99997V9C4 9.827 4.673 10.5 5.5 10.5H7V11C7 11.5515 7.44843 12 7.99994 12C8.10696 12 8.2085 11.9845 8.31845 11.9505L11.3225 10.949C11.728 10.809 12 10.4275 12 10V1.00003C12 0.417023 11.4974 -0.0400085 10.9109 0.00750731Z" fill="white"/>
<path d="M5.35345 4.64658L3.35349 2.64661C3.21048 2.5036 2.99551 2.46057 2.80847 2.53812C2.62198 2.61557 2.50003 2.79813 2.50003 3.00009V4.50009H0.499969C0.22403 4.50009 0 4.72412 0 5.00006C0 5.27609 0.22403 5.50012 0.499969 5.50012H2.50003V7.00012C2.50003 7.20209 2.62198 7.38455 2.80847 7.4621C2.99551 7.53955 3.21048 7.49661 3.35349 7.35361L5.35345 5.35355C5.54901 5.15808 5.54901 4.84213 5.35345 4.64658Z" fill="white"/>
</svg>
