<svg width="144" height="27" viewBox="0 0 144 27" fill="none" xmlns="http://www.w3.org/2000/svg">
<g clip-path="url(#clip0_1278_1391)">
<path d="M144 19.809L143.747 19.5544C143.191 18.9961 142.575 18.5003 141.912 18.076C142.643 16.039 142.876 13.8548 142.592 11.708C142.307 9.56122 141.514 7.51494 140.278 5.74223C139.043 3.96952 137.402 2.52251 135.494 1.52354C133.586 0.524583 131.467 0.00305176 129.317 0.00305176C127.166 0.00305176 125.047 0.524583 123.139 1.52354C121.231 2.52251 119.59 3.96952 118.355 5.74223C117.119 7.51494 116.326 9.56122 116.041 11.708C115.757 13.8548 115.99 16.039 116.721 18.076C116.058 18.5003 115.443 18.9961 114.886 19.5544L114.633 19.809L114.886 20.0636C116.184 21.3822 117.812 22.3223 119.598 22.7844C120.808 24.0731 122.259 25.1088 123.868 25.8324C125.476 26.5559 127.211 26.953 128.972 27.0011C130.732 27.0492 132.486 26.7472 134.131 26.1124C135.776 25.4777 137.28 24.5226 138.558 23.3018C138.734 23.1334 138.905 22.961 139.072 22.7844C140.856 22.3186 142.483 21.3798 143.784 20.0657L144 19.809ZM119.642 10.0801C122.026 10.1676 124.293 11.143 126.004 12.8172C126.003 13.3812 126.058 13.9438 126.167 14.4969C125.307 14.0391 124.348 13.8007 123.376 13.8029H123.357V13.8213C123.358 15.1901 123.825 16.5171 124.68 17.5811C125.092 18.09 125.581 18.5295 126.13 18.8829C124.293 18.2457 122.691 17.064 121.533 15.493C120.375 13.922 119.716 12.0351 119.642 10.0801ZM127.69 16.9055C126.846 15.1444 126.548 13.168 126.836 11.2341C127.123 9.30015 127.983 7.49836 129.302 6.06364C130.376 7.23906 131.146 8.66199 131.545 10.2074C131.726 11.0236 131.835 11.8544 131.871 12.6899C131.875 14.1624 131.547 15.6166 130.911 16.9425C131.136 15.9549 131.108 14.926 130.829 13.9523C130.551 12.9786 130.032 12.092 129.321 11.3757L129.302 11.3573L129.284 11.3757C128.569 12.0821 128.047 12.9619 127.768 13.9304C127.489 14.8989 127.462 15.9235 127.69 16.9055ZM132.493 18.8953C133.045 18.5486 133.535 18.1106 133.943 17.5996C134.797 16.5356 135.265 15.2086 135.266 13.8398V13.8213H135.247C134.267 13.8189 133.301 14.0639 132.438 14.5339C132.528 13.9843 132.583 13.4294 132.601 12.8727C132.601 12.8542 132.619 12.8542 132.619 12.8357C134.323 11.1617 136.584 10.186 138.962 10.0985C138.875 12.0466 138.213 13.9243 137.061 15.4913C135.908 17.0584 134.318 18.2435 132.493 18.8953ZM122.069 17.2074C122.47 17.605 122.907 17.9652 123.373 18.2833C122.441 18.5792 121.59 19.092 120.89 19.7803L120.872 19.7987L120.89 19.8172C121.604 20.5354 122.488 21.0595 123.457 21.3403C124.427 21.6211 125.452 21.6496 126.436 21.423C125.12 22.0646 123.676 22.3954 122.213 22.3901C119.781 22.4049 117.436 21.4813 115.659 19.809C117.388 18.1502 119.681 17.2195 122.069 17.2074ZM136.385 22.3901C134.929 22.3973 133.49 22.0664 132.181 21.423C132.61 21.5165 133.047 21.5654 133.486 21.5688C134.267 21.572 135.041 21.4188 135.763 21.1181C136.484 20.8174 137.139 20.3752 137.69 19.8172L137.708 19.7987L137.69 19.7803C137.016 19.0996 136.19 18.5924 135.28 18.3018C135.298 18.2833 135.317 18.2464 135.335 18.2279C135.353 18.2094 135.317 18.2094 135.317 18.1909C135.736 17.8817 136.136 17.5464 136.514 17.1868C138.904 17.2147 141.198 18.1386 142.948 19.7782C141.175 21.4655 138.827 22.404 136.387 22.4004L136.385 22.3901Z" fill="url(#paint0_linear_1278_1391)"/>
<path d="M1.52298 22.3326H11.0095V23.77H0V3.51331H1.52298V22.3326Z" fill="#F1EFEF"/>
<path d="M34.7818 21.0452C32.7688 23.0822 30.3155 24.1006 27.4218 24.1006C24.528 24.1006 22.0747 23.0828 20.0617 21.0473C19.0855 20.0869 18.3141 18.9359 17.7949 17.6648C17.2757 16.3938 17.0196 15.0293 17.0423 13.6551C17.0197 12.2808 17.2759 10.9164 17.7951 9.64534C18.3143 8.37427 19.0855 7.22329 20.0617 6.26286C22.0733 4.22727 24.5267 3.20947 27.4218 3.20947C30.3169 3.20947 32.7702 4.22727 34.7818 6.26286C35.758 7.22329 36.5293 8.37427 37.0485 9.64534C37.5677 10.9164 37.8238 12.2808 37.8013 13.6551C37.8237 15.029 37.5674 16.393 37.0482 17.6637C36.529 18.9345 35.7578 20.0851 34.7818 21.0452ZM21.1484 20.0021C21.9599 20.8509 22.9367 21.5217 24.0176 21.9726C25.0985 22.4235 26.2602 22.6446 27.4299 22.6222C28.5997 22.6446 29.7614 22.4235 30.8423 21.9726C31.9232 21.5217 32.9 20.8509 33.7114 20.0021C34.5445 19.1732 35.2016 18.1824 35.6428 17.0899C36.0841 15.9974 36.3003 14.826 36.2783 13.6468C36.3008 12.4655 36.0844 11.2919 35.642 10.1975C35.1997 9.10314 34.5407 8.11093 33.7053 7.28134C32.8937 6.43273 31.9169 5.76201 30.836 5.31116C29.7551 4.86032 28.5935 4.63905 27.4238 4.66122C26.2544 4.6411 25.0934 4.86434 24.0136 5.31695C22.9338 5.76957 21.9584 6.44181 21.1484 7.29161C20.3129 8.12112 19.6539 9.11332 19.2116 10.2077C18.7692 11.3021 18.5528 12.4757 18.5754 13.6571C18.5555 14.8351 18.7733 16.0048 19.2156 17.0955C19.6579 18.1861 20.3154 19.175 21.1484 20.0021Z" fill="#F1EFEF"/>
<path d="M58.3278 3.51331V4.95068H52.0075V23.77H50.456V4.96094H44.1357V3.52357L58.3278 3.51331Z" fill="#F1EFEF"/>
<path d="M79.356 22.1683C78.0049 23.462 76.2176 24.1088 73.9939 24.1088C71.7703 24.1088 69.9897 23.462 68.6523 22.1683C67.3108 20.8761 66.64 19.1581 66.64 17.0143V3.51331H68.163V17.0061C68.163 18.705 68.6707 20.0657 69.686 21.0883C70.7013 22.1108 72.1386 22.6221 73.998 22.6221C75.856 22.6221 77.2981 22.1108 78.3243 21.0883C79.3505 20.0657 79.8643 18.705 79.8656 17.0061V3.51331H81.3886V17.0061C81.3845 19.1485 80.707 20.8692 79.356 22.1683Z" fill="#F1EFEF"/>
<path d="M97.6806 24.0985C95.8213 24.0985 94.2453 23.6694 92.9527 22.8111C91.6934 21.9976 90.7615 20.7607 90.3226 19.3203L91.6458 18.538C91.9759 19.7457 92.7125 20.8004 93.7295 21.5215C94.7543 22.2553 96.072 22.6222 97.6827 22.6222C99.2933 22.6222 100.544 22.2457 101.434 21.4928C101.858 21.1369 102.196 20.6888 102.422 20.1823C102.649 19.6758 102.759 19.1241 102.743 18.5688C102.743 17.449 102.322 16.59 101.479 15.9918C100.636 15.3935 99.3232 14.8049 97.54 14.2258C96.8889 14.0137 96.4132 13.8542 96.1128 13.7474C95.8124 13.6406 95.3863 13.4764 94.8345 13.2546C94.4057 13.0948 93.9921 12.8962 93.599 12.6612C93.3271 12.4873 93.0064 12.256 92.6367 11.9671C92.3109 11.7284 92.034 11.4286 91.8211 11.0842C91.6305 10.7442 91.4761 10.3849 91.3604 10.0123C91.2206 9.56744 91.1518 9.10309 91.1565 8.63652C91.1565 6.99381 91.7362 5.67622 92.8956 4.68375C94.055 3.69128 95.5066 3.19436 97.2504 3.19299C98.8217 3.19299 100.163 3.58861 101.275 4.37985C102.367 5.14491 103.216 6.21075 103.722 7.44967L102.429 8.17451C101.471 5.83913 99.7459 4.67143 97.2545 4.67143C95.8749 4.67143 94.7726 5.0383 93.9476 5.77205C93.5475 6.1182 93.2289 6.54965 93.0149 7.03514C92.8008 7.52063 92.6967 8.048 92.7101 8.57903C92.7101 9.67417 93.0934 10.4955 93.8599 11.0431C94.6265 11.5907 95.8811 12.1506 97.6235 12.7228C98.7354 13.0896 99.6025 13.4031 100.225 13.6632C100.924 13.9643 101.597 14.3228 102.237 14.7351C102.894 15.1249 103.435 15.6851 103.803 16.3573C104.14 17.0345 104.308 17.7845 104.292 18.5421C104.292 20.2217 103.689 21.5681 102.482 22.5811C101.275 23.5941 99.6746 24.0999 97.6806 24.0985Z" fill="#F1EFEF"/>
</g>
<defs>
<linearGradient id="paint0_linear_1278_1391" x1="119.989" y1="5.11086" x2="137.865" y2="22.8622" gradientUnits="userSpaceOnUse">
<stop stop-color="#FFD441"/>
<stop offset="1" stop-color="#CF9736"/>
</linearGradient>
<clipPath id="clip0_1278_1391">
<rect width="144" height="27" fill="white"/>
</clipPath>
</defs>
</svg>
