<svg width="24" height="24" viewBox="0 0 24 24" fill="none" xmlns="http://www.w3.org/2000/svg">
<path d="M23.9998 9.28085C23.9998 9.20163 23.9799 9.12241 23.9398 9.05101L21.4086 4.55089C21.3255 4.40332 21.1694 4.31196 21 4.31196H18.2807C18.2286 4.23312 18.1683 4.15891 18.0999 4.09052L14.4207 0.411199C13.8724 -0.137066 12.9803 -0.137066 12.432 0.411199L8.52314 4.32012C8.49534 4.31496 8.4668 4.31196 8.4375 4.31196H3C2.83064 4.31196 2.6745 4.40332 2.59144 4.55089L0.0601875 9.05101C0.0200156 9.12241 0.000234375 9.20163 0.000234375 9.28085C0.000140625 9.28085 9.375e-05 9.28085 0 9.28085V23.5312C0 23.7901 0.209859 24 0.46875 24H23.5312C23.7901 24 24 23.7901 24 23.5312V9.28085C23.9999 9.28085 23.9999 9.28085 23.9998 9.28085ZM13.0949 1.07417C13.2777 0.891399 13.5751 0.891446 13.7578 1.07417L17.437 4.75349C17.5256 4.84204 17.5743 4.95974 17.5743 5.08495C17.5743 5.21016 17.5256 5.32786 17.437 5.41641L16.2915 6.56202H7.6072L13.0949 1.07417ZM3.27417 5.24949H7.59384L6.28134 6.56202H5.13487C4.87598 6.56202 4.66612 6.77189 4.66612 7.03079C4.66612 7.28968 4.87598 7.49955 5.13487 7.49955H6.47864H16.4856H19.3338C19.5927 7.49955 19.8026 7.28968 19.8026 7.03079C19.8026 6.77189 19.5927 6.56202 19.3338 6.56202H17.6173L18.0999 6.07934C18.3263 5.85293 18.4657 5.56281 18.502 5.24949H20.7259L22.7298 8.81208H1.27027L3.27417 5.24949ZM23.0625 23.0625H0.9375V9.74961H23.0625V23.0625Z" fill="white"/>
<path d="M5.70541 12.7493H20.0625V20.062H18.7735C18.5146 20.062 18.3047 20.2718 18.3047 20.5307C18.3047 20.7896 18.5146 20.9995 18.7735 20.9995H20.5312C20.7901 20.9995 21 20.7896 21 20.5307V12.2805C21 12.0216 20.7901 11.8118 20.5312 11.8118H5.70541C5.44652 11.8118 5.23666 12.0216 5.23666 12.2805C5.23666 12.5394 5.44652 12.7493 5.70541 12.7493Z" fill="white"/>
<path d="M3.46875 20.9995H19.0235C19.2824 20.9995 19.4922 20.7896 19.4922 20.5307C19.4922 20.2718 19.2824 20.062 19.0235 20.062H3.9375V12.7493H5.95542C6.21432 12.7493 6.42417 12.5394 6.42417 12.2805C6.42417 12.0216 6.21432 11.8118 5.95542 11.8118H3.46875C3.20986 11.8118 3 12.0216 3 12.2805V20.5307C3 20.7896 3.20986 20.9995 3.46875 20.9995Z" fill="white"/>
<path d="M16.8984 20.062C16.7752 20.062 16.6542 20.1121 16.567 20.1993C16.4798 20.2864 16.4297 20.4073 16.4297 20.5305C16.4297 20.6537 16.4798 20.7746 16.567 20.8617C16.6542 20.9488 16.7752 20.999 16.8984 20.999C17.0222 20.999 17.1427 20.9488 17.2298 20.8617C17.317 20.7746 17.3672 20.6537 17.3672 20.5305C17.3672 20.4073 17.317 20.2864 17.2298 20.1993C17.1427 20.1121 17.0217 20.062 16.8984 20.062Z" fill="white"/>
<path d="M7.83044 12.7487C7.95373 12.7487 8.07466 12.6986 8.16185 12.6115C8.24904 12.5243 8.29919 12.4034 8.29919 12.2802C8.29919 12.157 8.24904 12.0362 8.16185 11.949C8.07466 11.8619 7.95373 11.8118 7.83044 11.8118C7.70716 11.8118 7.58623 11.8619 7.49904 11.949C7.41185 12.0362 7.36169 12.157 7.36169 12.2802C7.36169 12.4034 7.41185 12.5243 7.49904 12.6115C7.58623 12.6985 7.70716 12.7487 7.83044 12.7487Z" fill="white"/>
<path d="M5.31306 14.2756C5.06875 14.3611 4.93999 14.6286 5.02549 14.8729L6.20674 18.248C6.27255 18.4361 6.44997 18.5619 6.64914 18.5619C6.84832 18.5619 7.02578 18.436 7.09155 18.248L8.2728 14.8729C8.35835 14.6286 8.22958 14.3612 7.98522 14.2756C7.74086 14.1901 7.47349 14.3188 7.38794 14.5632L6.64914 16.6741L5.9103 14.5631C5.82485 14.3189 5.55761 14.1901 5.31306 14.2756Z" fill="white"/>
<path d="M10.4532 18.562C11.363 18.562 12.1032 17.8218 12.1032 16.912V15.8994C12.1032 14.9896 11.363 14.2494 10.4532 14.2494C9.54339 14.2494 8.80319 14.9896 8.80319 15.8994V16.912C8.80319 17.8218 9.54339 18.562 10.4532 18.562ZM9.74069 15.8994C9.74069 15.5066 10.0603 15.1869 10.4532 15.1869C10.8461 15.1869 11.1657 15.5066 11.1657 15.8994V16.912C11.1657 17.3048 10.846 17.6245 10.4532 17.6245C10.0603 17.6245 9.74069 17.3048 9.74069 16.912V15.8994Z" fill="white"/>
<path d="M17.3609 15.1869H18.4384C18.6972 15.1869 18.9071 14.9771 18.9071 14.7182C18.9071 14.4593 18.6972 14.2494 18.4384 14.2494H17.3609C16.7842 14.2494 16.3149 14.7186 16.3149 15.2953V17.5161C16.3149 18.0928 16.7841 18.5621 17.3609 18.5621H18.4384C18.6972 18.5621 18.9071 18.3522 18.9071 18.0933C18.9071 17.8344 18.6972 17.6245 18.4384 17.6245H17.3609C17.3011 17.6245 17.2524 17.5759 17.2524 17.5161V16.8745H17.965C18.2238 16.8745 18.4337 16.6646 18.4337 16.4057C18.4337 16.1468 18.2238 15.9369 17.965 15.9369H17.2524V15.2953C17.2524 15.2355 17.3011 15.1869 17.3609 15.1869Z" fill="white"/>
<path d="M15.2836 14.2494H13.118C12.8591 14.2494 12.6493 14.4593 12.6493 14.7182C12.6493 14.9771 12.8591 15.1869 13.118 15.1869H13.7321V18.0932C13.7321 18.3521 13.9419 18.562 14.2008 18.562C14.4597 18.562 14.6696 18.3521 14.6696 18.0932V15.1869H15.2836C15.5425 15.1869 15.7524 14.9771 15.7524 14.7182C15.7524 14.4593 15.5425 14.2494 15.2836 14.2494Z" fill="white"/>
<path d="M11.8711 5.85846H13.3125C13.5714 5.85846 13.7812 5.64859 13.7812 5.3897V3.0146C13.7812 2.7557 13.5714 2.54584 13.3125 2.54584C13.0536 2.54584 12.8438 2.7557 12.8438 3.0146V4.92093H11.8711C11.6122 4.92093 11.4023 5.1308 11.4023 5.3897C11.4023 5.64859 11.6122 5.85846 11.8711 5.85846Z" fill="white"/>
</svg>
