<svg width="18" height="17" viewBox="0 0 18 17" fill="none" xmlns="http://www.w3.org/2000/svg">
<path d="M8.95387 13.1602C9.38791 13.1602 9.73977 12.8083 9.73977 12.3743C9.73977 11.9402 9.38791 11.5884 8.95387 11.5884C8.51983 11.5884 8.16797 11.9402 8.16797 12.3743C8.16797 12.8083 8.51983 13.1602 8.95387 13.1602Z" fill="#86AA16"/>
<path d="M8.95387 0.475586C4.50618 0.475586 0.90625 4.07491 0.90625 8.5232C0.90625 12.9709 4.50558 16.5708 8.95387 16.5708C13.4016 16.5708 17.0015 12.9715 17.0015 8.5232C17.0015 4.07551 13.4022 0.475586 8.95387 0.475586ZM8.95387 15.3134C5.20113 15.3134 2.16369 12.2764 2.16369 8.5232C2.16369 4.77047 5.20063 1.73303 8.95387 1.73303C12.7066 1.73303 15.744 4.76997 15.744 8.5232C15.744 12.2759 12.7071 15.3134 8.95387 15.3134Z" fill="#86AA16"/>
<path d="M8.95433 4.51514C7.56763 4.51514 6.43945 5.64331 6.43945 7.03002C6.43945 7.37726 6.72093 7.65874 7.06817 7.65874C7.41542 7.65874 7.69689 7.37726 7.69689 7.03002C7.69689 6.33666 8.26098 5.77258 8.95433 5.77258C9.64769 5.77258 10.2118 6.33666 10.2118 7.03002C10.2118 7.72337 9.64769 8.28746 8.95433 8.28746C8.60709 8.28746 8.32561 8.56894 8.32561 8.91618V10.488C8.32561 10.8352 8.60709 11.1167 8.95433 11.1167C9.30158 11.1167 9.58305 10.8352 9.58305 10.488V9.46533C10.6665 9.18546 11.4692 8.19972 11.4692 7.03002C11.4692 5.64331 10.341 4.51514 8.95433 4.51514Z" fill="#86AA16"/>
</svg>
