<svg width="14" height="14" viewBox="0 0 14 14" fill="none" xmlns="http://www.w3.org/2000/svg">
<g clip-path="url(#clip0_1001_5384)">
<path d="M13.5031 1.93126C13.2023 1.90384 12.9363 2.12546 12.9088 2.42624L12.8364 3.22109C11.607 1.29046 9.47301 0 7.00035 0C4.34032 0 1.99611 1.51818 0.832418 3.79679C0.695043 4.06577 0.801738 4.39518 1.07072 4.53255C1.33975 4.66993 1.66911 4.56326 1.80648 4.29425C2.79132 2.36586 4.76901 1.09375 7.00035 1.09375C9.03409 1.09375 10.8695 2.1528 11.9209 3.81194L11.1412 3.25503C10.8954 3.07951 10.5538 3.13644 10.3783 3.3822C10.2028 3.628 10.2597 3.96952 10.5055 4.14507L12.87 5.83384C13.2166 6.08089 13.6946 5.85473 13.7325 5.43848L13.998 2.52555C14.0255 2.22474 13.8039 1.95869 13.5031 1.93126Z" fill="black"/>
<path d="M12.9296 9.46788C12.6606 9.33053 12.3312 9.4372 12.1938 9.70618C11.209 11.6346 9.2313 12.9067 6.99997 12.9067C4.96622 12.9067 3.13086 11.8476 2.07938 10.1885L2.85914 10.7454C3.10494 10.9209 3.44646 10.864 3.62201 10.6182C3.79753 10.3724 3.7406 10.0309 3.49483 9.85537L1.13028 8.16659C0.787962 7.92203 0.306111 8.14141 0.26783 8.56195L0.00229435 11.4749C-0.0251314 11.7757 0.19649 12.0417 0.497244 12.0691C0.798408 12.0965 1.06411 11.8747 1.09151 11.5742L1.16397 10.7793C2.39329 12.71 4.5273 14.0004 6.99997 14.0004C9.66 14.0004 12.0042 12.4823 13.1679 10.2036C13.3053 9.93466 13.1986 9.60525 12.9296 9.46788Z" fill="black"/>
</g>
<defs>
<clipPath id="clip0_1001_5384">
<rect width="14" height="14" fill="white"/>
</clipPath>
</defs>
</svg>
