<svg width="14" height="21" viewBox="0 0 14 21" fill="none" xmlns="http://www.w3.org/2000/svg">
<path d="M13.3443 5.41962H10.2852C10.1106 3.73352 9.20131 2.16785 7.8705 1.20436H13.3443C13.6755 1.20436 13.9465 0.933379 13.9465 0.60218C13.9465 0.270981 13.6755 0 13.3443 0H0.60218C0.270981 0 0 0.270981 0 0.60218C0 0.933379 0.270981 1.20436 0.60218 1.20436H4.25139C6.73237 1.20436 8.77979 3.07112 9.07486 5.41962H0.60218C0.270981 5.41962 0 5.6906 0 6.0218C0 6.353 0.270981 6.62398 0.60218 6.62398H9.07486C8.77377 9.06281 6.70227 10.8934 4.25139 10.8995H0.608202C0.270981 10.9055 -9.19751e-08 11.1825 0.00602171 11.5197C0.00602171 11.6823 0.0782833 11.8389 0.192697 11.9533L9.30369 20.5705C9.54456 20.7993 9.92393 20.7873 10.1528 20.5464C10.3816 20.2995 10.3695 19.9201 10.1287 19.6853L2.11365 12.1038H4.24537C7.38875 12.1038 9.98415 9.6951 10.2852 6.62398H13.3443C13.6755 6.62398 13.9465 6.353 13.9465 6.0218C13.9465 5.6906 13.6755 5.41962 13.3443 5.41962Z" fill="black"/>
</svg>
