<svg width="18" height="18" viewBox="0 0 18 18" fill="none" xmlns="http://www.w3.org/2000/svg">
<circle cx="9" cy="9" r="8.5" fill="#86AA16" stroke="#86AA16"/>
<path d="M15.0461 4.48582C15.1823 4.63065 15.2555 4.82367 15.2495 5.02245C15.2435 5.22123 15.1588 5.40948 15.0141 5.54582L7.08406 13.0198C6.9224 13.1721 6.70759 13.255 6.48558 13.2509C6.26356 13.2468 6.05197 13.1559 5.89606 12.9978L3.21606 10.2778C3.14509 10.2081 3.0887 10.1249 3.05019 10.0332C3.01167 9.94147 2.99179 9.84299 2.9917 9.74349C2.99161 9.644 3.01132 9.54548 3.04968 9.45368C3.08804 9.36188 3.14428 9.27863 3.21513 9.20878C3.28598 9.13892 3.37002 9.08387 3.46235 9.04681C3.55469 9.00975 3.65347 8.99144 3.75296 8.99293C3.85244 8.99442 3.95063 9.0157 4.04181 9.05551C4.13299 9.09532 4.21534 9.15288 4.28406 9.22482L6.51806 11.4918L13.9861 4.45382C14.1309 4.31753 14.3239 4.24434 14.5227 4.25034C14.7215 4.25634 14.9097 4.34105 15.0461 4.48582Z" fill="white"/>
</svg>
