<svg width="9" height="9" viewBox="0 0 9 9" fill="none" xmlns="http://www.w3.org/2000/svg">
<path d="M8.73033 5.48626L7.90308 4.83938C7.91358 4.73962 7.92258 4.62301 7.92258 4.49963C7.92258 4.37625 7.91395 4.25964 7.90308 4.15988L8.73108 3.51264C8.88484 3.39114 8.92683 3.17551 8.82896 2.99589L7.9687 1.5075C7.87682 1.33951 7.67545 1.25325 7.47108 1.32862L6.49495 1.72049C6.30783 1.58549 6.1117 1.4715 5.90883 1.38038L5.76033 0.345006C5.73595 0.1485 5.56495 0 5.36283 0H3.63784C3.43571 0 3.2651 0.1485 3.24109 0.342L3.09222 1.38113C2.89571 1.46964 2.7026 1.58214 2.50722 1.72125L1.52847 1.32826C1.34507 1.25738 1.1257 1.33687 1.03457 1.50412L0.173211 2.99438C0.0715922 3.16614 0.113586 3.38926 0.270717 3.51376L1.09796 4.16064C1.08483 4.28701 1.07847 4.39689 1.07847 4.50002C1.07847 4.60315 1.08485 4.71301 1.09796 4.83977L0.269961 5.48701C0.116205 5.60888 0.0745805 5.82451 0.172455 6.00376L1.03271 7.49213C1.12459 7.65976 1.32409 7.74675 1.53033 7.67101L2.50646 7.27914C2.69321 7.41377 2.88933 7.52776 3.09222 7.61926L3.24072 8.65426C3.26508 8.8515 3.43571 9 3.63821 9H5.3632C5.56533 9 5.73633 8.8515 5.76033 8.658L5.9092 7.61926C6.1057 7.53038 6.29845 7.41825 6.4942 7.27875L7.47295 7.67174C7.5202 7.69011 7.56933 7.6995 7.61995 7.6995C7.76545 7.6995 7.89932 7.61999 7.96682 7.49624L8.83082 5.99999C8.92683 5.82449 8.88482 5.60888 8.73033 5.48626ZM4.50033 5.99999C3.67308 5.99999 3.00034 5.32724 3.00034 4.5C3.00034 3.67276 3.67308 3.00001 4.50033 3.00001C5.32757 3.00001 6.00032 3.67276 6.00032 4.5C6.00032 5.32724 5.32757 5.99999 4.50033 5.99999Z" fill="#FCEDCA"/>
</svg>
