<svg width="16" height="17" viewBox="0 0 16 17" fill="none" xmlns="http://www.w3.org/2000/svg">
<path d="M10.6194 8.77201C10.4175 8.77201 10.2538 8.60836 10.2538 8.4065C10.2538 8.20463 10.4175 8.04098 10.6194 8.04098C12.637 8.03858 14.2721 6.40356 14.2745 4.38592V1.46187H10.9849C10.783 1.46187 10.6194 1.29822 10.6194 1.09635C10.6194 0.894491 10.783 0.730835 10.9849 0.730835H14.64C14.8418 0.730835 15.0055 0.894491 15.0055 1.09635V4.38592C15.0026 6.80711 13.0406 8.7692 10.6194 8.77201Z" fill="#FFA000"/>
<path d="M4.39171 8.77363C1.97052 8.77082 0.00842507 6.80873 0.00561523 4.38754V1.09797C0.00561523 0.896108 0.169271 0.732452 0.371134 0.732452H4.02619C4.22805 0.732452 4.39171 0.896108 4.39171 1.09797C4.39171 1.29983 4.22805 1.46349 4.02619 1.46349H0.736619V4.38754C0.739052 6.40518 2.37407 8.0402 4.39171 8.04263C4.59357 8.04263 4.75723 8.20628 4.75723 8.40815C4.75719 8.60998 4.59357 8.77363 4.39171 8.77363Z" fill="#FFA000"/>
<path d="M9.5172 14.4222L9.36196 14.272C8.75724 13.6855 8.59105 6.60508 8.57837 6.02293C8.57523 5.87481 8.44697 5.75632 8.28984 5.75635H7.13576C6.97885 5.75632 6.85069 5.8745 6.84723 6.02239C6.83511 6.60455 6.66893 13.6839 6.06361 14.2715L5.90838 14.4216C5.1161 15.1904 2.72552 15.7459 2.72552 16.3656C2.72552 16.5158 2.85471 16.6376 3.01405 16.6376H12.4115C12.5708 16.6376 12.7 16.5158 12.7 16.3656C12.7 15.7459 10.3095 15.1904 9.5172 14.4222Z" fill="#FFA000"/>
<path d="M11.8915 0H3.1193C2.91744 0 2.75378 0.163656 2.75378 0.365519V7.12042C2.78805 9.73032 4.89546 11.8377 7.50539 11.872C10.1153 11.8377 12.2227 9.73032 12.257 7.12039V0.365519C12.257 0.163656 12.0934 0 11.8915 0Z" fill="#FFC107"/>
</svg>
