<svg width="12" height="14" viewBox="0 0 12 14" fill="none" xmlns="http://www.w3.org/2000/svg">
<path d="M5.18342 6.89638C7.09933 6.89627 7.78868 4.97795 7.96914 3.40217C8.19144 1.46099 7.27347 0 5.18342 0C3.09364 0 2.1752 1.46088 2.39768 3.40217C2.57832 4.97795 3.26747 6.89652 5.18342 6.89638Z" fill="#FCEDCA"/>
<path d="M9.37278 7.69475C9.43443 7.69475 9.49568 7.69659 9.5565 7.69997C9.46533 7.56992 9.35979 7.4552 9.23629 7.36298C8.86815 7.08821 8.39136 6.99806 7.96986 6.83243C7.76468 6.75184 7.58095 6.67178 7.40847 6.58063C6.82634 7.21903 6.06722 7.55297 5.18323 7.55306C4.29952 7.55306 3.54047 7.21911 2.95841 6.58063C2.78593 6.6718 2.60216 6.75184 2.39702 6.83243C1.97552 6.99808 1.49875 7.08821 1.13059 7.36298C0.493901 7.83819 0.329361 8.90723 0.20008 9.63644C0.0933879 10.2384 0.0217114 10.8527 0.000790893 11.4641C-0.0154164 11.9377 0.218422 12.0042 0.614644 12.1471C1.11076 12.3261 1.62301 12.4589 2.13871 12.5678C3.13464 12.7781 4.16124 12.9397 5.18341 12.9469C5.67869 12.9434 6.17498 12.9034 6.66834 12.8395C6.30304 12.3102 6.08879 11.6691 6.08879 10.9788C6.08881 9.16792 7.56198 7.69475 9.37278 7.69475Z" fill="#FCEDCA"/>
<path d="M9.37278 8.35168C7.92186 8.35168 6.74557 9.52797 6.74557 10.9789C6.74557 12.4298 7.92184 13.6061 9.37278 13.6061C10.8237 13.6061 12 12.4298 12 10.9789C12 9.52795 10.8237 8.35168 9.37278 8.35168ZM10.5222 11.4296H9.82353V12.1282C9.82353 12.3772 9.62173 12.579 9.3728 12.579C9.12384 12.579 8.92202 12.3772 8.92202 12.1282V11.4296H8.22339C7.97444 11.4296 7.77261 11.2278 7.77261 10.9788C7.77261 10.7299 7.97442 10.5281 8.22339 10.5281H8.92202V9.82944C8.92202 9.58048 9.12384 9.37866 9.3728 9.37866C9.62175 9.37866 9.82353 9.58048 9.82353 9.82944V10.5281H10.5222C10.7711 10.5281 10.973 10.7299 10.973 10.9788C10.9729 11.2278 10.7712 11.4296 10.5222 11.4296Z" fill="#FCEDCA"/>
</svg>
