<svg width="12" height="14" viewBox="0 0 12 14" fill="none" xmlns="http://www.w3.org/2000/svg">
<path d="M5.18342 6.89638C7.09933 6.89627 7.78868 4.97795 7.96914 3.40217C8.19144 1.46099 7.27347 0 5.18342 0C3.09364 0 2.1752 1.46088 2.39768 3.40217C2.57832 4.97795 3.26747 6.89652 5.18342 6.89638Z" fill="white"/>
<path d="M9.37278 7.69469C9.43443 7.69469 9.49568 7.69653 9.5565 7.69991C9.46533 7.56985 9.35979 7.45514 9.23629 7.36292C8.86815 7.08815 8.39136 6.998 7.96986 6.83237C7.76468 6.75178 7.58095 6.67172 7.40847 6.58057C6.82634 7.21896 6.06722 7.55291 5.18323 7.553C4.29952 7.553 3.54047 7.21905 2.95841 6.58057C2.78593 6.67174 2.60216 6.75178 2.39702 6.83237C1.97552 6.99802 1.49875 7.08815 1.13059 7.36292C0.493901 7.83813 0.329361 8.90717 0.20008 9.63638C0.0933879 10.2383 0.0217114 10.8526 0.000790893 11.4641C-0.0154164 11.9377 0.218422 12.0041 0.614644 12.1471C1.11076 12.326 1.62301 12.4588 2.13871 12.5677C3.13464 12.778 4.16124 12.9396 5.18341 12.9469C5.67869 12.9433 6.17498 12.9034 6.66834 12.8394C6.30304 12.3101 6.08879 11.669 6.08879 10.9787C6.08881 9.16786 7.56198 7.69469 9.37278 7.69469Z" fill="white"/>
<path d="M9.37281 8.35181C7.92189 8.35181 6.74561 9.52809 6.74561 10.979C6.74561 12.4299 7.92187 13.6062 9.37281 13.6062C10.8237 13.6062 12 12.4299 12 10.979C12 9.52807 10.8237 8.35181 9.37281 8.35181ZM10.5222 11.4297H9.82356V12.1284C9.82356 12.3773 9.62176 12.5791 9.37283 12.5791C9.12387 12.5791 8.92205 12.3773 8.92205 12.1284V11.4297H8.22342C7.97447 11.4297 7.77264 11.2279 7.77264 10.979C7.77264 10.73 7.97445 10.5282 8.22342 10.5282H8.92205V9.82956C8.92205 9.5806 9.12387 9.37878 9.37283 9.37878C9.62179 9.37878 9.82356 9.5806 9.82356 9.82956V10.5282H10.5222C10.7712 10.5282 10.973 10.73 10.973 10.979C10.973 11.228 10.7712 11.4297 10.5222 11.4297Z" fill="white"/>
</svg>
