<svg width="16" height="16" viewBox="0 0 16 16" fill="none" xmlns="http://www.w3.org/2000/svg">
<path d="M13.5 3H5.5C4.125 3 3 4.125 3 5.5V13.5C3 14.875 4.125 16 5.5 16H13.5C14.875 16 16 14.875 16 13.5V5.5C16 4.125 14.875 3 13.5 3ZM6.5 14C5.672 14 5 13.328 5 12.5C5 11.672 5.672 11 6.5 11C7.328 11 8 11.672 8 12.5C8 13.328 7.328 14 6.5 14ZM6.5 8C5.672 8 5 7.328 5 6.5C5 5.672 5.672 5 6.5 5C7.328 5 8 5.672 8 6.5C8 7.328 7.328 8 6.5 8ZM9.5 11C8.672 11 8 10.328 8 9.5C8 8.672 8.672 8 9.5 8C10.328 8 11 8.672 11 9.5C11 10.328 10.328 11 9.5 11ZM12.5 14C11.672 14 11 13.328 11 12.5C11 11.672 11.672 11 12.5 11C13.328 11 14 11.672 14 12.5C14 13.328 13.328 14 12.5 14ZM12.5 8C11.672 8 11 7.328 11 6.5C11 5.672 11.672 5 12.5 5C13.328 5 14 5.672 14 6.5C14 7.328 13.328 8 12.5 8ZM12.949 2C12.716 0.862 11.704 0 10.5 0H2.5C1.125 0 0 1.125 0 2.5V10.5C0 11.704 0.862 12.716 2 12.949V3C2 2.45 2.45 2 3 2H12.949Z" fill="#E84C4D"/>
</svg>
