<svg width="186" height="185" viewBox="0 0 186 185" fill="none" xmlns="http://www.w3.org/2000/svg">
<g filter="url(#filter0_d_1289_6980)">
<ellipse cx="93" cy="90.5" rx="83" ry="82.5" fill="white"/>
<path d="M175 90.5C175 135.506 138.293 172 93 172C47.7069 172 11 135.506 11 90.5C11 45.4945 47.7069 9 93 9C138.293 9 175 45.4945 175 90.5Z" stroke="#6BA47D" stroke-width="2"/>
</g>
<path d="M78.75 87H71.25C69.9375 87 69 88.0312 69 89.25V111.75C69 113.062 69.9375 114 71.25 114H78.75C79.9688 114 81 113.062 81 111.75V89.25C81 88.0312 79.9688 87 78.75 87ZM75 110.25C73.6875 110.25 72.75 109.312 72.75 108C72.75 106.781 73.6875 105.75 75 105.75C76.2188 105.75 77.25 106.781 77.25 108C77.25 109.312 76.2188 110.25 75 110.25ZM105 73.6875C105 66.75 100.5 66 98.25 66C96.2812 66 95.4375 69.75 95.0625 71.4375C94.5 73.5 94.0312 75.5625 92.625 76.9688C89.625 80.0625 88.0312 83.9062 84.2812 87.5625C84.0938 87.8438 84 88.125 84 88.4062V108.469C84 109.031 84.4688 109.5 85.0312 109.594C86.5312 109.594 88.5 110.438 90 111.094C93 112.406 96.6562 114 101.156 114H101.438C105.469 114 110.25 114 112.125 111.281C112.969 110.156 113.156 108.75 112.688 107.062C114.281 105.469 115.031 102.469 114.281 100.031C115.875 97.875 116.062 94.7812 115.125 92.625C116.25 91.5 117 89.7188 116.906 88.0312C116.906 85.125 114.469 82.5 111.375 82.5H101.812C102.562 79.875 105 77.625 105 73.6875Z" fill="#6BA47D"/>
<defs>
<filter id="filter0_d_1289_6980" x="0" y="0" width="186" height="185" filterUnits="userSpaceOnUse" color-interpolation-filters="sRGB">
<feFlood flood-opacity="0" result="BackgroundImageFix"/>
<feColorMatrix in="SourceAlpha" type="matrix" values="0 0 0 0 0 0 0 0 0 0 0 0 0 0 0 0 0 0 127 0" result="hardAlpha"/>
<feOffset dy="2"/>
<feGaussianBlur stdDeviation="5"/>
<feColorMatrix type="matrix" values="0 0 0 0 0.027451 0 0 0 0 0.101961 0 0 0 0 0.321569 0 0 0 0.06 0"/>
<feBlend mode="normal" in2="BackgroundImageFix" result="effect1_dropShadow_1289_6980"/>
<feBlend mode="normal" in="SourceGraphic" in2="effect1_dropShadow_1289_6980" result="shape"/>
</filter>
</defs>
</svg>
