<svg width="17" height="22" viewBox="0 0 17 22" fill="none" xmlns="http://www.w3.org/2000/svg">
<path d="M8.55599 0.0415039C5.09369 0.0415039 2.30599 2.8292 2.30599 6.2915V7.33317C1.16016 7.33317 0.222656 8.27067 0.222656 9.4165V19.8332C0.222656 20.979 1.16016 21.9165 2.30599 21.9165H14.806C15.9518 21.9165 16.8893 20.979 16.8893 19.8332V9.4165C16.8893 8.27067 15.9518 7.33317 14.806 7.33317V6.2915C14.806 2.8292 12.0183 0.0415039 8.55599 0.0415039ZM8.55599 2.12484C10.927 2.12484 12.7227 3.92047 12.7227 6.2915V7.33317H4.38932V6.2915C4.38932 3.92047 6.18496 2.12484 8.55599 2.12484ZM8.55599 12.5415C9.70182 12.5415 10.6393 13.479 10.6393 14.6248C10.6393 15.7707 9.70182 16.7082 8.55599 16.7082C7.41016 16.7082 6.47266 15.7707 6.47266 14.6248C6.47266 13.479 7.41016 12.5415 8.55599 12.5415Z" fill="white"/>
</svg>
