<svg width="50" height="50" viewBox="0 0 50 50" fill="none" xmlns="http://www.w3.org/2000/svg">
<path d="M26.0425 35.4173L25.0008 37.5006L23.9591 35.4173L22.9175 27.084H27.0841L26.0425 35.4173Z" fill="#FFA000"/>
<path d="M30.2091 45.8327C30.2091 46.9837 29.2758 47.916 28.1258 47.916H21.8758C20.7258 47.916 19.7925 46.9837 19.7925 45.8327V38.541C19.7925 37.39 23.9591 35.416 23.9591 35.416H26.0425C26.0425 35.416 30.2091 37.39 30.2091 38.541V45.8327Z" fill="#FBC02D"/>
<path d="M26.0442 35.4173V36.459H23.9608V35.4173L22.9192 27.084H27.0858L26.0442 35.4173ZM20.5338 26.0121C20.0067 25.8777 7.59834 22.6413 5.54418 12.7121C4.63064 8.29023 5.76189 5.73815 6.87334 4.37461C8.2473 2.68607 10.1202 2.08398 11.414 2.08398C13.1442 2.08398 14.4817 2.56003 15.391 3.49961C16.5348 4.68398 16.5181 6.12461 16.514 6.28711C16.514 7.92461 15.4046 10.4173 12.3473 10.4173C12.2192 10.4173 11.5598 10.3986 10.8744 10.0371C9.87751 9.51419 9.33064 8.53711 9.33064 7.29232H11.414C11.414 7.89023 11.6463 8.08815 11.8463 8.19544C12.0838 8.3194 12.3463 8.33398 12.3483 8.33398C14.3306 8.33398 14.4317 6.59753 14.4317 6.25065C14.4317 6.19961 14.4296 5.48815 13.8744 4.92878C13.3713 4.42357 12.5431 4.16732 11.414 4.16732C10.7869 4.16732 9.46709 4.48919 8.48793 5.68919C7.30459 7.14336 6.99209 9.42461 7.5848 12.2892C9.37647 20.9538 20.9265 23.9611 21.0431 23.9892L20.5338 26.0121ZM29.2629 26.0423L28.639 24.0548C28.7431 24.0246 39.1296 20.6569 42.0837 12.2038C42.989 9.62044 42.9265 7.57773 41.8962 6.12878C40.9015 4.72461 39.215 4.21628 38.3254 4.21628C35.2358 4.21628 35.2004 6.21419 35.2004 6.29961C35.2088 6.77982 35.3817 8.38294 37.2837 8.38294C37.7525 8.37044 38.3254 8.17982 38.3254 7.34128H40.4087C40.4087 9.6319 38.54 10.4663 37.2837 10.4663C34.2254 10.4663 33.1171 7.97148 33.1171 6.29961C33.1171 4.85898 34.2056 2.13294 38.3254 2.13294C39.9098 2.13294 42.2358 3.00378 43.5973 4.92044C44.5879 6.31628 45.4712 8.83503 44.0535 12.8913C40.7473 22.3434 29.7306 25.8954 29.2629 26.0423Z" fill="#E5A24A"/>
<path d="M30.2075 40.625H19.7909V38.5417C19.7909 37.3917 23.9575 35.4167 23.9575 35.4167H26.0409C26.0409 35.4167 30.2075 37.3917 30.2075 38.5417V40.625ZM35.4159 3.125C35.4159 11.4583 33.245 29.1667 24.9992 29.1667C16.7534 29.1667 14.5825 11.4583 14.5825 3.125H35.4159Z" fill="#FFBA57"/>
<path d="M17.7075 39.584H32.2908V47.9173H17.7075V39.584Z" fill="#7A534B"/>
<path d="M19.7925 42.709H30.2091V44.7923H19.7925V42.709Z" fill="#FFE082"/>
</svg>
