<svg width="20" height="20" viewBox="0 0 20 20" fill="none" xmlns="http://www.w3.org/2000/svg">
<path d="M13.975 14.3752C13.7519 13.4714 13.0413 12.5002 11.5625 12.5002C10.37 12.5002 9.87562 13.482 9.55437 14.3752H7.3225C7.595 13.8227 8.21375 13.7539 8.44125 13.7502C8.78438 13.7483 9.0625 13.4689 9.0625 13.1252C9.0625 12.7795 8.7825 12.5002 8.4375 12.5002C7.55625 12.5002 6.29938 13.0127 6.0025 14.3752H5.625C5.28 14.3752 5 14.6546 5 15.0002C5 15.3458 5.28 15.6252 5.625 15.6252H6.0025C6.29938 16.9877 7.55625 17.5002 8.4375 17.5002C9.63 17.5002 10.1244 16.5183 10.4456 15.6252H12.6688C12.5181 15.9408 12.2113 16.2502 11.5625 16.2502C11.2169 16.2502 10.9375 16.5296 10.9375 16.8752C10.9375 17.2208 11.2169 17.5002 11.5625 17.5002C13.0419 17.5002 13.7525 16.5289 13.975 15.6252H14.375C14.7206 15.6252 15 15.3458 15 15.0002C15 14.6546 14.7206 14.3752 14.375 14.3752H13.975ZM8.4375 16.2502C8.275 16.2502 7.61125 16.2058 7.32438 15.6252H9.10063C8.91313 16.0439 8.72688 16.2502 8.4375 16.2502ZM10.8994 14.3752C11.0869 13.9564 11.2738 13.7502 11.5625 13.7502C12.2069 13.7502 12.5144 14.0564 12.6663 14.3752H10.8994ZM17.5 16.2502V8.12517C17.5 6.74954 16.3787 6.25016 15.625 6.25016H4.375C2.99938 6.25016 2.5 7.37142 2.5 8.12517V16.2502H0V20.0002H20V16.2502H17.5ZM2.5 18.7502H1.25V17.5002H2.5V18.7502ZM3.75 8.13267C3.7575 7.84392 3.87188 7.50017 4.375 7.50017H4.885C4.69625 8.02954 4.27938 8.44642 3.75 8.63517V8.13267ZM16.25 18.7502H3.75V9.93704C4.9725 9.68767 5.9375 8.72267 6.18688 7.50017H13.8131C14.0625 8.72267 15.0275 9.68767 16.25 9.93704V18.7502ZM16.25 8.63517C15.7206 8.44642 15.3038 8.02954 15.115 7.50017H15.6175C15.9063 7.50767 16.25 7.62204 16.25 8.12517V8.63517ZM18.75 18.7502H17.5V17.5002H18.75V18.7502ZM7.05813 3.56704C6.81375 3.32266 6.81375 2.92766 7.05813 2.68328L9.55813 0.183281C9.8025 -0.0610938 10.1975 -0.0610938 10.4419 0.183281L12.9419 2.68328C13.1863 2.92766 13.1863 3.32266 12.9419 3.56704C12.82 3.68891 12.66 3.75016 12.5 3.75016C12.34 3.75016 12.18 3.68891 12.0581 3.56704L10.625 2.13391V5.00016C10.625 5.34516 10.345 5.62516 10 5.62516C9.655 5.62516 9.375 5.34516 9.375 5.00016V2.13391L7.94187 3.56704C7.6975 3.81141 7.3025 3.81141 7.05813 3.56704Z" fill="white"/>
</svg>
