<svg xmlns="http://www.w3.org/2000/svg" id="whatsapp" viewBox="0 0 40 40" fill="none">
  <g clip-path="url(#clip0_806_1096)">
    <path fill-rule="evenodd" clip-rule="evenodd" d="M2.44922 36.0794L4.92934 27.0508C3.00849 23.727 2.24088 19.8639 2.74554 16.0607C3.25019 12.2575 4.99891 8.72658 7.72057 6.0154C10.4422 3.30422 13.9848 1.56426 17.7989 1.06531C21.613 0.566352 25.4857 1.33627 28.8164 3.25569C32.1471 5.17512 34.7498 8.1368 36.221 11.6815C37.6921 15.2263 37.9495 19.1561 36.9532 22.8615C35.9569 26.567 33.7626 29.8412 30.7106 32.1764C27.6585 34.5116 23.9192 35.7773 20.0724 35.7774H20.0651C17.1471 35.7775 14.2757 35.0481 11.7133 33.6559L2.44922 36.0794Z" fill="white"/>
    <g filter="url(#filter0_d_806_1096)">
      <path fill-rule="evenodd" clip-rule="evenodd" d="M2.44946 36.5418C2.37892 36.5417 2.30936 36.5254 2.24614 36.4942C2.18293 36.4629 2.12776 36.4176 2.0849 36.3618C2.04204 36.3059 2.01264 36.2409 1.99896 36.1719C1.98529 36.1029 1.98771 36.0317 2.00604 35.9638L4.43689 27.1172C2.3227 23.3657 1.63557 18.9799 2.50153 14.764C3.36749 10.5482 5.72848 6.78503 9.15146 4.16476C12.5744 1.54449 16.8299 0.242785 21.1374 0.498396C25.4449 0.754007 29.5156 2.5498 32.6028 5.55639C35.6901 8.56299 37.587 12.5788 37.9455 16.8673C38.3041 21.1558 37.1003 25.4295 34.5549 28.9044C32.0096 32.3794 28.2933 34.8227 24.0877 35.7862C19.8822 36.7497 15.4693 36.1688 11.6585 34.1501L2.56829 36.5266C2.52961 36.5373 2.48959 36.5424 2.44946 36.5418Z" fill="white"/>
    </g>
    <path fill-rule="evenodd" clip-rule="evenodd" d="M30.3472 8.10752C27.8227 5.59036 24.4571 4.08836 20.8929 3.88817C17.3287 3.68798 13.8153 4.80362 11.0233 7.02218C8.23133 9.24073 6.35621 12.4069 5.7558 15.9163C5.1554 19.4258 5.87175 23.0329 7.76815 26.0492L8.11448 26.5969L6.64655 31.944L12.1444 30.5061L12.6755 30.8197C14.9128 32.1414 17.4655 32.8387 20.0659 32.8385H20.0717C22.9449 32.839 25.7538 31.9897 28.143 30.398C30.5323 28.8064 32.3946 26.5439 33.4945 23.8967C34.5944 21.2495 34.8824 18.3365 34.3222 15.5261C33.762 12.7156 32.3787 10.1339 30.3472 8.10752Z" fill="#40C351"/>
    <path fill-rule="evenodd" clip-rule="evenodd" d="M15.7034 11.0572C15.3767 10.3347 15.0325 10.3173 14.7202 10.3043C14.4652 10.2935 14.1746 10.2942 13.8834 10.2942C13.6621 10.3001 13.4444 10.3516 13.244 10.4455C13.0436 10.5394 12.8649 10.6736 12.719 10.8397C12.2252 11.306 11.8342 11.8697 11.571 12.495C11.3078 13.1203 11.1781 13.7934 11.1902 14.4714C11.1902 16.6139 12.7553 18.6848 12.9733 18.9753C13.1914 19.2658 15.9947 23.8028 20.4362 25.5508C24.1248 27.001 24.8755 26.7127 25.6768 26.6404C26.4782 26.5681 28.2606 25.5876 28.6243 24.5702C28.9096 23.9196 28.9982 23.2001 28.8793 22.5C28.7699 22.3179 28.4786 22.211 28.0425 21.9942C27.6063 21.7774 25.4587 20.7225 25.0581 20.578C24.6574 20.4334 24.3668 20.3612 24.0749 20.7947C23.7829 21.2283 22.9438 22.2067 22.6888 22.4957C22.4338 22.7847 22.1816 22.8237 21.7425 22.6048C20.4551 22.0928 19.2668 21.3615 18.2307 20.4436C17.2763 19.5643 16.4579 18.5489 15.802 17.4304C15.5469 16.9969 15.7744 16.7591 15.9933 16.5416C16.1896 16.3458 16.428 16.0358 16.6453 15.7786C16.8239 15.5595 16.9702 15.3162 17.0801 15.056C17.1382 14.9358 17.1652 14.8031 17.1587 14.6698C17.1523 14.5365 17.1125 14.407 17.0431 14.293C16.9395 14.0718 16.0918 11.9178 15.7034 11.0572Z" fill="white"/>
  </g>
  <defs>
    <filter id="filter0_d_806_1096" x="-8.00977" y="-6.5332" width="56.0176" height="56.0751" filterUnits="userSpaceOnUse" color-interpolation-filters="sRGB">
      <feFlood flood-opacity="0" result="BackgroundImageFix"/>
      <feColorMatrix in="SourceAlpha" type="matrix" values="0 0 0 0 0 0 0 0 0 0 0 0 0 0 0 0 0 0 127 0" result="hardAlpha"/>
      <feOffset dy="3"/>
      <feGaussianBlur stdDeviation="5"/>
      <feColorMatrix type="matrix" values="0 0 0 0 0 0 0 0 0 0 0 0 0 0 0 0 0 0 0.161 0"/>
      <feBlend mode="normal" in2="BackgroundImageFix" result="effect1_dropShadow_806_1096"/>
      <feBlend mode="normal" in="SourceGraphic" in2="effect1_dropShadow_806_1096" result="shape"/>
    </filter>
    <clipPath id="clip0_806_1096">
      <rect width="40" height="40" fill="white"/>
    </clipPath>
  </defs>
</svg>
