<svg width="25" height="25" viewBox="0 0 25 25" fill="none" xmlns="http://www.w3.org/2000/svg">
<g clip-path="url(#clip0_2054_547)">
<path d="M1.56318 1.70098C-0.401408 3.7416 0.000675485 5.90931 0.000675485 12.4947C0.000675485 17.9635 -0.953491 23.4458 4.04026 24.7364C5.59963 25.1374 19.4163 25.1374 20.9736 24.7343C23.0528 24.1979 24.7444 22.5114 24.9757 19.5708C25.008 19.1604 25.008 5.83639 24.9746 5.41764C24.7288 2.28535 22.8007 0.480145 20.26 0.11452C19.6778 0.0301448 19.5611 0.00514476 16.5736 -6.35721e-05C5.97672 0.00514476 3.6538 -0.46673 1.56318 1.70098Z" fill="white"/>
<path d="M12.498 3.26965C8.71576 3.26965 5.12409 2.93319 3.75222 6.45403C3.18555 7.90819 3.26784 9.79673 3.26784 12.5009C3.26784 14.8738 3.1918 17.104 3.75222 18.5467C5.12097 22.0697 8.7418 21.7322 12.496 21.7322C16.1178 21.7322 19.8522 22.1092 21.2408 18.5467C21.8085 17.078 21.7251 15.2176 21.7251 12.5009C21.7251 8.89465 21.9241 6.56653 20.1751 4.81861C18.4043 3.04778 16.0095 3.26965 12.4939 3.26965H12.498ZM11.671 4.93319C19.5605 4.92069 20.5647 4.04361 20.0105 16.228C19.8137 20.5374 16.5324 20.0644 12.4991 20.0644C5.14492 20.0644 4.93347 19.854 4.93347 12.4967C4.93347 5.05403 5.5168 4.93736 11.671 4.93111V4.93319ZM17.4251 6.46548C16.8137 6.46548 16.3178 6.96132 16.3178 7.57278C16.3178 8.18423 16.8137 8.68007 17.4251 8.68007C18.0366 8.68007 18.5324 8.18423 18.5324 7.57278C18.5324 6.96132 18.0366 6.46548 17.4251 6.46548ZM12.498 7.76028C9.88034 7.76028 7.75846 9.88319 7.75846 12.5009C7.75846 15.1186 9.88034 17.2405 12.498 17.2405C15.1158 17.2405 17.2366 15.1186 17.2366 12.5009C17.2366 9.88319 15.1158 7.76028 12.498 7.76028ZM12.498 9.42382C16.5658 9.42382 16.571 15.578 12.498 15.578C8.43138 15.578 8.42513 9.42382 12.498 9.42382Z" fill="#0E4CD9"/>
</g>
<defs>
<clipPath id="clip0_2054_547">
<rect width="25" height="25" fill="white"/>
</clipPath>
</defs>
</svg>
