<svg width="25" height="25" viewBox="0 0 25 25" fill="none" xmlns="http://www.w3.org/2000/svg">
<path d="M12.5 25C19.4036 25 25 19.4036 25 12.5C25 5.59644 19.4036 0 12.5 0C5.59644 0 0 5.59644 0 12.5C0 19.4036 5.59644 25 12.5 25Z" fill="white"/>
<path d="M14.4255 13.1104L13.3367 14.2028C12.8952 14.6459 12.1184 14.6554 11.6673 14.2028L10.5785 13.1104L6.66797 17.0336C6.81353 17.1009 6.97402 17.141 7.14465 17.141H17.8594C18.03 17.141 18.1904 17.1009 18.336 17.0336L14.4255 13.1104Z" fill="#0E4CD9"/>
<path d="M17.8593 8H7.1446C6.97397 8 6.81348 8.04017 6.66797 8.10748L10.8466 12.3C10.8469 12.3003 10.8472 12.3003 10.8475 12.3006C10.8478 12.3009 10.8479 12.3013 10.8479 12.3013L12.2066 13.6645C12.3509 13.8088 12.6531 13.8088 12.7974 13.6645L14.1558 12.3015C14.1558 12.3015 14.1562 12.3009 14.1564 12.3006C14.1564 12.3006 14.1571 12.3003 14.1573 12.3L18.3359 8.10745C18.1904 8.04012 18.03 8 17.8593 8Z" fill="#0E4CD9"/>
<path d="M6.12152 8.64062C6.04621 8.79292 6 8.96197 6 9.14305V15.9984C6 16.1795 6.04616 16.3486 6.12149 16.5009L10.0388 12.5709L6.12152 8.64062Z" fill="#0E4CD9"/>
<path d="M18.8792 8.64062L14.9619 12.5709L18.8792 16.501C18.9545 16.3487 19.0007 16.1796 19.0007 15.9985V9.1431C19.0007 8.96197 18.9545 8.79292 18.8792 8.64062Z" fill="#0E4CD9"/>
</svg>
