<svg width="25" height="25" viewBox="0 0 25 25" fill="none" xmlns="http://www.w3.org/2000/svg">
<path d="M12.5 25C19.4036 25 25 19.4036 25 12.5C25 5.59644 19.4036 0 12.5 0C5.59644 0 0 5.59644 0 12.5C0 19.4036 5.59644 25 12.5 25Z" fill="white"/>
<path d="M5.72068 12.2291L17.7728 7.58226C18.3321 7.38018 18.8207 7.71872 18.6394 8.56456L18.6405 8.56351L16.5884 18.2312C16.4363 18.9166 16.029 19.0833 15.4592 18.7604L12.3342 16.4573L10.8269 17.9093C10.6603 18.076 10.5196 18.2166 10.1967 18.2166L10.4186 15.0364L16.2103 9.80414C16.4623 9.58226 16.154 9.45726 15.8217 9.6781L8.66443 14.1843L5.57901 13.2218C4.90922 13.0093 4.89463 12.5521 5.72068 12.2291Z" fill="#0E4CD9"/>
</svg>
