<svg width="25" height="25" viewBox="0 0 25 25" fill="none" xmlns="http://www.w3.org/2000/svg">
<g clip-path="url(#clip0_2054_595)">
<path d="M21.375 3.59271C19 1.29687 15.875 0 12.5469 0C2.99479 0 -3.00312 10.349 1.76667 18.5812L0 25L6.59896 23.2792C9.47396 24.8323 11.8292 24.6948 12.5531 24.7865C23.6292 24.7865 29.1427 11.3865 21.3594 3.63333L21.375 3.59271Z" fill="white"/>
<path d="M12.5698 22.6576L12.5635 22.6566H12.5469C9.23229 22.6566 7.11458 21.0868 6.90625 20.9962L3 22.0118L4.04687 18.2149L3.79792 17.8243C2.76667 16.1826 2.21875 14.292 2.21875 12.3451C2.21875 3.18576 13.4115 -1.39445 19.8885 5.07951C26.35 11.4858 21.8135 22.6576 12.5698 22.6576Z" fill="white"/>
<path d="M18.2376 14.9033L18.2282 14.9814C17.9147 14.8251 16.3876 14.0783 16.1032 13.9751C15.4647 13.7387 15.6449 13.9376 14.4188 15.3418C14.2365 15.5449 14.0553 15.5606 13.7459 15.4199C13.4334 15.2637 12.4303 14.9356 11.2428 13.8731C10.3178 13.0449 9.69695 12.0293 9.51362 11.7168C9.20841 11.1897 9.84695 11.1147 10.4282 10.0147C10.5324 9.79597 10.4792 9.62409 10.4022 9.46889C10.324 9.31264 9.70216 7.78139 9.44174 7.17097C9.19174 6.56264 8.93445 6.63972 8.74174 6.63972C8.14174 6.58764 7.7032 6.59597 7.31674 6.99805C5.63549 8.84597 6.05945 10.7522 7.498 12.7793C10.3251 16.4793 11.8313 17.1606 14.5855 18.1064C15.3292 18.3428 16.0074 18.3095 16.5438 18.2324C17.1417 18.1376 18.3845 17.4814 18.6438 16.747C18.9095 16.0126 18.9095 15.4033 18.8313 15.2626C18.7542 15.122 18.5501 15.0439 18.2376 14.9033Z" fill="#0E4CD9"/>
</g>
<defs>
<clipPath id="clip0_2054_595">
<rect width="25" height="25" fill="white"/>
</clipPath>
</defs>
</svg>
