<svg xmlns="http://www.w3.org/2000/svg" id="download-app" viewBox="0 0 135 40" fill="none">
  <g clip-path="url(#clip0_806_1104)">
    <path d="M130 0.5H5C2.51472 0.5 0.5 2.51472 0.5 5V35C0.5 37.4853 2.51472 39.5 5 39.5H130C132.485 39.5 134.5 37.4853 134.5 35V5C134.5 2.51472 132.485 0.5 130 0.5Z" fill="black"/>
    <path d="M28.1252 17H25.8809V9.72729H28.2246C28.9301 9.72729 29.5338 9.87289 30.0357 10.1641C30.5376 10.4529 30.9223 10.8684 31.1898 11.4105C31.4573 11.9503 31.5911 12.5966 31.5911 13.3494C31.5911 14.107 31.4562 14.7592 31.1863 15.3061C30.9164 15.8506 30.5234 16.2696 30.0073 16.5632C29.4912 16.8544 28.8638 17 28.1252 17ZM26.7616 16.2188H28.0684C28.6697 16.2188 29.1681 16.1027 29.5634 15.8707C29.9588 15.6387 30.2535 15.3085 30.4476 14.88C30.6418 14.4515 30.7388 13.9413 30.7388 13.3494C30.7388 12.7623 30.643 12.2569 30.4512 11.8331C30.2594 11.407 29.973 11.0803 29.5918 10.853C29.2107 10.6233 28.736 10.5085 28.1678 10.5085H26.7616V16.2188ZM35.1707 17.1136C34.6782 17.1136 34.2462 16.9964 33.8745 16.7621C33.5052 16.5277 33.2163 16.1998 33.008 15.7784C32.802 15.357 32.6991 14.8646 32.6991 14.3011C32.6991 13.733 32.802 13.237 33.008 12.8132C33.2163 12.3894 33.5052 12.0604 33.8745 11.826C34.2462 11.5916 34.6782 11.4744 35.1707 11.4744C35.6631 11.4744 36.094 11.5916 36.4633 11.826C36.835 12.0604 37.1238 12.3894 37.3297 12.8132C37.5381 13.237 37.6422 13.733 37.6422 14.3011C37.6422 14.8646 37.5381 15.357 37.3297 15.7784C37.1238 16.1998 36.835 16.5277 36.4633 16.7621C36.094 16.9964 35.6631 17.1136 35.1707 17.1136ZM35.1707 16.3608C35.5447 16.3608 35.8525 16.2649 36.094 16.0732C36.3354 15.8814 36.5142 15.6293 36.6302 15.3168C36.7462 15.0043 36.8042 14.6657 36.8042 14.3011C36.8042 13.9366 36.7462 13.5968 36.6302 13.282C36.5142 12.9671 36.3354 12.7126 36.094 12.5185C35.8525 12.3243 35.5447 12.2273 35.1707 12.2273C34.7966 12.2273 34.4888 12.3243 34.2474 12.5185C34.0059 12.7126 33.8271 12.9671 33.7111 13.282C33.5951 13.5968 33.5371 13.9366 33.5371 14.3011C33.5371 14.6657 33.5951 15.0043 33.7111 15.3168C33.8271 15.6293 34.0059 15.8814 34.2474 16.0732C34.4888 16.2649 34.7966 16.3608 35.1707 16.3608ZM39.9718 17L38.3099 11.5455H39.1905L40.3695 15.7216H40.4263L41.5911 11.5455H42.486L43.6366 15.7074H43.6934L44.8724 11.5455H45.753L44.0911 17H43.2672L42.0741 12.8097H41.9888L40.7957 17H39.9718ZM47.6991 13.7188V17H46.861V11.5455H47.6707V12.3977H47.7417C47.8695 12.1207 48.0636 11.8982 48.3241 11.7301C48.5845 11.5597 48.9207 11.4744 49.3326 11.4744C49.7019 11.4744 50.0251 11.5502 50.302 11.7017C50.579 11.8509 50.7945 12.0781 50.9484 12.3835C51.1022 12.6866 51.1792 13.0701 51.1792 13.5341V17H50.3411V13.5909C50.3411 13.1624 50.2298 12.8286 50.0073 12.5895C49.7848 12.348 49.4794 12.2273 49.0911 12.2273C48.8236 12.2273 48.5845 12.2853 48.3738 12.4013C48.1654 12.5173 48.0009 12.6866 47.8802 12.9091C47.7594 13.1316 47.6991 13.4015 47.6991 13.7188ZM53.5487 9.72729V17H52.7106V9.72729H53.5487ZM57.2996 17.1136C56.8071 17.1136 56.3751 16.9964 56.0034 16.7621C55.6341 16.5277 55.3453 16.1998 55.1369 15.7784C54.931 15.357 54.828 14.8646 54.828 14.3011C54.828 13.733 54.931 13.237 55.1369 12.8132C55.3453 12.3894 55.6341 12.0604 56.0034 11.826C56.3751 11.5916 56.8071 11.4744 57.2996 11.4744C57.792 11.4744 58.2229 11.5916 58.5922 11.826C58.9639 12.0604 59.2527 12.3894 59.4587 12.8132C59.667 13.237 59.7712 13.733 59.7712 14.3011C59.7712 14.8646 59.667 15.357 59.4587 15.7784C59.2527 16.1998 58.9639 16.5277 58.5922 16.7621C58.2229 16.9964 57.792 17.1136 57.2996 17.1136ZM57.2996 16.3608C57.6736 16.3608 57.9814 16.2649 58.2229 16.0732C58.4643 15.8814 58.6431 15.6293 58.7591 15.3168C58.8751 15.0043 58.9331 14.6657 58.9331 14.3011C58.9331 13.9366 58.8751 13.5968 58.7591 13.282C58.6431 12.9671 58.4643 12.7126 58.2229 12.5185C57.9814 12.3243 57.6736 12.2273 57.2996 12.2273C56.9255 12.2273 56.6177 12.3243 56.3763 12.5185C56.1348 12.7126 55.956 12.9671 55.84 13.282C55.724 13.5968 55.666 13.9366 55.666 14.3011C55.666 14.6657 55.724 15.0043 55.84 15.3168C55.956 15.6293 56.1348 15.8814 56.3763 16.0732C56.6177 16.2649 56.9255 16.3608 57.2996 16.3608ZM62.6556 17.1278C62.3099 17.1278 61.9962 17.0627 61.7145 16.9325C61.4328 16.8 61.2091 16.6094 61.0433 16.3608C60.8776 16.1098 60.7948 15.8068 60.7948 15.4517C60.7948 15.1392 60.8563 14.8859 60.9794 14.6918C61.1025 14.4953 61.2671 14.3414 61.473 14.2301C61.679 14.1188 61.9063 14.036 62.1549 13.9815C62.4058 13.9247 62.6579 13.8797 62.9112 13.8466C63.2427 13.804 63.5114 13.772 63.7174 13.7507C63.9257 13.727 64.0772 13.688 64.1719 13.6335C64.269 13.5791 64.3175 13.4844 64.3175 13.3494V13.321C64.3175 12.9706 64.2216 12.6984 64.0299 12.5043C63.8405 12.3101 63.5528 12.2131 63.1669 12.2131C62.7668 12.2131 62.4531 12.3007 62.2259 12.4759C61.9986 12.651 61.8388 12.8381 61.7465 13.0369L60.951 12.7528C61.0931 12.4214 61.2825 12.1634 61.5192 11.9787C61.7583 11.7917 62.0187 11.6615 62.3004 11.5881C62.5845 11.5123 62.8639 11.4744 63.1385 11.4744C63.3137 11.4744 63.5149 11.4957 63.7422 11.5384C63.9719 11.5786 64.1932 11.6626 64.4063 11.7905C64.6217 11.9183 64.8004 12.1113 64.9425 12.3693C65.0845 12.6274 65.1556 12.973 65.1556 13.4062V17H64.3175V16.2614H64.2749C64.2181 16.3797 64.1234 16.5064 63.9908 16.6413C63.8582 16.7763 63.6818 16.8911 63.4617 16.9858C63.2415 17.0805 62.9728 17.1278 62.6556 17.1278ZM62.7834 16.375C63.1148 16.375 63.3942 16.3099 63.6215 16.1797C63.8511 16.0495 64.0239 15.8814 64.1399 15.6754C64.2583 15.4695 64.3175 15.2528 64.3175 15.0256V14.2585C64.282 14.3011 64.2039 14.3402 64.0831 14.3757C63.9647 14.4089 63.8274 14.4384 63.6712 14.4645C63.5173 14.4882 63.367 14.5095 63.2202 14.5284C63.0758 14.545 62.9586 14.5592 62.8686 14.571C62.6508 14.5994 62.4472 14.6456 62.2578 14.7095C62.0708 14.7711 61.9193 14.8646 61.8033 14.9901C61.6897 15.1132 61.6328 15.2812 61.6328 15.4943C61.6328 15.7855 61.7406 16.0057 61.956 16.1548C62.1738 16.3016 62.4496 16.375 62.7834 16.375ZM68.7449 17.1136C68.2903 17.1136 67.889 16.9988 67.541 16.7692C67.193 16.5372 66.9208 16.2105 66.7243 15.7891C66.5278 15.3653 66.4295 14.8646 66.4295 14.2869C66.4295 13.714 66.5278 13.2169 66.7243 12.7955C66.9208 12.3741 67.1942 12.0485 67.5446 11.8189C67.895 11.5893 68.2998 11.4744 68.7591 11.4744C69.1142 11.4744 69.3947 11.5336 69.6007 11.652C69.809 11.768 69.9676 11.9006 70.0765 12.0497C70.1878 12.1965 70.2742 12.3172 70.3358 12.4119H70.4068V9.72729H71.2449V17H70.4352V16.1619H70.3358C70.2742 16.2614 70.1866 16.3868 70.073 16.5384C69.9594 16.6875 69.7972 16.8213 69.5865 16.9396C69.3758 17.0556 69.0953 17.1136 68.7449 17.1136ZM68.8585 16.3608C69.1947 16.3608 69.4788 16.2732 69.7108 16.098C69.9428 15.9205 70.1192 15.6754 70.2399 15.3629C70.3606 15.0481 70.421 14.6847 70.421 14.2727C70.421 13.8655 70.3618 13.5092 70.2435 13.2038C70.1251 12.8961 69.9499 12.657 69.7179 12.4865C69.4859 12.3137 69.1994 12.2273 68.8585 12.2273C68.5034 12.2273 68.2075 12.3184 67.9707 12.5007C67.7364 12.6806 67.56 12.9257 67.4416 13.2358C67.3256 13.5436 67.2676 13.8892 67.2676 14.2727C67.2676 14.661 67.3268 15.0137 67.4452 15.331C67.5659 15.6458 67.7435 15.8968 67.9778 16.0838C68.2146 16.2685 68.5081 16.3608 68.8585 16.3608Z" fill="white"/>
    <path d="M26.8861 30.0001H25.2383L27.749 22.7274H29.7305L32.2376 30.0001H30.5899L28.7682 24.3893H28.7113L26.8861 30.0001ZM26.7831 27.1414H30.6751V28.3417H26.7831V27.1414ZM39.1961 22.7274V30.0001H37.8679L34.7039 25.4227H34.6506V30.0001H33.113V22.7274H34.4624L37.6016 27.3012H37.6655V22.7274H39.1961ZM43.0446 30.0001H40.4665V22.7274H43.0659C43.7975 22.7274 44.4272 22.873 44.9551 23.1642C45.4831 23.453 45.8891 23.8685 46.1732 24.4106C46.4596 24.9528 46.6029 25.6014 46.6029 26.3566C46.6029 27.1142 46.4596 27.7653 46.1732 28.3098C45.8891 28.8543 45.4807 29.2721 44.948 29.5633C44.4177 29.8545 43.7832 30.0001 43.0446 30.0001ZM42.0041 28.6826H42.9807C43.4352 28.6826 43.8176 28.6021 44.1277 28.4412C44.4402 28.2778 44.6746 28.0257 44.8308 27.6848C44.9895 27.3415 45.0688 26.8988 45.0688 26.3566C45.0688 25.8192 44.9895 25.3801 44.8308 25.0392C44.6746 24.6983 44.4414 24.4473 44.1313 24.2863C43.8211 24.1253 43.4388 24.0448 42.9842 24.0448H42.0041V28.6826ZM47.7419 30.0001V22.7274H50.6112C51.1604 22.7274 51.6292 22.8256 52.0174 23.0221C52.4081 23.2162 52.7052 23.4921 52.9088 23.8495C53.1147 24.2046 53.2177 24.6225 53.2177 25.1031C53.2177 25.586 53.1136 26.0015 52.9052 26.3495C52.6969 26.6952 52.395 26.9603 51.9997 27.145C51.6067 27.3296 51.1308 27.422 50.5721 27.422H48.651V26.1862H50.3236C50.6171 26.1862 50.861 26.1459 51.0551 26.0654C51.2492 25.9849 51.3936 25.8642 51.4883 25.7032C51.5854 25.5422 51.6339 25.3422 51.6339 25.1031C51.6339 24.8616 51.5854 24.658 51.4883 24.4923C51.3936 24.3266 51.248 24.2011 51.0515 24.1159C50.8574 24.0283 50.6124 23.9845 50.3165 23.9845H49.2795V30.0001H47.7419ZM51.6694 26.6904L53.477 30.0001H51.7795L50.0111 26.6904H51.6694ZM60.9876 26.3637C60.9876 27.1568 60.8373 27.8315 60.5366 28.3879C60.2383 28.9442 59.8311 29.3692 59.315 29.6627C58.8013 29.9539 58.2236 30.0995 57.5821 30.0995C56.9358 30.0995 56.3558 29.9528 55.842 29.6592C55.3283 29.3656 54.9223 28.9407 54.624 28.3843C54.3257 27.828 54.1765 27.1545 54.1765 26.3637C54.1765 25.5706 54.3257 24.8959 54.624 24.3396C54.9223 23.7832 55.3283 23.3595 55.842 23.0683C56.3558 22.7747 56.9358 22.6279 57.5821 22.6279C58.2236 22.6279 58.8013 22.7747 59.315 23.0683C59.8311 23.3595 60.2383 23.7832 60.5366 24.3396C60.8373 24.8959 60.9876 25.5706 60.9876 26.3637ZM59.4287 26.3637C59.4287 25.85 59.3517 25.4168 59.1978 25.064C59.0463 24.7113 58.8321 24.4438 58.5551 24.2615C58.2781 24.0792 57.9538 23.988 57.5821 23.988C57.2104 23.988 56.8861 24.0792 56.6091 24.2615C56.3321 24.4438 56.1166 24.7113 55.9628 25.064C55.8112 25.4168 55.7355 25.85 55.7355 26.3637C55.7355 26.8775 55.8112 27.3107 55.9628 27.6635C56.1166 28.0162 56.3321 28.2837 56.6091 28.466C56.8861 28.6483 57.2104 28.7394 57.5821 28.7394C57.9538 28.7394 58.2781 28.6483 58.5551 28.466C58.8321 28.2837 59.0463 28.0162 59.1978 27.6635C59.3517 27.3107 59.4287 26.8775 59.4287 26.3637ZM63.6643 22.7274V30.0001H62.1266V22.7274H63.6643ZM67.5075 30.0001H64.9294V22.7274H67.5288C68.2603 22.7274 68.8901 22.873 69.418 23.1642C69.9459 23.453 70.352 23.8685 70.6361 24.4106C70.9225 24.9528 71.0657 25.6014 71.0657 26.3566C71.0657 27.1142 70.9225 27.7653 70.6361 28.3098C70.352 28.8543 69.9436 29.2721 69.4109 29.5633C68.8806 29.8545 68.2461 30.0001 67.5075 30.0001ZM66.467 28.6826H67.4436C67.8981 28.6826 68.2805 28.6021 68.5906 28.4412C68.9031 28.2778 69.1375 28.0257 69.2937 27.6848C69.4523 27.3415 69.5316 26.8988 69.5316 26.3566C69.5316 25.8192 69.4523 25.3801 69.2937 25.0392C69.1375 24.6983 68.9043 24.4473 68.5942 24.2863C68.284 24.1253 67.9017 24.0448 67.4471 24.0448H66.467V28.6826ZM75.7728 30.0001H74.125L76.6357 22.7274H78.6172L81.1243 30.0001H79.4766L77.6549 24.3893H77.5981L75.7728 30.0001ZM75.6698 27.1414H79.5618V28.3417H75.6698V27.1414ZM81.9997 30.0001V22.7274H84.869C85.4206 22.7274 85.8906 22.8327 86.2788 23.0434C86.6671 23.2518 86.963 23.5418 87.1666 23.9135C87.3726 24.2828 87.4755 24.7089 87.4755 25.1919C87.4755 25.6748 87.3714 26.101 87.163 26.4703C86.9547 26.8396 86.6529 27.1272 86.2575 27.3332C85.8645 27.5392 85.3887 27.6421 84.8299 27.6421H83.0011V26.4099H84.5814C84.8773 26.4099 85.1211 26.359 85.3129 26.2572C85.507 26.153 85.6514 26.0098 85.7461 25.8275C85.8432 25.6429 85.8917 25.431 85.8917 25.1919C85.8917 24.9504 85.8432 24.7397 85.7461 24.5598C85.6514 24.3775 85.507 24.2366 85.3129 24.1372C85.1188 24.0354 84.8726 23.9845 84.5743 23.9845H83.5373V30.0001H81.9997ZM88.4743 30.0001V22.7274H91.3436C91.8952 22.7274 92.3652 22.8327 92.7534 23.0434C93.1417 23.2518 93.4376 23.5418 93.6412 23.9135C93.8472 24.2828 93.9502 24.7089 93.9502 25.1919C93.9502 25.6748 93.846 26.101 93.6377 26.4703C93.4293 26.8396 93.1275 27.1272 92.7321 27.3332C92.3391 27.5392 91.8633 27.6421 91.3046 27.6421H89.4757V26.4099H91.056C91.3519 26.4099 91.5957 26.359 91.7875 26.2572C91.9816 26.153 92.1261 26.0098 92.2207 25.8275C92.3178 25.6429 92.3663 25.431 92.3663 25.1919C92.3663 24.9504 92.3178 24.7397 92.2207 24.5598C92.1261 24.3775 91.9816 24.2366 91.7875 24.1372C91.5934 24.0354 91.3472 23.9845 91.0489 23.9845H90.0119V30.0001H88.4743Z" fill="white"/>
    <path d="M130 0.5H5C2.51472 0.5 0.5 2.51472 0.5 5V35C0.5 37.4853 2.51472 39.5 5 39.5H130C132.485 39.5 134.5 37.4853 134.5 35V5C134.5 2.51472 132.485 0.5 130 0.5Z" stroke="#A6A6A6"/>
  </g>
  <defs>
    <clipPath id="clip0_806_1104">
      <rect width="135" height="40" fill="white"/>
    </clipPath>
  </defs>
</svg>
