<?xml version="1.0" encoding="utf-8"?>
<svg version="1.1" id="gambling-commission" xmlns="http://www.w3.org/2000/svg" xmlns:xlink="http://www.w3.org/1999/xlink" x="0px" y="0px"
	 viewBox="0 0 652 652" style="enable-background:new 0 0 652 652;" xml:space="preserve">
<style type="text/css">
	.st0{fill-rule:evenodd;clip-rule:evenodd;fill:#97999B;}
	.st1{fill-rule:evenodd;clip-rule:evenodd;fill: #6E6E6E}
</style>
<path class="st0" d="M83.3,309.9c-3.6,1.3-7.4,2.2-11.4,2.8c-4,0.6-8.4,0.9-13.3,0.9c-10.2,0-19.7-3.3-26.7-9.3
	c-6.9-5.9-11.3-14.4-11.3-24.6c0-11.4,4-21,11.1-27.7c7.1-6.7,17.2-10.6,29.3-10.6c4.5,0,8.6,0.4,12.3,1.2c3.7,0.7,7,1.8,10,3.2
	l-3.9,10.7c-1-0.8-3.1-2.2-6.3-3.4C70,252,65.7,251,60.3,251c-8.4,0-14.9,2.6-19.4,7.2c-4.5,4.6-6.8,11.2-6.8,19.2
	c0,8.5,3,15.3,7.6,20c4.6,4.7,10.9,7.2,17.4,7.2c2.4,0,4.4-0.1,6.1-0.3c1.8-0.2,3.3-0.6,4.6-1.1c0.2-1.9,0.3-4.6,0.4-7.3l0.1-7.2
	l-0.1-6.3c-0.1-1.9-0.2-3.6-0.4-5.3h13.5l-0.2,6.5l0,7.1l0,9.3l0.2,9.5"/>
<path class="st0" d="M111.1,283.1h22.2l-5.7-14.8l-4.8-13.9l-3.3,8.5l-3.8,9.3l-2.3,5.4 M130.2,241.5l13.2,34.6l15.1,35.9h-14.8
	l-1.5-3.8l-1.5-4l-2.4-5.8l-2.2-5.9h-28.7l-2.4,5.9l-2.5,5.6l-1.7,4.1c-0.6,1.4-1.2,2.7-1.5,3.9H86.6l15.5-33.8l16-36.7H130.2z"/>
<path class="st0" d="M228.8,311.3l-0.4-27.9l-1.1-26.4l-2,5.4l-2.3,6.2l-7.8,21.9l-7.6,20.9h-11.8l-9.6-28.3l-8.5-26l-2.6,26.5
	l-1.6,27.8h-12c1.7-11.9,3-23.4,4-35l2.1-34.9h16l5.8,17.9l6.5,18.3l3.6,10.5l3.3,9.8l10.4-27.9l10-28.7h15.5
	c0,10,0.4,21.7,1.1,33.8l2.7,36"/>
<path class="st0" d="M270.3,302.2c7,0,11.6-1,14.5-3c2.9-1.9,4-4.8,4-8.3c0-3.7-1.5-6.5-4.6-8.3c-3.1-1.9-7.8-2.8-14.2-2.8h-7
	l0,11.3l0.2,11.2 M263.3,250.7l-0.2,9.5l0,10.4h6.5c5.6,0,9.7-0.9,12.4-2.7c2.7-1.7,4-4.3,4-7.7c0-3.2-1.1-5.7-3.7-7.4
	c-2.6-1.7-6.6-2.6-12.3-2.6l-3.4,0.1C265.4,250.4,264.2,250.5,263.3,250.7z M285.7,273.7c4.9,1,8.9,3.1,11.6,6
	c2.7,2.9,4.3,6.5,4.3,10.7c0,6.8-2.5,12-7.4,15.5c-5,3.5-12.4,5.4-22.4,5.4h-21.7l0.6-16.9l0.1-17l-0.1-18l-0.6-17.8h21.5
	c8.5,0,15.3,1.6,19.9,4.5c4.6,2.9,7.1,7.2,7.1,12.5c0,3.3-1.4,6.6-3.7,9.3C292.6,270.6,289.4,272.7,285.7,273.7z"/>
<polyline class="st0" points="320.6,293.6 320.7,297.8 320.8,301.9 337.7,301.8 352.1,301.5 348.5,311.3 307.5,311.3 308.2,294.4
	308.2,277.4 308.2,259.3 307.5,241.5 321.1,241.5 320.9,248.2 320.8,254.1 320.5,265 320.4,277.4 320.5,285.9 "/>
<polyline class="st0" points="359.7,311.3 360.3,294.4 360.4,277.4 360.3,259.3 359.7,241.5 373.2,241.5 373.2,246.4 373.1,250.9
	372.8,263.4 372.7,277.4 372.8,290.5 373.1,302.4 373.2,306.7 373.2,311.3 "/>
<polyline class="st0" points="440,241.5 439.6,259.3 439.6,277.4 439.6,294.4 440,311.3 427.9,311.3 408.5,282 391.2,257
	391.3,286.1 391.9,311.3 379.7,311.3 380.3,294.4 380.4,277.4 380.3,259.3 379.7,241.5 393.7,241.5 413.2,268.5 428.7,291.4
	428.6,264.9 428,241.5 "/>
<path class="st0" d="M510.1,309.9c-3.6,1.3-7.4,2.2-11.4,2.8c-4.1,0.6-8.4,0.9-13.2,0.9c-10.2,0-19.8-3.3-26.8-9.3
	c-7-5.9-11.4-14.4-11.4-24.6c0-11.4,4.1-21,11.2-27.7c7.1-6.7,17.2-10.6,29.4-10.6c4.5,0,8.5,0.4,12.2,1.2c3.7,0.7,7.1,1.8,10.1,3.2
	l-3.9,10.6c-1.5-1.5-4.2-2.8-7.5-3.8c-3.3-1-7.3-1.6-11.2-1.6c-8.6,0-15.3,2.6-19.8,7.2c-4.5,4.6-6.8,11.2-6.8,19.2
	c0,8.5,3,15.3,7.6,20c4.6,4.7,10.9,7.2,17.5,7.2c2.4,0,4.3-0.1,6.1-0.3c1.7-0.2,3.2-0.6,4.5-1.1c0.2-1.9,0.3-4.6,0.4-7.3l0.1-7.2
	l-0.1-6.3c-0.1-1.9-0.2-3.6-0.4-5.3h13.6c-0.1,2-0.2,4.2-0.2,6.5l0,7.1l0,9.3l0.2,9.5"/>
<path class="st1" d="M20.6,368.7c0-11.8,4.3-21.3,11.3-27.9c7-6.5,16.7-10.1,27.4-10.1c4.5,0,8.3,0.2,11.6,0.8
	c3.3,0.6,6.2,1.5,9,2.8l-4.2,11.3c-0.9-1.3-2.9-2.7-5.7-3.8c-2.8-1.1-6.5-1.9-10.8-1.9c-7.3,0-13.6,2.5-18,7.1
	c-4.4,4.6-7.1,11.3-7.1,19.7c0,8,2.7,14.7,7.2,19.3c4.5,4.6,10.8,7.3,17.9,7.3c3.3,0,6.3-0.3,9.1-1.1c2.8-0.8,5.4-1.9,8-3.6l3.8,8.9
	c-3.4,1.9-6.8,3.2-10.5,4c-3.7,0.8-7.8,1.2-12.5,1.2c-10.4,0-19.5-3.4-26.1-9.4C24.6,387.2,20.6,378.7,20.6,368.7"/>
<path class="st1" d="M117.2,393.5c6.9,0,12.6-2.7,16.7-7.4c4-4.7,6.3-11.4,6.3-19.5c0-8.1-2.4-14.8-6.4-19.4
	c-4.1-4.7-9.8-7.3-16.6-7.3c-7.2,0-12.9,2.7-16.9,7.4c-4,4.7-6.1,11.4-6.1,19.3c0,8,2.2,14.7,6.2,19.5
	C104.5,390.8,110.2,393.5,117.2,393.5 M117.2,330.7c11,0,20.2,3.5,26.7,9.6c6.5,6.1,10.2,14.9,10.2,25.4c0,11.2-4.1,20.4-10.7,26.9
	c-6.7,6.4-15.9,10-26.2,10c-11,0-20.3-3.4-26.8-9.5c-6.5-6.1-10.3-14.8-10.3-25.3c0-11.2,4-20.5,10.6-27
	C97.5,334.3,106.7,330.7,117.2,330.7z"/>
<path class="st1" d="M226.3,399.8l-0.4-27.9l-1.1-26.3l-1.9,5.3l-2.3,6.1l-8,22l-7.6,20.8h-11.8l-9.6-28.3l-8.5-25.9l-2.5,26.4
	l-1.7,27.8h-12c1.7-11.9,3-23.4,4-35L165,330h16l5.8,18l6.5,18.4l3.7,10.5l3.2,9.7l10.5-27.8l10.2-28.8h15.3c0,10,0.4,21.7,1.1,33.8
	l2.7,36"/>
<path class="st1" d="M311.5,399.8l-0.4-27.9l-1.1-26.3l-2,5.3l-2.3,6.1l-7.9,22l-7.6,20.8h-12l-9.5-28.3l-8.5-25.9l-2.6,26.4
	l-1.7,27.8h-11.8c1.7-11.9,3-23.4,3.9-35l2.1-34.8h16.2l5.7,18l6.4,18.4l3.8,10.5l3.3,9.7l10.4-27.8L306,330h15.3
	c0,10,0.4,21.7,1.1,33.8l2.7,36"/>
<polyline class="st1" points="331.7,399.8 332.3,383.1 332.4,366.1 332.3,347.9 331.7,330 345.2,330 344.6,347.9 344.5,366.1
	344.6,383.1 345.2,399.8 "/>
<path class="st1" d="M395.5,344.7c-1.5-1.3-3.5-2.6-6.1-3.6c-2.5-1-5.5-1.6-9-1.6c-4.3,0-7.4,0.9-9.5,2.4c-2.1,1.5-3.2,3.7-3.2,6.2
	c0,2.1,0.5,3.9,2.1,5.6c1.6,1.7,4.4,3.4,8.9,5.4l3.5,1.5l3.5,1.5c5.4,2.4,9.2,5,11.6,8.1c2.5,3.1,3.6,6.9,3.6,11.7
	c0,6.8-2.8,11.9-7.3,15.3c-4.6,3.4-11,5.2-18.3,5.2c-4.3,0-8.4-0.3-12.2-1.1c-3.8-0.7-7.4-1.8-10.8-3.4l3.9-10.2
	c2.6,1.7,5.7,3.2,8.9,4.2c3.2,1,6.6,1.6,9.9,1.6c4.7,0,7.9-1.1,10-2.9c2-1.8,2.9-4.3,2.9-7c0-2.5-0.9-4.6-2.6-6.4
	c-1.8-1.8-4.4-3.4-8-5l-4-1.9l-4-1.8c-4.8-2.2-8.4-4.7-10.8-7.7c-2.4-3-3.6-6.5-3.6-11c0-5.6,2.5-10.5,7-13.9
	c4.5-3.5,10.9-5.6,18.7-5.6c4.3,0,8,0.4,11.2,1c3.2,0.6,5.8,1.5,7.9,2.7"/>
<path class="st1" d="M447.5,344.7c-1.6-1.3-3.6-2.6-6.1-3.6c-2.5-1-5.5-1.6-8.9-1.6c-4.3,0-7.5,0.9-9.6,2.4
	c-2.1,1.5-3.2,3.7-3.2,6.2c0,2.1,0.5,3.9,2.2,5.6c1.6,1.7,4.4,3.4,9,5.4l3.5,1.5l3.5,1.5c5.4,2.4,9.2,5,11.6,8.1
	c2.5,3.1,3.6,6.9,3.6,11.7c0,6.8-2.8,11.9-7.3,15.3c-4.6,3.4-11,5.2-18.3,5.2c-4.4,0-8.5-0.3-12.3-1.1c-3.8-0.7-7.4-1.8-10.7-3.4
	l3.9-10.2c2.6,1.7,5.6,3.2,8.8,4.2c3.2,1,6.6,1.6,10,1.6c4.7,0,7.9-1.1,10-2.9c2-1.8,2.9-4.3,2.9-7c0-2.5-0.9-4.6-2.6-6.4
	c-1.8-1.8-4.4-3.4-8-5l-4-1.9l-4-1.8c-4.8-2.2-8.4-4.7-10.8-7.7c-2.4-3-3.6-6.5-3.6-11c0-5.6,2.5-10.5,7-13.9
	c4.5-3.5,10.9-5.6,18.7-5.6c4.3,0,8,0.4,11.2,1c3.2,0.6,5.8,1.5,7.9,2.7"/>
<polyline class="st1" points="460,399.8 460.6,383.1 460.7,366.1 460.6,347.9 460,330 473.5,330 472.9,347.9 472.8,366.1
	472.9,383.1 473.5,399.8 "/>
<path class="st1" d="M518.3,393.5c7,0,12.7-2.7,16.8-7.4c4-4.7,6.3-11.4,6.3-19.5c0-8.1-2.4-14.8-6.4-19.4
	c-4.1-4.7-9.9-7.3-16.7-7.3c-7.1,0-12.9,2.7-16.8,7.4c-4,4.7-6.2,11.4-6.2,19.3c0,8,2.3,14.7,6.3,19.5
	C505.6,390.8,511.4,393.5,518.3,393.5 M518.3,330.7c11.1,0,20.3,3.5,26.8,9.6c6.5,6.1,10.2,14.9,10.2,25.4c0,11.2-4,20.4-10.7,26.9
	c-6.7,6.4-15.9,10-26.4,10c-11,0-20.2-3.4-26.7-9.5c-6.5-6.1-10.2-14.8-10.2-25.3c0-11.2,4-20.5,10.6-27
	C498.5,334.3,507.7,330.7,518.3,330.7z"/>
<polyline class="st1" points="620.6,330 620.3,347.9 620.2,366.1 620.3,383.1 620.6,399.8 608.9,399.8 589.2,370.5 571.9,345.6
	571.9,374.7 572.6,399.8 560.7,399.8 560.7,397.8 561.1,384 561.4,366.1 561.2,345.3 560.7,330 574.5,330 594,357.2 609.5,380.1
	609.4,353.7 608.8,330 "/>
</svg>
