<svg width="26" height="33" viewBox="0 0 26 33" fill="none" xmlns="http://www.w3.org/2000/svg">
<rect width="26" height="33" rx="2" fill="white"/>
<path d="M16.541 9.50357C14.2568 9.5969 12.9943 11.2411 12.9943 11.2411C12.9943 11.2411 11.7318 9.5969 9.44766 9.50357C7.91599 9.44107 6.51182 10.2036 5.58682 11.4261C2.36849 15.6794 8.46182 20.6552 9.89516 21.9911C10.7527 22.7902 11.811 23.7394 12.4427 24.3019C12.7585 24.5836 13.2293 24.5836 13.5452 24.3019C14.1768 23.7394 15.2352 22.7902 16.0927 21.9911C17.526 20.6552 23.6202 15.6794 20.401 11.4261C19.4768 10.2036 18.0727 9.44107 16.541 9.50357Z" fill="#FF0000"/>
</svg>
