<svg width="26" height="33" viewBox="0 0 26 33" fill="none" xmlns="http://www.w3.org/2000/svg">
<rect width="26" height="33" rx="2" fill="white"/>
<path d="M13 9C12.7105 9.00037 12.4289 9.09498 12.1979 9.26953V9.26823C9.94792 11.0322 5 13.0761 5 17.3034C5 19.7134 6.95328 21.6667 9.36328 21.6667C10.8786 21.6667 11.963 20.8071 12.5352 20.2148C12.1397 21.4106 11.4088 22.7774 10.0404 23.7331V23.7357C9.92845 23.7904 9.83412 23.8754 9.76807 23.9811C9.70202 24.0867 9.66689 24.2087 9.66667 24.3333C9.66667 24.5101 9.7369 24.6797 9.86193 24.8047C9.98695 24.9298 10.1565 25 10.3333 25H15.6667C15.8435 25 16.013 24.9298 16.1381 24.8047C16.2631 24.6797 16.3333 24.5101 16.3333 24.3333C16.3331 24.2087 16.298 24.0867 16.2319 23.9811C16.1659 23.8754 16.0715 23.7904 15.9596 23.7357V23.7331C14.5912 22.7774 13.8603 21.4106 13.4648 20.2148C14.037 20.8071 15.1214 21.6667 16.6367 21.6667C19.0467 21.6667 21 19.7134 21 17.3034C21 13.0761 16.0521 11.0322 13.8021 9.26823L13.8008 9.26953C13.5701 9.09525 13.2891 9.00066 13 9Z" fill="black"/>
</svg>
