<svg width="26" height="33" viewBox="0 0 26 33" fill="none" xmlns="http://www.w3.org/2000/svg">
<rect width="26" height="33" rx="2" fill="white"/>
<path d="M12.9998 8.3335C12.7736 8.33381 12.5511 8.39171 12.3534 8.50173C12.1556 8.61175 11.9892 8.77029 11.8696 8.9624L6.00374 16.116C5.78702 16.3596 5.66705 16.6741 5.6665 17.0002C5.66688 17.3237 5.78489 17.6361 5.99854 17.8791L11.8657 25.034C11.9851 25.2274 12.152 25.3871 12.3505 25.4978C12.549 25.6086 12.7725 25.6668 12.9998 25.6668C13.2261 25.6665 13.4486 25.6086 13.6463 25.4986C13.844 25.3886 14.0105 25.23 14.13 25.0379L19.9959 17.8843C20.2127 17.6407 20.3326 17.3262 20.3332 17.0002C20.3324 16.6847 20.2198 16.3798 20.0155 16.1395L20.0011 16.1213L14.134 8.96631C14.0145 8.7729 13.8476 8.61324 13.6492 8.50249C13.4507 8.39173 13.2271 8.33356 12.9998 8.3335Z" fill="#FF0000"/>
</svg>
