<svg width="26" height="33" viewBox="0 0 26 33" fill="none" xmlns="http://www.w3.org/2000/svg">
<rect width="26" height="33" rx="2" fill="white"/>
<path d="M17.8199 15.0752C16.5527 15.0752 15.4965 15.6783 14.4918 16.3299C15.3027 15.0705 16.2762 13.8018 16.2762 12.1721C16.2762 10.3627 14.8074 8.89551 12.9996 8.89551C11.1918 8.89551 9.72461 10.3643 9.72461 12.1721C9.72461 13.7877 10.7012 15.0596 11.5137 16.3236C10.5121 15.6736 9.45586 15.0752 8.1793 15.0752C6.37148 15.0752 4.9043 16.5424 4.9043 18.3549C4.9043 20.1627 6.37305 21.6299 8.1793 21.6299C9.69023 21.6299 10.8996 20.7768 12.0824 20.0033L10.4715 25.4189C12.1559 25.1174 13.8574 25.1314 15.5277 25.4189C15.5277 25.4189 14.6418 22.4424 13.9199 20.0111C15.0949 20.783 16.3012 21.6299 17.8199 21.6299C19.6277 21.6299 21.0949 20.1627 21.0949 18.3549C21.0949 16.5439 19.6262 15.0752 17.8199 15.0752Z" fill="black"/>
</svg>
