<svg id="ecricket" viewBox="0 0 17 16" fill="none" xmlns="http://www.w3.org/2000/svg">
<path fill-rule="evenodd" clip-rule="evenodd" d="M5.18702 9.88507L5.16328 9.90927L5.97367 10.7355L5.9974 10.7113C6.52061 10.1779 7.31995 10.0456 7.98178 10.383L8.12491 10.456C8.1884 10.4883 8.25568 10.5077 8.32342 10.5147L8.07077 11.6575C7.91424 11.6282 7.75986 11.5763 7.61235 11.5011L7.46922 11.4282C7.24861 11.3157 6.98217 11.3598 6.80779 11.5377L5.41371 12.959C5.28954 13.0856 5.24619 13.2729 5.3017 13.4427C5.49452 14.0325 5.34401 14.6827 4.91285 15.1223L4.55549 15.4866C3.88414 16.1711 2.79566 16.1711 2.12431 15.4866L0.503513 13.8341C-0.167838 13.1495 -0.167838 12.0397 0.503513 11.3552L0.860889 10.9909C1.29201 10.5513 1.9297 10.3978 2.50811 10.5944C2.6747 10.651 2.85836 10.6068 2.98253 10.4802L4.37659 9.0588C4.551 8.881 4.59423 8.60933 4.48393 8.3844L4.41237 8.23847C4.08145 7.56367 4.21117 6.74867 4.73442 6.21513L9.82309 1.02677C11.1658 -0.342255 13.3427 -0.342255 14.6855 1.02677C16.0282 2.39579 16.0282 4.6154 14.6855 5.9844L11.4009 9.33333H9.78014L13.875 5.15813C14.7702 4.24547 14.7702 2.76573 13.875 1.85304C12.9799 0.940358 11.5286 0.940358 10.6335 1.85304L5.5448 7.04147C5.37036 7.21927 5.32714 7.49093 5.43744 7.71587L5.50904 7.8618C5.83995 8.5366 5.71023 9.3516 5.18702 9.88507ZM4.75809 10.3224L3.79292 11.3065C3.3618 11.7461 2.72411 11.8995 2.1457 11.7029C1.97911 11.6463 1.79545 11.6905 1.67128 11.8171L1.31391 12.1815C1.09012 12.4097 1.09012 12.7796 1.31391 13.0078L2.9347 14.6603C3.15849 14.8885 3.52131 14.8885 3.7451 14.6603L4.10247 14.2959C4.22664 14.1693 4.26999 13.9821 4.21446 13.8123C4.02166 13.2225 4.1722 12.5723 4.60332 12.1327L5.56847 11.1487L4.75809 10.3224ZM2.26931 4.33793C1.16164 4.33793 0.263686 3.42241 0.263686 2.29303C0.263686 1.16364 1.16164 0.248091 2.26931 0.248091C3.37699 0.248091 4.27494 1.16364 4.27494 2.29303C4.27494 3.42241 3.37699 4.33793 2.26931 4.33793ZM2.26931 3.75369C3.06051 3.75369 3.70191 3.09973 3.70191 2.29303C3.70191 1.48632 3.06051 0.832358 2.26931 0.832358C1.47811 0.832358 0.836722 1.48632 0.836722 2.29303C0.836722 3.09973 1.47811 3.75369 2.26931 3.75369ZM7.85277 15.6747C7.8159 15.8415 7.94026 16 8.10791 16H8.85461H9.60137C9.70422 16 9.79753 15.9385 9.83983 15.8429L10.5852 14.1571C10.6275 14.0615 10.7208 14 10.8236 14H14.0226C14.1254 14 14.2188 14.0615 14.2611 14.1571L15.0064 15.8429C15.0487 15.9385 15.142 16 15.2448 16H16.7383C16.906 16 17.0303 15.8415 16.9935 15.6747L15.877 10.6241C15.7963 10.2592 15.4784 10 15.1116 10H9.73463C9.36782 10 9.04991 10.2592 8.96923 10.6241L7.85277 15.6747ZM10.4338 10.8C10.4338 10.7263 10.4924 10.6667 10.5646 10.6667H10.9662C11.0385 10.6667 11.097 10.7263 11.097 10.8V11.3333H11.6294C11.7016 11.3333 11.7602 11.393 11.7602 11.4667V11.8667C11.7602 11.9403 11.7016 12 11.6294 12H11.097V12.5333C11.097 12.607 11.0385 12.6667 10.9662 12.6667H10.5646C10.4924 12.6667 10.4338 12.607 10.4338 12.5333V12H9.90143C9.82917 12 9.77065 11.9403 9.77065 11.8667V11.4667C9.77065 11.393 9.82917 11.3333 9.90143 11.3333H10.4338V10.8ZM13.5129 12.6667C13.7483 12.6667 13.9392 12.4748 13.9392 12.2381C13.9392 12.0014 13.7483 11.8095 13.5129 11.8095C13.2774 11.8095 13.0865 12.0014 13.0865 12.2381C13.0865 12.4748 13.2774 12.6667 13.5129 12.6667ZM15.0761 12.2381C15.0761 12.4749 14.8852 12.6667 14.6498 12.6667C14.4143 12.6667 14.2235 12.4749 14.2235 12.2381C14.2235 12.0015 14.4143 11.8096 14.6498 11.8096C14.8852 11.8096 15.0761 12.0015 15.0761 12.2381ZM14.6498 11.5238C14.8852 11.5238 15.0761 11.3319 15.0761 11.0953C15.0761 10.8585 14.8852 10.6667 14.6498 10.6667C14.4143 10.6667 14.2235 10.8585 14.2235 11.0953C14.2235 11.3319 14.4143 11.5238 14.6498 11.5238ZM13.9392 11.0953C13.9392 11.3319 13.7483 11.5238 13.5129 11.5238C13.2774 11.5238 13.0865 11.3319 13.0865 11.0953C13.0865 10.8585 13.2774 10.6667 13.5129 10.6667C13.7483 10.6667 13.9392 10.8585 13.9392 11.0953Z" fill="white"/>
</svg>
