<svg width="32" height="44" viewBox="0 0 32 44" fill="none" xmlns="http://www.w3.org/2000/svg">
<rect width="32" height="44" rx="2" fill="white"/>
<path d="M11.4578 35.0898C10.8242 35.0898 10.2961 35.3914 9.79375 35.7172C10.1992 35.0875 10.6859 34.4531 10.6859 33.6383C10.6859 32.7336 9.95156 32 9.04766 32C8.14375 32 7.41016 32.7344 7.41016 33.6383C7.41016 34.4461 7.89844 35.082 8.30469 35.7141C7.80391 35.3891 7.27578 35.0898 6.6375 35.0898C5.73359 35.0898 5 35.8234 5 36.7297C5 37.6336 5.73438 38.3672 6.6375 38.3672C7.39297 38.3672 7.99766 37.9406 8.58906 37.5539L7.78359 40.2617C8.62578 40.1109 9.47656 40.118 10.3117 40.2617C10.3117 40.2617 9.86875 38.7734 9.50781 37.5578C10.0953 37.9437 10.6984 38.3672 11.4578 38.3672C12.3617 38.3672 13.0953 37.6336 13.0953 36.7297C13.0953 35.8242 12.3609 35.0898 11.4578 35.0898Z" fill="black"/>
<path d="M22.9987 32.6665C22.8856 32.6667 22.7743 32.6956 22.6755 32.7506C22.5766 32.8056 22.4934 32.8849 22.4336 32.981L19.5007 36.5578C19.3923 36.6796 19.3323 36.8368 19.332 36.9998C19.3322 37.1616 19.3912 37.3178 19.498 37.4393L22.4316 41.0168C22.4914 41.1135 22.5748 41.1933 22.674 41.2487C22.7733 41.3041 22.885 41.3331 22.9987 41.3332C23.1118 41.333 23.2231 41.3041 23.3219 41.2491C23.4208 41.194 23.504 41.1148 23.5638 41.0187L26.4967 37.4419C26.6051 37.3201 26.6651 37.1628 26.6654 36.9998C26.665 36.8421 26.6087 36.6896 26.5065 36.5695L26.4993 36.5604L23.5658 32.9829C23.506 32.8862 23.4226 32.8064 23.3234 32.751C23.2241 32.6956 23.1123 32.6665 22.9987 32.6665Z" fill="#FF0000"/>
<path d="M24.772 21.252C23.6299 21.2987 22.9986 22.1208 22.9986 22.1208C22.9986 22.1208 22.3674 21.2987 21.2253 21.252C20.4595 21.2208 19.7574 21.602 19.2949 22.2133C17.6857 24.3399 20.7324 26.8279 21.449 27.4958C21.8778 27.8954 22.407 28.3699 22.7228 28.6512C22.8807 28.792 23.1161 28.792 23.274 28.6512C23.5899 28.3699 24.119 27.8954 24.5478 27.4958C25.2645 26.8279 28.3115 24.3399 26.702 22.2133C26.2399 21.602 25.5378 21.2208 24.772 21.252Z" fill="#FF0000"/>
<path d="M13.4365 15H10.9609V7.11914L8.5293 7.82959V5.95459L13.2095 4.33594H13.4365V15ZM24.0566 10.6421C24.0566 12.0825 23.7319 13.1934 23.0825 13.9746C22.438 14.7559 21.5273 15.1465 20.3506 15.1465C19.1641 15.1465 18.2461 14.7534 17.5967 13.9673C16.9473 13.1812 16.6226 12.0728 16.6226 10.6421V8.69385C16.6226 7.25342 16.9448 6.14258 17.5894 5.36133C18.2388 4.58008 19.1543 4.18945 20.3359 4.18945C21.5176 4.18945 22.4331 4.58252 23.0825 5.36865C23.7319 6.15479 24.0566 7.26562 24.0566 8.70117V10.6421ZM21.5884 8.37891C21.5884 7.6123 21.4883 7.04102 21.2881 6.66504C21.0879 6.28418 20.7705 6.09375 20.3359 6.09375C19.9111 6.09375 19.6011 6.26953 19.4058 6.62109C19.2153 6.97266 19.1128 7.50488 19.0981 8.21777V10.9424C19.0981 11.7383 19.1982 12.3218 19.3984 12.6929C19.5986 13.0591 19.916 13.2422 20.3506 13.2422C20.7705 13.2422 21.0806 13.064 21.2808 12.7075C21.481 12.3462 21.5835 11.7822 21.5884 11.0156V8.37891Z" fill="black"/>
</svg>
