<svg width="47" height="62" viewBox="0 0 47 62" fill="none" xmlns="http://www.w3.org/2000/svg">
<rect x="0.825195" y="0.533203" width="45.5614" height="60.8672" rx="2.89844" fill="white"/>
<path d="M35.3774 32.2995C33.7845 32.3671 32.9041 33.5585 32.9041 33.5585C32.9041 33.5585 32.0237 32.3671 30.4307 32.2995C29.3626 32.2542 28.3834 32.8067 27.7383 33.6925C25.494 36.7745 29.7433 40.3801 30.7428 41.348C31.3408 41.9271 32.0789 42.6149 32.5194 43.0225C32.7396 43.2266 33.068 43.2266 33.2882 43.0225C33.7287 42.6149 34.4668 41.9271 35.0648 41.348C36.0643 40.3801 40.3142 36.7745 38.0693 33.6925C37.4248 32.8067 36.4455 32.2542 35.3774 32.2995Z" fill="#FF0000"/>
<path d="M17.6691 50.8294C16.7854 50.8294 16.0488 51.2665 15.3481 51.7386C15.9137 50.826 16.5925 49.9067 16.5925 48.7258C16.5925 47.4147 15.5682 46.3516 14.3075 46.3516C13.0468 46.3516 12.0236 47.4158 12.0236 48.7258C12.0236 49.8965 12.7047 50.8181 13.2713 51.7341C12.5728 51.2631 11.8362 50.8294 10.946 50.8294C9.68528 50.8294 8.66211 51.8926 8.66211 53.2059C8.66211 54.5159 9.68637 55.579 10.946 55.579C11.9997 55.579 12.8431 54.9608 13.6679 54.4004L12.5445 58.3246C13.7191 58.1061 14.9057 58.1163 16.0706 58.3246C16.0706 58.3246 15.4527 56.1678 14.9493 54.406C15.7687 54.9654 16.6099 55.579 17.6691 55.579C18.9298 55.579 19.9529 54.5159 19.9529 53.2059C19.9529 51.8937 18.9287 50.8294 17.6691 50.8294Z" fill="black"/>
<path d="M32.9041 46.9082C32.7463 46.9084 32.5911 46.9504 32.4532 47.0301C32.3154 47.1098 32.1993 47.2247 32.1159 47.3639L28.0252 52.5475C27.8741 52.724 27.7904 52.9519 27.79 53.1882C27.7903 53.4226 27.8726 53.6489 28.0216 53.825L32.1132 59.0096C32.1965 59.1497 32.3128 59.2654 32.4513 59.3456C32.5897 59.4259 32.7456 59.4681 32.9041 59.4681C33.0619 59.4679 33.217 59.4259 33.3549 59.3462C33.4928 59.2665 33.6089 59.1516 33.6922 59.0124L37.7829 53.8288C37.9341 53.6523 38.0177 53.4244 38.0181 53.1882C38.0176 52.9596 37.9391 52.7386 37.7965 52.5645L37.7866 52.5513L33.695 47.3667C33.6117 47.2266 33.4953 47.1109 33.3569 47.0307C33.2185 46.9504 33.0626 46.9082 32.9041 46.9082Z" fill="#FF0000"/>
<path d="M14.3076 31.9336C14.1057 31.9339 13.9093 32.0024 13.7482 32.1289V32.128C12.1792 33.4062 8.72864 34.8871 8.72864 37.9503C8.72864 39.6966 10.0908 41.112 11.7715 41.112C12.8282 41.112 13.5844 40.4892 13.9834 40.06C13.7076 40.9265 13.1979 41.9168 12.2436 42.6093V42.6112C12.1656 42.6509 12.0998 42.7125 12.0537 42.789C12.0077 42.8656 11.9832 42.954 11.983 43.0443C11.983 43.1724 12.032 43.2953 12.1192 43.3859C12.2064 43.4764 12.3246 43.5273 12.4479 43.5273H16.1672C16.2905 43.5273 16.4088 43.4764 16.496 43.3859C16.5832 43.2953 16.6321 43.1724 16.6321 43.0443C16.632 42.954 16.6075 42.8656 16.5614 42.789C16.5154 42.7125 16.4496 42.6509 16.3715 42.6112V42.6093C15.4172 41.9168 14.9075 40.9265 14.6318 40.06C15.0308 40.4892 15.787 41.112 16.8437 41.112C18.5244 41.112 19.8865 39.6966 19.8865 37.9503C19.8865 34.8871 16.436 33.4062 14.8669 32.128L14.866 32.1289C14.7052 32.0026 14.5092 31.9341 14.3076 31.9336Z" fill="black"/>
<path d="M19.1933 7.29311V24.4648H15.2188V11.7747L11.3032 12.9187V9.89954L18.8277 7.29311H19.1933ZM36.3296 14.3104V17.4475C36.3296 18.682 36.1842 19.7552 35.8933 20.6672C35.6102 21.5793 35.2014 22.3341 34.6667 22.9317C34.1399 23.5292 33.5109 23.9734 32.7797 24.2643C32.0485 24.5553 31.2426 24.7007 30.362 24.7007C29.6544 24.7007 28.9939 24.6103 28.3806 24.4295C27.7673 24.2408 27.213 23.9577 26.7177 23.5803C26.2302 23.195 25.8096 22.7154 25.4558 22.1415C25.102 21.5675 24.8307 20.8913 24.642 20.1129C24.4533 19.3267 24.3589 18.4382 24.3589 17.4475V14.3104C24.3589 13.0681 24.5005 11.9949 24.7835 11.0907C25.0744 10.1787 25.4872 9.42385 26.0219 8.8263C26.5565 8.22875 27.1895 7.78452 27.9207 7.49361C28.6519 7.20269 29.4578 7.05724 30.3384 7.05724C31.046 7.05724 31.7025 7.15159 32.308 7.34029C32.9212 7.52112 33.4755 7.80418 33.9709 8.18944C34.4662 8.56684 34.8869 9.04252 35.2328 9.61649C35.5866 10.1904 35.8579 10.8706 36.0466 11.6568C36.2353 12.4352 36.3296 13.3197 36.3296 14.3104ZM32.3551 17.9311V13.8033C32.3551 13.2529 32.3237 12.7733 32.2608 12.3644C32.2057 11.9556 32.1193 11.6096 32.0013 11.3266C31.8912 11.0435 31.7536 10.8155 31.5885 10.6425C31.4234 10.4617 31.2347 10.332 31.0224 10.2533C30.818 10.1669 30.59 10.1236 30.3384 10.1236C30.0239 10.1236 29.7408 10.1904 29.4892 10.3241C29.2455 10.4499 29.0371 10.6543 28.8642 10.9374C28.6912 11.2204 28.5575 11.5978 28.4632 12.0696C28.3767 12.5413 28.3335 13.1192 28.3335 13.8033V17.9311C28.3335 18.4893 28.361 18.9768 28.416 19.3935C28.4789 19.8024 28.5654 20.1523 28.6755 20.4432C28.7934 20.7262 28.9349 20.9582 29.1 21.139C29.2652 21.312 29.4539 21.4378 29.6661 21.5164C29.8784 21.595 30.1104 21.6343 30.362 21.6343C30.6686 21.6343 30.9438 21.5714 31.1875 21.4456C31.4313 21.3198 31.6396 21.1154 31.8126 20.8324C31.9935 20.5414 32.1271 20.1601 32.2136 19.6884C32.308 19.2088 32.3551 18.623 32.3551 17.9311Z" fill="black"/>
</svg>
