<svg width="32" height="44" viewBox="0 0 32 44" fill="none" xmlns="http://www.w3.org/2000/svg">
<rect width="32" height="44" rx="2" fill="white"/>
<path d="M11.4578 35.0898C10.8242 35.0898 10.2961 35.3914 9.79375 35.7172C10.1992 35.0875 10.6859 34.4531 10.6859 33.6383C10.6859 32.7336 9.95156 32 9.04766 32C8.14375 32 7.41016 32.7344 7.41016 33.6383C7.41016 34.4461 7.89844 35.082 8.30469 35.7141C7.80391 35.3891 7.27578 35.0898 6.6375 35.0898C5.73359 35.0898 5 35.8234 5 36.7297C5 37.6336 5.73438 38.3672 6.6375 38.3672C7.39297 38.3672 7.99766 37.9406 8.58906 37.5539L7.78359 40.2617C8.62578 40.1109 9.47656 40.118 10.3117 40.2617C10.3117 40.2617 9.86875 38.7734 9.50781 37.5578C10.0953 37.9437 10.6984 38.3672 11.4578 38.3672C12.3617 38.3672 13.0953 37.6336 13.0953 36.7297C13.0953 35.8242 12.3609 35.0898 11.4578 35.0898Z" fill="black"/>
<path d="M22.9987 32.6665C22.8856 32.6667 22.7743 32.6956 22.6755 32.7506C22.5766 32.8056 22.4934 32.8849 22.4336 32.981L19.5007 36.5578C19.3923 36.6796 19.3323 36.8368 19.332 36.9998C19.3322 37.1616 19.3912 37.3178 19.498 37.4393L22.4316 41.0168C22.4914 41.1135 22.5748 41.1933 22.674 41.2487C22.7733 41.3041 22.885 41.3331 22.9987 41.3332C23.1118 41.333 23.2231 41.3041 23.3219 41.2491C23.4208 41.194 23.504 41.1148 23.5638 41.0187L26.4967 37.4419C26.6051 37.3201 26.6651 37.1628 26.6654 36.9998C26.665 36.8421 26.6087 36.6896 26.5065 36.5695L26.4993 36.5604L23.5658 32.9829C23.506 32.8862 23.4226 32.8064 23.3234 32.751C23.2241 32.6956 23.1123 32.6665 22.9987 32.6665Z" fill="#FF0000"/>
<path d="M24.772 21.252C23.6299 21.2987 22.9986 22.1208 22.9986 22.1208C22.9986 22.1208 22.3674 21.2987 21.2253 21.252C20.4595 21.2208 19.7574 21.602 19.2949 22.2133C17.6857 24.3399 20.7324 26.8279 21.449 27.4958C21.8778 27.8954 22.407 28.3699 22.7228 28.6512C22.8807 28.792 23.1161 28.792 23.274 28.6512C23.5899 28.3699 24.119 27.8954 24.5478 27.4958C25.2645 26.8279 28.3115 24.3399 26.702 22.2133C26.2399 21.602 25.5378 21.2208 24.772 21.252Z" fill="#FF0000"/>
<path d="M18.2705 4.18213V6.12305H18.1606C17.2378 6.12305 16.4785 6.34521 15.8828 6.78955C15.292 7.229 14.9282 7.8418 14.7915 8.62793C15.3481 8.08105 16.0513 7.80762 16.9009 7.80762C17.8237 7.80762 18.5586 8.14453 19.1055 8.81836C19.6523 9.49219 19.9258 10.376 19.9258 11.4697C19.9258 12.1484 19.7646 12.771 19.4424 13.3374C19.125 13.9038 18.6782 14.3481 18.1021 14.6704C17.5308 14.9878 16.896 15.1465 16.1978 15.1465C15.4409 15.1465 14.7646 14.9756 14.1689 14.6338C13.5732 14.2871 13.1094 13.7939 12.7773 13.1543C12.4453 12.5146 12.2744 11.7773 12.2646 10.9424V9.95361C12.2646 8.85498 12.499 7.86865 12.9678 6.99463C13.4414 6.11572 14.1152 5.42725 14.9893 4.9292C15.8633 4.43115 16.8325 4.18213 17.897 4.18213H18.2705ZM16.0439 9.69727C15.7168 9.69727 15.4434 9.77295 15.2236 9.92432C15.0039 10.0757 14.8403 10.2612 14.7329 10.481V11.2207C14.7329 12.5684 15.1992 13.2422 16.1318 13.2422C16.5078 13.2422 16.8203 13.0737 17.0693 12.7368C17.3232 12.3999 17.4502 11.9775 17.4502 11.4697C17.4502 10.9473 17.3208 10.5225 17.062 10.1953C16.8081 9.86328 16.4688 9.69727 16.0439 9.69727Z" fill="black"/>
<path d="M9 21C8.85523 21.0002 8.71446 21.0475 8.59896 21.1348V21.1341C7.47396 22.0161 5 23.038 5 25.1517C5 26.3567 5.97664 27.3333 7.18164 27.3333C7.93932 27.3333 8.48147 26.9036 8.76758 26.6074C8.56984 27.2053 8.20441 27.8887 7.52018 28.3665V28.3678C7.46423 28.3952 7.41706 28.4377 7.38403 28.4905C7.35101 28.5434 7.33344 28.6044 7.33333 28.6667C7.33333 28.7551 7.36845 28.8399 7.43096 28.9024C7.49348 28.9649 7.57826 29 7.66667 29H10.3333C10.4217 29 10.5065 28.9649 10.569 28.9024C10.6315 28.8399 10.6667 28.7551 10.6667 28.6667C10.6666 28.6044 10.649 28.5434 10.616 28.4905C10.5829 28.4377 10.5358 28.3952 10.4798 28.3678V28.3665C9.79559 27.8887 9.43016 27.2053 9.23242 26.6074C9.51852 26.9036 10.0607 27.3333 10.8184 27.3333C12.0234 27.3333 13 26.3567 13 25.1517C13 23.038 10.526 22.0161 9.40104 21.1341L9.40039 21.1348C9.28507 21.0476 9.14454 21.0003 9 21Z" fill="black"/>
</svg>
