<svg width="32" height="44" viewBox="0 0 32 44" fill="none" xmlns="http://www.w3.org/2000/svg">
<rect width="32" height="44" rx="2" fill="white"/>
<path d="M11.4578 35.0898C10.8242 35.0898 10.2961 35.3914 9.79375 35.7172C10.1992 35.0875 10.6859 34.4531 10.6859 33.6383C10.6859 32.7336 9.95156 32 9.04766 32C8.14375 32 7.41016 32.7344 7.41016 33.6383C7.41016 34.4461 7.89844 35.082 8.30469 35.7141C7.80391 35.3891 7.27578 35.0898 6.6375 35.0898C5.73359 35.0898 5 35.8234 5 36.7297C5 37.6336 5.73438 38.3672 6.6375 38.3672C7.39297 38.3672 7.99766 37.9406 8.58906 37.5539L7.78359 40.2617C8.62578 40.1109 9.47656 40.118 10.3117 40.2617C10.3117 40.2617 9.86875 38.7734 9.50781 37.5578C10.0953 37.9437 10.6984 38.3672 11.4578 38.3672C12.3617 38.3672 13.0953 37.6336 13.0953 36.7297C13.0953 35.8242 12.3609 35.0898 11.4578 35.0898Z" fill="black"/>
<path d="M22.9987 32.6665C22.8856 32.6667 22.7743 32.6956 22.6755 32.7506C22.5766 32.8056 22.4934 32.8849 22.4336 32.981L19.5007 36.5578C19.3923 36.6796 19.3323 36.8368 19.332 36.9998C19.3322 37.1616 19.3912 37.3178 19.498 37.4393L22.4316 41.0168C22.4914 41.1135 22.5748 41.1933 22.674 41.2487C22.7733 41.3041 22.885 41.3331 22.9987 41.3332C23.1118 41.333 23.2231 41.3041 23.3219 41.2491C23.4208 41.194 23.504 41.1148 23.5638 41.0187L26.4967 37.4419C26.6051 37.3201 26.6651 37.1628 26.6654 36.9998C26.665 36.8421 26.6087 36.6896 26.5065 36.5695L26.4993 36.5604L23.5658 32.9829C23.506 32.8862 23.4226 32.8064 23.3234 32.751C23.2241 32.6956 23.1123 32.6665 22.9987 32.6665Z" fill="#FF0000"/>
<path d="M24.772 21.252C23.6299 21.2987 22.9986 22.1208 22.9986 22.1208C22.9986 22.1208 22.3674 21.2987 21.2253 21.252C20.4595 21.2208 19.7574 21.602 19.2949 22.2133C17.6857 24.3399 20.7324 26.8279 21.449 27.4958C21.8778 27.8954 22.407 28.3699 22.7228 28.6512C22.8807 28.792 23.1161 28.792 23.274 28.6512C23.5899 28.3699 24.119 27.8954 24.5478 27.4958C25.2645 26.8279 28.3115 24.3399 26.702 22.2133C26.2399 21.602 25.5378 21.2208 24.772 21.252Z" fill="#FF0000"/>
<path d="M13.8687 13.1689H14.0151C14.5034 13.1689 14.9429 13.1152 15.3335 13.0078C15.7241 12.9004 16.0586 12.7344 16.3369 12.5098C16.6152 12.2803 16.8276 11.9849 16.9741 11.6235C17.1255 11.2573 17.2012 10.8154 17.2012 10.2979V8.09326C17.2012 7.75146 17.1719 7.45605 17.1133 7.20703C17.0547 6.95312 16.9692 6.74316 16.8569 6.57715C16.7446 6.41113 16.6104 6.28906 16.4541 6.21094C16.2979 6.12793 16.1221 6.08643 15.9268 6.08643C15.7314 6.08643 15.5581 6.14258 15.4067 6.25488C15.2603 6.3623 15.1333 6.50879 15.0259 6.69434C14.9233 6.875 14.8452 7.08008 14.7915 7.30957C14.7378 7.53418 14.7109 7.76123 14.7109 7.99072C14.7109 8.24951 14.7378 8.49121 14.7915 8.71582C14.8501 8.93555 14.9331 9.12842 15.0405 9.29443C15.1528 9.45557 15.292 9.58252 15.458 9.67529C15.6289 9.76807 15.8267 9.81445 16.0513 9.81445C16.2759 9.81445 16.4688 9.77539 16.6299 9.69727C16.7959 9.61426 16.9326 9.50684 17.04 9.375C17.1475 9.23828 17.2256 9.0918 17.2744 8.93555C17.3281 8.7793 17.3525 8.62549 17.3477 8.47412L18.0654 9.03809C18.0654 9.35059 17.9946 9.6582 17.853 9.96094C17.7114 10.2637 17.5161 10.5396 17.2671 10.7886C17.0181 11.0327 16.73 11.228 16.4028 11.3745C16.0806 11.521 15.7388 11.5942 15.3774 11.5942C14.894 11.5942 14.457 11.5088 14.0664 11.3379C13.6807 11.167 13.3511 10.9229 13.0776 10.6055C12.8042 10.2881 12.5942 9.90967 12.4478 9.47021C12.3062 9.02588 12.2354 8.53271 12.2354 7.99072C12.2354 7.46826 12.3257 6.97754 12.5063 6.51855C12.687 6.05957 12.9434 5.65674 13.2754 5.31006C13.6074 4.9585 14.0005 4.68262 14.4546 4.48242C14.9087 4.28223 15.4067 4.18213 15.9487 4.18213C16.4614 4.18213 16.9424 4.27979 17.3916 4.4751C17.8408 4.66553 18.2363 4.94629 18.5781 5.31738C18.9199 5.68848 19.1885 6.14502 19.3838 6.68701C19.5791 7.229 19.6768 7.84912 19.6768 8.54736V9.39697C19.6768 10.1538 19.584 10.8374 19.3984 11.4478C19.2129 12.0581 18.9492 12.5952 18.6074 13.0591C18.2656 13.5181 17.8604 13.9038 17.3916 14.2163C16.9277 14.5239 16.4126 14.7559 15.8462 14.9121C15.2847 15.0684 14.689 15.1465 14.0591 15.1465H13.8687V13.1689Z" fill="black"/>
</svg>
