<svg width="32" height="44" viewBox="0 0 32 44" fill="none" xmlns="http://www.w3.org/2000/svg">
<rect width="32" height="44" rx="2" fill="white"/>
<path d="M13.4365 17H10.9609V9.11914L8.5293 9.82959V7.95459L13.2095 6.33594H13.4365V17ZM24.0566 12.6421C24.0566 14.0825 23.7319 15.1934 23.0825 15.9746C22.438 16.7559 21.5273 17.1465 20.3506 17.1465C19.1641 17.1465 18.2461 16.7534 17.5967 15.9673C16.9473 15.1812 16.6226 14.0728 16.6226 12.6421V10.6938C16.6226 9.25342 16.9448 8.14258 17.5894 7.36133C18.2388 6.58008 19.1543 6.18945 20.3359 6.18945C21.5176 6.18945 22.4331 6.58252 23.0825 7.36865C23.7319 8.15479 24.0566 9.26562 24.0566 10.7012V12.6421ZM21.5884 10.3789C21.5884 9.6123 21.4883 9.04102 21.2881 8.66504C21.0879 8.28418 20.7705 8.09375 20.3359 8.09375C19.9111 8.09375 19.6011 8.26953 19.4058 8.62109C19.2153 8.97266 19.1128 9.50488 19.0981 10.2178V12.9424C19.0981 13.7383 19.1982 14.3218 19.3984 14.6929C19.5986 15.0591 19.916 15.2422 20.3506 15.2422C20.7705 15.2422 21.0806 15.064 21.2808 14.7075C21.481 14.3462 21.5835 13.7822 21.5884 13.0156V10.3789Z" fill="black"/>
<path d="M16 24C15.7105 24.0004 15.4289 24.095 15.1979 24.2695V24.2682C12.9479 26.0322 8 28.0761 8 32.3034C8 34.7134 9.95328 36.6667 12.3633 36.6667C13.8786 36.6667 14.963 35.8071 15.5352 35.2148C15.1397 36.4106 14.4088 37.7774 13.0404 38.7331V38.7357C12.9285 38.7904 12.8341 38.8754 12.7681 38.9811C12.702 39.0867 12.6669 39.2087 12.6667 39.3333C12.6667 39.5101 12.7369 39.6797 12.8619 39.8047C12.987 39.9298 13.1565 40 13.3333 40H18.6667C18.8435 40 19.013 39.9298 19.1381 39.8047C19.2631 39.6797 19.3333 39.5101 19.3333 39.3333C19.3331 39.2087 19.298 39.0867 19.2319 38.9811C19.1659 38.8754 19.0715 38.7904 18.9596 38.7357V38.7331C17.5912 37.7774 16.8603 36.4106 16.4648 35.2148C17.037 35.8071 18.1214 36.6667 19.6367 36.6667C22.0467 36.6667 24 34.7134 24 32.3034C24 28.0761 19.0521 26.0322 16.8021 24.2682L16.8008 24.2695C16.5701 24.0953 16.2891 24.0007 16 24Z" fill="black"/>
</svg>
