<svg width="32" height="44" viewBox="0 0 32 44" fill="none" xmlns="http://www.w3.org/2000/svg">
<rect width="32" height="44" rx="2" fill="white"/>
<path d="M13.8687 15.1689H14.0151C14.5034 15.1689 14.9429 15.1152 15.3335 15.0078C15.7241 14.9004 16.0586 14.7344 16.3369 14.5098C16.6152 14.2803 16.8276 13.9849 16.9741 13.6235C17.1255 13.2573 17.2012 12.8154 17.2012 12.2979V10.0933C17.2012 9.75146 17.1719 9.45605 17.1133 9.20703C17.0547 8.95312 16.9692 8.74316 16.8569 8.57715C16.7446 8.41113 16.6104 8.28906 16.4541 8.21094C16.2979 8.12793 16.1221 8.08643 15.9268 8.08643C15.7314 8.08643 15.5581 8.14258 15.4067 8.25488C15.2603 8.3623 15.1333 8.50879 15.0259 8.69434C14.9233 8.875 14.8452 9.08008 14.7915 9.30957C14.7378 9.53418 14.7109 9.76123 14.7109 9.99072C14.7109 10.2495 14.7378 10.4912 14.7915 10.7158C14.8501 10.9355 14.9331 11.1284 15.0405 11.2944C15.1528 11.4556 15.292 11.5825 15.458 11.6753C15.6289 11.7681 15.8267 11.8145 16.0513 11.8145C16.2759 11.8145 16.4688 11.7754 16.6299 11.6973C16.7959 11.6143 16.9326 11.5068 17.04 11.375C17.1475 11.2383 17.2256 11.0918 17.2744 10.9355C17.3281 10.7793 17.3525 10.6255 17.3477 10.4741L18.0654 11.0381C18.0654 11.3506 17.9946 11.6582 17.853 11.9609C17.7114 12.2637 17.5161 12.5396 17.2671 12.7886C17.0181 13.0327 16.73 13.228 16.4028 13.3745C16.0806 13.521 15.7388 13.5942 15.3774 13.5942C14.894 13.5942 14.457 13.5088 14.0664 13.3379C13.6807 13.167 13.3511 12.9229 13.0776 12.6055C12.8042 12.2881 12.5942 11.9097 12.4478 11.4702C12.3062 11.0259 12.2354 10.5327 12.2354 9.99072C12.2354 9.46826 12.3257 8.97754 12.5063 8.51855C12.687 8.05957 12.9434 7.65674 13.2754 7.31006C13.6074 6.9585 14.0005 6.68262 14.4546 6.48242C14.9087 6.28223 15.4067 6.18213 15.9487 6.18213C16.4614 6.18213 16.9424 6.27979 17.3916 6.4751C17.8408 6.66553 18.2363 6.94629 18.5781 7.31738C18.9199 7.68848 19.1885 8.14502 19.3838 8.68701C19.5791 9.229 19.6768 9.84912 19.6768 10.5474V11.397C19.6768 12.1538 19.584 12.8374 19.3984 13.4478C19.2129 14.0581 18.9492 14.5952 18.6074 15.0591C18.2656 15.5181 17.8604 15.9038 17.3916 16.2163C16.9277 16.5239 16.4126 16.7559 15.8462 16.9121C15.2847 17.0684 14.689 17.1465 14.0591 17.1465H13.8687V15.1689Z" fill="black"/>
<path d="M16 24C15.7105 24.0004 15.4289 24.095 15.1979 24.2695V24.2682C12.9479 26.0322 8 28.0761 8 32.3034C8 34.7134 9.95328 36.6667 12.3633 36.6667C13.8786 36.6667 14.963 35.8071 15.5352 35.2148C15.1397 36.4106 14.4088 37.7774 13.0404 38.7331V38.7357C12.9285 38.7904 12.8341 38.8754 12.7681 38.9811C12.702 39.0867 12.6669 39.2087 12.6667 39.3333C12.6667 39.5101 12.7369 39.6797 12.8619 39.8047C12.987 39.9298 13.1565 40 13.3333 40H18.6667C18.8435 40 19.013 39.9298 19.1381 39.8047C19.2631 39.6797 19.3333 39.5101 19.3333 39.3333C19.3331 39.2087 19.298 39.0867 19.2319 38.9811C19.1659 38.8754 19.0715 38.7904 18.9596 38.7357V38.7331C17.5912 37.7774 16.8603 36.4106 16.4648 35.2148C17.037 35.8071 18.1214 36.6667 19.6367 36.6667C22.0467 36.6667 24 34.7134 24 32.3034C24 28.0761 19.0521 26.0322 16.8021 24.2682L16.8008 24.2695C16.5701 24.0953 16.2891 24.0007 16 24Z" fill="black"/>
</svg>
