<svg width="21" height="21" viewBox="0 0 21 21" fill="none" xmlns="http://www.w3.org/2000/svg">
<path d="M12.5541 11.0569C12.8902 10.7293 12.8902 10.2707 12.5541 9.94306L2.73937 0.24571C2.40325 -0.0819033 1.86546 -0.0819033 1.59657 0.24571L0.25209 1.55616C-0.0840299 1.81825 -0.0840299 2.34243 0.25209 2.67005L8.18451 10.4672L0.25209 18.33C-0.0840299 18.6576 -0.0840299 19.1162 0.25209 19.4438L1.59657 20.7543C1.86546 21.0819 2.40325 21.0819 2.73937 20.7543L12.5541 11.0569Z" fill="#404152"/>
<path d="M8.44594 11.0569C8.10982 10.7293 8.10982 10.2707 8.44594 9.94306L18.2606 0.24571C18.5967 -0.0819033 19.1345 -0.0819033 19.4034 0.24571L20.7479 1.55616C21.084 1.81825 21.084 2.34243 20.7479 2.67005L12.8155 10.4672L20.7479 18.33C21.084 18.6576 21.084 19.1162 20.7479 19.4438L19.4034 20.7543C19.1345 21.0819 18.5967 21.0819 18.2606 20.7543L8.44594 11.0569Z" fill="#404152"/>
</svg>
