<svg width="20" height="20" viewBox="0 0 20 20" fill="none" xmlns="http://www.w3.org/2000/svg">
<path fill-rule="evenodd" clip-rule="evenodd" d="M20 10C20 15.5228 15.5228 20 10 20C4.47715 20 0 15.5228 0 10C0 4.47715 4.47715 0 10 0C15.5228 0 20 4.47715 20 10ZM12.4026 6.28466C13.7936 6.76234 14.8112 7.47761 14.6116 8.80873C14.4666 9.78348 13.9242 10.2549 13.2036 10.42C14.1922 10.9327 14.5292 11.9057 14.2161 13.0822C13.6216 14.7753 12.2086 14.9179 10.3292 14.564L9.87287 16.3841L8.77121 16.1102L9.22129 14.3146C8.93567 14.2439 8.64378 14.1682 8.3431 14.0876L7.89114 15.892L6.79074 15.6182L7.24647 13.7944L5.02747 13.2366L5.57484 11.9799C5.57484 11.9799 6.38712 12.1944 6.37582 12.1788C6.6878 12.2557 6.82652 12.0531 6.88113 11.9187L8.11775 6.97867C8.13156 6.74546 8.05058 6.4516 7.60427 6.34031C7.62122 6.32843 6.80392 6.14211 6.80392 6.14211L7.09707 4.96979L9.31921 5.51812L9.77118 3.71495L10.8722 3.9888L10.4297 5.75634C10.7259 5.82324 11.0235 5.89139 11.3129 5.96329L11.7523 4.20701L12.8539 4.48086L12.4026 6.28466ZM9.76656 9.29256C10.517 9.49151 12.15 9.92444 12.4346 8.78932C12.725 7.62795 11.1385 7.27719 10.3617 7.10546L10.3617 7.10545L10.3617 7.10545C10.2736 7.08599 10.196 7.06883 10.1327 7.05305L9.58409 9.24512C9.63632 9.25803 9.69769 9.2743 9.76648 9.29254L9.76656 9.29256ZM8.91631 12.8219C9.81514 13.0586 11.7809 13.5764 12.0937 12.3256C12.4139 11.0467 10.5079 10.6207 9.57795 10.4129C9.47405 10.3897 9.38233 10.3692 9.30726 10.3505L8.70213 12.7664C8.76363 12.7817 8.83567 12.8006 8.91631 12.8219Z" fill="#F7931A"/>
</svg>
