<svg width="20" height="20" viewBox="0 0 20 20" fill="none" xmlns="http://www.w3.org/2000/svg">
<path fill-rule="evenodd" clip-rule="evenodd" d="M13.9735 12.4832C14.3879 12.8975 14.3907 13.5618 13.9764 13.9775C13.5664 14.3875 12.8992 14.3904 12.4835 13.9746L9.99902 11.4917L7.51601 13.9746C7.10026 14.3875 6.43737 14.3904 6.02306 13.9775C5.6116 13.5646 5.61017 12.9003 6.02591 12.4832L8.50892 10.0003L6.02591 7.51736C5.61446 7.10449 5.61017 6.44019 6.02306 6.02447C6.43451 5.61161 7.09884 5.61018 7.51601 6.02447L9.99902 8.50738L12.4835 6.02447C12.8963 5.61303 13.5635 5.61018 13.9764 6.02447C14.3879 6.43591 14.3907 7.09878 13.9735 7.51736L11.492 10.0003L13.9735 12.4832ZM10 0C4.47857 0 0 4.47857 0 10C0 15.5214 4.47857 20 10 20C15.5229 20 20 15.5214 20 10C20 4.47857 15.5229 0 10 0Z" fill="#B4B5B6"/>
</svg>
