<svg width="20" height="20" viewBox="0 0 20 20" fill="none" xmlns="http://www.w3.org/2000/svg">
<path d="M19.5845 15.0386L12.5194 1.94583C11.3843 0.0193365 8.61723 0.0167769 7.48058 1.94583L0.415894 15.0386C-0.744497 17.0072 0.660386 19.5 2.93472 19.5H17.065C19.3375 19.5 20.7448 17.0092 19.5845 15.0386ZM10 17.1372C9.35398 17.1372 8.82812 16.6071 8.82812 15.9558C8.82812 15.3046 9.35398 14.7744 10 14.7744C10.646 14.7744 11.1719 15.3046 11.1719 15.9558C11.1719 16.6071 10.646 17.1372 10 17.1372ZM11.1719 12.4117C11.1719 13.0629 10.646 13.593 10 13.593C9.35398 13.593 8.82812 13.0629 8.82812 12.4117V6.5047C8.82812 5.85344 9.35398 5.32331 10 5.32331C10.646 5.32331 11.1719 5.85344 11.1719 6.5047V12.4117Z" fill="#FA4448"/>
</svg>
