<svg width="28" height="21" viewBox="0 0 28 21" fill="none" xmlns="http://www.w3.org/2000/svg">
<path fill-rule="evenodd" clip-rule="evenodd" d="M7.90951 18.7224V19.8333V20.9441H7.40998V20.6744C7.25153 20.8744 7.01112 21 6.68433 21C6.0401 21 5.53506 20.5121 5.53506 19.8333C5.53506 19.1549 6.0401 18.6665 6.68433 18.6665C7.01112 18.6665 7.25153 18.7921 7.40998 18.9921V18.7224H7.90951ZM6.74651 19.122C6.31409 19.122 6.04947 19.4428 6.04947 19.8333C6.04947 20.2238 6.31409 20.5446 6.74651 20.5446C7.15967 20.5446 7.4386 20.2377 7.4386 19.8333C7.4386 19.429 7.15967 19.122 6.74651 19.122ZM24.7904 19.8333C24.7904 19.4428 25.055 19.122 25.4874 19.122C25.9011 19.122 26.1795 19.429 26.1795 19.8333C26.1795 20.2377 25.9011 20.5446 25.4874 20.5446C25.055 20.5446 24.7904 20.2238 24.7904 19.8333ZM26.651 17.8302V19.8333V20.9441H26.1509V20.6744C25.9924 20.8744 25.752 21 25.4252 21C24.781 21 24.276 20.5121 24.276 19.8333C24.276 19.1549 24.781 18.6665 25.4252 18.6665C25.752 18.6665 25.9924 18.7921 26.1509 18.9921V17.8302H26.651ZM14.1103 19.099C14.4322 19.099 14.639 19.2943 14.6918 19.638H13.4997C13.553 19.3172 13.7544 19.099 14.1103 19.099ZM12.9758 19.8333C12.9758 19.1405 13.4468 18.6665 14.1202 18.6665C14.7638 18.6665 15.2062 19.1405 15.2111 19.8333C15.2111 19.8982 15.2062 19.9588 15.2012 20.0189H13.4952C13.5673 20.419 13.8605 20.5632 14.1823 20.5632C14.4128 20.5632 14.6582 20.4791 14.8508 20.3307L15.0956 20.6888C14.8167 20.9165 14.4998 21 14.1537 21C13.466 21 12.9758 20.5398 12.9758 19.8333ZM20.1521 19.8333C20.1521 19.4428 20.4167 19.122 20.8491 19.122C21.2623 19.122 21.5412 19.429 21.5412 19.8333C21.5412 20.2377 21.2623 20.5446 20.8491 20.5446C20.4167 20.5446 20.1521 20.2238 20.1521 19.8333ZM22.0122 18.7224V19.8333V20.9441H21.5126V20.6744C21.3536 20.8744 21.1138 21 20.787 21C20.1428 21 19.6377 20.5121 19.6377 19.8333C19.6377 19.1549 20.1428 18.6665 20.787 18.6665C21.1138 18.6665 21.3536 18.7921 21.5126 18.9921V18.7224H22.0122ZM17.3309 19.8333C17.3309 20.5073 17.8161 21 18.5566 21C18.9027 21 19.1332 20.9255 19.3829 20.735L19.1431 20.3445C18.9555 20.4749 18.7585 20.5446 18.5418 20.5446C18.1429 20.5398 17.8497 20.261 17.8497 19.8333C17.8497 19.4055 18.1429 19.1267 18.5418 19.1219C18.7585 19.1219 18.9555 19.1916 19.1431 19.322L19.3829 18.9315C19.1332 18.741 18.9027 18.6665 18.5566 18.6665C17.8161 18.6665 17.3309 19.1592 17.3309 19.8333ZM23.1658 18.9922C23.2956 18.797 23.4832 18.6666 23.7715 18.6666C23.8727 18.6666 24.0169 18.6852 24.1274 18.7273L23.9734 19.1827C23.8678 19.1407 23.7621 19.1268 23.6609 19.1268C23.3341 19.1268 23.1707 19.3311 23.1707 19.6988V20.9442H22.6706V18.7225H23.1658V18.9922ZM10.3802 18.899C10.1398 18.7458 9.80858 18.6665 9.44328 18.6665C8.86122 18.6665 8.48656 18.9362 8.48656 19.3778C8.48656 19.7401 8.76549 19.9636 9.27933 20.0333L9.51535 20.0658C9.78932 20.103 9.91861 20.1727 9.91861 20.2983C9.91861 20.4701 9.73596 20.568 9.39487 20.568C9.04882 20.568 8.79905 20.4611 8.6307 20.3355L8.39524 20.7116C8.66922 20.9069 9.01526 21 9.38991 21C10.0534 21 10.438 20.6978 10.438 20.2748C10.438 19.8843 10.1354 19.68 9.63528 19.6103L9.39982 19.5773C9.18361 19.5497 9.01031 19.5082 9.01031 19.3592C9.01031 19.1964 9.1737 19.0991 9.44768 19.0991C9.74091 19.0991 10.0248 19.206 10.164 19.2895L10.3802 18.899ZM16.2207 18.9922C16.35 18.797 16.5376 18.6666 16.8259 18.6666C16.9271 18.6666 17.0712 18.6852 17.1818 18.7273L17.0278 19.1827C16.9222 19.1407 16.8165 19.1268 16.7153 19.1268C16.3885 19.1268 16.2251 19.3311 16.2251 19.6988V20.9442H15.7256V18.7225H16.2207V18.9922ZM12.5626 18.7224H11.7456V18.0483H11.2406V18.7224H10.7746V19.164H11.2406V20.1775C11.2406 20.693 11.4474 21 12.0383 21C12.2551 21 12.5048 20.9351 12.6633 20.8282L12.5191 20.4142C12.37 20.4978 12.2066 20.5398 12.0768 20.5398C11.827 20.5398 11.7456 20.3908 11.7456 20.1679V19.164H12.5626V18.7224ZM5.09327 19.5498V20.9442H4.58823V19.7078C4.58823 19.3311 4.42484 19.122 4.08374 19.122C3.752 19.122 3.52149 19.3269 3.52149 19.7126V20.9442H3.01645V19.7078C3.01645 19.3311 2.84865 19.122 2.51691 19.122C2.17527 19.122 1.9541 19.3269 1.9541 19.7126V20.9442H1.44962L1.44962 18.7225H1.9497L1.9497 18.9965C2.13731 18.7363 2.37717 18.6666 2.62254 18.6666C2.97354 18.6666 3.22331 18.8156 3.38175 19.0619C3.59356 18.7501 3.89614 18.6618 4.18937 18.6666C4.74723 18.6714 5.09327 19.0247 5.09327 19.5498Z" fill="#231F20"/>
<path d="M17.7858 14.9471H10.2146V1.78888H17.7858V14.9471Z" fill="#FF5F00"/>
<path d="M10.695 8.36832C10.695 5.69912 11.9873 3.32148 13.9997 1.78923C12.5281 0.668772 10.6708 9.53674e-06 8.65224 9.53674e-06C3.87362 9.53674e-06 0 3.74657 0 8.36832C0 12.9901 3.87362 16.7366 8.65224 16.7366C10.6708 16.7366 12.5281 16.0679 13.9997 14.9474C11.9873 13.4152 10.695 11.0375 10.695 8.36832Z" fill="#EB001B"/>
<path d="M28 8.36832C28 12.9901 24.1264 16.7366 19.3477 16.7366C17.3292 16.7366 15.4719 16.0679 13.9997 14.9474C16.0127 13.4152 17.305 11.0375 17.305 8.36832C17.305 5.69912 16.0127 3.32148 13.9997 1.78923C15.4719 0.668772 17.3292 9.53674e-06 19.3477 9.53674e-06C24.1264 9.53674e-06 28 3.74657 28 8.36832Z" fill="#F79E1B"/>
</svg>
