<svg width="71" height="18" viewBox="0 0 71 18" fill="none" xmlns="http://www.w3.org/2000/svg">
<path d="M27.0389 7.44954C26.855 8.82907 25.7514 8.82907 24.7397 8.82907H24.1879L24.6477 6.16197C24.6477 5.97804 24.8317 5.88607 25.0156 5.88607H25.2915C26.0273 5.88607 26.6711 5.88607 27.0389 6.25394C27.0389 6.62182 27.0389 6.9897 27.0389 7.44954ZM26.5791 3.77078H22.6244C22.3485 3.77078 22.1646 3.95472 22.0726 4.23063L20.5091 14.3472C20.5091 14.5311 20.6011 14.7151 20.877 14.7151H22.7164C22.9923 14.7151 23.1762 14.5311 23.2682 14.2552L23.728 11.4962C23.728 11.2203 24.004 11.0363 24.2799 11.0363H25.5674C28.1426 11.0363 29.6141 9.74876 30.0739 7.2656C30.2578 6.16197 30.0739 5.33425 29.6141 4.69047C28.8783 4.13866 27.8667 3.77078 26.5791 3.77078Z" fill="#263577"/>
<path d="M35.684 11.1283C35.5001 12.2319 34.6723 12.9676 33.5687 12.9676C33.0169 12.9676 32.5571 12.7837 32.2812 12.4158C32.0053 12.048 31.9133 11.5881 32.0052 11.1283C32.1892 10.0246 33.0169 9.28888 34.1205 9.28888C34.6724 9.28888 35.1322 9.47282 35.4081 9.84069C35.592 10.1166 35.776 10.5764 35.684 11.1283ZM38.2591 7.4495H36.4198C36.2358 7.4495 36.1438 7.54147 36.0519 7.72541L35.9599 8.27722L35.8679 8.09329C35.5001 7.54147 34.5804 7.26556 33.6607 7.26556C31.5454 7.26556 29.798 8.82904 29.4301 11.0363C29.2462 12.1399 29.5221 13.1516 30.1659 13.8873C30.7177 14.5311 31.5454 14.807 32.5571 14.807C34.2125 14.807 35.1322 13.7034 35.1322 13.7034L35.0402 14.2552C35.0402 14.4391 35.1322 14.6231 35.4081 14.6231H37.0635C37.3394 14.6231 37.5234 14.4391 37.6153 14.1632L38.627 7.72541C38.627 7.63344 38.535 7.4495 38.2591 7.4495Z" fill="#263577"/>
<path d="M48.2836 7.44949H46.3523C46.1683 7.44949 45.9844 7.54146 45.8924 7.7254L43.3173 11.5881L42.2137 7.90934C42.1217 7.63343 41.9378 7.54146 41.6618 7.54146H39.8225C39.6385 7.54146 39.4546 7.7254 39.5466 8.00131L41.6618 14.0713L39.7305 16.8303C39.5466 17.0143 39.7305 17.3821 40.0064 17.3821H41.9378C42.1217 17.3821 42.3056 17.2902 42.3976 17.1062L48.6515 8.00131C48.7435 7.7254 48.5595 7.44949 48.2836 7.44949Z" fill="#263577"/>
<path d="M54.9974 7.44954C54.8135 8.82907 53.7099 8.82907 52.6982 8.82907H52.1464L52.6062 6.16197C52.6062 5.97804 52.7902 5.88607 52.9741 5.88607H53.25C53.9858 5.88607 54.6295 5.88607 54.9974 6.25394C55.0894 6.62182 55.0894 6.9897 54.9974 7.44954ZM54.5376 3.77078H50.5829C50.307 3.77078 50.1231 3.95472 50.0311 4.23063L48.4676 14.3472C48.4676 14.5311 48.5596 14.7151 48.8355 14.7151H50.8588C51.0428 14.7151 51.2267 14.6231 51.2267 14.3472L51.6865 11.4962C51.6865 11.2203 51.9624 11.0363 52.2384 11.0363H53.5259C56.101 11.0363 57.5726 9.74876 58.0324 7.2656C58.2164 6.16197 58.0324 5.33425 57.5726 4.69047C56.9288 4.13866 55.9171 3.77078 54.5376 3.77078Z" fill="#2199D6"/>
<path d="M63.7345 11.1283C63.5505 12.2319 62.7228 12.9676 61.6192 12.9676C61.0674 12.9676 60.6075 12.7837 60.3316 12.4158C60.0557 12.048 59.9637 11.5881 60.0557 11.1283C60.2396 10.0246 61.0674 9.28888 62.171 9.28888C62.7228 9.28888 63.1827 9.47282 63.4586 9.84069C63.6425 10.1166 63.8264 10.5764 63.7345 11.1283ZM66.3096 7.4495H64.4702C64.2863 7.4495 64.1943 7.54147 64.1023 7.72541L64.0104 8.27722L63.9184 8.09329C63.5505 7.54147 62.6308 7.26556 61.7112 7.26556C59.5959 7.26556 57.8485 8.82904 57.4806 11.0363C57.2966 12.1399 57.5725 13.1516 58.2163 13.8873C58.7681 14.5311 59.5959 14.807 60.6075 14.807C62.263 14.807 63.1826 13.7034 63.1826 13.7034L63.0907 14.2552C63.0907 14.4391 63.1827 14.6231 63.4586 14.6231H65.114C65.3899 14.6231 65.5738 14.4391 65.6658 14.1632L66.6775 7.72541C66.6775 7.63344 66.4935 7.4495 66.3096 7.4495Z" fill="#2199D6"/>
<path d="M68.5168 4.04669L66.8614 14.3472C66.8614 14.5311 66.9534 14.7151 67.2293 14.7151H68.8847C69.1606 14.7151 69.3446 14.5311 69.4365 14.2552L71 4.13866C71 3.95472 70.908 3.77078 70.6321 3.77078H68.7927C68.7008 3.77078 68.6088 3.95472 68.5168 4.04669Z" fill="#2199D6"/>
<path d="M4.13854 16.6464L4.41444 14.7151H3.77066H0.551743L2.75901 0.643817C2.75901 0.643817 2.759 0.551849 2.85097 0.551849H2.94294H8.3691C10.1165 0.551849 11.4041 0.919726 12.0479 1.65548C12.3238 2.02335 12.5077 2.39123 12.5997 2.75911C12.6916 3.21895 12.6916 3.67879 12.5997 4.32257V4.69045L12.8756 4.87439C13.1515 4.96636 13.3354 5.1503 13.5194 5.33423C13.7953 5.61014 13.9792 5.97802 13.9792 6.43786C14.0712 6.89771 14.0712 7.44952 13.8872 8.0933C13.7033 8.82905 13.5194 9.38086 13.2435 9.93268C12.9676 10.3925 12.5997 10.7604 12.2318 11.1283C11.8639 11.4042 11.3121 11.5881 10.8523 11.7721C10.3004 11.864 9.74864 11.956 9.10486 11.956H8.64501C8.3691 11.956 8.0932 12.048 7.8173 12.2319C7.63336 12.4158 7.44942 12.6917 7.35745 12.9677V13.1516L6.80563 16.5544V16.6464V16.7384C6.80563 16.7384 6.80563 16.7384 6.71366 16.7384H4.13854V16.6464Z" fill="#263577"/>
<path d="M13.2436 4.3226C13.2436 4.41457 13.2436 4.50654 13.1516 4.59851C12.4158 8.27727 10.0247 9.47286 6.89772 9.47286H5.33424C4.96637 9.47286 4.5985 9.74877 4.5985 10.1166L3.77077 15.2669L3.58684 16.7384C3.58684 17.0143 3.77077 17.1983 3.95471 17.1983H6.80575C7.17363 17.1983 7.44953 16.9223 7.44953 16.6464V16.4625L8.00135 13.1516V12.9677C8.09332 12.5998 8.36922 12.4159 8.64513 12.4159H9.10497C11.864 12.4159 13.9793 11.3122 14.5311 8.09333C14.807 6.7138 14.6231 5.61017 13.9793 4.87442C13.7954 4.69048 13.5195 4.50654 13.2436 4.3226Z" fill="#2199D6"/>
<path d="M12.5077 4.04669C12.4158 4.04669 12.3238 3.95472 12.1399 3.95472C12.0479 3.95472 11.864 3.86275 11.772 3.86275C11.3121 3.77078 10.8523 3.77078 10.3925 3.77078H6.1619C6.06993 3.77078 5.97796 3.77078 5.88599 3.86275C5.70205 3.95472 5.51812 4.13866 5.51812 4.32259L4.59843 10.0247V10.2086C4.6904 9.84073 4.96629 9.56483 5.33417 9.56483H6.89765C10.0246 9.56483 12.4158 8.27726 13.1515 4.69047C13.1515 4.5985 13.1515 4.50653 13.2435 4.41457C13.0596 4.3226 12.8756 4.23063 12.6917 4.13866C12.5997 4.04669 12.5077 4.04669 12.5077 4.04669Z" fill="#252C5E"/>
<path d="M5.51814 4.32254C5.51814 4.1386 5.70207 3.95466 5.88601 3.86269C5.97798 3.86269 6.06995 3.77073 6.16192 3.77073H10.3925C10.8523 3.77073 11.4041 3.77072 11.772 3.86269C11.864 3.86269 12.0479 3.8627 12.1399 3.95466C12.2319 3.95466 12.3238 4.04663 12.5078 4.04663C12.5997 4.04663 12.5997 4.04663 12.6917 4.1386C12.8756 4.23057 13.0596 4.32254 13.2435 4.41451C13.4275 3.03497 13.2435 2.11528 12.5078 1.28756C11.68 0.367874 10.2085 0 8.36916 0H2.943C2.57513 0 2.20725 0.275904 2.20725 0.64378L0 14.807C0 15.0829 0.183938 15.3588 0.459845 15.3588H3.77072L4.59845 10.0246L5.51814 4.32254Z" fill="#263577"/>
</svg>
