<svg width="43" height="15" viewBox="0 0 43 15" fill="none" xmlns="http://www.w3.org/2000/svg">
<path fill-rule="evenodd" clip-rule="evenodd" d="M30.7191 3.64942C31.6875 3.64942 32.4723 2.84966 32.4723 1.86326C32.4723 0.876475 31.6875 0.0761414 30.7191 0.0761414C29.7519 0.0761414 28.9674 0.876475 28.9674 1.86326C28.9674 2.84966 29.7519 3.64942 30.7191 3.64942ZM17.2917 4.61374C17.2126 4.81651 16.6432 6.45616 15.2661 8.15552V0.889149L11.5969 1.62861V14.7992H15.2661V10.728C16.3288 12.3529 16.8536 14.7992 16.8536 14.7992H21.2485C20.8138 12.957 18.9121 9.55956 18.9121 9.55956C20.6188 7.35365 21.3685 5.00334 21.4877 4.61374H17.2917ZM26.9379 4.47625C23.6514 4.58397 21.9831 6.0871 21.9831 9.0751V14.7992H25.5685V10.1314C25.5685 8.34197 25.7983 7.57505 27.881 7.50208V4.52886C27.5304 4.45302 26.9379 4.47625 26.9379 4.47625ZM5.44329 6.06405C4.99387 6.03391 3.95339 5.96555 3.95339 5.01064C3.95339 3.85833 5.45139 3.85833 6.01326 3.85833C7.0012 3.85833 8.28071 4.15577 9.19443 4.43439C9.19443 4.43439 9.70412 4.61758 10.1379 4.80537L10.1782 4.81651V1.66049L10.1228 1.64397C9.04449 1.25936 7.7906 0.889149 5.4659 0.889149C1.45766 0.889149 0.0374451 3.26961 0.0374451 5.30904C0.0374451 6.48458 0.531694 9.25118 5.12214 9.57032C5.51129 9.5947 6.54405 9.65519 6.54405 10.6422C6.54405 11.4569 5.69852 11.9373 4.27642 11.9373C2.71795 11.9373 1.2062 11.5322 0.28796 11.1479V14.3981C1.66259 14.7654 3.2122 14.9491 5.02834 14.9491C8.94749 14.9491 10.7028 12.6968 10.7028 10.4645C10.7028 7.93355 8.7386 6.2891 5.44329 6.06405ZM28.9418 14.7992H32.4982V4.62526H28.9418V14.7992ZM39.1946 1.53779V14.7992H42.7516V0.889149L39.1946 1.53779ZM34.0046 1.53779L37.5582 0.889149V14.7992H34.0046V1.53779Z" fill="#712560"/>
</svg>
