<svg width="50" height="16" viewBox="0 0 50 16" fill="none" xmlns="http://www.w3.org/2000/svg">
<path d="M46.6374 0.219238H43.4942C42.5439 0.219238 41.8129 0.511636 41.3743 1.46193L35.3801 15.1315H39.6199C39.6199 15.1315 40.3509 13.304 40.4971 12.8654C40.9357 12.8654 45.1023 12.8654 45.6871 12.8654C45.8333 13.3771 46.1988 15.0584 46.1988 15.0584H50L46.6374 0.219238ZM41.6667 9.79525C42.0322 8.91806 43.2749 5.62859 43.2749 5.62859C43.2749 5.70169 43.6404 4.7514 43.7866 4.2397L44.0789 5.55549C44.0789 5.55549 44.883 9.13736 45.0292 9.86835H41.6667V9.79525Z" fill="#3362AB"/>
<path d="M35.6725 10.2339C35.6725 13.3041 32.8947 15.3509 28.5819 15.3509C26.7544 15.3509 25 14.9854 24.0497 14.5468L24.6345 11.1842L25.1462 11.4035C26.462 11.9883 27.3392 12.2076 28.9474 12.2076C30.117 12.2076 31.3596 11.769 31.3596 10.7456C31.3596 10.0877 30.848 9.64911 29.2398 8.91812C27.7047 8.18713 25.6579 7.01754 25.6579 4.89766C25.6579 1.97368 28.5088 0 32.5292 0C34.0643 0 35.3801 0.292397 36.1842 0.657894L35.5994 3.87427L35.307 3.58187C34.576 3.28947 33.6257 2.99707 32.2368 2.99707C30.7018 3.07017 29.9708 3.72807 29.9708 4.31286C29.9708 4.97076 30.8479 5.48245 32.2368 6.14034C34.576 7.23684 35.6725 8.47952 35.6725 10.2339Z" fill="#3362AB"/>
<path d="M0 0.365456L0.0730994 0.0730591H6.35964C7.23684 0.0730591 7.89473 0.365456 8.11403 1.31575L9.50292 7.89469C8.11403 4.38592 4.89766 1.53505 0 0.365456Z" fill="#F9B50B"/>
<path d="M18.3479 0.219279L11.9882 15.0584H7.67538L4.02042 2.63156C6.65199 4.31284 8.84497 6.94442 9.64907 8.7719L10.0877 10.307L14.035 0.146179H18.3479V0.219279Z" fill="#3362AB"/>
<path d="M20.0293 0.146179H24.0497L21.4913 15.0584H17.4708L20.0293 0.146179Z" fill="#3362AB"/>
</svg>
