<svg id="football" viewBox="0 0 20 20" fill="none" xmlns="http://www.w3.org/2000/svg">
<path d="M0 10.0691C0.00790954 8.87775 0.195102 7.77053 0.566851 6.69487C0.935963 5.62973 1.47645 4.65664 2.17512 3.77034C3.14536 2.54214 4.34234 1.60061 5.76342 0.945749C6.57019 0.574922 7.40861 0.298775 8.28393 0.146237C8.70314 0.0725973 9.12761 0.0357776 9.55473 0.0252577C9.78674 0.0173678 10.0188 -0.00630195 10.2481 0.00158797C10.5724 0.0147378 10.8967 0.0410376 11.2184 0.0752272C12.1359 0.172536 13.0112 0.435534 13.8602 0.78795C14.6801 1.12985 15.45 1.56642 16.1513 2.11609C17.3324 3.03921 18.2684 4.16484 18.9381 5.50612C19.3019 6.23463 19.5656 6.99995 19.7343 7.79683C19.816 8.1887 19.8872 8.58319 19.94 8.97769C20.0006 9.44319 20.0111 9.91133 19.9901 10.3821C19.9162 11.9943 19.4628 13.4986 18.7166 14.9214C18.4266 15.4764 18.0601 15.9813 17.6515 16.4573C17.3245 16.8387 16.9792 17.199 16.5942 17.5198C16.0089 18.009 15.3893 18.4482 14.7197 18.8138C13.9261 19.2477 13.0903 19.5739 12.2044 19.7632C11.7747 19.8553 11.3423 19.921 10.9046 19.9631C10.4169 20.0078 9.92648 20.0104 9.43609 19.9789C8.52122 19.9184 7.63007 19.7395 6.7653 19.4424C6.06135 19.2004 5.39958 18.8769 4.76682 18.4877C3.99432 18.0117 3.27455 17.4672 2.65497 16.8019C1.66891 15.742 0.951782 14.5243 0.498301 13.1515C0.297926 12.5387 0.150281 11.9154 0.0606398 11.2789C0.00790954 10.8555 0.00263651 10.4347 0 10.0691ZM7.60371 9.52735C7.6248 9.81139 7.64062 10.0691 7.65907 10.3242C7.6828 10.6319 7.7039 10.9397 7.73026 11.2474C7.7619 11.5971 7.79617 11.9496 7.83045 12.2993C7.87 12.6728 7.90954 13.0489 7.95436 13.4223C7.957 13.4434 7.98073 13.4697 8.00182 13.4828C8.05982 13.5118 8.1231 13.5354 8.18374 13.5591C8.74532 13.7879 9.3069 14.0141 9.86847 14.2455C10.5223 14.5138 11.1551 14.832 11.838 15.0266C11.8617 15.0345 11.896 15.0319 11.9144 15.0214C12.0858 14.9109 12.2572 14.8005 12.4233 14.6821C12.8873 14.3428 13.346 13.9983 13.8074 13.6564C14.2187 13.3513 14.63 13.0436 15.0387 12.7359C15.0545 12.7228 15.0677 12.6912 15.0677 12.6702C15.044 12.3178 15.0229 11.9653 14.9886 11.6156C14.9543 11.2474 14.9121 10.8792 14.862 10.5136C14.8093 10.1322 14.746 9.75353 14.6854 9.37218C14.6537 9.1802 14.6116 8.99084 14.5878 8.79885C14.5747 8.69628 14.5325 8.64894 14.4376 8.60949C13.7784 8.33072 13.1219 8.04405 12.4654 7.76001C11.954 7.53646 11.4425 7.31292 10.9336 7.08674C10.8598 7.05518 10.7992 7.0657 10.7412 7.10778C10.2007 7.48649 9.65228 7.85469 9.12234 8.24656C8.6504 8.59634 8.19692 8.97243 7.73553 9.33537C7.66171 9.39322 7.57207 9.44056 7.60371 9.52735ZM3.94423 5.97163C3.94423 6.12154 3.94686 6.27408 3.94423 6.42398C3.93632 6.99732 3.97586 7.57065 4.03914 8.14136C4.04441 8.18344 4.06023 8.215 4.10505 8.23078C4.21315 8.2676 4.31861 8.31231 4.42671 8.34913C5.39694 8.66998 6.36718 8.98821 7.33742 9.30907C7.42706 9.338 7.49297 9.31959 7.56416 9.26173C8.10992 8.79359 8.68204 8.35439 9.26735 7.93885C9.76038 7.58906 10.2587 7.24454 10.7543 6.89738C10.7833 6.87634 10.8071 6.85793 10.8044 6.81322C10.7886 6.60282 10.7754 6.39505 10.7623 6.18466C10.7412 5.82961 10.7201 5.47719 10.7016 5.12215C10.6858 4.85389 10.6726 4.583 10.6568 4.31475C10.641 4.04386 10.6252 3.77297 10.612 3.50208C10.6067 3.39951 10.612 3.39951 10.5144 3.36532C9.90802 3.14441 9.30953 2.90508 8.68468 2.7315C8.25229 2.61052 7.83045 2.46061 7.40333 2.32123C7.30842 2.28967 7.23723 2.28704 7.14495 2.35015C6.98676 2.45798 6.81012 2.54214 6.64138 2.63419C6.0798 2.94716 5.56041 3.31798 5.05156 3.70722C4.68245 3.99126 4.31861 4.27793 3.98905 4.6093C3.96795 4.63034 3.9495 4.66453 3.9495 4.69083C3.94159 5.11689 3.94423 5.54557 3.94423 5.97163ZM12.1016 17.9065C12.1016 17.8696 12.1042 17.8328 12.1016 17.796C12.0752 17.3778 12.0541 16.9597 12.0251 16.5441C12.0067 16.2943 11.9777 16.0444 11.9513 15.792C11.9329 15.6236 11.9118 15.4527 11.8986 15.2844C11.896 15.237 11.8828 15.216 11.838 15.2028C11.6297 15.1318 11.4161 15.0661 11.2131 14.9819C10.1585 14.5453 9.10388 14.1035 8.05192 13.659C7.98864 13.6327 7.93855 13.6222 7.88845 13.6748C7.86736 13.6932 7.84363 13.7116 7.81727 13.7222C7.5378 13.8326 7.26096 13.951 6.97885 14.0456C6.23272 14.2981 5.48395 14.5375 4.73518 14.782C4.67981 14.8005 4.65081 14.8241 4.65872 14.8872C4.67981 15.0398 4.69036 15.1923 4.71145 15.3422C4.75627 15.6762 4.80109 16.0102 4.85382 16.3416C4.89337 16.5888 4.94346 16.8361 4.99356 17.0806C5.00674 17.1464 5.02256 17.2174 5.05947 17.27C5.11747 17.3489 5.19393 17.4146 5.26776 17.483C5.62896 17.8276 5.9928 18.1721 6.35664 18.514C6.37773 18.535 6.40409 18.5561 6.43046 18.5666C7.1845 18.869 7.96491 19.0794 8.77432 19.1846C8.84814 19.1951 8.92724 19.2135 8.99315 19.1978C9.35172 19.111 9.71292 19.0216 10.0662 18.9216C10.612 18.7665 11.1419 18.5666 11.6428 18.2931C11.7509 18.2326 11.8617 18.1747 11.975 18.1221C12.1095 18.0511 12.1095 18.0564 12.1016 17.9065ZM17.3931 14.1114C17.4643 14.043 17.5381 13.9852 17.5961 13.9141C17.8017 13.6696 18.0074 13.425 18.2078 13.1751C18.4161 12.9121 18.6217 12.6491 18.8194 12.3782C18.9486 12.202 19.0594 12.0127 19.1754 11.826C19.1991 11.7891 19.2149 11.7497 19.2255 11.7076C19.3573 11.0817 19.3968 10.4478 19.41 9.80876C19.4127 9.71145 19.4021 9.61677 19.3731 9.51946C19.1411 8.76466 18.8854 8.02038 18.5874 7.28925C18.5769 7.26295 18.5611 7.23139 18.54 7.21298C18.4081 7.11567 18.2763 7.01836 18.1392 6.92631C18.0628 6.87371 17.981 6.82111 17.9019 6.77377C17.5434 6.55548 17.1822 6.33982 16.8262 6.11891C16.7735 6.08735 16.7419 6.09787 16.7129 6.14258C16.676 6.20044 16.6443 6.26093 16.6048 6.31353C16.03 7.04992 15.4552 7.78894 14.8726 8.5227C14.8014 8.61475 14.7777 8.69365 14.8014 8.80674C14.8462 9.0224 14.8805 9.24069 14.9121 9.45897C14.9649 9.80613 15.0176 10.1507 15.0598 10.4978C15.1046 10.8502 15.1441 11.2026 15.1731 11.5551C15.2048 11.9154 15.2206 12.2757 15.2417 12.636C15.247 12.7307 15.2681 12.8043 15.3709 12.8306C15.4078 12.8411 15.4421 12.8648 15.4763 12.8858C16.0353 13.2382 16.5942 13.5933 17.1532 13.9483C17.2323 13.9983 17.3087 14.0535 17.3931 14.1114ZM3.7544 4.68031C3.73067 4.67505 3.7043 4.66979 3.6753 4.66716C3.22973 4.61719 2.78152 4.56985 2.33595 4.51725C2.29377 4.51199 2.27268 4.52251 2.25158 4.5567C1.96948 4.96961 1.71901 5.39829 1.50281 5.84802C1.02033 6.84478 0.761953 7.90466 0.651219 9.00136C0.630127 9.21965 0.632764 9.43793 0.622217 9.65622C0.595852 10.1559 0.659129 10.6477 0.69604 11.1448C0.698676 11.1842 0.717132 11.2 0.759316 11.2026C0.875323 11.2105 0.991329 11.2184 1.10734 11.2316C1.45799 11.2737 1.80865 11.3184 2.15931 11.3604C2.17512 11.3631 2.20413 11.3473 2.21204 11.3315C2.25949 11.2263 2.29904 11.1185 2.3465 11.0133C2.50733 10.6661 2.65761 10.3085 2.84216 9.97182C3.15064 9.40375 3.47756 8.84882 3.8704 8.33335C3.88095 8.31757 3.88886 8.2939 3.88622 8.27286C3.86513 8.05194 3.83877 7.83365 3.82295 7.61536C3.79922 7.28399 3.77022 6.95261 3.76494 6.6186C3.7544 6.16362 3.76231 5.70863 3.76494 5.25102C3.7544 5.06429 3.7544 4.87493 3.7544 4.68031ZM14.2873 2.9156C14.2978 2.83144 14.3005 2.76043 14.3136 2.68942C14.3769 2.35541 14.4428 2.02141 14.5114 1.6874C14.5219 1.64006 14.514 1.61376 14.4692 1.58746C13.9709 1.30869 13.4515 1.07725 12.9084 0.903669C12.2308 0.688011 11.54 0.532843 10.8229 0.506543C10.3747 0.488133 9.92384 0.440794 9.47563 0.482873C9.34117 0.496023 9.20144 0.488133 9.06961 0.509173C8.72423 0.559142 8.38148 0.614372 8.03873 0.672231C7.89372 0.695901 7.75399 0.737981 7.61162 0.76954C7.56943 0.78006 7.55361 0.80636 7.55098 0.84844C7.52989 1.07462 7.50616 1.3008 7.47979 1.52697C7.46134 1.68214 7.44552 1.83994 7.41388 1.99511C7.39015 2.11609 7.39279 2.1345 7.50879 2.16869C7.51407 2.17132 7.52198 2.17395 7.52725 2.17658C8.54758 2.47639 9.56528 2.78673 10.5592 3.16545C10.6462 3.19701 10.7306 3.23383 10.8387 3.21279C11.0892 3.16545 11.3476 3.14178 11.6007 3.11548C12.0489 3.06814 12.4944 3.01817 12.9426 2.98135C13.3091 2.94979 13.6756 2.93664 14.0394 2.91823C14.1212 2.91297 14.2029 2.9156 14.2873 2.9156ZM4.83009 17.3173C4.82219 17.2726 4.81691 17.2358 4.809 17.199C4.73518 16.8229 4.65345 16.4494 4.59017 16.0734C4.54008 15.7683 4.51108 15.4579 4.47417 15.1502C4.46362 15.0634 4.45307 14.9767 4.45044 14.8899C4.4478 14.8478 4.45571 14.811 4.42407 14.7715C4.23161 14.5506 4.0365 14.3297 3.85195 14.1009C3.48284 13.6406 3.14273 13.1593 2.83953 12.6544C2.64179 12.3283 2.4546 11.9943 2.27004 11.6603C2.22785 11.584 2.1804 11.5498 2.09076 11.5393C1.75856 11.5025 1.42635 11.4551 1.09152 11.4157C0.970237 11.4025 0.848958 11.3973 0.722405 11.3867C0.725042 11.4262 0.730315 11.4604 0.732951 11.4972C0.732951 11.5077 0.738224 11.5182 0.738224 11.5288C0.904325 12.4756 1.22334 13.3671 1.67155 14.2166C2.05384 14.9398 2.5126 15.6105 3.06363 16.2154C3.43011 16.6178 3.83349 16.9781 4.27643 17.2937C4.29225 17.3042 4.3107 17.3173 4.32916 17.3173C4.48998 17.3173 4.65608 17.3173 4.83009 17.3173ZM18.9302 6.95524C18.1893 4.65401 16.7313 2.94979 14.6854 1.71633C14.6195 2.09242 14.5536 2.45798 14.4929 2.82355C14.4876 2.84722 14.5008 2.88404 14.5193 2.90245C14.5826 2.97346 14.6485 3.03921 14.717 3.10496C15.007 3.37058 15.2601 3.67303 15.508 3.97548C15.827 4.36208 16.1091 4.77236 16.3754 5.19579C16.4914 5.37988 16.6048 5.56924 16.7129 5.75597C16.7577 5.83224 16.792 5.90325 16.879 5.95322C17.4379 6.26882 17.9758 6.62123 18.4978 6.99469C18.5083 7.00258 18.5215 7.00784 18.5321 7.00784C18.6665 6.99206 18.7931 6.97365 18.9302 6.95524ZM14.572 18.0564C14.3268 18.0827 14.1001 18.1116 13.8707 18.13C13.586 18.151 13.3012 18.1668 13.0165 18.1773C12.8108 18.1852 12.6025 18.1931 12.3969 18.1773C12.2835 18.1694 12.1965 18.1984 12.1069 18.251C12.0831 18.2641 12.0621 18.2773 12.0383 18.2878C11.7773 18.4114 11.5137 18.5298 11.2553 18.6586C10.8598 18.8532 10.4485 19.0005 10.0293 19.1241C9.89484 19.1636 9.76301 19.2004 9.62855 19.2398C11.3845 19.3109 13.027 18.9137 14.572 18.0564ZM19.0699 12.3414C19.0646 12.3388 19.0594 12.3335 19.0541 12.3309C19.0093 12.3914 18.9618 12.4519 18.9196 12.515C18.5822 13.0226 18.2025 13.4986 17.7965 13.9562C17.6198 14.1535 17.4511 14.3507 17.3984 14.6216C17.3984 14.6242 17.3957 14.6242 17.3957 14.6269C17.1505 15.2607 16.8737 15.8814 16.5837 16.4968C16.5731 16.5178 16.5652 16.5389 16.5547 16.5599C16.5599 16.5625 16.5652 16.5652 16.5705 16.5678C17.7886 15.3843 18.6138 13.9746 19.0699 12.3414Z" fill="white"/>
</svg>
