<svg xmlns="http://www.w3.org/2000/svg" xmlns:xlink="http://www.w3.org/1999/xlink" width="695" height="144" fill="none" xmlns:v="https://vecta.io/nano"><style><![CDATA[.B{fill:#fff}.C{color-interpolation-filters:sRGB}.D{flood-opacity:0}]]></style><g clip-path="url(#R)"><path d="M0 0h695v144H0z" class="B"/><path fill="url(#N)" d="M0 0h695v144H0z"/><g filter="url(#A)"><circle cx="596" cy="76" r="168" fill="url(#O)"/></g><g filter="url(#B)"><circle cx="596" cy="76" r="132" fill="url(#P)"/></g><path d="M545.245 163.411c11.243-4.524 16.669-17.338 12.145-28.581s-17.303-16.731-28.546-12.207-16.731 17.303-12.207 28.546c4.55 11.34 17.365 16.766 28.608 12.242z" fill="#363535"/><g fill="#fdfdfd"><path d="M538.506 130.093l1.212-.533c.194-.052.424-.166.619-.218l4.661-1.666c-.806-1.452-3.113-5.003-7.353-6.629-2.931-.048-5.927.442-8.863 1.541l-.982.42c1.897.273 4.155.919 6.303 2.324 2.862 1.734 4.019 3.717 4.403 4.761zm-2.849 33.127c-1.746-.679-5.552-2.63-7.995-7.082-1.359-2.346-2.316-5.529-2.681-6.891l-.277-1.228c-.745-5.116.497-10.4.855-11.59-1.452-2.894-3.195-4.147-4.632-4.648-1.097 2.327-5.151 12.481-.776 21.418 2.224 4.408 4.893 7.757 8.054 9.829l.493.285c1.34.527 2.654.956 4.074 1.201 1.573-.161 2.441-.81 2.885-1.294zm10.723-12.88l2.655-1.18c6.034-2.764 8.779-4.385 9.912-5.21.082-2.419-.216-4.893-.929-7.359-2.431.651-6.357 1.755-11.611 3.736-1.273.498-2.742 1.047-4.378 1.746a668.97 668.97 0 0 0-15.748 6.774c.313 1.167 1.156 4.12 2.365 6.297 1.803-.274 9.233-1.327 17.734-4.804zm-9.086-19.713c-.332-.849-1.313-2.566-3.805-4.087-2.862-1.735-5.704-2.225-7.805-2.287-2.612 1.534-4.775 3.573-6.481 5.958.512-.033 1.112.067 1.774.202 1.631.449 3.886 1.669 5.629 5.058 1.61-.796 6.371-3.062 10.688-4.844zm-19.813 7.549c.632-3.087 1.569-5.423 2.122-6.666-.635-.038-1.086.031-1.378.109-3.469 5.724-4.287 12.979-1.624 19.613 1.327 3.397 3.452 6.267 6.064 8.433-1.247-1.542-2.501-3.499-3.664-5.897-2.792-5.558-2.368-11.56-1.52-15.592zm33.546-12.115c-2.86-2.309-6.208-3.913-9.772-4.574 2.94 2.027 4.5 4.736 5.104 5.825 1.822-.593 3.501-.939 4.668-1.251zm-9.47 14.836l4.441-1.711c5.253-1.981 9.214-3.146 11.707-3.762-.052-.195-.14-.327-.192-.522-1.223-3.008-3.012-5.603-5.184-7.679-1.909.46-6.895 1.692-11.335 3.402-5.095 1.991-12.484 5.534-13.962 6.243-.297 1.226-1.413 6.007-.859 10.601 2.168-1.05 9.113-4.11 15.384-6.572zm6.462 18.28c4.476-1.772 7.002-4.013 8.058-5.129 1.459-2.528 2.461-5.402 2.765-8.35-1.655 1.017-4.461 2.603-9.248 4.771-.885.394-1.77.787-2.716 1.145-7.944 3.223-14.969 4.428-17.54 4.752 2.683 4.18 6.712 5.601 7.4 5.834.866-.076 5.593-.717 11.281-3.023z"/></g><g filter="url(#C)"><ellipse cx="302.5" cy="77.5" rx="137.5" ry="22.5" fill="#3cb9e0"/></g><g filter="url(#D)" class="B"><path d="M240.64 75.192c-2.432 0-4.752-.432-6.96-1.296-2.176-.864-3.856-1.984-5.04-3.36l.864-1.152c1.12 1.28 2.672 2.336 4.656 3.168 2.016.8 4.16 1.2 6.432 1.2 3.36 0 5.888-.656 7.584-1.968 1.728-1.344 2.592-3.056 2.592-5.136 0-1.6-.448-2.88-1.344-3.84-.896-.992-2-1.728-3.312-2.208-1.312-.512-3.104-1.04-5.376-1.584l-5.856-1.776c-1.472-.576-2.72-1.456-3.744-2.64s-1.536-2.768-1.536-4.752c0-1.568.416-3.008 1.248-4.32s2.096-2.352 3.792-3.12c1.728-.8 3.872-1.2 6.432-1.2 1.824 0 3.616.272 5.376.816 1.792.544 3.312 1.296 4.56 2.256l-.72 1.296c-1.312-.96-2.784-1.68-4.416-2.16-1.6-.512-3.184-.768-4.752-.768-3.264 0-5.744.688-7.44 2.064-1.664 1.344-2.496 3.056-2.496 5.136 0 1.632.448 2.944 1.344 3.936.928.96 2.048 1.696 3.36 2.208 1.344.512 3.136 1.04 5.376 1.584l5.856 1.776c1.472.544 2.704 1.408 3.696 2.592 1.024 1.152 1.536 2.704 1.536 4.656a7.69 7.69 0 0 1-1.296 4.32c-.832 1.312-2.128 2.352-3.888 3.12s-3.936 1.152-6.528 1.152zm31.945-25.296c2.272 0 4.336.544 6.192 1.632 1.856 1.056 3.312 2.56 4.368 4.512 1.088 1.92 1.632 4.096 1.632 6.528s-.544 4.608-1.632 6.528c-1.056 1.888-2.512 3.376-4.368 4.464-1.856 1.056-3.92 1.584-6.192 1.584-2.4 0-4.56-.608-6.48-1.824-1.888-1.216-3.296-2.88-4.224-4.992v15.984h-1.584V50.088h1.536v6.816c.928-2.176 2.336-3.888 4.224-5.136 1.92-1.248 4.096-1.872 6.528-1.872zm-.048 23.808c2.016 0 3.824-.464 5.424-1.392a10.31 10.31 0 0 0 3.84-3.936c.928-1.696 1.392-3.632 1.392-5.808s-.464-4.112-1.392-5.808-2.208-3.008-3.84-3.936c-1.6-.96-3.408-1.44-5.424-1.44s-3.84.48-5.472 1.44c-1.6.928-2.864 2.24-3.792 3.936s-1.392 3.632-1.392 5.808.464 4.112 1.392 5.808a10.42 10.42 0 0 0 3.792 3.936c1.632.928 3.456 1.392 5.472 1.392zm29.465 1.44c-2.304 0-4.4-.528-6.288-1.584-1.856-1.088-3.312-2.592-4.368-4.512s-1.584-4.096-1.584-6.528.528-4.608 1.584-6.528 2.512-3.408 4.368-4.464c1.888-1.088 3.984-1.632 6.288-1.632 2.336 0 4.432.544 6.288 1.632 1.856 1.056 3.312 2.544 4.368 4.464s1.584 4.096 1.584 6.528-.528 4.608-1.584 6.528-2.512 3.424-4.368 4.512c-1.856 1.056-3.952 1.584-6.288 1.584zm0-1.44c2.016 0 3.824-.464 5.424-1.392 1.632-.96 2.912-2.288 3.84-3.984s1.392-3.632 1.392-5.808-.464-4.096-1.392-5.76c-.928-1.696-2.208-3.008-3.84-3.936-1.6-.96-3.408-1.44-5.424-1.44s-3.84.48-5.472 1.44c-1.6.928-2.864 2.24-3.792 3.936-.928 1.664-1.392 3.584-1.392 5.76s.464 4.112 1.392 5.808 2.192 3.024 3.792 3.984c1.632.928 3.456 1.392 5.472 1.392zm21.612-17.616c.736-1.984 1.92-3.504 3.552-4.56 1.664-1.088 3.712-1.632 6.144-1.632v1.584h-.432c-2.88 0-5.136.912-6.768 2.736s-2.448 4.336-2.448 7.536V75h-1.584V50.088h1.536v6zm29.537 17.328c-.576.544-1.312.976-2.208 1.296a9.04 9.04 0 0 1-2.784.432c-2.016 0-3.584-.56-4.704-1.68-1.088-1.152-1.632-2.72-1.632-4.704V51.48h-4.704v-1.392h4.704v-5.472h1.584v5.472h8.208v1.392h-8.208v17.04c0 1.696.416 2.992 1.248 3.888s2.048 1.344 3.648 1.344 2.944-.496 4.032-1.488l.816 1.152zm13.036 1.728c-2.016 0-3.92-.304-5.712-.912-1.76-.608-3.136-1.408-4.128-2.4l.768-1.248c1.024.896 2.336 1.648 3.936 2.256 1.632.608 3.36.912 5.184.912 2.688 0 4.672-.448 5.952-1.344 1.28-.928 1.92-2.208 1.92-3.84 0-1.152-.352-2.064-1.056-2.736-.672-.672-1.52-1.168-2.544-1.488s-2.4-.64-4.128-.96l-4.848-1.152c-1.184-.416-2.192-1.072-3.024-1.968s-1.248-2.144-1.248-3.744c0-1.888.768-3.456 2.304-4.704 1.568-1.28 3.84-1.92 6.816-1.92 1.536 0 3.072.24 4.608.72 1.536.448 2.784 1.056 3.744 1.824l-.816 1.248c-.992-.768-2.16-1.344-3.504-1.728-1.312-.416-2.672-.624-4.08-.624-2.464 0-4.32.48-5.568 1.44-1.248.928-1.872 2.16-1.872 3.696 0 1.216.352 2.176 1.056 2.88s1.568 1.232 2.592 1.584c1.056.32 2.48.656 4.272 1.008 1.92.352 3.472.736 4.656 1.152 1.184.384 2.176 1.008 2.976 1.872.832.864 1.248 2.064 1.248 3.6 0 2.016-.816 3.616-2.448 4.8s-3.984 1.776-7.056 1.776zm29.939-26.352c2.4 0 4.576.56 6.528 1.68 1.984 1.088 3.536 2.64 4.656 4.656 1.12 1.984 1.68 4.304 1.68 6.96s-.56 4.992-1.68 7.008c-1.12 1.984-2.672 3.536-4.656 4.656-1.952 1.088-4.128 1.632-6.528 1.632-3.552 0-6.256-1.12-8.112-3.36V75h-7.152V39.384h7.488v12.528c1.888-2.08 4.48-3.12 7.776-3.12zM394.83 69.24c1.92 0 3.488-.64 4.704-1.92 1.248-1.312 1.872-3.056 1.872-5.232s-.624-3.904-1.872-5.184c-1.216-1.312-2.784-1.968-4.704-1.968s-3.504.656-4.752 1.968c-1.216 1.28-1.824 3.008-1.824 5.184s.608 3.92 1.824 5.232c1.248 1.28 2.832 1.92 4.752 1.92zm31.461 6.144c-2.72 0-5.168-.56-7.344-1.68-2.144-1.152-3.824-2.736-5.04-4.752s-1.824-4.304-1.824-6.864.608-4.848 1.824-6.864 2.896-3.584 5.04-4.704c2.176-1.152 4.624-1.728 7.344-1.728s5.152.576 7.296 1.728c2.144 1.12 3.824 2.688 5.04 4.704s1.824 4.304 1.824 6.864-.608 4.848-1.824 6.864-2.896 3.6-5.04 4.752c-2.144 1.12-4.576 1.68-7.296 1.68zm0-6.144c1.92 0 3.488-.64 4.704-1.92 1.248-1.312 1.872-3.056 1.872-5.232s-.624-3.904-1.872-5.184c-1.216-1.312-2.784-1.968-4.704-1.968s-3.504.656-4.752 1.968c-1.248 1.28-1.872 3.008-1.872 5.184s.624 3.92 1.872 5.232c1.248 1.28 2.832 1.92 4.752 1.92zm31.453 6.144c-2.72 0-5.168-.56-7.344-1.68-2.144-1.152-3.824-2.736-5.04-4.752s-1.824-4.304-1.824-6.864.608-4.848 1.824-6.864 2.896-3.584 5.04-4.704c2.176-1.152 4.624-1.728 7.344-1.728s5.152.576 7.296 1.728c2.144 1.12 3.824 2.688 5.04 4.704s1.824 4.304 1.824 6.864-.608 4.848-1.824 6.864-2.896 3.6-5.04 4.752c-2.144 1.12-4.576 1.68-7.296 1.68zm0-6.144c1.92 0 3.488-.64 4.704-1.92 1.248-1.312 1.872-3.056 1.872-5.232s-.624-3.904-1.872-5.184c-1.216-1.312-2.784-1.968-4.704-1.968s-3.504.656-4.752 1.968c-1.248 1.28-1.872 3.008-1.872 5.184s.624 3.92 1.872 5.232c1.248 1.28 2.832 1.92 4.752 1.92zm30.253-4.368l-3.6 3.552V75h-7.488V39.384h7.488v20.16l10.944-10.368h8.928L493.517 60.12 505.229 75h-9.072l-8.16-10.128z"/></g><g fill="#ffa000"><path d="M189.701 74.393a1.61 1.61 0 0 1-1.608-1.608 1.61 1.61 0 0 1 1.608-1.608c8.878-.011 16.072-7.205 16.082-16.082V42.228h-14.474a1.61 1.61 0 0 1-1.608-1.608 1.61 1.61 0 0 1 1.608-1.608h16.083A1.61 1.61 0 0 1 209 40.62v14.474c-.013 10.653-8.646 19.286-19.299 19.299zm-27.402.001c-10.653-.012-19.287-8.645-19.299-19.299V40.621a1.61 1.61 0 0 1 1.608-1.608h16.082a1.61 1.61 0 0 1 1.609 1.608 1.61 1.61 0 0 1-1.609 1.608h-14.474v12.866c.011 8.878 7.205 16.072 16.083 16.082a1.61 1.61 0 0 1 1.608 1.608 1.61 1.61 0 0 1-1.608 1.608zm22.553 24.859l-.683-.661c-2.661-2.581-3.392-33.734-3.448-36.296-.014-.652-.578-1.173-1.269-1.173h-5.078c-.691 0-1.255.52-1.27 1.171-.053 2.561-.784 33.711-3.448 36.296l-.683.661c-3.486 3.383-14.004 5.827-14.004 8.554 0 .661.568 1.197 1.269 1.197h41.349c.701 0 1.269-.536 1.269-1.197.001-2.727-10.518-5.171-14.004-8.551z"/></g><path d="M195.3 35.795h-38.597a1.61 1.61 0 0 0-1.609 1.608v29.722a21.19 21.19 0 0 0 20.907 20.907 21.19 21.19 0 0 0 20.907-20.907V37.403a1.61 1.61 0 0 0-1.608-1.608z" fill="#ffc107"/><g opacity=".3" class="B"><use xlink:href="#S"/><use xlink:href="#T"/><use xlink:href="#U"/><use xlink:href="#V"/><path d="M153.741 6.405c0 .7.518 1.224 1.208 1.224s1.207-.525 1.207-1.224-.517-1.224-1.207-1.224c-.69-.087-1.208.525-1.208 1.224z"/><use xlink:href="#W"/><path d="M132.523 6.405c0 .7.517 1.224 1.207 1.224s1.208-.525 1.208-1.224-.518-1.224-1.208-1.224c-.69-.087-1.207.525-1.207 1.224zm-21.218 0c0 .7.517 1.224 1.207 1.224s1.208-.525 1.208-1.224-.518-1.224-1.208-1.224c-.69-.087-1.207.525-1.207 1.224z"/><use xlink:href="#X"/><use xlink:href="#S"/><use xlink:href="#T"/><use xlink:href="#U"/><use xlink:href="#V"/><path d="M153.741 6.405c0 .7.518 1.224 1.208 1.224s1.207-.525 1.207-1.224-.517-1.224-1.207-1.224c-.69-.087-1.208.525-1.208 1.224z"/><use xlink:href="#W"/><path d="M132.523 6.405c0 .7.517 1.224 1.207 1.224s1.208-.525 1.208-1.224-.518-1.224-1.208-1.224c-.69-.087-1.207.525-1.207 1.224zm-21.218 0c0 .7.517 1.224 1.207 1.224s1.208-.525 1.208-1.224-.518-1.224-1.208-1.224c-.69-.087-1.207.525-1.207 1.224z"/><use xlink:href="#X"/><path d="M90 6.405c0 .7.518 1.224 1.208 1.224s1.208-.525 1.208-1.224-.518-1.224-1.208-1.224C90.604 5.094 90 5.706 90 6.405z"/><use xlink:href="#Y"/><use xlink:href="#Z"/><path d="M143.132 15.5c0 .7.518 1.224 1.208 1.224s1.207-.525 1.207-1.224-.517-1.224-1.207-1.224-1.208.525-1.208 1.224zm-10.609 0c0 .7.517 1.224 1.207 1.224s1.208-.525 1.208-1.224-.518-1.224-1.208-1.224-1.207.525-1.207 1.224zm-10.609 0c0 .7.518 1.224 1.208 1.224s1.207-.525 1.207-1.224-.517-1.224-1.207-1.224-1.208.525-1.208 1.224zm-10.609 0c0 .7.517 1.224 1.207 1.224s1.208-.525 1.208-1.224-.518-1.224-1.208-1.224-1.207.525-1.207 1.224z"/><use xlink:href="#a"/><use xlink:href="#Z"/><path d="M143.132 15.5c0 .7.518 1.224 1.208 1.224s1.207-.525 1.207-1.224-.517-1.224-1.207-1.224-1.208.525-1.208 1.224zm-10.609 0c0 .7.517 1.224 1.207 1.224s1.208-.525 1.208-1.224-.518-1.224-1.208-1.224-1.207.525-1.207 1.224zm-10.609 0c0 .7.518 1.224 1.208 1.224s1.207-.525 1.207-1.224-.517-1.224-1.207-1.224-1.208.525-1.208 1.224zm-10.609 0c0 .7.517 1.224 1.207 1.224s1.208-.525 1.208-1.224-.518-1.224-1.208-1.224-1.207.525-1.207 1.224z"/><use xlink:href="#a"/><path d="M90 15.5c0 .7.518 1.224 1.208 1.224s1.208-.525 1.208-1.224-.518-1.224-1.208-1.224c-.604 0-1.208.525-1.208 1.224zm74.351 9.182c0 .7.517 1.224 1.207 1.224s1.208-.525 1.208-1.224-.518-1.224-1.208-1.224c-.69-.087-1.207.525-1.207 1.224zm-10.61 0c0 .7.518 1.224 1.208 1.224s1.207-.525 1.207-1.224-.517-1.224-1.207-1.224c-.69-.087-1.208.525-1.208 1.224zm-10.609 0c0 .7.518 1.224 1.208 1.224s1.207-.525 1.207-1.224-.517-1.224-1.207-1.224c-.69-.087-1.208.525-1.208 1.224zm-10.609 0c0 .7.517 1.224 1.207 1.224s1.208-.525 1.208-1.224-.518-1.224-1.208-1.224c-.69-.087-1.207.525-1.207 1.224zm-10.609 0c0 .7.518 1.224 1.208 1.224s1.207-.525 1.207-1.224-.517-1.224-1.207-1.224c-.69-.087-1.208.525-1.208 1.224zm-10.609 0c0 .7.517 1.224 1.207 1.224s1.208-.525 1.208-1.224-.518-1.224-1.208-1.224c-.69-.087-1.207.525-1.207 1.224zm-10.696 0c0 .7.518 1.224 1.208 1.224s1.207-.525 1.207-1.224-.517-1.224-1.207-1.224c-.604-.087-1.208.525-1.208 1.224z"/><path d="M164.351 24.682c0 .7.517 1.224 1.207 1.224s1.208-.525 1.208-1.224-.518-1.224-1.208-1.224c-.69-.087-1.207.525-1.207 1.224zm-10.61 0c0 .7.518 1.224 1.208 1.224s1.207-.525 1.207-1.224-.517-1.224-1.207-1.224c-.69-.087-1.208.525-1.208 1.224zm-10.609 0c0 .7.518 1.224 1.208 1.224s1.207-.525 1.207-1.224-.517-1.224-1.207-1.224c-.69-.087-1.208.525-1.208 1.224zm-10.609 0c0 .7.517 1.224 1.207 1.224s1.208-.525 1.208-1.224-.518-1.224-1.208-1.224c-.69-.087-1.207.525-1.207 1.224zm-10.609 0c0 .7.518 1.224 1.208 1.224s1.207-.525 1.207-1.224-.517-1.224-1.207-1.224c-.69-.087-1.208.525-1.208 1.224zm-10.609 0c0 .7.517 1.224 1.207 1.224s1.208-.525 1.208-1.224-.518-1.224-1.208-1.224c-.69-.087-1.207.525-1.207 1.224zm-10.696 0c0 .7.518 1.224 1.208 1.224s1.207-.525 1.207-1.224-.517-1.224-1.207-1.224c-.604-.087-1.208.525-1.208 1.224zm-10.609 0c0 .7.517 1.224 1.207 1.224s1.208-.525 1.208-1.224-.518-1.224-1.208-1.224c-.604-.087-1.207.525-1.207 1.224z"/><use xlink:href="#b"/><path d="M121.914 33.776c0 .699.517 1.224 1.207 1.224s1.208-.525 1.208-1.224-.518-1.224-1.208-1.224-1.207.525-1.207 1.224zm-10.609 0c0 .699.517 1.224 1.207 1.224s1.208-.525 1.208-1.224-.518-1.224-1.208-1.224-1.207.525-1.207 1.224z"/><use xlink:href="#c"/><use xlink:href="#b"/><path d="M121.914 33.776c0 .699.517 1.224 1.207 1.224s1.208-.525 1.208-1.224-.518-1.224-1.208-1.224-1.207.525-1.207 1.224zm-10.609 0c0 .699.517 1.224 1.207 1.224s1.208-.525 1.208-1.224-.518-1.224-1.208-1.224-1.207.525-1.207 1.224z"/><use xlink:href="#c"/><path d="M90 33.776c0 .699.517 1.224 1.207 1.224s1.208-.525 1.208-1.224-.518-1.224-1.208-1.224c-.604 0-1.207.525-1.207 1.224z"/></g><g opacity=".3" class="B"><use xlink:href="#d"/><use xlink:href="#e"/><path d="M157.132 137.5c0-.699.518-1.224 1.208-1.224s1.207.525 1.207 1.224-.517 1.225-1.207 1.225-1.208-.525-1.208-1.225zm-10.609 0c0-.699.517-1.224 1.207-1.224s1.208.525 1.208 1.224-.518 1.225-1.208 1.225-1.207-.525-1.207-1.225zm-10.609 0c0-.699.518-1.224 1.208-1.224s1.207.525 1.207 1.224-.517 1.225-1.207 1.225-1.208-.525-1.208-1.225zm-10.609 0c0-.699.517-1.224 1.207-1.224s1.208.525 1.208 1.224-.518 1.225-1.208 1.225-1.207-.525-1.207-1.225z"/><use xlink:href="#f"/><use xlink:href="#e"/><path d="M157.132 137.5c0-.699.518-1.224 1.208-1.224s1.207.525 1.207 1.224-.517 1.225-1.207 1.225-1.208-.525-1.208-1.225zm-10.609 0c0-.699.517-1.224 1.207-1.224s1.208.525 1.208 1.224-.518 1.225-1.208 1.225-1.207-.525-1.207-1.225zm-10.609 0c0-.699.518-1.224 1.208-1.224s1.207.525 1.207 1.224-.517 1.225-1.207 1.225-1.208-.525-1.208-1.225zm-10.609 0c0-.699.517-1.224 1.207-1.224s1.208.525 1.208 1.224-.518 1.225-1.208 1.225-1.207-.525-1.207-1.225z"/><use xlink:href="#f"/><path d="M104 137.5c0-.699.517-1.224 1.207-1.224s1.208.525 1.208 1.224-.517 1.225-1.208 1.225c-.603 0-1.207-.525-1.207-1.225z"/><use xlink:href="#g"/><use xlink:href="#h"/><path d="M157.132 128.318c0-.699.518-1.224 1.208-1.224s1.207.525 1.207 1.224-.517 1.224-1.207 1.224c-.69.088-1.208-.524-1.208-1.224zm-10.609 0c0-.699.517-1.224 1.207-1.224s1.208.525 1.208 1.224-.518 1.224-1.208 1.224c-.69.088-1.207-.524-1.207-1.224zm-10.609 0c0-.699.518-1.224 1.208-1.224s1.207.525 1.207 1.224-.517 1.224-1.207 1.224c-.69.088-1.208-.524-1.208-1.224zm-10.609 0c0-.699.517-1.224 1.207-1.224s1.208.525 1.208 1.224-.518 1.224-1.208 1.224c-.69.088-1.207-.524-1.207-1.224z"/><use xlink:href="#i"/><use xlink:href="#g"/><use xlink:href="#h"/><path d="M157.132 128.318c0-.699.518-1.224 1.208-1.224s1.207.525 1.207 1.224-.517 1.224-1.207 1.224c-.69.088-1.208-.524-1.208-1.224zm-10.609 0c0-.699.517-1.224 1.207-1.224s1.208.525 1.208 1.224-.518 1.224-1.208 1.224c-.69.088-1.207-.524-1.207-1.224zm-10.609 0c0-.699.518-1.224 1.208-1.224s1.207.525 1.207 1.224-.517 1.224-1.207 1.224c-.69.088-1.208-.524-1.208-1.224zm-10.609 0c0-.699.517-1.224 1.207-1.224s1.208.525 1.208 1.224-.518 1.224-1.208 1.224c-.69.088-1.207-.524-1.207-1.224z"/><use xlink:href="#i"/><path d="M104 128.318c0-.699.517-1.224 1.207-1.224s1.208.525 1.208 1.224-.517 1.224-1.208 1.224c-.603.088-1.207-.524-1.207-1.224z"/><use xlink:href="#j"/><path d="M135.914 119.224c0-.7.517-1.224 1.207-1.224s1.208.524 1.208 1.224-.518 1.224-1.208 1.224-1.207-.524-1.207-1.224zm-10.609 0c0-.7.517-1.224 1.207-1.224s1.208.524 1.208 1.224-.518 1.224-1.208 1.224-1.207-.524-1.207-1.224z"/><use xlink:href="#k"/><use xlink:href="#j"/><path d="M135.914 119.224c0-.7.517-1.224 1.207-1.224s1.208.524 1.208 1.224-.518 1.224-1.208 1.224-1.207-.524-1.207-1.224zm-10.609 0c0-.7.517-1.224 1.207-1.224s1.208.524 1.208 1.224-.518 1.224-1.208 1.224-1.207-.524-1.207-1.224z"/><use xlink:href="#k"/><path d="M104 119.224c0-.7.517-1.224 1.207-1.224s1.208.524 1.208 1.224-.517 1.224-1.208 1.224c-.603 0-1.207-.524-1.207-1.224z"/></g><path d="M139.765 145.235c8.419-15.343 2.814-34.58-12.53-43s-34.58-2.814-43 12.53-2.814 34.58 12.529 43c15.394 8.328 34.63 2.723 43-12.53z" fill="#f2f2f2"/><path d="M97.891 156.363l.733-6.965 13.057-1.273 10.904 5.033-2.203 6.396-7.305 2.052c1.447-.038 2.994-.258 4.541-.479l2.787-.966.224.242c7.023-1.969 13.203-6.302 17.501-12.619l-3.403-2.461 1.256-13.333 4.61-8.402 2.846 2.393c-.073-.516-.147-1.031-.271-1.456l-2.63-1.919-5.917-11.089-1.617-5.284-1.128-.976 1.973 5.717-9.562.101-11.773-6.698-1.784-4.544 3.362-1.363c-.789-.077-1.629-.062-2.327-.089l-1 .521-.356-.433c-.374.032-.84.014-1.214.047l.639.351-11.572 2.682c-2.281 1.125-4.53 2.624-6.504 4.274l-2.886 3.526-4.855 6.248a19.48 19.48 0 0 0-1.43 3.256l7.189-8.77 7.784 2.489-.101 13.61-7.982 9.999-7.581-4.16-.333-9.571c-1.059 4.529-1.187 9.093-.284 13.511l.623-2.867 7.581 4.159 8.177 11.736-.733 6.965-3.981-.758a35.53 35.53 0 0 0 3.96 2.529c2.923 1.604 6.096 2.751 9.246 3.291l-8.261-4.652zm.56-43.898l13.43-7.366 11.772 6.698 1.191 12.774-12.402 8.524-14.192-6.837.201-13.793zm14.654 21.588l12.401-8.525 9.628 6.709-1.114 13.292-10.66 6.866-10.904-5.033.649-13.309z" fill="#303030"/><g opacity=".2" class="B"><use xlink:href="#l"/><use xlink:href="#m"/><use xlink:href="#n"/><use xlink:href="#o"/><path d="M635.259 6.5c0 .7-.518 1.224-1.208 1.224s-1.207-.525-1.207-1.224.517-1.224 1.207-1.224 1.208.525 1.208 1.224z"/><use xlink:href="#p"/><path d="M656.477 6.5c0 .7-.517 1.224-1.207 1.224s-1.208-.525-1.208-1.224.518-1.224 1.208-1.224 1.207.525 1.207 1.224zm10.609 0c0 .7-.517 1.224-1.207 1.224s-1.208-.525-1.208-1.224.518-1.224 1.208-1.224 1.207.525 1.207 1.224zm10.609 0c0 .7-.517 1.224-1.207 1.224s-1.208-.525-1.208-1.224.518-1.224 1.208-1.224 1.207.525 1.207 1.224z"/><use xlink:href="#q"/><use xlink:href="#l"/><use xlink:href="#m"/><use xlink:href="#n"/><use xlink:href="#o"/><path d="M635.259 6.5c0 .7-.518 1.224-1.208 1.224s-1.207-.525-1.207-1.224.517-1.224 1.207-1.224 1.208.525 1.208 1.224z"/><use xlink:href="#p"/><path d="M656.477 6.5c0 .7-.517 1.224-1.207 1.224s-1.208-.525-1.208-1.224.518-1.224 1.208-1.224 1.207.525 1.207 1.224zm10.609 0c0 .7-.517 1.224-1.207 1.224s-1.208-.525-1.208-1.224.518-1.224 1.208-1.224 1.207.525 1.207 1.224zm10.609 0c0 .7-.517 1.224-1.207 1.224s-1.208-.525-1.208-1.224.518-1.224 1.208-1.224 1.207.525 1.207 1.224z"/><use xlink:href="#q"/><use xlink:href="#r"/><use xlink:href="#s"/><path d="M645.868 15.682c0 .699-.518 1.224-1.208 1.224s-1.207-.525-1.207-1.224.517-1.224 1.207-1.224c.69-.087 1.208.525 1.208 1.224zm10.609 0c0 .699-.517 1.224-1.207 1.224s-1.208-.525-1.208-1.224.518-1.224 1.208-1.224c.69-.087 1.207.525 1.207 1.224zm10.609 0c0 .699-.518 1.224-1.208 1.224s-1.207-.525-1.207-1.224.517-1.224 1.207-1.224c.69-.087 1.208.525 1.208 1.224zm10.609 0c0 .699-.517 1.224-1.207 1.224s-1.208-.525-1.208-1.224.518-1.224 1.208-1.224c.69-.087 1.207.525 1.207 1.224z"/><use xlink:href="#t"/><use xlink:href="#r"/><use xlink:href="#s"/><path d="M645.868 15.682c0 .699-.518 1.224-1.208 1.224s-1.207-.525-1.207-1.224.517-1.224 1.207-1.224c.69-.087 1.208.525 1.208 1.224zm10.609 0c0 .699-.517 1.224-1.207 1.224s-1.208-.525-1.208-1.224.518-1.224 1.208-1.224c.69-.087 1.207.525 1.207 1.224zm10.609 0c0 .699-.518 1.224-1.208 1.224s-1.207-.525-1.207-1.224.517-1.224 1.207-1.224c.69-.087 1.208.525 1.208 1.224zm10.609 0c0 .699-.517 1.224-1.207 1.224s-1.208-.525-1.208-1.224.518-1.224 1.208-1.224c.69-.087 1.207.525 1.207 1.224z"/><use xlink:href="#t"/><path d="M603.431 24.776c0 .7-.517 1.224-1.207 1.224s-1.208-.525-1.208-1.224.518-1.224 1.208-1.224c.603 0 1.207.525 1.207 1.224zm10.61 0c0 .7-.518 1.224-1.208 1.224s-1.208-.525-1.208-1.224.518-1.224 1.208-1.224c.604 0 1.208.525 1.208 1.224zm10.608 0c0 .7-.517 1.224-1.207 1.224s-1.208-.525-1.208-1.224.518-1.224 1.208-1.224 1.207.525 1.207 1.224zm10.61 0c0 .7-.518 1.224-1.208 1.224s-1.207-.525-1.207-1.224.517-1.224 1.207-1.224 1.208.525 1.208 1.224zm10.609 0c0 .7-.518 1.224-1.208 1.224s-1.207-.525-1.207-1.224.517-1.224 1.207-1.224 1.208.525 1.208 1.224zm10.609 0c0 .7-.517 1.224-1.207 1.224s-1.208-.525-1.208-1.224.518-1.224 1.208-1.224 1.207.525 1.207 1.224zm10.609 0c0 .7-.518 1.224-1.208 1.224s-1.207-.525-1.207-1.224.517-1.224 1.207-1.224 1.208.525 1.208 1.224zm10.609 0c0 .7-.517 1.224-1.207 1.224s-1.208-.525-1.208-1.224.518-1.224 1.208-1.224 1.207.525 1.207 1.224z"/><path d="M688.391 24.776c0 .7-.518 1.224-1.208 1.224s-1.207-.525-1.207-1.224.517-1.224 1.207-1.224c.604 0 1.208.525 1.208 1.224zm-84.96 0c0 .7-.517 1.224-1.207 1.224s-1.208-.525-1.208-1.224.518-1.224 1.208-1.224c.603 0 1.207.525 1.207 1.224zm10.61 0c0 .7-.518 1.224-1.208 1.224s-1.208-.525-1.208-1.224.518-1.224 1.208-1.224c.604 0 1.208.525 1.208 1.224zm10.608 0c0 .7-.517 1.224-1.207 1.224s-1.208-.525-1.208-1.224.518-1.224 1.208-1.224 1.207.525 1.207 1.224zm10.61 0c0 .7-.518 1.224-1.208 1.224s-1.207-.525-1.207-1.224.517-1.224 1.207-1.224 1.208.525 1.208 1.224zm10.609 0c0 .7-.518 1.224-1.208 1.224s-1.207-.525-1.207-1.224.517-1.224 1.207-1.224 1.208.525 1.208 1.224zm10.609 0c0 .7-.517 1.224-1.207 1.224s-1.208-.525-1.208-1.224.518-1.224 1.208-1.224 1.207.525 1.207 1.224zm10.609 0c0 .7-.518 1.224-1.208 1.224s-1.207-.525-1.207-1.224.517-1.224 1.207-1.224 1.208.525 1.208 1.224z"/><path d="M677.695 24.776c0 .7-.517 1.224-1.207 1.224s-1.208-.525-1.208-1.224.518-1.224 1.208-1.224 1.207.525 1.207 1.224zm10.696 0c0 .7-.518 1.224-1.208 1.224s-1.207-.525-1.207-1.224.517-1.224 1.207-1.224c.604 0 1.208.525 1.208 1.224z"/></g><g opacity=".3" class="B"><path d="M592.208 143.552c.666 0 1.207.548 1.207 1.224s-.541 1.224-1.207 1.224-1.208-.548-1.208-1.224.541-1.224 1.208-1.224zm20.614 1.224c0-.7-.517-1.224-1.207-1.224s-1.208.524-1.208 1.224.518 1.224 1.122 1.224c.69 0 1.293-.525 1.293-1.224zm10.609 0c0-.7-.517-1.224-1.207-1.224s-1.208.524-1.208 1.224.518 1.224 1.121 1.224c.69 0 1.294-.525 1.294-1.224zm10.61 0c0-.7-.518-1.224-1.208-1.224s-1.208.524-1.208 1.224.518 1.224 1.208 1.224c.604 0 1.208-.525 1.208-1.224z"/><use xlink:href="#u"/><use xlink:href="#v"/><path d="M665.868 144.776c0-.7-.518-1.224-1.208-1.224s-1.207.524-1.207 1.224.517 1.224 1.207 1.224 1.208-.525 1.208-1.224zm10.609 0c0-.7-.517-1.224-1.207-1.224s-1.208.524-1.208 1.224.518 1.224 1.208 1.224 1.207-.525 1.207-1.224zm10.609 0c0-.7-.517-1.224-1.207-1.224s-1.208.524-1.208 1.224.518 1.224 1.208 1.224 1.207-.525 1.207-1.224z"/><use xlink:href="#w"/><use xlink:href="#x"/><use xlink:href="#y"/><use xlink:href="#z"/><path d="M655.259 135.595c0-.7-.518-1.225-1.208-1.225s-1.207.525-1.207 1.225.517 1.224 1.207 1.224c.69.087 1.208-.525 1.208-1.224z"/><use xlink:href="#AA"/><path d="M676.477 135.595c0-.7-.517-1.225-1.207-1.225s-1.208.525-1.208 1.225.518 1.224 1.208 1.224c.69.087 1.207-.525 1.207-1.224z"/><use xlink:href="#w"/><use xlink:href="#x"/><use xlink:href="#y"/><use xlink:href="#z"/><path d="M655.259 135.595c0-.7-.518-1.225-1.208-1.225s-1.207.525-1.207 1.225.517 1.224 1.207 1.224c.69.087 1.208-.525 1.208-1.224z"/><use xlink:href="#AA"/><path d="M676.477 135.595c0-.7-.517-1.225-1.207-1.225s-1.208.525-1.208 1.225.518 1.224 1.208 1.224c.69.087 1.207-.525 1.207-1.224z"/><use xlink:href="#AB"/><use xlink:href="#AC"/><path d="M665.868 126.5c0-.699-.518-1.224-1.208-1.224s-1.207.525-1.207 1.224.517 1.225 1.207 1.225 1.208-.525 1.208-1.225zm10.609 0c0-.699-.517-1.224-1.207-1.224s-1.208.525-1.208 1.224.518 1.225 1.208 1.225 1.207-.525 1.207-1.225zm10.609 0c0-.699-.518-1.224-1.208-1.224s-1.207.525-1.207 1.224.517 1.225 1.207 1.225 1.208-.525 1.208-1.225z"/><use xlink:href="#AC"/><path d="M665.868 126.5c0-.699-.518-1.224-1.208-1.224s-1.207.525-1.207 1.224.517 1.225 1.207 1.225 1.208-.525 1.208-1.225zm10.609 0c0-.699-.517-1.224-1.207-1.224s-1.208.525-1.208 1.224.518 1.225 1.208 1.225 1.207-.525 1.207-1.225zm10.609 0c0-.699-.518-1.224-1.208-1.224s-1.207.525-1.207 1.224.517 1.225 1.207 1.225 1.208-.525 1.208-1.225z"/><use xlink:href="#AD"/><use xlink:href="#AE"/><path d="M665.868 117.318c0-.699-.518-1.224-1.208-1.224s-1.207.525-1.207 1.224.517 1.224 1.207 1.224c.69.088 1.208-.524 1.208-1.224zm10.609 0c0-.699-.517-1.224-1.207-1.224s-1.208.525-1.208 1.224.518 1.224 1.208 1.224c.69.088 1.207-.524 1.207-1.224zm10.609 0c0-.699-.518-1.224-1.208-1.224s-1.207.525-1.207 1.224.517 1.224 1.207 1.224c.69.088 1.208-.524 1.208-1.224z"/><use xlink:href="#AD"/><use xlink:href="#AE"/><path d="M665.868 117.318c0-.699-.518-1.224-1.208-1.224s-1.207.525-1.207 1.224.517 1.224 1.207 1.224c.69.088 1.208-.524 1.208-1.224zm10.609 0c0-.699-.517-1.224-1.207-1.224s-1.208.525-1.208 1.224.518 1.224 1.208 1.224c.69.088 1.207-.524 1.207-1.224zm10.609 0c0-.699-.518-1.224-1.208-1.224s-1.207.525-1.207 1.224.517 1.224 1.207 1.224c.69.088 1.208-.524 1.208-1.224z"/><use xlink:href="#AF"/><path d="M687.086 108.224c0-.7-.517-1.224-1.207-1.224s-1.208.524-1.208 1.224.518 1.224 1.208 1.224 1.207-.524 1.207-1.224z"/><use xlink:href="#AF"/><path d="M687.086 108.224c0-.7-.517-1.224-1.207-1.224s-1.208.524-1.208 1.224.518 1.224 1.208 1.224 1.207-.524 1.207-1.224z"/></g><path d="M666.271-19.916c-13.65 10.786-15.972 30.595-5.187 44.245s30.595 15.972 44.246 5.187 15.972-30.595 5.186-44.245-30.595-15.972-44.245-5.187z" fill="#fc7033"/><path d="M661.76 22.891c.1.941.282 1.833.417 2.643.742.902 1.568 1.756 2.429 2.479-.519-1.475-1.015-3.295-1.179-5.308-.263-2.953-1.567-6.747-3.107-10.183.784-.563 1.734-1.223 2.815-1.847 2.469 6.005 5.827 11.052 9.846 14.942 3.386 3.368 7.364 5.84 11.684 7.56 3.174 1.272 6.179 1.867 8.479 2.202 1.571-.352 3.046-.871 4.473-1.473-1.501.09-6.492.088-12.399-2.268-6.432-2.497-15.13-8.343-20.717-21.862 1.414-.816 3.077-1.777 4.872-2.702a25.51 25.51 0 0 0 4.087 5.735c3.159 3.167 9.207 4.998 13.606 5.896 5.401 1.096 11.8 1.615 17.339 1.412 5.109-.178 8.343-1.491 10.243-2.809.531-1.194.931-2.422 1.33-3.651 0 0-1.838 4.499-11.58 4.912-10.946.442-24.989-1.985-29.668-6.824-1.603-1.625-2.874-3.442-3.847-5.319 7.892-4.002 18.247-8.539 28.119-11.799 9.956-3.308 14.211-2.66 15.859-1.726-.301-.713-.602-1.427-.986-2.092-2.659-.572-7.34-.42-15.44 2.261C688.23-3.481 677.993.877 670.15 4.962c-1.265-3.151-1.506-6.45-.614-9.515 1.383-4.902 7.133-13.766 15.003-17.423 4.433-2.116 11.117-1.872 14.227-1.672-1.635-.719-3.306-1.307-5.059-1.848-3.263.11-6.978.591-9.95 1.974-.63.253-1.212.589-1.794.925-7.402 4.274-12.666 12.635-14.133 17.585-.997 3.459-.73 7.186.691 10.801-1.545.781-2.959 1.597-4.289 2.366l-.499.288c-3.122-8.289-3.262-15.638-.538-21.868 1.662-3.843 4.281-6.797 6.655-8.833l-.083.048c-2.496 1.441-4.632 3.118-6.625 5.044-.591.896-1.087 1.958-1.583 3.021-2.579 6.48-2.318 14.424 1.009 23.26a33.99 33.99 0 0 0-2.898 1.895c-1.335-2.889-2.823-5.467-3.819-6.999-.432-.749-.899-1.366-1.367-1.983-.115.953-.146 1.859-.178 2.764l.096.166c.996 1.532 2.401 4.159 3.784 7.13a18.35 18.35 0 0 0-2.444 2.298c.253.63.375 1.225.628 1.855.473-.717 1.196-1.578 2.466-2.643 1.527 3.221 2.722 6.635 2.924 9.29z" fill="#231f20"/><rect x="524" y="43" width="150" height="64" rx="6" fill="#e53a49"/><g filter="url(#E)" class="B"><path d="M557.694 75.356c.84.266 1.498.714 1.974 1.344.476.616.714 1.379.714 2.289 0 1.288-.504 2.282-1.512 2.982-.994.686-2.45 1.029-4.368 1.029H546.9V68.3h7.182c1.792 0 3.164.343 4.116 1.029.966.686 1.449 1.617 1.449 2.793 0 .714-.175 1.351-.525 1.911-.336.56-.812 1.001-1.428 1.323zm-7.413-4.494v3.465h3.381c.84 0 1.477-.147 1.911-.441s.651-.728.651-1.302-.217-1.001-.651-1.281c-.434-.294-1.071-.441-1.911-.441h-3.381zm3.969 9.576c.896 0 1.568-.147 2.016-.441.462-.294.693-.749.693-1.365 0-1.218-.903-1.827-2.709-1.827h-3.969v3.633h3.969zm20.089-.168V83h-11.382V68.3h11.109v2.73h-7.728v3.192h6.825v2.646h-6.825v3.402h8.001zm5.752-9.198h-4.704V68.3h12.81v2.772h-4.704V83h-3.402V71.072zm29.366-2.772V83h-2.793l-7.329-8.925V83h-3.36V68.3h2.814l7.308 8.925V68.3h3.36zm10.597 14.952c-1.526 0-2.905-.329-4.137-.987-1.218-.658-2.177-1.561-2.877-2.709-.686-1.162-1.029-2.464-1.029-3.906s.343-2.737 1.029-3.885c.7-1.162 1.659-2.072 2.877-2.73 1.232-.658 2.611-.987 4.137-.987s2.898.329 4.116.987 2.177 1.568 2.877 2.73c.7 1.148 1.05 2.443 1.05 3.885s-.35 2.744-1.05 3.906c-.7 1.148-1.659 2.051-2.877 2.709s-2.59.987-4.116.987zm0-2.898c.868 0 1.652-.196 2.352-.588.7-.406 1.246-.966 1.638-1.68.406-.714.609-1.526.609-2.436s-.203-1.722-.609-2.436a4.15 4.15 0 0 0-1.638-1.659c-.7-.406-1.484-.609-2.352-.609s-1.652.203-2.352.609c-.7.392-1.253.945-1.659 1.659-.392.714-.588 1.526-.588 2.436s.196 1.722.588 2.436c.406.714.959 1.274 1.659 1.68.7.392 1.484.588 2.352.588zM652.379 68.3L647.57 83h-3.654l-3.234-9.954L637.343 83h-3.633l-4.83-14.7h3.528l3.318 10.332 3.465-10.332h3.15l3.36 10.416 3.423-10.416h3.255z"/></g><g filter="url(#F)"><path fill="url(#Q)" d="M0 0h115v144H0z"/></g><g filter="url(#G)" class="B"><path d="M39.578 42.953c1.64.629 2.897 1.531 3.772 2.706s1.312 2.583 1.312 4.223c0 1.722-.465 3.225-1.394 4.51-.929 1.257-2.255 2.228-3.977 2.911s-3.745 1.025-6.068 1.025c-2.296 0-4.305-.342-6.027-1.025-1.695-.683-3.007-1.654-3.936-2.911-.929-1.285-1.394-2.788-1.394-4.51 0-1.64.424-3.048 1.271-4.223.875-1.175 2.132-2.077 3.772-2.706-1.312-.629-2.31-1.462-2.993-2.501s-1.025-2.269-1.025-3.69c0-1.585.424-2.966 1.271-4.141.875-1.175 2.091-2.077 3.649-2.706s3.362-.943 5.412-.943c2.077 0 3.895.314 5.453.943 1.585.629 2.802 1.531 3.649 2.706.875 1.175 1.312 2.556 1.312 4.141 0 1.394-.355 2.624-1.066 3.69-.683 1.039-1.681 1.872-2.993 2.501zm-6.355-10.66c-1.941 0-3.471.424-4.592 1.271-1.121.82-1.681 1.941-1.681 3.362s.547 2.542 1.64 3.362c1.121.82 2.665 1.23 4.633 1.23 1.995 0 3.553-.41 4.674-1.23 1.148-.82 1.722-1.941 1.722-3.362s-.588-2.542-1.763-3.362c-1.148-.847-2.692-1.271-4.633-1.271zm0 22.714c2.269 0 4.059-.465 5.371-1.394 1.312-.957 1.968-2.241 1.968-3.854 0-1.585-.656-2.829-1.968-3.731-1.312-.929-3.102-1.394-5.371-1.394s-4.045.465-5.33 1.394c-1.285.902-1.927 2.146-1.927 3.731 0 1.613.642 2.897 1.927 3.854 1.285.929 3.061 1.394 5.33 1.394zm26.919 3.321c-2.269 0-4.291-.574-6.068-1.722-1.749-1.175-3.13-2.87-4.141-5.084s-1.517-4.838-1.517-7.872.506-5.658 1.517-7.872 2.392-3.895 4.141-5.043c1.777-1.175 3.799-1.763 6.068-1.763 2.241 0 4.237.588 5.986 1.763 1.777 1.148 3.171 2.829 4.182 5.043s1.517 4.838 1.517 7.872-.506 5.658-1.517 7.872-2.405 3.909-4.182 5.084c-1.749 1.148-3.745 1.722-5.986 1.722zm0-3.649c2.296 0 4.127-.943 5.494-2.829 1.394-1.886 2.091-4.619 2.091-8.2s-.697-6.314-2.091-8.2c-1.367-1.886-3.198-2.829-5.494-2.829-2.323 0-4.182.943-5.576 2.829-1.367 1.886-2.05 4.619-2.05 8.2s.683 6.314 2.05 8.2c1.394 1.886 3.253 2.829 5.576 2.829zM95.19 45.29h-7.462v7.339h-3.444V45.29h-7.462v-3.239h7.462v-7.38h3.444v7.38h7.462v3.239z"/></g><g filter="url(#H)" class="B"><path d="M25.702 118.204c-.941 0-1.853-.125-2.737-.374-.873-.261-1.575-.595-2.108-1.003l.935-2.074c.51.374 1.116.674 1.819.901s1.405.34 2.108.34c.782 0 1.36-.113 1.734-.34.374-.238.561-.55.561-.935 0-.283-.113-.516-.34-.697-.215-.193-.499-.346-.85-.459a16.11 16.11 0 0 0-1.394-.374l-2.227-.646a3.68 3.68 0 0 1-1.496-1.037c-.408-.476-.612-1.111-.612-1.904 0-.691.187-1.315.561-1.87.374-.567.935-1.014 1.683-1.343.759-.329 1.683-.493 2.771-.493.759 0 1.502.091 2.227.272s1.36.442 1.904.782l-.85 2.091c-1.099-.623-2.199-.935-3.298-.935-.771 0-1.343.125-1.717.374-.363.249-.544.578-.544.986s.21.714.629.918c.431.193 1.082.385 1.955.578l2.227.646c.578.215 1.071.555 1.479 1.02.419.465.629 1.094.629 1.887 0 .68-.193 1.303-.578 1.87-.374.555-.941.997-1.7 1.326s-1.683.493-2.771.493zM37.784 106.1c1.054 0 1.966.176 2.737.527.782.351 1.383.85 1.802 1.496s.629 1.411.629 2.295c0 .873-.21 1.638-.629 2.295-.419.646-1.02 1.145-1.802 1.496-.771.34-1.683.51-2.737.51h-2.397V118h-2.754v-11.9h5.151zm-.153 6.375c.827 0 1.456-.176 1.887-.527.431-.363.646-.873.646-1.53 0-.669-.215-1.179-.646-1.53-.431-.363-1.06-.544-1.887-.544h-2.244v4.131h2.244zm13.216 5.729c-1.235 0-2.352-.266-3.349-.799-.986-.533-1.762-1.264-2.329-2.193-.555-.941-.833-1.995-.833-3.162s.278-2.216.833-3.145c.567-.941 1.343-1.677 2.329-2.21.997-.533 2.114-.799 3.349-.799s2.346.266 3.332.799 1.762 1.269 2.329 2.21c.567.929.85 1.978.85 3.145s-.283 2.221-.85 3.162a6.03 6.03 0 0 1-2.329 2.193c-.986.533-2.097.799-3.332.799zm0-2.346c.703 0 1.337-.159 1.904-.476a3.48 3.48 0 0 0 1.326-1.36c.329-.578.493-1.235.493-1.972s-.164-1.394-.493-1.972c-.317-.578-.759-1.026-1.326-1.343-.567-.329-1.201-.493-1.904-.493s-1.337.164-1.904.493c-.567.317-1.014.765-1.343 1.343-.317.578-.476 1.235-.476 1.972s.159 1.394.476 1.972a3.6 3.6 0 0 0 1.343 1.36c.567.317 1.201.476 1.904.476zM67.01 118l-2.295-3.315h-2.533V118h-2.754v-11.9h5.151c1.054 0 1.966.176 2.737.527.782.351 1.383.85 1.802 1.496s.629 1.411.629 2.295-.215 1.649-.646 2.295c-.419.635-1.02 1.122-1.802 1.462L69.968 118H67.01zm-.051-7.582c0-.669-.215-1.179-.646-1.53-.431-.363-1.06-.544-1.887-.544h-2.244v4.148h2.244c.827 0 1.456-.181 1.887-.544s.646-.873.646-1.53zm7.269-2.074H70.42V106.1h10.37v2.244h-3.808V118h-2.754v-9.656zm11.871 9.86c-.941 0-1.853-.125-2.737-.374-.873-.261-1.575-.595-2.108-1.003l.935-2.074c.51.374 1.116.674 1.819.901s1.405.34 2.108.34c.782 0 1.36-.113 1.734-.34.374-.238.561-.55.561-.935 0-.283-.113-.516-.34-.697-.215-.193-.499-.346-.85-.459a16.11 16.11 0 0 0-1.394-.374l-2.227-.646a3.68 3.68 0 0 1-1.496-1.037c-.408-.476-.612-1.111-.612-1.904 0-.691.187-1.315.561-1.87.374-.567.935-1.014 1.683-1.343.759-.329 1.683-.493 2.771-.493.759 0 1.502.091 2.227.272s1.36.442 1.904.782l-.85 2.091c-1.099-.623-2.199-.935-3.298-.935-.771 0-1.343.125-1.717.374-.363.249-.544.578-.544.986s.21.714.629.918c.431.193 1.082.385 1.955.578l2.227.646c.578.215 1.071.555 1.479 1.02.419.465.629 1.094.629 1.887 0 .68-.193 1.303-.578 1.87-.374.555-.941.997-1.7 1.326s-1.683.493-2.771.493z"/></g><g filter="url(#I)" class="B"><path d="M39.454 79.4V99H35.73l-9.772-11.9V99h-4.48V79.4h3.752l9.744 11.9V79.4h4.48zm19.813 15.96V99H44.092V79.4h14.812v3.64H48.6v4.256h9.1v3.528h-9.1v4.536h10.668zm32.96-15.96L85.815 99h-4.872l-4.312-13.272L72.179 99h-4.844l-6.44-19.6h4.704l4.424 13.776 4.62-13.776h4.2l4.48 13.888L87.887 79.4h4.34z"/></g><rect x="425" y="87" width="82" height="20" rx="5" fill="#2b9d20"/><g fill="#5ec23e"><rect x="432" y="102" width="22" height="2" rx="1"/><rect x="456" y="102" width="21" height="2" rx="1"/><rect x="479" y="102" width="22" height="2" rx="1"/></g><g filter="url(#J)" class="B"><path d="M435.209 99.08c-.7 0-1.333-.153-1.9-.46a3.48 3.48 0 0 1-1.32-1.28c-.32-.547-.48-1.16-.48-1.84s.16-1.29.48-1.83a3.37 3.37 0 0 1 1.33-1.28c.567-.313 1.2-.47 1.9-.47a3.9 3.9 0 0 1 1.5.28c.454.18.84.45 1.16.81l-.65.63c-.526-.553-1.183-.83-1.97-.83-.52 0-.99.117-1.41.35s-.75.557-.99.97c-.233.407-.35.863-.35 1.37a2.76 2.76 0 0 0 .35 1.38c.24.407.57.727.99.96s.89.35 1.41.35a2.61 2.61 0 0 0 1.97-.84l.65.63c-.32.36-.71.633-1.17.82a3.9 3.9 0 0 1-1.5.28zm7.11 0c-.706 0-1.343-.153-1.91-.46-.566-.313-1.013-.743-1.34-1.29-.32-.547-.48-1.157-.48-1.83s.16-1.283.48-1.83c.327-.547.774-.973 1.34-1.28.567-.313 1.204-.47 1.91-.47.7 0 1.334.157 1.9.47.567.307 1.01.733 1.33 1.28.32.54.48 1.15.48 1.83s-.16 1.293-.48 1.84c-.32.54-.763.967-1.33 1.28-.566.307-1.2.46-1.9.46zm0-.89c.514 0 .974-.117 1.38-.35.414-.233.737-.553.97-.96.24-.413.36-.873.36-1.38s-.12-.963-.36-1.37c-.233-.413-.556-.737-.97-.97-.406-.233-.866-.35-1.38-.35s-.98.117-1.4.35c-.413.233-.74.557-.98.97-.233.407-.35.863-.35 1.37a2.76 2.76 0 0 0 .35 1.38c.24.407.567.727.98.96.42.233.887.35 1.4.35zm11.729.81l-.01-5.1-2.53 4.25h-.46l-2.53-4.22V99h-.96v-7h.82l2.92 4.92 2.88-4.92h.82l.01 7h-.96zm7.771-3.63c.406.113.726.32.96.62.233.293.35.667.35 1.12 0 .607-.23 1.073-.69 1.4-.454.327-1.117.49-1.99.49h-3.34v-7h3.14c.8 0 1.416.16 1.85.48a1.55 1.55 0 0 1 .66 1.33c0 .367-.087.683-.26.95-.167.267-.394.47-.68.61zm-3.71-2.56v2.24h2.05c.513 0 .906-.093 1.18-.28.28-.193.42-.473.42-.84s-.14-.643-.42-.83c-.274-.193-.667-.29-1.18-.29h-2.05zm2.3 5.38c.566 0 .993-.093 1.28-.28s.43-.48.43-.88c0-.78-.57-1.17-1.71-1.17h-2.3v2.33h2.3zm7.428.89c-.707 0-1.343-.153-1.91-.46a3.51 3.51 0 0 1-1.34-1.29c-.32-.547-.48-1.157-.48-1.83s.16-1.283.48-1.83c.327-.547.773-.973 1.34-1.28a3.88 3.88 0 0 1 1.91-.47c.7 0 1.333.157 1.9.47.567.307 1.01.733 1.33 1.28.32.54.48 1.15.48 1.83s-.16 1.293-.48 1.84c-.32.54-.763.967-1.33 1.28-.567.307-1.2.46-1.9.46zm0-.89c.513 0 .973-.117 1.38-.35a2.53 2.53 0 0 0 .97-.96c.24-.413.36-.873.36-1.38s-.12-.963-.36-1.37a2.51 2.51 0 0 0-.97-.97c-.407-.233-.867-.35-1.38-.35s-.98.117-1.4.35c-.413.233-.74.557-.98.97-.233.407-.35.863-.35 1.37a2.76 2.76 0 0 0 .35 1.38c.24.407.567.727.98.96.42.233.887.35 1.4.35zm12.634-2.82c.407.113.727.32.96.62.233.293.35.667.35 1.12 0 .607-.23 1.073-.69 1.4-.453.327-1.117.49-1.99.49h-3.34v-7h3.14c.8 0 1.417.16 1.85.48a1.55 1.55 0 0 1 .66 1.33c0 .367-.087.683-.26.95-.167.267-.393.47-.68.61zm-3.71-2.56v2.24h2.05c.513 0 .907-.093 1.18-.28.28-.193.42-.473.42-.84s-.14-.643-.42-.83c-.273-.193-.667-.29-1.18-.29h-2.05zm2.3 5.38c.567 0 .993-.093 1.28-.28s.43-.48.43-.88c0-.78-.57-1.17-1.71-1.17h-2.3v2.33h2.3zm9.348-.06V99h-5.08v-7h4.94v.87h-3.94v2.15h3.51v.85h-3.51v2.26h4.08zm3.01-5.26h-2.4V92h5.79v.87h-2.4V99h-.99v-6.13zm6.431 6.21c-.527 0-1.037-.08-1.53-.24-.487-.167-.87-.38-1.15-.64l.37-.78c.266.24.606.437 1.02.59.42.147.85.22 1.29.22.58 0 1.013-.097 1.3-.29.286-.2.43-.463.43-.79 0-.24-.08-.433-.24-.58-.154-.153-.347-.27-.58-.35-.227-.08-.55-.17-.97-.27-.527-.127-.954-.253-1.28-.38a2.18 2.18 0 0 1-.83-.58c-.227-.267-.34-.623-.34-1.07a1.82 1.82 0 0 1 .29-1.01c.2-.3.5-.54.9-.72s.896-.27 1.49-.27c.413 0 .82.053 1.22.16a3.25 3.25 0 0 1 1.03.46l-.33.8a3.51 3.51 0 0 0-.94-.42c-.334-.1-.66-.15-.98-.15-.567 0-.994.103-1.28.31-.28.207-.42.473-.42.8a.78.78 0 0 0 .24.59 1.77 1.77 0 0 0 .59.35 10.9 10.9 0 0 0 .97.26c.526.127.95.253 1.27.38a2.1 2.1 0 0 1 .82.58c.233.26.35.61.35 1.05a1.81 1.81 0 0 1-.3 1.01c-.2.3-.504.54-.91.72-.407.173-.907.26-1.5.26z"/></g><path d="M323 92a5 5 0 0 1 5-5h83c5.523 0 10 4.477 10 10h0a10 10 0 0 1-10 10h-83a5 5 0 0 1-5-5V92z" fill="#5863c9"/><g filter="url(#K)" class="B"><path d="M339.44 101.64c-.227.267-.49.47-.79.61s-.624.21-.97.21a2.53 2.53 0 0 1-1.24-.32c-.38-.207-.817-.563-1.31-1.07a3.79 3.79 0 0 1-1.79-.53 3.48 3.48 0 0 1-1.24-1.27c-.294-.533-.44-1.123-.44-1.77 0-.673.16-1.283.48-1.83a3.43 3.43 0 0 1 1.34-1.28c.566-.313 1.203-.47 1.91-.47.7 0 1.333.157 1.9.47a3.37 3.37 0 0 1 1.33 1.28c.32.54.48 1.15.48 1.83a3.57 3.57 0 0 1-.35 1.58 3.3 3.3 0 0 1-.97 1.21c-.414.327-.89.553-1.43.68.233.247.456.423.67.53a1.45 1.45 0 0 0 .67.17c.493 0 .92-.2 1.28-.6l.47.57zm-6.78-4.14a2.75 2.75 0 0 0 .35 1.38 2.6 2.6 0 0 0 .98.96c.42.233.886.35 1.4.35.506 0 .966-.117 1.38-.35a2.54 2.54 0 0 0 .97-.96c.24-.413.36-.873.36-1.38s-.12-.963-.36-1.37a2.52 2.52 0 0 0-.97-.97c-.414-.233-.874-.35-1.38-.35-.514 0-.98.117-1.4.35a2.58 2.58 0 0 0-.98.97c-.234.407-.35.863-.35 1.37zm10.868 3.58c-.933 0-1.66-.267-2.18-.8s-.78-1.3-.78-2.3V94h1v3.94c0 1.5.657 2.25 1.97 2.25.64 0 1.13-.183 1.47-.55.34-.373.51-.94.51-1.7V94h.97v3.98c0 1.007-.26 1.777-.78 2.31-.52.527-1.247.79-2.18.79zm5.01-7.08h1v7h-1v-7zm6.226 7.08c-.7 0-1.333-.153-1.9-.46-.56-.313-1-.74-1.32-1.28-.32-.547-.48-1.16-.48-1.84s.16-1.29.48-1.83c.32-.547.763-.973 1.33-1.28.567-.313 1.2-.47 1.9-.47a3.9 3.9 0 0 1 1.5.28c.453.18.84.45 1.16.81l-.65.63c-.527-.553-1.183-.83-1.97-.83-.52 0-.99.117-1.41.35s-.75.557-.99.97c-.233.407-.35.863-.35 1.37a2.76 2.76 0 0 0 .35 1.38c.24.407.57.727.99.96s.89.35 1.41.35a2.61 2.61 0 0 0 1.97-.84l.65.63c-.32.36-.71.633-1.17.82-.453.187-.953.28-1.5.28zm6.377-3.19l-1.28 1.3V101h-1v-7h1v3.91l3.8-3.91h1.14l-2.99 3.15 3.18 3.85h-1.17l-2.68-3.11zm12.303-.52c.406.113.726.32.96.62.233.293.35.667.35 1.12 0 .607-.23 1.073-.69 1.4-.454.327-1.117.49-1.99.49h-3.34v-7h3.14c.8 0 1.416.16 1.85.48a1.55 1.55 0 0 1 .66 1.33c0 .367-.087.683-.26.95-.167.267-.394.47-.68.61zm-3.71-2.56v2.24h2.05c.513 0 .906-.093 1.18-.28.28-.193.42-.473.42-.84s-.14-.643-.42-.83c-.274-.193-.667-.29-1.18-.29h-2.05zm2.3 5.38c.566 0 .993-.093 1.28-.28s.43-.48.43-.88c0-.78-.57-1.17-1.71-1.17h-2.3v2.33h2.3zm9.348-.06v.87h-5.08v-7h4.94v.87h-3.94v2.15h3.51v.85h-3.51v2.26h4.08zm3.009-5.26h-2.4V94h5.79v.87h-2.4V101h-.99v-6.13z"/></g><rect x="393" y="89" width="26" height="16" rx="8" class="B"/><rect x="403" y="90" width="14" height="14" rx="7" fill="#5863c9"/><path d="M408.783 103.211a.36.36 0 0 0 .445-.138l4.303-6.837a.36.36 0 0 0-.303-.55h-2.872l1.068-4.239a.36.36 0 0 0-.207-.418c-.161-.069-.35-.011-.444.138l-4.304 6.837a.36.36 0 0 0-.01.365c.063.115.183.186.314.186h2.872l-1.068 4.239c-.044.172.044.348.206.418h0z" class="B"/><path d="M224 97c0-5.523 4.477-10 10-10h75c5.523 0 10 4.477 10 10h0a10 10 0 0 1-10 10h-75a10 10 0 0 1-10-10h0z" fill="#217cbe"/><path d="M299 97c0-5.523 4.477-10 10-10h0c5.523 0 10 4.477 10 10h0a10 10 0 0 1-10 10h0a10 10 0 0 1-10-10h0z" fill="#3c9ade"/><g filter="url(#L)" class="B"><path d="M237.395 101.08c-.7 0-1.333-.153-1.9-.46-.56-.313-1-.74-1.32-1.28-.32-.547-.48-1.16-.48-1.84s.16-1.29.48-1.83c.32-.547.763-.973 1.33-1.28.567-.313 1.2-.47 1.9-.47a3.9 3.9 0 0 1 1.5.28c.453.18.84.45 1.16.81l-.65.63c-.527-.553-1.183-.83-1.97-.83-.52 0-.99.117-1.41.35s-.75.557-.99.97c-.233.407-.35.863-.35 1.37a2.76 2.76 0 0 0 .35 1.38c.24.407.57.727.99.96s.89.35 1.41.35a2.61 2.61 0 0 0 1.97-.84l.65.63c-.32.36-.71.633-1.17.82-.453.187-.953.28-1.5.28zm8.39-1.83h-3.72l-.77 1.75h-1.03l3.17-7h.99l3.18 7h-1.05l-.77-1.75zm-.35-.8l-1.51-3.43-1.51 3.43h3.02zm5.255 2.63c-.527 0-1.037-.08-1.53-.24-.487-.167-.87-.38-1.15-.64l.37-.78c.266.24.606.437 1.02.59a3.88 3.88 0 0 0 1.29.22c.58 0 1.013-.097 1.3-.29.286-.2.43-.463.43-.79 0-.24-.08-.433-.24-.58-.154-.153-.347-.27-.58-.35-.227-.08-.55-.17-.97-.27-.527-.127-.954-.253-1.28-.38a2.18 2.18 0 0 1-.83-.58c-.227-.267-.34-.623-.34-1.07a1.82 1.82 0 0 1 .29-1.01c.2-.3.5-.54.9-.72s.896-.27 1.49-.27c.413 0 .82.053 1.22.16a3.25 3.25 0 0 1 1.03.46l-.33.8a3.51 3.51 0 0 0-.94-.42c-.334-.1-.66-.15-.98-.15-.567 0-.994.103-1.28.31-.28.207-.42.473-.42.8a.78.78 0 0 0 .24.59 1.77 1.77 0 0 0 .59.35 10.9 10.9 0 0 0 .97.26c.526.127.95.253 1.27.38a2.1 2.1 0 0 1 .82.58c.233.26.35.61.35 1.05a1.81 1.81 0 0 1-.3 1.01c-.2.3-.504.54-.91.72-.407.173-.907.26-1.5.26zM260.881 94v7h-1v-3.12h-4.02V101h-1v-7h1v3.01h4.02V94h1zm7.94 7.08c-.706 0-1.343-.153-1.91-.46-.566-.313-1.013-.743-1.34-1.29-.32-.547-.48-1.157-.48-1.83s.16-1.283.48-1.83c.327-.547.774-.973 1.34-1.28.567-.313 1.204-.47 1.91-.47.7 0 1.334.157 1.9.47.567.307 1.01.733 1.33 1.28.32.54.48 1.15.48 1.83s-.16 1.293-.48 1.84c-.32.54-.763.967-1.33 1.28-.566.307-1.2.46-1.9.46zm0-.89c.514 0 .974-.117 1.38-.35.414-.233.737-.553.97-.96.24-.413.36-.873.36-1.38s-.12-.963-.36-1.37c-.233-.413-.556-.737-.97-.97-.406-.233-.866-.35-1.38-.35s-.98.117-1.4.35c-.413.233-.74.557-.98.97-.233.407-.35.863-.35 1.37a2.76 2.76 0 0 0 .35 1.38c.24.407.567.727.98.96.42.233.887.35 1.4.35zm8.139.89c-.934 0-1.66-.267-2.18-.8s-.78-1.3-.78-2.3V94h1v3.94c0 1.5.656 2.25 1.97 2.25.64 0 1.13-.183 1.47-.55.34-.373.51-.94.51-1.7V94h.97v3.98c0 1.007-.26 1.777-.78 2.31-.52.527-1.247.79-2.18.79zm6.273-6.21h-2.4V94h5.79v.87h-2.4V101h-.99v-6.13zm6.431 6.21c-.526 0-1.036-.08-1.53-.24-.486-.167-.87-.38-1.15-.64l.37-.78c.267.24.607.437 1.02.59a3.88 3.88 0 0 0 1.29.22c.58 0 1.014-.097 1.3-.29a.92.92 0 0 0 .43-.79c0-.24-.08-.433-.24-.58a1.48 1.48 0 0 0-.58-.35c-.226-.08-.55-.17-.97-.27-.526-.127-.953-.253-1.28-.38-.32-.127-.596-.32-.83-.58-.226-.267-.34-.623-.34-1.07 0-.373.097-.71.29-1.01.2-.3.5-.54.9-.72s.897-.27 1.49-.27a4.71 4.71 0 0 1 1.22.16 3.24 3.24 0 0 1 1.03.46l-.33.8c-.293-.187-.606-.327-.94-.42a3.4 3.4 0 0 0-.98-.15c-.566 0-.993.103-1.28.31-.28.207-.42.473-.42.8a.78.78 0 0 0 .24.59 1.78 1.78 0 0 0 .59.35c.24.08.564.167.97.26.527.127.95.253 1.27.38a2.09 2.09 0 0 1 .82.58c.234.26.35.61.35 1.05a1.81 1.81 0 0 1-.3 1.01c-.2.3-.503.54-.91.72-.406.173-.906.26-1.5.26z"/></g><g filter="url(#M)" class="B"><path d="M312.412 98.95c0 .547-.2 1.017-.6 1.41-.4.387-.977.627-1.73.72v1.12h-1v-1.09a5.43 5.43 0 0 1-1.41-.26c-.447-.147-.807-.327-1.08-.54l.55-1.22c.253.187.55.343.89.47s.69.207 1.05.24v-1.67c-.474-.113-.874-.24-1.2-.38s-.6-.343-.82-.61c-.22-.273-.33-.633-.33-1.08a1.92 1.92 0 0 1 .6-1.42c.406-.4.99-.643 1.75-.73V92.8h1v1.09c.82.067 1.496.27 2.03.61l-.5 1.23c-.5-.287-1.01-.46-1.53-.52v1.7c.466.107.86.23 1.18.37.326.133.6.337.82.61.22.267.33.62.33 1.06zm-4.07-2.97a.51.51 0 0 0 .19.41c.126.107.31.197.55.27v-1.42c-.254.06-.44.157-.56.29a.63.63 0 0 0-.18.45zm1.74 3.78c.24-.053.42-.14.54-.26s.18-.263.18-.43-.064-.303-.19-.41c-.12-.107-.297-.2-.53-.28v1.38z"/></g></g><defs><filter id="A" x="338" y="-178" width="516" height="516" filterUnits="userSpaceOnUse" class="C"><feFlood result="A" class="D"/><feColorMatrix in="SourceAlpha" values="0 0 0 0 0 0 0 0 0 0 0 0 0 0 0 0 0 0 127 0"/><feOffset dy="4"/><feGaussianBlur stdDeviation="45"/><feColorMatrix values="0 0 0 0 0 0 0 0 0 0 0 0 0 0 0 0 0 0 0.1 0"/><feBlend in2="A"/><feBlend in="SourceGraphic"/></filter><filter id="B" x="374" y="-142" width="444" height="444" filterUnits="userSpaceOnUse" class="C"><feFlood result="A" class="D"/><feColorMatrix in="SourceAlpha" values="0 0 0 0 0 0 0 0 0 0 0 0 0 0 0 0 0 0 127 0"/><feOffset dy="4"/><feGaussianBlur stdDeviation="45"/><feColorMatrix values="0 0 0 0 0 0 0 0 0 0 0 0 0 0 0 0 0 0 0.1 0"/><feBlend in2="A"/><feBlend in="SourceGraphic"/></filter><filter id="C" x="45" y="-65" width="515" height="285" filterUnits="userSpaceOnUse" class="C"><feFlood class="D"/><feBlend in="SourceGraphic"/><feGaussianBlur stdDeviation="60"/></filter><filter id="D" x="198.64" y="13.384" width="336.589" height="104.928" filterUnits="userSpaceOnUse" class="C"><feFlood result="A" class="D"/><feColorMatrix in="SourceAlpha" values="0 0 0 0 0 0 0 0 0 0 0 0 0 0 0 0 0 0 127 0"/><feOffset dy="4"/><feGaussianBlur stdDeviation="15"/><feColorMatrix values="0 0 0 0 0 0 0 0 0 0 0 0 0 0 0 0 0 0 0.11 0"/><feBlend in2="A"/><feBlend in="SourceGraphic"/></filter><filter id="E" x="526.9" y="60.048" width="145.48" height="55.204" filterUnits="userSpaceOnUse" class="C"><feFlood result="A" class="D"/><feColorMatrix in="SourceAlpha" values="0 0 0 0 0 0 0 0 0 0 0 0 0 0 0 0 0 0 127 0"/><feOffset dy="12"/><feGaussianBlur stdDeviation="10"/><feColorMatrix values="0 0 0 0 0 0 0 0 0 0 0 0 0 0 0 0 0 0 0.06 0"/><feBlend in2="A"/><feBlend in="SourceGraphic"/></filter><filter id="F" x="-90" y="-86" width="295" height="324" filterUnits="userSpaceOnUse" class="C"><feFlood result="A" class="D"/><feColorMatrix in="SourceAlpha" values="0 0 0 0 0 0 0 0 0 0 0 0 0 0 0 0 0 0 127 0"/><feOffset dy="4"/><feGaussianBlur stdDeviation="45"/><feColorMatrix values="0 0 0 0 0 0 0 0 0 0 0 0 0 0 0 0 0 0 0.1 0"/><feBlend in2="A"/><feBlend in="SourceGraphic"/></filter><filter id="G" x="1.866" y="20.972" width="113.324" height="69.356" filterUnits="userSpaceOnUse" class="C"><feFlood result="A" class="D"/><feColorMatrix in="SourceAlpha" values="0 0 0 0 0 0 0 0 0 0 0 0 0 0 0 0 0 0 127 0"/><feOffset dy="12"/><feGaussianBlur stdDeviation="10"/><feColorMatrix values="0 0 0 0 0 0 0 0 0 0 0 0 0 0 0 0 0 0 0.06 0"/><feBlend in2="A"/><feBlend in="SourceGraphic"/></filter><filter id="H" x=".857" y="97.897" width="110.29" height="52.308" filterUnits="userSpaceOnUse" class="C"><feFlood result="A" class="D"/><feColorMatrix in="SourceAlpha" values="0 0 0 0 0 0 0 0 0 0 0 0 0 0 0 0 0 0 127 0"/><feOffset dy="12"/><feGaussianBlur stdDeviation="10"/><feColorMatrix values="0 0 0 0 0 0 0 0 0 0 0 0 0 0 0 0 0 0 0.06 0"/><feBlend in2="A"/><feBlend in="SourceGraphic"/></filter><filter id="I" x="1.479" y="71.4" width="110.749" height="59.6" filterUnits="userSpaceOnUse" class="C"><feFlood result="A" class="D"/><feColorMatrix in="SourceAlpha" values="0 0 0 0 0 0 0 0 0 0 0 0 0 0 0 0 0 0 127 0"/><feOffset dy="12"/><feGaussianBlur stdDeviation="10"/><feColorMatrix values="0 0 0 0 0 0 0 0 0 0 0 0 0 0 0 0 0 0 0.06 0"/><feBlend in2="A"/><feBlend in="SourceGraphic"/></filter><filter id="J" x="411.509" y="83.92" width="109.05" height="47.16" filterUnits="userSpaceOnUse" class="C"><feFlood result="A" class="D"/><feColorMatrix in="SourceAlpha" values="0 0 0 0 0 0 0 0 0 0 0 0 0 0 0 0 0 0 127 0"/><feOffset dy="12"/><feGaussianBlur stdDeviation="10"/><feColorMatrix values="0 0 0 0 0 0 0 0 0 0 0 0 0 0 0 0 0 0 0.06 0"/><feBlend in2="A"/><feBlend in="SourceGraphic"/></filter><filter id="K" x="311.66" y="85.92" width="96.122" height="48.54" filterUnits="userSpaceOnUse" class="C"><feFlood result="A" class="D"/><feColorMatrix in="SourceAlpha" values="0 0 0 0 0 0 0 0 0 0 0 0 0 0 0 0 0 0 127 0"/><feOffset dy="12"/><feGaussianBlur stdDeviation="10"/><feColorMatrix values="0 0 0 0 0 0 0 0 0 0 0 0 0 0 0 0 0 0 0.06 0"/><feBlend in2="A"/><feBlend in="SourceGraphic"/></filter><filter id="L" x="213.695" y="85.92" width="98.679" height="47.16" filterUnits="userSpaceOnUse" class="C"><feFlood result="A" class="D"/><feColorMatrix in="SourceAlpha" values="0 0 0 0 0 0 0 0 0 0 0 0 0 0 0 0 0 0 127 0"/><feOffset dy="12"/><feGaussianBlur stdDeviation="10"/><feColorMatrix values="0 0 0 0 0 0 0 0 0 0 0 0 0 0 0 0 0 0 0.06 0"/><feBlend in2="A"/><feBlend in="SourceGraphic"/></filter><filter id="M" x="286.591" y="84.8" width="45.82" height="49.4" filterUnits="userSpaceOnUse" class="C"><feFlood result="A" class="D"/><feColorMatrix in="SourceAlpha" values="0 0 0 0 0 0 0 0 0 0 0 0 0 0 0 0 0 0 127 0"/><feOffset dy="12"/><feGaussianBlur stdDeviation="10"/><feColorMatrix values="0 0 0 0 0 0 0 0 0 0 0 0 0 0 0 0 0 0 0.06 0"/><feBlend in2="A"/><feBlend in="SourceGraphic"/></filter><linearGradient id="N" x1="347.5" y1="0" x2="347.5" y2="144" gradientUnits="userSpaceOnUse"><stop stop-color="#104c78"/><stop offset="1" stop-color="#084782"/></linearGradient><linearGradient id="O" x1="596" y1="-92" x2="596" y2="244" gradientUnits="userSpaceOnUse"><stop stop-color="#095696"/><stop offset="1" stop-color="#085b8b"/></linearGradient><linearGradient id="P" x1="596" y1="-56" x2="596" y2="208" gradientUnits="userSpaceOnUse"><stop stop-color="#1768ac"/><stop offset="1" stop-color="#1370a5"/></linearGradient><linearGradient id="Q" x1="57.5" y1="0" x2="57.5" y2="144" gradientUnits="userSpaceOnUse"><stop stop-color="#e7404a"/><stop offset="1" stop-color="#d02839"/></linearGradient><clipPath id="R"><path d="M0 0h695v144H0z" class="B"/></clipPath><path id="S" d="M196.178 6.405c0 .7.517 1.224 1.207 1.224s1.208-.525 1.208-1.224-.518-1.224-1.208-1.224c-.604-.087-1.207.525-1.207 1.224z"/><path id="T" d="M185.568 6.405c0 .7.518 1.224 1.208 1.224s1.207-.525 1.207-1.224-.517-1.224-1.207-1.224c-.604-.087-1.208.525-1.208 1.224z"/><path id="U" d="M174.959 6.405c0 .7.518 1.224 1.208 1.224s1.208-.525 1.208-1.224-.518-1.224-1.208-1.224c-.604-.087-1.208.525-1.208 1.224z"/><path id="V" d="M164.35 6.405c0 .7.518 1.224 1.208 1.224s1.207-.525 1.207-1.224-.517-1.224-1.207-1.224c-.69-.087-1.208.525-1.208 1.224z"/><path id="W" d="M143.132 6.405c0 .7.517 1.224 1.207 1.224s1.208-.525 1.208-1.224-.518-1.224-1.208-1.224c-.69-.087-1.207.525-1.207 1.224z"/><path id="X" d="M100.609 6.405c0 .7.517 1.224 1.207 1.224s1.208-.525 1.208-1.224-.518-1.224-1.208-1.224c-.603-.087-1.207.525-1.207 1.224z"/><path id="Y" d="M164.351 15.5c0 .7.517 1.224 1.207 1.224s1.208-.525 1.208-1.224-.518-1.224-1.208-1.224-1.207.525-1.207 1.224z"/><path id="Z" d="M153.741 15.5c0 .7.518 1.224 1.208 1.224s1.207-.525 1.207-1.224-.517-1.224-1.207-1.224-1.208.525-1.208 1.224z"/><path id="a" d="M100.609 15.5c0 .7.518 1.224 1.208 1.224s1.207-.525 1.207-1.224-.517-1.224-1.207-1.224c-.604 0-1.208.525-1.208 1.224z"/><path id="b" d="M132.523 33.776c0 .699.517 1.224 1.207 1.224s1.208-.525 1.208-1.224-.518-1.224-1.208-1.224-1.207.525-1.207 1.224z"/><path id="c" d="M100.609 33.776c0 .699.518 1.224 1.208 1.224s1.207-.525 1.207-1.224-.517-1.224-1.207-1.224c-.604 0-1.208.525-1.208 1.224z"/><path id="d" d="M178.351 137.5c0-.699.517-1.224 1.207-1.224s1.208.525 1.208 1.224-.518 1.225-1.208 1.225-1.207-.525-1.207-1.225z"/><path id="e" d="M167.741 137.5c0-.699.518-1.224 1.208-1.224s1.207.525 1.207 1.224-.517 1.225-1.207 1.225-1.208-.525-1.208-1.225z"/><path id="f" d="M114.609 137.5c0-.699.518-1.224 1.208-1.224s1.207.525 1.207 1.224-.517 1.225-1.207 1.225c-.604 0-1.208-.525-1.208-1.225z"/><path id="g" d="M178.351 128.318c0-.699.517-1.224 1.207-1.224s1.208.525 1.208 1.224-.518 1.224-1.208 1.224c-.69.088-1.207-.524-1.207-1.224z"/><path id="h" d="M167.741 128.318c0-.699.518-1.224 1.208-1.224s1.207.525 1.207 1.224-.517 1.224-1.207 1.224c-.69.088-1.208-.524-1.208-1.224z"/><path id="i" d="M114.609 128.318c0-.699.518-1.224 1.208-1.224s1.207.525 1.207 1.224-.517 1.224-1.207 1.224c-.604.088-1.208-.524-1.208-1.224z"/><path id="j" d="M146.523 119.224c0-.7.517-1.224 1.207-1.224s1.208.524 1.208 1.224-.518 1.224-1.208 1.224-1.207-.524-1.207-1.224z"/><path id="k" d="M114.609 119.224c0-.7.518-1.224 1.208-1.224s1.207.524 1.207 1.224-.517 1.224-1.207 1.224c-.604 0-1.208-.524-1.208-1.224z"/><path id="l" d="M592.822 6.5c0 .7-.517 1.224-1.207 1.224s-1.208-.525-1.208-1.224.518-1.224 1.208-1.224c.604 0 1.207.525 1.207 1.224z"/><path id="m" d="M603.432 6.5c0 .7-.518 1.224-1.208 1.224s-1.207-.525-1.207-1.224.517-1.224 1.207-1.224c.604 0 1.208.525 1.208 1.224z"/><path id="n" d="M614.041 6.5c0 .7-.518 1.224-1.208 1.224s-1.208-.525-1.208-1.224.518-1.224 1.208-1.224c.604 0 1.208.525 1.208 1.224z"/><path id="o" d="M624.65 6.5c0 .7-.518 1.224-1.208 1.224s-1.207-.525-1.207-1.224.517-1.224 1.207-1.224 1.208.525 1.208 1.224z"/><path id="p" d="M645.868 6.5c0 .7-.517 1.224-1.207 1.224s-1.208-.525-1.208-1.224.518-1.224 1.208-1.224 1.207.525 1.207 1.224z"/><path id="q" d="M688.391 6.5c0 .7-.517 1.224-1.207 1.224s-1.208-.525-1.208-1.224.518-1.224 1.208-1.224c.603 0 1.207.525 1.207 1.224z"/><path id="r" d="M624.649 15.682c0 .699-.517 1.224-1.207 1.224s-1.208-.525-1.208-1.224.518-1.224 1.208-1.224c.69-.087 1.207.525 1.207 1.224z"/><path id="s" d="M635.259 15.682c0 .699-.518 1.224-1.208 1.224s-1.207-.525-1.207-1.224.517-1.224 1.207-1.224c.69-.087 1.208.525 1.208 1.224z"/><path id="t" d="M688.391 15.682c0 .699-.518 1.224-1.208 1.224s-1.207-.525-1.207-1.224.517-1.224 1.207-1.224c.604-.087 1.208.525 1.208 1.224z"/><path id="u" d="M644.649 144.776c0-.7-.517-1.224-1.207-1.224s-1.208.524-1.208 1.224.518 1.224 1.208 1.224 1.207-.525 1.207-1.224z"/><path id="v" d="M655.259 144.776c0-.7-.518-1.224-1.208-1.224s-1.207.524-1.207 1.224.517 1.224 1.207 1.224 1.208-.525 1.208-1.224z"/><path id="w" d="M612.822 135.595c0-.7-.517-1.225-1.207-1.225s-1.208.525-1.208 1.225.518 1.224 1.208 1.224c.604.087 1.207-.525 1.207-1.224z"/><path id="x" d="M623.432 135.595c0-.7-.518-1.225-1.208-1.225s-1.207.525-1.207 1.225.517 1.224 1.207 1.224c.604.087 1.208-.525 1.208-1.224z"/><path id="y" d="M634.041 135.595c0-.7-.518-1.225-1.208-1.225s-1.208.525-1.208 1.225.518 1.224 1.208 1.224c.604.087 1.208-.525 1.208-1.224z"/><path id="z" d="M644.65 135.595c0-.7-.518-1.225-1.208-1.225s-1.207.525-1.207 1.225.517 1.224 1.207 1.224c.69.087 1.208-.525 1.208-1.224z"/><path id="AA" d="M665.868 135.595c0-.7-.517-1.225-1.207-1.225s-1.208.525-1.208 1.225.518 1.224 1.208 1.224c.69.087 1.207-.525 1.207-1.224z"/><path id="AB" d="M644.649 126.5c0-.699-.517-1.224-1.207-1.224s-1.208.525-1.208 1.224.518 1.225 1.208 1.225 1.207-.525 1.207-1.225z"/><path id="AC" d="M655.259 126.5c0-.699-.518-1.224-1.208-1.224s-1.207.525-1.207 1.224.517 1.225 1.207 1.225 1.208-.525 1.208-1.225z"/><path id="AD" d="M644.649 117.318c0-.699-.517-1.224-1.207-1.224s-1.208.525-1.208 1.224.518 1.224 1.208 1.224c.69.088 1.207-.524 1.207-1.224z"/><path id="AE" d="M655.259 117.318c0-.699-.518-1.224-1.208-1.224s-1.207.525-1.207 1.224.517 1.224 1.207 1.224c.69.088 1.208-.524 1.208-1.224z"/><path id="AF" d="M676.477 108.224c0-.7-.517-1.224-1.207-1.224s-1.208.524-1.208 1.224.518 1.224 1.208 1.224 1.207-.524 1.207-1.224z"/></defs></svg>