<svg width="695" height="144" viewBox="0 0 695 144" fill="none" xmlns="http://www.w3.org/2000/svg">
<g clip-path="url(#clip0)">
<rect width="695" height="144" fill="white"/>
<rect width="695" height="144" fill="url(#paint0_linear)"/>
<path d="M555.671 146C554.251 146 553.114 144.874 553.114 143.466V10.5337C553.114 9.12607 554.269 8 555.671 8C557.091 8 558.228 9.12607 558.228 10.5337V143.466C558.228 144.874 557.091 146 555.671 146Z" fill="white"/>
<path d="M580.743 11.1348V17.7974C580.743 17.7974 573.092 18.1352 573.149 17.4595C573.187 16.8027 572.448 13.7998 572.448 13.6309C572.429 13.4807 580.743 11.1348 580.743 11.1348Z" fill="#C71A30"/>
<path d="M553.057 10.9847C553.057 10.9847 582.07 9.99003 580.744 11.1349C579.418 12.2797 569.438 14.4192 578.093 14.5882C586.729 14.7571 603.678 15.245 603.678 15.245L592.959 23.2401L604 26.9374C604 26.9374 572.298 29.7526 572.355 28.833C572.392 28.1761 572.279 27.4254 572.279 27.4254L553 27.8383L553.057 10.9847Z" fill="#FF213E"/>
<path d="M-99.8579 76.4646C-100.512 48.9095 -13.7042 11.6684 205.624 -17H181.656C-37.6721 11.6684 -113.781 43.7047 -108.77 79.8881C-98.507 154.203 274.76 154.148 693 142.903V123.42C501.192 126.787 -98.0712 151.893 -99.8579 76.4646Z" fill="#6D44E1"/>
<path d="M664.479 233C662.844 233 661.537 231.33 661.537 229.242V138.506C661.537 136.418 662.844 134.748 664.479 134.748C666.113 134.748 667.42 136.418 667.42 138.506V229.242C667.42 231.33 666.091 233 664.479 233Z" fill="#6D44E1"/>
<path d="M390.809 231.887C389.175 231.887 387.867 230.217 387.867 228.129V137.392C387.867 135.305 389.175 133.635 390.809 133.635C392.443 133.635 393.75 135.305 393.75 137.392V228.129C393.75 230.217 392.421 231.887 390.809 231.887Z" fill="#6D44E1"/>
<path d="M163.092 222.424C161.828 222.424 160.804 221.116 160.804 219.501V137.81C160.804 136.196 161.828 134.888 163.092 134.888C164.355 134.888 165.379 136.196 165.379 137.81V219.501C165.401 221.116 164.377 222.424 163.092 222.424Z" fill="#6D44E1"/>
<path d="M1.58287 54H1.41625C0.638704 54 0 53.6581 0 53.2418V16.7582C0 16.3419 0.638704 16 1.41625 16H1.58287C2.36042 16 2.99913 16.3419 2.99913 16.7582V53.2418C3.0269 53.6581 2.38819 54 1.58287 54Z" fill="#6D44E1"/>
<path d="M23.9994 50C23.4283 50 23 49.7631 23 49.4818V13.5182C23 13.2221 23.4569 13 23.9994 13C24.5704 13 24.9987 13.2369 24.9987 13.5182V49.4818C25.0273 49.7779 24.5704 50 23.9994 50Z" fill="#6D44E1"/>
<path d="M44.0138 41H43.9849C43.4345 41 43 40.7784 43 40.4977V6.50232C43 6.22161 43.4345 6 43.9849 6H44.0138C44.5642 6 44.9987 6.22161 44.9987 6.50232V40.5125C45.0277 40.7784 44.5642 41 44.0138 41Z" fill="#6D44E1"/>
<path d="M68.0571 35H67.9429C67.4286 35 67 34.7811 67 34.5185V3.48153C67 3.21888 67.4286 3 67.9429 3H68.0571C68.5714 3 69 3.21888 69 3.48153V34.5185C69 34.7811 68.5714 35 68.0571 35Z" fill="#6D44E1"/>
<path d="M92.0857 31H91.9143C91.4 31 91 30.7978 91 30.5378V1.4622C91 1.20221 91.4 1 91.9143 1H92.0857C92.6 1 93 1.20221 93 1.4622V30.5378C93 30.7833 92.5714 31 92.0857 31Z" fill="#6D44E1"/>
<path d="M111.099 29H110.901C110.394 29 110 28.7935 110 28.528V-0.528023C110 -0.79351 110.394 -1 110.901 -1H111.099C111.606 -1 112 -0.79351 112 -0.528023V28.528C112 28.7935 111.577 29 111.099 29Z" fill="#6D44E1"/>
<path d="M128.549 27H128.451C128.197 27 128 26.7932 128 26.5273V-2.52733C128 -2.79321 128.197 -3 128.451 -3H128.549C128.803 -3 129 -2.79321 129 -2.52733V26.5273C129 26.7932 128.789 27 128.549 27Z" fill="#6D44E1"/>
<path d="M141.549 25H141.451C141.211 25 141 24.7978 141 24.5378V-3.53785C141 -3.78337 141.197 -4 141.451 -4H141.549C141.789 -4 142 -3.79781 142 -3.53785V24.5378C142 24.7978 141.803 25 141.549 25Z" fill="#6D44E1"/>
<path d="M155.114 20H154.886C154.4 20 154 19.7971 154 19.5507V-7.55072C154 -7.7971 154.4 -8 154.886 -8H155.114C155.6 -8 156 -7.7971 156 -7.55072V19.5652C156 19.8116 155.6 20 155.114 20Z" fill="#6D44E1"/>
<path d="M168.565 16H168.434C168.188 16 168 15.7888 168 15.5474V-11.5474C168 -11.8039 168.203 -12 168.434 -12H168.565C168.811 -12 168.999 -11.7888 168.999 -11.5474V15.5323C169.014 15.7888 168.811 16 168.565 16Z" fill="#6D44E1"/>
<path d="M182.155 14H181.845C181.394 14 181 13.8084 181 13.5578V-11.5578C181 -11.7937 181.366 -12 181.845 -12H182.155C182.606 -12 183 -11.8084 183 -11.5578V13.5578C183 13.8084 182.606 14 182.155 14Z" fill="#6D44E1"/>
<path d="M193 -14V10.5365C193 10.7972 193.4 11 193.914 11H194.086C194.6 11 195 10.7972 195 10.5365V-14H193Z" fill="#6D44E1"/>
<path d="M205 -16V7.52767C205 7.79336 205.4 8 205.914 8H206.086C206.6 8 207 7.79336 207 7.52767V-16H205Z" fill="#6D44E1"/>
<g filter="url(#filter0_d)">
<path d="M221.58 54.004H226.908V64.228C225.54 65.26 223.956 66.052 222.156 66.604C220.356 67.156 218.544 67.432 216.72 67.432C214.104 67.432 211.752 66.88 209.664 65.776C207.576 64.648 205.932 63.1 204.732 61.132C203.556 59.14 202.968 56.896 202.968 54.4C202.968 51.904 203.556 49.672 204.732 47.704C205.932 45.712 207.588 44.164 209.7 43.06C211.812 41.932 214.188 41.368 216.828 41.368C219.036 41.368 221.04 41.74 222.84 42.484C224.64 43.228 226.152 44.308 227.376 45.724L223.632 49.18C221.832 47.284 219.66 46.336 217.116 46.336C215.508 46.336 214.08 46.672 212.832 47.344C211.584 48.016 210.612 48.964 209.916 50.188C209.22 51.412 208.872 52.816 208.872 54.4C208.872 55.96 209.22 57.352 209.916 58.576C210.612 59.8 211.572 60.76 212.796 61.456C214.044 62.128 215.46 62.464 217.044 62.464C218.724 62.464 220.236 62.104 221.58 61.384V54.004ZM248.382 67L243.522 59.98H243.234H238.158V67H232.326V41.8H243.234C245.466 41.8 247.398 42.172 249.03 42.916C250.686 43.66 251.958 44.716 252.846 46.084C253.734 47.452 254.178 49.072 254.178 50.944C254.178 52.816 253.722 54.436 252.81 55.804C251.922 57.148 250.65 58.18 248.994 58.9L254.646 67H248.382ZM248.274 50.944C248.274 49.528 247.818 48.448 246.906 47.704C245.994 46.936 244.662 46.552 242.91 46.552H238.158V55.336H242.91C244.662 55.336 245.994 54.952 246.906 54.184C247.818 53.416 248.274 52.336 248.274 50.944ZM278.311 62.32V67H258.799V41.8H277.843V46.48H264.595V51.952H276.295V56.488H264.595V62.32H278.311ZM294.801 58.072V67H288.969V58L279.213 41.8H285.405L292.137 52.996L298.869 41.8H304.593L294.801 58.072ZM329.899 41.8V67H324.067V56.668H312.619V67H306.787V41.8H312.619V51.736H324.067V41.8H329.899ZM348.065 67.432C345.449 67.432 343.085 66.868 340.973 65.74C338.885 64.612 337.241 63.064 336.041 61.096C334.865 59.104 334.277 56.872 334.277 54.4C334.277 51.928 334.865 49.708 336.041 47.74C337.241 45.748 338.885 44.188 340.973 43.06C343.085 41.932 345.449 41.368 348.065 41.368C350.681 41.368 353.033 41.932 355.121 43.06C357.209 44.188 358.853 45.748 360.053 47.74C361.253 49.708 361.853 51.928 361.853 54.4C361.853 56.872 361.253 59.104 360.053 61.096C358.853 63.064 357.209 64.612 355.121 65.74C353.033 66.868 350.681 67.432 348.065 67.432ZM348.065 62.464C349.553 62.464 350.897 62.128 352.097 61.456C353.297 60.76 354.233 59.8 354.905 58.576C355.601 57.352 355.949 55.96 355.949 54.4C355.949 52.84 355.601 51.448 354.905 50.224C354.233 49 353.297 48.052 352.097 47.38C350.897 46.684 349.553 46.336 348.065 46.336C346.577 46.336 345.233 46.684 344.033 47.38C342.833 48.052 341.885 49 341.189 50.224C340.517 51.448 340.181 52.84 340.181 54.4C340.181 55.96 340.517 57.352 341.189 58.576C341.885 59.8 342.833 60.76 344.033 61.456C345.233 62.128 346.577 62.464 348.065 62.464ZM377.432 67.432C373.832 67.432 371.024 66.436 369.008 64.444C367.016 62.452 366.02 59.608 366.02 55.912V41.8H371.852V55.696C371.852 60.208 373.724 62.464 377.468 62.464C379.292 62.464 380.684 61.924 381.644 60.844C382.604 59.74 383.084 58.024 383.084 55.696V41.8H388.844V55.912C388.844 59.608 387.836 62.452 385.82 64.444C383.828 66.436 381.032 67.432 377.432 67.432ZM417.719 41.8V67H412.931L400.367 51.7V67H394.607V41.8H399.431L411.959 57.1V41.8H417.719ZM423.681 41.8H435.129C437.865 41.8 440.277 42.328 442.365 43.384C444.477 44.416 446.109 45.88 447.261 47.776C448.437 49.672 449.025 51.88 449.025 54.4C449.025 56.92 448.437 59.128 447.261 61.024C446.109 62.92 444.477 64.396 442.365 65.452C440.277 66.484 437.865 67 435.129 67H423.681V41.8ZM434.841 62.212C437.361 62.212 439.365 61.516 440.853 60.124C442.365 58.708 443.121 56.8 443.121 54.4C443.121 52 442.365 50.104 440.853 48.712C439.365 47.296 437.361 46.588 434.841 46.588H429.513V62.212H434.841ZM274.644 105L268.884 96.9C268.236 96.972 267.564 97.008 266.868 97.008H260.1V105H257.436V79.8H266.868C270.084 79.8 272.604 80.568 274.428 82.104C276.252 83.64 277.164 85.752 277.164 88.44C277.164 90.408 276.66 92.076 275.652 93.444C274.668 94.788 273.252 95.76 271.404 96.36L277.56 105H274.644ZM266.796 94.74C269.292 94.74 271.2 94.188 272.52 93.084C273.84 91.98 274.5 90.432 274.5 88.44C274.5 86.4 273.84 84.84 272.52 83.76C271.2 82.656 269.292 82.104 266.796 82.104H260.1V94.74H266.796ZM299.256 98.268H285.216L282.192 105H279.42L290.94 79.8H293.568L305.088 105H302.28L299.256 98.268ZM298.284 96.108L292.236 82.572L286.188 96.108H298.284ZM319.849 105.216C317.353 105.216 315.097 104.664 313.081 103.56C311.089 102.456 309.517 100.932 308.365 98.988C307.237 97.02 306.673 94.824 306.673 92.4C306.673 89.976 307.237 87.792 308.365 85.848C309.517 83.88 311.101 82.344 313.117 81.24C315.133 80.136 317.389 79.584 319.885 79.584C321.757 79.584 323.485 79.896 325.069 80.52C326.653 81.144 327.997 82.056 329.101 83.256L327.409 84.948C325.441 82.956 322.957 81.96 319.957 81.96C317.965 81.96 316.153 82.416 314.521 83.328C312.889 84.24 311.605 85.488 310.669 87.072C309.757 88.656 309.301 90.432 309.301 92.4C309.301 94.368 309.757 96.144 310.669 97.728C311.605 99.312 312.889 100.56 314.521 101.472C316.153 102.384 317.965 102.84 319.957 102.84C322.981 102.84 325.465 101.832 327.409 99.816L329.101 101.508C327.997 102.708 326.641 103.632 325.033 104.28C323.449 104.904 321.721 105.216 319.849 105.216ZM334.78 79.8H337.444V105H334.78V79.8ZM366.703 79.8V105H364.507L348.307 84.552V105H345.643V79.8H347.839L364.075 100.248V79.8H366.703ZM392.676 92.4H395.232V102.012C394.056 103.044 392.664 103.836 391.056 104.388C389.448 104.94 387.756 105.216 385.98 105.216C383.46 105.216 381.192 104.664 379.176 103.56C377.16 102.456 375.576 100.932 374.424 98.988C373.272 97.02 372.696 94.824 372.696 92.4C372.696 89.976 373.272 87.792 374.424 85.848C375.576 83.88 377.16 82.344 379.176 81.24C381.192 80.136 383.472 79.584 386.016 79.584C387.936 79.584 389.7 79.896 391.308 80.52C392.916 81.12 394.272 82.02 395.376 83.22L393.72 84.912C391.728 82.944 389.196 81.96 386.124 81.96C384.084 81.96 382.236 82.416 380.58 83.328C378.948 84.216 377.664 85.464 376.728 87.072C375.792 88.656 375.324 90.432 375.324 92.4C375.324 94.368 375.792 96.144 376.728 97.728C377.664 99.312 378.948 100.56 380.58 101.472C382.212 102.384 384.048 102.84 386.088 102.84C388.68 102.84 390.876 102.192 392.676 100.896V92.4Z" fill="white"/>
</g>
<path d="M712.492 88.1533H644.912V116.166H712.492V88.1533Z" fill="#390BBA"/>
<path d="M743 115.987H616V144H743V115.987Z" fill="#390BBA"/>
<path d="M656.442 33.0205C655.023 35.1616 655.378 37.8379 655.378 37.8379C655.378 37.8379 658.038 37.1242 659.457 34.8047C660.876 32.4852 660.522 29.9873 660.522 29.9873C660.522 29.9873 657.861 30.8794 656.442 33.0205ZM657.861 34.2695C657.506 34.8047 657.329 35.1616 656.974 35.6968C656.619 36.0537 656.442 36.589 656.265 36.7674C655.733 37.4811 655.378 37.8379 655.378 37.8379C655.378 37.8379 655.555 37.3027 656.087 36.589C656.265 36.2321 656.619 35.8753 656.797 35.34C657.152 34.9832 657.506 34.6263 657.861 34.2695C658.925 32.3068 660.167 30.5226 660.167 30.5226C660.167 30.5226 659.103 32.4852 657.861 34.2695Z" fill="#390BBA"/>
<path d="M655.732 41.9415C653.426 43.1905 652.362 45.6884 652.362 45.6884C652.362 45.6884 655.022 46.4021 657.328 45.1532C659.634 43.9042 660.698 41.4063 660.698 41.4063C660.698 41.4063 657.86 40.871 655.732 41.9415ZM660.166 41.7631C660.166 41.7631 658.215 42.8337 656.441 43.7258C655.909 43.9042 655.555 44.2611 655.022 44.4395C654.49 44.6179 654.136 44.7963 653.781 44.9747C653.071 45.3316 652.539 45.51 652.539 45.51C652.539 45.51 653.071 45.1532 653.781 44.7963C654.136 44.6179 654.49 44.4395 655.022 44.0826C655.555 43.9042 655.909 43.5474 656.441 43.3689C658.215 42.6552 660.166 41.7631 660.166 41.7631Z" fill="#390BBA"/>
<path d="M652.54 55.5015C652.54 55.5015 655.2 55.1446 656.974 53.182C658.57 51.2193 658.57 48.543 658.57 48.543C658.57 48.543 655.91 48.8998 654.136 50.8625C652.54 52.6467 652.54 55.5015 652.54 55.5015ZM655.378 51.933C656.797 50.3272 658.216 48.7214 658.216 48.7214C658.216 48.8998 656.797 50.5056 655.378 51.933C655.2 52.4683 654.845 52.8251 654.491 53.182C654.136 53.5388 653.781 53.8957 653.604 54.2525C653.072 54.7878 652.717 55.1446 652.717 55.1446C652.717 55.1446 653.072 54.7878 653.604 54.0741C653.781 53.7172 654.136 53.3604 654.491 53.0035C654.668 52.8251 655.023 52.4683 655.378 51.933Z" fill="#390BBA"/>
<path d="M664.423 66.9211C663.713 69.419 664.955 71.917 664.955 71.917C664.955 71.917 667.261 70.3112 667.793 67.8132C668.502 65.3153 667.261 62.8174 667.261 62.8174C667.261 62.8174 664.955 64.4232 664.423 66.9211ZM666.196 67.6348C666.019 68.1701 666.019 68.7053 665.842 69.2406C665.664 69.7759 665.664 70.1327 665.487 70.4896C665.309 71.2033 665.132 71.7385 665.132 71.7385C665.132 71.7385 665.132 71.2033 665.309 70.4896C665.309 70.1327 665.487 69.5975 665.664 69.0622C665.664 68.5269 665.842 67.9917 666.196 67.6348C666.551 65.4937 667.083 63.3527 667.083 63.3527C667.083 63.3527 666.728 65.4937 666.196 67.6348Z" fill="#390BBA"/>
<path d="M658.747 67.0993C658.747 67.0993 661.408 67.0993 663.359 65.3151C665.31 63.5308 665.665 60.8545 665.665 60.8545C665.665 60.8545 663.004 60.8545 661.053 62.6387C659.102 64.423 658.747 67.0993 658.747 67.0993ZM665.31 61.2113C665.31 61.2113 663.714 62.6387 662.117 64.0661C661.762 64.423 661.408 64.7798 660.876 65.1366C660.521 65.4935 660.166 65.8503 659.811 66.0288C659.102 66.564 658.747 66.9209 658.747 66.9209C658.747 66.9209 659.102 66.564 659.634 66.0288C659.989 65.6719 660.343 65.4935 660.698 65.1366C661.053 64.7798 661.408 64.423 661.94 64.0661C663.536 62.6387 665.31 61.2113 665.31 61.2113Z" fill="#390BBA"/>
<path d="M654.49 59.6058C654.49 62.1037 656.441 64.2448 656.441 64.2448C656.441 64.2448 658.215 62.1037 658.038 59.6058C658.038 57.1079 656.087 54.9668 656.087 54.9668C656.087 54.9668 654.49 56.9295 654.49 59.6058ZM656.264 55.3236C656.264 55.3236 656.264 57.4647 656.441 59.6058C656.441 60.1411 656.441 60.6763 656.441 61.2116C656.441 61.7469 656.441 62.1037 656.441 62.639C656.441 63.5311 656.441 64.0664 656.441 64.0664C656.441 64.0664 656.441 63.5311 656.264 62.639C656.264 62.2821 656.264 61.7469 656.264 61.2116C656.264 60.6763 656.264 60.1411 656.264 59.6058C656.264 57.4647 656.264 55.3236 656.264 55.3236Z" fill="#390BBA"/>
<path d="M669.035 67.4561C669.035 67.4561 669.035 70.1324 670.631 72.2735C672.227 74.2361 674.888 74.7714 674.888 74.7714C674.888 74.7714 674.888 72.0951 673.292 69.954C671.695 67.8129 669.035 67.4561 669.035 67.4561ZM674.888 74.4146C674.888 74.4146 674.533 74.0577 674.001 73.5224C673.824 73.1656 673.469 72.8088 673.114 72.4519C672.76 72.0951 672.405 71.5598 672.05 71.2029C670.631 69.5971 669.389 67.8129 669.389 67.8129C669.389 67.8129 670.808 69.4187 672.227 71.0245C672.582 71.3814 672.937 71.9166 673.292 72.2735C673.646 72.6303 673.824 72.9872 674.179 73.344C674.533 74.0577 674.888 74.4146 674.888 74.4146Z" fill="#390BBA"/>
<path d="M651.121 33.7344C651.121 33.7344 649.702 36.0539 650.056 38.7302C650.411 41.2282 652.54 43.0124 652.54 43.0124C652.54 43.0124 653.959 40.6929 653.604 38.0165C653.249 35.5186 651.121 33.7344 651.121 33.7344ZM652.717 42.834C652.717 42.834 652.54 42.2987 652.362 41.585C652.362 41.2282 652.185 40.6929 652.185 40.1576C652.185 39.6223 652.008 39.0871 652.008 38.5518C651.653 36.4107 651.298 34.2696 651.298 34.2696C651.298 34.2696 651.653 36.4107 652.185 38.5518C652.362 39.0871 652.362 39.6223 652.54 40.1576C652.54 40.6929 652.717 41.0497 652.717 41.585C652.717 42.2987 652.717 42.834 652.717 42.834Z" fill="#390BBA"/>
<path d="M647.218 42.2988C647.218 42.2988 646.686 44.9752 647.927 47.2947C649.169 49.6142 651.652 50.5063 651.652 50.5063C651.652 50.5063 652.184 47.83 650.943 45.5104C649.701 43.1909 647.218 42.2988 647.218 42.2988ZM651.652 50.3279C651.652 50.3279 651.297 49.971 650.943 49.2573C650.765 48.9005 650.411 48.5436 650.233 48.0084C650.056 47.4731 649.701 47.1163 649.524 46.581C648.459 44.6183 647.573 42.8341 647.573 42.8341C647.573 42.8341 648.637 44.6183 649.701 46.581C650.056 47.1163 650.233 47.4731 650.411 48.0084C650.588 48.3652 650.943 48.9005 651.12 49.2573C651.297 49.7926 651.652 50.3279 651.652 50.3279Z" fill="#390BBA"/>
<path d="M649.524 54.9668C647.218 53.8963 644.557 54.61 644.557 54.61C644.557 54.61 645.621 57.1079 647.927 58.1785C650.233 59.249 652.894 58.5353 652.894 58.5353C652.894 58.5353 651.829 56.0374 649.524 54.9668ZM652.716 58.5353C652.716 58.5353 652.184 58.3569 651.475 58C651.12 57.8216 650.588 57.6432 650.233 57.4648C649.701 57.2863 649.346 56.9295 648.814 56.7511C646.863 55.859 644.912 54.7884 644.912 54.7884C644.912 54.7884 646.863 55.6805 648.814 56.5726C649.346 56.7511 649.878 56.9295 650.233 57.2863C650.765 57.4648 651.12 57.6432 651.475 57.8216C652.362 58.1785 652.716 58.5353 652.716 58.5353Z" fill="#390BBA"/>
<path d="M647.75 65.8498C647.75 65.8498 649.701 67.634 652.361 67.8125C654.844 67.8125 657.15 66.2066 657.15 66.2066C657.15 66.2066 655.199 64.4224 652.539 64.244C649.878 64.0656 647.75 65.8498 647.75 65.8498ZM654.135 65.8498C654.667 65.8498 655.022 65.8498 655.554 65.8498C656.441 65.8498 656.973 66.0282 656.973 66.0282C656.973 66.0282 656.441 66.0282 655.554 66.0282C655.199 66.0282 654.667 66.0282 654.135 66.0282C653.603 66.0282 653.071 66.0282 652.539 66.0282C650.41 65.8498 648.282 65.8498 648.282 65.8498C648.282 65.8498 650.41 65.8498 652.539 65.8498C653.071 65.8498 653.603 65.8498 654.135 65.8498Z" fill="#390BBA"/>
<path d="M657.151 71.5596C654.845 72.6302 653.781 75.1281 653.781 75.1281C653.781 75.1281 656.442 75.8418 658.748 74.7713C661.054 73.7007 662.118 71.2028 662.118 71.2028C662.118 71.2028 659.457 70.4891 657.151 71.5596ZM661.94 71.2028C661.94 71.2028 661.408 71.5596 660.699 71.9165C660.344 72.0949 659.989 72.2733 659.457 72.6302C658.925 72.8086 658.57 72.987 658.038 73.3439C656.087 74.236 654.136 75.1281 654.136 75.1281C654.136 75.1281 656.087 74.0576 658.038 73.1654C658.57 72.987 658.925 72.6302 659.457 72.4517C659.989 72.2733 660.344 72.0949 660.699 71.9165C661.408 71.3812 661.94 71.2028 661.94 71.2028Z" fill="#390BBA"/>
<path d="M661.23 81.0161C661.23 81.0161 663.891 80.6593 665.665 78.6966C667.439 76.734 667.439 74.0576 667.439 74.0576C667.439 74.0576 664.778 74.4145 663.004 76.3771C661.23 78.1614 661.23 81.0161 661.23 81.0161ZM665.487 76.0203C665.842 75.6634 666.197 75.3066 666.374 74.9497C666.906 74.4145 667.261 74.0576 667.261 74.0576C667.261 74.0576 666.906 74.4145 666.374 75.1282C666.197 75.485 665.842 75.8419 665.487 76.1987C665.133 76.5555 664.778 76.9124 664.423 77.4477C663.004 79.0535 661.585 80.6593 661.585 80.6593C661.585 80.6593 663.004 79.0535 664.246 77.2692C664.778 76.9124 665.133 76.3771 665.487 76.0203Z" fill="#390BBA"/>
<path d="M655.909 38.0166C655.022 38.0166 654.313 38.7303 654.313 39.6224C654.313 40.5145 655.022 41.2282 655.909 41.2282C656.796 41.2282 657.506 40.5145 657.506 39.6224C657.506 38.7303 656.619 38.0166 655.909 38.0166ZM656.441 40.1577C656.087 40.1577 655.909 39.9793 655.909 39.6224C655.909 39.2656 656.087 39.0871 656.441 39.0871C656.796 39.0871 656.974 39.2656 656.974 39.6224C656.974 39.8008 656.619 40.1577 656.441 40.1577Z" fill="#390BBA"/>
<path d="M650.233 51.2197C649.346 51.2197 648.637 51.9334 648.637 52.8255C648.637 53.7177 649.346 54.4314 650.233 54.4314C651.12 54.4314 651.829 53.7177 651.829 52.8255C651.829 51.9334 651.12 51.2197 650.233 51.2197ZM650.765 53.1824C650.41 53.1824 650.233 53.004 650.233 52.6471C650.233 52.2903 650.41 52.1118 650.765 52.1118C651.12 52.1118 651.297 52.2903 651.297 52.6471C651.297 53.004 651.12 53.1824 650.765 53.1824Z" fill="#390BBA"/>
<path d="M656.973 67.4561C656.086 67.4561 655.376 68.1697 655.376 69.0619C655.376 69.954 656.086 70.6677 656.973 70.6677C657.86 70.6677 658.569 69.954 658.569 69.0619C658.569 67.9913 657.86 67.4561 656.973 67.4561ZM657.505 69.4187C657.15 69.4187 656.973 69.2403 656.973 68.8834C656.973 68.5266 657.15 68.3482 657.505 68.3482C657.86 68.3482 658.037 68.5266 658.037 68.8834C658.037 69.2403 657.86 69.4187 657.505 69.4187Z" fill="#390BBA"/>
<path d="M670.454 75.4854C669.567 75.4854 668.857 76.199 668.857 77.0912C668.857 77.9833 669.567 78.697 670.454 78.697C671.341 78.697 672.05 77.9833 672.05 77.0912C671.873 76.199 671.163 75.4854 670.454 75.4854ZM670.986 77.6264C670.631 77.6264 670.454 77.448 670.454 77.0912C670.454 76.7343 670.631 76.5559 670.986 76.5559C671.341 76.5559 671.518 76.7343 671.518 77.0912C671.518 77.2696 671.163 77.6264 670.986 77.6264Z" fill="#390BBA"/>
<path d="M684.821 81.3734C684.644 80.8382 684.289 80.1245 683.757 79.4108C683.225 78.6971 682.338 77.805 681.273 76.9129C680.209 76.1992 678.968 75.4855 677.371 74.9502C676.662 74.7718 675.775 74.4149 675.065 74.4149C674.711 74.4149 674.178 74.2365 673.824 74.2365C673.469 74.2365 673.114 74.0581 672.582 74.0581C670.986 73.7012 669.389 73.3444 667.616 72.6307C666.019 71.917 664.245 71.2033 662.649 70.1328C661.053 69.0622 659.634 67.8133 658.392 66.5643C658.037 66.2075 657.683 65.8506 657.505 65.4938C657.151 65.1369 656.973 64.7801 656.618 64.4232C656.086 63.7095 655.554 62.8174 655.022 62.1037C654.135 60.4979 653.426 58.7137 652.894 56.9295C651.829 53.5394 651.652 49.971 652.007 47.1162C652.361 44.2614 653.248 41.9419 653.958 40.3361C654.313 39.6224 654.667 38.9087 654.845 38.5519C655.022 38.195 655.199 38.0166 655.199 38.0166C655.199 38.0166 655.022 38.195 654.845 38.5519C654.667 38.9087 654.135 39.444 653.78 40.3361C652.894 41.7635 652.007 44.083 651.475 47.1162C650.942 49.971 650.942 53.5394 652.007 57.2863C652.539 59.0705 653.248 60.8548 654.135 62.639C654.667 63.5311 655.022 64.4232 655.732 65.1369C656.086 65.4938 656.264 66.029 656.618 66.3859C656.973 66.7427 657.151 67.278 657.505 67.6349C658.747 69.2407 660.343 70.4896 661.94 71.7386C663.536 72.8091 665.31 73.8797 667.083 74.5934C668.857 75.3071 670.631 75.8423 672.227 76.1992C672.582 76.3776 673.114 76.3776 673.469 76.3776C673.824 76.3776 674.178 76.556 674.533 76.556C675.243 76.7344 675.952 76.9129 676.662 77.0913C677.903 77.6266 678.968 78.1618 679.854 78.8755C680.741 79.5892 681.273 80.3029 681.806 80.8382C682.16 81.3734 682.515 81.9087 682.692 82.444C682.692 82.6224 682.87 82.8008 682.87 82.8008V82.9792L684.998 82.444V82.2656C684.998 81.9087 684.998 81.7303 684.821 81.3734Z" fill="#390BBA"/>
<path d="M691.739 62.8174C691.739 62.8174 690.498 65.3153 691.207 67.8132C691.917 70.3112 694.045 71.917 694.045 71.917C694.045 71.917 695.287 69.419 694.577 66.9211C693.868 64.4232 691.739 62.8174 691.739 62.8174ZM693.868 71.7385C693.868 71.7385 693.69 71.2033 693.513 70.4896C693.336 70.1327 693.336 69.5975 693.158 69.2406C692.981 68.7054 692.981 68.1701 692.804 67.6348C692.272 65.4937 691.739 63.3527 691.739 63.3527C691.739 63.3527 692.272 65.4937 692.804 67.4564C692.981 67.9917 693.158 68.5269 693.158 69.0622C693.336 69.5975 693.336 69.9543 693.513 70.4896C693.868 71.2033 693.868 71.7385 693.868 71.7385Z" fill="#390BBA"/>
<path d="M693.335 60.8555C693.335 60.8555 693.69 63.5318 695.641 65.316C697.592 67.1003 700.253 67.1003 700.253 67.1003C700.253 67.1003 699.898 64.4239 697.947 62.6397C695.996 61.0339 693.335 60.8555 693.335 60.8555ZM699.188 66.0297C699.72 66.565 700.075 66.9219 700.075 66.9219C700.075 66.9219 699.72 66.7434 699.188 66.0297C698.834 65.8513 698.479 65.6729 697.947 65.316C697.592 64.9592 697.237 64.6024 696.705 64.2455C695.109 62.8181 693.512 61.3907 693.512 61.3907C693.512 61.3907 695.109 62.8181 696.705 64.2455C697.06 64.6024 697.592 64.9592 697.947 65.316C698.479 65.4945 698.834 65.8513 699.188 66.0297Z" fill="#390BBA"/>
<path d="M685.531 69.7762C683.935 71.7389 683.935 74.5937 683.935 74.5937C683.935 74.5937 686.595 74.0584 688.192 72.0957C689.788 70.1331 689.788 67.2783 689.788 67.2783C689.788 67.2783 687.305 67.8136 685.531 69.7762ZM689.611 67.8136C689.611 67.8136 688.369 69.5978 686.95 71.2036C686.595 71.5605 686.24 72.0957 685.886 72.4526C685.531 72.8094 685.176 73.1663 684.999 73.5231C684.467 74.0584 684.112 74.5937 684.112 74.5937C684.112 74.5937 684.467 74.0584 684.821 73.5231C684.999 73.1663 685.354 72.8094 685.708 72.4526C686.063 72.0957 686.418 71.7389 686.773 71.2036C688.192 69.4194 689.611 67.8136 689.611 67.8136Z" fill="#390BBA"/>
<path d="M691.562 73.8799C691.562 73.8799 691.562 76.5562 693.335 78.5189C695.109 80.4815 697.77 80.8384 697.77 80.8384C697.77 80.8384 697.77 78.162 695.996 76.1994C694.222 74.4152 691.562 73.8799 691.562 73.8799ZM697.238 80.66C697.238 80.66 695.819 79.0541 694.4 77.4483C694.045 77.0915 693.69 76.5562 693.335 76.1994C692.981 75.8425 692.626 75.4857 692.448 75.1288C691.916 74.4152 691.562 74.0583 691.562 74.0583C691.562 74.0583 691.916 74.4151 692.448 74.9504C692.803 75.3073 692.981 75.6641 693.335 76.021C693.69 76.3778 694.045 76.7347 694.4 77.2699C695.819 78.8757 697.238 80.66 697.238 80.66Z" fill="#390BBA"/>
<path d="M688.546 75.4854C687.659 75.4854 686.95 76.199 686.95 77.0912C686.95 77.9833 687.659 78.697 688.546 78.697C689.433 78.697 690.142 77.9833 690.142 77.0912C690.142 76.199 689.433 75.4854 688.546 75.4854ZM688.014 77.6264C687.659 77.6264 687.482 77.448 687.482 77.0912C687.482 76.7343 687.659 76.5559 688.014 76.5559C688.369 76.5559 688.546 76.7343 688.546 77.0912C688.546 77.2696 688.369 77.6264 688.014 77.6264Z" fill="#390BBA"/>
<path d="M704.865 40.1574C704.51 39.4437 704.155 38.9084 703.801 38.3732C703.446 38.0163 703.446 37.8379 703.446 37.8379C703.446 37.8379 703.623 38.0163 703.801 38.3732C704.155 38.9084 704.51 39.4437 704.865 40.1574C705.574 41.7632 706.284 44.0827 706.639 46.9375C706.993 49.7922 706.816 53.3607 705.752 56.7508C705.22 58.535 704.51 60.1408 703.623 61.925C703.091 62.8171 702.559 63.5308 702.027 64.2445C701.849 64.6014 701.495 64.9582 701.14 65.3151C700.785 65.6719 700.608 66.0288 700.253 66.3856C699.012 67.813 697.415 69.062 695.996 69.9541C694.4 71.0246 692.803 71.7383 691.03 72.452C689.433 72.9873 687.66 73.5225 686.063 73.8794C685.708 73.8794 685.354 74.0578 684.822 74.0578C684.467 74.0578 683.935 74.2362 683.58 74.2362C682.693 74.4147 681.984 74.5931 681.274 74.7715C679.855 75.3068 678.436 76.0205 677.372 76.7342C676.308 77.4479 675.598 78.34 674.889 79.2321C674.356 79.9458 674.002 80.6595 673.824 81.1947C673.647 81.3732 673.647 81.73 673.647 81.73C673.647 81.9084 673.647 81.9084 673.647 81.9084L675.775 82.4437C675.775 82.4437 675.775 82.4437 675.775 82.2653C675.775 82.2653 675.775 82.0869 675.953 81.9084C676.13 81.5516 676.308 81.0163 676.84 80.3026C677.194 79.7674 677.904 79.0537 678.791 78.34C679.678 77.6263 680.742 77.091 681.984 76.5557C682.693 76.3773 683.403 76.1989 684.112 76.0205C684.467 76.0205 684.822 75.842 685.176 75.842C685.531 75.842 686.063 75.6636 686.418 75.6636C688.192 75.3068 689.788 74.7715 691.562 74.0578C693.336 73.3441 695.109 72.452 696.706 71.203C698.302 70.1325 699.898 68.7051 701.14 67.0993C701.495 66.7425 701.849 66.3856 702.027 65.8503C702.382 65.4935 702.559 65.1367 702.914 64.6014C703.446 63.7093 703.978 62.8171 704.51 62.1035C705.397 60.3192 706.106 58.535 706.639 56.7508C707.525 53.1823 707.525 49.6138 707.171 46.5806C706.639 43.9043 705.752 41.5848 704.865 40.1574Z" fill="#390BBA"/>
<path d="M667.792 51.042C666.373 51.042 665.132 52.291 665.132 53.7183C665.132 55.1457 666.373 56.3947 667.792 56.3947C669.211 56.3947 670.453 55.1457 670.453 53.7183C670.453 52.291 669.211 51.042 667.792 51.042Z" fill="#390BBA"/>
<path d="M690.496 51.042C689.077 51.042 687.835 52.291 687.835 53.7183C687.835 55.1457 689.077 56.3947 690.496 56.3947C691.915 56.3947 693.157 55.1457 693.157 53.7183C693.157 52.291 691.915 51.042 690.496 51.042Z" fill="#390BBA"/>
<path d="M658.747 21.958C657.151 21.958 655.732 23.3854 655.732 24.9912C655.732 26.597 657.151 28.0244 658.747 28.0244C660.344 28.0244 661.763 26.597 661.763 24.9912C661.763 23.3854 660.344 21.958 658.747 21.958Z" fill="#390BBA"/>
<path d="M658.392 16.4268C658.392 41.5844 667.793 61.9247 679.5 61.9247C691.206 61.9247 700.607 41.5844 700.607 16.6052C700.607 16.6052 700.607 16.6052 700.607 16.4268H658.392Z" fill="#390BBA"/>
<path d="M658.392 16.4268C658.392 41.5844 667.793 61.9247 679.5 61.9247C691.206 61.9247 700.607 41.5844 700.607 16.6052C700.607 16.6052 700.607 16.6052 700.607 16.4268H658.392Z" fill="#390BBA"/>
<path d="M673.823 75.3068C670.276 82.6222 667.793 82.8006 667.793 82.8006V84.5848H665.664V88.5102H679.499V62.1035L675.774 62.2819C675.774 62.4604 676.307 70.1326 673.823 75.3068Z" fill="#390BBA"/>
<path d="M691.029 82.8009C691.029 82.8009 688.368 82.6225 684.998 75.3071C682.515 70.1328 683.224 62.4607 683.224 62.4607L679.5 62.2822V88.5104H693.335V84.5851H691.206V82.8009H691.029Z" fill="#390BBA"/>
<path d="M654.49 41.0499C650.587 34.6266 649.523 27.8465 649.168 24.9918H658.747V22.3154H646.508V23.7428C646.508 24.0997 646.863 33.7345 652.361 42.4772C657.86 51.5768 666.728 53.3611 667.083 53.3611L667.615 50.8631C667.438 50.8631 659.634 49.0789 654.49 41.0499Z" fill="#390BBA"/>
<path d="M699.542 24.9918H709.121C708.766 27.8465 707.702 34.6266 703.799 41.0499C698.833 49.0789 690.851 50.8631 690.851 50.8631L691.383 53.3611C691.738 53.3611 700.429 51.3984 706.105 42.4772C711.604 33.5561 711.959 24.0997 711.959 23.7428V22.3154H699.72V24.9918H699.542Z" fill="#390BBA"/>
<path d="M663.713 16.6055H662.648C662.648 16.6055 662.648 16.6055 662.648 16.7839C662.648 30.5225 664.954 43.0121 668.679 51.2196C665.664 43.0121 663.713 30.5225 663.713 16.6055C663.713 16.7839 663.713 16.6055 663.713 16.6055Z" fill="#390BBA"/>
<path d="M691.915 16.6055C691.915 16.6055 691.915 16.7839 691.915 16.6055C691.915 40.6926 686.061 60.4976 678.789 61.925C679.144 61.925 679.499 62.1034 679.853 62.1034C689.254 62.1034 697.059 41.7631 697.059 16.7839C697.059 16.7839 697.059 16.7839 697.059 16.6055H691.915Z" fill="#390BBA"/>
<path d="M685.176 59.9629H673.647C672.937 59.9629 672.228 60.4982 672.228 61.3903V63.5314C672.228 64.245 672.76 64.9587 673.647 64.9587H685.176C685.885 64.9587 686.595 64.4235 686.595 63.5314V61.3903C686.595 60.4982 685.885 59.9629 685.176 59.9629Z" fill="#390BBA"/>
<path d="M690.851 82.8008H667.615V84.7634H690.851V82.8008Z" fill="#390BBA"/>
<path d="M700.784 15H658.215C657.683 15 657.15 15.3568 657.15 16.0705C657.15 16.7842 657.505 17.1411 658.215 17.1411H700.784C701.317 17.1411 701.849 16.7842 701.849 16.0705C701.849 15.3568 701.317 15 700.784 15Z" fill="#390BBA"/>
<path d="M691.308 34.7902C691.856 27.8155 686.679 21.715 679.745 21.1643C672.811 20.6137 666.747 25.8213 666.199 32.796C665.652 39.7707 670.829 45.8712 677.763 46.4219C684.696 46.9726 690.761 41.7649 691.308 34.7902Z" fill="#390BBA"/>
<path d="M685.53 26.7761C685.352 26.7761 685.352 26.5977 684.998 26.5977C684.643 26.5977 684.466 26.9545 684.288 26.9545C684.111 26.9545 683.579 26.7761 683.224 26.9545C682.869 27.1329 683.047 27.4898 682.869 27.4898C682.692 27.4898 682.16 27.4898 682.16 27.8466C681.982 28.2035 682.16 28.3819 682.16 28.5603C681.982 28.7387 681.628 28.7387 681.45 29.0956C681.45 29.274 681.45 29.6309 681.273 29.8093C681.095 29.9877 680.918 30.1661 681.095 30.1661C681.095 30.1661 681.095 30.1661 681.273 30.3445C681.273 30.3445 681.45 30.1661 681.45 29.9877C681.982 29.274 682.692 27.6682 683.579 27.3113C684.288 26.9545 685.175 26.9545 685.885 26.9545C686.239 26.9545 686.594 27.3113 686.949 27.4898C686.949 27.4898 686.949 27.4898 687.126 27.6682C687.126 27.6682 687.304 27.1329 686.949 26.9545C686.417 26.5977 685.707 26.5977 685.53 26.7761Z" fill="#390BBA"/>
<path d="M673.292 30.8789C671.873 30.8789 671.695 32.3063 671.695 32.6631C671.695 33.1984 672.05 34.269 672.05 34.6258C672.227 34.9826 672.05 35.6963 671.873 36.0532C671.695 36.41 670.986 37.1237 670.986 37.3022C670.986 37.4806 671.163 38.7295 671.163 39.2648C671.163 39.8001 671.163 40.5138 671.163 40.6922C671.163 40.8706 671.518 40.8706 671.518 41.049C671.695 41.049 671.873 41.2275 671.873 41.2275L672.582 40.8706C672.582 40.8706 672.227 40.6922 672.05 40.5138C671.873 40.5138 671.873 40.3353 671.695 40.1569C671.518 39.9785 671.695 38.5511 671.695 38.1943C671.873 37.8374 672.405 37.1237 672.76 36.5885C673.114 36.2316 673.646 35.3395 674.179 34.8042C674.711 34.269 675.598 33.1984 675.243 32.1279C675.243 31.2358 674.001 30.7005 673.292 30.8789Z" fill="#390BBA"/>
<path d="M672.759 40.8711L672.049 41.2279C672.049 41.2279 672.049 41.4064 672.227 41.4064C672.404 41.5848 673.468 41.4064 673.468 41.4064C673.468 41.4064 673.291 41.2279 673.114 41.0495C672.936 41.0495 672.759 40.8711 672.759 40.8711Z" fill="#390BBA"/>
<path d="M670.985 30.7012C670.276 31.4149 670.631 33.1991 669.566 34.6265C669.212 35.1618 667.615 35.1618 667.615 35.1618C667.615 35.1618 667.97 35.5186 668.325 35.697C668.679 35.8755 669.034 35.697 669.034 35.697C669.034 35.697 668.857 35.8755 668.502 36.0539C668.325 36.0539 667.97 36.0539 667.97 36.0539C667.97 36.0539 668.502 36.5892 669.389 36.2323L669.212 36.7676C669.212 36.7676 669.744 36.7676 670.276 36.4107C670.808 36.0539 671.163 35.697 671.163 35.697V36.5892C671.163 36.5892 671.695 35.8755 671.872 35.697C671.872 35.5186 672.05 34.9834 672.05 34.9834L672.227 35.5186C672.227 35.5186 672.582 35.1618 672.582 33.7344C672.582 32.307 672.227 30.5228 672.227 30.5228C672.227 30.5228 671.695 29.9875 670.985 30.7012Z" fill="#390BBA"/>
<path d="M686.594 36.0532C686.594 35.8748 686.417 35.518 686.062 35.3395C685.707 35.1611 683.933 34.8043 683.933 34.6259C683.933 34.4474 684.465 34.269 684.465 33.9122C684.465 33.5553 684.465 32.8416 683.579 32.4848C682.692 31.9495 682.337 32.1279 681.982 32.3064C681.273 32.6632 681.273 33.5553 681.45 34.0906C681.627 34.4474 682.16 34.9827 682.337 35.518C682.514 35.8748 682.692 36.0532 683.401 36.0532C684.111 36.0532 685.707 36.0532 685.884 36.2317C686.062 36.4101 686.062 37.4806 686.062 37.659C686.062 37.8375 685.884 38.0159 686.062 38.1943C686.062 38.3727 685.884 38.3727 685.884 38.3727C685.707 38.3727 686.417 38.908 686.417 38.908C686.417 38.908 686.417 38.7296 686.417 38.5512C686.417 38.3727 686.594 38.0159 686.771 38.0159C686.949 37.8375 686.771 37.659 686.771 37.1238C686.417 36.5885 686.594 36.2317 686.594 36.0532Z" fill="#390BBA"/>
<path d="M683.401 27.1329C682.514 27.4897 681.805 28.9171 681.272 29.8092C680.74 30.5229 680.208 30.8798 678.789 30.8798C677.548 31.0582 676.129 30.1661 674.532 30.1661C672.936 29.9876 672.049 30.8798 671.694 31.5935C671.517 32.4856 671.517 33.3777 672.226 33.913C672.936 34.6266 674.887 34.8051 675.774 34.9835C676.483 34.9835 678.789 36.2325 680.74 36.2325C682.691 36.2325 684.288 34.8051 684.465 34.0914C684.643 33.3777 684.288 32.8424 684.288 32.664C684.288 32.4856 684.643 30.5229 684.643 29.9876C684.82 29.2739 686.771 27.4897 686.062 27.1329C685.529 26.776 684.288 26.776 683.401 27.1329Z" fill="#390BBA"/>
<path d="M675.597 34.9836C675.952 34.6268 676.306 33.5562 676.129 32.8425C675.952 32.1288 675.065 30.8799 674 30.8799C672.049 30.8799 671.517 32.4857 671.695 33.1994C671.872 33.9131 673.114 35.162 673.114 35.5189C673.114 35.8757 672.227 36.5894 672.404 36.7679C672.404 36.9463 675.065 38.0168 675.242 38.1952C675.419 38.3737 675.419 38.5521 675.419 38.5521L676.129 38.9089C676.129 38.9089 675.952 37.8384 675.774 37.8384C675.597 37.66 673.646 36.7679 673.646 36.5894C673.468 36.411 674.71 35.8757 675.597 34.9836Z" fill="#390BBA"/>
<path d="M675.065 38.9086C675.065 38.9086 675.597 39.8007 675.774 39.8007C675.952 39.8007 675.952 39.4439 676.129 39.2655C676.129 39.087 676.129 38.9086 676.129 38.9086L675.42 38.5518C675.242 38.5518 675.065 38.7302 675.065 38.9086Z" fill="#390BBA"/>
<path d="M682.869 32.1276C680.741 32.6629 681.627 34.804 681.627 35.3392C681.627 35.8745 681.273 37.4803 681.273 37.6587C681.273 37.8372 681.095 38.194 681.273 38.3724C681.45 38.5508 681.273 39.2645 681.095 39.6214C681.095 39.9782 680.918 40.6919 680.918 40.6919C680.918 40.8703 681.273 40.8703 681.273 40.8703C681.45 40.8703 681.45 41.0488 681.45 41.0488L682.16 40.8703C682.16 40.8703 681.805 40.5135 681.627 40.3351C681.45 39.9782 681.627 39.443 681.805 38.9077C681.805 38.9077 682.16 37.6587 682.337 37.3019C682.514 36.945 682.869 36.2313 683.046 36.0529C683.401 35.5177 683.933 35.3392 684.111 34.9824C684.465 34.6255 684.465 33.9118 684.288 33.1982C683.933 32.306 683.224 31.9492 682.869 32.1276Z" fill="#390BBA"/>
<path d="M682.338 40.8711L681.628 41.0495C681.628 41.0495 681.628 41.4064 681.628 41.5848C681.628 41.5848 682.693 41.7632 682.693 41.5848C682.693 41.5848 682.515 41.4064 682.515 41.2279C682.515 41.0495 682.338 40.8711 682.338 40.8711Z" fill="#390BBA"/>
<path d="M685.176 38.5518C685.176 38.7302 685.353 39.4439 685.531 39.6223C685.708 39.8008 685.708 39.4439 685.885 39.4439C686.063 39.2655 686.063 39.0871 686.063 39.0871L685.531 38.5518C685.708 38.3734 685.353 38.3734 685.176 38.5518Z" fill="#390BBA"/>
<path d="M687.127 28.9163C686.95 28.5594 686.95 27.8457 686.595 27.4889C686.241 27.132 685.708 26.5968 685.354 26.9536C684.999 27.3105 684.644 28.5594 684.822 28.9163C684.999 29.4515 685.708 29.8084 685.886 29.9868C686.241 30.1652 686.418 30.3437 686.418 30.5221C686.418 30.7005 686.418 30.8789 686.595 30.8789L687.305 31.0574C687.482 31.0574 687.482 30.8789 687.66 30.7005C687.837 30.7005 687.837 30.5221 687.837 30.3437C687.837 30.1652 687.837 29.9868 687.66 29.8084C687.66 29.8084 687.305 29.0947 687.127 28.9163Z" fill="#390BBA"/>
<path d="M686.239 26.2402C686.062 26.2402 685.885 26.5971 685.707 26.7755C685.53 26.9539 685.707 27.3108 685.885 27.3108C686.417 27.3108 686.417 26.7755 686.239 26.5971C686.239 26.4187 686.417 26.2402 686.239 26.2402Z" fill="#390BBA"/>
<path d="M642.378 120L639.983 115L637.429 120L632 120.806L635.992 124.677L635.034 130.323L639.983 127.742L644.933 130.323L643.975 124.677L647.966 120.806L642.378 120Z" fill="#FFC806"/>
<path d="M677.471 92.2581L676.353 90L675.395 92.2581L673 92.5806L674.756 94.1935L674.277 96.6129L676.353 95.4839L678.588 96.6129L678.109 94.1935L679.866 92.5806L677.471 92.2581Z" fill="#E52900"/>
<path d="M675.866 128.387L674.269 125L672.672 128.387L669 128.871L671.714 131.452L671.076 135.161L674.269 133.387L677.622 135.161L676.983 131.452L679.538 128.871L675.866 128.387Z" fill="#12D2C7"/>
<path d="M473 45C473 41.6863 475.686 39 479 39H639C642.314 39 645 41.6863 645 45V97C645 100.314 642.314 103 639 103H479C475.686 103 473 100.314 473 97V45Z" fill="#F2782C"/>
<g filter="url(#filter1_d)">
<path d="M505.902 71.419H509.01V77.383C508.212 77.985 507.288 78.447 506.238 78.769C505.188 79.091 504.131 79.252 503.067 79.252C501.541 79.252 500.169 78.93 498.951 78.286C497.733 77.628 496.774 76.725 496.074 75.577C495.388 74.415 495.045 73.106 495.045 71.65C495.045 70.194 495.388 68.892 496.074 67.744C496.774 66.582 497.74 65.679 498.972 65.035C500.204 64.377 501.59 64.048 503.13 64.048C504.418 64.048 505.587 64.265 506.637 64.699C507.687 65.133 508.569 65.763 509.283 66.589L507.099 68.605C506.049 67.499 504.782 66.946 503.298 66.946C502.36 66.946 501.527 67.142 500.799 67.534C500.071 67.926 499.504 68.479 499.098 69.193C498.692 69.907 498.489 70.726 498.489 71.65C498.489 72.56 498.692 73.372 499.098 74.086C499.504 74.8 500.064 75.36 500.778 75.766C501.506 76.158 502.332 76.354 503.256 76.354C504.236 76.354 505.118 76.144 505.902 75.724V71.419ZM523.553 76.27V79H512.171V64.3H523.28V67.03H515.552V70.222H522.377V72.868H515.552V76.27H523.553ZM529.304 67.072H524.6V64.3H537.41V67.072H532.706V79H529.304V67.072ZM550.018 79.252C548.856 79.252 547.729 79.098 546.637 78.79C545.559 78.468 544.691 78.055 544.033 77.551L545.188 74.989C545.818 75.451 546.567 75.822 547.435 76.102C548.303 76.382 549.171 76.522 550.039 76.522C551.005 76.522 551.719 76.382 552.181 76.102C552.643 75.808 552.874 75.423 552.874 74.947C552.874 74.597 552.734 74.31 552.454 74.086C552.188 73.848 551.838 73.659 551.404 73.519C550.984 73.379 550.41 73.225 549.682 73.057C548.562 72.791 547.645 72.525 546.931 72.259C546.217 71.993 545.601 71.566 545.083 70.978C544.579 70.39 544.327 69.606 544.327 68.626C544.327 67.772 544.558 67.002 545.02 66.316C545.482 65.616 546.175 65.063 547.099 64.657C548.037 64.251 549.178 64.048 550.522 64.048C551.46 64.048 552.377 64.16 553.273 64.384C554.169 64.608 554.953 64.93 555.625 65.35L554.575 67.933C553.217 67.163 551.859 66.778 550.501 66.778C549.549 66.778 548.842 66.932 548.38 67.24C547.932 67.548 547.708 67.954 547.708 68.458C547.708 68.962 547.967 69.34 548.485 69.592C549.017 69.83 549.822 70.068 550.9 70.306C552.02 70.572 552.937 70.838 553.651 71.104C554.365 71.37 554.974 71.79 555.478 72.364C555.996 72.938 556.255 73.715 556.255 74.695C556.255 75.535 556.017 76.305 555.541 77.005C555.079 77.691 554.379 78.237 553.441 78.643C552.503 79.049 551.362 79.252 550.018 79.252ZM569.962 76.27V79H558.58V64.3H569.689V67.03H561.961V70.222H568.786V72.868H561.961V76.27H569.962ZM575.714 67.072H571.01V64.3H583.82V67.072H579.116V79H575.714V67.072ZM601.53 71.419H604.638V77.383C603.84 77.985 602.916 78.447 601.866 78.769C600.816 79.091 599.759 79.252 598.695 79.252C597.169 79.252 595.797 78.93 594.579 78.286C593.361 77.628 592.402 76.725 591.702 75.577C591.016 74.415 590.673 73.106 590.673 71.65C590.673 70.194 591.016 68.892 591.702 67.744C592.402 66.582 593.368 65.679 594.6 65.035C595.832 64.377 597.218 64.048 598.758 64.048C600.046 64.048 601.215 64.265 602.265 64.699C603.315 65.133 604.197 65.763 604.911 66.589L602.727 68.605C601.677 67.499 600.41 66.946 598.926 66.946C597.988 66.946 597.155 67.142 596.427 67.534C595.699 67.926 595.132 68.479 594.726 69.193C594.32 69.907 594.117 70.726 594.117 71.65C594.117 72.56 594.32 73.372 594.726 74.086C595.132 74.8 595.692 75.36 596.406 75.766C597.134 76.158 597.96 76.354 598.884 76.354C599.864 76.354 600.746 76.144 601.53 75.724V71.419ZM614.917 79.252C613.391 79.252 612.012 78.923 610.78 78.265C609.562 77.607 608.603 76.704 607.903 75.556C607.217 74.394 606.874 73.092 606.874 71.65C606.874 70.208 607.217 68.913 607.903 67.765C608.603 66.603 609.562 65.693 610.78 65.035C612.012 64.377 613.391 64.048 614.917 64.048C616.443 64.048 617.815 64.377 619.033 65.035C620.251 65.693 621.21 66.603 621.91 67.765C622.61 68.913 622.96 70.208 622.96 71.65C622.96 73.092 622.61 74.394 621.91 75.556C621.21 76.704 620.251 77.607 619.033 78.265C617.815 78.923 616.443 79.252 614.917 79.252ZM614.917 76.354C615.785 76.354 616.569 76.158 617.269 75.766C617.969 75.36 618.515 74.8 618.907 74.086C619.313 73.372 619.516 72.56 619.516 71.65C619.516 70.74 619.313 69.928 618.907 69.214C618.515 68.5 617.969 67.947 617.269 67.555C616.569 67.149 615.785 66.946 614.917 66.946C614.049 66.946 613.265 67.149 612.565 67.555C611.865 67.947 611.312 68.5 610.906 69.214C610.514 69.928 610.318 70.74 610.318 71.65C610.318 72.56 610.514 73.372 610.906 74.086C611.312 74.8 611.865 75.36 612.565 75.766C613.265 76.158 614.049 76.354 614.917 76.354Z" fill="white"/>
</g>
<path d="M162.135 61.9185C166.199 61.3213 171.391 59.7329 173.167 60.1871C174.962 60.6389 176.979 61.2262 177.954 61.3309C178.909 61.438 179.737 62.6786 179.519 63.5791C179.301 64.4797 181.917 65.2785 185.791 65.4768C189.685 65.6727 193.362 67.2771 193.362 67.2771L192.376 71.1168C192.376 71.1168 191.44 72.166 189.629 72.2649C187.452 72.5507 184.965 72.9759 183.377 72.885L182.85 72.929L180.428 72.8789L178.597 72.9802L177.41 72.9827L175.712 73.332C175.712 73.332 174.114 73.8318 173.876 74.064C173.636 74.2763 172.715 74.9576 172.714 75.791C172.714 76.6245 173.836 77.0973 174.686 77.014C175.536 76.9307 177.005 76.5483 178.222 76.1154C179.461 75.7 180.113 75.3359 180.881 75.5878C181.646 75.8197 184.102 76.3129 184.102 76.3129C184.102 76.3129 186.613 76.4132 187.358 76.1395C188.105 75.8857 188.202 75.508 188.202 75.508C188.31 76.2265 187.767 77.1464 186.893 77.7002C186.021 78.274 185.087 77.8391 182.619 77.9165C180.15 77.994 180.095 78.7122 177.892 79.123C175.69 79.5339 174.689 78.7209 172.418 80.0752C170.146 81.4294 161.841 85.5317 159.726 87.497C157.61 89.4622 156.782 89.8885 153.79 92.2248C150.796 94.5412 144.231 105.687 144.231 105.687C144.231 105.687 134.198 99.6547 134.181 99.5145C134.166 99.3944 130.774 83.6698 130.774 83.6698L131.787 82.7334C132.747 82.7179 148.602 78.7315 151.509 74.19C150.614 74.2382 150.903 73.9185 150.009 74.1493C149.113 74.3602 147.8 75.0082 147.003 75.0241C146.207 75.0399 144.877 75.2223 144.231 73.4515C146.098 72.4718 147.151 72.0385 149.574 68.8976C152.003 65.8167 156.405 61.4385 162.135 61.9185Z" fill="#E4B17C"/>
<path d="M179.518 63.5796C179.734 62.6591 178.929 61.436 177.954 61.3314C177.808 61.3086 177.662 61.2857 177.473 61.2478C178.311 62.2431 177.103 64.9311 178.837 66.2237C180.703 67.5816 179.286 71.4129 173.191 71.1399C167.114 70.8444 163.717 77.0717 174.271 79.1585C174.48 79.194 174.69 79.2295 174.901 79.285C175.816 79.2343 176.673 79.3738 177.894 79.1436C180.097 78.7327 180.152 78.0145 182.621 77.9371C185.089 77.8596 186.023 78.2946 186.895 77.7207C187.767 77.1469 188.31 76.227 188.204 75.5285C188.204 75.5285 188.104 75.8862 187.36 76.16C186.612 76.4137 184.104 76.3334 184.104 76.3334C184.104 76.3334 181.648 75.8402 180.883 75.6084C180.117 75.3765 179.443 75.723 178.224 76.1359C176.984 76.5513 175.538 76.9512 174.688 77.0345C173.838 77.1179 172.716 76.645 172.716 75.8116C172.717 74.9781 173.617 74.2993 173.878 74.0846C174.118 73.8723 175.714 73.3526 175.714 73.3526L177.412 73.0032L178.599 73.0007L180.43 72.8994L182.85 72.9295L183.377 72.8855C184.965 72.9764 187.452 72.5512 189.629 72.2654C191.439 72.1666 192.376 71.1173 192.376 71.1173L193.362 67.2776C193.362 67.2776 189.705 65.6707 185.811 65.4749C181.917 65.279 179.3 64.4802 179.518 63.5796Z" fill="#BF905F"/>
<path d="M181.639 75.5971C182.415 74.5676 184.252 74.0183 184.096 74.5861C183.94 75.1539 183.827 75.7368 184.195 75.5699C184.564 75.403 184.782 75.8439 184.782 75.8439C185.598 75.3176 187.218 75.6688 186.598 76.2932C186.6 76.3133 183.798 76.6753 181.639 75.5971Z" fill="#FFF4E5"/>
<path d="M183.041 72.9873C183.283 73.6285 184.392 73.6559 184.555 73.3108C184.632 75.6185 186.281 74.1979 186.492 73.5827C187.131 74.1146 188.504 72.4431 188.504 72.4431C188.504 72.4431 183.817 73.1366 183.041 72.9873Z" fill="#FFF4E5"/>
<path d="M174.825 76.9772C175.951 76.1286 176.998 74.4765 177.608 74.4427C178.219 74.4089 177.564 75.5864 178.324 75.2701C179.084 74.9538 179.831 75.2082 179.88 75.6087C178.994 75.8997 178.376 76.0361 178.325 76.1236C178.257 76.2335 175.022 77.0752 174.825 76.9772Z" fill="#FFF4E5"/>
<path d="M97.887 109.369C108.988 112.242 113.576 116.785 113.576 116.785L135.897 116.278C140.493 113.502 144.232 105.709 144.232 105.709C131.94 96.7606 131.811 82.7723 131.811 82.7723C131.811 82.7723 122.442 83.0205 111.643 80.7805C100.844 78.5405 94.135 74.9075 90.636 77.448C87.1369 79.9885 76.8517 96.568 77.0934 98.5507C77.3328 100.513 78.9783 110.313 79.7248 110.892C80.4737 111.492 97.887 109.369 97.887 109.369Z" fill="#FFC806"/>
<path d="M128.721 94.0435C138.676 98.6019 137.104 113.245 135.917 116.276C134.71 119.309 123.082 126.723 114.567 128.432C106.052 130.141 85.2665 141.558 83.0168 146.955C80.7646 152.331 70.1304 156.981 69.0988 157.758C66.4183 154.08 70.0965 147.636 74.1521 147.812C79.6866 141.812 82.1687 140.168 81.7318 138.432C81.2973 136.717 81.6607 136.002 83.6649 135.981C85.6692 135.96 97.0151 127.91 100.802 125.883C104.589 123.856 109.262 118.185 110.398 112.721C111.514 107.26 115.413 93.2274 128.721 94.0435Z" fill="#C4986B"/>
<path d="M45.961 94.806C44.2913 97.5706 42.6254 103.221 37.8167 109.295C32.6735 115.817 23.2775 123.568 16.5585 123.717C10.9638 123.85 3.71824 117.498 8.52364 112.908C6.24368 112.515 4.39079 117.64 6.17679 121.202C7.96278 124.765 12.4256 128.448 20.1537 127.506C27.8817 126.564 38.6305 116.472 42.7889 112.957C46.2238 110.059 51.7394 106.927 51.8539 106.018C51.9708 105.13 45.961 94.806 45.961 94.806Z" fill="#C4986B"/>
<path d="M176.672 65.9395C176.755 66.6204 176.481 67.223 176.077 67.2722C175.674 67.3214 175.262 66.8025 175.179 66.1216C175.096 65.4406 175.371 64.8381 175.774 64.7888C176.18 64.7597 176.589 65.2586 176.672 65.9395Z" fill="#2E0B06"/>
<path d="M176.091 68.3884C175.485 68.4623 175.098 68.3063 174.874 68.1506C174.514 67.8896 174.319 67.4662 174.294 66.9206C174.282 66.8204 174.355 66.7505 174.458 66.7582C174.559 66.7459 174.632 66.8387 174.622 66.9212C174.618 67.2266 174.709 67.6422 175.046 67.8857C175.406 68.1467 175.981 68.1579 176.687 67.9091C176.766 67.8793 176.874 67.9271 176.904 68.0047C176.934 68.0824 176.885 68.1899 176.807 68.2197C176.532 68.3143 176.292 68.3638 176.091 68.3884Z" fill="#2E0B06"/>
<path d="M152.974 74.7845C152.409 74.8534 151.92 74.7097 151.432 74.566C150.795 74.3795 150.178 74.1905 149.42 74.5268C148.294 75.03 146.673 75.5121 145.447 75.0315C144.846 74.8 144.424 74.3637 144.162 73.7249C144.132 73.6473 144.16 73.5422 144.259 73.5099C144.337 73.48 144.443 73.5077 144.475 73.6054C144.705 74.1465 145.079 74.5277 145.595 74.729C146.778 75.1945 148.426 74.6073 149.303 74.2362C150.176 73.8451 150.879 74.0643 151.559 74.2659C152.345 74.4953 153.07 74.7321 154.106 73.9959C155.598 72.9604 155.942 71.9225 156.319 70.8195C156.442 70.4794 156.559 70.0992 156.719 69.7342C157.424 68.1238 159.444 67.3897 160.262 67.5541C160.346 67.5643 160.418 67.6571 160.388 67.7421C160.377 67.8247 160.284 67.897 160.198 67.8668C159.465 67.7327 157.63 68.4646 157.019 69.8399C156.856 70.1849 156.736 70.5451 156.634 70.8828C156.257 71.9857 155.884 73.1287 154.299 74.2366C153.809 74.581 153.377 74.7352 152.974 74.7845Z" fill="#BF905F"/>
<path d="M168.804 80.3337C159.788 80.4575 159.183 77.1776 158.497 73.3995C158.421 72.9413 158.322 72.4656 158.223 71.9898C158.211 71.8897 158.262 71.8022 158.342 71.7923C158.443 71.78 158.531 71.8303 158.541 71.9104C158.64 72.3861 158.742 72.8819 158.818 73.3401C159.487 76.978 160.054 80.1202 168.785 80.0108C168.886 79.9985 168.959 80.0912 168.948 80.1738C168.955 80.2339 168.884 80.3238 168.804 80.3337Z" fill="#B8B8B8"/>
<path d="M193.361 67.2781C191.533 67.3995 189.841 68.6423 189.686 68.8848C189.907 69.8538 191.4 69.6717 191.4 69.6717C191.117 69.1981 191.925 68.937 192.133 69.2978C192.341 69.6587 191.911 69.833 191.911 69.833C192.631 70.1924 192.239 71.1751 192.239 71.1751C192.78 70.7433 194.819 68.3198 193.361 67.2781Z" fill="#2E0B06"/>
<path d="M186.421 76.5181C185.735 76.6018 184.893 76.5825 183.953 76.4329C183.137 76.2885 182.523 76.1196 182.016 75.9984C180.81 75.678 180.216 75.5066 178.794 76.1068C177.334 76.7319 174.518 77.4819 173.217 76.8885C172.89 76.7251 172.679 76.507 172.579 76.1939C172.438 75.7031 172.541 75.2027 172.873 74.7354C173.643 73.6658 175.501 72.9514 177.844 72.8487C179.188 72.7864 180.395 72.7814 181.563 72.7813C183.569 72.7805 185.309 72.7716 187.1 72.5126L187.281 72.4904C189.915 72.088 191.804 71.7966 192.112 71.129C192.143 71.044 192.241 71.0116 192.327 71.0419C192.412 71.0721 192.445 71.1697 192.414 71.2548C192.045 72.0924 190.176 72.3814 187.341 72.8084L187.179 72.8281C185.371 73.1096 183.629 73.0985 181.602 73.1018C180.434 73.1018 179.227 73.1068 177.883 73.1691C175.641 73.2595 173.879 73.9216 173.159 74.9037C172.878 75.2835 172.806 75.6988 172.913 76.072C172.98 76.2873 173.123 76.4528 173.382 76.5635C174.404 77.0487 176.881 76.5433 178.672 75.7761C180.192 75.1436 180.91 75.3203 182.096 75.6431C182.625 75.7819 183.196 75.9358 184.013 76.0801C186.187 76.4451 187.527 76.0174 187.869 75.6302C187.925 75.5827 187.938 75.5202 187.933 75.4801C187.903 75.4025 187.951 75.295 188.052 75.2827C188.13 75.2528 188.238 75.3006 188.251 75.4007C188.29 75.5585 188.247 75.706 188.123 75.8635C187.834 76.1832 187.228 76.4197 186.421 76.5181Z" fill="#2E0B06"/>
<path d="M90.6386 77.4674C86.893 84.3672 84.9273 102.168 85.1275 103.81C90.1906 104.859 94.4885 104.335 95.8174 106.165C97.1665 107.992 101.318 106.267 103.839 115.858C106.36 125.449 107.619 138.628 116.424 144.668C125.229 150.708 139.93 151.029 143.442 149.605C145.634 150.11 146.781 153.975 146.82 154.295C146.859 154.615 145.468 155.131 145.468 155.131C144.862 156.546 141.685 158.031 136.126 155.599C130.566 153.167 118.935 150.48 115.907 150.504C112.882 150.548 108.245 151.987 108.249 148.328C105.03 139.391 100.045 132.438 91.5792 130.015C83.1156 127.612 65.1886 130.225 53.3937 121.664C41.581 113.125 45.6103 95.6212 45.9614 94.806C48.6089 90.8246 57.0105 80.7959 69.2168 78.9619C81.4256 77.1478 90.6386 77.4674 90.6386 77.4674Z" fill="#E4B17C"/>
<path d="M96.1179 106.778C96.0573 106.786 95.9919 106.753 95.9442 106.698C95.2737 105.398 93.8577 105.205 87.0245 104.249L85.0869 103.977C81.6703 103.5 79.6271 102.529 78.8514 101.039C78.0483 99.4902 78.8447 97.6248 79.4899 96.3672C79.5407 96.2797 79.6391 96.2474 79.707 96.3001C79.795 96.3503 79.8274 96.448 79.7742 96.5155C79.0935 97.818 78.4139 99.4659 79.1394 100.882C79.8399 102.26 81.8581 103.192 85.1285 103.647L87.0661 103.919C94.1916 104.92 95.4817 105.088 96.2322 106.541C96.2824 106.616 96.234 106.724 96.1582 106.774C96.1582 106.774 96.138 106.776 96.1179 106.778Z" fill="#BA8C5D"/>
<path d="M124.42 123.083C124.34 123.093 124.274 123.06 124.244 122.983C124.214 122.905 124.243 122.8 124.341 122.768C126.967 121.634 135.658 115.656 133.885 109.348C133.855 109.27 133.904 109.162 134.005 109.15C134.083 109.12 134.191 109.168 134.203 109.268C136.043 115.792 127.148 121.938 124.461 123.078C124.458 123.058 124.441 123.081 124.42 123.083Z" fill="#B8B8B8"/>
<path d="M82.6209 139.339C82.5604 139.346 82.495 139.313 82.4699 139.276C81.951 138.546 81.7903 137.733 82.0722 137.19C82.2551 136.843 82.5988 136.638 83.0476 136.624C83.1485 136.612 83.2212 136.704 83.2108 136.787C83.2206 136.867 83.1294 136.96 83.0463 136.949C82.7186 136.949 82.4886 137.078 82.3767 137.336C82.1632 137.768 82.3093 138.462 82.7531 139.079C82.8032 139.154 82.7952 139.256 82.7194 139.306C82.6815 139.331 82.6613 139.334 82.6209 139.339Z" fill="#B8B8B8"/>
<path d="M142.611 99.6254C142.59 99.6279 142.57 99.6303 142.527 99.6152C142.442 99.585 142.389 99.4898 142.42 99.4048C144.379 93.6374 150.25 86.0312 155.867 83.9031C155.945 83.8732 156.054 83.921 156.084 83.9986C156.114 84.0763 156.065 84.1838 155.987 84.2137C150.47 86.3295 144.688 93.8233 142.742 99.5281C142.729 99.5906 142.671 99.618 142.611 99.6254Z" fill="#B8B8B8"/>
<path d="M138.932 93.3058C138.851 93.3157 138.783 93.263 138.753 93.1853C138.723 93.1077 138.772 93.0002 138.873 92.9879C142.353 91.974 144.69 89.9816 144.708 89.9592C144.781 89.8892 144.885 89.897 144.935 89.9721C145.005 90.0449 144.997 90.1475 144.921 90.1974C144.904 90.2199 142.528 92.2371 138.97 93.2809C138.952 93.3034 138.932 93.3058 138.932 93.3058Z" fill="#B8B8B8"/>
<g filter="url(#filter2_d)">
<path d="M6.79017 69.0407C1.52211 71.748 -0.449505 75.0147 -6.6291 75.9798C-12.7782 76.953 -19.0586 80.0951 -29.9758 85.9641C-40.8929 91.833 -56.4568 92.918 -56.6903 93.8031C-56.9238 94.6882 -57.1166 94.8006 -46.8079 93.6515C-36.4993 92.5024 -29.308 89.6822 -20.6168 85.1357C-11.9368 80.57 -3.93062 82.5187 2.37514 80.0852C8.68091 77.6517 6.79017 69.0407 6.79017 69.0407Z" fill="#2D2824"/>
<path d="M-0.623111 84.3373C-2.11281 95.9249 -9.35613 97.1481 -14.5338 96.4188C-19.6922 95.6784 -21.2089 93.0748 -23.6595 94.0116C-26.1102 94.9484 -54.1691 110.545 -54.6361 112.315C-55.1031 114.085 -57.8161 121.4 -57.8161 121.4C-55.2008 124.604 -50.0342 122.343 -49.2732 117.664C-48.5121 112.984 -50.4353 113.097 -40.7419 109.207C-31.0486 105.316 -28.6697 103.414 -25.291 106.198C-21.9235 108.964 -15.6231 115.522 -6.38788 112.131C2.8473 108.74 9.20947 97.8016 8.67019 96.8759C8.11968 95.9309 -0.623111 84.3373 -0.623111 84.3373Z" fill="#2D2824"/>
<path d="M53.066 44.4084C50.2503 48.7093 37.9665 59.0165 29.8622 59.9147C21.7387 60.8241 11.7154 62.9951 4.90076 70.1422C-1.92509 77.2699 -2.44022 87.2049 -2.74852 92.3956C-3.06806 97.5671 -6.10969 106.313 -8.99002 108.508C-11.8816 110.683 -23.7727 111.643 -25.6519 110.723C-27.5005 109.811 -30.027 108.622 -31.6429 110.726C-33.2395 112.819 -48.7575 136.995 -50.5374 139.35C-52.3173 141.704 -54.6288 143.722 -54.6288 143.722C-54.2279 144.987 -53.2278 146.393 -52.3489 146.217C-50.7923 146.627 -47.5178 146.218 -46.183 143.942C-42.2844 142.343 -40.7954 134.656 -39.9358 131.831C-39.0762 129.005 -33.2658 119.292 -25.3033 118.993C-17.352 118.674 -1.42854 120.867 6.37535 117.148C14.1792 113.428 17.7568 105.868 21.5974 101.642C25.4574 97.4039 38.5394 90.1963 39.59 76.7464C48.1911 69.6952 58.0463 66.6147 58.0463 66.6147C58.0463 66.6147 59.9279 57.8726 59.7407 56.6644C59.5341 55.4673 58.4002 46.648 58.4002 46.648L53.066 44.4084Z" fill="#3C362F"/>
<path d="M108.158 34.4243C111.964 37.9418 112.078 43.0155 117.484 43.8702C122.879 44.7056 139.994 41.1409 146.47 38.8666C152.946 36.5922 155.325 34.3797 156.484 32.9553C157.644 31.5309 159.41 30.8379 159.66 30.6918C159.911 30.5458 162.903 30.7146 163.049 30.9653C163.294 31.8298 162.741 32.5653 162.741 32.5653C163.054 33.5456 161.854 35.7427 161.305 36.3979C160.777 37.0418 158.773 39.1903 157.35 39.4513C155.915 39.6931 153.736 40.9626 153.065 42.2058C152.364 43.4408 152.147 43.6447 150.998 43.6682C149.838 43.6723 141.746 47.7403 139.188 49.6442C136.629 51.5482 125.871 56.3167 125.074 56.3677C124.277 56.4186 113.981 59.0072 112.627 57.3934C111.274 55.7796 102.582 45.2929 102.297 43.9609C102.028 42.5678 108.158 34.4243 108.158 34.4243Z" fill="#2D2824"/>
<path d="M86.8521 21.3936C90.4737 20.782 96.2222 17.924 96.2222 17.924C96.2222 17.924 95.3579 17.8592 95.5657 16.8857C95.8041 15.9203 97.5638 15.1276 100.202 15.089C102.84 15.0504 104.911 14.748 106.687 12.9641C108.464 11.1802 112.772 9.57448 116.908 8.24985C121.044 6.92522 125.121 9.3552 125.705 10.3581C126.278 11.3417 130.67 13.8714 133.35 14.7904C136.059 15.7174 145.412 16.8298 145.714 17.4807C146.016 18.1315 145.85 20.5526 145.147 20.8076C144.005 22.9711 142.707 25.0444 139.635 25.1808C136.563 25.3172 133.165 25.2043 129.046 27.268C124.927 29.3317 119.64 32.6703 113.695 30.8899C111.173 32.2814 107.578 37.3722 107.578 37.3722C107.578 37.3722 105.707 38.462 105.445 38.2787C105.183 38.0954 96.8151 31.5789 96.2835 31.2428C95.8017 30.9035 86.8521 21.3936 86.8521 21.3936Z" fill="#3C362F"/>
<path d="M133.392 14.8173C131.204 14.077 127.909 12.2772 126.442 11.0907C126.884 13.9331 134.175 19.3982 131.652 19.9896C128.953 20.6322 118.474 24.2827 126.31 28.7328C127.308 28.2289 128.237 27.7395 129.138 27.2917C133.257 25.2281 136.644 25.3216 139.727 25.2045C142.799 25.0682 144.097 22.9948 145.239 20.8314C145.923 20.5876 146.089 18.1665 145.806 17.5044C145.474 16.8455 136.091 15.725 133.392 14.8173Z" fill="#807A73"/>
<path d="M81.1837 62.434C73.0147 69.5176 66.073 68.7311 60.9058 69.2615C55.7274 69.7725 53.6062 70.6983 54.1033 69.5563C54.6116 68.4336 55.5897 63.55 54.6444 59.0895C53.7104 54.6483 52.3768 43.8013 52.3768 43.8013C59.4591 40.528 64.7239 32.4498 70.2673 28.5747C75.7996 24.6803 85.2276 21.177 86.863 21.4126C90.0039 24.2324 97.553 27.4806 99.9157 31.2704C102.267 35.0408 107.65 37.4073 107.65 37.4073C108.294 39.3565 105.662 43.3956 105.662 43.3956L81.1837 62.434Z" fill="#12D2C7"/>
<path d="M54.0837 69.5672C53.5754 70.6899 55.7079 69.7834 60.8863 69.2724C66.0647 68.7613 72.9951 69.5285 81.1641 62.4449L105.639 43.3567C105.639 43.3567 108.272 39.3176 107.627 37.3684C107.627 37.3684 102.275 35.01 99.893 31.2314C99.2253 30.1739 98.1591 29.1418 96.8968 28.1723C94.5846 31.4308 89.1676 36.188 76.4332 39.6026C55.1165 45.3562 55.239 47.4288 52.3653 43.7817C52.3653 43.7817 53.6988 54.6287 54.6329 59.0699C55.5701 63.5609 54.592 68.4445 54.0837 69.5672Z" fill="#D6D6D6"/>
<path d="M125.754 17.2263C126.052 18.1374 125.946 18.9744 125.515 19.1219C125.084 19.2695 124.495 18.657 124.197 17.7459C123.898 16.8348 124.005 15.9978 124.436 15.8502C124.866 15.7027 125.456 16.3151 125.754 17.2263Z" fill="#2E0B06"/>
<path d="M126.061 20.1473C126.041 20.1585 126.041 20.1585 126.022 20.1697C125.611 20.3061 124.419 20.4323 123.675 19.2895C123.619 19.1931 123.64 19.0517 123.737 18.9956C123.833 18.9394 123.974 18.9604 124.031 19.0568C124.729 20.1224 125.866 19.7696 125.886 19.7584C125.993 19.7215 126.127 19.773 126.164 19.8806C126.181 19.9995 126.138 20.1023 126.061 20.1473Z" fill="#2E0B06"/>
<path d="M79.9126 63.666C70.7599 63.3409 61.5135 55.7603 72.2447 46.5125C82.9758 37.2647 101.73 36.6459 106.028 41.4522C110.326 46.2585 110.291 49.6115 113.157 51.4286C116.024 53.2458 135.316 48.6719 139.933 48.6167C144.562 48.5809 163.28 43.3334 165.984 40.26C168.689 37.1865 170.42 35.0154 171.183 34.9066C171.946 34.7978 175.097 34.7964 175.097 34.7964C175.097 34.7964 175.532 37.5392 175.233 37.8684C174.934 38.1975 175.085 39.6082 175.085 39.6082C175.085 39.6082 169.818 44.8459 168.804 45.1007C167.79 45.3556 165.414 45.5775 165.292 46.4755C165.15 47.3848 164.099 47.8421 163.122 47.8945C162.156 47.9663 158.999 48.7982 154.337 50.5065C149.675 52.2148 128.133 59.4432 121.844 62.6157C115.556 65.7883 113.026 66.5901 113.026 66.5901C111.358 67.717 108.659 66.8093 107.526 65.9716C105.714 64.8571 93.6149 61.7798 89.6363 60.0937C84.8966 63.0873 79.9126 63.666 79.9126 63.666Z" fill="#3C362F"/>
<path d="M102.819 44.7676C102.761 44.8013 102.681 44.7964 102.609 44.761C102.525 44.7063 93.9194 40.2654 83.5589 44.8286C83.4512 44.8654 83.3292 44.8332 83.2618 44.7175C83.2249 44.6099 83.2571 44.4878 83.3728 44.4204C93.9181 39.7754 102.71 44.3144 102.813 44.3579C102.927 44.4206 102.944 44.5395 102.901 44.6423C102.866 44.7146 102.838 44.7563 102.819 44.7676Z" fill="#807A73"/>
<path d="M112.567 65.9794C112.123 66.2378 111.624 66.3997 111.137 66.4509C109.895 66.5803 108.738 66.0141 107.865 64.8696C107.79 64.7844 107.811 64.6431 107.896 64.5676C107.981 64.4922 108.122 64.5131 108.198 64.5983C108.954 65.6302 109.985 66.1144 111.07 66.0251C112.173 65.9245 113.205 65.1684 113.69 64.1372C113.733 64.0344 113.86 63.9863 113.963 64.0297C114.065 64.0732 114.114 64.2001 114.07 64.3029C113.766 65.0225 113.223 65.5974 112.567 65.9794Z" fill="#807A73"/>
<path d="M164.197 47.0355C163.869 47.2265 163.374 47.3082 162.606 47.1872C162.496 47.1743 162.409 47.0698 162.43 46.9285C162.443 46.8176 162.547 46.7309 162.689 46.7519C163.648 46.8906 164.197 46.7255 164.304 46.1986C164.336 46.0765 164.451 46.0091 164.574 46.0413C164.696 46.0735 164.763 46.1892 164.731 46.3113C164.658 46.586 164.525 46.8445 164.197 47.0355Z" fill="#807A73"/>
<path d="M151.627 42.7084C151.299 42.8994 150.804 42.981 150.037 42.8601C149.926 42.8472 149.839 42.7427 149.86 42.6013C149.873 42.4905 149.977 42.4038 150.119 42.4247C151.078 42.5635 151.627 42.3983 151.734 41.8714C151.766 41.7493 151.882 41.6819 152.004 41.7141C152.126 41.7463 152.193 41.862 152.161 41.9841C152.089 42.2588 151.936 42.5286 151.627 42.7084Z" fill="#3C362F"/>
<path d="M174.492 38.9464C174.415 38.9913 174.316 38.9977 174.251 38.9318C173.861 38.6166 171.686 38.0755 171.386 38.2248C171.066 38.3852 170.344 39.1415 170.092 39.4177C170.018 39.5125 169.868 39.522 169.793 39.4368C169.698 39.3629 169.688 39.2135 169.774 39.138C169.867 39.032 170.745 38.0557 171.191 37.8471C171.735 37.5823 174.11 38.2906 174.501 38.6058C174.595 38.6797 174.605 38.8291 174.52 38.9046C174.55 38.9127 174.531 38.9239 174.492 38.9464Z" fill="#807A73"/>
<path d="M174.149 35.9168C174.11 35.9392 174.041 35.9537 173.98 35.9376C173.003 35.6799 171.062 35.984 170.792 36.4514C170.729 36.5654 170.591 36.5943 170.508 36.5396C170.394 36.4769 170.365 36.3387 170.42 36.2552C170.843 35.518 173.036 35.2478 174.085 35.5408C174.207 35.573 174.274 35.6887 174.242 35.8108C174.234 35.8413 174.207 35.8831 174.149 35.9168Z" fill="#807A73"/>
<path d="M161.89 32.3901C161.852 32.4125 161.794 32.4463 161.733 32.4302C160.724 32.2946 158.837 32.8253 158.639 33.328C158.596 33.4308 158.469 33.479 158.347 33.4468C158.244 33.4033 158.196 33.2764 158.228 33.1543C158.548 32.3737 160.714 31.8351 161.784 31.9868C161.895 31.9997 161.982 32.1042 161.98 32.2343C161.964 32.2953 161.948 32.3564 161.89 32.3901Z" fill="#3C362F"/>
<path d="M108.594 19.1638C107.765 19.6469 107.094 19.7799 106.552 19.6044C106.091 19.4339 105.775 19.024 105.623 18.3636C105.536 17.949 105.413 17.7369 105.257 17.6468C104.987 17.494 104.46 17.6978 103.66 18.009C103.26 18.1646 102.79 18.3346 102.221 18.511C99.6729 19.3241 96.0759 18.9139 95.4359 17.1944C95.399 17.0867 95.4505 16.9534 95.5581 16.9165C95.6658 16.8797 95.7991 16.9311 95.836 17.0388C96.3429 18.3967 99.498 18.9352 102.085 18.0996C102.635 17.9345 103.093 17.7452 103.504 17.6088C104.442 17.2688 105.008 17.0426 105.453 17.2742C105.723 17.427 105.903 17.7356 106.037 18.2771C106.149 18.78 106.36 19.0966 106.687 19.2157C107.27 19.4185 108.225 19.0174 109.386 18.083C109.471 18.0076 109.612 18.0285 109.688 18.1137C109.763 18.1989 109.742 18.3403 109.657 18.4158C109.286 18.7095 108.942 18.9616 108.594 19.1638Z" fill="#807A73"/>
<path d="M112.978 29.7055C112.921 29.7392 112.871 29.7424 112.81 29.7263C110.958 29.0745 109.126 26.8611 109.327 24.0577C109.34 23.9469 109.433 23.8409 109.555 23.8731C109.666 23.886 109.772 23.9793 109.74 24.1013C109.545 26.6943 111.245 28.726 112.945 29.3376C113.048 29.381 113.115 29.4967 113.083 29.6188C113.064 29.63 113.017 29.683 112.978 29.7055Z" fill="#807A73"/>
<path d="M145.756 17.5085C145.536 17.0425 140.882 16.3698 137.166 15.6671C137.413 17.0216 140.648 17.8751 143.578 18.3379C143.578 18.3379 143.854 20.4507 145.177 20.8162C145.892 20.5804 146.058 18.1594 145.756 17.5085Z" fill="#2E0B06"/>
<path d="M7.11966 114.079C6.05893 114.697 4.74298 114.922 3.41767 114.686C3.30682 114.673 3.20889 114.549 3.2411 114.427C3.25402 114.317 3.37778 114.219 3.49987 114.251C4.87499 114.483 6.25684 114.195 7.28873 113.438C8.08113 112.848 8.57002 112.046 8.69265 111.148C8.70556 111.037 8.81004 110.951 8.94018 110.952C9.05103 110.965 9.13772 111.07 9.13603 111.2C9.00049 112.209 8.44888 113.124 7.57128 113.79C7.40894 113.911 7.27395 113.99 7.11966 114.079Z" fill="#807A73"/>
<path d="M39.56 76.7375C39.5407 76.7487 39.5214 76.7599 39.5021 76.7712C39.3945 76.8081 39.2692 76.7261 39.2323 76.6184C37.7496 70.7919 34.2221 67.0866 29.7945 66.6695C29.6837 66.6566 29.597 66.5521 29.6099 66.4413C29.6228 66.3304 29.7273 66.2437 29.8381 66.2567C34.4456 66.6723 38.1322 70.5174 39.6469 76.5319C39.7111 76.5978 39.6564 76.6813 39.56 76.7375Z" fill="#807A73"/>
</g>
<g filter="url(#filter3_d)">
<path d="M74.3595 28.575L79.4325 36.8784L77.5108 38.0524L73.38 31.2911L71.7193 32.3056L70.7772 30.7636L74.3595 28.575Z" fill="white"/>
</g>
<g filter="url(#filter4_d)">
<path d="M104.006 91.6787C105.05 92.0813 105.793 92.66 106.235 93.4148C106.68 94.1579 106.806 94.9934 106.611 95.9212C106.461 96.6376 106.134 97.2618 105.63 97.7938C105.129 98.314 104.452 98.675 103.601 98.8766C102.761 99.0807 101.783 99.0659 100.668 98.832C99.7986 98.6499 98.9646 98.3586 98.1657 97.9583C97.3811 97.5486 96.7394 97.0709 96.2408 96.525L97.8085 94.573C98.2044 95.0238 98.6869 95.4131 99.2558 95.7407C99.8389 96.0591 100.453 96.2859 101.099 96.4213C101.816 96.5715 102.408 96.5545 102.876 96.3706C103.346 96.1748 103.634 95.8244 103.739 95.3194C103.951 94.3094 103.288 93.6431 101.749 93.3207L100.445 93.0475L100.841 91.1624L103.979 88.8224L98.7292 87.7222L99.2092 85.432L107.842 87.2411L107.454 89.0909L104.006 91.6787Z" fill="white"/>
</g>
</g>
<defs>
<filter id="filter0_d" x="182.968" y="33.3682" width="286.057" height="103.848" filterUnits="userSpaceOnUse" color-interpolation-filters="sRGB">
<feFlood flood-opacity="0" result="BackgroundImageFix"/>
<feColorMatrix in="SourceAlpha" type="matrix" values="0 0 0 0 0 0 0 0 0 0 0 0 0 0 0 0 0 0 127 0"/>
<feOffset dy="12"/>
<feGaussianBlur stdDeviation="10"/>
<feColorMatrix type="matrix" values="0 0 0 0 0 0 0 0 0 0 0 0 0 0 0 0 0 0 0.06 0"/>
<feBlend mode="normal" in2="BackgroundImageFix" result="effect1_dropShadow"/>
<feBlend mode="normal" in="SourceGraphic" in2="effect1_dropShadow" result="shape"/>
</filter>
<filter id="filter1_d" x="475.045" y="56.0479" width="167.915" height="55.204" filterUnits="userSpaceOnUse" color-interpolation-filters="sRGB">
<feFlood flood-opacity="0" result="BackgroundImageFix"/>
<feColorMatrix in="SourceAlpha" type="matrix" values="0 0 0 0 0 0 0 0 0 0 0 0 0 0 0 0 0 0 127 0"/>
<feOffset dy="12"/>
<feGaussianBlur stdDeviation="10"/>
<feColorMatrix type="matrix" values="0 0 0 0 0 0 0 0 0 0 0 0 0 0 0 0 0 0 0.06 0"/>
<feBlend mode="normal" in2="BackgroundImageFix" result="effect1_dropShadow"/>
<feBlend mode="normal" in="SourceGraphic" in2="effect1_dropShadow" result="shape"/>
</filter>
<filter id="filter2_d" x="-87.8159" y="-18.1357" width="293.154" height="198.493" filterUnits="userSpaceOnUse" color-interpolation-filters="sRGB">
<feFlood flood-opacity="0" result="BackgroundImageFix"/>
<feColorMatrix in="SourceAlpha" type="matrix" values="0 0 0 0 0 0 0 0 0 0 0 0 0 0 0 0 0 0 127 0"/>
<feOffset dy="4"/>
<feGaussianBlur stdDeviation="15"/>
<feColorMatrix type="matrix" values="0 0 0 0 0 0 0 0 0 0 0 0 0 0 0 0 0 0 0.2 0"/>
<feBlend mode="normal" in2="BackgroundImageFix" result="effect1_dropShadow"/>
<feBlend mode="normal" in="SourceGraphic" in2="effect1_dropShadow" result="shape"/>
</filter>
<filter id="filter3_d" x="63.0548" y="25.4862" width="24.1004" height="24.9226" filterUnits="userSpaceOnUse" color-interpolation-filters="sRGB">
<feFlood flood-opacity="0" result="BackgroundImageFix"/>
<feColorMatrix in="SourceAlpha" type="matrix" values="0 0 0 0 0 0 0 0 0 0 0 0 0 0 0 0 0 0 127 0"/>
<feOffset dy="4.63354"/>
<feGaussianBlur stdDeviation="3.86128"/>
<feColorMatrix type="matrix" values="0 0 0 0 0 0 0 0 0 0 0 0 0 0 0 0 0 0 0.06 0"/>
<feBlend mode="normal" in2="BackgroundImageFix" result="effect1_dropShadow"/>
<feBlend mode="normal" in="SourceGraphic" in2="effect1_dropShadow" result="shape"/>
</filter>
<filter id="filter4_d" x="86.2407" y="81.4316" width="31.6009" height="33.5873" filterUnits="userSpaceOnUse" color-interpolation-filters="sRGB">
<feFlood flood-opacity="0" result="BackgroundImageFix"/>
<feColorMatrix in="SourceAlpha" type="matrix" values="0 0 0 0 0 0 0 0 0 0 0 0 0 0 0 0 0 0 127 0"/>
<feOffset dy="6"/>
<feGaussianBlur stdDeviation="5"/>
<feColorMatrix type="matrix" values="0 0 0 0 0 0 0 0 0 0 0 0 0 0 0 0 0 0 0.06 0"/>
<feBlend mode="normal" in2="BackgroundImageFix" result="effect1_dropShadow"/>
<feBlend mode="normal" in="SourceGraphic" in2="effect1_dropShadow" result="shape"/>
</filter>
<linearGradient id="paint0_linear" x1="39" y1="16" x2="347.5" y2="144" gradientUnits="userSpaceOnUse">
<stop stop-color="#4947B6"/>
<stop offset="1" stop-color="#5426D7"/>
</linearGradient>
<clipPath id="clip0">
<rect width="695" height="144" fill="white"/>
</clipPath>
</defs>
</svg>
