<svg width="695" height="144" viewBox="0 0 695 144" fill="none" xmlns="http://www.w3.org/2000/svg">
<g clip-path="url(#clip0)">
<rect width="695" height="144" fill="white"/>
<rect width="695" height="144" fill="#17A4A8"/>
<path d="M725 143.064H7V213.064H725V143.064Z" fill="#FFE600"/>
<path opacity="0.4" d="M100.099 180.386C112.68 178.722 125.44 177.583 138.111 177.67C152.31 177.67 166.598 178.809 180.797 179.598C209.733 181.175 238.489 182.138 267.245 177.495C295.912 172.852 324.039 166.807 353.245 166.106C382.091 165.492 410.848 168.033 439.424 171.625C468.001 175.305 496.398 179.948 525.065 183.365C553.372 186.782 581.769 188.709 610.076 191.775C637.215 194.666 664.713 199.135 690.684 207.72C695.536 209.297 700.479 211.049 705.331 213.064H726V143.064H7V206.581C36.4753 193.44 68.0175 184.679 100.099 180.386Z" fill="#E5BA03"/>
<path d="M-17.9406 43.1855C14.9478 52.3593 39.8873 67.8269 74.8622 57.373C97.417 50.6526 94.8907 46.919 116.154 57.373C131.952 65.0534 155.643 79.7616 170.945 88.0821C198.865 103.123 243.974 116.15 278.949 120.203C319.985 124.897 360.623 122.23 401.361 117.216C439.118 112.629 478.465 109.323 513.936 97.9086C549.309 86.4946 573.056 64.9467 605.447 50.2259C643.006 33.1583 672.218 47.8791 700.833 65.6934V168.526H625.717C616.377 165.859 606.938 163.619 597.399 161.806C575.838 157.752 553.979 155.405 532.119 154.232C501.119 152.632 470.118 153.272 439.118 152.098C406.627 150.818 374.136 149.752 341.645 151.245C309.055 152.738 276.763 156.259 244.371 161.272C241.887 161.699 237.615 162.126 233.64 162.552C229.865 162.872 226.089 163.192 222.313 163.406C214.662 163.832 207.111 164.152 199.46 164.366C183.364 164.792 167.267 165.219 151.27 167.033C149.184 167.246 147.197 167.779 145.408 168.633H-101.801V30.3848C-73.2844 31.2381 -44.9667 35.6117 -17.9406 43.1855Z" fill="#BEEEEF"/>
<path d="M686.128 56.9462C679.471 59.0796 674.801 63.6666 665.362 63.3466C658.903 63.1332 650.457 61.5331 644.297 63.1332C638.435 64.6266 628.896 69.5336 623.332 69.2136C612.204 68.5735 600.082 64.9466 588.953 66.12C581.004 66.9734 573.652 69.5336 566.299 71.987C578.918 64.3066 591.437 56.6262 605.646 50.1191C636.646 36.145 661.983 43.8255 686.128 56.9462Z" fill="#F0FCFB"/>
<path d="M-81.5309 57.2669C-49.2387 62.3872 -13.1708 75.9346 12.3649 60.1471C16.0412 59.0804 19.5189 57.6936 22.6984 56.2002C32.3364 58.9737 42.0737 60.8938 52.4072 60.7871C59.3624 66.7608 69.1991 70.281 81.4204 68.2542C113.836 62.5178 124.2 67.0616 153.789 83.2233C181.709 98.2641 243.974 116.15 278.949 120.204C319.985 124.897 360.624 122.231 401.361 117.217C439.118 112.63 478.465 109.323 513.937 97.9092C529.437 92.8956 542.652 85.9619 555.37 78.6015C562.524 77.5347 569.479 75.7213 576.534 74.7612C580.111 75.508 584.185 75.828 588.258 75.9346C598.195 79.4548 606.64 83.5084 618.464 79.8815C624.227 78.0681 628.003 74.6546 631.977 71.7744C633.07 71.241 633.964 70.7077 634.561 70.0676C636.746 68.7876 639.032 67.8275 641.913 67.2942C645.59 68.6809 650.359 70.8144 651.054 71.1344C657.811 74.9746 663.176 78.3881 671.821 78.8148C687.122 79.4548 683.048 58.7603 688.414 59.4004C689.109 59.507 689.805 59.507 690.401 59.4004C693.879 61.4272 697.356 63.5606 700.834 65.6941V168.527H621.346C608.925 166.073 596.406 164.153 583.887 162.66C558.152 159.566 532.319 158.179 506.485 157.006C474.689 155.619 442.894 154.019 411.099 151.779C378.508 149.432 346.316 148.472 313.725 151.246C249.638 156.686 184.954 155.299 121.562 168.527H-101.8V62.2805C-95.2426 61.0005 -88.2874 58.547 -81.5309 57.2669Z" fill="#A5DBDD"/>
<path d="M-76.0662 68.1469C-60.5659 68.8936 -38.9053 61.3199 -25.4916 67.8269C-19.0331 71.0271 -9.59387 75.5074 -1.24762 72.9472C17.3328 67.1869 39.1921 76.1474 58.0706 78.0675C65.5226 78.8142 72.776 77.7475 80.0293 76.8941C86.9846 77.8542 93.9398 78.9209 100.994 79.6676C101.392 79.8809 101.889 79.9876 102.485 80.201C124.841 85.3212 111.82 92.7597 134.971 92.333C174.202 95.9954 244.968 112.345 285.01 117.003C326.046 121.697 360.723 122.017 401.461 117.003C439.218 112.416 478.564 109.109 514.036 97.6953C527.152 93.535 538.578 87.8814 549.508 81.801C555.271 82.9744 561.133 84.1478 566.896 85.2146C570.87 87.028 574.845 88.4148 580.111 89.2681C597.4 92.1483 614.986 89.0548 632.573 92.3616C660.096 97.6953 682.75 99.082 700.834 83.2945V168.526H627.009C621.246 167.886 615.483 167.246 609.72 166.819C595.611 165.752 581.502 165.219 567.492 164.366C552.886 163.406 538.479 161.592 523.972 159.779C460.381 151.778 396.195 149.965 332.306 153.698C316.507 154.659 300.808 155.832 285.01 157.859C277.061 158.925 269.013 159.992 261.064 161.166C253.314 162.232 244.968 163.512 238.807 164.366C228.275 165.859 217.743 167.353 207.211 168.526H-101.9V67.0802C-93.1561 67.5069 -84.4124 67.7202 -76.0662 68.1469Z" fill="#35BABE"/>
<path d="M17.4734 90.0751C57.0085 94.4762 87.6418 99.7484 127.574 99.6684C207.936 99.4283 256.014 130.814 336.276 130.574C519.209 135.585 503.557 121.051 577.859 130.574C620.473 135.935 660.107 128.416 703.913 119.694V160.424H531.27C514.681 158.024 497.794 156.824 481.106 155.863C450.908 154.183 420.81 154.343 390.612 154.343C389.519 154.343 388.625 154.503 387.731 154.663C370.547 153.943 353.461 153.383 336.276 153.143C266.742 152.022 196.91 154.263 127.574 160.344H-98.7097L-91.0814 125.562C-71.1626 111.532 -12.2276 86.7142 17.4734 90.0751Z" fill="#2F9A5C"/>
<path d="M418.678 136.459C399.751 144.477 296.34 152.16 247 155H759V136.459C745.452 136.459 716.05 135.256 706.829 130.445C695.303 124.432 671.038 122.428 648.592 122.428C626.147 122.428 577.616 127.439 549.104 122.428C520.592 117.416 442.337 126.437 418.678 136.459Z" fill="#3BAE6B"/>
<g filter="url(#filter0_d)">
<path d="M220.1 59.8V85H214.268V74.668H202.82V85H196.988V59.8H202.82V69.736H214.268V59.8H220.1ZM238.266 85.432C235.65 85.432 233.286 84.868 231.174 83.74C229.086 82.612 227.442 81.064 226.242 79.096C225.066 77.104 224.478 74.872 224.478 72.4C224.478 69.928 225.066 67.708 226.242 65.74C227.442 63.748 229.086 62.188 231.174 61.06C233.286 59.932 235.65 59.368 238.266 59.368C240.882 59.368 243.234 59.932 245.322 61.06C247.41 62.188 249.054 63.748 250.254 65.74C251.454 67.708 252.054 69.928 252.054 72.4C252.054 74.872 251.454 77.104 250.254 79.096C249.054 81.064 247.41 82.612 245.322 83.74C243.234 84.868 240.882 85.432 238.266 85.432ZM238.266 80.464C239.754 80.464 241.098 80.128 242.298 79.456C243.498 78.76 244.434 77.8 245.106 76.576C245.802 75.352 246.15 73.96 246.15 72.4C246.15 70.84 245.802 69.448 245.106 68.224C244.434 67 243.498 66.052 242.298 65.38C241.098 64.684 239.754 64.336 238.266 64.336C236.778 64.336 235.434 64.684 234.234 65.38C233.034 66.052 232.086 67 231.39 68.224C230.718 69.448 230.382 70.84 230.382 72.4C230.382 73.96 230.718 75.352 231.39 76.576C232.086 77.8 233.034 78.76 234.234 79.456C235.434 80.128 236.778 80.464 238.266 80.464ZM272.493 85L267.633 77.98H267.345H262.269V85H256.437V59.8H267.345C269.577 59.8 271.509 60.172 273.141 60.916C274.797 61.66 276.069 62.716 276.957 64.084C277.845 65.452 278.289 67.072 278.289 68.944C278.289 70.816 277.833 72.436 276.921 73.804C276.033 75.148 274.761 76.18 273.105 76.9L278.757 85H272.493ZM272.385 68.944C272.385 67.528 271.929 66.448 271.017 65.704C270.105 64.936 268.773 64.552 267.021 64.552H262.269V73.336H267.021C268.773 73.336 270.105 72.952 271.017 72.184C271.929 71.416 272.385 70.336 272.385 68.944ZM291.19 85.432C289.198 85.432 287.266 85.168 285.394 84.64C283.546 84.088 282.058 83.38 280.93 82.516L282.91 78.124C283.99 78.916 285.274 79.552 286.762 80.032C288.25 80.512 289.738 80.752 291.226 80.752C292.882 80.752 294.106 80.512 294.898 80.032C295.69 79.528 296.086 78.868 296.086 78.052C296.086 77.452 295.846 76.96 295.366 76.576C294.91 76.168 294.31 75.844 293.566 75.604C292.846 75.364 291.862 75.1 290.614 74.812C288.694 74.356 287.122 73.9 285.898 73.444C284.674 72.988 283.618 72.256 282.73 71.248C281.866 70.24 281.434 68.896 281.434 67.216C281.434 65.752 281.83 64.432 282.622 63.256C283.414 62.056 284.602 61.108 286.186 60.412C287.794 59.716 289.75 59.368 292.054 59.368C293.662 59.368 295.234 59.56 296.77 59.944C298.306 60.328 299.65 60.88 300.802 61.6L299.002 66.028C296.674 64.708 294.346 64.048 292.018 64.048C290.386 64.048 289.174 64.312 288.382 64.84C287.614 65.368 287.23 66.064 287.23 66.928C287.23 67.792 287.674 68.44 288.562 68.872C289.474 69.28 290.854 69.688 292.702 70.096C294.622 70.552 296.194 71.008 297.418 71.464C298.642 71.92 299.686 72.64 300.55 73.624C301.438 74.608 301.882 75.94 301.882 77.62C301.882 79.06 301.474 80.38 300.658 81.58C299.866 82.756 298.666 83.692 297.058 84.388C295.45 85.084 293.494 85.432 291.19 85.432ZM325.379 80.32V85H305.867V59.8H324.911V64.48H311.663V69.952H323.363V74.488H311.663V80.32H325.379ZM358.539 85L352.779 76.9C352.131 76.972 351.459 77.008 350.763 77.008H343.995V85H341.331V59.8H350.763C353.979 59.8 356.499 60.568 358.323 62.104C360.147 63.64 361.059 65.752 361.059 68.44C361.059 70.408 360.555 72.076 359.547 73.444C358.563 74.788 357.147 75.76 355.299 76.36L361.455 85H358.539ZM350.691 74.74C353.187 74.74 355.095 74.188 356.415 73.084C357.735 71.98 358.395 70.432 358.395 68.44C358.395 66.4 357.735 64.84 356.415 63.76C355.095 62.656 353.187 62.104 350.691 62.104H343.995V74.74H350.691ZM383.15 78.268H369.11L366.086 85H363.314L374.834 59.8H377.462L388.982 85H386.174L383.15 78.268ZM382.178 76.108L376.13 62.572L370.082 76.108H382.178ZM403.743 85.216C401.247 85.216 398.991 84.664 396.975 83.56C394.983 82.456 393.411 80.932 392.259 78.988C391.131 77.02 390.567 74.824 390.567 72.4C390.567 69.976 391.131 67.792 392.259 65.848C393.411 63.88 394.995 62.344 397.011 61.24C399.027 60.136 401.283 59.584 403.779 59.584C405.651 59.584 407.379 59.896 408.963 60.52C410.547 61.144 411.891 62.056 412.995 63.256L411.303 64.948C409.335 62.956 406.851 61.96 403.851 61.96C401.859 61.96 400.047 62.416 398.415 63.328C396.783 64.24 395.499 65.488 394.563 67.072C393.651 68.656 393.195 70.432 393.195 72.4C393.195 74.368 393.651 76.144 394.563 77.728C395.499 79.312 396.783 80.56 398.415 81.472C400.047 82.384 401.859 82.84 403.851 82.84C406.875 82.84 409.359 81.832 411.303 79.816L412.995 81.508C411.891 82.708 410.535 83.632 408.927 84.28C407.343 84.904 405.615 85.216 403.743 85.216ZM418.674 59.8H421.338V85H418.674V59.8ZM450.598 59.8V85H448.402L432.202 64.552V85H429.538V59.8H431.734L447.97 80.248V59.8H450.598ZM476.571 72.4H479.127V82.012C477.951 83.044 476.559 83.836 474.951 84.388C473.343 84.94 471.651 85.216 469.875 85.216C467.355 85.216 465.087 84.664 463.071 83.56C461.055 82.456 459.471 80.932 458.319 78.988C457.167 77.02 456.591 74.824 456.591 72.4C456.591 69.976 457.167 67.792 458.319 65.848C459.471 63.88 461.055 62.344 463.071 61.24C465.087 60.136 467.367 59.584 469.911 59.584C471.831 59.584 473.595 59.896 475.203 60.52C476.811 61.12 478.167 62.02 479.271 63.22L477.615 64.912C475.623 62.944 473.091 61.96 470.019 61.96C467.979 61.96 466.131 62.416 464.475 63.328C462.843 64.216 461.559 65.464 460.623 67.072C459.687 68.656 459.219 70.432 459.219 72.4C459.219 74.368 459.687 76.144 460.623 77.728C461.559 79.312 462.843 80.56 464.475 81.472C466.107 82.384 467.943 82.84 469.983 82.84C472.575 82.84 474.771 82.192 476.571 80.896V72.4Z" fill="white"/>
</g>
<g filter="url(#filter1_d)">
<path d="M79.5644 109.983C66.8066 105.8 61.0257 115.362 60.627 119.944C60.2283 124.526 64.2152 134.288 63.6171 136.678C63.0191 139.069 57.6369 142.854 57.6369 144.248C57.4375 145.643 63.2184 162.178 60.627 166.561C60.029 167.557 59.6303 171.143 59.6303 171.143C59.6303 171.143 64.4145 173.732 64.6138 173.334C64.8132 172.936 65.6105 170.346 65.8099 169.35C66.6072 167.357 65.6105 147.237 66.0092 146.241C66.2086 145.643 74.3816 142.455 81.5579 138.272C84.1493 136.877 89.1328 130.901 89.1328 125.921C89.1328 121.139 86.1427 112.175 79.5644 109.983Z" fill="#A96B2B"/>
<path d="M63.4174 109.186C57.6365 107.593 48.8655 115.561 37.7024 113.768C33.5162 113.171 29.3301 105.401 29.3301 105.401C29.3301 105.401 28.134 107.991 28.9314 110.581C29.5294 113.171 30.5261 114.366 30.5261 114.366C30.5261 114.765 28.732 113.768 27.536 112.772C26.938 112.175 26.1406 110.382 26.1406 110.382C26.1406 110.382 24.9445 114.964 29.5294 118.55C29.9281 118.948 26.5393 119.745 26.5393 119.745C26.5393 119.745 28.3334 122.534 31.5228 124.526C34.5129 126.319 38.3004 127.116 38.3004 127.116L33.1175 129.507C33.1175 129.507 38.4998 130.104 40.0945 130.104C41.2905 130.104 44.0813 128.71 44.0813 128.71L42.0879 131.698C42.0879 131.698 45.2774 132.694 52.4537 128.311C59.6299 124.128 68.7996 116.557 68.7996 116.557C68.7996 116.557 69.3977 110.78 63.4174 109.186Z" fill="#330E01"/>
<path d="M153.719 69.5429C150.929 69.1444 150.929 70.9374 144.749 63.1679C142.556 60.3789 139.766 62.3711 139.766 62.3711C139.766 62.3711 142.158 62.3711 142.955 63.3672C144.55 65.3593 144.151 68.1483 142.158 65.957C140.164 63.7656 136.576 63.7656 135.181 63.3672C133.785 62.9687 132.988 60.9766 132.988 60.9766C132.988 60.9766 132.589 63.1679 133.387 64.3632C134.184 65.3593 135.978 66.1562 137.772 66.5546C139.566 67.1523 141.161 69.1444 141.161 69.1444C141.161 69.1444 139.367 68.5468 138.171 68.746C135.779 69.3436 133.785 70.1405 131.991 69.7421C130.596 69.5429 128.004 66.3554 128.004 66.3554C128.004 66.3554 128.403 68.3476 129.998 69.9413C132.39 72.5311 135.181 71.9334 138.769 71.9334C142.556 71.9334 146.942 77.5115 152.723 80.6989C158.504 84.0856 164.285 78.3084 164.085 77.7107C164.285 77.9099 162.49 70.5389 153.719 69.5429Z" fill="#330E01"/>
<path d="M128.204 71.3354C128.204 71.3354 126.609 74.1244 117.24 71.3354C113.851 70.3393 112.655 73.5268 112.655 73.5268C112.655 73.5268 114.648 72.1323 115.844 72.5307C118.436 73.3276 119.632 75.7181 116.642 75.1205C113.652 74.5228 110.861 76.515 109.465 77.1127C108.07 77.7103 106.276 76.3158 106.276 76.3158C106.276 76.3158 107.273 78.308 108.469 78.7064C109.665 79.1048 111.459 78.7064 113.253 78.1087C115.047 77.5111 117.638 78.308 117.638 78.308C117.638 78.308 115.844 78.9056 115.047 79.7025C113.253 81.6946 112.057 83.2884 110.462 84.0852C109.067 84.6829 105.279 83.6868 105.279 83.6868C105.279 83.6868 106.675 84.8821 109.067 85.4797C112.456 86.2766 114.449 84.2844 117.439 82.0931C120.629 79.9017 127.207 81.8938 133.984 81.2962C140.762 80.6985 142.157 72.7299 141.559 72.3315L128.204 71.3354Z" fill="#330E01"/>
<path d="M141.559 68.9455C141.559 68.9455 139.167 70.9377 131.194 65.3597C128.403 63.3675 126.21 65.9573 126.21 65.9573C126.21 65.9573 128.602 65.3597 129.599 65.9573C131.792 67.3518 132.19 70.1408 129.599 68.7463C127.007 67.3518 123.619 68.1487 122.024 68.3479C120.628 68.3479 119.233 66.7542 119.233 66.7542C119.233 66.7542 119.432 68.9455 120.628 69.7424C121.625 70.5393 123.619 70.7385 125.413 70.7385C127.207 70.7385 129.399 72.3322 129.399 72.3322C129.399 72.3322 127.406 72.3322 126.409 72.7306C124.017 73.9259 122.423 75.1212 120.628 75.3205C119.233 75.5197 115.844 73.3283 115.844 73.3283C115.844 73.3283 116.841 74.922 118.834 76.3165C121.824 78.1095 124.217 76.9142 128.004 75.9181C131.592 74.922 137.373 78.9063 143.951 80.5001C150.53 82.0938 154.516 75.1212 154.118 74.5236L141.559 68.9455Z" fill="#330E01"/>
<path d="M144.35 126.12C142.356 127.116 145.546 134.487 145.945 133.491C146.144 133.093 146.941 131.698 147.938 130.304C147.141 128.511 147.539 126.12 146.543 124.726C146.343 124.925 145.745 125.323 144.35 126.12Z" fill="#191919"/>
<path d="M147.938 109.586C146.144 108.59 143.353 106.398 140.762 105.203C138.17 103.809 132.589 98.8281 132.589 98.8281L127.406 107.594C127.406 107.594 130.197 111.976 133.984 112.176C137.772 112.574 143.353 112.773 143.752 113.371C144.15 113.969 146.742 124.328 146.742 124.328C146.742 124.328 146.742 124.328 146.543 124.527C147.739 125.922 147.141 128.312 147.938 130.105C149.134 128.312 150.729 126.32 151.127 125.722C151.526 125.125 150.529 121.34 149.732 117.355C149.134 113.769 149.732 110.582 147.938 109.586Z" fill="#A96B2B"/>
<path d="M157.706 74.5237C155.115 73.3284 139.167 74.3244 133.586 74.5237C128.004 74.7229 106.675 77.5119 104.482 79.7033C102.289 81.8947 94.7144 91.6562 90.1295 96.4374C87.7374 98.828 73.1855 105.801 70.1954 106.996C67.0059 108.191 62.2217 114.367 60.8263 117.355C59.4309 120.343 60.2283 141.46 59.4309 144.249C58.6336 147.038 53.8494 151.62 53.2513 155.007C52.8527 158.394 51.0586 176.522 51.0586 176.522L52.0553 177.319C53.2513 177.319 54.8461 177.319 56.4408 177.319C56.2415 176.721 56.0421 176.124 56.0421 176.124C56.0421 176.124 59.2316 156.401 60.2283 155.804C61.225 155.206 67.8033 149.628 70.3947 146.042C72.9861 142.456 82.9532 129.308 82.9532 129.308C82.9532 129.308 98.5018 128.511 106.276 124.925C113.851 121.738 129.798 114.566 133.785 109.187C137.772 103.808 135.579 94.6445 137.373 93.8476C139.367 93.0508 142.756 91.8555 143.952 91.457C146.344 90.6602 150.131 90.6602 155.912 89.2656C161.095 88.0704 160.298 75.719 157.706 74.5237Z" fill="#CF8A42"/>
<path d="M131.791 135.483C130.994 136.479 131.791 141.261 132.19 141.659C132.589 141.858 134.383 140.265 135.778 139.069C134.981 137.077 134.981 135.683 134.981 133.69C134.183 134.089 132.389 134.886 131.791 135.483Z" fill="#303030"/>
<path d="M129.797 112.175C128.003 111.179 128.402 106.397 128.402 106.397L117.837 112.772C117.837 112.772 120.628 116.757 122.82 119.147C125.013 121.339 137.173 122.534 137.771 124.327C138.369 126.12 136.774 133.292 136.176 133.491C135.977 133.491 135.578 133.69 135.18 133.69C135.18 135.682 135.379 137.276 135.977 139.069C136.376 138.87 136.575 138.471 136.974 138.272C138.768 136.678 139.764 136.479 140.562 135.284C141.359 134.288 141.559 132.694 141.957 129.905C142.356 127.714 143.951 124.526 143.951 123.331C143.751 122.136 142.954 119.745 141.957 118.948C140.761 118.35 131.591 113.171 129.797 112.175Z" fill="#CF8A42"/>
<path d="M175.248 91.0585C174.052 90.2616 170.264 85.8789 168.869 84.4844C167.474 82.8906 165.48 78.1094 162.689 76.7149C159.899 75.3204 154.516 72.7306 152.922 76.3165C151.726 78.9063 151.327 88.2695 153.52 91.0585C155.712 94.0467 160.895 95.0428 163.287 95.8397C165.679 96.8358 167.673 97.2342 168.67 98.2303C169.467 99.2263 169.666 100.023 170.065 100.422C170.464 100.82 174.849 100.621 175.647 100.023C176.444 99.6248 176.643 98.0311 177.241 97.2342C177.839 96.6365 178.238 95.0428 177.839 94.4452C177.441 93.8475 176.444 91.6561 175.248 91.0585Z" fill="#CF8A42"/>
<path d="M156.708 69.1438C155.712 69.9406 154.715 72.5304 154.715 74.1242C154.516 75.7179 155.911 77.7101 156.908 77.3116C159.898 75.9171 158.702 72.3312 158.104 71.3351C157.306 70.3391 157.705 68.3469 156.708 69.1438Z" fill="#A96B2B"/>
<path d="M130.795 80.6982L130.396 81.4951C130.396 81.4951 135.778 84.4833 147.739 89.8622C154.716 93.0496 168.47 97.4324 168.47 97.4324L168.67 96.6355C168.47 96.6355 154.915 92.0536 147.938 89.0653C136.376 83.4873 130.795 80.6982 130.795 80.6982Z" fill="#191919"/>
<path d="M170.662 90.6601C169.267 92.4531 169.267 93.8476 169.267 93.8476L171.061 94.6445C171.061 94.6445 171.46 92.8515 172.257 91.6562C173.055 90.4609 174.251 90.0625 174.251 90.0625L172.855 88.668C172.855 88.8672 171.859 89.0664 170.662 90.6601Z" fill="#191919"/>
<path d="M156.709 85.8789L168.071 95.0428L168.869 94.4452C168.869 94.246 157.506 85.082 157.506 85.082L156.709 85.8789Z" fill="#191919"/>
<path d="M161.892 76.3154L160.497 75.7178C160.497 75.7178 156.51 80.6982 156.111 85.2801C155.713 89.8621 157.706 94.0456 157.706 94.0456L159.5 94.6433C159.5 94.4441 158.304 92.2527 157.706 88.6668C157.108 85.6786 157.905 83.4872 158.503 81.6943C159.301 79.9013 161.892 76.3154 161.892 76.3154Z" fill="#191919"/>
<path d="M153.719 81.0976C152.324 78.5078 151.726 73.9258 151.726 73.9258H150.729C150.729 73.9258 151.526 78.1093 152.922 81.0976C154.118 83.4882 156.111 85.2811 156.311 85.2811L156.51 84.285C156.51 84.285 155.115 83.2889 153.719 81.0976Z" fill="#191919"/>
<path d="M168.471 94.0467C168.072 94.2459 167.673 94.8436 167.673 95.242C167.474 95.8397 167.673 96.2381 168.072 96.6365C168.471 97.2342 169.069 97.4334 169.667 97.4334C170.066 97.4334 170.464 97.2342 170.863 97.035C171.262 96.8357 171.66 96.2381 171.66 95.8397C171.86 95.242 171.66 94.8436 171.262 94.4451C170.664 93.6483 169.268 93.4491 168.471 94.0467ZM170.265 96.6365C169.667 97.035 168.869 96.8357 168.471 96.2381C168.271 96.0389 168.271 95.6404 168.271 95.242C168.271 94.8436 168.471 94.6444 168.869 94.4451C169.069 94.2459 169.268 94.2459 169.467 94.2459C169.866 94.2459 170.265 94.4451 170.464 94.8436C170.664 95.0428 170.664 95.4412 170.664 95.8397C170.664 96.2381 170.464 96.4373 170.265 96.6365Z" fill="#E8A900"/>
<path d="M102.289 81.8946C101.89 82.293 101.292 86.4765 94.1155 92.2538C84.7465 99.824 78.5669 102.613 78.5669 102.613C78.5669 102.613 87.5373 116.359 89.5307 116.359C91.7234 116.359 95.9096 114.765 103.684 109.984C106.475 108.191 112.455 104.605 117.438 99.0272C119.831 96.4374 102.488 81.6954 102.289 81.8946Z" fill="#ABABAB"/>
<path d="M99.8974 87.4717L96.1099 90.6591C96.1099 90.6591 102.688 96.8348 107.672 103.807C114.051 112.971 117.439 119.944 117.439 119.944L121.227 117.952C121.227 117.952 118.635 109.585 111.459 100.222C105.878 92.8505 99.8974 87.4717 99.8974 87.4717Z" fill="black"/>
<path d="M110.063 105.003L108.269 105.401C108.269 105.401 108.867 106.597 108.667 107.593C108.468 108.589 108.667 110.581 108.867 111.179C109.066 111.776 110.461 112.374 110.461 112.374L112.654 111.776C112.654 111.776 111.059 108.39 110.461 107.394C109.863 106.397 110.063 105.003 110.063 105.003Z" fill="black"/>
<path d="M101.292 91.0576L96.707 93.4482C96.707 93.4482 97.7037 97.0341 99.4978 100.62C101.292 104.206 102.687 105.8 103.883 105.6C105.079 105.202 106.475 104.405 107.471 104.804C108.468 105.202 109.664 105.999 110.262 105.401C110.86 105.003 107.671 99.0263 105.279 95.4404C102.687 91.8545 101.292 91.0576 101.292 91.0576Z" fill="#191919"/>
<path d="M94.7133 85.0816C94.1153 84.8824 92.5206 85.8784 92.3212 86.4761C91.7232 87.8706 94.1153 90.6596 94.7133 91.4565C95.3114 92.2534 96.5074 93.4486 97.9028 92.0541C99.2982 90.8588 97.9028 88.8667 97.7035 88.269C97.5041 87.8706 95.7101 85.48 94.7133 85.0816Z" fill="#303030"/>
<path d="M96.9065 87.0736C96.9065 87.0736 99.2986 90.2611 97.5045 91.6556C96.3085 92.6517 95.3118 91.4564 94.9131 91.6556C94.5144 91.8548 94.1157 93.0501 93.5177 93.0501C93.119 93.2493 91.1256 93.4485 90.7269 94.0462C90.3282 94.6438 86.3414 99.0266 86.9394 99.6242C87.5374 100.421 92.9197 101.816 95.9098 99.2258C98.8999 96.636 98.3019 94.0462 99.0992 93.4485C99.6973 92.8509 102.687 92.8509 102.488 91.058C102.289 90.4603 99.6973 85.2807 96.9065 87.0736Z" fill="#191919"/>
<path d="M94.3146 90.6591C93.1185 89.2646 92.5205 88.2686 92.5205 88.2686C92.5205 88.2686 89.5304 94.8427 86.9389 96.038C81.9554 98.6278 80.3607 97.4325 79.5633 99.2254C79.1646 100.022 82.3541 102.214 84.7462 101.018C87.3376 99.6239 96.906 91.8544 96.906 91.8544C96.906 91.8544 95.71 92.2529 94.3146 90.6591Z" fill="#303030"/>
<path d="M105.28 61.7734C104.881 64.164 104.881 67.1522 106.277 69.1444C106.277 69.1444 107.473 67.9491 108.27 67.3514C110.264 65.7577 113.054 64.3632 113.054 64.3632L110.862 57.5898C110.862 57.5898 109.267 60.7773 105.28 61.7734Z" fill="#FFA47C"/>
<path d="M104.483 60.3791C103.088 60.1799 97.506 62.3712 99.8981 61.5744C100.097 61.5744 96.31 62.9689 95.7119 63.1681C95.1139 63.3673 87.5389 65.3595 84.3495 69.7422C83.7514 70.5391 82.1567 71.5352 82.9541 72.7305C85.3462 75.7187 89.333 77.5117 93.3198 78.3085C94.7152 78.707 95.3132 77.1132 96.5093 76.5156C98.9014 75.5195 103.287 74.9219 106.277 73.7266C109.267 72.5313 110.862 70.1407 110.862 67.9493C110.663 65.7579 108.47 60.9767 104.483 60.3791Z" fill="#BD0000"/>
<path d="M82.9536 72.7305C80.7608 76.1171 78.9668 78.9062 81.1595 82.2928C82.9536 85.0819 89.3325 83.2889 91.5253 81.496C92.522 80.6991 92.9206 79.3046 93.5187 78.1093C89.3325 77.5117 85.3457 75.9179 82.9536 72.7305Z" fill="#DEDEDE"/>
<path d="M109.665 66.9526C107.672 64.7612 105.479 63.3667 103.884 64.562C100.296 67.351 102.888 69.9408 104.682 71.933C106.476 73.9252 112.655 78.5071 114.848 79.5032C117.041 80.4993 118.038 77.7103 117.44 76.1165C116.642 74.5228 111.659 69.144 109.665 66.9526Z" fill="#C90000"/>
<path d="M132.39 82.0942C132.19 81.895 131.792 82.0942 131.792 82.2935C131.792 82.4927 131.792 82.8911 131.991 82.8911L133.785 83.688C133.984 83.8872 134.383 83.688 134.383 83.4887C134.383 83.2895 134.383 82.8911 134.184 82.8911L132.39 82.0942Z" fill="#DEDEDE"/>
<path d="M132.789 81.2974C132.59 81.0981 132.191 81.2974 132.191 81.4966C132.191 81.6958 132.191 82.0942 132.39 82.0942L134.184 82.8911C134.384 83.0903 134.782 82.8911 134.782 82.6919C134.782 82.4927 134.782 82.0942 134.583 82.0942L132.789 81.2974Z" fill="#DEDEDE"/>
<path d="M133.187 80.4995C132.988 80.3003 132.589 80.4995 132.589 80.6987C132.589 80.8979 132.589 81.2964 132.789 81.2964L134.583 82.0932C134.782 82.2925 135.181 82.0932 135.181 81.894C135.181 81.6948 135.181 81.2964 134.981 81.2964L133.187 80.4995Z" fill="#DEDEDE"/>
<path d="M133.586 79.7026C133.386 79.5034 132.988 79.7026 132.988 79.9019C132.988 80.1011 132.988 80.4995 133.187 80.4995L134.981 81.2964C135.181 81.4956 135.579 81.2964 135.579 81.0971C135.579 80.8979 135.579 80.4995 135.38 80.4995L133.586 79.7026Z" fill="#DEDEDE"/>
<path d="M129.001 78.707L128.403 81.8945C128.403 81.8945 129.998 82.4921 130.795 82.8906C131.792 83.289 133.786 83.6874 133.786 83.6874C133.786 83.6874 133.985 82.2929 134.184 81.6953C134.384 81.0976 135.38 80.6992 135.38 80.6992C135.38 80.6992 133.387 79.3047 132.589 79.1055C132.191 78.9062 129.001 78.707 129.001 78.707Z" fill="#DEDEDE"/>
<path d="M116.043 58.5864C116.043 58.3871 116.641 55.9965 115.047 54.602C113.651 53.4067 109.664 52.6099 107.87 55.1997C106.276 57.9887 107.272 60.5785 108.269 61.973C109.066 63.1683 110.063 63.766 111.658 64.3636C112.056 64.5628 114.847 64.7621 115.445 64.5628C115.844 64.3636 116.043 61.5746 116.043 61.5746C116.243 61.5746 116.442 61.3754 116.442 61.1762C116.641 60.7777 116.043 58.7856 116.043 58.5864Z" fill="#FFBD95"/>
<path d="M112.057 53.2073C111.26 53.0081 108.07 53.6057 107.074 56.7932C106.077 59.9806 108.668 63.5665 109.466 63.3673C109.665 63.3673 110.462 61.7736 109.466 59.1838C109.466 58.9845 111.459 60.7775 111.658 60.3791C111.858 60.1798 110.662 57.9885 111.06 57.3908C113.652 54.801 115.845 55.7971 115.845 55.7971C115.247 53.4065 112.854 53.2073 112.057 53.2073Z" fill="#8D3B26"/>
<path d="M109.864 58.7847C109.466 58.984 109.266 59.7808 109.665 60.5777C109.864 61.3746 110.462 61.9722 110.861 61.773C111.26 61.5738 111.06 60.3785 110.861 59.5816C110.462 58.7847 110.263 58.5855 109.864 58.7847Z" fill="#FFBD95"/>
<path d="M111.061 62.9687C111.061 62.7695 111.659 61.1757 111.859 59.9804C111.859 59.582 111.859 58.3867 111.859 58.3867L111.261 58.5859C111.261 58.5859 111.46 59.3828 111.261 59.7812C111.061 61.1757 110.463 62.5703 110.463 62.5703C110.463 62.5703 110.064 61.9726 109.666 61.375C109.267 60.7773 108.868 59.7812 108.868 59.7812L108.47 60.1797C108.47 60.1797 109.267 62.1718 110.264 62.9687C111.061 63.7656 112.457 64.5624 114.051 64.7616C114.251 64.7616 114.649 64.7616 114.649 64.7616C114.649 64.7616 114.051 64.5624 114.051 64.3632C112.257 63.9648 111.061 62.9687 111.061 62.9687Z" fill="#383838"/>
<path d="M116.642 55.5976C116.443 54.2031 115.247 51.8125 111.46 52.0117C106.277 52.4101 104.881 57.5898 106.476 60.3788C106.875 60.9764 107.273 61.5741 107.473 61.5741C107.871 61.7733 108.071 60.7772 109.466 59.9803C110.463 59.1835 111.659 58.5858 112.656 58.3866C114.848 57.789 118.038 56.9921 118.038 56.3945C118.038 55.996 116.842 55.996 116.642 55.5976Z" fill="#002D56"/>
<path d="M95.3128 79.5039C92.9207 78.3086 87.5385 76.3164 85.5451 76.3164C83.5517 76.5156 81.5583 77.3125 80.9602 78.9062C79.3655 83.8866 84.5484 85.0819 87.7378 86.2772C90.9273 87.4725 98.3029 89.4647 101.492 90.2615C104.682 90.8592 105.679 88.2694 105.081 86.4764C104.483 84.8827 97.7049 80.6992 95.3128 79.5039Z" fill="#DEDEDE"/>
<path d="M103.685 86.2769C101.891 86.2769 98.1032 91.0581 98.5018 96.2377C98.9005 101.417 100.695 106.597 100.695 107.394C100.695 108.191 100.296 110.382 101.093 110.78C101.891 111.179 105.279 109.585 105.279 108.788C105.08 107.991 104.881 108.39 104.681 106.597C104.482 104.804 104.881 95.64 105.08 93.6479C105.08 91.4565 106.675 86.0777 103.685 86.2769Z" fill="#DEDEDE"/>
<path d="M102.29 109.983C101.492 109.584 102.09 107.592 101.891 106.596C101.891 105.799 100.097 100.421 99.6984 95.4401C99.499 93.2487 100.097 91.0574 101.094 89.2644C97.5056 88.4676 91.7247 86.8738 88.9339 85.6785C86.7412 84.8817 83.7511 83.8856 82.555 81.8934C82.555 81.6942 82.3557 81.6942 82.3557 81.495C80.5616 78.5068 81.5583 75.9169 83.3524 73.1279C83.153 72.9287 82.9537 72.7295 82.7544 72.5303C80.5616 75.9169 78.7675 78.706 80.9603 82.0926C80.9603 82.2919 81.1596 82.2919 81.1596 82.4911C82.3557 84.4832 85.5451 85.2801 87.5386 86.2762C90.13 87.2723 95.9109 89.0652 99.6984 89.8621C98.7017 91.655 98.1037 93.8464 98.303 96.0378C98.7017 101.217 100.496 106.397 100.496 107.194C100.496 107.991 100.097 110.182 100.894 110.581C101.492 110.979 103.287 110.182 104.283 109.385C103.486 109.983 102.689 110.182 102.29 109.983Z" fill="#C2C2C2"/>
<path d="M112.456 109.187C110.462 109.386 106.476 107.991 105.479 107.593C104.482 107.195 105.08 94.4448 105.08 94.4448C105.08 94.4448 104.283 92.0542 102.688 91.855C100.894 91.4565 98.5019 93.0503 98.5019 93.0503C98.5019 93.0503 97.9039 96.2377 98.3026 99.0267C98.7013 101.816 100.495 106.597 100.296 107.195C100.097 107.792 100.097 110.382 100.296 110.98C100.495 111.577 101.293 112.374 101.293 112.573C101.293 112.773 101.691 113.57 101.691 113.57L105.28 113.171L105.479 112.374C105.479 112.374 108.868 112.573 111.06 111.976C113.253 111.378 114.848 110.78 114.848 110.183C114.848 109.585 114.25 108.788 112.456 109.187Z" fill="black"/>
<path d="M110.463 104.604L108.071 104.804C107.871 104.804 107.672 105.003 107.672 105.401C107.672 105.601 107.871 105.8 108.27 105.8L110.662 105.601C110.861 105.601 111.061 105.401 111.061 105.003C110.861 104.804 110.662 104.604 110.463 104.604Z" fill="#303030"/>
<path d="M110.862 106.796C110.662 106.198 110.662 105.202 110.662 105.202L108.669 105.601C108.669 105.601 108.868 106.995 109.267 107.394C109.466 107.991 110.264 110.581 110.264 111.378C110.264 112.175 110.264 112.374 110.264 112.374L112.656 111.776C112.656 111.776 112.656 110.581 112.257 109.585C111.858 108.788 111.061 107.394 110.862 106.796Z" fill="#303030"/>
<path d="M105.081 67.5506C104.483 68.1483 104.483 69.3436 105.28 70.1404C106.077 70.9373 107.273 71.1365 107.871 70.5389C108.469 69.9412 108.469 68.7459 107.672 67.9491C106.875 67.1522 105.679 66.953 105.081 67.5506Z" fill="#DEDEDE"/>
<path d="M100.097 82.2919C98.3029 81.0966 96.3095 79.9013 95.3128 79.5029C94.7147 79.3037 93.9174 78.9052 93.12 78.5068C93.12 78.3076 93.12 78.3076 93.3194 78.1084C92.3226 77.9092 91.5253 77.7099 90.5286 77.3115C90.3292 77.3115 90.3292 77.3115 90.1299 77.1123C89.1332 76.7139 88.1365 76.3154 87.1398 75.7178C86.9404 76.3154 87.1398 76.9131 87.9371 77.3115C90.1299 78.5068 100.695 82.2919 100.695 82.2919C100.496 82.4911 100.296 82.4911 100.097 82.2919Z" fill="#C2C2C2"/>
<path d="M114.649 76.3157C113.453 77.5109 113.851 79.3039 115.845 80.1008C117.838 80.8976 128.204 82.0929 128.403 82.0929C128.603 82.0929 129.4 78.7062 129.4 78.7062C129.4 78.7062 126.211 77.1125 122.822 76.1164C119.433 75.1204 115.845 75.1204 114.649 76.3157Z" fill="#C90000"/>
</g>
<g filter="url(#filter2_d)">
<path d="M38.1433 21.9499C37.8293 24.8869 37.9523 28.3659 39.9006 30.7424C39.9006 30.7424 41.3266 29.2218 42.2867 28.3855C44.6633 26.4372 47.8193 24.3845 47.8193 24.3845L44.6932 16.4188C44.5697 16.4568 42.9247 20.3442 38.1433 21.9499Z" fill="#FFA47C"/>
<path d="M53.1789 34.7742C53.1789 34.7742 52.9313 38.3671 41.6008 40.2286C37.4564 40.8269 37.8551 44.7621 37.8551 44.7621C37.8551 44.7621 39.3858 42.2624 40.6595 42.006C43.7393 41.4646 46.2674 43.5276 42.8929 44.4301C39.5184 45.3326 37.3887 48.9633 36.1719 50.2844C35.0786 51.5674 32.5122 51.1393 32.5122 51.1393C32.5122 51.1393 34.5176 52.822 36.2001 52.5751C37.6354 52.4042 39.5081 51.0167 41.0577 49.4581C42.6072 47.8994 45.725 47.4816 45.725 47.4816C45.725 47.4816 44.0139 48.9547 43.6145 50.2949C42.6445 53.2984 42.264 55.5796 40.914 57.3474C39.8587 58.754 35.0965 59.5423 35.0965 59.5423C35.0965 59.5423 37.3301 60.208 39.9632 59.5334C44.0315 58.688 45.0871 55.523 47.2643 51.6071C49.4796 47.8148 57.6067 46.5327 64.4511 42.3989C71.1719 38.3031 68.7683 29.1683 68.0364 28.9876L53.1789 34.7742Z" fill="#330E01"/>
<path d="M66.4313 24.207C66.4313 24.207 65.3662 27.7808 53.9315 27.1044C49.8062 26.8852 49.3874 30.8013 49.3874 30.8013C49.3874 30.8013 51.3173 28.7199 52.667 28.7106C55.8133 28.8251 57.8375 31.4488 54.3586 31.5719C50.8796 31.695 48.0276 34.7363 46.6112 35.8482C44.9952 36.751 42.6855 35.8382 42.6855 35.8382C42.6855 35.8382 44.2726 37.92 45.9455 38.0818C47.4568 38.1581 49.4816 37.2649 51.2687 36.0389C53.1795 34.775 56.2781 35.1747 56.2781 35.1747C56.2781 35.1747 54.3294 36.315 53.6068 37.4841C52.1141 40.1073 51.2013 42.4169 49.4521 43.7664C48.1593 44.8403 43.3782 44.6876 43.3782 44.6876C43.3782 44.6876 45.4787 45.8 48.1782 45.7814C52.2274 45.7534 53.9292 42.9306 56.9524 39.5661C59.852 36.2397 68.1405 36.8016 75.6025 34.2363C83.0644 31.6709 82.5905 22.2131 81.9442 21.8709L66.4313 24.207Z" fill="#330E01"/>
<path d="M81.736 16.7947C78.9603 18.3247 79.863 19.9407 68.8564 16.6979C64.8358 15.4997 63.5236 19.1495 63.5236 19.1495C63.5236 19.1495 66.0142 17.572 67.1928 17.8858C70.1583 18.7322 71.6027 21.6695 68.1809 21.0987C64.7211 20.4044 61.2323 22.6947 59.7019 23.4358C58.1334 24.0535 56.0425 22.5324 56.0425 22.5324C56.0425 22.5324 57.1733 24.8898 58.7131 25.4983C60.0912 26.0213 62.3536 25.4608 64.4543 24.8148C66.5551 24.1687 69.5586 25.1386 69.5586 25.1386C69.5586 25.1386 67.3343 25.8227 66.4121 26.7826C64.2731 29.0636 62.8376 30.9929 60.9744 31.9717C59.444 32.7129 54.7295 31.4576 54.7295 31.4576C54.7295 31.4576 56.4117 32.9691 59.1777 33.6063C63.1222 34.5574 65.5084 32.2004 69.1683 29.587C72.8662 27.0971 80.7457 29.408 88.6542 28.7342C96.5246 27.9368 98.2939 18.736 97.6951 18.1086C97.5336 18.023 90.9283 11.9388 81.736 16.7947Z" fill="#330E01"/>
<path d="M23.4735 112.352C22.9983 111.686 25.6517 101.402 26.6322 90.9559C27.0034 87.3249 24.847 78.1141 19.8193 74.5204C14.9151 70.8888 3.70884 67.4369 -3.24022 72.5497C-16.4349 82.4238 -10.9996 94.8194 -6.7513 98.5175C-2.50296 102.216 10.1861 105.211 12.0964 107.464C13.883 109.755 14.0625 117.816 15.3456 118.909C16.6286 120.002 37.2162 126.25 39.9054 131.916C40.5705 133.199 43.8114 136.26 43.8114 136.26C43.8114 136.26 49.8096 133.333 49.4105 132.915C49.1349 132.459 47.1106 129.835 46.4359 128.96C44.6872 126.793 24.1862 113.35 23.4735 112.352Z" fill="#6F2200"/>
<path d="M48.4124 131.869L42.6802 135.661C42.6802 135.661 43.2691 138.455 43.8394 138.55C44.3241 138.807 53.183 139.464 54.1051 138.504C55.0653 137.668 51.6057 135.215 50.8929 134.217C50.3418 133.304 48.4124 131.869 48.4124 131.869Z" fill="#303030"/>
<path d="M81.0331 74.7668C80.5677 71.9342 83.2299 66.5166 78.174 60.6322C73.156 54.8714 68.8692 54.5666 65.913 55.07C59.5062 56.2288 57.0149 63.0817 56.9288 66.7602C56.8428 70.4387 59.7507 75.4958 62.4497 78.9941C64.8351 81.9125 72.0019 83.2252 76.8588 85.3836C81.7157 87.5419 93.9293 91.6308 95.2217 94.0738C96.5141 96.5168 93.3097 104.13 92.9199 105.062C92.5301 105.993 90.8093 107.875 90.7711 109.51C90.6948 111.021 89.3546 110.622 88.3756 110.517C87.3966 110.412 91.0077 116.876 91.0077 116.876C91.0077 116.876 91.7778 115.422 92.4908 114.662C93.1658 113.778 95.5044 111.706 96.7497 110.917C97.995 110.129 98.2995 107.6 98.6423 103.437C98.9851 99.2737 101.124 96.9927 101.695 95.3294C102.427 93.7516 101.553 90.9095 99.9751 88.4189C98.4356 86.0519 81.4129 77.761 81.0331 74.7668Z" fill="#6F2200"/>
<path d="M94.2354 19.1726C88.5895 17.5275 78.9792 21.0241 72.0493 25.3195C64.7867 29.8525 54.3962 38.7289 48.9297 45.1442C44.0907 50.9607 40.8393 55.3422 30.6683 58.3349C12.3889 63.5508 9.30942 62.3337 -3.51356 65.06C-16.3365 67.7862 -22.1264 75.7888 -22.2794 82.3284C-22.5275 89.4382 -19.3636 99.286 -12.7389 102.794C-6.19984 106.464 8.41103 97.2367 14.9413 96.0399C21.348 94.8812 40.9187 99.1421 56.3463 95.2091C71.7739 91.276 81.3764 75.8789 81.7194 69.9572C82.0624 64.0355 77.8617 60.0523 76.9589 58.4363C76.0941 56.9438 83.8712 44.4075 87.6451 42.1648C95.1453 37.9645 99.8813 20.8178 94.2354 19.1726Z" fill="#97380E"/>
<path d="M85.1822 110.687C84.6308 111.533 84.5443 118.728 85.1334 119.764C85.7226 120.8 87.3958 119.204 88.4319 118.615C89.4681 118.025 91.2553 116.8 91.2553 116.8L88.6232 110.44C88.4996 110.478 85.7337 109.841 85.1822 110.687Z" fill="#191919"/>
<path d="M113.557 30.5434C111.932 30.0965 106.125 26.6073 104.233 25.2953C102.218 24.0213 98.2364 19.4298 94.653 18.7734C90.984 18.2787 84.3019 17.2227 83.6264 21.6235C83.1792 25.0073 85.9628 35.3778 89.3368 37.9922C92.6728 40.483 98.9844 39.8946 102.007 40.0471C105.03 40.1996 107.406 40.0098 108.737 40.8179C110.105 41.7496 110.333 42.491 111.065 42.6717C111.797 42.8524 116.54 41.1231 117.13 40.4008C117.719 39.6785 117.558 37.8345 117.91 36.7794C118.3 35.848 118.385 33.9279 117.701 33.4621C117.055 33.1198 115.183 30.9904 113.557 30.5434Z" fill="#97380E"/>
<path d="M85.4333 12.5463C84.5871 13.7533 84.5106 17.0231 84.7955 18.8291C85.204 20.5971 87.409 22.489 88.2455 21.6907C91.088 19.0581 88.6741 15.6074 87.5526 14.5997C86.4312 13.592 86.2794 11.3392 85.4333 12.5463Z" fill="#6F2200"/>
<path d="M87.6253 44.7403C73.0723 47.9986 69.9271 40.8503 69.9271 40.8503L68.9765 41.2779C69.0905 41.6486 72.3877 49.2912 87.8438 45.8904C94.5452 44.3705 102.986 41.9098 106.693 40.7697C107.806 40.4277 108.423 40.2376 108.423 40.2376L108.119 39.2491C107.958 39.1635 96.2564 42.8974 87.6253 44.7403Z" fill="#191919"/>
<path d="M108.253 31.7688C107.255 34.24 107.749 35.8465 107.749 35.8465L110.03 36.227C110.03 36.227 109.878 33.9742 110.363 32.4725C110.972 30.9327 112.141 29.8968 112.141 29.8968L110.202 28.87C110.116 29.0315 109.118 29.7443 108.253 31.7688Z" fill="#191919"/>
<path d="M91.0097 31.1199L106.769 37.5L107.32 36.6541C107.158 36.5685 91.3615 30.0649 91.3615 30.0649L91.0097 31.1199Z" fill="#191919"/>
<path d="M93.5879 18.8302L91.915 18.6684C91.915 18.6684 89.2241 25.3122 90.3639 30.7778C91.5894 36.0819 95.0963 40.008 95.0963 40.008L97.3015 40.1414C97.1399 40.0558 95.1441 37.9644 93.1865 34.2381C91.5046 30.9681 91.5619 28.5158 91.6573 26.187C91.9238 23.5351 93.5879 18.8302 93.5879 18.8302Z" fill="#191919"/>
<path d="M86.2013 26.9178C83.7208 24.5696 82.5047 20.6153 82.5047 20.6153L81.5921 21.1665C81.5921 21.1665 82.4946 24.5409 85.2127 27.2218C87.3701 29.3988 90.2405 30.8154 90.3261 30.6539L90.2312 29.4657C90.2692 29.5893 88.3207 28.9712 86.2013 26.9178Z" fill="#191919"/>
<path d="M107.045 36.1983C106.665 36.721 106.446 37.3293 106.475 37.8616C106.541 38.5175 106.817 38.9737 107.339 39.354C107.9 39.8579 108.756 40.0006 109.497 39.7725C109.991 39.6205 110.324 39.3829 110.619 39.0218C110.999 38.499 111.218 37.8907 111.189 37.3584C111.123 36.7026 110.847 36.2463 110.325 35.866C109.279 35.1055 107.844 35.2764 107.045 36.1983ZM109.935 38.5559C109.431 39.1167 108.528 39.2591 107.967 38.7553C107.644 38.5841 107.53 38.2134 107.416 37.8427C107.425 37.434 107.473 37.1488 107.768 36.7877C107.977 36.5881 108.186 36.3885 108.433 36.3125C108.927 36.1605 109.374 36.2936 109.735 36.5883C110.058 36.7595 110.172 37.1302 110.286 37.5009C110.277 37.9096 110.144 38.3563 109.935 38.5559Z" fill="#E8A900"/>
<path d="M67.2623 62.0947C60.6847 61.8181 56.8627 67.8629 55.9592 71.5223C55.0557 75.1817 56.7087 81.4363 55.7672 84.9721C54.7021 88.5459 56.7551 89.9435 61.013 93.2329C65.2328 96.3987 76.239 103.158 77.0371 105.753C77.7116 108.386 72.8915 115.144 72.302 115.866C71.7506 116.712 69.6307 118.176 69.1458 119.677C68.7844 121.141 67.4917 120.457 66.5983 120.19C65.7904 119.763 67.833 126.844 67.833 126.844C67.833 126.844 68.8407 125.723 69.7153 125.048C70.5899 124.373 73.2421 122.881 74.725 122.425C76.0843 122.007 76.9591 119.574 78.2809 115.515C79.6027 111.457 82.0553 109.756 83.1106 108.349C84.1658 106.943 83.9476 104.034 82.95 101.23C81.8287 98.4636 70.5759 88.263 71.0038 87.4551C71.4316 86.6472 75.9276 86.7524 77.6579 84.4618C79.3882 82.1713 81.6797 76.8677 77.9926 70.1566C74.3055 63.4454 70.2469 62.1236 67.2623 62.0947Z" fill="#97380E"/>
<path d="M63.3856 119.42C62.6726 120.18 61.0367 127.176 61.2172 128.203C61.5592 129.315 63.6315 128.136 64.6201 127.832C65.7323 127.49 67.795 126.721 67.795 126.721L66.6838 120.029C66.6838 120.029 64.1366 118.783 63.3856 119.42Z" fill="#303030"/>
<path d="M16.1939 101.876C17.8673 98.5214 19.3229 88.7407 15.9303 83.4269C12.5377 78.113 3.02398 70.4885 -5.61662 72.7401C-22.1184 77.1387 -21.6736 91.3396 -19.0129 96.4727C-16.3141 101.729 -2.88429 109.773 -2.0102 112.615C-1.09811 115.581 -6.2605 122.984 -5.39573 124.477C-4.49296 126.093 19.0321 129.138 20.3723 129.537C21.8361 129.899 22.3681 131.629 22.3681 131.629C22.3681 131.629 29.5729 133.065 29.5065 132.409C29.3165 131.791 25.0306 124.453 24.0231 123.816C23.0157 123.179 5.67833 121.342 5.26029 119.982C5.10828 119.488 11.3068 111.495 16.1939 101.876Z" fill="#97380E"/>
<path d="M21.3896 135.041C21.7032 135.62 27.187 140.697 28.5367 140.688C29.8865 140.678 29.7538 137.608 29.9061 136.344C30.0584 135.08 29.4598 132.694 29.4598 132.694L22.3215 131.914C22.4831 131.999 21.114 134.584 21.3896 135.041Z" fill="#303030"/>
<path d="M46.0763 48.1854C45.62 48.461 43.224 52.9852 32.9103 56.8334C19.4596 61.9168 11.1805 62.7046 11.1805 62.7046C11.1805 62.7046 16.1776 81.5922 18.6964 82.3054C21.2152 83.0186 26.6142 82.9813 37.3079 80.3688C41.0911 79.4759 49.399 77.4619 57.27 73.1476C61.1199 71.152 46.5326 47.9099 46.0763 48.1854Z" fill="#046F3A"/>
<path d="M41.0955 53.0985L35.6392 55.5881C35.6392 55.5881 41.3505 64.923 44.8471 74.5332C49.4174 87.1948 50.9559 96.5956 50.9559 96.5956L57.5717 95.2373C57.5717 95.2373 55.7672 84.9714 50.4366 71.5969C46.3413 61.3592 41.0955 53.0985 41.0955 53.0985Z" fill="black"/>
<path d="M37.0784 20.2489C35.4055 20.0871 28.7894 23.2039 31.5176 21.9591C31.6411 21.9211 27.3445 23.7835 26.5175 24.1731C25.776 24.4011 16.8312 27.4226 13.2279 32.8591C12.6765 33.7049 10.8038 35.0925 11.8301 36.6705C15.0614 40.1403 19.8423 42.0515 24.7374 42.5749C26.4008 43.1455 27.1045 41.0354 28.5113 40.3322C31.2871 38.8023 36.4581 38.0235 39.9752 36.2656C43.5304 34.6311 45.1563 31.5612 45.0141 28.8997C44.8719 26.2382 41.8975 20.5252 37.0784 20.2489Z" fill="#1F7046"/>
<path d="M11.8689 36.7928C9.3589 40.9462 7.51436 44.6245 10.2038 48.5315C12.5416 51.735 20.1272 49.1317 22.5514 46.8983C23.8062 45.7008 24.1296 44.1135 24.6146 42.6117C19.843 42.0502 14.9766 40.3006 11.8689 36.7928Z" fill="#DEDEDE"/>
<path d="M43.8553 27.7675C41.2988 25.1723 38.5519 23.7176 36.5936 25.2667C32.3823 28.726 35.9464 31.9583 37.9802 34.1732C40.014 36.3882 48.1117 41.6077 50.8301 42.5301C53.5485 43.4524 54.566 40.1638 53.7108 38.2626C52.77 36.523 46.4119 30.3628 43.8553 27.7675Z" fill="#358B5F"/>
<path d="M72.3793 44.4249C72.0942 44.3773 71.7234 44.4913 71.6759 44.7765C71.6283 45.0616 71.7423 45.4323 72.0275 45.4799L74.2991 46.2691C74.5842 46.3167 74.955 46.2027 75.0025 45.9175C75.0501 45.6324 74.9361 45.2617 74.6509 45.2141L72.3793 44.4249Z" fill="#DEDEDE"/>
<path d="M72.8925 43.4551C72.6073 43.4076 72.2366 43.5216 72.1891 43.8067C72.1415 44.0919 72.2555 44.4626 72.5407 44.5102L74.8123 45.2994C75.0974 45.347 75.4681 45.233 75.5157 44.9478C75.5633 44.6627 75.4493 44.2919 75.1641 44.2444L72.8925 43.4551Z" fill="#DEDEDE"/>
<path d="M73.2812 42.5235C72.996 42.4759 72.6253 42.5899 72.5777 42.8751C72.5302 43.1602 72.6442 43.531 72.9293 43.5785L75.201 44.3678C75.4861 44.4153 75.8568 44.3013 75.9044 44.0162C75.9519 43.731 75.8379 43.3603 75.5528 43.3127L73.2812 42.5235Z" fill="#DEDEDE"/>
<path d="M73.5107 41.5069C73.2255 41.4593 72.8548 41.5733 72.8072 41.8585C72.7597 42.1436 72.8737 42.5144 73.1588 42.5619L75.4305 43.3512C75.7156 43.3987 76.0863 43.2847 76.1339 42.9996C76.1815 42.7144 76.0674 42.3437 75.7823 42.2961L73.5107 41.5069Z" fill="#DEDEDE"/>
<path d="M72.6263 40.8318C71.8945 40.6511 68.0068 40.7647 68.0068 40.7647L67.55 44.5572C67.55 44.5572 69.3749 45.2133 70.5915 45.6507C71.6846 46.1261 74.3365 46.3926 74.3365 46.3926C74.3365 46.3926 74.5839 44.5581 74.679 43.9878C74.8597 43.256 76.0195 42.6288 76.0195 42.6288C76.0195 42.6288 73.3582 41.0125 72.6263 40.8318Z" fill="#DEDEDE"/>
<path d="M40.9098 13.7948C38.9892 17.2259 40.3101 20.2012 41.9067 21.8744C43.1422 23.2528 44.1497 23.8898 46.0982 24.5079C46.5449 24.641 50.0998 24.7651 50.6797 24.4515C51.136 24.1759 51.0129 20.697 51.2981 20.7445C51.4216 20.7065 51.7544 20.4689 51.8019 20.1838C51.8115 19.7751 51.0514 17.3036 51.099 17.0185C51.1465 16.7333 51.7078 13.7202 49.6548 12.3227C47.6779 11.1723 42.8303 10.3637 40.9098 13.7948Z" fill="#FFBD95"/>
<path d="M45.7207 10.963C44.7417 10.8583 40.9585 11.7512 39.9694 15.5722C39.1039 19.3551 42.316 23.6424 43.1811 23.3764C43.4282 23.3004 44.3315 21.3995 42.9727 18.3006C42.8586 17.9299 45.5103 19.9548 45.7195 19.7553C45.8906 19.4321 44.1515 16.856 44.8645 16.0956C47.8497 12.6076 50.644 13.7772 50.644 13.7772C49.6084 10.8494 46.6997 11.0676 45.7207 10.963Z" fill="#8D3B26"/>
<path d="M43.391 17.9016C42.9347 18.1772 42.83 19.1562 43.2576 20.1068C43.6853 21.0573 44.4456 21.7703 45.0254 21.4567C45.4817 21.1811 45.2253 19.9074 44.7977 18.9568C44.2085 17.9207 43.8473 17.626 43.391 17.9016Z" fill="#FFBD95"/>
<path d="M45.0349 22.8062C44.9969 22.6827 45.577 20.6106 45.6533 19.0993C45.7484 18.529 45.5775 17.0937 45.5775 17.0937L44.8361 17.3217C44.8361 17.3217 44.9785 18.2247 44.9214 18.9186C44.7976 20.7151 44.189 22.2548 44.189 22.2548C44.189 22.2548 43.5903 21.6274 43.1151 20.962C42.6019 20.173 42.0983 18.9752 42.0983 18.9752L41.6325 19.6596C41.7561 19.6216 42.8868 21.979 43.8467 22.9011C44.9682 23.9088 46.584 24.7645 48.504 24.8503C48.7892 24.8979 49.2835 24.7459 49.2835 24.7459C49.2835 24.7459 48.6372 24.4036 48.5136 24.4416C46.6031 23.9471 45.1965 22.8918 45.0349 22.8062Z" fill="#383838"/>
<path d="M46.7006 73.9632L44.5238 74.3621C44.5238 74.3621 45.227 75.769 45.0748 77.0332C45.0081 78.1358 45.1978 80.5121 45.3403 81.4151C45.6063 82.2801 47.3077 82.9742 47.3077 82.9742L49.7791 82.2141C49.7791 82.2141 47.8691 78.2027 47.204 76.9194C46.5768 75.7597 46.7006 73.9632 46.7006 73.9632Z" fill="black"/>
<path d="M41.4177 56.7869L35.6669 57.8792C35.6669 57.8792 35.7328 62.052 36.5687 66.5291C37.4901 70.8445 38.5828 73.0784 39.809 73.1071C41.1588 73.0978 43.0504 72.6513 43.9723 73.4498C44.8942 74.2484 45.8921 75.2941 46.7571 75.0281C47.6221 74.7621 45.627 67.3953 44.1829 62.6995C42.8623 57.9657 41.4177 56.7869 41.4177 56.7869Z" fill="#191919"/>
<path d="M33.8441 48.4308C32.6273 49.7518 34.4137 53.8013 34.9173 54.999C35.4209 56.1967 36.3237 57.8127 38.3484 56.9195C40.3732 56.0263 39.3755 53.2221 39.3947 52.4047C39.4518 51.7108 38.017 48.3648 37.1331 47.6898C36.6103 47.3095 34.348 47.87 33.8441 48.4308Z" fill="#303030"/>
<path d="M38.8999 50.7977C38.8999 50.7977 40.4296 55.3319 37.9581 56.092C36.1045 56.6621 35.3633 55.1316 34.8691 55.2836C34.3748 55.4357 33.329 56.4336 32.7967 56.462C32.1409 56.5285 29.8597 56.1479 29.1562 56.4995C28.4528 56.8511 22.2738 60.5098 22.863 61.5459C23.4522 62.5821 29.0123 66.1473 33.4325 64.2469C37.8907 62.47 38.0908 59.1622 39.0794 58.8582C40.03 58.4306 43.3566 59.5717 43.8988 57.376C43.9179 56.5586 42.7687 49.7432 38.8999 50.7977Z" fill="#191919"/>
<path d="M34.6978 53.8485C33.681 51.8617 33.4245 50.588 33.4245 50.588C33.4245 50.588 27.7965 56.9177 24.308 57.4495C17.7397 58.5227 16.1051 56.726 14.6315 58.5318C13.9565 59.4157 16.7791 62.876 20.144 62.3822C23.4709 61.7648 37.3399 56.2822 37.3399 56.2822C37.3399 56.2822 35.7906 56.0823 34.6978 53.8485Z" fill="#303030"/>
<path d="M51.3858 13.5493C50.8918 11.9429 49.3238 9.04356 44.8943 9.59426C38.6207 10.3063 37.2416 16.8172 39.5414 19.8972C40.0166 20.5626 40.6533 21.3136 40.8149 21.3992C41.138 21.5703 41.3283 20.4297 42.8683 19.2798C44.0756 18.3674 45.4445 17.5407 46.6802 17.1606C49.2373 16.239 53.03 14.9373 53.0016 14.405C53.0112 13.9963 51.4998 13.92 51.3858 13.5493Z" fill="#046F3A"/>
<path d="M27.3624 44.0675C24.2829 42.8504 17.6675 40.6918 15.3292 41.0052C12.9908 41.3185 10.4718 42.3637 9.89169 44.4358C8.3985 50.576 14.6718 51.6224 18.5688 52.8586C22.5038 54.2184 31.5811 56.0256 35.5732 56.6915C39.5273 57.2338 40.5448 53.9452 39.6516 51.9204C38.92 49.9813 30.3184 45.3226 27.3624 44.0675Z" fill="#DEDEDE"/>
<path d="M37.9023 51.5107C35.6495 51.6625 31.5424 57.6597 32.2544 63.9333C32.9665 70.2068 35.6461 76.281 35.703 77.3456C35.7598 78.4102 35.3318 80.9765 36.2632 81.3664C37.2327 81.8798 41.3773 79.523 41.1113 78.658C40.8452 77.793 40.5505 78.1542 40.1896 76.101C39.7907 73.9243 39.7637 62.8412 39.8211 60.3889C39.9641 57.775 41.5904 51.1881 37.9023 51.5107Z" fill="#DEDEDE"/>
<path d="M35.1542 55.3322C30.5918 54.5711 23.5961 52.9353 20.3075 51.9178C17.7127 50.9574 13.9677 50.2155 12.3046 47.8865C12.143 47.8009 12.105 47.6773 11.9054 47.4682C9.49158 44.0175 10.5471 40.8524 12.4676 37.4213C12.2681 37.2121 11.9449 37.041 11.7453 36.8318C9.23536 40.9853 7.39083 44.6635 10.0803 48.5705C10.1183 48.6941 10.3178 48.9033 10.4794 48.9888C12.1425 51.3178 15.8875 52.0597 18.4823 53.0201C21.809 54.1612 28.8902 55.6355 33.329 56.4345C32.3782 58.6206 31.8265 61.2249 32.1303 63.972C32.8423 70.2455 35.5219 76.3197 35.5788 77.3843C35.6357 78.4489 35.2076 81.0152 36.1391 81.405C36.909 81.7093 39.1428 80.6165 40.2266 79.7422C39.276 80.1698 38.1638 80.5118 37.8407 80.3407C36.8712 79.8273 37.3373 77.3845 37.2804 76.3199C37.2235 75.2553 34.6295 69.0196 33.8319 62.9076C33.6517 60.1226 34.2033 57.5182 35.1542 55.3322Z" fill="#C2C2C2"/>
<path d="M50.1501 78.5834C47.8498 79.0203 42.8122 77.5938 41.472 77.1944C40.2554 76.757 39.9629 61.292 39.9629 61.292C39.9629 61.292 38.7181 58.5639 36.8836 58.3165C34.764 58.0215 32.0547 60.2073 32.0547 60.2073C32.0547 60.2073 31.5979 63.9999 32.2533 67.4503C32.8706 70.7772 35.3983 76.3571 35.2556 77.2126C35.0749 77.9445 35.2075 81.0147 35.4355 81.7561C35.6255 82.374 36.747 83.3817 36.823 83.6288C36.899 83.876 37.3266 84.8265 37.3266 84.8265L41.6802 84.0287L41.7848 83.0497C41.7848 83.0497 45.8341 83.0217 48.4291 82.2236C50.9862 81.302 52.8873 80.4468 52.9825 79.8765C52.9636 78.9355 52.4504 78.1464 50.1501 78.5834Z" fill="black"/>
<path d="M47.4516 73.3265L44.6569 73.9154C44.4098 73.9915 44.1151 74.3526 44.1911 74.5998C44.3051 74.9705 44.6282 75.1416 44.8754 75.0656L47.67 74.4767C47.9172 74.4007 48.2119 74.0395 48.1359 73.7924C48.0599 73.5452 47.6987 73.2505 47.4516 73.3265Z" fill="#303030"/>
<path d="M48.0503 75.7133C47.8222 74.9718 47.6038 73.8217 47.6038 73.8217L45.2179 74.4202C45.2179 74.4202 45.7119 76.0266 45.9019 76.6445C46.2535 77.3479 47.4508 80.3612 47.3841 81.4638C47.441 82.5284 47.3934 82.8135 47.3934 82.8135L50.2356 81.9394C50.2356 81.9394 50.2263 80.5897 49.6847 79.2684C49.4662 78.1183 48.3163 76.5783 48.0503 75.7133Z" fill="#303030"/>
<path d="M38.2279 28.8219C37.5149 29.5822 37.6858 31.0175 38.6837 32.0633C39.6816 33.109 41.0694 33.2232 41.9059 32.4249C42.6189 31.6646 42.4481 30.2293 41.4501 29.1835C40.4902 28.2614 38.9409 28.0616 38.2279 28.8219Z" fill="#DEDEDE"/>
<path d="M33.3011 47.1101C31.001 45.7885 28.6154 44.6286 27.2372 44.1056C26.4673 43.8013 25.5359 43.4115 24.4808 43.0597C24.5664 42.8981 24.5284 42.7745 24.614 42.6129C23.4734 42.4227 22.3327 42.2324 21.1541 41.9186C20.9926 41.833 20.831 41.7474 20.5838 41.8235C19.2437 41.4241 18.027 40.9867 16.7724 40.4257C16.5537 41.034 16.7817 41.7754 17.9128 42.3744C20.6216 43.7055 33.6623 47.4048 33.7859 47.3668C33.7859 47.3668 33.5863 47.1576 33.3011 47.1101Z" fill="#C2C2C2"/>
<path d="M50.3462 38.7569C48.9582 40.4011 49.7279 42.4638 52.1611 43.3387C54.5943 44.2135 67.2552 44.9186 67.6639 44.9281C68.0347 44.8141 68.577 40.86 68.577 40.86C68.577 40.86 64.6516 39.0915 60.4219 38.0929C56.1922 37.0943 51.7342 37.1127 50.3462 38.7569Z" fill="#358B5F"/>
</g>
<g clip-path="url(#clip1)">
<path d="M671.88 110.976C671.88 111.665 672.623 112.24 673.514 112.24C674.405 112.24 675.148 111.665 675.148 110.976V12.2641C675.148 11.5746 674.405 11 673.514 11C672.623 11 671.88 11.5746 671.88 12.2641V110.976Z" fill="#CAE5E1"/>
<path d="M671.88 110.975C671.88 111.665 672.623 112.24 673.514 112.24C674.405 112.24 672.771 11.1147 672.623 11.2296C672.177 11.4594 672.029 11.8042 672.029 12.1489V110.975H671.88Z" fill="#5D8781"/>
<path d="M671.436 27.0016C668.02 23.5294 662.376 27.9074 658.069 25.6429C654.653 23.8313 647.822 20.0572 645 24.7371C647.079 18.0947 651.98 18.5476 657.772 19.4533C663.713 20.3591 666.832 14.7734 671.881 12.207C669.95 16.8869 667.871 21.8688 671.436 26.3977V27.0016Z" fill="#E33A49"/>
</g>
<path d="M504 45C504 41.6863 506.686 39 510 39H654C657.314 39 660 41.6863 660 45V97C660 100.314 657.314 103 654 103H510C506.686 103 504 100.314 504 97V45Z" fill="#F2782C"/>
<g filter="url(#filter3_d)">
<path d="M539.274 59.502H541.938V64.614C541.254 65.13 540.462 65.526 539.562 65.802C538.662 66.078 537.756 66.216 536.844 66.216C535.536 66.216 534.36 65.94 533.316 65.388C532.272 64.824 531.45 64.05 530.85 63.066C530.262 62.07 529.968 60.948 529.968 59.7C529.968 58.452 530.262 57.336 530.85 56.352C531.45 55.356 532.278 54.582 533.334 54.03C534.39 53.466 535.578 53.184 536.898 53.184C538.002 53.184 539.004 53.37 539.904 53.742C540.804 54.114 541.56 54.654 542.172 55.362L540.3 57.09C539.4 56.142 538.314 55.668 537.042 55.668C536.238 55.668 535.524 55.836 534.9 56.172C534.276 56.508 533.79 56.982 533.442 57.594C533.094 58.206 532.92 58.908 532.92 59.7C532.92 60.48 533.094 61.176 533.442 61.788C533.79 62.4 534.27 62.88 534.882 63.228C535.506 63.564 536.214 63.732 537.006 63.732C537.846 63.732 538.602 63.552 539.274 63.192V59.502ZM554.403 63.66V66H544.647V53.4H554.169V55.74H547.545V58.476H553.395V60.744H547.545V63.66H554.403ZM559.333 55.776H555.301V53.4H566.281V55.776H562.249V66H559.333V55.776ZM572.948 53.4H575.864V66H572.948V53.4ZM590.41 53.4V66H588.016L581.734 58.35V66H578.854V53.4H581.266L587.53 61.05V53.4H590.41ZM601.099 55.776H597.067V53.4H608.047V55.776H604.015V66H601.099V55.776ZM621.172 53.4V66H618.256V60.834H612.532V66H609.616V53.4H612.532V58.368H618.256V53.4H621.172ZM633.909 63.66V66H624.153V53.4H633.675V55.74H627.051V58.476H632.901V60.744H627.051V63.66H633.909ZM535.873 81.502H538.537V86.614C537.853 87.13 537.061 87.526 536.161 87.802C535.261 88.078 534.355 88.216 533.443 88.216C532.135 88.216 530.959 87.94 529.915 87.388C528.871 86.824 528.049 86.05 527.449 85.066C526.861 84.07 526.567 82.948 526.567 81.7C526.567 80.452 526.861 79.336 527.449 78.352C528.049 77.356 528.877 76.582 529.933 76.03C530.989 75.466 532.177 75.184 533.497 75.184C534.601 75.184 535.603 75.37 536.503 75.742C537.403 76.114 538.159 76.654 538.771 77.362L536.899 79.09C535.999 78.142 534.913 77.668 533.641 77.668C532.837 77.668 532.123 77.836 531.499 78.172C530.875 78.508 530.389 78.982 530.041 79.594C529.693 80.206 529.519 80.908 529.519 81.7C529.519 82.48 529.693 83.176 530.041 83.788C530.389 84.4 530.869 84.88 531.481 85.228C532.105 85.564 532.813 85.732 533.605 85.732C534.445 85.732 535.201 85.552 535.873 85.192V81.502ZM549.543 85.3H543.693L542.577 88H539.589L545.205 75.4H548.085L553.719 88H550.659L549.543 85.3ZM548.625 83.086L546.627 78.262L544.629 83.086H548.625ZM566.493 88L566.475 80.44L562.767 86.668H561.453L557.763 80.602V88H555.027V75.4H557.439L562.155 83.23L566.799 75.4H569.193L569.229 88H566.493ZM581.974 85.66V88H572.218V75.4H581.74V77.74H575.116V80.476H580.966V82.744H575.116V85.66H581.974ZM600.948 75.4V88H598.554L592.272 80.35V88H589.392V75.4H591.804L598.068 83.05V75.4H600.948ZM610.031 88.216C608.723 88.216 607.541 87.934 606.485 87.37C605.441 86.806 604.619 86.032 604.019 85.048C603.431 84.052 603.137 82.936 603.137 81.7C603.137 80.464 603.431 79.354 604.019 78.37C604.619 77.374 605.441 76.594 606.485 76.03C607.541 75.466 608.723 75.184 610.031 75.184C611.339 75.184 612.515 75.466 613.559 76.03C614.603 76.594 615.425 77.374 616.025 78.37C616.625 79.354 616.925 80.464 616.925 81.7C616.925 82.936 616.625 84.052 616.025 85.048C615.425 86.032 614.603 86.806 613.559 87.37C612.515 87.934 611.339 88.216 610.031 88.216ZM610.031 85.732C610.775 85.732 611.447 85.564 612.047 85.228C612.647 84.88 613.115 84.4 613.451 83.788C613.799 83.176 613.973 82.48 613.973 81.7C613.973 80.92 613.799 80.224 613.451 79.612C613.115 79 612.647 78.526 612.047 78.19C611.447 77.842 610.775 77.668 610.031 77.668C609.287 77.668 608.615 77.842 608.015 78.19C607.415 78.526 606.941 79 606.593 79.612C606.257 80.224 606.089 80.92 606.089 81.7C606.089 82.48 606.257 83.176 606.593 83.788C606.941 84.4 607.415 84.88 608.015 85.228C608.615 85.564 609.287 85.732 610.031 85.732ZM637.739 75.4L633.617 88H630.485L627.713 79.468L624.851 88H621.737L617.597 75.4H620.621L623.465 84.256L626.435 75.4H629.135L632.015 84.328L634.949 75.4H637.739Z" fill="white"/>
</g>
</g>
<defs>
<filter id="filter0_d" x="176.988" y="51.3682" width="322.283" height="66.064" filterUnits="userSpaceOnUse" color-interpolation-filters="sRGB">
<feFlood flood-opacity="0" result="BackgroundImageFix"/>
<feColorMatrix in="SourceAlpha" type="matrix" values="0 0 0 0 0 0 0 0 0 0 0 0 0 0 0 0 0 0 127 0"/>
<feOffset dy="12"/>
<feGaussianBlur stdDeviation="10"/>
<feColorMatrix type="matrix" values="0 0 0 0 0 0 0 0 0 0 0 0 0 0 0 0 0 0 0.06 0"/>
<feBlend mode="normal" in2="BackgroundImageFix" result="effect1_dropShadow"/>
<feBlend mode="normal" in="SourceGraphic" in2="effect1_dropShadow" result="shape"/>
</filter>
<filter id="filter1_d" x="-4" y="26" width="212" height="191.194" filterUnits="userSpaceOnUse" color-interpolation-filters="sRGB">
<feFlood flood-opacity="0" result="BackgroundImageFix"/>
<feColorMatrix in="SourceAlpha" type="matrix" values="0 0 0 0 0 0 0 0 0 0 0 0 0 0 0 0 0 0 127 0"/>
<feOffset dy="4"/>
<feGaussianBlur stdDeviation="15"/>
<feColorMatrix type="matrix" values="0 0 0 0 0 0 0 0 0 0 0 0 0 0 0 0 0 0 0.08 0"/>
<feBlend mode="normal" in2="BackgroundImageFix" result="effect1_dropShadow"/>
<feBlend mode="normal" in="SourceGraphic" in2="effect1_dropShadow" result="shape"/>
</filter>
<filter id="filter2_d" x="-101.85" y="-16.4746" width="250.06" height="191.162" filterUnits="userSpaceOnUse" color-interpolation-filters="sRGB">
<feFlood flood-opacity="0" result="BackgroundImageFix"/>
<feColorMatrix in="SourceAlpha" type="matrix" values="0 0 0 0 0 0 0 0 0 0 0 0 0 0 0 0 0 0 127 0"/>
<feOffset dy="4"/>
<feGaussianBlur stdDeviation="15"/>
<feColorMatrix type="matrix" values="0 0 0 0 0 0 0 0 0 0 0 0 0 0 0 0 0 0 0.08 0"/>
<feBlend mode="normal" in2="BackgroundImageFix" result="effect1_dropShadow"/>
<feBlend mode="normal" in="SourceGraphic" in2="effect1_dropShadow" result="shape"/>
</filter>
<filter id="filter3_d" x="506.567" y="45.1836" width="151.172" height="75.032" filterUnits="userSpaceOnUse" color-interpolation-filters="sRGB">
<feFlood flood-opacity="0" result="BackgroundImageFix"/>
<feColorMatrix in="SourceAlpha" type="matrix" values="0 0 0 0 0 0 0 0 0 0 0 0 0 0 0 0 0 0 127 0"/>
<feOffset dy="12"/>
<feGaussianBlur stdDeviation="10"/>
<feColorMatrix type="matrix" values="0 0 0 0 0 0 0 0 0 0 0 0 0 0 0 0 0 0 0.06 0"/>
<feBlend mode="normal" in2="BackgroundImageFix" result="effect1_dropShadow"/>
<feBlend mode="normal" in="SourceGraphic" in2="effect1_dropShadow" result="shape"/>
</filter>
<clipPath id="clip0">
<rect width="695" height="144" fill="white"/>
</clipPath>
<clipPath id="clip1">
<rect width="30" height="133" fill="white" transform="translate(645 11)"/>
</clipPath>
</defs>
</svg>
