<svg width="202" height="172" viewBox="0 0 202 172" fill="none" xmlns="http://www.w3.org/2000/svg">
<path d="M202 122.846C202 173.459 130.326 166.7 80.2999 166.7C30.2737 166.7 0 173.459 0 122.846C0 72.2333 18.3259 0 68.3521 0C118.378 0 202 72.2333 202 122.846Z" fill="#EEFFFB"/>
<path d="M68.7313 60.8742H48.5636C47.9657 60.8742 47.481 60.3895 47.481 59.7916V48.9901C47.481 42.8338 52.4896 37.8252 58.6459 37.8252C64.8047 37.8252 69.8133 42.8338 69.8133 48.9901V59.7916C69.8133 60.3895 69.3292 60.8742 68.7313 60.8742ZM49.6456 58.7096H67.6487V48.9901C67.6487 44.027 63.6115 39.9898 58.6484 39.9898C53.6834 39.9898 49.6456 44.027 49.6456 48.9901V58.7096Z" fill="black"/>
<path d="M161.243 84.0471L147.761 86.5644C147.761 86.5644 144.104 75.9638 141.827 74.8654C139.956 73.9648 137.252 72.8474 135.976 72.1194C135.382 71.78 135.007 71.16 134.979 70.4762C134.973 70.3018 134.988 70.1317 135.024 69.9706C135.25 68.9373 136.281 68.225 137.376 68.4588L141.866 69.4201L141.864 69.4176C141.831 69.3234 140.743 66.3214 140.823 64.797C140.88 63.7245 141.801 62.8656 142.838 62.9958C142.951 63.0085 143.067 63.0338 143.181 63.0729C143.534 63.1905 143.892 63.43 144.224 63.8187C144.224 63.8187 144.111 61.0442 145.735 60.7838C146.428 60.6739 146.956 60.8236 147.332 61.0373C147.751 61.2679 147.984 61.5726 148.055 61.6724L148.078 61.7078C148.078 61.7078 148.523 59.7221 149.802 59.6962C151.163 59.6684 152.413 61.2705 152.413 61.2705C152.413 61.2705 153.217 60.0596 155.175 60.744C157.132 61.4304 158.556 64.4734 159.643 68.2768C160.728 72.0764 161.243 84.0471 161.243 84.0471Z" fill="white"/>
<path d="M147.76 86.7804C147.67 86.7804 147.587 86.7229 147.556 86.6344C146.302 82.9973 143.469 75.8974 141.732 75.0594C141.016 74.7143 140.163 74.3313 139.338 73.9609C137.963 73.3435 136.663 72.7601 135.869 72.3064C135.206 71.9278 134.794 71.2465 134.763 70.4837C134.756 70.2909 134.772 70.1026 134.812 69.9231C135.069 68.7463 136.239 67.9936 137.421 68.2458L141.533 69.1261C141.231 68.235 140.54 66.042 140.606 64.7843C140.639 64.1795 140.921 63.6126 141.381 63.2283C141.807 62.8725 142.335 62.7132 142.864 62.7796C142.994 62.7941 143.125 62.8238 143.251 62.8668C143.52 62.9566 143.777 63.1038 144.017 63.306C144.073 62.4402 144.355 60.7844 145.701 60.5689C146.338 60.4671 146.94 60.5644 147.439 60.8476C147.669 60.9746 147.85 61.1219 147.984 61.2565C148.202 60.6308 148.739 59.4995 149.797 59.4787C149.811 59.4787 149.824 59.478 149.837 59.478C150.986 59.478 152.019 60.4949 152.415 60.9367C152.77 60.5872 153.663 59.9849 155.246 60.5379C157.048 61.1699 158.554 63.6815 159.851 68.2154C160.931 71.9973 161.438 83.5477 161.458 84.0375C161.463 84.145 161.388 84.2398 161.282 84.26L147.8 86.7773C147.788 86.7792 147.774 86.7804 147.76 86.7804ZM136.962 68.6306C136.149 68.6306 135.415 69.1944 135.235 70.0166C135.203 70.1607 135.19 70.3124 135.195 70.4679C135.22 71.0796 135.552 71.6276 136.083 71.931C136.859 72.374 138.208 72.9801 139.514 73.5666C140.342 73.9382 141.198 74.3224 141.92 74.67C144.114 75.7286 147.398 84.8768 147.903 86.3178L161.017 83.8694C160.946 82.3318 160.426 71.8096 159.434 68.3355C158.196 64.0076 156.739 61.5213 155.102 60.9474C153.339 60.3312 152.621 61.3468 152.592 61.3905C152.552 61.4473 152.488 61.4834 152.42 61.4853C152.343 61.4928 152.284 61.4574 152.241 61.4031C152.229 61.3879 151.039 59.8825 149.806 59.9122C148.712 59.9337 148.292 61.7368 148.288 61.7551C148.269 61.8404 148.2 61.9055 148.114 61.9207C148.027 61.9359 147.942 61.898 147.894 61.824L147.872 61.7886C147.804 61.6926 147.592 61.4271 147.228 61.2268C146.806 60.9872 146.315 60.9114 145.769 60.9974C144.353 61.2242 144.438 63.7838 144.439 63.8098C144.443 63.902 144.388 63.9861 144.302 64.0196C144.217 64.0537 144.118 64.0284 144.059 63.9583C143.77 63.6195 143.452 63.3907 143.113 63.2776C143.014 63.2435 142.914 63.2214 142.813 63.21C142.402 63.1582 141.992 63.2827 141.659 63.5607C141.291 63.8685 141.064 64.3229 141.039 64.8077C140.978 65.9668 141.656 68.2015 142.067 69.3391C142.092 69.4055 142.085 69.4813 142.043 69.5407C141.993 69.6121 141.906 69.6482 141.82 69.6298L137.331 68.6686C137.207 68.6433 137.083 68.6306 136.962 68.6306Z" fill="black"/>
<path d="M144.859 73.2772C143.057 72.3513 141.865 69.4188 141.865 69.4188L141.864 69.4163C141.83 69.3221 140.742 66.3201 140.822 64.7957C140.88 63.7232 141.801 62.8643 142.837 62.9945C142.864 62.9983 142.892 63.0008 142.919 63.0065C143.007 63.0198 143.094 63.0432 143.181 63.0716C143.534 63.1892 143.892 63.4287 144.224 63.8174C144.224 63.8174 144.293 65.2217 144.932 67.622C145.552 69.9497 147.072 71.6839 147.166 71.7907C147.167 71.7932 147.169 71.7951 147.171 71.7958C147.798 73.305 146.659 74.203 144.859 73.2772Z" fill="white"/>
<path d="M146.196 73.8694C145.77 73.8694 145.277 73.7361 144.76 73.47C142.941 72.5353 141.758 69.7279 141.669 69.5099C141.665 69.5036 141.662 69.4966 141.66 69.4903C141.543 69.1661 140.527 66.2981 140.606 64.7851C140.639 64.1802 140.921 63.6133 141.381 63.2291C141.807 62.8733 142.335 62.714 142.864 62.7804L142.891 62.7841C142.916 62.7873 142.941 62.7905 142.965 62.7962C143.044 62.8075 143.142 62.8315 143.249 62.8676C143.663 63.0053 144.046 63.2784 144.387 63.6778C144.418 63.7144 144.437 63.76 144.439 63.8074C144.44 63.8213 144.516 65.2211 145.141 67.5671C145.713 69.7191 147.057 71.3383 147.325 71.6454C147.344 71.665 147.36 71.6878 147.37 71.7137C147.682 72.4639 147.612 73.1243 147.177 73.5256C146.928 73.755 146.59 73.8688 146.196 73.8694ZM142.063 69.331C142.064 69.3329 142.065 69.3355 142.066 69.3374C142.078 69.3658 143.249 72.2066 144.958 73.0845C145.772 73.5035 146.51 73.5509 146.883 73.2071C147.171 72.941 147.207 72.4708 146.984 71.9128C146.669 71.5475 145.31 69.8815 144.723 67.6784C144.161 65.5668 144.036 64.2314 144.012 63.9053C143.736 63.5956 143.433 63.3845 143.113 63.2784C143.029 63.2506 142.956 63.2316 142.888 63.2215C142.862 63.2164 142.85 63.2152 142.838 63.2139L142.806 63.2095C142.4 63.1589 141.992 63.2834 141.659 63.5615C141.291 63.8693 141.064 64.3237 141.039 64.8084C140.978 65.9644 141.652 68.1903 142.063 69.331Z" fill="black"/>
<path d="M147.17 71.7964C147.168 71.7957 147.167 71.7938 147.165 71.7913C147.072 71.6845 145.551 69.9503 144.932 67.6226C144.292 65.2217 144.223 63.818 144.223 63.818C144.223 63.818 144.11 61.0435 145.735 60.7831C146.428 60.6732 146.956 60.823 147.332 61.0366C147.384 61.0663 147.434 61.0953 147.482 61.1257C147.529 61.1579 147.576 61.1908 147.619 61.2243C147.636 61.2382 147.655 61.2521 147.67 61.266C147.71 61.297 147.745 61.3286 147.776 61.3595C147.793 61.3734 147.808 61.3886 147.823 61.4038C147.942 61.5207 148.019 61.6218 148.054 61.6717L148.077 61.7071C148.077 61.7071 147.336 67.1208 149.576 69.6507C150.019 70.15 150.311 70.6227 150.473 71.043C151.132 72.7444 149.627 73.5723 147.17 71.7964Z" fill="white"/>
<path d="M149.548 73.0098C148.863 73.0098 147.988 72.6546 147.043 71.972L147.044 71.9714C147.028 71.96 147.013 71.9468 147 71.9316C146.719 71.6093 145.32 69.9225 144.722 67.6782C144.084 65.283 144.009 63.8869 144.006 63.8287C144.001 63.7061 143.906 60.8571 145.7 60.5695C146.338 60.4678 146.939 60.5651 147.438 60.8482C147.493 60.8792 147.546 60.9108 147.597 60.943C147.655 60.9828 147.705 61.0176 147.751 61.0536C147.784 61.0795 147.8 61.0922 147.813 61.1042C147.847 61.1295 147.886 61.1642 147.921 61.199C147.941 61.2154 147.959 61.2331 147.976 61.2508C148.07 61.3424 148.158 61.4455 148.231 61.5466L148.259 61.5908C148.287 61.6344 148.298 61.6856 148.291 61.7368C148.284 61.7899 147.59 67.0823 149.738 69.5072C150.178 70.0046 150.494 70.4951 150.674 70.9653C150.973 71.7369 150.877 72.386 150.411 72.745C150.181 72.9226 149.888 73.0098 149.548 73.0098ZM147.316 71.6346C148.777 72.6849 149.754 72.7052 150.148 72.4012C150.451 72.1673 150.496 71.7003 150.272 71.1201C150.112 70.7049 149.816 70.2461 149.415 69.7935C147.262 67.3622 147.764 62.4845 147.853 61.7602C147.804 61.6957 147.741 61.6243 147.672 61.558C147.659 61.5434 147.651 61.5352 147.641 61.5276C147.636 61.5226 147.63 61.5175 147.624 61.5124C147.599 61.4872 147.571 61.4613 147.538 61.436L147.502 61.4069C147.502 61.4063 147.485 61.393 147.484 61.3924C147.447 61.3633 147.403 61.333 147.359 61.3033C147.321 61.2792 147.274 61.2521 147.226 61.2249C146.806 60.9866 146.316 60.9102 145.769 60.9967C144.351 61.2243 144.438 63.7832 144.439 63.8091C144.44 63.8211 144.516 65.221 145.141 67.567C145.708 69.6956 147.028 71.3021 147.316 71.6346Z" fill="black"/>
<path d="M153.114 70.779C152.836 71.3237 152.151 71.8003 150.474 71.0425C150.312 70.6228 150.019 70.1501 149.577 69.6502C147.337 67.1203 148.078 61.7066 148.078 61.7066C148.078 61.7066 148.523 59.7208 149.802 59.6949C151.163 59.6671 152.412 61.2692 152.412 61.2692C152.412 61.2692 151.095 62.3942 151.598 64.9879C151.977 66.9408 152.75 68.7445 153.111 69.5206C153.296 69.9194 153.312 70.3858 153.114 70.779Z" fill="white"/>
<path d="M151.977 71.6555C151.565 71.6555 151.044 71.538 150.385 71.2397C150.333 71.2163 150.292 71.1733 150.271 71.1202C150.112 70.705 149.815 70.2462 149.414 69.7937C147.135 67.2189 147.832 61.9025 147.863 61.6769C147.886 61.5707 148.365 59.5072 149.798 59.4782C149.811 59.4782 149.825 59.4775 149.838 59.4775C151.274 59.4775 152.53 61.067 152.583 61.1353C152.655 61.2263 152.641 61.3577 152.554 61.4329C152.504 61.4753 151.341 62.5212 151.811 64.9456C152.193 66.913 152.985 68.7357 153.308 69.4277C153.531 69.9081 153.53 70.4358 153.308 70.8757C153.308 70.8757 153.308 70.8763 153.307 70.8763C153.102 71.2776 152.714 71.6555 151.977 71.6555ZM150.642 70.8801C151.473 71.2422 152.512 71.4805 152.921 70.681C153.081 70.3644 153.079 69.9649 152.915 69.6117C152.586 68.9057 151.777 67.0438 151.386 65.0297C150.964 62.8543 151.768 61.6611 152.12 61.2598C151.786 60.8825 150.808 59.8991 149.806 59.9124C148.712 59.9338 148.292 61.7369 148.288 61.7553C148.284 61.79 147.591 67.0824 149.739 69.508C150.153 69.9751 150.457 70.4364 150.642 70.8801Z" fill="black"/>
<path d="M152.454 67.9481C152.454 67.9481 153.366 70.806 154.875 70.4856C156.435 70.1544 155.231 68.2337 155.29 67.184C155.348 66.1349 155.969 65.02 155.969 65.02" fill="white"/>
<path d="M154.637 70.7277C153.132 70.7277 152.286 68.1308 152.248 68.0139C152.212 67.9001 152.275 67.7781 152.389 67.7421C152.502 67.7054 152.624 67.7686 152.66 67.8824C152.898 68.625 153.751 70.5039 154.83 70.2739C155.085 70.2195 155.257 70.1184 155.353 69.9642C155.573 69.6109 155.416 68.9827 155.265 68.3754C155.157 67.9386 155.054 67.5266 155.073 67.172C155.134 66.0856 155.753 64.9619 155.779 64.9145C155.837 64.8102 155.969 64.773 156.074 64.8305C156.178 64.8886 156.215 65.0207 156.158 65.125C156.152 65.1357 155.561 66.2101 155.505 67.196C155.489 67.4849 155.584 67.8666 155.685 68.2704C155.859 68.965 156.038 69.6842 155.72 70.193C155.56 70.4483 155.291 70.6183 154.92 70.6967C154.823 70.7175 154.728 70.7277 154.637 70.7277Z" fill="black"/>
<path d="M118.508 94.8555C118.508 94.8555 124.921 95.1791 128.394 95.6278C134.974 96.4778 144.784 106.982 144.784 106.982L144.081 82.2269L163.983 80.9597C163.983 80.9597 166.609 116.367 152.089 122.555C138.627 128.292 120.878 110.242 120.878 110.242L118.508 94.8555Z" fill="#8670C5"/>
<path d="M144.784 107.199C144.667 107.199 144.571 107.106 144.568 106.988L143.865 82.2327C143.862 82.1165 143.952 82.0179 144.068 82.0103L163.971 80.7431C164.089 80.7355 164.192 80.8259 164.201 80.9454C164.208 81.0648 164.118 81.1678 163.998 81.1754L144.305 82.4293L145.002 106.976C145.005 107.095 144.911 107.195 144.791 107.198C144.788 107.199 144.786 107.199 144.784 107.199Z" fill="black"/>
<path d="M118.508 94.8556C123.511 95.257 127.421 99.3409 127.605 104.356L128.395 146.917C128.392 151.521 85.4698 151.499 85.4724 146.895L82.9937 106.236C82.5885 101.119 86.1644 96.5412 91.228 95.6962C100.625 94.8632 109.722 94.5757 118.508 94.8556Z" fill="#8670C5"/>
<path d="M128.394 147.133C128.277 147.133 128.18 147.039 128.177 146.921L127.387 104.361C127.385 104.242 127.48 104.143 127.6 104.14C127.715 104.14 127.818 104.233 127.82 104.353L128.61 146.913C128.612 147.032 128.517 147.131 128.398 147.133C128.397 147.133 128.395 147.133 128.394 147.133ZM96.0699 110.331L98.28 131.426C98.3817 132.398 99.2634 133.096 100.233 132.972L109.698 131.764C110.574 131.652 111.227 130.902 111.219 130.02L111.024 109.136C111.015 108.121 110.143 107.329 109.131 107.417L97.6505 108.414C96.6816 108.498 95.9687 109.362 96.0699 110.331Z" fill="black"/>
<path d="M92.1274 130.21L93.8326 123.323L93.6638 119.006C93.5817 117.929 94.4336 117.009 95.5143 117.009C96.4876 117.009 97.2953 117.76 97.3655 118.731C97.574 121.615 97.8148 125.032 99.5522 125.138C105.678 125.516 110.102 115.313 111.528 114.861C112.954 114.408 113.633 116.196 112.818 118.008C112.818 118.008 113.742 116.629 114.768 117.487C115.671 118.241 114.199 120.656 114.199 120.656C114.199 120.656 115.158 119.494 115.988 120.52C116.648 121.336 115.626 122.988 115.626 122.988C115.626 122.988 117.679 122.195 117.105 124.625C116.683 126.411 111.664 132.111 109.105 134.375C106.547 136.639 99.7481 138.043 99.7481 138.043L92.1274 130.21Z" fill="white"/>
<path d="M99.7486 138.259C99.6904 138.259 99.6348 138.236 99.5931 138.193L91.9712 130.36C91.9187 130.306 91.8985 130.23 91.9162 130.157L93.6144 123.301L93.4469 119.015C93.4033 118.449 93.603 117.878 93.9936 117.456C94.3848 117.034 94.9384 116.792 95.5142 116.792C96.5955 116.792 97.5031 117.637 97.5808 118.715L97.5827 118.745C97.7786 121.455 98.0226 124.828 99.5653 124.922C103.766 125.174 107.258 120.156 109.344 117.153C110.414 115.613 110.994 114.803 111.462 114.654C112.035 114.472 112.549 114.596 112.911 115.003C113.362 115.509 113.495 116.346 113.301 117.236C113.474 117.123 113.675 117.032 113.897 117C114.252 116.949 114.592 117.056 114.906 117.319C115.586 117.888 115.194 119.123 114.812 119.956C114.94 119.908 115.075 119.882 115.225 119.879C115.574 119.881 115.887 120.05 116.156 120.383C116.682 121.033 116.319 122.077 116.042 122.665C116.358 122.623 116.763 122.641 117.059 122.899C117.431 123.222 117.517 123.82 117.315 124.674C116.87 126.559 111.7 132.367 109.249 134.536C106.677 136.812 100.072 138.196 99.7915 138.254C99.7776 138.258 99.7631 138.259 99.7486 138.259ZM92.3662 130.145L99.8206 137.806C100.724 137.609 106.658 136.253 108.962 134.213C111.589 131.889 116.499 126.25 116.894 124.575C117.053 123.9 117.012 123.434 116.776 123.227C116.485 122.971 115.903 123.114 115.703 123.19C115.617 123.223 115.518 123.198 115.459 123.126C115.4 123.054 115.393 122.953 115.442 122.874C115.703 122.45 116.28 121.226 115.82 120.656C115.634 120.427 115.44 120.315 115.224 120.313C115.223 120.313 115.221 120.313 115.22 120.313C114.771 120.313 114.37 120.789 114.365 120.794C114.293 120.881 114.166 120.898 114.073 120.832C113.981 120.766 113.955 120.641 114.013 120.543C114.37 119.958 115.248 118.17 114.628 117.653C114.41 117.469 114.192 117.397 113.96 117.429C113.423 117.505 113.002 118.121 112.997 118.127C112.935 118.22 112.81 118.25 112.712 118.195C112.614 118.14 112.574 118.02 112.62 117.917C113.076 116.904 113.062 115.824 112.587 115.29C112.342 115.015 111.998 114.937 111.592 115.066C111.243 115.177 110.493 116.256 109.699 117.399C107.561 120.477 103.982 125.626 99.5375 125.353C97.6168 125.235 97.3691 121.803 97.1498 118.774L97.1479 118.745C97.0866 117.892 96.368 117.224 95.5129 117.224C95.0509 117.224 94.6243 117.41 94.3102 117.749C93.9961 118.088 93.8425 118.528 93.8779 118.989L94.0473 123.313C94.0479 123.334 94.046 123.354 94.041 123.374L92.3662 130.145Z" fill="black"/>
<path d="M112.819 118.008C112.819 118.008 112.038 119.875 111.268 120.871C110.498 121.867 106.921 126.067 106.921 126.067" fill="white"/>
<path d="M106.921 126.283C106.871 126.283 106.821 126.266 106.781 126.231C106.69 126.154 106.679 126.017 106.756 125.926C106.792 125.884 110.338 121.719 111.096 120.739C111.839 119.777 112.611 117.942 112.619 117.924C112.665 117.813 112.792 117.761 112.902 117.807C113.012 117.854 113.064 117.981 113.018 118.091C112.986 118.168 112.217 119.996 111.439 121.003C110.675 121.992 107.232 126.035 107.086 126.207C107.043 126.257 106.983 126.283 106.921 126.283Z" fill="black"/>
<path d="M114.2 120.656C114.2 120.656 113.057 122.931 111.959 124.448C110.861 125.965 108.891 127.855 108.891 127.855" fill="white"/>
<path d="M108.891 128.072C108.834 128.072 108.777 128.049 108.735 128.005C108.652 127.919 108.655 127.782 108.741 127.699C108.761 127.68 110.709 125.805 111.783 124.322C112.858 122.836 113.994 120.582 114.006 120.56C114.06 120.453 114.189 120.409 114.297 120.464C114.403 120.517 114.446 120.648 114.393 120.754C114.381 120.777 113.229 123.062 112.133 124.576C111.036 126.092 109.121 127.934 109.04 128.012C108.999 128.051 108.945 128.072 108.891 128.072Z" fill="black"/>
<path d="M115.626 122.988C115.626 122.988 114.083 125.399 113.359 126.44C112.635 127.482 110.012 129.893 110.012 129.893" fill="white"/>
<path d="M110.012 130.109C109.953 130.109 109.895 130.086 109.852 130.039C109.771 129.951 109.777 129.814 109.865 129.733C109.891 129.709 112.478 127.326 113.181 126.316C113.895 125.291 115.428 122.895 115.444 122.871C115.508 122.77 115.642 122.741 115.743 122.805C115.843 122.87 115.873 123.004 115.808 123.104C115.792 123.128 114.255 125.53 113.536 126.564C112.806 127.612 110.266 129.952 110.158 130.052C110.116 130.09 110.064 130.109 110.012 130.109Z" fill="black"/>
<path d="M92.0118 95.6278C92.0118 95.6278 82.1791 95.1316 77.2394 101.368C74.5262 104.793 51.6946 140.488 67.3606 149.453C83.0266 158.418 104.035 139.522 104.035 139.522L90.9728 125.976L78.1368 134.873L89.456 108.335L92.0118 95.6278Z" fill="#8670C5"/>
<path d="M76.7768 152.062C73.2768 152.062 70.0776 151.256 67.2532 149.64C67.1495 149.58 67.1135 149.448 67.1729 149.344C67.2323 149.24 67.3644 149.204 67.4687 149.264C75.478 153.847 84.9448 150.918 91.4765 147.655C97.8685 144.461 102.768 140.335 103.723 139.508L90.9456 126.259L78.2607 135.051C78.1817 135.106 78.0762 135.102 78.001 135.041C77.9264 134.98 77.9005 134.877 77.9384 134.788L89.2575 108.25C89.3043 108.14 89.4326 108.09 89.5419 108.136C89.6519 108.182 89.7031 108.31 89.6563 108.42L78.6317 134.268L90.8508 125.798C90.9374 125.738 91.0562 125.75 91.1301 125.826L104.192 139.372C104.233 139.414 104.255 139.471 104.253 139.53C104.251 139.588 104.225 139.644 104.182 139.683C104.128 139.73 98.8247 144.467 91.6711 148.043C86.3149 150.718 81.295 152.062 76.7768 152.062ZM89.3795 75.0151C89.3795 75.0151 84.4885 69.3271 87.1207 66.0413C89.753 62.7555 94.4102 65.9655 94.4102 65.9655L92.7455 71.8096L90.7282 75.8221" fill="black"/>
<path d="M93.9097 73.9394C93.9097 73.9394 90.2036 70.143 87.6478 73.6335C85.0926 77.1235 89.0799 81.2327 93.217 81.5721" fill="white"/>
<path d="M93.2177 81.789C93.212 81.789 93.2057 81.789 93.2 81.7883C90.5968 81.5741 88.0037 79.8791 87.0348 77.7574C86.3725 76.307 86.5286 74.7972 87.474 73.5053C88.1787 72.5428 89.037 72.0195 90.0248 71.9494C92.0997 71.7989 93.9855 73.707 94.0652 73.7885C94.1486 73.8738 94.1467 74.0109 94.0614 74.0944C93.9754 74.1778 93.8383 74.1765 93.7555 74.0912C93.7372 74.0729 91.9246 72.2496 90.0539 72.3817C89.1994 72.443 88.4486 72.9068 87.8229 73.7613C86.7346 75.2471 87.0076 76.6571 87.4285 77.5773C88.3367 79.5656 90.7788 81.1544 93.2354 81.3561C93.3542 81.3662 93.4433 81.4704 93.4332 81.5899C93.4237 81.703 93.3295 81.789 93.2177 81.789Z" fill="black"/>
<path d="M112.226 95.3213C112.765 100.293 100.315 102.477 99.4573 95.6531L98.4492 81.2668L111.75 83.3569L112.226 95.3213Z" fill="white"/>
<path d="M105.389 100.176C102.454 100.176 99.6417 98.8543 99.243 95.6804L98.2337 81.2822C98.2292 81.2164 98.2545 81.152 98.3032 81.1077C98.3518 81.0628 98.4182 81.0426 98.4833 81.0534L111.784 83.1434C111.887 83.1592 111.963 83.2458 111.967 83.3488L112.443 95.3062C112.723 97.9455 109.625 99.7492 106.564 100.108C106.173 100.152 105.78 100.176 105.389 100.176ZM98.6843 81.5229L99.6733 95.638C100.087 98.9289 103.409 100.041 106.513 99.6765C109.37 99.3422 112.268 97.7104 112.011 95.3448C112.011 95.3397 112.011 95.3353 112.01 95.3302L111.541 83.5434L98.6843 81.5229Z" fill="black"/>
<path d="M107.668 90.5813C106.801 90.9068 105.891 91.1223 104.944 91.2114C97.6227 91.8971 90.9614 84.7024 90.2441 77.0451C89.5268 69.3872 95.0246 64.1669 102.346 63.4805C109.668 62.7948 116.04 66.9028 116.758 74.5607C117.164 78.8988 115.669 83.4448 112.965 86.6958" fill="white"/>
<path d="M103.961 91.4736C100.769 91.4736 97.6086 90.0541 94.9637 87.4099C92.1822 84.6284 90.3829 80.8579 90.0271 77.0653C89.3357 69.6829 94.3923 64.0082 102.325 63.2649C106.027 62.9199 109.517 63.7889 112.155 65.7171C114.957 67.7648 116.623 70.8161 116.972 74.5404C117.376 78.8589 115.94 83.4548 113.13 86.8341C113.054 86.9257 112.918 86.9384 112.825 86.8619C112.734 86.7854 112.721 86.6489 112.797 86.5573C115.535 83.2646 116.935 78.7875 116.541 74.5809C116.204 70.9835 114.599 68.0391 111.899 66.0666C109.347 64.2009 105.961 63.3578 102.365 63.6966C94.6862 64.4158 89.7901 69.8971 90.4581 77.0248C91.13 84.1968 97.4607 91.6973 104.923 90.9958C105.828 90.9111 106.726 90.7038 107.591 90.379C107.703 90.3373 107.828 90.3935 107.87 90.5054C107.911 90.6173 107.855 90.7424 107.743 90.7841C106.842 91.1222 105.907 91.3384 104.963 91.4268C104.63 91.4578 104.295 91.4736 103.961 91.4736Z" fill="black"/>
<path d="M117.833 74.2025C116.851 78.0609 113.568 73.9358 113.568 73.9358C113.568 73.9358 112.966 75.8672 111.826 75.7509C110.373 75.6043 111.207 72.3969 111.317 69.4581C109.614 68.6137 108.22 67.1766 107.367 65.4752C107.092 66.0225 106.692 66.4991 106.181 66.8612C105.418 67.4066 104.535 67.7567 103.658 68.0885C101.464 68.9171 99.2146 69.6616 96.8825 69.9264C94.5523 70.1887 92.1141 69.9428 90.0259 68.8703C87.9397 67.7959 86.2529 65.8235 85.8579 63.5097C85.5627 61.7717 86.0677 59.8466 87.3943 58.6863C88.7234 57.524 90.8987 57.337 92.248 58.4708C92.9502 56.1507 93.7421 53.6922 95.6141 52.1514C97.3135 50.7553 99.6292 50.3647 101.829 50.3483C106.587 50.3117 111.343 51.8259 115.204 54.608C116.006 55.1837 116.782 55.8271 117.331 56.6474C117.878 57.4697 118.182 58.4954 117.966 59.4598C117.773 60.3251 117.101 61.0999 116.253 61.3116C117.044 61.9164 120.182 64.9797 117.833 74.2025Z" fill="black"/>
<path d="M112.796 75.1769C112.796 75.1769 115.677 69.5136 118.785 72.3108C121.894 75.108 118.934 79.7855 115.085 80.9256" fill="white"/>
<path d="M115.085 81.1411C114.992 81.1411 114.906 81.0805 114.878 80.9863C114.844 80.8719 114.91 80.7512 115.024 80.7171C117.307 80.0408 119.301 78.0557 119.767 75.9966C119.983 75.0442 119.962 73.6595 118.641 72.4707C117.991 71.8855 117.304 71.6542 116.599 71.7863C114.598 72.1579 113.005 75.2427 112.99 75.2743C112.935 75.3811 112.804 75.4234 112.698 75.3691C112.592 75.3147 112.549 75.1845 112.604 75.0783C112.672 74.9437 114.308 71.7724 116.519 71.3616C117.364 71.2042 118.175 71.4703 118.93 72.1497C120.083 73.1868 120.53 74.5873 120.189 76.0927C119.691 78.2952 117.571 80.4143 115.147 81.1323C115.126 81.1386 115.106 81.1411 115.085 81.1411Z" fill="black"/>
<path d="M115.891 74.4419C116.542 74.5582 117.119 75.0278 117.364 75.6421C117.61 76.2564 117.517 76.9945 117.126 77.528" fill="white"/>
<path d="M117.126 77.7441C117.082 77.7441 117.037 77.7308 116.999 77.7023C116.902 77.6316 116.881 77.4963 116.952 77.3996C117.299 76.9256 117.382 76.2671 117.164 75.7223C116.945 75.1769 116.43 74.7579 115.853 74.6548C115.735 74.634 115.657 74.5215 115.678 74.4039C115.699 74.2864 115.81 74.2074 115.929 74.2289C116.65 74.3578 117.293 74.8811 117.565 75.5618C117.838 76.2418 117.734 77.064 117.301 77.6556C117.259 77.7137 117.193 77.7441 117.126 77.7441Z" fill="black"/>
<path d="M104.875 71.6871C105.332 71.3787 105.888 71.2201 106.423 71.2441C106.959 71.2681 107.471 71.4754 107.851 71.8211" fill="white"/>
<path d="M107.851 72.0378C107.799 72.0378 107.747 72.0195 107.706 71.9816C107.36 71.6675 106.902 71.4829 106.414 71.4608C105.92 71.4387 105.418 71.5828 104.997 71.8672C104.898 71.9335 104.763 71.9076 104.696 71.809C104.629 71.7098 104.656 71.5752 104.754 71.5082C105.252 71.1726 105.847 71.0051 106.433 71.0285C107.022 71.0551 107.577 71.2801 107.996 71.6618C108.085 71.7421 108.091 71.8792 108.011 71.9677C107.968 72.0138 107.91 72.0378 107.851 72.0378Z" fill="black"/>
<path d="M106.882 75.7249C107.451 75.6231 107.795 74.8818 107.65 74.0659C107.504 73.2506 106.926 72.6685 106.357 72.7735C105.788 72.8752 105.444 73.6165 105.589 74.4318C105.735 75.2477 106.317 75.8279 106.882 75.7249Z" fill="black"/>
<path d="M94.7463 73.8788C95.2033 73.5703 95.7588 73.4117 96.2941 73.4357C96.8294 73.4597 97.342 73.667 97.7218 74.0127" fill="white"/>
<path d="M97.7224 74.229C97.6706 74.229 97.6181 74.2107 97.5771 74.1727C97.232 73.8593 96.7738 73.6741 96.2853 73.652C95.791 73.6298 95.2892 73.7739 94.8683 74.0583C94.7691 74.1247 94.6345 74.0994 94.5675 74.0002C94.5005 73.901 94.5264 73.7664 94.6256 73.6994C95.123 73.3638 95.719 73.1963 96.3042 73.2197C96.8932 73.2462 97.4488 73.4712 97.8678 73.8529C97.9563 73.9332 97.9626 74.0704 97.8823 74.1588C97.8393 74.2056 97.7812 74.229 97.7224 74.229Z" fill="black"/>
<path d="M96.7535 77.9161C97.3229 77.8143 97.6667 77.073 97.5214 76.2571C97.376 75.4418 96.7971 74.8597 96.2289 74.9646C95.6595 75.0664 95.3157 75.8077 95.4611 76.623C95.6058 77.4389 96.1879 78.0197 96.7535 77.9161Z" fill="black"/>
<path d="M101.552 74.6423C101.798 76.3355 101.383 78.1164 100.414 79.5271C100.212 79.8216 99.9755 80.178 100.118 80.506C100.226 80.7531 100.506 80.8663 100.76 80.9554C101.345 81.1614 101.93 81.3668 102.515 81.5728" fill="white"/>
<path d="M102.515 81.789C102.491 81.789 102.467 81.7852 102.443 81.777L100.688 81.1596C100.39 81.0547 100.061 80.9162 99.9199 80.592C99.7259 80.1471 100.033 79.7003 100.236 79.4045C101.174 78.0381 101.576 76.314 101.337 74.6733C101.32 74.5552 101.402 74.4452 101.521 74.4281C101.639 74.4085 101.749 74.4926 101.766 74.6114C102.02 76.3583 101.592 78.1949 100.593 79.6497C100.396 79.9366 100.226 80.2116 100.317 80.4195C100.389 80.5838 100.611 80.6736 100.833 80.7513L102.587 81.3688C102.699 81.4086 102.759 81.5318 102.719 81.6449C102.687 81.7334 102.604 81.789 102.515 81.789Z" fill="black"/>
<path d="M103.322 86.4904C102.79 86.4904 102.258 86.4095 101.75 86.2464C101.636 86.2098 101.573 86.0878 101.61 85.974C101.647 85.8603 101.768 85.7983 101.882 85.8344C103.02 86.2009 104.293 86.1143 105.372 85.5974C106.451 85.0804 107.315 84.1431 107.743 83.0264C107.786 82.9152 107.911 82.8595 108.023 82.9019C108.135 82.9449 108.191 83.07 108.148 83.1819C107.68 84.401 106.737 85.4236 105.559 85.9879C104.862 86.321 104.092 86.4904 103.322 86.4904Z" fill="black"/>
<path d="M78.1595 94.628H38.71C38.3271 94.628 38.0161 94.3171 38.0161 93.9341V84.2367C38.0161 83.8537 38.3271 83.5427 38.71 83.5427H78.1595C78.5425 83.5427 78.8534 83.8537 78.8534 84.2367V93.9341C78.8534 94.3171 78.5431 94.628 78.1595 94.628Z" fill="#C2F963"/>
<path d="M76.4772 94.8441H40.3931C38.9636 94.8441 37.8 93.6806 37.8 92.251V85.919C37.8 84.4894 38.9636 83.3259 40.3931 83.3259H76.4772C77.9068 83.3259 79.0703 84.4894 79.0703 85.919V92.251C79.0703 93.6812 77.9068 94.8441 76.4772 94.8441ZM40.3931 83.7595C39.2018 83.7595 38.233 84.7283 38.233 85.9197V92.2517C38.233 93.4424 39.2018 94.4118 40.3931 94.4118H76.4772C77.6679 94.4118 78.6374 93.443 78.6374 92.2517V85.9197C78.6374 84.729 77.6685 83.7595 76.4772 83.7595H40.3931Z" fill="black"/>
<path d="M73.5845 58.0277V74.1842C73.5845 76.953 71.3396 79.1972 68.5714 79.1972H48.7235C45.9547 79.1972 43.7104 76.9523 43.7104 74.1842V58.0277C43.7104 55.2589 45.9553 53.0166 48.7235 53.0166H68.5708C71.3396 53.0166 73.5845 55.2589 73.5845 58.0277Z" fill="#F6538A"/>
<path d="M73.5846 58.0277V74.1841C73.5846 76.9529 71.3397 79.1971 68.5715 79.1971H48.7236C46.286 79.1971 44.2535 77.4566 43.8035 75.1492C44.7211 76.1901 46.0654 76.8461 47.5632 76.8461H51.256C62.9474 76.8461 72.4236 67.3693 72.4236 55.6785C72.4236 55.3474 72.3914 55.025 72.3307 54.7109C73.1106 55.5945 73.5846 56.7548 73.5846 58.0277Z" fill="#E81868"/>
<path d="M68.5708 79.4138H48.7235C45.8396 79.4138 43.4937 77.0678 43.4937 74.184V58.0276C43.4937 55.145 45.8396 52.8003 48.7235 52.8003H68.5708C71.4546 52.8003 73.8006 55.145 73.8006 58.0276V74.1846C73.8006 77.0678 71.4546 79.4138 68.5708 79.4138ZM48.7235 53.2326C46.0785 53.2326 43.9266 55.3833 43.9266 58.0269V74.184C43.9266 76.8289 46.0785 78.9809 48.7235 78.9809H68.5708C71.2157 78.9809 73.3677 76.8289 73.3677 74.184V58.0276C73.3677 55.3839 71.2157 53.2332 68.5708 53.2332H48.7235V53.2326Z" fill="black"/>
<path d="M58.6472 71.7061C55.539 71.7061 53.0098 69.1775 53.0098 66.0693C53.0098 65.5909 53.3972 65.2035 53.8756 65.2035C54.354 65.2035 54.7414 65.5909 54.7414 66.0693C54.7414 68.2225 56.4933 69.9745 58.6472 69.9745C59.1256 69.9745 59.513 70.3619 59.513 70.8403C59.513 71.3187 59.1256 71.7061 58.6472 71.7061ZM63.4188 66.9352C62.9404 66.9352 62.553 66.5477 62.553 66.0693C62.553 63.9155 60.8011 62.1636 58.6478 62.1636C58.1694 62.1636 57.782 61.7761 57.782 61.2977C57.782 60.8193 58.1694 60.4319 58.6478 60.4319C61.756 60.4319 64.2846 62.9605 64.2846 66.0693C64.2846 66.5477 63.8966 66.9352 63.4188 66.9352Z" fill="white"/>
<path d="M58.8784 63.7643C58.6123 63.7643 58.3501 63.6423 58.1807 63.4117L56.801 61.5378C56.6651 61.3526 56.6076 61.1213 56.6424 60.8944C56.6772 60.6675 56.8004 60.4634 56.9849 60.3275L58.8588 58.9485C59.2437 58.6647 59.786 58.7475 60.0697 59.1324C60.3535 59.5173 60.2707 60.0595 59.8858 60.3433L58.709 61.2091L59.5755 62.3859C59.8593 62.7708 59.7765 63.3131 59.3916 63.5968C59.2361 63.7093 59.0566 63.7643 58.8784 63.7643ZM57.4988 73.1906C57.2327 73.1906 56.9704 73.0686 56.801 72.8379C56.5173 72.4531 56.6 71.9108 56.9849 71.627L58.1617 70.7612L57.2952 69.5844C57.0115 69.1995 57.0943 68.6573 57.4792 68.3735C57.864 68.0897 58.4063 68.1725 58.6901 68.5574L60.0697 70.4313C60.3535 70.8162 60.2707 71.3584 59.8858 71.6422L58.0119 73.0219C57.8565 73.1356 57.677 73.1906 57.4988 73.1906Z" fill="white"/>
<path d="M44.874 91.9445V86.235H47.3003C47.9102 86.235 48.3538 86.2862 48.63 86.3886C48.9062 86.491 49.128 86.6736 49.2942 86.9359C49.4604 87.1982 49.5432 87.4984 49.5432 87.8359C49.5432 88.2644 49.4175 88.6183 49.1653 88.897C48.9138 89.1763 48.5371 89.352 48.0359 89.4247C48.2856 89.5701 48.491 89.73 48.6534 89.9038C48.8158 90.0782 49.0345 90.3866 49.31 90.8309L50.0071 91.9445H48.6287L47.7951 90.702C47.4994 90.2583 47.2965 89.9784 47.1878 89.8627C47.0784 89.747 46.9634 89.668 46.8414 89.6251C46.7195 89.5821 46.5261 89.5606 46.2613 89.5606H46.0274V91.9439H44.874V91.9445ZM46.0268 88.6499H46.88C47.433 88.6499 47.7781 88.6265 47.9158 88.5797C48.0536 88.533 48.1611 88.4527 48.2388 88.3383C48.3165 88.2239 48.3557 88.0811 48.3557 87.9098C48.3557 87.7177 48.3045 87.5629 48.2021 87.444C48.0998 87.3259 47.955 87.2513 47.768 87.2203C47.6744 87.2077 47.3944 87.2007 46.9268 87.2007H46.0268V88.6499ZM50.6296 91.9445V86.235H54.8628V87.2007H51.7824V88.4666H54.6485V89.4285H51.7824V90.9826H54.9721V91.9445H50.6296ZM55.6572 90.0871L56.779 89.9777C56.8466 90.3544 56.9831 90.6312 57.1898 90.8069C57.3965 90.9839 57.6746 91.0717 58.0253 91.0717C58.3963 91.0717 58.6763 90.9933 58.8646 90.836C59.0529 90.6792 59.1471 90.4953 59.1471 90.2849C59.1471 90.1503 59.1073 90.0352 59.0283 89.9404C58.9493 89.8456 58.8109 89.7628 58.6137 89.6933C58.4785 89.6466 58.1713 89.5638 57.691 89.4437C57.0729 89.2907 56.6393 89.1024 56.3903 88.8793C56.0396 88.5652 55.8645 88.1822 55.8645 87.7303C55.8645 87.4396 55.9467 87.1679 56.1116 86.9144C56.2766 86.6616 56.5142 86.4689 56.8245 86.3361C57.1348 86.2041 57.509 86.1377 57.9482 86.1377C58.6649 86.1377 59.204 86.2951 59.5661 86.6092C59.9283 86.9233 60.1185 87.3423 60.1368 87.8668L58.9841 87.9174C58.9348 87.6242 58.8286 87.4131 58.6668 87.2848C58.5044 87.1565 58.261 87.092 57.9362 87.092C57.6012 87.092 57.339 87.1609 57.1494 87.2987C57.0274 87.3872 56.9661 87.5047 56.9661 87.6532C56.9661 87.7885 57.023 87.9041 57.1374 88.0002C57.2827 88.1222 57.636 88.2492 58.1966 88.3819C58.7572 88.5146 59.1724 88.6512 59.441 88.7927C59.7096 88.9343 59.9201 89.1277 60.0717 89.3729C60.2234 89.6181 60.2999 89.9215 60.2999 90.2823C60.2999 90.6091 60.2089 90.9156 60.0275 91.2013C59.8461 91.4869 59.5889 91.6993 59.2564 91.8383C58.924 91.9767 58.5101 92.0463 58.0139 92.0463C57.2922 92.0463 56.7379 91.8794 56.3511 91.5457C55.9644 91.212 55.7324 90.7254 55.6572 90.0871ZM61.2694 91.9445V86.235H65.5025V87.2007H62.4221V88.4666H65.2883V89.4285H62.4221V90.9826H65.6118V91.9445H61.2694ZM67.8738 91.9445V87.2013H66.18V86.2357H70.7171V87.2013H69.0272V91.9445H67.8738Z" fill="white"/>
<path d="M163.198 56.9142H121.179C120.746 56.9142 120.394 56.5628 120.394 56.1292V42.7112C120.394 42.2777 120.746 41.9263 121.179 41.9263H163.198C163.632 41.9263 163.983 42.2777 163.983 42.7112V56.1292C163.983 56.5628 163.632 56.9142 163.198 56.9142Z" fill="#D4E8E8"/>
<path d="M125.614 52.4585L126.553 50.1745L124.248 51.1124L123.799 49.4812L126.267 49.1551L124.309 47.6256L125.513 46.4223L127.022 48.4005L127.348 45.9534L128.959 46.3819L128.021 48.6659L130.326 47.728L130.775 49.3598L128.307 49.686L130.265 51.2154L129.061 52.4187L127.552 50.4406L127.226 52.8877L125.614 52.4585ZM135.549 52.4585L136.487 50.1745L134.182 51.1124L133.734 49.4812L136.202 49.1551L134.244 47.6256L135.447 46.4223L136.956 48.4005L137.282 45.9534L138.893 46.3819L137.955 48.6659L140.26 47.728L140.709 49.3598L138.241 49.686L140.199 51.2154L138.996 52.4187L137.487 50.4406L137.16 52.8877L135.549 52.4585ZM145.483 52.4585L146.422 50.1745L144.117 51.1124L143.668 49.4812L146.136 49.1551L144.178 47.6256L145.381 46.4223L146.891 48.4005L147.217 45.9534L148.828 46.3819L147.89 48.6659L150.195 47.728L150.644 49.3598L148.176 49.686L150.133 51.2154L148.93 52.4187L147.421 50.4406L147.095 52.8877L145.483 52.4585ZM155.418 52.4585L156.357 50.1745L154.052 51.1124L153.603 49.4812L156.071 49.1551L154.113 47.6256L155.317 46.4223L156.826 48.4005L157.152 45.9534L158.763 46.3819L157.825 48.6659L160.13 47.728L160.579 49.3598L158.111 49.686L160.069 51.2154L158.865 52.4187L157.356 50.4406L157.03 52.8877L155.418 52.4585Z" fill="white"/>
<path d="M136.791 131.353L153.481 143.199L143.58 152.263L136.791 131.353Z" fill="#F6538A"/>
<path d="M135.802 134.323L138.325 142.354L134.962 142.024L135.802 134.323Z" fill="#D4E8E8"/>
<path d="M149.681 127.544L139.919 129.337L148.012 136.274L149.681 127.544Z" fill="white"/>
<path d="M148.012 136.49C147.961 136.49 147.911 136.473 147.871 136.439L139.777 129.501C139.714 129.447 139.687 129.361 139.709 129.28C139.73 129.2 139.797 129.138 139.879 129.123L149.641 127.331C149.713 127.319 149.784 127.34 149.834 127.392C149.885 127.442 149.906 127.514 149.893 127.584L148.224 136.314C148.209 136.39 148.155 136.453 148.083 136.478C148.061 136.487 148.037 136.49 148.012 136.49ZM140.404 129.468L147.87 135.867L149.409 127.814L140.404 129.468Z" fill="black"/>
<path d="M85.2677 45.9458C85.267 45.9458 85.2658 45.9458 85.2651 45.9458C85.1457 45.9445 85.0503 45.8459 85.0515 45.7265C85.08 43.5132 85.937 41.2923 87.4026 39.634C88.8682 37.975 90.9658 36.8513 93.1588 36.5498C95.0675 36.2875 96.8908 36.6566 98.2919 37.5888C98.6427 37.822 98.9625 38.0919 99.2469 38.3902C101.536 36.3078 104.386 34.8207 107.402 34.152C110.868 33.3848 114.591 33.6894 117.886 35.0109C117.997 35.0551 118.051 35.1815 118.006 35.2921C117.962 35.4034 117.835 35.4577 117.725 35.4122C114.51 34.1229 110.878 33.8253 107.496 34.5748C104.551 35.2277 101.769 36.6806 99.5344 38.7144C100.35 39.7098 100.799 40.9504 100.735 42.1594C100.671 43.3413 99.9117 44.6034 98.7489 44.6679C98.2616 44.6969 97.7901 44.4985 97.4122 44.1161C96.9369 43.6352 96.6696 42.9223 96.7144 42.2549C96.7947 41.0667 97.5847 40.0827 98.2635 39.3584C98.4796 39.1277 98.7021 38.9034 98.9309 38.6847C98.6692 38.4117 98.3747 38.1639 98.0524 37.9491C96.7391 37.075 95.0226 36.7306 93.2176 36.9783C91.1257 37.2659 89.1248 38.3377 87.7268 39.9203C86.3288 41.5022 85.5116 43.6206 85.4844 45.7315C85.4825 45.8503 85.3859 45.9458 85.2677 45.9458ZM99.2165 39.0096C98.9979 39.2187 98.7849 39.4343 98.5782 39.6542C97.9481 40.326 97.2163 41.2317 97.1455 42.2833C97.1088 42.8306 97.3281 43.4159 97.7187 43.8109C97.9235 44.0182 98.2616 44.2577 98.7229 44.2349C99.6431 44.1837 100.247 43.127 100.3 42.1354C100.359 41.0427 99.9535 39.9184 99.2165 39.0096Z" fill="black"/>
</svg>
