<svg xmlns="http://www.w3.org/2000/svg" id="ace" viewBox="0 0 18 18" fill="none">
  <g clip-path="url(#clip0_793_2491)">
    <path d="M15.975 7.56749L9.26552 0.854984C9.19379 0.787098 9.09878 0.749268 9.00002 0.749268C8.90126 0.749268 8.80625 0.787098 8.73452 0.854984L2.02502 7.56749C1.6195 7.97073 1.29801 8.45041 1.07915 8.97875C0.860293 9.5071 0.748423 10.0736 0.750017 10.6455C0.750811 11.7999 1.20964 12.9068 2.02577 13.7232C2.8419 14.5396 3.94864 14.9988 5.10302 15C6.25277 15 7.34702 14.6325 8.25152 13.9537C7.73102 15.48 6.72152 16.5 5.62502 16.5C5.52556 16.5 5.43018 16.5395 5.35985 16.6098C5.28953 16.6801 5.25002 16.7755 5.25002 16.875C5.25002 16.9744 5.28953 17.0698 5.35985 17.1402C5.43018 17.2105 5.52556 17.25 5.62502 17.25H12.375C12.4745 17.25 12.5699 17.2105 12.6402 17.1402C12.7105 17.0698 12.75 16.9744 12.75 16.875C12.75 16.7755 12.7105 16.6801 12.6402 16.6098C12.5699 16.5395 12.4745 16.5 12.375 16.5C11.2785 16.5 10.269 15.48 9.74852 13.953C10.6562 14.6352 11.7616 15.0028 12.897 15C14.0514 14.9988 15.1581 14.5396 15.9743 13.7232C16.7904 12.9068 17.2492 11.7999 17.25 10.6455C17.25 9.48299 16.797 8.38949 15.975 7.56749Z" fill="white"/>
    <path d="M12.897 14.25C12.3048 14.2516 11.7182 14.1358 11.1711 13.9092C10.624 13.6826 10.1272 13.3498 9.7095 12.93L9.36 12.5798C9.28875 12.5078 9.10875 12.45 9.0075 12.4485C8.91375 12.447 8.73525 12.4845 8.63925 12.5805L8.2905 12.93C7.87281 13.3498 7.37604 13.6826 6.82892 13.9092C6.2818 14.1358 5.69518 14.2516 5.103 14.25C4.14792 14.2488 3.23229 13.869 2.55687 13.1937C1.88146 12.5184 1.50139 11.6029 1.5 10.6478C1.5 9.68552 1.875 8.78027 2.55525 8.10002L9 1.65527L15.4447 8.10002C15.7804 8.43381 16.0465 8.83086 16.2276 9.26818C16.4087 9.70551 16.5013 10.1744 16.5 10.6478C16.4986 11.6029 16.1185 12.5184 15.4431 13.1937C14.7677 13.869 13.8521 14.2488 12.897 14.25Z" fill="#299D27"/>
    <path d="M15.975 7.56749L9.26552 0.854984C9.19379 0.787098 9.09878 0.749268 9.00002 0.749268C8.90126 0.749268 8.80625 0.787098 8.73452 0.854984L2.02502 7.56749C1.6195 7.97073 1.29801 8.45041 1.07915 8.97875C0.860293 9.5071 0.748423 10.0736 0.750017 10.6455C0.750811 11.7999 1.20964 12.9068 2.02577 13.7232C2.8419 14.5396 3.94864 14.9988 5.10302 15C6.25277 15 7.34702 14.6325 8.25152 13.9537C7.73102 15.48 6.72152 16.5 5.62502 16.5C5.52556 16.5 5.43018 16.5395 5.35985 16.6098C5.28953 16.6801 5.25002 16.7755 5.25002 16.875C5.25002 16.9744 5.28953 17.0698 5.35985 17.1402C5.43018 17.2105 5.52556 17.25 5.62502 17.25H12.375C12.4745 17.25 12.5699 17.2105 12.6402 17.1402C12.7105 17.0698 12.75 16.9744 12.75 16.875C12.75 16.7755 12.7105 16.6801 12.6402 16.6098C12.5699 16.5395 12.4745 16.5 12.375 16.5C11.2785 16.5 10.269 15.48 9.74852 13.953C10.6562 14.6352 11.7616 15.0028 12.897 15C14.0514 14.9988 15.1581 14.5396 15.9743 13.7232C16.7904 12.9068 17.2492 11.7999 17.25 10.6455C17.25 9.48299 16.797 8.38949 15.975 7.56749Z" fill="#1E8067"/>
  </g>
  <defs>
    <clipPath id="clip0_793_2491">
      <rect width="18" height="18" fill="white"/>
    </clipPath>
  </defs>
</svg>
