<svg width="21" height="21" viewBox="0 0 21 21" fill="none" xmlns="http://www.w3.org/2000/svg">
<circle cx="10.5" cy="10.5" r="10.5" fill="#142326"/>
<path d="M6.58706 4.78836C6.34844 4.78866 6.11533 4.86008 5.9175 4.99351C5.71966 5.12693 5.5661 5.3163 5.47642 5.53743C5.38673 5.75856 5.365 6.0014 5.41401 6.23493C5.46301 6.46847 5.58051 6.68209 5.75152 6.84852L9.10308 10.2001L5.75152 13.5516C5.63635 13.6622 5.5444 13.7947 5.48106 13.9412C5.41772 14.0878 5.38425 14.2455 5.38263 14.4051C5.38101 14.5648 5.41125 14.7232 5.4716 14.871C5.53195 15.0188 5.62118 15.1531 5.73408 15.266C5.84697 15.3789 5.98126 15.4681 6.12907 15.5284C6.27688 15.5888 6.43525 15.619 6.5949 15.6174C6.75455 15.6158 6.91227 15.5823 7.05882 15.519C7.20537 15.4556 7.33782 15.3637 7.44839 15.2485L10.8 11.897L14.1515 15.2485C14.2621 15.3637 14.3945 15.4556 14.5411 15.519C14.6876 15.5823 14.8454 15.6158 15.005 15.6174C15.1647 15.619 15.323 15.5888 15.4708 15.5284C15.6187 15.4681 15.7529 15.3789 15.8658 15.266C15.9787 15.1531 16.068 15.0188 16.1283 14.871C16.1887 14.7232 16.2189 14.5648 16.2173 14.4051C16.2157 14.2455 16.1822 14.0878 16.1189 13.9412C16.0555 13.7947 15.9636 13.6622 15.8484 13.5516L12.4968 10.2001L15.8484 6.84852C16.0218 6.67996 16.1402 6.46296 16.1882 6.22593C16.2361 5.98891 16.2114 5.74293 16.1171 5.52022C16.0229 5.29752 15.8635 5.10849 15.66 4.97789C15.4565 4.8473 15.2182 4.78124 14.9765 4.78836C14.6648 4.79765 14.3689 4.92795 14.1515 5.15164L10.8 8.50321L7.44839 5.15164C7.33642 5.03655 7.2025 4.94509 7.05455 4.88269C6.9066 4.82029 6.74763 4.78822 6.58706 4.78836Z" fill="#FAFBFF"/>
</svg>
