<svg xmlns="http://www.w3.org/2000/svg" id="cricket-ball" viewBox="0 0 16 16" fill="none">
<path d="M13.9776 12.092C15.9096 9.2806 15.6379 5.38096 13.1323 2.87189C10.6266 0.362822 6.73228 0.0907544 3.92473 2.02546L13.9776 12.092ZM13.0719 9.88519C13.1927 9.76427 13.3738 9.76427 13.4945 9.88519L13.7059 10.0968C13.8266 10.2177 13.8266 10.3991 13.7059 10.52C13.5851 10.6409 13.404 10.6409 13.2832 10.52L13.0719 10.3084C12.9511 10.2177 12.9511 10.0061 13.0719 9.88519ZM11.9851 8.79692C12.1059 8.676 12.287 8.676 12.4078 8.79692L12.6191 9.00853C12.7398 9.12945 12.7398 9.31083 12.6191 9.43175C12.4983 9.55267 12.3172 9.55267 12.1964 9.43175L11.9851 9.22014C11.8644 9.12945 11.8644 8.91784 11.9851 8.79692ZM10.8983 7.73888C11.0191 7.61796 11.2002 7.61796 11.321 7.73888L11.5323 7.95049C11.653 8.07141 11.653 8.25279 11.5323 8.37371C11.4115 8.49463 11.2304 8.49463 11.1096 8.37371L10.8983 8.1621C10.7776 8.04118 10.7776 7.82957 10.8983 7.73888ZM9.81153 6.65061C9.93228 6.52969 10.1134 6.52969 10.2342 6.65061L10.4455 6.86222C10.5662 6.98314 10.5662 7.16452 10.4455 7.28544C10.3247 7.40635 10.1436 7.40635 10.0228 7.28544L9.81153 7.07383C9.69077 6.95291 9.69077 6.77153 9.81153 6.65061ZM8.72473 5.56234C8.84549 5.44142 9.02662 5.44142 9.14737 5.56234L9.3587 5.77395C9.47945 5.89487 9.47945 6.07625 9.3587 6.19716C9.23794 6.31808 9.05681 6.31808 8.93605 6.19716L8.72473 5.98556C8.60398 5.86464 8.60398 5.68326 8.72473 5.56234ZM7.63794 4.47407C7.75869 4.35315 7.93983 4.35315 8.06058 4.47407L8.2719 4.68568C8.39266 4.8066 8.39266 4.98797 8.2719 5.10889C8.15115 5.22981 7.97002 5.22981 7.84926 5.10889L7.63794 4.89729C7.51719 4.77637 7.51719 4.59499 7.63794 4.47407ZM6.55115 3.3858C6.6719 3.26488 6.85303 3.26488 6.97379 3.3858L7.18511 3.59741C7.30586 3.71832 7.30586 3.8997 7.18511 4.02062C7.06436 4.14154 6.88322 4.14154 6.76247 4.02062L6.55115 3.80901C6.43039 3.6881 6.43039 3.50672 6.55115 3.3858ZM5.91719 2.29753L6.12851 2.50913C6.24926 2.63005 6.24926 2.81143 6.12851 2.93235C6.00775 3.05327 5.82662 3.05327 5.70586 2.93235L5.46436 2.72074C5.3436 2.59982 5.3436 2.41845 5.46436 2.29753C5.58511 2.17661 5.79643 2.17661 5.91719 2.29753ZM2.02285 3.92993C0.0605819 6.80176 0.422846 10.7014 2.86813 13.15C5.43417 15.7195 9.3587 15.8707 12.0757 14.0267L2.02285 3.92993ZM2.92851 6.1367C2.80775 6.25762 2.62662 6.25762 2.50586 6.1367L2.29454 5.9251C2.17379 5.80418 2.17379 5.6228 2.29454 5.50188C2.4153 5.38096 2.59643 5.38096 2.71719 5.50188L2.92851 5.71349C3.04926 5.80418 3.04926 6.01579 2.92851 6.1367ZM4.0153 7.22498C3.89454 7.34589 3.71341 7.34589 3.59266 7.22498L3.38134 7.01337C3.26058 6.89245 3.26058 6.71107 3.38134 6.59015C3.50209 6.46923 3.68322 6.46923 3.80398 6.59015L4.0153 6.80176C4.13605 6.89245 4.13605 7.10406 4.0153 7.22498ZM5.10209 8.28302C4.98134 8.40394 4.8002 8.40394 4.67945 8.28302L4.46813 8.07141C4.34737 7.95049 4.34737 7.76911 4.46813 7.64819C4.58888 7.52727 4.77002 7.52727 4.89077 7.64819L5.10209 7.8598C5.22285 7.98072 5.22285 8.19233 5.10209 8.28302ZM6.18888 9.37129C6.06813 9.49221 5.887 9.49221 5.76624 9.37129L5.55492 9.15968C5.43417 9.03876 5.43417 8.85738 5.55492 8.73646C5.67568 8.61554 5.85681 8.61554 5.97756 8.73646L6.18888 8.94807C6.30964 9.06899 6.30964 9.25037 6.18888 9.37129ZM7.27568 10.4596C7.15492 10.5805 6.97379 10.5805 6.85303 10.4596L6.64171 10.248C6.52096 10.127 6.52096 9.94565 6.64171 9.82473C6.76247 9.70382 6.9436 9.70382 7.06436 9.82473L7.27568 10.0363C7.39643 10.1573 7.39643 10.3386 7.27568 10.4596ZM8.36247 11.5478C8.24171 11.6687 8.06058 11.6687 7.93983 11.5478L7.72851 11.3362C7.60775 11.2153 7.60775 11.0339 7.72851 10.913C7.84926 10.7921 8.03039 10.7921 8.15115 10.913L8.36247 11.1246C8.48322 11.2455 8.48322 11.4269 8.36247 11.5478ZM9.44926 12.6361C9.32851 12.757 9.14737 12.757 9.02662 12.6361L8.8153 12.4245C8.69454 12.3036 8.69454 12.1222 8.8153 12.0013C8.93605 11.8804 9.11719 11.8804 9.23794 12.0013L9.44926 12.2129C9.57002 12.3338 9.57002 12.5152 9.44926 12.6361ZM10.0832 13.7244L9.8719 13.5128C9.75115 13.3918 9.75115 13.2105 9.8719 13.0895C9.99266 12.9686 10.1738 12.9686 10.2945 13.0895L10.5059 13.3012C10.6266 13.4221 10.6266 13.6035 10.5059 13.7244C10.4153 13.8453 10.204 13.8453 10.0832 13.7244ZM13.6153 12.6059L3.41153 2.38822C3.23039 2.53936 3.04926 2.72074 2.86813 2.87189C2.687 3.05327 2.53605 3.23465 2.38511 3.41603L12.5889 13.6337C12.9511 13.3314 13.3134 12.9989 13.6153 12.6059Z" fill="#257B23"/>
</svg>
