<svg width="15" height="15" viewBox="0 0 15 15" fill="none" xmlns="http://www.w3.org/2000/svg">
<path d="M14.3538 1.12947e-06H0.646062C0.404295 -0.000445031 0.18265 0.13132 0.0721317 0.341164C-0.0399105 0.553833 -0.020246 0.809928 0.122894 1.00416L5.14483 7.90593C5.1465 7.90831 5.14833 7.91054 5.15001 7.91292C5.33248 8.15325 5.43111 8.44429 5.43172 8.74352V14.3705C5.43065 14.5372 5.49772 14.6972 5.61815 14.8154C5.73857 14.9337 5.90229 15 6.07302 15C6.15991 15 6.24574 14.983 6.32592 14.9506L9.14786 13.9008C9.40075 13.8256 9.56859 13.5928 9.56859 13.3125V8.74352C9.56905 8.44444 9.66783 8.15325 9.85014 7.91292C9.85182 7.91054 9.85365 7.90831 9.85533 7.90593L14.8771 1.00386C15.0202 0.809779 15.0399 0.553833 14.9279 0.341164C14.8174 0.13132 14.5957 -0.000445031 14.3538 1.12947e-06ZM9.22088 7.46185C8.94039 7.83321 8.78871 8.28219 8.7878 8.74352V13.22L6.2122 14.178V8.74352C6.21129 8.28219 6.05961 7.83321 5.77897 7.46185L0.903531 0.761445H14.0965L9.22088 7.46185Z" fill="#102327"/>
</svg>
