<svg xmlns="http://www.w3.org/2000/svg" id="football" viewBox="0 0 16 16" fill="none">
  <g clip-path="url(#clip0_793_2477)">
    <path d="M11.3921 9.12474L8.30152 10.4277L6.09089 7.92936L7.81528 5.08232L11.0916 5.82113L11.3921 9.12474ZM5.17455 14.3971L4.76727 13.2917L7.56727 13.0907L9.47439 14.2966L8.48364 15M1.35637 10.1765L2.68 11.0809L3.24 8.41791L2.12 5.90564L1 7.06127M3.95271 2.28802L3.74909 3.39341L6.44727 2.79047L8.33089 1.48408L8.14098 1M12.2 2.23778L11.2836 2.18751L12.6073 4.24756L14.5418 5.70467V4.75001M15 9.82478L14.8472 8.76963L13.32 10.478L12.4545 12.9399H13.32" fill="#cc5f37"/>
    <path d="M7.53156 13.1994L7.50281 13.3051L7.29188 13.2472L7.32063 13.1419L8.155 10.0929L8.18375 9.98725L8.39469 10.0451L8.36594 10.1507L7.53156 13.1994ZM5.10844 13.7407L5.18219 13.8216L5.02031 13.9688L4.94656 13.8879L1.99281 10.6416L1.91906 10.5607L2.08094 10.4135L2.15469 10.4944L5.10844 13.7407ZM5.9275 7.82068L6.03531 7.80193L6.07281 8.01725L5.965 8.036L3.10688 8.53225L2.99938 8.551L2.96188 8.33537L3.06969 8.31662L5.9275 7.82068ZM13.2581 10.4801L13.3459 10.5447L13.2163 10.721L13.1281 10.656L11.1956 9.23037L11.1075 9.16568L11.2375 8.98943L11.3253 9.05443L13.2581 10.4801ZM12.7197 12.7422L12.82 12.6988L12.9066 12.8997L12.8063 12.9429L9.21094 14.496L9.11031 14.5394L9.02375 14.3385L9.12406 14.2951L12.7197 12.7422ZM11.6884 2.17693L11.7944 2.2035L11.7409 2.41568L11.635 2.38912L7.64813 1.38475L7.54219 1.35818L7.59563 1.146L7.70156 1.17287L11.6884 2.17693ZM7.76906 4.981L7.82469 5.07537L7.63625 5.18631L7.58063 5.09193L6.20938 2.76412L6.15375 2.67006L6.34219 2.55881L6.39781 2.65318L7.76906 4.981ZM12.3994 4.11318L12.4747 4.03412L12.6331 4.18475L12.5578 4.26412L11.0384 5.86225L10.9631 5.94162L10.8047 5.791L10.88 5.71162L12.3994 4.11318ZM1.90781 6.29193L1.85031 6.38506L1.66406 6.27068L1.72156 6.17725L3.79438 2.80881L3.85188 2.71537L4.03813 2.83006L3.98063 2.92318L1.90781 6.29193Z" fill="#cc5f37"/>
    <path fill-rule="evenodd" clip-rule="evenodd" d="M0 8C0 7.45897 0.0544748 6.9193 0.162747 6.3891C0.268313 5.87413 0.424632 5.371 0.629335 4.88716C1.03197 3.93707 1.61428 3.07359 2.3441 2.3441C3.07359 1.61428 3.93707 1.03197 4.88716 0.629335C5.371 0.424632 5.87413 0.268313 6.38877 0.162747C6.91896 0.0544748 7.45897 0 8 0C8.54103 0 9.08103 0.0544748 9.61123 0.162747C10.1259 0.268313 10.629 0.424632 11.1128 0.629335C12.0629 1.03197 12.9264 1.61428 13.6559 2.3441C14.3857 3.07359 14.968 3.93707 15.3707 4.88716C15.5754 5.371 15.7317 5.87413 15.8373 6.38877C15.9455 6.91896 16 7.45897 16 8C16 8.54103 15.9455 9.08103 15.8373 9.61123C15.7317 10.1259 15.5754 10.629 15.3707 11.1128C14.968 12.0629 14.3857 12.9264 13.6559 13.6559C12.9264 14.3857 12.0629 14.968 11.1128 15.3707C10.629 15.5754 10.1259 15.7317 9.61123 15.8373C9.08103 15.9455 8.54103 16 8 16C7.45897 16 6.91896 15.9455 6.38877 15.8373C5.87413 15.7317 5.371 15.5754 4.88716 15.3707C3.93707 14.968 3.07359 14.3857 2.3441 13.6559C1.61428 12.9264 1.03197 12.0629 0.629335 11.1128C0.424632 10.629 0.268313 10.1259 0.162747 9.61123C0.0544748 9.08103 0 8.54103 0 8ZM0.676704 8C0.676704 7.50431 0.726442 7.00998 0.825579 6.52445C0.92201 6.0538 1.06513 5.59364 1.25258 5.15107C1.62105 4.28117 2.15429 3.49044 2.82287 2.82287C3.49044 2.15429 4.28117 1.62105 5.15107 1.25258C5.59364 1.06513 6.0538 0.92201 6.52445 0.825579C7.00998 0.726442 7.50431 0.676704 8 0.676704C8.49569 0.676704 8.99002 0.726442 9.47555 0.825579C9.9462 0.92201 10.4064 1.06513 10.8489 1.25258C11.7188 1.62105 12.5096 2.15429 13.1771 2.82287C13.8457 3.49044 14.379 4.28117 14.7474 5.15107C14.9349 5.59364 15.078 6.0538 15.1744 6.52445C15.2736 7.00998 15.3233 7.50431 15.3233 8C15.3233 8.49569 15.2736 8.99002 15.1744 9.47555C15.078 9.9462 14.9349 10.4064 14.7474 10.8489C14.379 11.7188 13.8457 12.5096 13.1771 13.1771C12.5096 13.8457 11.7188 14.379 10.8489 14.7474C10.4064 14.9349 9.9462 15.078 9.47555 15.1744C8.99002 15.2736 8.49569 15.3233 8 15.3233C7.50431 15.3233 7.00998 15.2736 6.52445 15.1744C6.0538 15.078 5.59364 14.9349 5.15107 14.7474C4.28117 14.379 3.49044 13.8457 2.82287 13.1771C2.15429 12.5096 1.62105 11.7188 1.25258 10.8489C1.06513 10.4064 0.92201 9.9462 0.825579 9.47555C0.726442 8.99002 0.676704 8.49569 0.676704 8Z" fill="#cc5f37"/>
  </g>
  <defs>
    <clipPath id="clip0_793_2477">
      <rect width="16" height="16" fill="white"/>
    </clipPath>
  </defs>
</svg>
