<svg width="12" height="10" viewBox="0 0 12 10" fill="none" xmlns="http://www.w3.org/2000/svg"><path d="M4.89798 9.06113C4.88265 9.02033 4.87737 8.98564 4.88257 8.95758C4.88774 8.9297 4.86992 8.9066 4.82904 8.8888C4.78816 8.871 4.76776 8.85687 4.76776 8.84679C4.76776 8.83661 4.73847 8.82891 4.67974 8.82387C4.62103 8.81876 4.59173 8.81615 4.59173 8.81615H4.49229H4.40812H2.20403C1.86731 8.81615 1.57902 8.69636 1.33919 8.4564C1.09942 8.2166 0.979543 7.92839 0.979543 7.59172V2.20392C0.979543 1.8672 1.09939 1.57901 1.33919 1.33922C1.57902 1.09939 1.86731 0.979436 2.20403 0.979436H4.65298C4.71933 0.979436 4.77149 0.962977 4.80985 0.929739C4.84805 0.896581 4.87351 0.846804 4.88632 0.780487C4.89908 0.714171 4.90678 0.654288 4.90935 0.600705C4.91187 0.547175 4.91064 0.479518 4.90549 0.397897C4.90042 0.316301 4.89788 0.265291 4.89788 0.244785C4.89788 0.178469 4.87362 0.121186 4.82518 0.0726153C4.77669 0.0242587 4.71933 0 4.65301 0H2.20403C1.59695 0 1.07778 0.215567 0.646622 0.646676C0.215568 1.07778 0 1.59687 0 2.20401V7.59169C0 8.19878 0.215568 8.71799 0.646622 9.14894C1.07778 9.58026 1.59695 9.79583 2.20403 9.79583H4.65309C4.71943 9.79583 4.77162 9.77916 4.80996 9.74613C4.84815 9.71292 4.87362 9.6632 4.88643 9.5968C4.89919 9.53057 4.90688 9.47039 4.90946 9.41702C4.91198 9.36344 4.91074 9.29591 4.9056 9.21429C4.90048 9.13259 4.89798 9.08161 4.89798 9.06113Z" fill="#FCEDCA"></path><path d="M11.8546 4.5535L7.69134 0.390142C7.59447 0.293322 7.47963 0.244751 7.34697 0.244751C7.21432 0.244751 7.09948 0.293322 7.0025 0.390142C6.90555 0.487097 6.85711 0.602011 6.85711 0.734589V2.93867H3.42856C3.29582 2.93867 3.18107 2.98725 3.08411 3.08407C2.98716 3.18102 2.93872 3.29585 2.93872 3.42851V6.36733C2.93872 6.49996 2.98716 6.6148 3.08411 6.7117C3.18117 6.80846 3.2959 6.85717 3.42856 6.85717H6.85714V9.06123C6.85714 9.19378 6.90557 9.30872 7.00253 9.40559C7.09948 9.50255 7.21431 9.55109 7.347 9.55109C7.47963 9.55109 7.59447 9.50255 7.69137 9.40559L11.8546 5.24242C11.9515 5.14539 12 5.03071 12 4.89803C12 4.7654 11.9515 4.65046 11.8546 4.5535Z" fill="#FCEDCA"></path></svg>