<svg xmlns="http://www.w3.org/2000/svg" id="play" viewBox="0 0 20 20" fill="none">
  <path d="M17.7305 6.83398C17.3105 5.79687 16.6914 4.86523 15.8926 4.06641C15.0938 3.26758 14.1641 2.65039 13.125 2.22852C12.125 1.82422 11.0664 1.61719 9.98047 1.61719C8.89453 1.61719 7.83594 1.82422 6.83398 2.23047C5.79687 2.65039 4.86523 3.26953 4.06641 4.06836C3.26758 4.86719 2.65039 5.79688 2.22852 6.83594C1.82422 7.83594 1.61719 8.89453 1.61719 9.98047C1.61719 11.0664 1.82227 12.125 2.22852 13.127C2.64844 14.1641 3.26758 15.0957 4.06641 15.8945C4.86523 16.6934 5.79492 17.3105 6.83398 17.7324C7.83594 18.1387 8.89453 18.3438 9.98047 18.3438C11.0664 18.3438 12.125 18.1367 13.127 17.7324C14.1641 17.3125 15.0957 16.6934 15.8945 15.8945C16.6934 15.0957 17.3105 14.166 17.7324 13.127C18.1387 12.125 18.3438 11.0664 18.3438 9.98047C18.3438 8.89453 18.1367 7.83594 17.7305 6.83398ZM13.8047 10.5078L13.7891 10.5176C13.7617 10.5352 13.7422 10.5469 13.7285 10.5547L8.68359 13.6582L8.60938 13.7031L8.5957 13.7168L8.55078 13.7363C8.44141 13.7852 8.30664 13.8027 8.2168 13.8027C7.82031 13.8027 7.47461 13.498 7.44141 13.125V6.91211C7.44141 6.8457 7.46289 6.79297 7.48242 6.75586C7.55664 6.41602 7.87109 6.1582 8.23242 6.1582C8.33594 6.1582 8.44336 6.17969 8.5332 6.21875L8.55078 6.22656L8.56641 6.23633L13.6738 9.21484C13.8203 9.30078 13.8203 9.30078 13.8379 9.31445L13.8398 9.31641C13.9805 9.43164 14.0742 9.5918 14.1055 9.76953C14.1133 9.81445 14.1172 9.85742 14.1172 9.89844C14.1172 10.1387 14 10.3672 13.8047 10.5078Z" fill="white"/>
</svg>
