<svg xmlns="http://www.w3.org/2000/svg" id="search" viewBox="0 0 19 19">
  <g clip-path="url(#clip0_758_1450)">
    <path d="M18.7111 17.3059L14.0273 12.6028C15.2316 11.2207 15.8915 9.48166 15.8915 7.67124C15.8915 3.44138 12.3269 0 7.94571 0C3.56452 0 0 3.44138 0 7.67124C0 11.9011 3.56452 15.3425 7.94571 15.3425C9.59047 15.3425 11.1579 14.8636 12.4979 13.9543L17.2174 18.6932C17.4145 18.891 17.6799 19 17.9642 19C18.2333 19 18.4886 18.9009 18.6824 18.7208C19.0943 18.3382 19.1074 17.7039 18.7111 17.3059ZM7.94571 2.0012C11.1841 2.0012 13.8186 4.54471 13.8186 7.67124C13.8186 10.7978 11.1841 13.3413 7.94571 13.3413C4.70732 13.3413 2.0728 10.7978 2.0728 7.67124C2.0728 4.54471 4.70732 2.0012 7.94571 2.0012Z"/>
  </g>
  <defs>
    <clipPath id="clip0_758_1450">
      <rect width="19" height="19"/>
    </clipPath>
  </defs>
</svg>
