<svg xmlns="http://www.w3.org/2000/svg" id="star" viewBox="0 0 20 20" fill="none">
  <path d="M5.01057 18.46C4.89188 18.46 4.77474 18.433 4.66805 18.381C4.56136 18.3289 4.46793 18.2533 4.39485 18.1597C4.32177 18.0662 4.27097 17.9573 4.24629 17.8412C4.22162 17.7251 4.22372 17.6049 4.25245 17.4897L5.5537 12.255L1.42432 8.78468C1.30487 8.68469 1.21804 8.55128 1.17497 8.40157C1.13191 8.25186 1.13459 8.0927 1.18266 7.94453C1.23073 7.79635 1.322 7.66593 1.44474 7.57001C1.56749 7.4741 1.71611 7.41707 1.87151 7.40625L7.25245 7.02593L9.27651 2.02593C9.33492 1.88178 9.43504 1.75834 9.56403 1.67143C9.69303 1.58451 9.84503 1.53809 10.0006 1.53809C10.1561 1.53809 10.3081 1.58451 10.4371 1.67143C10.5661 1.75834 10.6662 1.88178 10.7246 2.02593L12.7487 7.02593L18.1293 7.40625C18.2845 7.41727 18.4328 7.47434 18.5553 7.57016C18.6778 7.66598 18.7689 7.79618 18.817 7.9441C18.865 8.09202 18.8679 8.25091 18.8251 8.40044C18.7823 8.54997 18.6959 8.68333 18.5768 8.78343L14.4474 12.255L15.7487 17.4897C15.7862 17.6406 15.7778 17.7994 15.7245 17.9455C15.6712 18.0917 15.5756 18.2186 15.4497 18.31C15.3239 18.4015 15.1736 18.4532 15.0181 18.4587C14.8627 18.4643 14.7091 18.4232 14.5771 18.3409L10.0006 15.4859L5.42401 18.3409C5.30012 18.4187 5.15683 18.4599 5.01057 18.46ZM2.32307 8.31531L6.38089 11.7253C6.44805 11.7818 6.49801 11.856 6.52508 11.9395C6.55215 12.0229 6.55525 12.1123 6.53401 12.1975L5.25526 17.3412L9.75245 14.5359C9.82688 14.4895 9.91284 14.4649 10.0006 14.4649C10.0883 14.4649 10.1743 14.4895 10.2487 14.5359L14.7459 17.3412L13.4671 12.1975C13.4459 12.1123 13.449 12.0229 13.4761 11.9395C13.5031 11.856 13.5531 11.7818 13.6203 11.7253L17.6781 8.31531L12.3912 7.94031C12.3037 7.93413 12.2196 7.90349 12.1486 7.85189C12.0776 7.80029 12.0225 7.7298 11.9896 7.64843L10.0006 2.7375L8.01151 7.65C7.97861 7.73136 7.92353 7.80186 7.85254 7.85346C7.78155 7.90506 7.69749 7.93569 7.60995 7.94187L2.32307 8.31531Z" fill="#DFC548"/>
</svg>
