<svg xmlns="http://www.w3.org/2000/svg" xmlns:xlink="http://www.w3.org/1999/xlink" width="30" height="30" viewBox="86 512 20 22" fill="none">
    <path fill-rule="evenodd" clip-rule="evenodd" d="M90.4371 528.976C90.0997 528.464 89.6898 527.417 88.9603 526.146C88.5468 525.428 87.5215 524.074 87.2161 523.387C86.9512 522.779 86.9797 522.507 87.0426 522.003C87.1543 521.107 87.9195 520.41 88.7357 520.504C89.3524 520.574 89.8751 521.063 90.3456 521.525C90.6296 521.803 90.9789 522.344 91.1892 522.649C91.3829 522.929 91.4304 523.044 91.6371 523.375C91.9104 523.813 91.9959 524.03 91.8914 523.548C91.807 522.84 91.6692 521.632 91.4696 520.564C91.3175 519.754 91.2807 519.627 91.1357 519.005C90.9825 518.343 90.904 517.88 90.7603 517.178C90.6605 516.682 90.4811 515.668 90.4324 515.097C90.3646 514.317 90.329 513.045 90.746 512.46C91.0728 512.002 91.8225 511.864 92.287 512.146C92.8953 512.516 93.2411 513.577 93.3991 514C93.6831 514.762 93.8589 515.642 94.0122 516.797C94.207 518.268 94.5658 520.309 94.5777 520.738C94.6062 520.212 94.4969 519.104 94.573 518.599C94.6419 518.141 94.9627 517.609 95.3643 517.465C95.7041 517.344 96.1021 517.299 96.4526 517.386C96.8245 517.478 97.2165 517.797 97.3627 518.098C97.7928 518.988 97.8011 520.806 97.8189 520.709C97.9211 520.173 97.9033 518.957 98.1563 518.45C98.3227 518.117 98.7468 517.816 98.9726 517.767C99.3219 517.693 99.7508 517.67 100.118 517.756C100.414 517.826 100.814 518.248 100.922 518.45C101.181 518.941 101.329 520.329 101.373 520.815C101.39 521.016 101.461 520.256 101.721 519.765C102.203 518.854 103.91 518.677 103.976 520.677C104.005 521.609 104 521.567 104 522.194C104 522.932 103.985 523.375 103.952 523.909C103.915 524.479 103.813 525.768 103.664 526.393C103.562 526.822 103.224 527.788 102.89 528.367C102.89 528.367 101.614 530.15 101.475 530.953C101.335 531.754 101.381 531.76 101.354 532.329C101.326 532.897 101.497 533.644 101.497 533.644C101.497 533.644 100.544 533.793 100.031 533.694C99.5666 533.604 98.9916 532.495 98.8431 532.155C98.6387 531.687 98.2027 531.777 98.0328 532.122C97.7654 532.669 97.1904 533.649 96.7841 533.71C95.9904 533.83 94.3437 533.754 93.0545 533.738C93.0545 533.738 93.2743 532.296 92.7848 531.801C92.4225 531.432 91.7987 530.683 91.4256 530.29L90.4371 528.976Z" fill="white"/>
    <path fill-rule="evenodd" clip-rule="evenodd" d="M90.4371 528.976C90.0997 528.464 89.6898 527.417 88.9603 526.146C88.5468 525.428 87.5215 524.074 87.2161 523.387C86.9512 522.779 86.9797 522.507 87.0426 522.003C87.1543 521.107 87.9195 520.41 88.7357 520.504C89.3524 520.574 89.8751 521.063 90.3456 521.525C90.6296 521.803 90.9789 522.344 91.1892 522.649C91.3829 522.929 91.4304 523.044 91.6371 523.375C91.9104 523.813 91.9959 524.03 91.8914 523.548C91.807 522.84 91.6692 521.632 91.4696 520.564C91.3175 519.754 91.2807 519.627 91.1357 519.005C90.9825 518.343 90.904 517.88 90.7603 517.178C90.6605 516.682 90.4811 515.668 90.4324 515.097C90.3646 514.317 90.329 513.045 90.746 512.46C91.0728 512.002 91.8225 511.864 92.287 512.146C92.8953 512.516 93.2411 513.577 93.3991 514C93.6831 514.762 93.8589 515.642 94.0122 516.797C94.207 518.268 94.5658 520.309 94.5777 520.738C94.6062 520.212 94.4969 519.104 94.573 518.599C94.6419 518.141 94.9627 517.609 95.3643 517.465C95.7041 517.344 96.1021 517.299 96.4526 517.386C96.8245 517.478 97.2165 517.797 97.3627 518.098C97.7928 518.988 97.8011 520.806 97.8189 520.709C97.9211 520.173 97.9033 518.957 98.1563 518.45C98.3227 518.117 98.7468 517.816 98.9726 517.767C99.3219 517.693 99.7508 517.67 100.118 517.756C100.414 517.826 100.814 518.248 100.922 518.45C101.181 518.941 101.329 520.329 101.373 520.815C101.39 521.016 101.461 520.256 101.721 519.765C102.203 518.854 103.91 518.677 103.976 520.677C104.005 521.609 104 521.567 104 522.194C104 522.932 103.985 523.375 103.952 523.909C103.915 524.479 103.813 525.768 103.664 526.393C103.562 526.822 103.224 527.788 102.89 528.367C102.89 528.367 101.614 530.15 101.475 530.953C101.335 531.754 101.381 531.76 101.354 532.329C101.326 532.897 101.497 533.644 101.497 533.644C101.497 533.644 100.544 533.793 100.031 533.694C99.5666 533.604 98.9916 532.495 98.8431 532.155C98.6387 531.687 98.2027 531.777 98.0328 532.122C97.7654 532.669 97.1904 533.649 96.7841 533.71C95.9904 533.83 94.3437 533.754 93.0545 533.738C93.0545 533.738 93.2743 532.296 92.7848 531.801C92.4225 531.432 91.7987 530.683 91.4256 530.29L90.4371 528.976Z" stroke="black" stroke-linecap="round" stroke-linejoin="round"/>
</svg>
