<svg width="304" height="291" viewBox="0 0 304 291" fill="none" xmlns="http://www.w3.org/2000/svg">
<path d="M118.839 148.975H114.915V160H112.494V148.975H108.57V146.986H118.839V148.975ZM122.256 151.756C122.616 151.42 123.012 151.147 123.444 150.937C123.876 150.727 124.383 150.622 124.965 150.622C125.469 150.622 125.916 150.709 126.306 150.883C126.696 151.051 127.02 151.291 127.278 151.603C127.542 151.909 127.74 152.278 127.872 152.71C128.01 153.136 128.079 153.607 128.079 154.123V160H125.856V154.123C125.856 153.559 125.727 153.124 125.469 152.818C125.211 152.506 124.818 152.35 124.29 152.35C123.906 152.35 123.546 152.437 123.21 152.611C122.874 152.785 122.556 153.022 122.256 153.322V160H120.033V146.626H122.256V151.756ZM135.071 156.058C134.429 156.088 133.889 156.145 133.451 156.229C133.013 156.307 132.662 156.409 132.398 156.535C132.134 156.661 131.945 156.808 131.831 156.976C131.717 157.144 131.66 157.327 131.66 157.525C131.66 157.915 131.774 158.194 132.002 158.362C132.236 158.53 132.539 158.614 132.911 158.614C133.367 158.614 133.76 158.533 134.09 158.371C134.426 158.203 134.753 157.951 135.071 157.615V156.058ZM129.977 152.053C131.039 151.081 132.317 150.595 133.811 150.595C134.351 150.595 134.834 150.685 135.26 150.865C135.686 151.039 136.046 151.285 136.34 151.603C136.634 151.915 136.856 152.29 137.006 152.728C137.162 153.166 137.24 153.646 137.24 154.168V160H136.232C136.022 160 135.86 159.97 135.746 159.91C135.632 159.844 135.542 159.715 135.476 159.523L135.278 158.857C135.044 159.067 134.816 159.253 134.594 159.415C134.372 159.571 134.141 159.703 133.901 159.811C133.661 159.919 133.403 160 133.127 160.054C132.857 160.114 132.557 160.144 132.227 160.144C131.837 160.144 131.477 160.093 131.147 159.991C130.817 159.883 130.532 159.724 130.292 159.514C130.052 159.304 129.866 159.043 129.734 158.731C129.602 158.419 129.536 158.056 129.536 157.642C129.536 157.408 129.575 157.177 129.653 156.949C129.731 156.715 129.857 156.493 130.031 156.283C130.211 156.073 130.442 155.875 130.724 155.689C131.006 155.503 131.351 155.341 131.759 155.203C132.173 155.065 132.653 154.954 133.199 154.87C133.745 154.78 134.369 154.726 135.071 154.708V154.168C135.071 153.55 134.939 153.094 134.675 152.8C134.411 152.5 134.03 152.35 133.532 152.35C133.172 152.35 132.872 152.392 132.632 152.476C132.398 152.56 132.191 152.656 132.011 152.764C131.831 152.866 131.666 152.959 131.516 153.043C131.372 153.127 131.21 153.169 131.03 153.169C130.874 153.169 130.742 153.13 130.634 153.052C130.526 152.968 130.439 152.872 130.373 152.764L129.977 152.053ZM141.412 151.9C141.598 151.714 141.793 151.543 141.997 151.387C142.207 151.225 142.426 151.09 142.654 150.982C142.888 150.868 143.137 150.781 143.401 150.721C143.665 150.655 143.953 150.622 144.265 150.622C144.769 150.622 145.216 150.709 145.606 150.883C145.996 151.051 146.32 151.291 146.578 151.603C146.842 151.909 147.04 152.278 147.172 152.71C147.31 153.136 147.379 153.607 147.379 154.123V160H145.156V154.123C145.156 153.559 145.027 153.124 144.769 152.818C144.511 152.506 144.118 152.35 143.59 152.35C143.206 152.35 142.846 152.437 142.51 152.611C142.174 152.785 141.856 153.022 141.556 153.322V160H139.333V150.766H140.692C140.98 150.766 141.169 150.901 141.259 151.171L141.412 151.9ZM151.717 146.626V154.285H152.131C152.281 154.285 152.398 154.267 152.482 154.231C152.572 154.189 152.662 154.108 152.752 153.988L155.047 151.153C155.143 151.027 155.248 150.931 155.362 150.865C155.482 150.799 155.635 150.766 155.821 150.766H157.855L154.984 154.195C154.78 154.465 154.558 154.672 154.318 154.816C154.444 154.906 154.555 155.011 154.651 155.131C154.753 155.251 154.849 155.38 154.939 155.518L158.017 160H156.01C155.836 160 155.686 159.973 155.56 159.919C155.434 159.859 155.329 159.754 155.245 159.604L152.887 156.103C152.803 155.965 152.716 155.875 152.626 155.833C152.536 155.791 152.401 155.77 152.221 155.77H151.717V160H149.494V146.626H151.717ZM171.417 150.766L166.386 162.538C166.32 162.694 166.233 162.811 166.125 162.889C166.023 162.973 165.864 163.015 165.648 163.015H163.992L165.72 159.307L161.985 150.766H163.938C164.112 150.766 164.247 150.808 164.343 150.892C164.445 150.976 164.52 151.072 164.568 151.18L166.53 155.968C166.596 156.13 166.65 156.292 166.692 156.454C166.74 156.616 166.785 156.781 166.827 156.949C166.881 156.781 166.935 156.616 166.989 156.454C167.043 156.286 167.103 156.121 167.169 155.959L169.023 151.18C169.071 151.06 169.149 150.961 169.257 150.883C169.371 150.805 169.497 150.766 169.635 150.766H171.417ZM176.326 150.622C177.01 150.622 177.631 150.733 178.189 150.955C178.753 151.177 179.233 151.492 179.629 151.9C180.031 152.308 180.34 152.806 180.556 153.394C180.772 153.982 180.88 154.639 180.88 155.365C180.88 156.097 180.772 156.757 180.556 157.345C180.34 157.933 180.031 158.434 179.629 158.848C179.233 159.262 178.753 159.58 178.189 159.802C177.631 160.024 177.01 160.135 176.326 160.135C175.636 160.135 175.009 160.024 174.445 159.802C173.881 159.58 173.398 159.262 172.996 158.848C172.6 158.434 172.291 157.933 172.069 157.345C171.853 156.757 171.745 156.097 171.745 155.365C171.745 154.639 171.853 153.982 172.069 153.394C172.291 152.806 172.6 152.308 172.996 151.9C173.398 151.492 173.881 151.177 174.445 150.955C175.009 150.733 175.636 150.622 176.326 150.622ZM176.326 158.425C177.094 158.425 177.661 158.167 178.027 157.651C178.399 157.135 178.585 156.379 178.585 155.383C178.585 154.387 178.399 153.628 178.027 153.106C177.661 152.584 177.094 152.323 176.326 152.323C175.546 152.323 174.967 152.587 174.589 153.115C174.217 153.637 174.031 154.393 174.031 155.383C174.031 156.373 174.217 157.129 174.589 157.651C174.967 158.167 175.546 158.425 176.326 158.425ZM190.532 150.766V160H189.173C188.879 160 188.693 159.865 188.615 159.595L188.462 158.857C188.084 159.241 187.667 159.553 187.211 159.793C186.755 160.027 186.218 160.144 185.6 160.144C185.096 160.144 184.649 160.06 184.259 159.892C183.875 159.718 183.551 159.475 183.287 159.163C183.023 158.851 182.822 158.482 182.684 158.056C182.552 157.624 182.486 157.15 182.486 156.634V150.766H184.709V156.634C184.709 157.198 184.838 157.636 185.096 157.948C185.36 158.254 185.753 158.407 186.275 158.407C186.659 158.407 187.019 158.323 187.355 158.155C187.691 157.981 188.009 157.744 188.309 157.444V150.766H190.532ZM195.22 146.986V152.134C195.22 152.68 195.193 153.217 195.139 153.745C195.085 154.267 195.016 154.822 194.932 155.41H193.42C193.336 154.822 193.267 154.267 193.213 153.745C193.159 153.217 193.132 152.68 193.132 152.134V146.986H195.22ZM192.781 158.776C192.781 158.59 192.814 158.413 192.88 158.245C192.952 158.077 193.048 157.933 193.168 157.813C193.294 157.693 193.441 157.597 193.609 157.525C193.777 157.453 193.957 157.417 194.149 157.417C194.335 157.417 194.512 157.453 194.68 157.525C194.848 157.597 194.992 157.693 195.112 157.813C195.238 157.933 195.337 158.077 195.409 158.245C195.481 158.413 195.517 158.59 195.517 158.776C195.517 158.968 195.481 159.148 195.409 159.316C195.337 159.478 195.238 159.619 195.112 159.739C194.992 159.859 194.848 159.952 194.68 160.018C194.512 160.09 194.335 160.126 194.149 160.126C193.957 160.126 193.777 160.09 193.609 160.018C193.441 159.952 193.294 159.859 193.168 159.739C193.048 159.619 192.952 159.478 192.88 159.316C192.814 159.148 192.781 158.968 192.781 158.776Z" fill="#40424F"/>
<path d="M13.1691 190.365H13.6801C13.8574 190.365 13.9998 190.344 14.1071 190.302C14.2144 190.255 14.3124 190.178 14.4011 190.071L17.7401 186.291C17.8334 186.17 17.9314 186.086 18.0341 186.039C18.1368 185.992 18.2628 185.969 18.4121 185.969H19.5601L15.7381 190.288C15.6448 190.4 15.5538 190.493 15.4651 190.568C15.3811 190.638 15.2901 190.696 15.1921 190.743C15.3181 190.785 15.4324 190.848 15.5351 190.932C15.6378 191.011 15.7381 191.116 15.8361 191.247L19.8261 196H18.6501C18.5614 196 18.4844 195.995 18.4191 195.986C18.3584 195.972 18.3048 195.953 18.2581 195.93C18.2114 195.902 18.1694 195.872 18.1321 195.839C18.0994 195.802 18.0668 195.76 18.0341 195.713L14.5761 191.73C14.4828 191.613 14.3824 191.532 14.2751 191.485C14.1678 191.434 14.0044 191.408 13.7851 191.408H13.1691V196H11.8181V185.969H13.1691V190.365ZM22.1096 188.909V196H20.8636V188.909H22.1096ZM22.3756 186.683C22.3756 186.804 22.35 186.919 22.2986 187.026C22.252 187.129 22.1866 187.222 22.1026 187.306C22.0233 187.385 21.9276 187.448 21.8156 187.495C21.7083 187.542 21.594 187.565 21.4726 187.565C21.3513 187.565 21.237 187.542 21.1296 187.495C21.027 187.448 20.936 187.385 20.8566 187.306C20.7773 187.222 20.7143 187.129 20.6676 187.026C20.621 186.919 20.5976 186.804 20.5976 186.683C20.5976 186.562 20.621 186.447 20.6676 186.34C20.7143 186.228 20.7773 186.132 20.8566 186.053C20.936 185.969 21.027 185.904 21.1296 185.857C21.237 185.81 21.3513 185.787 21.4726 185.787C21.594 185.787 21.7083 185.81 21.8156 185.857C21.9276 185.904 22.0233 185.969 22.1026 186.053C22.1866 186.132 22.252 186.228 22.2986 186.34C22.35 186.447 22.3756 186.562 22.3756 186.683ZM25.3329 189.938C25.4869 189.765 25.6503 189.609 25.8229 189.469C25.9956 189.329 26.1776 189.21 26.3689 189.112C26.5649 189.009 26.7703 188.932 26.9849 188.881C27.2043 188.825 27.4399 188.797 27.6919 188.797C28.0793 188.797 28.4199 188.862 28.7139 188.993C29.0126 189.119 29.2599 189.301 29.4559 189.539C29.6566 189.772 29.8083 190.055 29.9109 190.386C30.0136 190.717 30.0649 191.084 30.0649 191.485V196H28.8119V191.485C28.8119 190.948 28.6883 190.533 28.4409 190.239C28.1983 189.94 27.8273 189.791 27.3279 189.791C26.9593 189.791 26.6139 189.88 26.2919 190.057C25.9746 190.234 25.6806 190.475 25.4099 190.778V196H24.1569V188.909H24.9059C25.0833 188.909 25.1929 188.995 25.2349 189.168L25.3329 189.938ZM36.5836 190.596C36.3502 190.283 36.0982 190.066 35.8276 189.945C35.5569 189.819 35.2536 189.756 34.9176 189.756C34.2596 189.756 33.7532 189.992 33.3986 190.463C33.0439 190.934 32.8666 191.606 32.8666 192.479C32.8666 192.941 32.9062 193.338 32.9856 193.669C33.0649 193.996 33.1816 194.266 33.3356 194.481C33.4896 194.691 33.6786 194.845 33.9026 194.943C34.1266 195.041 34.3809 195.09 34.6656 195.09C35.0762 195.09 35.4332 194.997 35.7366 194.81C36.0446 194.623 36.3269 194.36 36.5836 194.019V190.596ZM37.8296 185.689V196H37.0876C36.9102 196 36.7982 195.914 36.7516 195.741L36.6396 194.88C36.3362 195.244 35.9909 195.538 35.6036 195.762C35.2162 195.986 34.7682 196.098 34.2596 196.098C33.8536 196.098 33.4849 196.021 33.1536 195.867C32.8222 195.708 32.5399 195.477 32.3066 195.174C32.0732 194.871 31.8936 194.493 31.7676 194.04C31.6416 193.587 31.5786 193.067 31.5786 192.479C31.5786 191.956 31.6486 191.471 31.7886 191.023C31.9286 190.57 32.1292 190.178 32.3906 189.847C32.6519 189.516 32.9716 189.257 33.3496 189.07C33.7322 188.879 34.1616 188.783 34.6376 188.783C35.0716 188.783 35.4426 188.858 35.7506 189.007C36.0632 189.152 36.3409 189.355 36.5836 189.616V185.689H37.8296ZM41.0855 185.689V196H39.8395V185.689H41.0855ZM49.2241 188.909L45.2691 198.093C45.2271 198.186 45.1735 198.261 45.1081 198.317C45.0475 198.373 44.9518 198.401 44.8211 198.401H43.8971L45.1921 195.587L42.2661 188.909H43.3441C43.4515 188.909 43.5355 188.937 43.5961 188.993C43.6615 189.044 43.7058 189.103 43.7291 189.168L45.6261 193.634C45.7008 193.83 45.7638 194.035 45.8151 194.25C45.8805 194.031 45.9505 193.823 46.0251 193.627L47.8661 189.168C47.8941 189.093 47.9408 189.033 48.0061 188.986C48.0761 188.935 48.1531 188.909 48.2371 188.909H49.2241ZM57.4081 192.808C56.8341 192.827 56.3441 192.873 55.9381 192.948C55.5368 193.018 55.2078 193.111 54.9511 193.228C54.6991 193.345 54.5148 193.482 54.3981 193.641C54.2861 193.8 54.2301 193.977 54.2301 194.173C54.2301 194.36 54.2605 194.521 54.3211 194.656C54.3818 194.791 54.4635 194.903 54.5661 194.992C54.6735 195.076 54.7971 195.139 54.9371 195.181C55.0818 195.218 55.2358 195.237 55.3991 195.237C55.6185 195.237 55.8191 195.216 56.0011 195.174C56.1831 195.127 56.3535 195.062 56.5121 194.978C56.6755 194.894 56.8295 194.794 56.9741 194.677C57.1235 194.56 57.2681 194.427 57.4081 194.278V192.808ZM53.3831 189.91C53.7751 189.532 54.1975 189.25 54.6501 189.063C55.1028 188.876 55.6045 188.783 56.1551 188.783C56.5518 188.783 56.9041 188.848 57.2121 188.979C57.5201 189.11 57.7791 189.292 57.9891 189.525C58.1991 189.758 58.3578 190.041 58.4651 190.372C58.5725 190.703 58.6261 191.067 58.6261 191.464V196H58.0731C57.9518 196 57.8585 195.981 57.7931 195.944C57.7278 195.902 57.6765 195.823 57.6391 195.706L57.4991 195.034C57.3125 195.207 57.1305 195.361 56.9531 195.496C56.7758 195.627 56.5891 195.739 56.3931 195.832C56.1971 195.921 55.9871 195.988 55.7631 196.035C55.5438 196.086 55.2988 196.112 55.0281 196.112C54.7528 196.112 54.4938 196.075 54.2511 196C54.0085 195.921 53.7961 195.804 53.6141 195.65C53.4368 195.496 53.2945 195.302 53.1871 195.069C53.0845 194.831 53.0331 194.551 53.0331 194.229C53.0331 193.949 53.1101 193.681 53.2641 193.424C53.4181 193.163 53.6678 192.932 54.0131 192.731C54.3585 192.53 54.8088 192.367 55.3641 192.241C55.9195 192.11 56.6008 192.036 57.4081 192.017V191.464C57.4081 190.913 57.2891 190.498 57.0511 190.218C56.8131 189.933 56.4655 189.791 56.0081 189.791C55.7001 189.791 55.4411 189.831 55.2311 189.91C55.0258 189.985 54.8461 190.071 54.6921 190.169C54.5428 190.262 54.4121 190.349 54.3001 190.428C54.1928 190.503 54.0855 190.54 53.9781 190.54C53.8941 190.54 53.8218 190.519 53.7611 190.477C53.7005 190.43 53.6491 190.374 53.6071 190.309L53.3831 189.91ZM61.8121 185.689V196H60.5661V185.689H61.8121ZM65.1207 185.689V196H63.8747V185.689H65.1207ZM70.1303 188.797C70.6483 188.797 71.115 188.883 71.5303 189.056C71.9456 189.229 72.3003 189.474 72.5943 189.791C72.8883 190.108 73.1123 190.493 73.2663 190.946C73.425 191.394 73.5043 191.896 73.5043 192.451C73.5043 193.011 73.425 193.515 73.2663 193.963C73.1123 194.411 72.8883 194.794 72.5943 195.111C72.3003 195.428 71.9456 195.673 71.5303 195.846C71.115 196.014 70.6483 196.098 70.1303 196.098C69.6076 196.098 69.1363 196.014 68.7163 195.846C68.301 195.673 67.9463 195.428 67.6523 195.111C67.3583 194.794 67.132 194.411 66.9733 193.963C66.8193 193.515 66.7423 193.011 66.7423 192.451C66.7423 191.896 66.8193 191.394 66.9733 190.946C67.132 190.493 67.3583 190.108 67.6523 189.791C67.9463 189.474 68.301 189.229 68.7163 189.056C69.1363 188.883 69.6076 188.797 70.1303 188.797ZM70.1303 195.125C70.8303 195.125 71.353 194.892 71.6983 194.425C72.0436 193.954 72.2163 193.298 72.2163 192.458C72.2163 191.613 72.0436 190.955 71.6983 190.484C71.353 190.013 70.8303 189.777 70.1303 189.777C69.7756 189.777 69.4653 189.838 69.1993 189.959C68.938 190.08 68.7186 190.255 68.5413 190.484C68.3686 190.713 68.238 190.995 68.1493 191.331C68.0653 191.662 68.0233 192.038 68.0233 192.458C68.0233 193.298 68.196 193.954 68.5413 194.425C68.8913 194.892 69.421 195.125 70.1303 195.125ZM84.7543 188.909L82.4583 196H81.4713C81.3499 196 81.2659 195.921 81.2193 195.762L79.6513 190.953C79.6139 190.846 79.5836 190.738 79.5603 190.631C79.5369 190.519 79.5136 190.409 79.4903 190.302C79.4669 190.409 79.4436 190.519 79.4203 190.631C79.3969 190.738 79.3666 190.848 79.3293 190.96L77.7333 195.762C77.6913 195.921 77.5979 196 77.4533 196H76.5153L74.2193 188.909H75.1993C75.2973 188.909 75.3789 188.935 75.4443 188.986C75.5143 189.037 75.5609 189.098 75.5843 189.168L76.9423 193.732C77.0216 194.068 77.0846 194.385 77.1313 194.684C77.1733 194.53 77.2153 194.374 77.2573 194.215C77.3039 194.056 77.3529 193.895 77.4043 193.732L78.9023 189.14C78.9256 189.07 78.9653 189.012 79.0213 188.965C79.0819 188.918 79.1543 188.895 79.2383 188.895H79.7843C79.8776 188.895 79.9546 188.918 80.0153 188.965C80.0759 189.012 80.1179 189.07 80.1413 189.14L81.6043 193.732C81.6556 193.895 81.7023 194.056 81.7443 194.215C81.7863 194.374 81.8259 194.53 81.8633 194.684C81.8866 194.53 81.9146 194.376 81.9473 194.222C81.9846 194.063 82.0243 193.9 82.0663 193.732L83.4523 189.168C83.4756 189.093 83.5199 189.033 83.5853 188.986C83.6506 188.935 83.7276 188.909 83.8163 188.909H84.7543ZM95.0934 188.909V196H94.3514C94.1741 196 94.0621 195.914 94.0154 195.741L93.9174 194.978C93.6094 195.319 93.2641 195.594 92.8814 195.804C92.4987 196.009 92.0601 196.112 91.5654 196.112C91.1781 196.112 90.8351 196.049 90.5364 195.923C90.2424 195.792 89.9951 195.61 89.7944 195.377C89.5937 195.144 89.4421 194.861 89.3394 194.53C89.2414 194.199 89.1924 193.832 89.1924 193.431V188.909H90.4384V193.431C90.4384 193.968 90.5597 194.383 90.8024 194.677C91.0497 194.971 91.4254 195.118 91.9294 195.118C92.2981 195.118 92.6411 195.032 92.9584 194.859C93.2804 194.682 93.5767 194.439 93.8474 194.131V188.909H95.0934ZM101.199 190.078C101.143 190.181 101.057 190.232 100.94 190.232C100.87 190.232 100.791 190.206 100.702 190.155C100.613 190.104 100.504 190.048 100.373 189.987C100.247 189.922 100.095 189.863 99.918 189.812C99.7407 189.756 99.5307 189.728 99.288 189.728C99.078 189.728 98.889 189.756 98.721 189.812C98.553 189.863 98.4084 189.936 98.287 190.029C98.1704 190.122 98.0794 190.232 98.014 190.358C97.9534 190.479 97.923 190.612 97.923 190.757C97.923 190.939 97.9744 191.091 98.077 191.212C98.1844 191.333 98.3244 191.438 98.497 191.527C98.6697 191.616 98.8657 191.695 99.085 191.765C99.3044 191.83 99.5284 191.903 99.757 191.982C99.9904 192.057 100.217 192.141 100.436 192.234C100.655 192.327 100.851 192.444 101.024 192.584C101.197 192.724 101.334 192.897 101.437 193.102C101.544 193.303 101.598 193.545 101.598 193.83C101.598 194.157 101.54 194.46 101.423 194.74C101.306 195.015 101.134 195.256 100.905 195.461C100.676 195.662 100.396 195.82 100.065 195.937C99.7337 196.054 99.351 196.112 98.917 196.112C98.4224 196.112 97.9744 196.033 97.573 195.874C97.1717 195.711 96.831 195.503 96.551 195.251L96.845 194.775C96.8824 194.714 96.9267 194.668 96.978 194.635C97.0294 194.602 97.0947 194.586 97.174 194.586C97.258 194.586 97.3467 194.619 97.44 194.684C97.5334 194.749 97.6454 194.822 97.776 194.901C97.9114 194.98 98.0747 195.053 98.266 195.118C98.4574 195.183 98.6954 195.216 98.98 195.216C99.2227 195.216 99.435 195.186 99.617 195.125C99.799 195.06 99.9507 194.973 100.072 194.866C100.193 194.759 100.282 194.635 100.338 194.495C100.399 194.355 100.429 194.206 100.429 194.047C100.429 193.851 100.375 193.69 100.268 193.564C100.165 193.433 100.028 193.324 99.855 193.235C99.6824 193.142 99.484 193.062 99.26 192.997C99.0407 192.927 98.8144 192.855 98.581 192.78C98.3524 192.705 98.126 192.621 97.902 192.528C97.6827 192.43 97.4867 192.309 97.314 192.164C97.1414 192.019 97.0014 191.842 96.894 191.632C96.7914 191.417 96.74 191.158 96.74 190.855C96.74 190.584 96.796 190.325 96.908 190.078C97.02 189.826 97.1834 189.607 97.398 189.42C97.6127 189.229 97.8764 189.077 98.189 188.965C98.5017 188.853 98.8587 188.797 99.26 188.797C99.7267 188.797 100.144 188.872 100.513 189.021C100.886 189.166 101.208 189.366 101.479 189.623L101.199 190.078ZM112.847 195.048V196H107.471V195.048H109.62V188.209C109.62 188.004 109.627 187.796 109.641 187.586L107.856 189.119C107.795 189.17 107.734 189.203 107.674 189.217C107.613 189.226 107.557 189.226 107.506 189.217C107.454 189.208 107.405 189.189 107.359 189.161C107.317 189.133 107.284 189.103 107.261 189.07L106.869 188.531L109.858 185.948H110.873V195.048H112.847ZM121.542 190.988C121.542 191.865 121.446 192.626 121.255 193.27C121.068 193.909 120.811 194.439 120.485 194.859C120.158 195.279 119.771 195.592 119.323 195.797C118.879 196.002 118.403 196.105 117.895 196.105C117.381 196.105 116.903 196.002 116.46 195.797C116.021 195.592 115.638 195.279 115.312 194.859C114.985 194.439 114.728 193.909 114.542 193.27C114.355 192.626 114.262 191.865 114.262 190.988C114.262 190.111 114.355 189.35 114.542 188.706C114.728 188.062 114.985 187.53 115.312 187.11C115.638 186.685 116.021 186.37 116.46 186.165C116.903 185.96 117.381 185.857 117.895 185.857C118.403 185.857 118.879 185.96 119.323 186.165C119.771 186.37 120.158 186.685 120.485 187.11C120.811 187.53 121.068 188.062 121.255 188.706C121.446 189.35 121.542 190.111 121.542 190.988ZM120.247 190.988C120.247 190.223 120.181 189.581 120.051 189.063C119.925 188.54 119.752 188.12 119.533 187.803C119.318 187.486 119.068 187.259 118.784 187.124C118.499 186.984 118.203 186.914 117.895 186.914C117.587 186.914 117.29 186.984 117.006 187.124C116.721 187.259 116.471 187.486 116.257 187.803C116.042 188.12 115.869 188.54 115.739 189.063C115.613 189.581 115.55 190.223 115.55 190.988C115.55 191.753 115.613 192.395 115.739 192.913C115.869 193.431 116.042 193.849 116.257 194.166C116.471 194.483 116.721 194.712 117.006 194.852C117.29 194.987 117.587 195.055 117.895 195.055C118.203 195.055 118.499 194.987 118.784 194.852C119.068 194.712 119.318 194.483 119.533 194.166C119.752 193.849 119.925 193.431 120.051 192.913C120.181 192.395 120.247 191.753 120.247 190.988ZM122.838 191.275H126.296V192.332H122.838V191.275ZM134.067 194.817C134.203 194.817 134.31 194.857 134.389 194.936C134.469 195.015 134.508 195.118 134.508 195.244V196H127.816V195.573C127.816 195.484 127.835 195.393 127.872 195.3C127.91 195.207 127.968 195.12 128.047 195.041L131.26 191.814C131.526 191.543 131.769 191.284 131.988 191.037C132.208 190.785 132.394 190.533 132.548 190.281C132.702 190.029 132.821 189.775 132.905 189.518C132.989 189.257 133.031 188.979 133.031 188.685C133.031 188.391 132.985 188.134 132.891 187.915C132.798 187.691 132.67 187.507 132.506 187.362C132.348 187.217 132.159 187.11 131.939 187.04C131.72 186.965 131.484 186.928 131.232 186.928C130.976 186.928 130.74 186.965 130.525 187.04C130.311 187.115 130.119 187.22 129.951 187.355C129.788 187.486 129.65 187.642 129.538 187.824C129.426 188.006 129.347 188.207 129.3 188.426C129.244 188.589 129.167 188.699 129.069 188.755C128.976 188.806 128.843 188.82 128.67 188.797L128.019 188.685C128.085 188.228 128.211 187.824 128.397 187.474C128.589 187.119 128.827 186.823 129.111 186.585C129.401 186.347 129.73 186.167 130.098 186.046C130.467 185.92 130.866 185.857 131.295 185.857C131.72 185.857 132.117 185.92 132.485 186.046C132.854 186.172 133.174 186.356 133.444 186.599C133.715 186.837 133.927 187.129 134.081 187.474C134.235 187.819 134.312 188.211 134.312 188.65C134.312 189.023 134.256 189.371 134.144 189.693C134.032 190.01 133.881 190.314 133.689 190.603C133.498 190.892 133.276 191.175 133.024 191.45C132.777 191.725 132.513 192.003 132.233 192.283L129.587 194.985C129.774 194.934 129.963 194.894 130.154 194.866C130.346 194.833 130.53 194.817 130.707 194.817H134.067ZM142.979 190.988C142.979 191.865 142.884 192.626 142.692 193.27C142.506 193.909 142.249 194.439 141.922 194.859C141.596 195.279 141.208 195.592 140.76 195.797C140.317 196.002 139.841 196.105 139.332 196.105C138.819 196.105 138.341 196.002 137.897 195.797C137.459 195.592 137.076 195.279 136.749 194.859C136.423 194.439 136.166 193.909 135.979 193.27C135.793 192.626 135.699 191.865 135.699 190.988C135.699 190.111 135.793 189.35 135.979 188.706C136.166 188.062 136.423 187.53 136.749 187.11C137.076 186.685 137.459 186.37 137.897 186.165C138.341 185.96 138.819 185.857 139.332 185.857C139.841 185.857 140.317 185.96 140.76 186.165C141.208 186.37 141.596 186.685 141.922 187.11C142.249 187.53 142.506 188.062 142.692 188.706C142.884 189.35 142.979 190.111 142.979 190.988ZM141.684 190.988C141.684 190.223 141.619 189.581 141.488 189.063C141.362 188.54 141.19 188.12 140.97 187.803C140.756 187.486 140.506 187.259 140.221 187.124C139.937 186.984 139.64 186.914 139.332 186.914C139.024 186.914 138.728 186.984 138.443 187.124C138.159 187.259 137.909 187.486 137.694 187.803C137.48 188.12 137.307 188.54 137.176 189.063C137.05 189.581 136.987 190.223 136.987 190.988C136.987 191.753 137.05 192.395 137.176 192.913C137.307 193.431 137.48 193.849 137.694 194.166C137.909 194.483 138.159 194.712 138.443 194.852C138.728 194.987 139.024 195.055 139.332 195.055C139.64 195.055 139.937 194.987 140.221 194.852C140.506 194.712 140.756 194.483 140.97 194.166C141.19 193.849 141.362 193.431 141.488 192.913C141.619 192.395 141.684 191.753 141.684 190.988ZM147.969 196V188.909H148.718C148.896 188.909 149.005 188.995 149.047 189.168L149.138 189.896C149.4 189.574 149.694 189.31 150.02 189.105C150.347 188.9 150.725 188.797 151.154 188.797C151.63 188.797 152.015 188.93 152.309 189.196C152.608 189.462 152.823 189.821 152.953 190.274C153.056 190.017 153.187 189.796 153.345 189.609C153.509 189.422 153.691 189.268 153.891 189.147C154.092 189.026 154.304 188.937 154.528 188.881C154.757 188.825 154.988 188.797 155.221 188.797C155.595 188.797 155.926 188.858 156.215 188.979C156.509 189.096 156.757 189.268 156.957 189.497C157.163 189.726 157.319 190.008 157.426 190.344C157.534 190.675 157.587 191.056 157.587 191.485V196H156.334V191.485C156.334 190.93 156.213 190.51 155.97 190.225C155.728 189.936 155.378 189.791 154.92 189.791C154.715 189.791 154.519 189.828 154.332 189.903C154.15 189.973 153.989 190.078 153.849 190.218C153.709 190.358 153.597 190.535 153.513 190.75C153.434 190.96 153.394 191.205 153.394 191.485V196H152.141V191.485C152.141 190.916 152.027 190.491 151.798 190.211C151.57 189.931 151.236 189.791 150.797 189.791C150.489 189.791 150.205 189.875 149.943 190.043C149.682 190.206 149.442 190.43 149.222 190.715V196H147.969ZM160.797 188.909V196H159.551V188.909H160.797ZM161.063 186.683C161.063 186.804 161.037 186.919 160.986 187.026C160.939 187.129 160.874 187.222 160.79 187.306C160.711 187.385 160.615 187.448 160.503 187.495C160.396 187.542 160.281 187.565 160.16 187.565C160.039 187.565 159.924 187.542 159.817 187.495C159.714 187.448 159.623 187.385 159.544 187.306C159.465 187.222 159.402 187.129 159.355 187.026C159.308 186.919 159.285 186.804 159.285 186.683C159.285 186.562 159.308 186.447 159.355 186.34C159.402 186.228 159.465 186.132 159.544 186.053C159.623 185.969 159.714 185.904 159.817 185.857C159.924 185.81 160.039 185.787 160.16 185.787C160.281 185.787 160.396 185.81 160.503 185.857C160.615 185.904 160.711 185.969 160.79 186.053C160.874 186.132 160.939 186.228 160.986 186.34C161.037 186.447 161.063 186.562 161.063 186.683ZM164.02 189.938C164.174 189.765 164.338 189.609 164.51 189.469C164.683 189.329 164.865 189.21 165.056 189.112C165.252 189.009 165.458 188.932 165.672 188.881C165.892 188.825 166.127 188.797 166.379 188.797C166.767 188.797 167.107 188.862 167.401 188.993C167.7 189.119 167.947 189.301 168.143 189.539C168.344 189.772 168.496 190.055 168.598 190.386C168.701 190.717 168.752 191.084 168.752 191.485V196H167.499V191.485C167.499 190.948 167.376 190.533 167.128 190.239C166.886 189.94 166.515 189.791 166.015 189.791C165.647 189.791 165.301 189.88 164.979 190.057C164.662 190.234 164.368 190.475 164.097 190.778V196H162.844V188.909H163.593C163.771 188.909 163.88 188.995 163.922 189.168L164.02 189.938ZM176.482 188.909V196H175.74C175.563 196 175.451 195.914 175.404 195.741L175.306 194.978C174.998 195.319 174.653 195.594 174.27 195.804C173.887 196.009 173.449 196.112 172.954 196.112C172.567 196.112 172.224 196.049 171.925 195.923C171.631 195.792 171.384 195.61 171.183 195.377C170.982 195.144 170.831 194.861 170.728 194.53C170.63 194.199 170.581 193.832 170.581 193.431V188.909H171.827V193.431C171.827 193.968 171.948 194.383 172.191 194.677C172.438 194.971 172.814 195.118 173.318 195.118C173.687 195.118 174.03 195.032 174.347 194.859C174.669 194.682 174.965 194.439 175.236 194.131V188.909H176.482ZM180.635 196.112C180.075 196.112 179.643 195.956 179.34 195.643C179.041 195.33 178.892 194.88 178.892 194.292V189.952H178.038C177.963 189.952 177.9 189.931 177.849 189.889C177.797 189.842 177.772 189.772 177.772 189.679V189.182L178.934 189.035L179.221 186.844C179.235 186.774 179.265 186.718 179.312 186.676C179.363 186.629 179.428 186.606 179.508 186.606H180.138V189.049H182.189V189.952H180.138V194.208C180.138 194.507 180.21 194.728 180.355 194.873C180.499 195.018 180.686 195.09 180.915 195.09C181.045 195.09 181.157 195.074 181.251 195.041C181.349 195.004 181.433 194.964 181.503 194.922C181.573 194.88 181.631 194.843 181.678 194.81C181.729 194.773 181.773 194.754 181.811 194.754C181.876 194.754 181.934 194.794 181.986 194.873L182.35 195.468C182.135 195.669 181.876 195.827 181.573 195.944C181.269 196.056 180.957 196.112 180.635 196.112ZM188.18 191.681C188.18 191.392 188.138 191.128 188.054 190.89C187.975 190.647 187.856 190.44 187.697 190.267C187.543 190.09 187.354 189.954 187.13 189.861C186.906 189.763 186.652 189.714 186.367 189.714C185.77 189.714 185.296 189.889 184.946 190.239C184.601 190.584 184.386 191.065 184.302 191.681H188.18ZM189.188 195.006C189.034 195.193 188.85 195.356 188.635 195.496C188.421 195.631 188.19 195.743 187.942 195.832C187.7 195.921 187.448 195.986 187.186 196.028C186.925 196.075 186.666 196.098 186.409 196.098C185.919 196.098 185.467 196.016 185.051 195.853C184.641 195.685 184.284 195.442 183.98 195.125C183.682 194.803 183.448 194.406 183.28 193.935C183.112 193.464 183.028 192.922 183.028 192.311C183.028 191.816 183.103 191.354 183.252 190.925C183.406 190.496 183.626 190.125 183.91 189.812C184.195 189.495 184.543 189.247 184.953 189.07C185.364 188.888 185.826 188.797 186.339 188.797C186.764 188.797 187.156 188.869 187.515 189.014C187.879 189.154 188.192 189.359 188.453 189.63C188.719 189.896 188.927 190.227 189.076 190.624C189.226 191.016 189.3 191.464 189.3 191.968C189.3 192.164 189.279 192.295 189.237 192.36C189.195 192.425 189.116 192.458 188.999 192.458H184.26C184.274 192.906 184.335 193.296 184.442 193.627C184.554 193.958 184.708 194.236 184.904 194.46C185.1 194.679 185.334 194.845 185.604 194.957C185.875 195.064 186.178 195.118 186.514 195.118C186.827 195.118 187.095 195.083 187.319 195.013C187.548 194.938 187.744 194.859 187.907 194.775C188.071 194.691 188.206 194.614 188.313 194.544C188.425 194.469 188.521 194.432 188.6 194.432C188.703 194.432 188.782 194.472 188.838 194.551L189.188 195.006ZM194.961 190.078C194.905 190.181 194.818 190.232 194.702 190.232C194.632 190.232 194.552 190.206 194.464 190.155C194.375 190.104 194.265 190.048 194.135 189.987C194.009 189.922 193.857 189.863 193.68 189.812C193.502 189.756 193.292 189.728 193.05 189.728C192.84 189.728 192.651 189.756 192.483 189.812C192.315 189.863 192.17 189.936 192.049 190.029C191.932 190.122 191.841 190.232 191.776 190.358C191.715 190.479 191.685 190.612 191.685 190.757C191.685 190.939 191.736 191.091 191.839 191.212C191.946 191.333 192.086 191.438 192.259 191.527C192.431 191.616 192.627 191.695 192.847 191.765C193.066 191.83 193.29 191.903 193.519 191.982C193.752 192.057 193.978 192.141 194.198 192.234C194.417 192.327 194.613 192.444 194.786 192.584C194.958 192.724 195.096 192.897 195.199 193.102C195.306 193.303 195.36 193.545 195.36 193.83C195.36 194.157 195.301 194.46 195.185 194.74C195.068 195.015 194.895 195.256 194.667 195.461C194.438 195.662 194.158 195.82 193.827 195.937C193.495 196.054 193.113 196.112 192.679 196.112C192.184 196.112 191.736 196.033 191.335 195.874C190.933 195.711 190.593 195.503 190.313 195.251L190.607 194.775C190.644 194.714 190.688 194.668 190.74 194.635C190.791 194.602 190.856 194.586 190.936 194.586C191.02 194.586 191.108 194.619 191.202 194.684C191.295 194.749 191.407 194.822 191.538 194.901C191.673 194.98 191.836 195.053 192.028 195.118C192.219 195.183 192.457 195.216 192.742 195.216C192.984 195.216 193.197 195.186 193.379 195.125C193.561 195.06 193.712 194.973 193.834 194.866C193.955 194.759 194.044 194.635 194.1 194.495C194.16 194.355 194.191 194.206 194.191 194.047C194.191 193.851 194.137 193.69 194.03 193.564C193.927 193.433 193.789 193.324 193.617 193.235C193.444 193.142 193.246 193.062 193.022 192.997C192.802 192.927 192.576 192.855 192.343 192.78C192.114 192.705 191.888 192.621 191.664 192.528C191.444 192.43 191.248 192.309 191.076 192.164C190.903 192.019 190.763 191.842 190.656 191.632C190.553 191.417 190.502 191.158 190.502 190.855C190.502 190.584 190.558 190.325 190.67 190.078C190.782 189.826 190.945 189.607 191.16 189.42C191.374 189.229 191.638 189.077 191.951 188.965C192.263 188.853 192.62 188.797 193.022 188.797C193.488 188.797 193.906 188.872 194.275 189.021C194.648 189.166 194.97 189.366 195.241 189.623L194.961 190.078ZM202.646 196.112C202.086 196.112 201.655 195.956 201.351 195.643C201.053 195.33 200.903 194.88 200.903 194.292V189.952H200.049C199.975 189.952 199.912 189.931 199.86 189.889C199.809 189.842 199.783 189.772 199.783 189.679V189.182L200.945 189.035L201.232 186.844C201.246 186.774 201.277 186.718 201.323 186.676C201.375 186.629 201.44 186.606 201.519 186.606H202.149V189.049H204.2V189.952H202.149V194.208C202.149 194.507 202.222 194.728 202.366 194.873C202.511 195.018 202.698 195.09 202.926 195.09C203.057 195.09 203.169 195.074 203.262 195.041C203.36 195.004 203.444 194.964 203.514 194.922C203.584 194.88 203.643 194.843 203.689 194.81C203.741 194.773 203.785 194.754 203.822 194.754C203.888 194.754 203.946 194.794 203.997 194.873L204.361 195.468C204.147 195.669 203.888 195.827 203.584 195.944C203.281 196.056 202.968 196.112 202.646 196.112ZM208.435 188.797C208.953 188.797 209.42 188.883 209.835 189.056C210.25 189.229 210.605 189.474 210.899 189.791C211.193 190.108 211.417 190.493 211.571 190.946C211.73 191.394 211.809 191.896 211.809 192.451C211.809 193.011 211.73 193.515 211.571 193.963C211.417 194.411 211.193 194.794 210.899 195.111C210.605 195.428 210.25 195.673 209.835 195.846C209.42 196.014 208.953 196.098 208.435 196.098C207.912 196.098 207.441 196.014 207.021 195.846C206.606 195.673 206.251 195.428 205.957 195.111C205.663 194.794 205.437 194.411 205.278 193.963C205.124 193.515 205.047 193.011 205.047 192.451C205.047 191.896 205.124 191.394 205.278 190.946C205.437 190.493 205.663 190.108 205.957 189.791C206.251 189.474 206.606 189.229 207.021 189.056C207.441 188.883 207.912 188.797 208.435 188.797ZM208.435 195.125C209.135 195.125 209.658 194.892 210.003 194.425C210.348 193.954 210.521 193.298 210.521 192.458C210.521 191.613 210.348 190.955 210.003 190.484C209.658 190.013 209.135 189.777 208.435 189.777C208.08 189.777 207.77 189.838 207.504 189.959C207.243 190.08 207.023 190.255 206.846 190.484C206.673 190.713 206.543 190.995 206.454 191.331C206.37 191.662 206.328 192.038 206.328 192.458C206.328 193.298 206.501 193.954 206.846 194.425C207.196 194.892 207.726 195.125 208.435 195.125ZM218.224 194.292C218.453 194.6 218.703 194.817 218.973 194.943C219.244 195.069 219.547 195.132 219.883 195.132C220.546 195.132 221.055 194.896 221.409 194.425C221.764 193.954 221.941 193.282 221.941 192.409C221.941 191.947 221.899 191.55 221.815 191.219C221.736 190.888 221.619 190.617 221.465 190.407C221.311 190.192 221.122 190.036 220.898 189.938C220.674 189.84 220.42 189.791 220.135 189.791C219.729 189.791 219.372 189.884 219.064 190.071C218.761 190.258 218.481 190.521 218.224 190.862V194.292ZM218.161 190.008C218.46 189.639 218.805 189.343 219.197 189.119C219.589 188.895 220.037 188.783 220.541 188.783C220.952 188.783 221.323 188.862 221.654 189.021C221.986 189.175 222.268 189.406 222.501 189.714C222.735 190.017 222.914 190.395 223.04 190.848C223.166 191.301 223.229 191.821 223.229 192.409C223.229 192.932 223.159 193.419 223.019 193.872C222.879 194.32 222.676 194.71 222.41 195.041C222.149 195.368 221.827 195.627 221.444 195.818C221.066 196.005 220.639 196.098 220.163 196.098C219.729 196.098 219.356 196.026 219.043 195.881C218.735 195.732 218.462 195.526 218.224 195.265V198.401H216.971V188.909H217.72C217.898 188.909 218.007 188.995 218.049 189.168L218.161 190.008ZM226.002 190.33C226.226 189.845 226.501 189.467 226.828 189.196C227.155 188.921 227.554 188.783 228.025 188.783C228.174 188.783 228.317 188.799 228.452 188.832C228.592 188.865 228.716 188.916 228.823 188.986L228.732 189.917C228.704 190.034 228.634 190.092 228.522 190.092C228.457 190.092 228.361 190.078 228.235 190.05C228.109 190.022 227.967 190.008 227.808 190.008C227.584 190.008 227.383 190.041 227.206 190.106C227.033 190.171 226.877 190.269 226.737 190.4C226.602 190.526 226.478 190.685 226.366 190.876C226.259 191.063 226.161 191.277 226.072 191.52V196H224.819V188.909H225.533C225.668 188.909 225.762 188.935 225.813 188.986C225.864 189.037 225.899 189.126 225.918 189.252L226.002 190.33ZM232.621 188.797C233.139 188.797 233.605 188.883 234.021 189.056C234.436 189.229 234.791 189.474 235.085 189.791C235.379 190.108 235.603 190.493 235.757 190.946C235.915 191.394 235.995 191.896 235.995 192.451C235.995 193.011 235.915 193.515 235.757 193.963C235.603 194.411 235.379 194.794 235.085 195.111C234.791 195.428 234.436 195.673 234.021 195.846C233.605 196.014 233.139 196.098 232.621 196.098C232.098 196.098 231.627 196.014 231.207 195.846C230.791 195.673 230.437 195.428 230.143 195.111C229.849 194.794 229.622 194.411 229.464 193.963C229.31 193.515 229.233 193.011 229.233 192.451C229.233 191.896 229.31 191.394 229.464 190.946C229.622 190.493 229.849 190.108 230.143 189.791C230.437 189.474 230.791 189.229 231.207 189.056C231.627 188.883 232.098 188.797 232.621 188.797ZM232.621 195.125C233.321 195.125 233.843 194.892 234.189 194.425C234.534 193.954 234.707 193.298 234.707 192.458C234.707 191.613 234.534 190.955 234.189 190.484C233.843 190.013 233.321 189.777 232.621 189.777C232.266 189.777 231.956 189.838 231.69 189.959C231.428 190.08 231.209 190.255 231.032 190.484C230.859 190.713 230.728 190.995 230.64 191.331C230.556 191.662 230.514 192.038 230.514 192.458C230.514 193.298 230.686 193.954 231.032 194.425C231.382 194.892 231.911 195.125 232.621 195.125ZM242.51 190.169C242.473 190.22 242.435 190.26 242.398 190.288C242.361 190.316 242.309 190.33 242.244 190.33C242.174 190.33 242.097 190.302 242.013 190.246C241.929 190.185 241.824 190.12 241.698 190.05C241.577 189.98 241.425 189.917 241.243 189.861C241.066 189.8 240.846 189.77 240.585 189.77C240.235 189.77 239.927 189.833 239.661 189.959C239.395 190.08 239.171 190.258 238.989 190.491C238.812 190.724 238.676 191.007 238.583 191.338C238.494 191.669 238.45 192.04 238.45 192.451C238.45 192.88 238.499 193.263 238.597 193.599C238.695 193.93 238.833 194.21 239.01 194.439C239.192 194.663 239.409 194.836 239.661 194.957C239.918 195.074 240.205 195.132 240.522 195.132C240.825 195.132 241.075 195.097 241.271 195.027C241.467 194.952 241.628 194.871 241.754 194.782C241.885 194.693 241.992 194.614 242.076 194.544C242.165 194.469 242.251 194.432 242.335 194.432C242.438 194.432 242.517 194.472 242.573 194.551L242.923 195.006C242.769 195.197 242.594 195.361 242.398 195.496C242.202 195.631 241.99 195.746 241.761 195.839C241.537 195.928 241.301 195.993 241.054 196.035C240.807 196.077 240.555 196.098 240.298 196.098C239.855 196.098 239.442 196.016 239.059 195.853C238.681 195.69 238.352 195.454 238.072 195.146C237.792 194.833 237.573 194.451 237.414 193.998C237.255 193.545 237.176 193.03 237.176 192.451C237.176 191.924 237.248 191.436 237.393 190.988C237.542 190.54 237.757 190.155 238.037 189.833C238.322 189.506 238.669 189.252 239.08 189.07C239.495 188.888 239.971 188.797 240.508 188.797C241.007 188.797 241.446 188.879 241.824 189.042C242.207 189.201 242.545 189.427 242.839 189.721L242.51 190.169ZM248.883 191.681C248.883 191.392 248.841 191.128 248.757 190.89C248.678 190.647 248.559 190.44 248.4 190.267C248.246 190.09 248.057 189.954 247.833 189.861C247.609 189.763 247.355 189.714 247.07 189.714C246.473 189.714 245.999 189.889 245.649 190.239C245.304 190.584 245.089 191.065 245.005 191.681H248.883ZM249.891 195.006C249.737 195.193 249.553 195.356 249.338 195.496C249.124 195.631 248.893 195.743 248.645 195.832C248.403 195.921 248.151 195.986 247.889 196.028C247.628 196.075 247.369 196.098 247.112 196.098C246.622 196.098 246.17 196.016 245.754 195.853C245.344 195.685 244.987 195.442 244.683 195.125C244.385 194.803 244.151 194.406 243.983 193.935C243.815 193.464 243.731 192.922 243.731 192.311C243.731 191.816 243.806 191.354 243.955 190.925C244.109 190.496 244.329 190.125 244.613 189.812C244.898 189.495 245.246 189.247 245.656 189.07C246.067 188.888 246.529 188.797 247.042 188.797C247.467 188.797 247.859 188.869 248.218 189.014C248.582 189.154 248.895 189.359 249.156 189.63C249.422 189.896 249.63 190.227 249.779 190.624C249.929 191.016 250.003 191.464 250.003 191.968C250.003 192.164 249.982 192.295 249.94 192.36C249.898 192.425 249.819 192.458 249.702 192.458H244.963C244.977 192.906 245.038 193.296 245.145 193.627C245.257 193.958 245.411 194.236 245.607 194.46C245.803 194.679 246.037 194.845 246.307 194.957C246.578 195.064 246.881 195.118 247.217 195.118C247.53 195.118 247.798 195.083 248.022 195.013C248.251 194.938 248.447 194.859 248.61 194.775C248.774 194.691 248.909 194.614 249.016 194.544C249.128 194.469 249.224 194.432 249.303 194.432C249.406 194.432 249.485 194.472 249.541 194.551L249.891 195.006ZM255.664 190.078C255.608 190.181 255.522 190.232 255.405 190.232C255.335 190.232 255.256 190.206 255.167 190.155C255.078 190.104 254.969 190.048 254.838 189.987C254.712 189.922 254.56 189.863 254.383 189.812C254.206 189.756 253.996 189.728 253.753 189.728C253.543 189.728 253.354 189.756 253.186 189.812C253.018 189.863 252.873 189.936 252.752 190.029C252.635 190.122 252.544 190.232 252.479 190.358C252.418 190.479 252.388 190.612 252.388 190.757C252.388 190.939 252.439 191.091 252.542 191.212C252.649 191.333 252.789 191.438 252.962 191.527C253.135 191.616 253.331 191.695 253.55 191.765C253.769 191.83 253.993 191.903 254.222 191.982C254.455 192.057 254.682 192.141 254.901 192.234C255.12 192.327 255.316 192.444 255.489 192.584C255.662 192.724 255.799 192.897 255.902 193.102C256.009 193.303 256.063 193.545 256.063 193.83C256.063 194.157 256.005 194.46 255.888 194.74C255.771 195.015 255.599 195.256 255.37 195.461C255.141 195.662 254.861 195.82 254.53 195.937C254.199 196.054 253.816 196.112 253.382 196.112C252.887 196.112 252.439 196.033 252.038 195.874C251.637 195.711 251.296 195.503 251.016 195.251L251.31 194.775C251.347 194.714 251.392 194.668 251.443 194.635C251.494 194.602 251.56 194.586 251.639 194.586C251.723 194.586 251.812 194.619 251.905 194.684C251.998 194.749 252.11 194.822 252.241 194.901C252.376 194.98 252.54 195.053 252.731 195.118C252.922 195.183 253.16 195.216 253.445 195.216C253.688 195.216 253.9 195.186 254.082 195.125C254.264 195.06 254.416 194.973 254.537 194.866C254.658 194.759 254.747 194.635 254.803 194.495C254.864 194.355 254.894 194.206 254.894 194.047C254.894 193.851 254.84 193.69 254.733 193.564C254.63 193.433 254.493 193.324 254.32 193.235C254.147 193.142 253.949 193.062 253.725 192.997C253.506 192.927 253.279 192.855 253.046 192.78C252.817 192.705 252.591 192.621 252.367 192.528C252.148 192.43 251.952 192.309 251.779 192.164C251.606 192.019 251.466 191.842 251.359 191.632C251.256 191.417 251.205 191.158 251.205 190.855C251.205 190.584 251.261 190.325 251.373 190.078C251.485 189.826 251.648 189.607 251.863 189.42C252.078 189.229 252.341 189.077 252.654 188.965C252.967 188.853 253.324 188.797 253.725 188.797C254.192 188.797 254.609 188.872 254.978 189.021C255.351 189.166 255.673 189.366 255.944 189.623L255.664 190.078ZM261.721 190.078C261.665 190.181 261.578 190.232 261.462 190.232C261.392 190.232 261.312 190.206 261.224 190.155C261.135 190.104 261.025 190.048 260.895 189.987C260.769 189.922 260.617 189.863 260.44 189.812C260.262 189.756 260.052 189.728 259.81 189.728C259.6 189.728 259.411 189.756 259.243 189.812C259.075 189.863 258.93 189.936 258.809 190.029C258.692 190.122 258.601 190.232 258.536 190.358C258.475 190.479 258.445 190.612 258.445 190.757C258.445 190.939 258.496 191.091 258.599 191.212C258.706 191.333 258.846 191.438 259.019 191.527C259.191 191.616 259.387 191.695 259.607 191.765C259.826 191.83 260.05 191.903 260.279 191.982C260.512 192.057 260.738 192.141 260.958 192.234C261.177 192.327 261.373 192.444 261.546 192.584C261.718 192.724 261.856 192.897 261.959 193.102C262.066 193.303 262.12 193.545 262.12 193.83C262.12 194.157 262.061 194.46 261.945 194.74C261.828 195.015 261.655 195.256 261.427 195.461C261.198 195.662 260.918 195.82 260.587 195.937C260.255 196.054 259.873 196.112 259.439 196.112C258.944 196.112 258.496 196.033 258.095 195.874C257.693 195.711 257.353 195.503 257.073 195.251L257.367 194.775C257.404 194.714 257.448 194.668 257.5 194.635C257.551 194.602 257.616 194.586 257.696 194.586C257.78 194.586 257.868 194.619 257.962 194.684C258.055 194.749 258.167 194.822 258.298 194.901C258.433 194.98 258.596 195.053 258.788 195.118C258.979 195.183 259.217 195.216 259.502 195.216C259.744 195.216 259.957 195.186 260.139 195.125C260.321 195.06 260.472 194.973 260.594 194.866C260.715 194.759 260.804 194.635 260.86 194.495C260.92 194.355 260.951 194.206 260.951 194.047C260.951 193.851 260.897 193.69 260.79 193.564C260.687 193.433 260.549 193.324 260.377 193.235C260.204 193.142 260.006 193.062 259.782 192.997C259.562 192.927 259.336 192.855 259.103 192.78C258.874 192.705 258.648 192.621 258.424 192.528C258.204 192.43 258.008 192.309 257.836 192.164C257.663 192.019 257.523 191.842 257.416 191.632C257.313 191.417 257.262 191.158 257.262 190.855C257.262 190.584 257.318 190.325 257.43 190.078C257.542 189.826 257.705 189.607 257.92 189.42C258.134 189.229 258.398 189.077 258.711 188.965C259.023 188.853 259.38 188.797 259.782 188.797C260.248 188.797 260.666 188.872 261.035 189.021C261.408 189.166 261.73 189.366 262.001 189.623L261.721 190.078ZM272.992 188.909L269.037 198.093C268.995 198.186 268.941 198.261 268.876 198.317C268.815 198.373 268.719 198.401 268.589 198.401H267.665L268.96 195.587L266.034 188.909H267.112C267.219 188.909 267.303 188.937 267.364 188.993C267.429 189.044 267.473 189.103 267.497 189.168L269.394 193.634C269.468 193.83 269.531 194.035 269.583 194.25C269.648 194.031 269.718 193.823 269.793 193.627L271.634 189.168C271.662 189.093 271.708 189.033 271.774 188.986C271.844 188.935 271.921 188.909 272.005 188.909H272.992ZM276.89 188.797C277.408 188.797 277.875 188.883 278.29 189.056C278.705 189.229 279.06 189.474 279.354 189.791C279.648 190.108 279.872 190.493 280.026 190.946C280.185 191.394 280.264 191.896 280.264 192.451C280.264 193.011 280.185 193.515 280.026 193.963C279.872 194.411 279.648 194.794 279.354 195.111C279.06 195.428 278.705 195.673 278.29 195.846C277.875 196.014 277.408 196.098 276.89 196.098C276.367 196.098 275.896 196.014 275.476 195.846C275.061 195.673 274.706 195.428 274.412 195.111C274.118 194.794 273.892 194.411 273.733 193.963C273.579 193.515 273.502 193.011 273.502 192.451C273.502 191.896 273.579 191.394 273.733 190.946C273.892 190.493 274.118 190.108 274.412 189.791C274.706 189.474 275.061 189.229 275.476 189.056C275.896 188.883 276.367 188.797 276.89 188.797ZM276.89 195.125C277.59 195.125 278.113 194.892 278.458 194.425C278.803 193.954 278.976 193.298 278.976 192.458C278.976 191.613 278.803 190.955 278.458 190.484C278.113 190.013 277.59 189.777 276.89 189.777C276.535 189.777 276.225 189.838 275.959 189.959C275.698 190.08 275.478 190.255 275.301 190.484C275.128 190.713 274.998 190.995 274.909 191.331C274.825 191.662 274.783 192.038 274.783 192.458C274.783 193.298 274.956 193.954 275.301 194.425C275.651 194.892 276.181 195.125 276.89 195.125ZM287.675 188.909V196H286.933C286.756 196 286.644 195.914 286.597 195.741L286.499 194.978C286.191 195.319 285.846 195.594 285.463 195.804C285.081 196.009 284.642 196.112 284.147 196.112C283.76 196.112 283.417 196.049 283.118 195.923C282.824 195.792 282.577 195.61 282.376 195.377C282.176 195.144 282.024 194.861 281.921 194.53C281.823 194.199 281.774 193.832 281.774 193.431V188.909H283.02V193.431C283.02 193.968 283.142 194.383 283.384 194.677C283.632 194.971 284.007 195.118 284.511 195.118C284.88 195.118 285.223 195.032 285.54 194.859C285.862 194.682 286.159 194.439 286.429 194.131V188.909H287.675ZM290.834 190.33C291.058 189.845 291.333 189.467 291.66 189.196C291.987 188.921 292.386 188.783 292.857 188.783C293.006 188.783 293.149 188.799 293.284 188.832C293.424 188.865 293.548 188.916 293.655 188.986L293.564 189.917C293.536 190.034 293.466 190.092 293.354 190.092C293.289 190.092 293.193 190.078 293.067 190.05C292.941 190.022 292.799 190.008 292.64 190.008C292.416 190.008 292.215 190.041 292.038 190.106C291.865 190.171 291.709 190.269 291.569 190.4C291.434 190.526 291.31 190.685 291.198 190.876C291.091 191.063 290.993 191.277 290.904 191.52V196H289.651V188.909H290.365C290.5 188.909 290.594 188.935 290.645 188.986C290.696 189.037 290.731 189.126 290.75 189.252L290.834 190.33ZM131.367 215.292C131.596 215.6 131.845 215.817 132.116 215.943C132.387 216.069 132.69 216.132 133.026 216.132C133.689 216.132 134.197 215.896 134.552 215.425C134.907 214.954 135.084 214.282 135.084 213.409C135.084 212.947 135.042 212.55 134.958 212.219C134.879 211.888 134.762 211.617 134.608 211.407C134.454 211.192 134.265 211.036 134.041 210.938C133.817 210.84 133.563 210.791 133.278 210.791C132.872 210.791 132.515 210.884 132.207 211.071C131.904 211.258 131.624 211.521 131.367 211.862V215.292ZM131.304 211.008C131.603 210.639 131.948 210.343 132.34 210.119C132.732 209.895 133.18 209.783 133.684 209.783C134.095 209.783 134.466 209.862 134.797 210.021C135.128 210.175 135.411 210.406 135.644 210.714C135.877 211.017 136.057 211.395 136.183 211.848C136.309 212.301 136.372 212.821 136.372 213.409C136.372 213.932 136.302 214.419 136.162 214.872C136.022 215.32 135.819 215.71 135.553 216.041C135.292 216.368 134.97 216.627 134.587 216.818C134.209 217.005 133.782 217.098 133.306 217.098C132.872 217.098 132.499 217.026 132.186 216.881C131.878 216.732 131.605 216.526 131.367 216.265V219.401H130.114V209.909H130.863C131.04 209.909 131.15 209.995 131.192 210.168L131.304 211.008ZM141.805 213.808C141.231 213.827 140.741 213.873 140.335 213.948C139.933 214.018 139.604 214.111 139.348 214.228C139.096 214.345 138.911 214.482 138.795 214.641C138.683 214.8 138.627 214.977 138.627 215.173C138.627 215.36 138.657 215.521 138.718 215.656C138.778 215.791 138.86 215.903 138.963 215.992C139.07 216.076 139.194 216.139 139.334 216.181C139.478 216.218 139.632 216.237 139.796 216.237C140.015 216.237 140.216 216.216 140.398 216.174C140.58 216.127 140.75 216.062 140.909 215.978C141.072 215.894 141.226 215.794 141.371 215.677C141.52 215.56 141.665 215.427 141.805 215.278V213.808ZM137.78 210.91C138.172 210.532 138.594 210.25 139.047 210.063C139.499 209.876 140.001 209.783 140.552 209.783C140.948 209.783 141.301 209.848 141.609 209.979C141.917 210.11 142.176 210.292 142.386 210.525C142.596 210.758 142.754 211.041 142.862 211.372C142.969 211.703 143.023 212.067 143.023 212.464V217H142.47C142.348 217 142.255 216.981 142.19 216.944C142.124 216.902 142.073 216.823 142.036 216.706L141.896 216.034C141.709 216.207 141.527 216.361 141.35 216.496C141.172 216.627 140.986 216.739 140.79 216.832C140.594 216.921 140.384 216.988 140.16 217.035C139.94 217.086 139.695 217.112 139.425 217.112C139.149 217.112 138.89 217.075 138.648 217C138.405 216.921 138.193 216.804 138.011 216.65C137.833 216.496 137.691 216.302 137.584 216.069C137.481 215.831 137.43 215.551 137.43 215.229C137.43 214.949 137.507 214.681 137.661 214.424C137.815 214.163 138.064 213.932 138.41 213.731C138.755 213.53 139.205 213.367 139.761 213.241C140.316 213.11 140.997 213.036 141.805 213.017V212.464C141.805 211.913 141.686 211.498 141.448 211.218C141.21 210.933 140.862 210.791 140.405 210.791C140.097 210.791 139.838 210.831 139.628 210.91C139.422 210.985 139.243 211.071 139.089 211.169C138.939 211.262 138.809 211.349 138.697 211.428C138.589 211.503 138.482 211.54 138.375 211.54C138.291 211.54 138.218 211.519 138.158 211.477C138.097 211.43 138.046 211.374 138.004 211.309L137.78 210.91ZM150.875 209.909L146.92 219.093C146.878 219.186 146.824 219.261 146.759 219.317C146.698 219.373 146.602 219.401 146.472 219.401H145.548L146.843 216.587L143.917 209.909H144.995C145.102 209.909 145.186 209.937 145.247 209.993C145.312 210.044 145.356 210.103 145.38 210.168L147.277 214.634C147.351 214.83 147.414 215.035 147.466 215.25C147.531 215.031 147.601 214.823 147.676 214.627L149.517 210.168C149.545 210.093 149.591 210.033 149.657 209.986C149.727 209.935 149.804 209.909 149.888 209.909H150.875ZM154.773 209.797C155.291 209.797 155.758 209.883 156.173 210.056C156.588 210.229 156.943 210.474 157.237 210.791C157.531 211.108 157.755 211.493 157.909 211.946C158.068 212.394 158.147 212.896 158.147 213.451C158.147 214.011 158.068 214.515 157.909 214.963C157.755 215.411 157.531 215.794 157.237 216.111C156.943 216.428 156.588 216.673 156.173 216.846C155.758 217.014 155.291 217.098 154.773 217.098C154.25 217.098 153.779 217.014 153.359 216.846C152.944 216.673 152.589 216.428 152.295 216.111C152.001 215.794 151.775 215.411 151.616 214.963C151.462 214.515 151.385 214.011 151.385 213.451C151.385 212.896 151.462 212.394 151.616 211.946C151.775 211.493 152.001 211.108 152.295 210.791C152.589 210.474 152.944 210.229 153.359 210.056C153.779 209.883 154.25 209.797 154.773 209.797ZM154.773 216.125C155.473 216.125 155.996 215.892 156.341 215.425C156.686 214.954 156.859 214.298 156.859 213.458C156.859 212.613 156.686 211.955 156.341 211.484C155.996 211.013 155.473 210.777 154.773 210.777C154.418 210.777 154.108 210.838 153.842 210.959C153.581 211.08 153.361 211.255 153.184 211.484C153.011 211.713 152.881 211.995 152.792 212.331C152.708 212.662 152.666 213.038 152.666 213.458C152.666 214.298 152.839 214.954 153.184 215.425C153.534 215.892 154.064 216.125 154.773 216.125ZM165.558 209.909V217H164.816C164.639 217 164.527 216.914 164.48 216.741L164.382 215.978C164.074 216.319 163.729 216.594 163.346 216.804C162.964 217.009 162.525 217.112 162.03 217.112C161.643 217.112 161.3 217.049 161.001 216.923C160.707 216.792 160.46 216.61 160.259 216.377C160.059 216.144 159.907 215.861 159.804 215.53C159.706 215.199 159.657 214.832 159.657 214.431V209.909H160.903V214.431C160.903 214.968 161.025 215.383 161.267 215.677C161.515 215.971 161.89 216.118 162.394 216.118C162.763 216.118 163.106 216.032 163.423 215.859C163.745 215.682 164.042 215.439 164.312 215.131V209.909H165.558ZM169.711 217.112C169.151 217.112 168.719 216.956 168.416 216.643C168.117 216.33 167.968 215.88 167.968 215.292V210.952H167.114C167.039 210.952 166.976 210.931 166.925 210.889C166.874 210.842 166.848 210.772 166.848 210.679V210.182L168.01 210.035L168.297 207.844C168.311 207.774 168.341 207.718 168.388 207.676C168.439 207.629 168.505 207.606 168.584 207.606H169.214V210.049H171.265V210.952H169.214V215.208C169.214 215.507 169.286 215.728 169.431 215.873C169.576 216.018 169.762 216.09 169.991 216.09C170.122 216.09 170.234 216.074 170.327 216.041C170.425 216.004 170.509 215.964 170.579 215.922C170.649 215.88 170.707 215.843 170.754 215.81C170.805 215.773 170.85 215.754 170.887 215.754C170.952 215.754 171.011 215.794 171.062 215.873L171.426 216.468C171.211 216.669 170.952 216.827 170.649 216.944C170.346 217.056 170.033 217.112 169.711 217.112ZM172.341 216.23C172.341 216.109 172.362 215.994 172.404 215.887C172.451 215.78 172.512 215.686 172.586 215.607C172.666 215.528 172.759 215.465 172.866 215.418C172.974 215.371 173.088 215.348 173.209 215.348C173.331 215.348 173.445 215.371 173.552 215.418C173.66 215.465 173.753 215.528 173.832 215.607C173.912 215.686 173.975 215.78 174.021 215.887C174.068 215.994 174.091 216.109 174.091 216.23C174.091 216.356 174.068 216.473 174.021 216.58C173.975 216.683 173.912 216.774 173.832 216.853C173.753 216.932 173.66 216.993 173.552 217.035C173.445 217.082 173.331 217.105 173.209 217.105C173.088 217.105 172.974 217.082 172.866 217.035C172.759 216.993 172.666 216.932 172.586 216.853C172.512 216.774 172.451 216.683 172.404 216.58C172.362 216.473 172.341 216.356 172.341 216.23Z" fill="#40424F"/>
<g filter="url(#filter0_d_1660_6559)">
<circle cx="152" cy="59" r="51" fill="white"/>
<circle cx="152" cy="59" r="50" stroke="#86AA16" stroke-width="2"/>
</g>
<path d="M137.75 55H130.25C128.938 55 128 56.0312 128 57.25V79.75C128 81.0625 128.938 82 130.25 82H137.75C138.969 82 140 81.0625 140 79.75V57.25C140 56.0312 138.969 55 137.75 55ZM134 78.25C132.688 78.25 131.75 77.3125 131.75 76C131.75 74.7812 132.688 73.75 134 73.75C135.219 73.75 136.25 74.7812 136.25 76C136.25 77.3125 135.219 78.25 134 78.25ZM164 41.6875C164 34.75 159.5 34 157.25 34C155.281 34 154.438 37.75 154.062 39.4375C153.5 41.5 153.031 43.5625 151.625 44.9688C148.625 48.0625 147.031 51.9062 143.281 55.5625C143.094 55.8438 143 56.125 143 56.4062V76.4688C143 77.0312 143.469 77.5 144.031 77.5938C145.531 77.5938 147.5 78.4375 149 79.0938C152 80.4062 155.656 82 160.156 82H160.438C164.469 82 169.25 82 171.125 79.2812C171.969 78.1562 172.156 76.75 171.688 75.0625C173.281 73.4688 174.031 70.4688 173.281 68.0312C174.875 65.875 175.062 62.7812 174.125 60.625C175.25 59.5 176 57.7188 175.906 56.0312C175.906 53.125 173.469 50.5 170.375 50.5H160.812C161.562 47.875 164 45.625 164 41.6875Z" fill="#86AA16"/>
<rect width="94" height="37" transform="translate(56 254)" fill="#86AA16"/>
<path d="M92.9543 276.922C93.3417 276.922 93.6753 276.878 93.9553 276.789C94.2353 276.7 94.464 276.577 94.6413 276.418C94.8233 276.255 94.9563 276.063 95.0403 275.844C95.1243 275.62 95.1663 275.375 95.1663 275.109C95.1663 274.591 94.982 274.183 94.6133 273.884C94.2447 273.581 93.6917 273.429 92.9543 273.429H90.7843V276.922H92.9543ZM90.7843 269.04V272.463H92.5763C92.959 272.463 93.2903 272.421 93.5703 272.337C93.855 272.253 94.0883 272.136 94.2703 271.987C94.457 271.838 94.5947 271.658 94.6833 271.448C94.772 271.233 94.8163 271 94.8163 270.748C94.8163 270.155 94.639 269.724 94.2843 269.453C93.9297 269.178 93.379 269.04 92.6323 269.04H90.7843ZM92.6323 267.969C93.2483 267.969 93.778 268.03 94.2213 268.151C94.6693 268.272 95.0357 268.445 95.3203 268.669C95.6097 268.893 95.822 269.168 95.9573 269.495C96.0927 269.817 96.1603 270.181 96.1603 270.587C96.1603 270.834 96.1207 271.072 96.0413 271.301C95.9667 271.525 95.8523 271.735 95.6983 271.931C95.5443 272.127 95.3483 272.304 95.1103 272.463C94.877 272.617 94.6017 272.743 94.2843 272.841C95.0217 272.981 95.5747 273.245 95.9433 273.632C96.3167 274.015 96.5033 274.519 96.5033 275.144C96.5033 275.569 96.424 275.956 96.2653 276.306C96.1113 276.656 95.8827 276.957 95.5793 277.209C95.2807 277.461 94.912 277.657 94.4733 277.797C94.0347 277.932 93.5353 278 92.9753 278H89.4333V267.969H92.6323ZM101.924 274.808C101.35 274.827 100.86 274.873 100.454 274.948C100.052 275.018 99.7234 275.111 99.4668 275.228C99.2148 275.345 99.0304 275.482 98.9138 275.641C98.8018 275.8 98.7458 275.977 98.7458 276.173C98.7458 276.36 98.7761 276.521 98.8368 276.656C98.8974 276.791 98.9791 276.903 99.0818 276.992C99.1891 277.076 99.3128 277.139 99.4528 277.181C99.5974 277.218 99.7514 277.237 99.9148 277.237C100.134 277.237 100.335 277.216 100.517 277.174C100.699 277.127 100.869 277.062 101.028 276.978C101.191 276.894 101.345 276.794 101.49 276.677C101.639 276.56 101.784 276.427 101.924 276.278V274.808ZM97.8988 271.91C98.2908 271.532 98.7131 271.25 99.1658 271.063C99.6184 270.876 100.12 270.783 100.671 270.783C101.067 270.783 101.42 270.848 101.728 270.979C102.036 271.11 102.295 271.292 102.505 271.525C102.715 271.758 102.873 272.041 102.981 272.372C103.088 272.703 103.142 273.067 103.142 273.464V278H102.589C102.467 278 102.374 277.981 102.309 277.944C102.243 277.902 102.192 277.823 102.155 277.706L102.015 277.034C101.828 277.207 101.646 277.361 101.469 277.496C101.291 277.627 101.105 277.739 100.909 277.832C100.713 277.921 100.503 277.988 100.279 278.035C100.059 278.086 99.8144 278.112 99.5438 278.112C99.2684 278.112 99.0094 278.075 98.7668 278C98.5241 277.921 98.3118 277.804 98.1298 277.65C97.9524 277.496 97.8101 277.302 97.7028 277.069C97.6001 276.831 97.5488 276.551 97.5488 276.229C97.5488 275.949 97.6258 275.681 97.7798 275.424C97.9338 275.163 98.1834 274.932 98.5288 274.731C98.8741 274.53 99.3244 274.367 99.8798 274.241C100.435 274.11 101.116 274.036 101.924 274.017V273.464C101.924 272.913 101.805 272.498 101.567 272.218C101.329 271.933 100.981 271.791 100.524 271.791C100.216 271.791 99.9568 271.831 99.7468 271.91C99.5414 271.985 99.3618 272.071 99.2078 272.169C99.0584 272.262 98.9278 272.349 98.8158 272.428C98.7084 272.503 98.6011 272.54 98.4938 272.54C98.4098 272.54 98.3374 272.519 98.2768 272.477C98.2161 272.43 98.1648 272.374 98.1227 272.309L97.8988 271.91ZM109.975 272.169C109.937 272.22 109.9 272.26 109.863 272.288C109.825 272.316 109.774 272.33 109.709 272.33C109.639 272.33 109.562 272.302 109.478 272.246C109.394 272.185 109.289 272.12 109.163 272.05C109.041 271.98 108.89 271.917 108.708 271.861C108.53 271.8 108.311 271.77 108.05 271.77C107.7 271.77 107.392 271.833 107.126 271.959C106.86 272.08 106.636 272.258 106.454 272.491C106.276 272.724 106.141 273.007 106.048 273.338C105.959 273.669 105.915 274.04 105.915 274.451C105.915 274.88 105.964 275.263 106.062 275.599C106.16 275.93 106.297 276.21 106.475 276.439C106.657 276.663 106.874 276.836 107.126 276.957C107.382 277.074 107.669 277.132 107.987 277.132C108.29 277.132 108.54 277.097 108.736 277.027C108.932 276.952 109.093 276.871 109.219 276.782C109.349 276.693 109.457 276.614 109.541 276.544C109.629 276.469 109.716 276.432 109.8 276.432C109.902 276.432 109.982 276.472 110.038 276.551L110.388 277.006C110.234 277.197 110.059 277.361 109.863 277.496C109.667 277.631 109.454 277.746 109.226 277.839C109.002 277.928 108.766 277.993 108.519 278.035C108.271 278.077 108.019 278.098 107.763 278.098C107.319 278.098 106.906 278.016 106.524 277.853C106.146 277.69 105.817 277.454 105.537 277.146C105.257 276.833 105.037 276.451 104.879 275.998C104.72 275.545 104.641 275.03 104.641 274.451C104.641 273.924 104.713 273.436 104.858 272.988C105.007 272.54 105.222 272.155 105.502 271.833C105.786 271.506 106.134 271.252 106.545 271.07C106.96 270.888 107.436 270.797 107.973 270.797C108.472 270.797 108.911 270.879 109.289 271.042C109.671 271.201 110.01 271.427 110.304 271.721L109.975 272.169ZM112.978 267.689V273.758H113.3C113.394 273.758 113.471 273.746 113.531 273.723C113.597 273.695 113.664 273.641 113.734 273.562L115.974 271.161C116.04 271.082 116.107 271.021 116.177 270.979C116.252 270.932 116.35 270.909 116.471 270.909H117.598L114.987 273.688C114.861 273.847 114.726 273.97 114.581 274.059C114.665 274.115 114.74 274.18 114.805 274.255C114.875 274.325 114.941 274.407 115.001 274.5L117.773 278H116.66C116.553 278 116.46 277.984 116.38 277.951C116.306 277.914 116.24 277.848 116.184 277.755L113.853 274.85C113.783 274.752 113.713 274.689 113.643 274.661C113.578 274.628 113.475 274.612 113.335 274.612H112.978V278H111.725V267.689H112.978Z" fill="white"/>
<rect x="153" y="254" width="94" height="37" fill="#86AA16"/>
<path d="M173.284 269.11H170.036V278H168.685V269.11H165.43V267.969H173.284V269.11ZM174.116 272.33C174.34 271.845 174.616 271.467 174.942 271.196C175.269 270.921 175.668 270.783 176.139 270.783C176.289 270.783 176.431 270.799 176.566 270.832C176.706 270.865 176.83 270.916 176.937 270.986L176.846 271.917C176.818 272.034 176.748 272.092 176.636 272.092C176.571 272.092 176.475 272.078 176.349 272.05C176.223 272.022 176.081 272.008 175.922 272.008C175.698 272.008 175.498 272.041 175.32 272.106C175.148 272.171 174.991 272.269 174.851 272.4C174.716 272.526 174.592 272.685 174.48 272.876C174.373 273.063 174.275 273.277 174.186 273.52V278H172.933V270.909H173.647C173.783 270.909 173.876 270.935 173.927 270.986C173.979 271.037 174.014 271.126 174.032 271.252L174.116 272.33ZM181.767 274.808C181.193 274.827 180.703 274.873 180.297 274.948C179.895 275.018 179.566 275.111 179.31 275.228C179.058 275.345 178.873 275.482 178.757 275.641C178.645 275.8 178.589 275.977 178.589 276.173C178.589 276.36 178.619 276.521 178.68 276.656C178.74 276.791 178.822 276.903 178.925 276.992C179.032 277.076 179.156 277.139 179.296 277.181C179.44 277.218 179.594 277.237 179.758 277.237C179.977 277.237 180.178 277.216 180.36 277.174C180.542 277.127 180.712 277.062 180.871 276.978C181.034 276.894 181.188 276.794 181.333 276.677C181.482 276.56 181.627 276.427 181.767 276.278V274.808ZM177.742 271.91C178.134 271.532 178.556 271.25 179.009 271.063C179.461 270.876 179.963 270.783 180.514 270.783C180.91 270.783 181.263 270.848 181.571 270.979C181.879 271.11 182.138 271.292 182.348 271.525C182.558 271.758 182.716 272.041 182.824 272.372C182.931 272.703 182.985 273.067 182.985 273.464V278H182.432C182.31 278 182.217 277.981 182.152 277.944C182.086 277.902 182.035 277.823 181.998 277.706L181.858 277.034C181.671 277.207 181.489 277.361 181.312 277.496C181.134 277.627 180.948 277.739 180.752 277.832C180.556 277.921 180.346 277.988 180.122 278.035C179.902 278.086 179.657 278.112 179.387 278.112C179.111 278.112 178.852 278.075 178.61 278C178.367 277.921 178.155 277.804 177.973 277.65C177.795 277.496 177.653 277.302 177.546 277.069C177.443 276.831 177.392 276.551 177.392 276.229C177.392 275.949 177.469 275.681 177.623 275.424C177.777 275.163 178.026 274.932 178.372 274.731C178.717 274.53 179.167 274.367 179.723 274.241C180.278 274.11 180.959 274.036 181.767 274.017V273.464C181.767 272.913 181.648 272.498 181.41 272.218C181.172 271.933 180.824 271.791 180.367 271.791C180.059 271.791 179.8 271.831 179.59 271.91C179.384 271.985 179.205 272.071 179.051 272.169C178.901 272.262 178.771 272.349 178.659 272.428C178.551 272.503 178.444 272.54 178.337 272.54C178.253 272.54 178.18 272.519 178.12 272.477C178.059 272.43 178.008 272.374 177.966 272.309L177.742 271.91ZM186.059 271.938C186.213 271.765 186.376 271.609 186.549 271.469C186.721 271.329 186.903 271.21 187.095 271.112C187.291 271.009 187.496 270.932 187.711 270.881C187.93 270.825 188.166 270.797 188.418 270.797C188.805 270.797 189.146 270.862 189.44 270.993C189.738 271.119 189.986 271.301 190.182 271.539C190.382 271.772 190.534 272.055 190.637 272.386C190.739 272.717 190.791 273.084 190.791 273.485V278H189.538V273.485C189.538 272.948 189.414 272.533 189.167 272.239C188.924 271.94 188.553 271.791 188.054 271.791C187.685 271.791 187.34 271.88 187.018 272.057C186.7 272.234 186.406 272.475 186.136 272.778V278H184.883V270.909H185.632C185.809 270.909 185.919 270.995 185.961 271.168L186.059 271.938ZM196.819 272.078C196.763 272.181 196.677 272.232 196.56 272.232C196.49 272.232 196.411 272.206 196.322 272.155C196.233 272.104 196.124 272.048 195.993 271.987C195.867 271.922 195.715 271.863 195.538 271.812C195.361 271.756 195.151 271.728 194.908 271.728C194.698 271.728 194.509 271.756 194.341 271.812C194.173 271.863 194.028 271.936 193.907 272.029C193.79 272.122 193.699 272.232 193.634 272.358C193.573 272.479 193.543 272.612 193.543 272.757C193.543 272.939 193.594 273.091 193.697 273.212C193.804 273.333 193.944 273.438 194.117 273.527C194.29 273.616 194.486 273.695 194.705 273.765C194.924 273.83 195.148 273.903 195.377 273.982C195.61 274.057 195.837 274.141 196.056 274.234C196.275 274.327 196.471 274.444 196.644 274.584C196.817 274.724 196.954 274.897 197.057 275.102C197.164 275.303 197.218 275.545 197.218 275.83C197.218 276.157 197.16 276.46 197.043 276.74C196.926 277.015 196.754 277.256 196.525 277.461C196.296 277.662 196.016 277.82 195.685 277.937C195.354 278.054 194.971 278.112 194.537 278.112C194.042 278.112 193.594 278.033 193.193 277.874C192.792 277.711 192.451 277.503 192.171 277.251L192.465 276.775C192.502 276.714 192.547 276.668 192.598 276.635C192.649 276.602 192.715 276.586 192.794 276.586C192.878 276.586 192.967 276.619 193.06 276.684C193.153 276.749 193.265 276.822 193.396 276.901C193.531 276.98 193.695 277.053 193.886 277.118C194.077 277.183 194.315 277.216 194.6 277.216C194.843 277.216 195.055 277.186 195.237 277.125C195.419 277.06 195.571 276.973 195.692 276.866C195.813 276.759 195.902 276.635 195.958 276.495C196.019 276.355 196.049 276.206 196.049 276.047C196.049 275.851 195.995 275.69 195.888 275.564C195.785 275.433 195.648 275.324 195.475 275.235C195.302 275.142 195.104 275.062 194.88 274.997C194.661 274.927 194.434 274.855 194.201 274.78C193.972 274.705 193.746 274.621 193.522 274.528C193.303 274.43 193.107 274.309 192.934 274.164C192.761 274.019 192.621 273.842 192.514 273.632C192.411 273.417 192.36 273.158 192.36 272.855C192.36 272.584 192.416 272.325 192.528 272.078C192.64 271.826 192.803 271.607 193.018 271.42C193.233 271.229 193.496 271.077 193.809 270.965C194.122 270.853 194.479 270.797 194.88 270.797C195.347 270.797 195.764 270.872 196.133 271.021C196.506 271.166 196.828 271.366 197.099 271.623L196.819 272.078ZM202.589 274.808C202.015 274.827 201.525 274.873 201.119 274.948C200.717 275.018 200.388 275.111 200.132 275.228C199.88 275.345 199.695 275.482 199.579 275.641C199.467 275.8 199.411 275.977 199.411 276.173C199.411 276.36 199.441 276.521 199.502 276.656C199.562 276.791 199.644 276.903 199.747 276.992C199.854 277.076 199.978 277.139 200.118 277.181C200.262 277.218 200.416 277.237 200.58 277.237C200.799 277.237 201 277.216 201.182 277.174C201.364 277.127 201.534 277.062 201.693 276.978C201.856 276.894 202.01 276.794 202.155 276.677C202.304 276.56 202.449 276.427 202.589 276.278V274.808ZM198.564 271.91C198.956 271.532 199.378 271.25 199.831 271.063C200.283 270.876 200.785 270.783 201.336 270.783C201.732 270.783 202.085 270.848 202.393 270.979C202.701 271.11 202.96 271.292 203.17 271.525C203.38 271.758 203.538 272.041 203.646 272.372C203.753 272.703 203.807 273.067 203.807 273.464V278H203.254C203.132 278 203.039 277.981 202.974 277.944C202.908 277.902 202.857 277.823 202.82 277.706L202.68 277.034C202.493 277.207 202.311 277.361 202.134 277.496C201.956 277.627 201.77 277.739 201.574 277.832C201.378 277.921 201.168 277.988 200.944 278.035C200.724 278.086 200.479 278.112 200.209 278.112C199.933 278.112 199.674 278.075 199.432 278C199.189 277.921 198.977 277.804 198.795 277.65C198.617 277.496 198.475 277.302 198.368 277.069C198.265 276.831 198.214 276.551 198.214 276.229C198.214 275.949 198.291 275.681 198.445 275.424C198.599 275.163 198.848 274.932 199.194 274.731C199.539 274.53 199.989 274.367 200.545 274.241C201.1 274.11 201.781 274.036 202.589 274.017V273.464C202.589 272.913 202.47 272.498 202.232 272.218C201.994 271.933 201.646 271.791 201.189 271.791C200.881 271.791 200.622 271.831 200.412 271.91C200.206 271.985 200.027 272.071 199.873 272.169C199.723 272.262 199.593 272.349 199.481 272.428C199.373 272.503 199.266 272.54 199.159 272.54C199.075 272.54 199.002 272.519 198.942 272.477C198.881 272.43 198.83 272.374 198.788 272.309L198.564 271.91ZM210.64 272.169C210.602 272.22 210.565 272.26 210.528 272.288C210.49 272.316 210.439 272.33 210.374 272.33C210.304 272.33 210.227 272.302 210.143 272.246C210.059 272.185 209.954 272.12 209.828 272.05C209.706 271.98 209.555 271.917 209.373 271.861C209.195 271.8 208.976 271.77 208.715 271.77C208.365 271.77 208.057 271.833 207.791 271.959C207.525 272.08 207.301 272.258 207.119 272.491C206.941 272.724 206.806 273.007 206.713 273.338C206.624 273.669 206.58 274.04 206.58 274.451C206.58 274.88 206.629 275.263 206.727 275.599C206.825 275.93 206.962 276.21 207.14 276.439C207.322 276.663 207.539 276.836 207.791 276.957C208.047 277.074 208.334 277.132 208.652 277.132C208.955 277.132 209.205 277.097 209.401 277.027C209.597 276.952 209.758 276.871 209.884 276.782C210.014 276.693 210.122 276.614 210.206 276.544C210.294 276.469 210.381 276.432 210.465 276.432C210.567 276.432 210.647 276.472 210.703 276.551L211.053 277.006C210.899 277.197 210.724 277.361 210.528 277.496C210.332 277.631 210.119 277.746 209.891 277.839C209.667 277.928 209.431 277.993 209.184 278.035C208.936 278.077 208.684 278.098 208.428 278.098C207.984 278.098 207.571 278.016 207.189 277.853C206.811 277.69 206.482 277.454 206.202 277.146C205.922 276.833 205.702 276.451 205.544 275.998C205.385 275.545 205.306 275.03 205.306 274.451C205.306 273.924 205.378 273.436 205.523 272.988C205.672 272.54 205.887 272.155 206.167 271.833C206.451 271.506 206.799 271.252 207.21 271.07C207.625 270.888 208.101 270.797 208.638 270.797C209.137 270.797 209.576 270.879 209.954 271.042C210.336 271.201 210.675 271.427 210.969 271.721L210.64 272.169ZM218.97 278H217.724V271.952H214.07V276.208C214.07 276.507 214.143 276.728 214.287 276.873C214.432 277.018 214.619 277.09 214.847 277.09C214.978 277.09 215.09 277.074 215.183 277.041C215.281 277.004 215.365 276.964 215.435 276.922C215.505 276.88 215.564 276.843 215.61 276.81C215.662 276.773 215.706 276.754 215.743 276.754C215.809 276.754 215.867 276.794 215.918 276.873L216.282 277.468C216.068 277.669 215.809 277.827 215.505 277.944C215.202 278.056 214.889 278.112 214.567 278.112C214.007 278.112 213.576 277.956 213.272 277.643C212.974 277.33 212.824 276.88 212.824 276.292V271.952H211.97C211.896 271.952 211.833 271.931 211.781 271.889C211.73 271.842 211.704 271.772 211.704 271.679V271.182L212.866 271.028L213.153 268.844C213.167 268.774 213.198 268.718 213.244 268.676C213.296 268.629 213.361 268.606 213.44 268.606H214.07V271.049H218.97V278ZM219.278 268.634C219.278 268.755 219.253 268.87 219.201 268.977C219.155 269.08 219.089 269.171 219.005 269.25C218.926 269.329 218.833 269.392 218.725 269.439C218.618 269.486 218.504 269.509 218.382 269.509C218.261 269.509 218.147 269.486 218.039 269.439C217.937 269.392 217.846 269.329 217.766 269.25C217.687 269.171 217.624 269.08 217.577 268.977C217.531 268.87 217.507 268.755 217.507 268.634C217.507 268.513 217.531 268.398 217.577 268.291C217.624 268.179 217.687 268.083 217.766 268.004C217.846 267.92 217.937 267.855 218.039 267.808C218.147 267.761 218.261 267.738 218.382 267.738C218.504 267.738 218.618 267.761 218.725 267.808C218.833 267.855 218.926 267.92 219.005 268.004C219.089 268.083 219.155 268.179 219.201 268.291C219.253 268.398 219.278 268.513 219.278 268.634ZM224.006 270.797C224.524 270.797 224.991 270.883 225.406 271.056C225.822 271.229 226.176 271.474 226.47 271.791C226.764 272.108 226.988 272.493 227.142 272.946C227.301 273.394 227.38 273.896 227.38 274.451C227.38 275.011 227.301 275.515 227.142 275.963C226.988 276.411 226.764 276.794 226.47 277.111C226.176 277.428 225.822 277.673 225.406 277.846C224.991 278.014 224.524 278.098 224.006 278.098C223.484 278.098 223.012 278.014 222.592 277.846C222.177 277.673 221.822 277.428 221.528 277.111C221.234 276.794 221.008 276.411 220.849 275.963C220.695 275.515 220.618 275.011 220.618 274.451C220.618 273.896 220.695 273.394 220.849 272.946C221.008 272.493 221.234 272.108 221.528 271.791C221.822 271.474 222.177 271.229 222.592 271.056C223.012 270.883 223.484 270.797 224.006 270.797ZM224.006 277.125C224.706 277.125 225.229 276.892 225.574 276.425C225.92 275.954 226.092 275.298 226.092 274.458C226.092 273.613 225.92 272.955 225.574 272.484C225.229 272.013 224.706 271.777 224.006 271.777C223.652 271.777 223.341 271.838 223.075 271.959C222.814 272.08 222.595 272.255 222.417 272.484C222.245 272.713 222.114 272.995 222.025 273.331C221.941 273.662 221.899 274.038 221.899 274.458C221.899 275.298 222.072 275.954 222.417 276.425C222.767 276.892 223.297 277.125 224.006 277.125ZM230.137 271.938C230.291 271.765 230.454 271.609 230.627 271.469C230.799 271.329 230.981 271.21 231.173 271.112C231.369 271.009 231.574 270.932 231.789 270.881C232.008 270.825 232.244 270.797 232.496 270.797C232.883 270.797 233.224 270.862 233.518 270.993C233.816 271.119 234.064 271.301 234.26 271.539C234.46 271.772 234.612 272.055 234.715 272.386C234.817 272.717 234.869 273.084 234.869 273.485V278H233.616V273.485C233.616 272.948 233.492 272.533 233.245 272.239C233.002 271.94 232.631 271.791 232.132 271.791C231.763 271.791 231.418 271.88 231.096 272.057C230.778 272.234 230.484 272.475 230.214 272.778V278H228.961V270.909H229.71C229.887 270.909 229.997 270.995 230.039 271.168L230.137 271.938Z" fill="white"/>
<defs>
<filter id="filter0_d_1660_6559" x="91" y="0" width="122" height="122" filterUnits="userSpaceOnUse" color-interpolation-filters="sRGB">
<feFlood flood-opacity="0" result="BackgroundImageFix"/>
<feColorMatrix in="SourceAlpha" type="matrix" values="0 0 0 0 0 0 0 0 0 0 0 0 0 0 0 0 0 0 127 0" result="hardAlpha"/>
<feOffset dy="2"/>
<feGaussianBlur stdDeviation="5"/>
<feColorMatrix type="matrix" values="0 0 0 0 0.027451 0 0 0 0 0.101961 0 0 0 0 0.321569 0 0 0 0.06 0"/>
<feBlend mode="normal" in2="BackgroundImageFix" result="effect1_dropShadow_1660_6559"/>
<feBlend mode="normal" in="SourceGraphic" in2="effect1_dropShadow_1660_6559" result="shape"/>
</filter>
</defs>
</svg>
