<svg width="318" height="143" viewBox="0 0 318 143" fill="none" xmlns="http://www.w3.org/2000/svg">
<path d="M0.5 2C0.5 1.17157 1.17157 0.5 2 0.5H316C316.828 0.5 317.5 1.17157 317.5 2V142.5H0.5V2Z" fill="white" stroke="#40424F"/>
<path d="M17.43 26L15.345 16.16H16.635L17.67 21.515C17.76 22.045 17.855 22.575 17.955 23.105C18.055 23.635 18.15 24.165 18.24 24.695H18.3C18.41 24.165 18.525 23.635 18.645 23.105C18.765 22.565 18.88 22.035 18.99 21.515L20.355 16.16H21.495L22.86 21.515C22.98 22.035 23.1 22.565 23.22 23.105C23.34 23.635 23.46 24.165 23.58 24.695H23.64C23.73 24.165 23.82 23.635 23.91 23.105C24 22.565 24.095 22.035 24.195 21.515L25.23 16.16H26.43L24.39 26H22.89L21.405 20.075C21.315 19.695 21.23 19.325 21.15 18.965C21.08 18.595 21.005 18.22 20.925 17.84H20.865C20.795 18.22 20.715 18.595 20.625 18.965C20.535 19.325 20.45 19.695 20.37 20.075L18.915 26H17.43ZM29.4676 26.18C28.8576 26.18 28.3476 26 27.9376 25.64C27.5376 25.27 27.3376 24.76 27.3376 24.11C27.3376 23.31 27.6926 22.7 28.4026 22.28C29.1226 21.85 30.2576 21.55 31.8076 21.38C31.8076 21.07 31.7626 20.775 31.6726 20.495C31.5926 20.215 31.4426 19.99 31.2226 19.82C31.0126 19.64 30.7076 19.55 30.3076 19.55C29.8876 19.55 29.4926 19.63 29.1226 19.79C28.7526 19.95 28.4226 20.13 28.1326 20.33L27.6526 19.475C27.9926 19.255 28.4076 19.045 28.8976 18.845C29.3976 18.635 29.9376 18.53 30.5176 18.53C31.4076 18.53 32.0526 18.805 32.4526 19.355C32.8526 19.895 33.0526 20.62 33.0526 21.53V26H32.0326L31.9276 25.13H31.8826C31.5426 25.41 31.1676 25.655 30.7576 25.865C30.3576 26.075 29.9276 26.18 29.4676 26.18ZM29.8276 25.19C30.1776 25.19 30.5076 25.105 30.8176 24.935C31.1276 24.765 31.4576 24.525 31.8076 24.215V22.19C30.5976 22.34 29.7476 22.565 29.2576 22.865C28.7776 23.165 28.5376 23.55 28.5376 24.02C28.5376 24.43 28.6626 24.73 28.9126 24.92C29.1626 25.1 29.4676 25.19 29.8276 25.19ZM36.6512 26.18C36.1912 26.18 35.8562 26.04 35.6462 25.76C35.4462 25.47 35.3462 25.06 35.3462 24.53V15.32H36.5762V24.62C36.5762 24.81 36.6112 24.95 36.6812 25.04C36.7512 25.12 36.8312 25.16 36.9212 25.16C36.9612 25.16 36.9962 25.16 37.0262 25.16C37.0662 25.15 37.1212 25.14 37.1912 25.13L37.3562 26.06C37.2762 26.1 37.1812 26.13 37.0712 26.15C36.9612 26.17 36.8212 26.18 36.6512 26.18ZM40.4745 26.18C40.0145 26.18 39.6795 26.04 39.4695 25.76C39.2695 25.47 39.1695 25.06 39.1695 24.53V15.32H40.3995V24.62C40.3995 24.81 40.4345 24.95 40.5045 25.04C40.5745 25.12 40.6545 25.16 40.7445 25.16C40.7845 25.16 40.8195 25.16 40.8495 25.16C40.8895 25.15 40.9445 25.14 41.0145 25.13L41.1795 26.06C41.0995 26.1 41.0045 26.13 40.8945 26.15C40.7845 26.17 40.6445 26.18 40.4745 26.18ZM45.9477 26.18C45.2977 26.18 44.7077 26.03 44.1777 25.73C43.6477 25.42 43.2277 24.98 42.9177 24.41C42.6077 23.84 42.4527 23.16 42.4527 22.37C42.4527 21.57 42.6077 20.885 42.9177 20.315C43.2377 19.745 43.6477 19.305 44.1477 18.995C44.6477 18.685 45.1727 18.53 45.7227 18.53C46.6527 18.53 47.3677 18.84 47.8677 19.46C48.3777 20.08 48.6327 20.91 48.6327 21.95C48.6327 22.08 48.6277 22.21 48.6177 22.34C48.6177 22.46 48.6077 22.565 48.5877 22.655H43.6677C43.7177 23.425 43.9577 24.04 44.3877 24.5C44.8277 24.96 45.3977 25.19 46.0977 25.19C46.4477 25.19 46.7677 25.14 47.0577 25.04C47.3577 24.93 47.6427 24.79 47.9127 24.62L48.3477 25.43C48.0377 25.63 47.6827 25.805 47.2827 25.955C46.8927 26.105 46.4477 26.18 45.9477 26.18ZM43.6527 21.77H47.5527C47.5527 21.03 47.3927 20.47 47.0727 20.09C46.7627 19.7 46.3227 19.505 45.7527 19.505C45.2427 19.505 44.7827 19.705 44.3727 20.105C43.9727 20.495 43.7327 21.05 43.6527 21.77ZM52.5826 26.18C51.8026 26.18 51.2576 25.955 50.9476 25.505C50.6476 25.055 50.4976 24.47 50.4976 23.75V19.715H49.4176V18.785L50.5576 18.71L50.7076 16.67H51.7426V18.71H53.7076V19.715H51.7426V23.765C51.7426 24.215 51.8226 24.565 51.9826 24.815C52.1526 25.055 52.4476 25.175 52.8676 25.175C52.9976 25.175 53.1376 25.155 53.2876 25.115C53.4376 25.065 53.5726 25.02 53.6926 24.98L53.9326 25.91C53.7326 25.98 53.5126 26.04 53.2726 26.09C53.0426 26.15 52.8126 26.18 52.5826 26.18ZM58.4789 26V16.16H59.7689L63.3239 22.34L64.3889 24.38H64.4489C64.4189 23.88 64.3839 23.365 64.3439 22.835C64.3139 22.295 64.2989 21.765 64.2989 21.245V16.16H65.4839V26H64.1939L60.6239 19.805L59.5589 17.78H59.4989C59.5389 18.27 59.5739 18.775 59.6039 19.295C59.6439 19.815 59.6639 20.335 59.6639 20.855V26H58.4789ZM70.9058 26.18C70.3158 26.18 69.7608 26.03 69.2408 25.73C68.7308 25.43 68.3158 24.995 67.9958 24.425C67.6858 23.855 67.5308 23.17 67.5308 22.37C67.5308 21.55 67.6858 20.855 67.9958 20.285C68.3158 19.715 68.7308 19.28 69.2408 18.98C69.7608 18.68 70.3158 18.53 70.9058 18.53C71.5058 18.53 72.0608 18.68 72.5708 18.98C73.0808 19.28 73.4908 19.715 73.8008 20.285C74.1208 20.855 74.2808 21.55 74.2808 22.37C74.2808 23.17 74.1208 23.855 73.8008 24.425C73.4908 24.995 73.0808 25.43 72.5708 25.73C72.0608 26.03 71.5058 26.18 70.9058 26.18ZM70.9058 25.16C71.5358 25.16 72.0408 24.905 72.4208 24.395C72.8108 23.875 73.0058 23.2 73.0058 22.37C73.0058 21.53 72.8108 20.85 72.4208 20.33C72.0408 19.81 71.5358 19.55 70.9058 19.55C70.2858 19.55 69.7808 19.81 69.3908 20.33C69.0008 20.85 68.8058 21.53 68.8058 22.37C68.8058 23.2 69.0008 23.875 69.3908 24.395C69.7808 24.905 70.2858 25.16 70.9058 25.16Z" fill="#40424F"/>
<path d="M18.045 46.495L17.58 47.995H20.535L20.07 46.495C19.89 45.945 19.72 45.4 19.56 44.86C19.4 44.31 19.24 43.75 19.08 43.18H19.02C18.87 43.75 18.715 44.31 18.555 44.86C18.395 45.4 18.225 45.945 18.045 46.495ZM15.045 52L18.375 42.16H19.785L23.115 52H21.78L20.85 49H17.265L16.32 52H15.045ZM27.2692 52.18C26.6292 52.18 26.0492 52.03 25.5292 51.73C25.0092 51.43 24.5992 50.995 24.2992 50.425C23.9992 49.855 23.8492 49.17 23.8492 48.37C23.8492 47.55 24.0092 46.855 24.3292 46.285C24.6592 45.715 25.0892 45.28 25.6192 44.98C26.1592 44.68 26.7392 44.53 27.3592 44.53C27.8392 44.53 28.2492 44.615 28.5892 44.785C28.9392 44.955 29.2392 45.155 29.4892 45.385L28.8592 46.195C28.6492 46.005 28.4242 45.85 28.1842 45.73C27.9542 45.61 27.6942 45.55 27.4042 45.55C26.9642 45.55 26.5692 45.67 26.2192 45.91C25.8792 46.14 25.6092 46.47 25.4092 46.9C25.2192 47.32 25.1242 47.81 25.1242 48.37C25.1242 49.2 25.3292 49.875 25.7392 50.395C26.1592 50.905 26.7042 51.16 27.3742 51.16C27.7142 51.16 28.0292 51.09 28.3192 50.95C28.6092 50.8 28.8642 50.625 29.0842 50.425L29.6242 51.25C29.2942 51.54 28.9292 51.77 28.5292 51.94C28.1292 52.1 27.7092 52.18 27.2692 52.18ZM33.7877 52.18C33.1477 52.18 32.5677 52.03 32.0477 51.73C31.5277 51.43 31.1177 50.995 30.8177 50.425C30.5177 49.855 30.3677 49.17 30.3677 48.37C30.3677 47.55 30.5277 46.855 30.8477 46.285C31.1777 45.715 31.6077 45.28 32.1377 44.98C32.6777 44.68 33.2577 44.53 33.8777 44.53C34.3577 44.53 34.7677 44.615 35.1077 44.785C35.4577 44.955 35.7577 45.155 36.0077 45.385L35.3777 46.195C35.1677 46.005 34.9427 45.85 34.7027 45.73C34.4727 45.61 34.2127 45.55 33.9227 45.55C33.4827 45.55 33.0877 45.67 32.7377 45.91C32.3977 46.14 32.1277 46.47 31.9277 46.9C31.7377 47.32 31.6427 47.81 31.6427 48.37C31.6427 49.2 31.8477 49.875 32.2577 50.395C32.6777 50.905 33.2227 51.16 33.8927 51.16C34.2327 51.16 34.5477 51.09 34.8377 50.95C35.1277 50.8 35.3827 50.625 35.6027 50.425L36.1427 51.25C35.8127 51.54 35.4477 51.77 35.0477 51.94C34.6477 52.1 34.2277 52.18 33.7877 52.18ZM40.2613 52.18C39.6713 52.18 39.1163 52.03 38.5963 51.73C38.0863 51.43 37.6713 50.995 37.3513 50.425C37.0413 49.855 36.8863 49.17 36.8863 48.37C36.8863 47.55 37.0413 46.855 37.3513 46.285C37.6713 45.715 38.0863 45.28 38.5963 44.98C39.1163 44.68 39.6713 44.53 40.2613 44.53C40.8613 44.53 41.4163 44.68 41.9263 44.98C42.4363 45.28 42.8463 45.715 43.1563 46.285C43.4763 46.855 43.6363 47.55 43.6363 48.37C43.6363 49.17 43.4763 49.855 43.1563 50.425C42.8463 50.995 42.4363 51.43 41.9263 51.73C41.4163 52.03 40.8613 52.18 40.2613 52.18ZM40.2613 51.16C40.8913 51.16 41.3963 50.905 41.7763 50.395C42.1663 49.875 42.3613 49.2 42.3613 48.37C42.3613 47.53 42.1663 46.85 41.7763 46.33C41.3963 45.81 40.8913 45.55 40.2613 45.55C39.6413 45.55 39.1363 45.81 38.7463 46.33C38.3563 46.85 38.1613 47.53 38.1613 48.37C38.1613 49.2 38.3563 49.875 38.7463 50.395C39.1363 50.905 39.6413 51.16 40.2613 51.16ZM47.6862 52.18C46.9162 52.18 46.3512 51.94 45.9912 51.46C45.6312 50.97 45.4512 50.26 45.4512 49.33V44.71H46.6962V49.165C46.6962 49.845 46.8012 50.34 47.0112 50.65C47.2312 50.96 47.5812 51.115 48.0612 51.115C48.4412 51.115 48.7762 51.02 49.0662 50.83C49.3662 50.63 49.6862 50.315 50.0262 49.885V44.71H51.2562V52H50.2362L50.1312 50.86H50.0862C49.7462 51.26 49.3862 51.58 49.0062 51.82C48.6262 52.06 48.1862 52.18 47.6862 52.18ZM53.7154 52V44.71H54.7354L54.8404 45.76H54.8854C55.2354 45.41 55.6054 45.12 55.9954 44.89C56.3854 44.65 56.8304 44.53 57.3304 44.53C58.1004 44.53 58.6604 44.775 59.0104 45.265C59.3704 45.745 59.5504 46.45 59.5504 47.38V52H58.3204V47.545C58.3204 46.865 58.2104 46.37 57.9904 46.06C57.7704 45.75 57.4204 45.595 56.9404 45.595C56.5704 45.595 56.2354 45.69 55.9354 45.88C55.6454 46.07 55.3154 46.35 54.9454 46.72V52H53.7154ZM64.2135 52.18C63.4335 52.18 62.8885 51.955 62.5785 51.505C62.2785 51.055 62.1285 50.47 62.1285 49.75V45.715H61.0485V44.785L62.1885 44.71L62.3385 42.67H63.3735V44.71H65.3385V45.715H63.3735V49.765C63.3735 50.215 63.4535 50.565 63.6135 50.815C63.7835 51.055 64.0785 51.175 64.4985 51.175C64.6285 51.175 64.7685 51.155 64.9185 51.115C65.0685 51.065 65.2035 51.02 65.3235 50.98L65.5635 51.91C65.3635 51.98 65.1435 52.04 64.9035 52.09C64.6735 52.15 64.4435 52.18 64.2135 52.18ZM67.8268 47.05C67.5168 47.05 67.2518 46.94 67.0318 46.72C66.8118 46.5 66.7018 46.22 66.7018 45.88C66.7018 45.54 66.8118 45.26 67.0318 45.04C67.2518 44.82 67.5168 44.71 67.8268 44.71C68.1468 44.71 68.4118 44.82 68.6218 45.04C68.8318 45.26 68.9368 45.54 68.9368 45.88C68.9368 46.22 68.8318 46.5 68.6218 46.72C68.4118 46.94 68.1468 47.05 67.8268 47.05ZM67.8268 52.18C67.5168 52.18 67.2518 52.07 67.0318 51.85C66.8118 51.63 66.7018 51.35 66.7018 51.01C66.7018 50.67 66.8118 50.39 67.0318 50.17C67.2518 49.95 67.5168 49.84 67.8268 49.84C68.1468 49.84 68.4118 49.95 68.6218 50.17C68.8318 50.39 68.9368 50.67 68.9368 51.01C68.9368 51.35 68.8318 51.63 68.6218 51.85C68.4118 52.07 68.1468 52.18 67.8268 52.18ZM74.8706 48.205H77.3756V46.045C77.3756 45.765 77.3856 45.435 77.4056 45.055C77.4256 44.675 77.4406 44.345 77.4506 44.065H77.3906C77.2706 44.315 77.1456 44.56 77.0156 44.8C76.8856 45.04 76.7506 45.29 76.6106 45.55L74.8706 48.205ZM77.3756 52V49.54H73.1606V48.37L76.9406 42.46H78.9956V48.205H80.1956V49.54H78.9956V52H77.3756ZM84.1961 52.18C83.4261 52.18 82.7761 52.05 82.2461 51.79C81.7261 51.52 81.2911 51.21 80.9411 50.86L81.7361 49.75C82.0261 50.02 82.3511 50.26 82.7111 50.47C83.0711 50.67 83.4911 50.77 83.9711 50.77C84.5011 50.77 84.9411 50.61 85.2911 50.29C85.6411 49.97 85.8161 49.52 85.8161 48.94C85.8161 48.37 85.6561 47.93 85.3361 47.62C85.0161 47.31 84.5911 47.155 84.0611 47.155C83.7511 47.155 83.4911 47.2 83.2811 47.29C83.0711 47.37 82.8211 47.505 82.5311 47.695L81.7061 47.17L81.9911 42.46H87.0911V43.915H83.4911L83.2961 46.225C83.4961 46.125 83.6911 46.05 83.8811 46C84.0811 45.94 84.3061 45.91 84.5561 45.91C85.1061 45.91 85.6061 46.015 86.0561 46.225C86.5061 46.435 86.8661 46.76 87.1361 47.2C87.4161 47.64 87.5561 48.205 87.5561 48.895C87.5561 49.585 87.3961 50.175 87.0761 50.665C86.7661 51.155 86.3561 51.53 85.8461 51.79C85.3361 52.05 84.7861 52.18 84.1961 52.18ZM92.1265 52.18C91.5065 52.18 90.9515 52.07 90.4615 51.85C89.9715 51.62 89.5865 51.31 89.3065 50.92C89.0265 50.53 88.8865 50.075 88.8865 49.555C88.8865 48.965 89.0615 48.47 89.4115 48.07C89.7615 47.67 90.1615 47.35 90.6115 47.11V47.05C90.2415 46.79 89.9265 46.48 89.6665 46.12C89.4165 45.75 89.2915 45.315 89.2915 44.815C89.2915 44.295 89.4165 43.85 89.6665 43.48C89.9165 43.1 90.2565 42.805 90.6865 42.595C91.1265 42.385 91.6215 42.28 92.1715 42.28C93.0315 42.28 93.7115 42.52 94.2115 43C94.7215 43.47 94.9765 44.09 94.9765 44.86C94.9765 45.33 94.8415 45.755 94.5715 46.135C94.3015 46.515 94.0115 46.82 93.7015 47.05V47.11C94.1415 47.36 94.5265 47.675 94.8565 48.055C95.1865 48.435 95.3515 48.945 95.3515 49.585C95.3515 50.075 95.2165 50.515 94.9465 50.905C94.6765 51.295 94.3015 51.605 93.8215 51.835C93.3415 52.065 92.7765 52.18 92.1265 52.18ZM92.7565 46.615C93.0165 46.355 93.2115 46.09 93.3415 45.82C93.4815 45.55 93.5515 45.265 93.5515 44.965C93.5515 44.545 93.4265 44.2 93.1765 43.93C92.9265 43.65 92.5815 43.51 92.1415 43.51C91.7715 43.51 91.4615 43.625 91.2115 43.855C90.9615 44.085 90.8365 44.405 90.8365 44.815C90.8365 45.135 90.9215 45.405 91.0915 45.625C91.2615 45.835 91.4915 46.02 91.7815 46.18C92.0815 46.33 92.4065 46.475 92.7565 46.615ZM92.1565 50.95C92.6165 50.95 92.9915 50.825 93.2815 50.575C93.5815 50.315 93.7315 49.965 93.7315 49.525C93.7315 49.175 93.6265 48.89 93.4165 48.67C93.2165 48.45 92.9415 48.26 92.5915 48.1C92.2515 47.93 91.8665 47.76 91.4365 47.59C91.1365 47.81 90.8865 48.07 90.6865 48.37C90.4965 48.67 90.4015 49.005 90.4015 49.375C90.4015 49.845 90.5715 50.225 90.9115 50.515C91.2515 50.805 91.6665 50.95 92.1565 50.95ZM98.4819 52C98.5419 50.87 98.6619 49.86 98.8419 48.97C99.0219 48.07 99.2969 47.215 99.6669 46.405C100.037 45.595 100.527 44.765 101.137 43.915H96.6219V42.46H103.027V43.51C102.467 44.2 102.012 44.86 101.662 45.49C101.322 46.12 101.052 46.76 100.852 47.41C100.662 48.05 100.522 48.745 100.432 49.495C100.342 50.235 100.277 51.07 100.237 52H98.4819ZM105.632 48.205H108.137V46.045C108.137 45.765 108.147 45.435 108.167 45.055C108.187 44.675 108.202 44.345 108.212 44.065H108.152C108.032 44.315 107.907 44.56 107.777 44.8C107.647 45.04 107.512 45.29 107.372 45.55L105.632 48.205ZM108.137 52V49.54H103.922V48.37L107.702 42.46H109.757V48.205H110.957V49.54H109.757V52H108.137ZM114.958 52.18C114.188 52.18 113.538 52.05 113.008 51.79C112.488 51.52 112.053 51.21 111.703 50.86L112.498 49.75C112.788 50.02 113.113 50.26 113.473 50.47C113.833 50.67 114.253 50.77 114.733 50.77C115.263 50.77 115.703 50.61 116.053 50.29C116.403 49.97 116.578 49.52 116.578 48.94C116.578 48.37 116.418 47.93 116.098 47.62C115.778 47.31 115.353 47.155 114.823 47.155C114.513 47.155 114.253 47.2 114.043 47.29C113.833 47.37 113.583 47.505 113.293 47.695L112.468 47.17L112.753 42.46H117.853V43.915H114.253L114.058 46.225C114.258 46.125 114.453 46.05 114.643 46C114.843 45.94 115.068 45.91 115.318 45.91C115.868 45.91 116.368 46.015 116.818 46.225C117.268 46.435 117.628 46.76 117.898 47.2C118.178 47.64 118.318 48.205 118.318 48.895C118.318 49.585 118.158 50.175 117.838 50.665C117.528 51.155 117.118 51.53 116.608 51.79C116.098 52.05 115.548 52.18 114.958 52.18ZM122.648 52.18C121.878 52.18 121.228 52.05 120.698 51.79C120.178 51.52 119.743 51.21 119.393 50.86L120.188 49.75C120.478 50.02 120.803 50.26 121.163 50.47C121.523 50.67 121.943 50.77 122.423 50.77C122.953 50.77 123.393 50.61 123.743 50.29C124.093 49.97 124.268 49.52 124.268 48.94C124.268 48.37 124.108 47.93 123.788 47.62C123.468 47.31 123.043 47.155 122.513 47.155C122.203 47.155 121.943 47.2 121.733 47.29C121.523 47.37 121.273 47.505 120.983 47.695L120.158 47.17L120.443 42.46H125.543V43.915H121.943L121.748 46.225C121.948 46.125 122.143 46.05 122.333 46C122.533 45.94 122.758 45.91 123.008 45.91C123.558 45.91 124.058 46.015 124.508 46.225C124.958 46.435 125.318 46.76 125.588 47.2C125.868 47.64 126.008 48.205 126.008 48.895C126.008 49.585 125.848 50.175 125.528 50.665C125.218 51.155 124.808 51.53 124.298 51.79C123.788 52.05 123.238 52.18 122.648 52.18ZM130.339 52.18C129.569 52.18 128.919 52.05 128.389 51.79C127.869 51.52 127.434 51.21 127.084 50.86L127.879 49.75C128.169 50.02 128.494 50.26 128.854 50.47C129.214 50.67 129.634 50.77 130.114 50.77C130.644 50.77 131.084 50.61 131.434 50.29C131.784 49.97 131.959 49.52 131.959 48.94C131.959 48.37 131.799 47.93 131.479 47.62C131.159 47.31 130.734 47.155 130.204 47.155C129.894 47.155 129.634 47.2 129.424 47.29C129.214 47.37 128.964 47.505 128.674 47.695L127.849 47.17L128.134 42.46H133.234V43.915H129.634L129.439 46.225C129.639 46.125 129.834 46.05 130.024 46C130.224 45.94 130.449 45.91 130.699 45.91C131.249 45.91 131.749 46.015 132.199 46.225C132.649 46.435 133.009 46.76 133.279 47.2C133.559 47.64 133.699 48.205 133.699 48.895C133.699 49.585 133.539 50.175 133.219 50.665C132.909 51.155 132.499 51.53 131.989 51.79C131.479 52.05 130.929 52.18 130.339 52.18ZM135.524 52V50.59H137.654V44.32H135.899V43.24C136.369 43.15 136.779 43.045 137.129 42.925C137.479 42.795 137.804 42.64 138.104 42.46H139.394V50.59H141.269V52H135.524ZM145.704 52.18C144.934 52.18 144.284 52.05 143.754 51.79C143.234 51.52 142.804 51.2 142.464 50.83L143.289 49.72C143.579 50.01 143.909 50.26 144.279 50.47C144.649 50.67 145.074 50.77 145.554 50.77C146.074 50.77 146.494 50.645 146.814 50.395C147.144 50.135 147.309 49.78 147.309 49.33C147.309 49 147.224 48.715 147.054 48.475C146.894 48.225 146.609 48.035 146.199 47.905C145.799 47.775 145.234 47.71 144.504 47.71V46.45C145.444 46.45 146.094 46.305 146.454 46.015C146.814 45.725 146.994 45.36 146.994 44.92C146.994 44.52 146.869 44.21 146.619 43.99C146.369 43.76 146.024 43.645 145.584 43.645C145.214 43.645 144.874 43.73 144.564 43.9C144.254 44.06 143.954 44.275 143.664 44.545L142.779 43.48C143.189 43.12 143.624 42.83 144.084 42.61C144.554 42.39 145.074 42.28 145.644 42.28C146.564 42.28 147.309 42.5 147.879 42.94C148.449 43.37 148.734 43.99 148.734 44.8C148.734 45.33 148.584 45.78 148.284 46.15C147.994 46.51 147.589 46.79 147.069 46.99V47.05C147.629 47.2 148.099 47.475 148.479 47.875C148.859 48.275 149.049 48.79 149.049 49.42C149.049 50 148.894 50.495 148.584 50.905C148.284 51.315 147.879 51.63 147.369 51.85C146.869 52.07 146.314 52.18 145.704 52.18ZM150.905 52V50.59H153.035V44.32H151.28V43.24C151.75 43.15 152.16 43.045 152.51 42.925C152.86 42.795 153.185 42.64 153.485 42.46H154.775V50.59H156.65V52H150.905ZM161.1 52.18C160.33 52.18 159.68 52.05 159.15 51.79C158.63 51.52 158.195 51.21 157.845 50.86L158.64 49.75C158.93 50.02 159.255 50.26 159.615 50.47C159.975 50.67 160.395 50.77 160.875 50.77C161.405 50.77 161.845 50.61 162.195 50.29C162.545 49.97 162.72 49.52 162.72 48.94C162.72 48.37 162.56 47.93 162.24 47.62C161.92 47.31 161.495 47.155 160.965 47.155C160.655 47.155 160.395 47.2 160.185 47.29C159.975 47.37 159.725 47.505 159.435 47.695L158.61 47.17L158.895 42.46H163.995V43.915H160.395L160.2 46.225C160.4 46.125 160.595 46.05 160.785 46C160.985 45.94 161.21 45.91 161.46 45.91C162.01 45.91 162.51 46.015 162.96 46.225C163.41 46.435 163.77 46.76 164.04 47.2C164.32 47.64 164.46 48.205 164.46 48.895C164.46 49.585 164.3 50.175 163.98 50.665C163.67 51.155 163.26 51.53 162.75 51.79C162.24 52.05 161.69 52.18 161.1 52.18ZM16.35 74V64.16H17.595V74H16.35ZM20.2904 74V64.16H25.9604V65.21H21.5354V68.54H25.2854V69.59H21.5354V74H20.2904ZM30.1396 74.18C29.4496 74.18 28.8096 74.05 28.2196 73.79C27.6296 73.52 27.1196 73.165 26.6896 72.725L27.4396 71.855C27.7896 72.225 28.1996 72.525 28.6696 72.755C29.1496 72.975 29.6446 73.085 30.1546 73.085C30.8046 73.085 31.3096 72.94 31.6696 72.65C32.0296 72.35 32.2096 71.96 32.2096 71.48C32.2096 71.14 32.1346 70.87 31.9846 70.67C31.8446 70.47 31.6496 70.3 31.3996 70.16C31.1596 70.02 30.8846 69.88 30.5746 69.74L29.1646 69.125C28.8546 68.995 28.5446 68.825 28.2346 68.615C27.9346 68.405 27.6796 68.135 27.4696 67.805C27.2696 67.475 27.1696 67.07 27.1696 66.59C27.1696 66.09 27.2996 65.645 27.5596 65.255C27.8296 64.855 28.1996 64.545 28.6696 64.325C29.1396 64.095 29.6696 63.98 30.2596 63.98C30.8496 63.98 31.3946 64.095 31.8946 64.325C32.3946 64.545 32.8196 64.835 33.1696 65.195L32.4946 66.005C32.1946 65.715 31.8596 65.49 31.4896 65.33C31.1296 65.16 30.7196 65.075 30.2596 65.075C29.7096 65.075 29.2646 65.205 28.9246 65.465C28.5946 65.725 28.4296 66.075 28.4296 66.515C28.4296 66.825 28.5096 67.085 28.6696 67.295C28.8396 67.495 29.0496 67.66 29.2996 67.79C29.5496 67.92 29.8046 68.04 30.0646 68.15L31.4596 68.75C31.8396 68.91 32.1796 69.105 32.4796 69.335C32.7896 69.555 33.0346 69.83 33.2146 70.16C33.3946 70.48 33.4846 70.885 33.4846 71.375C33.4846 71.895 33.3496 72.37 33.0796 72.8C32.8096 73.22 32.4246 73.555 31.9246 73.805C31.4246 74.055 30.8296 74.18 30.1396 74.18ZM39.1423 74.18C38.3223 74.18 37.5873 73.98 36.9373 73.58C36.2973 73.17 35.7873 72.585 35.4073 71.825C35.0373 71.065 34.8523 70.15 34.8523 69.08C34.8523 68.02 35.0423 67.11 35.4223 66.35C35.8023 65.59 36.3223 65.005 36.9823 64.595C37.6423 64.185 38.3873 63.98 39.2173 63.98C39.8173 63.98 40.3473 64.105 40.8073 64.355C41.2673 64.595 41.6373 64.875 41.9173 65.195L41.2423 66.005C40.9823 65.725 40.6873 65.5 40.3573 65.33C40.0273 65.16 39.6523 65.075 39.2323 65.075C38.6123 65.075 38.0673 65.24 37.5973 65.57C37.1373 65.89 36.7773 66.345 36.5173 66.935C36.2673 67.525 36.1423 68.23 36.1423 69.05C36.1423 69.87 36.2673 70.585 36.5173 71.195C36.7673 71.795 37.1173 72.26 37.5673 72.59C38.0273 72.92 38.5673 73.085 39.1873 73.085C39.6573 73.085 40.0773 72.985 40.4473 72.785C40.8173 72.585 41.1573 72.315 41.4673 71.975L42.1573 72.755C41.7673 73.205 41.3273 73.555 40.8373 73.805C40.3473 74.055 39.7823 74.18 39.1423 74.18ZM44.7116 69.05C44.4016 69.05 44.1366 68.94 43.9166 68.72C43.6966 68.5 43.5866 68.22 43.5866 67.88C43.5866 67.54 43.6966 67.26 43.9166 67.04C44.1366 66.82 44.4016 66.71 44.7116 66.71C45.0316 66.71 45.2966 66.82 45.5066 67.04C45.7166 67.26 45.8216 67.54 45.8216 67.88C45.8216 68.22 45.7166 68.5 45.5066 68.72C45.2966 68.94 45.0316 69.05 44.7116 69.05ZM44.7116 74.18C44.4016 74.18 44.1366 74.07 43.9166 73.85C43.6966 73.63 43.5866 73.35 43.5866 73.01C43.5866 72.67 43.6966 72.39 43.9166 72.17C44.1366 71.95 44.4016 71.84 44.7116 71.84C45.0316 71.84 45.2966 71.95 45.5066 72.17C45.7166 72.39 45.8216 72.67 45.8216 73.01C45.8216 73.35 45.7166 73.63 45.5066 73.85C45.2966 74.07 45.0316 74.18 44.7116 74.18ZM51.0204 74V64.19H52.7604V74H51.0204ZM55.2538 74V64.19H61.1788V65.66H56.9938V68.435H60.5638V69.905H56.9938V74H55.2538ZM65.3991 74.18C64.7391 74.18 64.0991 74.055 63.4791 73.805C62.8691 73.555 62.3291 73.2 61.8591 72.74L62.8791 71.555C63.2291 71.885 63.6291 72.155 64.0791 72.365C64.5291 72.565 64.9791 72.665 65.4291 72.665C65.9891 72.665 66.4141 72.55 66.7041 72.32C66.9941 72.09 67.1391 71.785 67.1391 71.405C67.1391 70.995 66.9941 70.7 66.7041 70.52C66.4241 70.34 66.0641 70.155 65.6241 69.965L64.2741 69.38C63.9541 69.24 63.6391 69.06 63.3291 68.84C63.0291 68.62 62.7791 68.34 62.5791 68C62.3891 67.66 62.2941 67.25 62.2941 66.77C62.2941 66.25 62.4341 65.785 62.7141 65.375C63.0041 64.955 63.3941 64.625 63.8841 64.385C64.3841 64.135 64.9541 64.01 65.5941 64.01C66.1641 64.01 66.7141 64.125 67.2441 64.355C67.7741 64.575 68.2291 64.875 68.6091 65.255L67.7241 66.365C67.4141 66.105 67.0841 65.9 66.7341 65.75C66.3941 65.6 66.0141 65.525 65.5941 65.525C65.1341 65.525 64.7591 65.63 64.4691 65.84C64.1891 66.04 64.0491 66.32 64.0491 66.68C64.0491 66.93 64.1191 67.14 64.2591 67.31C64.4091 67.47 64.6041 67.61 64.8441 67.73C65.0841 67.84 65.3391 67.95 65.6091 68.06L66.9441 68.615C67.5241 68.865 67.9991 69.195 68.3691 69.605C68.7391 70.005 68.9241 70.56 68.9241 71.27C68.9241 71.8 68.7841 72.285 68.5041 72.725C68.2241 73.165 67.8191 73.52 67.2891 73.79C66.7691 74.05 66.1391 74.18 65.3991 74.18ZM74.6229 74.18C73.8029 74.18 73.0579 73.985 72.3879 73.595C71.7179 73.205 71.1829 72.635 70.7829 71.885C70.3929 71.125 70.1979 70.205 70.1979 69.125C70.1979 68.055 70.3979 67.14 70.7979 66.38C71.2079 65.61 71.7529 65.025 72.4329 64.625C73.1129 64.215 73.8629 64.01 74.6829 64.01C75.3029 64.01 75.8529 64.135 76.3329 64.385C76.8129 64.635 77.2079 64.925 77.5179 65.255L76.5879 66.38C76.3379 66.12 76.0579 65.915 75.7479 65.765C75.4479 65.605 75.1079 65.525 74.7279 65.525C74.1979 65.525 73.7229 65.67 73.3029 65.96C72.8929 66.24 72.5679 66.645 72.3279 67.175C72.0979 67.705 71.9829 68.34 71.9829 69.08C71.9829 70.2 72.2279 71.08 72.7179 71.72C73.2079 72.35 73.8629 72.665 74.6829 72.665C75.1229 72.665 75.5129 72.575 75.8529 72.395C76.1929 72.205 76.5029 71.96 76.7829 71.66L77.7129 72.755C77.3129 73.215 76.8529 73.57 76.3329 73.82C75.8229 74.06 75.2529 74.18 74.6229 74.18ZM80.2505 67.4C80.2505 67.96 80.3805 68.385 80.6405 68.675C80.9105 68.965 81.2855 69.11 81.7655 69.11C82.0455 69.11 82.3355 69.025 82.6355 68.855C82.9455 68.675 83.2255 68.39 83.4755 68C83.3855 67.16 83.1805 66.55 82.8605 66.17C82.5405 65.79 82.1455 65.6 81.6755 65.6C81.2855 65.6 80.9505 65.755 80.6705 66.065C80.3905 66.375 80.2505 66.82 80.2505 67.4ZM81.3605 74.18C80.7905 74.18 80.2955 74.075 79.8755 73.865C79.4555 73.655 79.1005 73.4 78.8105 73.1L79.7405 72.05C79.9205 72.26 80.1455 72.435 80.4155 72.575C80.6955 72.705 80.9805 72.77 81.2705 72.77C81.6705 72.77 82.0355 72.66 82.3655 72.44C82.6955 72.22 82.9655 71.855 83.1755 71.345C83.3855 70.825 83.5005 70.125 83.5205 69.245C83.2405 69.585 82.9105 69.855 82.5305 70.055C82.1505 70.255 81.7855 70.355 81.4355 70.355C80.6155 70.355 79.9455 70.115 79.4255 69.635C78.9155 69.145 78.6605 68.4 78.6605 67.4C78.6605 66.76 78.7955 66.21 79.0655 65.75C79.3455 65.28 79.7105 64.92 80.1605 64.67C80.6205 64.41 81.1205 64.28 81.6605 64.28C82.2805 64.28 82.8505 64.445 83.3705 64.775C83.9005 65.105 84.3205 65.615 84.6305 66.305C84.9505 66.985 85.1105 67.86 85.1105 68.93C85.1105 70.16 84.9355 71.165 84.5855 71.945C84.2355 72.715 83.7755 73.28 83.2055 73.64C82.6355 74 82.0205 74.18 81.3605 74.18ZM87.9409 67.4C87.9409 67.96 88.0709 68.385 88.3309 68.675C88.6009 68.965 88.9759 69.11 89.4559 69.11C89.7359 69.11 90.0259 69.025 90.3259 68.855C90.6359 68.675 90.9159 68.39 91.1659 68C91.0759 67.16 90.8709 66.55 90.5509 66.17C90.2309 65.79 89.8359 65.6 89.3659 65.6C88.9759 65.6 88.6409 65.755 88.3609 66.065C88.0809 66.375 87.9409 66.82 87.9409 67.4ZM89.0509 74.18C88.4809 74.18 87.9859 74.075 87.5659 73.865C87.1459 73.655 86.7909 73.4 86.5009 73.1L87.4309 72.05C87.6109 72.26 87.8359 72.435 88.1059 72.575C88.3859 72.705 88.6709 72.77 88.9609 72.77C89.3609 72.77 89.7259 72.66 90.0559 72.44C90.3859 72.22 90.6559 71.855 90.8659 71.345C91.0759 70.825 91.1909 70.125 91.2109 69.245C90.9309 69.585 90.6009 69.855 90.2209 70.055C89.8409 70.255 89.4759 70.355 89.1259 70.355C88.3059 70.355 87.6359 70.115 87.1159 69.635C86.6059 69.145 86.3509 68.4 86.3509 67.4C86.3509 66.76 86.4859 66.21 86.7559 65.75C87.0359 65.28 87.4009 64.92 87.8509 64.67C88.3109 64.41 88.8109 64.28 89.3509 64.28C89.9709 64.28 90.5409 64.445 91.0609 64.775C91.5909 65.105 92.0109 65.615 92.3209 66.305C92.6409 66.985 92.8009 67.86 92.8009 68.93C92.8009 70.16 92.6259 71.165 92.2759 71.945C91.9259 72.715 91.4659 73.28 90.8959 73.64C90.3259 74 89.7109 74.18 89.0509 74.18ZM97.3263 74.18C96.3363 74.18 95.5463 73.75 94.9563 72.89C94.3763 72.03 94.0863 70.795 94.0863 69.185C94.0863 67.575 94.3763 66.355 94.9563 65.525C95.5463 64.695 96.3363 64.28 97.3263 64.28C98.3163 64.28 99.1013 64.695 99.6813 65.525C100.271 66.355 100.566 67.575 100.566 69.185C100.566 70.795 100.271 72.03 99.6813 72.89C99.1013 73.75 98.3163 74.18 97.3263 74.18ZM97.3263 72.83C97.6363 72.83 97.9113 72.715 98.1513 72.485C98.3913 72.245 98.5763 71.86 98.7063 71.33C98.8463 70.8 98.9163 70.085 98.9163 69.185C98.9163 68.285 98.8463 67.575 98.7063 67.055C98.5763 66.535 98.3913 66.17 98.1513 65.96C97.9113 65.74 97.6363 65.63 97.3263 65.63C97.0263 65.63 96.7563 65.74 96.5163 65.96C96.2763 66.17 96.0863 66.535 95.9463 67.055C95.8063 67.575 95.7363 68.285 95.7363 69.185C95.7363 70.085 95.8063 70.8 95.9463 71.33C96.0863 71.86 96.2763 72.245 96.5163 72.485C96.7563 72.715 97.0263 72.83 97.3263 72.83ZM105.017 74.18C104.027 74.18 103.237 73.75 102.647 72.89C102.067 72.03 101.777 70.795 101.777 69.185C101.777 67.575 102.067 66.355 102.647 65.525C103.237 64.695 104.027 64.28 105.017 64.28C106.007 64.28 106.792 64.695 107.372 65.525C107.962 66.355 108.257 67.575 108.257 69.185C108.257 70.795 107.962 72.03 107.372 72.89C106.792 73.75 106.007 74.18 105.017 74.18ZM105.017 72.83C105.327 72.83 105.602 72.715 105.842 72.485C106.082 72.245 106.267 71.86 106.397 71.33C106.537 70.8 106.607 70.085 106.607 69.185C106.607 68.285 106.537 67.575 106.397 67.055C106.267 66.535 106.082 66.17 105.842 65.96C105.602 65.74 105.327 65.63 105.017 65.63C104.717 65.63 104.447 65.74 104.207 65.96C103.967 66.17 103.777 66.535 103.637 67.055C103.497 67.575 103.427 68.285 103.427 69.185C103.427 70.085 103.497 70.8 103.637 71.33C103.777 71.86 103.967 72.245 104.207 72.485C104.447 72.715 104.717 72.83 105.017 72.83ZM112.482 74.18C111.712 74.18 111.062 74.05 110.532 73.79C110.012 73.52 109.577 73.21 109.227 72.86L110.022 71.75C110.312 72.02 110.637 72.26 110.997 72.47C111.357 72.67 111.777 72.77 112.257 72.77C112.787 72.77 113.227 72.61 113.577 72.29C113.927 71.97 114.102 71.52 114.102 70.94C114.102 70.37 113.942 69.93 113.622 69.62C113.302 69.31 112.877 69.155 112.347 69.155C112.037 69.155 111.777 69.2 111.567 69.29C111.357 69.37 111.107 69.505 110.817 69.695L109.992 69.17L110.277 64.46H115.377V65.915H111.777L111.582 68.225C111.782 68.125 111.977 68.05 112.167 68C112.367 67.94 112.592 67.91 112.842 67.91C113.392 67.91 113.892 68.015 114.342 68.225C114.792 68.435 115.152 68.76 115.422 69.2C115.702 69.64 115.842 70.205 115.842 70.895C115.842 71.585 115.682 72.175 115.362 72.665C115.052 73.155 114.642 73.53 114.132 73.79C113.622 74.05 113.072 74.18 112.482 74.18ZM117.128 74V72.995C118.018 72.135 118.783 71.37 119.423 70.7C120.073 70.02 120.573 69.405 120.923 68.855C121.273 68.295 121.448 67.775 121.448 67.295C121.448 66.795 121.313 66.395 121.043 66.095C120.773 65.795 120.383 65.645 119.873 65.645C119.503 65.645 119.163 65.75 118.853 65.96C118.553 66.17 118.273 66.42 118.013 66.71L117.053 65.75C117.493 65.28 117.948 64.92 118.418 64.67C118.888 64.41 119.448 64.28 120.098 64.28C121.018 64.28 121.748 64.545 122.288 65.075C122.838 65.605 123.113 66.315 123.113 67.205C123.113 67.765 122.953 68.34 122.633 68.93C122.323 69.51 121.903 70.105 121.373 70.715C120.853 71.325 120.278 71.965 119.648 72.635C119.898 72.615 120.168 72.595 120.458 72.575C120.748 72.545 121.008 72.53 121.238 72.53H123.578V74H117.128ZM127.848 74.18C127.078 74.18 126.428 74.05 125.898 73.79C125.378 73.52 124.948 73.2 124.608 72.83L125.433 71.72C125.723 72.01 126.053 72.26 126.423 72.47C126.793 72.67 127.218 72.77 127.698 72.77C128.218 72.77 128.638 72.645 128.958 72.395C129.288 72.135 129.453 71.78 129.453 71.33C129.453 71 129.368 70.715 129.198 70.475C129.038 70.225 128.753 70.035 128.343 69.905C127.943 69.775 127.378 69.71 126.648 69.71V68.45C127.588 68.45 128.238 68.305 128.598 68.015C128.958 67.725 129.138 67.36 129.138 66.92C129.138 66.52 129.013 66.21 128.763 65.99C128.513 65.76 128.168 65.645 127.728 65.645C127.358 65.645 127.018 65.73 126.708 65.9C126.398 66.06 126.098 66.275 125.808 66.545L124.923 65.48C125.333 65.12 125.768 64.83 126.228 64.61C126.698 64.39 127.218 64.28 127.788 64.28C128.708 64.28 129.453 64.5 130.023 64.94C130.593 65.37 130.878 65.99 130.878 66.8C130.878 67.33 130.728 67.78 130.428 68.15C130.138 68.51 129.733 68.79 129.213 68.99V69.05C129.773 69.2 130.243 69.475 130.623 69.875C131.003 70.275 131.193 70.79 131.193 71.42C131.193 72 131.038 72.495 130.728 72.905C130.428 73.315 130.023 73.63 129.513 73.85C129.013 74.07 128.458 74.18 127.848 74.18Z" fill="#40424F"/>
<path d="M18.045 94.495L17.58 95.995H20.535L20.07 94.495C19.89 93.945 19.72 93.4 19.56 92.86C19.4 92.31 19.24 91.75 19.08 91.18H19.02C18.87 91.75 18.715 92.31 18.555 92.86C18.395 93.4 18.225 93.945 18.045 94.495ZM15.045 100L18.375 90.16H19.785L23.115 100H21.78L20.85 97H17.265L16.32 100H15.045ZM27.2692 100.18C26.6292 100.18 26.0492 100.03 25.5292 99.73C25.0092 99.43 24.5992 98.995 24.2992 98.425C23.9992 97.855 23.8492 97.17 23.8492 96.37C23.8492 95.55 24.0092 94.855 24.3292 94.285C24.6592 93.715 25.0892 93.28 25.6192 92.98C26.1592 92.68 26.7392 92.53 27.3592 92.53C27.8392 92.53 28.2492 92.615 28.5892 92.785C28.9392 92.955 29.2392 93.155 29.4892 93.385L28.8592 94.195C28.6492 94.005 28.4242 93.85 28.1842 93.73C27.9542 93.61 27.6942 93.55 27.4042 93.55C26.9642 93.55 26.5692 93.67 26.2192 93.91C25.8792 94.14 25.6092 94.47 25.4092 94.9C25.2192 95.32 25.1242 95.81 25.1242 96.37C25.1242 97.2 25.3292 97.875 25.7392 98.395C26.1592 98.905 26.7042 99.16 27.3742 99.16C27.7142 99.16 28.0292 99.09 28.3192 98.95C28.6092 98.8 28.8642 98.625 29.0842 98.425L29.6242 99.25C29.2942 99.54 28.9292 99.77 28.5292 99.94C28.1292 100.1 27.7092 100.18 27.2692 100.18ZM33.7877 100.18C33.1477 100.18 32.5677 100.03 32.0477 99.73C31.5277 99.43 31.1177 98.995 30.8177 98.425C30.5177 97.855 30.3677 97.17 30.3677 96.37C30.3677 95.55 30.5277 94.855 30.8477 94.285C31.1777 93.715 31.6077 93.28 32.1377 92.98C32.6777 92.68 33.2577 92.53 33.8777 92.53C34.3577 92.53 34.7677 92.615 35.1077 92.785C35.4577 92.955 35.7577 93.155 36.0077 93.385L35.3777 94.195C35.1677 94.005 34.9427 93.85 34.7027 93.73C34.4727 93.61 34.2127 93.55 33.9227 93.55C33.4827 93.55 33.0877 93.67 32.7377 93.91C32.3977 94.14 32.1277 94.47 31.9277 94.9C31.7377 95.32 31.6427 95.81 31.6427 96.37C31.6427 97.2 31.8477 97.875 32.2577 98.395C32.6777 98.905 33.2227 99.16 33.8927 99.16C34.2327 99.16 34.5477 99.09 34.8377 98.95C35.1277 98.8 35.3827 98.625 35.6027 98.425L36.1427 99.25C35.8127 99.54 35.4477 99.77 35.0477 99.94C34.6477 100.1 34.2277 100.18 33.7877 100.18ZM40.2613 100.18C39.6713 100.18 39.1163 100.03 38.5963 99.73C38.0863 99.43 37.6713 98.995 37.3513 98.425C37.0413 97.855 36.8863 97.17 36.8863 96.37C36.8863 95.55 37.0413 94.855 37.3513 94.285C37.6713 93.715 38.0863 93.28 38.5963 92.98C39.1163 92.68 39.6713 92.53 40.2613 92.53C40.8613 92.53 41.4163 92.68 41.9263 92.98C42.4363 93.28 42.8463 93.715 43.1563 94.285C43.4763 94.855 43.6363 95.55 43.6363 96.37C43.6363 97.17 43.4763 97.855 43.1563 98.425C42.8463 98.995 42.4363 99.43 41.9263 99.73C41.4163 100.03 40.8613 100.18 40.2613 100.18ZM40.2613 99.16C40.8913 99.16 41.3963 98.905 41.7763 98.395C42.1663 97.875 42.3613 97.2 42.3613 96.37C42.3613 95.53 42.1663 94.85 41.7763 94.33C41.3963 93.81 40.8913 93.55 40.2613 93.55C39.6413 93.55 39.1363 93.81 38.7463 94.33C38.3563 94.85 38.1613 95.53 38.1613 96.37C38.1613 97.2 38.3563 97.875 38.7463 98.395C39.1363 98.905 39.6413 99.16 40.2613 99.16ZM47.6862 100.18C46.9162 100.18 46.3512 99.94 45.9912 99.46C45.6312 98.97 45.4512 98.26 45.4512 97.33V92.71H46.6962V97.165C46.6962 97.845 46.8012 98.34 47.0112 98.65C47.2312 98.96 47.5812 99.115 48.0612 99.115C48.4412 99.115 48.7762 99.02 49.0662 98.83C49.3662 98.63 49.6862 98.315 50.0262 97.885V92.71H51.2562V100H50.2362L50.1312 98.86H50.0862C49.7462 99.26 49.3862 99.58 49.0062 99.82C48.6262 100.06 48.1862 100.18 47.6862 100.18ZM53.7154 100V92.71H54.7354L54.8404 93.76H54.8854C55.2354 93.41 55.6054 93.12 55.9954 92.89C56.3854 92.65 56.8304 92.53 57.3304 92.53C58.1004 92.53 58.6604 92.775 59.0104 93.265C59.3704 93.745 59.5504 94.45 59.5504 95.38V100H58.3204V95.545C58.3204 94.865 58.2104 94.37 57.9904 94.06C57.7704 93.75 57.4204 93.595 56.9404 93.595C56.5704 93.595 56.2354 93.69 55.9354 93.88C55.6454 94.07 55.3154 94.35 54.9454 94.72V100H53.7154ZM64.2135 100.18C63.4335 100.18 62.8885 99.955 62.5785 99.505C62.2785 99.055 62.1285 98.47 62.1285 97.75V93.715H61.0485V92.785L62.1885 92.71L62.3385 90.67H63.3735V92.71H65.3385V93.715H63.3735V97.765C63.3735 98.215 63.4535 98.565 63.6135 98.815C63.7835 99.055 64.0785 99.175 64.4985 99.175C64.6285 99.175 64.7685 99.155 64.9185 99.115C65.0685 99.065 65.2035 99.02 65.3235 98.98L65.5635 99.91C65.3635 99.98 65.1435 100.04 64.9035 100.09C64.6735 100.15 64.4435 100.18 64.2135 100.18ZM70.1098 100V90.16H71.3998L74.9548 96.34L76.0198 98.38H76.0798C76.0498 97.88 76.0148 97.365 75.9748 96.835C75.9448 96.295 75.9298 95.765 75.9298 95.245V90.16H77.1148V100H75.8248L72.2548 93.805L71.1898 91.78H71.1298C71.1698 92.27 71.2048 92.775 71.2348 93.295C71.2748 93.815 71.2948 94.335 71.2948 94.855V100H70.1098ZM81.3817 100.18C80.7717 100.18 80.2617 100 79.8517 99.64C79.4517 99.27 79.2517 98.76 79.2517 98.11C79.2517 97.31 79.6067 96.7 80.3167 96.28C81.0367 95.85 82.1717 95.55 83.7217 95.38C83.7217 95.07 83.6767 94.775 83.5867 94.495C83.5067 94.215 83.3567 93.99 83.1367 93.82C82.9267 93.64 82.6217 93.55 82.2217 93.55C81.8017 93.55 81.4067 93.63 81.0367 93.79C80.6667 93.95 80.3367 94.13 80.0467 94.33L79.5667 93.475C79.9067 93.255 80.3217 93.045 80.8117 92.845C81.3117 92.635 81.8517 92.53 82.4317 92.53C83.3217 92.53 83.9667 92.805 84.3667 93.355C84.7667 93.895 84.9667 94.62 84.9667 95.53V100H83.9467L83.8417 99.13H83.7967C83.4567 99.41 83.0817 99.655 82.6717 99.865C82.2717 100.075 81.8417 100.18 81.3817 100.18ZM81.7417 99.19C82.0917 99.19 82.4217 99.105 82.7317 98.935C83.0417 98.765 83.3717 98.525 83.7217 98.215V96.19C82.5117 96.34 81.6617 96.565 81.1717 96.865C80.6917 97.165 80.4517 97.55 80.4517 98.02C80.4517 98.43 80.5767 98.73 80.8267 98.92C81.0767 99.1 81.3817 99.19 81.7417 99.19ZM87.2603 100V92.71H88.2803L88.3853 93.76H88.4303C88.7503 93.41 89.1003 93.12 89.4803 92.89C89.8603 92.65 90.2653 92.53 90.6953 92.53C91.2553 92.53 91.6903 92.655 92.0003 92.905C92.3203 93.145 92.5553 93.485 92.7053 93.925C93.0853 93.515 93.4703 93.18 93.8603 92.92C94.2503 92.66 94.6653 92.53 95.1053 92.53C95.8553 92.53 96.4103 92.775 96.7703 93.265C97.1403 93.745 97.3253 94.45 97.3253 95.38V100H96.0953V95.545C96.0953 94.865 95.9853 94.37 95.7653 94.06C95.5453 93.75 95.2053 93.595 94.7453 93.595C94.2053 93.595 93.5953 93.97 92.9153 94.72V100H91.6853V95.545C91.6853 94.865 91.5753 94.37 91.3553 94.06C91.1353 93.75 90.7903 93.595 90.3203 93.595C89.7803 93.595 89.1703 93.97 88.4903 94.72V100H87.2603ZM102.652 100.18C102.002 100.18 101.412 100.03 100.882 99.73C100.352 99.42 99.9318 98.98 99.6218 98.41C99.3118 97.84 99.1568 97.16 99.1568 96.37C99.1568 95.57 99.3118 94.885 99.6218 94.315C99.9418 93.745 100.352 93.305 100.852 92.995C101.352 92.685 101.877 92.53 102.427 92.53C103.357 92.53 104.072 92.84 104.572 93.46C105.082 94.08 105.337 94.91 105.337 95.95C105.337 96.08 105.332 96.21 105.322 96.34C105.322 96.46 105.312 96.565 105.292 96.655H100.372C100.422 97.425 100.662 98.04 101.092 98.5C101.532 98.96 102.102 99.19 102.802 99.19C103.152 99.19 103.472 99.14 103.762 99.04C104.062 98.93 104.347 98.79 104.617 98.62L105.052 99.43C104.742 99.63 104.387 99.805 103.987 99.955C103.597 100.105 103.152 100.18 102.652 100.18ZM100.357 95.77H104.257C104.257 95.03 104.097 94.47 103.777 94.09C103.467 93.7 103.027 93.505 102.457 93.505C101.947 93.505 101.487 93.705 101.077 94.105C100.677 94.495 100.437 95.05 100.357 95.77ZM107.783 94.765C107.533 94.765 107.318 94.68 107.138 94.51C106.968 94.33 106.883 94.105 106.883 93.835C106.883 93.545 106.968 93.315 107.138 93.145C107.318 92.965 107.533 92.875 107.783 92.875C108.023 92.875 108.228 92.965 108.398 93.145C108.578 93.315 108.668 93.545 108.668 93.835C108.668 94.105 108.578 94.33 108.398 94.51C108.228 94.68 108.023 94.765 107.783 94.765ZM107.783 100.18C107.533 100.18 107.318 100.095 107.138 99.925C106.968 99.745 106.883 99.52 106.883 99.25C106.883 98.96 106.968 98.73 107.138 98.56C107.318 98.38 107.533 98.29 107.783 98.29C108.023 98.29 108.228 98.38 108.398 98.56C108.578 98.73 108.668 98.96 108.668 99.25C108.668 99.52 108.578 99.745 108.398 99.925C108.228 100.095 108.023 100.18 107.783 100.18Z" fill="#40424F"/>
<path d="M16.35 126V116.16H19.275C19.945 116.16 20.53 116.24 21.03 116.4C21.54 116.56 21.935 116.815 22.215 117.165C22.505 117.515 22.65 117.98 22.65 118.56C22.65 119.05 22.525 119.495 22.275 119.895C22.035 120.285 21.68 120.555 21.21 120.705V120.765C21.8 120.875 22.28 121.125 22.65 121.515C23.03 121.905 23.22 122.44 23.22 123.12C23.22 123.76 23.06 124.295 22.74 124.725C22.43 125.155 21.995 125.475 21.435 125.685C20.875 125.895 20.225 126 19.485 126H16.35ZM17.595 120.345H19.05C19.89 120.345 20.495 120.2 20.865 119.91C21.235 119.62 21.42 119.225 21.42 118.725C21.42 118.155 21.225 117.75 20.835 117.51C20.455 117.27 19.88 117.15 19.11 117.15H17.595V120.345ZM17.595 125.01H19.305C20.155 125.01 20.815 124.855 21.285 124.545C21.755 124.225 21.99 123.735 21.99 123.075C21.99 122.465 21.755 122.02 21.285 121.74C20.825 121.45 20.165 121.305 19.305 121.305H17.595V125.01ZM26.7284 126.18C26.1184 126.18 25.6084 126 25.1984 125.64C24.7984 125.27 24.5984 124.76 24.5984 124.11C24.5984 123.31 24.9534 122.7 25.6634 122.28C26.3834 121.85 27.5184 121.55 29.0684 121.38C29.0684 121.07 29.0234 120.775 28.9334 120.495C28.8534 120.215 28.7034 119.99 28.4834 119.82C28.2734 119.64 27.9684 119.55 27.5684 119.55C27.1484 119.55 26.7534 119.63 26.3834 119.79C26.0134 119.95 25.6834 120.13 25.3934 120.33L24.9134 119.475C25.2534 119.255 25.6684 119.045 26.1584 118.845C26.6584 118.635 27.1984 118.53 27.7784 118.53C28.6684 118.53 29.3134 118.805 29.7134 119.355C30.1134 119.895 30.3134 120.62 30.3134 121.53V126H29.2934L29.1884 125.13H29.1434C28.8034 125.41 28.4284 125.655 28.0184 125.865C27.6184 126.075 27.1884 126.18 26.7284 126.18ZM27.0884 125.19C27.4384 125.19 27.7684 125.105 28.0784 124.935C28.3884 124.765 28.7184 124.525 29.0684 124.215V122.19C27.8584 122.34 27.0084 122.565 26.5184 122.865C26.0384 123.165 25.7984 123.55 25.7984 124.02C25.7984 124.43 25.9234 124.73 26.1734 124.92C26.4234 125.1 26.7284 125.19 27.0884 125.19ZM32.607 126V118.71H33.627L33.732 119.76H33.777C34.127 119.41 34.497 119.12 34.887 118.89C35.277 118.65 35.722 118.53 36.222 118.53C36.992 118.53 37.552 118.775 37.902 119.265C38.262 119.745 38.442 120.45 38.442 121.38V126H37.212V121.545C37.212 120.865 37.102 120.37 36.882 120.06C36.662 119.75 36.312 119.595 35.832 119.595C35.462 119.595 35.127 119.69 34.827 119.88C34.537 120.07 34.207 120.35 33.837 120.72V126H32.607ZM40.8101 126V115.32H42.0251V122.55H42.0701L45.1751 118.71H46.5401L44.0951 121.635L46.8701 126H45.5201L43.3901 122.49L42.0251 124.08V126H40.8101ZM51.3598 126V116.16H52.6498L56.2048 122.34L57.2698 124.38H57.3298C57.2998 123.88 57.2648 123.365 57.2248 122.835C57.1948 122.295 57.1798 121.765 57.1798 121.245V116.16H58.3648V126H57.0748L53.5048 119.805L52.4398 117.78H52.3798C52.4198 118.27 52.4548 118.775 52.4848 119.295C52.5248 119.815 52.5448 120.335 52.5448 120.855V126H51.3598ZM62.6317 126.18C62.0217 126.18 61.5117 126 61.1017 125.64C60.7017 125.27 60.5017 124.76 60.5017 124.11C60.5017 123.31 60.8567 122.7 61.5667 122.28C62.2867 121.85 63.4217 121.55 64.9717 121.38C64.9717 121.07 64.9267 120.775 64.8367 120.495C64.7567 120.215 64.6067 119.99 64.3867 119.82C64.1767 119.64 63.8717 119.55 63.4717 119.55C63.0517 119.55 62.6567 119.63 62.2867 119.79C61.9167 119.95 61.5867 120.13 61.2967 120.33L60.8167 119.475C61.1567 119.255 61.5717 119.045 62.0617 118.845C62.5617 118.635 63.1017 118.53 63.6817 118.53C64.5717 118.53 65.2167 118.805 65.6167 119.355C66.0167 119.895 66.2167 120.62 66.2167 121.53V126H65.1967L65.0917 125.13H65.0467C64.7067 125.41 64.3317 125.655 63.9217 125.865C63.5217 126.075 63.0917 126.18 62.6317 126.18ZM62.9917 125.19C63.3417 125.19 63.6717 125.105 63.9817 124.935C64.2917 124.765 64.6217 124.525 64.9717 124.215V122.19C63.7617 122.34 62.9117 122.565 62.4217 122.865C61.9417 123.165 61.7017 123.55 61.7017 124.02C61.7017 124.43 61.8267 124.73 62.0767 124.92C62.3267 125.1 62.6317 125.19 62.9917 125.19ZM68.5103 126V118.71H69.5303L69.6353 119.76H69.6803C70.0003 119.41 70.3503 119.12 70.7303 118.89C71.1103 118.65 71.5153 118.53 71.9453 118.53C72.5053 118.53 72.9403 118.655 73.2503 118.905C73.5703 119.145 73.8053 119.485 73.9553 119.925C74.3353 119.515 74.7203 119.18 75.1103 118.92C75.5003 118.66 75.9153 118.53 76.3553 118.53C77.1053 118.53 77.6603 118.775 78.0203 119.265C78.3903 119.745 78.5753 120.45 78.5753 121.38V126H77.3453V121.545C77.3453 120.865 77.2353 120.37 77.0153 120.06C76.7953 119.75 76.4553 119.595 75.9953 119.595C75.4553 119.595 74.8453 119.97 74.1653 120.72V126H72.9353V121.545C72.9353 120.865 72.8253 120.37 72.6053 120.06C72.3853 119.75 72.0403 119.595 71.5703 119.595C71.0303 119.595 70.4203 119.97 69.7403 120.72V126H68.5103ZM83.9018 126.18C83.2518 126.18 82.6618 126.03 82.1318 125.73C81.6018 125.42 81.1818 124.98 80.8718 124.41C80.5618 123.84 80.4068 123.16 80.4068 122.37C80.4068 121.57 80.5618 120.885 80.8718 120.315C81.1918 119.745 81.6018 119.305 82.1018 118.995C82.6018 118.685 83.1268 118.53 83.6768 118.53C84.6068 118.53 85.3218 118.84 85.8218 119.46C86.3318 120.08 86.5868 120.91 86.5868 121.95C86.5868 122.08 86.5818 122.21 86.5718 122.34C86.5718 122.46 86.5618 122.565 86.5418 122.655H81.6218C81.6718 123.425 81.9118 124.04 82.3418 124.5C82.7818 124.96 83.3518 125.19 84.0518 125.19C84.4018 125.19 84.7218 125.14 85.0118 125.04C85.3118 124.93 85.5968 124.79 85.8668 124.62L86.3018 125.43C85.9918 125.63 85.6368 125.805 85.2368 125.955C84.8468 126.105 84.4018 126.18 83.9018 126.18ZM81.6068 121.77H85.5068C85.5068 121.03 85.3468 120.47 85.0268 120.09C84.7168 119.7 84.2768 119.505 83.7068 119.505C83.1968 119.505 82.7368 119.705 82.3268 120.105C81.9268 120.495 81.6868 121.05 81.6068 121.77ZM89.0332 120.765C88.7832 120.765 88.5682 120.68 88.3882 120.51C88.2182 120.33 88.1332 120.105 88.1332 119.835C88.1332 119.545 88.2182 119.315 88.3882 119.145C88.5682 118.965 88.7832 118.875 89.0332 118.875C89.2732 118.875 89.4782 118.965 89.6482 119.145C89.8282 119.315 89.9182 119.545 89.9182 119.835C89.9182 120.105 89.8282 120.33 89.6482 120.51C89.4782 120.68 89.2732 120.765 89.0332 120.765ZM89.0332 126.18C88.7832 126.18 88.5682 126.095 88.3882 125.925C88.2182 125.745 88.1332 125.52 88.1332 125.25C88.1332 124.96 88.2182 124.73 88.3882 124.56C88.5682 124.38 88.7832 124.29 89.0332 124.29C89.2732 124.29 89.4782 124.38 89.6482 124.56C89.8282 124.73 89.9182 124.96 89.9182 125.25C89.9182 125.52 89.8282 125.745 89.6482 125.925C89.4782 126.095 89.2732 126.18 89.0332 126.18Z" fill="#40424F"/>
<path d="M115.138 100H116.878V96.4H118.438C120.553 96.4 122.173 95.395 122.173 93.22C122.173 90.94 120.583 90.19 118.438 90.19H115.138V100ZM116.878 95.005V91.585H118.303C119.728 91.585 120.463 91.99 120.463 93.22C120.463 94.42 119.758 95.005 118.303 95.005H116.878ZM123.865 100H125.59V95.5C126.04 94.39 126.745 93.985 127.33 93.985C127.645 93.985 127.84 94.03 128.095 94.105L128.395 92.605C128.17 92.5 127.93 92.455 127.555 92.455C126.775 92.455 125.995 92.98 125.47 93.94H125.41L125.29 92.635H123.865V100ZM128.735 98.02C128.735 99.31 129.635 100.18 130.925 100.18C131.795 100.18 132.545 99.745 133.205 99.19H133.25L133.385 100H134.795V95.635C134.795 93.58 133.895 92.455 132.05 92.455C130.88 92.455 129.845 92.905 129.035 93.415L129.665 94.57C130.31 94.18 131 93.85 131.735 93.85C132.725 93.85 133.055 94.51 133.07 95.29C130.055 95.62 128.735 96.445 128.735 98.02ZM130.415 97.885C130.415 97.15 131.075 96.625 133.07 96.37V98.02C132.53 98.53 132.065 98.83 131.465 98.83C130.85 98.83 130.415 98.545 130.415 97.885ZM136.167 99.16C136.887 99.745 137.952 100.18 138.957 100.18C140.817 100.18 141.822 99.16 141.822 97.9C141.822 96.52 140.712 96.04 139.707 95.665C138.912 95.38 138.177 95.155 138.177 94.57C138.177 94.105 138.522 93.76 139.257 93.76C139.842 93.76 140.367 94.015 140.877 94.39L141.672 93.34C141.072 92.875 140.247 92.455 139.227 92.455C137.577 92.455 136.542 93.37 136.542 94.66C136.542 95.89 137.637 96.445 138.612 96.805C139.392 97.105 140.187 97.375 140.187 97.99C140.187 98.5 139.812 98.875 139.017 98.875C138.267 98.875 137.637 98.56 136.977 98.05L136.167 99.16ZM143.047 98.02C143.047 99.31 143.947 100.18 145.237 100.18C146.107 100.18 146.857 99.745 147.517 99.19H147.562L147.697 100H149.107V95.635C149.107 93.58 148.207 92.455 146.362 92.455C145.192 92.455 144.157 92.905 143.347 93.415L143.977 94.57C144.622 94.18 145.312 93.85 146.047 93.85C147.037 93.85 147.367 94.51 147.382 95.29C144.367 95.62 143.047 96.445 143.047 98.02ZM144.727 97.885C144.727 97.15 145.387 96.625 147.382 96.37V98.02C146.842 98.53 146.377 98.83 145.777 98.83C145.162 98.83 144.727 98.545 144.727 97.885ZM150.763 96.325C150.763 98.755 151.948 100.18 153.793 100.18C154.588 100.18 155.338 99.745 155.878 99.205H155.938L156.058 100H157.483V89.41H155.758V92.08L155.818 93.265C155.248 92.77 154.723 92.455 153.883 92.455C152.278 92.455 150.763 93.925 150.763 96.325ZM152.548 96.31C152.548 94.765 153.313 93.88 154.258 93.88C154.753 93.88 155.248 94.045 155.758 94.495V97.93C155.263 98.5 154.783 98.755 154.213 98.755C153.148 98.755 152.548 97.9 152.548 96.31ZM162.906 100H164.511V95.515C164.511 94.6 164.376 93.295 164.286 92.395H164.346L165.126 94.63L166.821 99.085H167.631L169.326 94.63L170.121 92.395H170.181C170.091 93.295 169.956 94.6 169.956 95.515V100H171.591V90.19H169.671L167.931 95.02L167.301 96.88H167.241L166.596 95.02L164.826 90.19H162.906V100ZM173.858 97.255C173.858 99.115 174.548 100.18 176.123 100.18C177.128 100.18 177.848 99.685 178.493 98.92H178.538L178.673 100H180.083V92.635H178.358V97.675C177.803 98.395 177.368 98.695 176.723 98.695C175.928 98.695 175.583 98.245 175.583 97.03V92.635H173.858V97.255ZM182.523 97.51C182.523 99.1 183.153 100.18 184.863 100.18C185.448 100.18 185.958 100.045 186.363 99.91L186.063 98.635C185.853 98.725 185.553 98.8 185.298 98.8C184.593 98.8 184.263 98.38 184.263 97.51V94H186.138V92.635H184.263V90.625H182.823L182.613 92.635L181.473 92.71V94H182.523V97.51ZM187.943 97.51C187.943 99.1 188.573 100.18 190.283 100.18C190.868 100.18 191.378 100.045 191.783 99.91L191.483 98.635C191.273 98.725 190.973 98.8 190.718 98.8C190.013 98.8 189.683 98.38 189.683 97.51V94H191.558V92.635H189.683V90.625H188.243L188.033 92.635L186.893 92.71V94H187.943V97.51ZM192.573 98.02C192.573 99.31 193.473 100.18 194.763 100.18C195.633 100.18 196.383 99.745 197.043 99.19H197.088L197.223 100H198.633V95.635C198.633 93.58 197.733 92.455 195.888 92.455C194.718 92.455 193.683 92.905 192.873 93.415L193.503 94.57C194.148 94.18 194.838 93.85 195.573 93.85C196.563 93.85 196.893 94.51 196.908 95.29C193.893 95.62 192.573 96.445 192.573 98.02ZM194.253 97.885C194.253 97.15 194.913 96.625 196.908 96.37V98.02C196.368 98.53 195.903 98.83 195.303 98.83C194.688 98.83 194.253 98.545 194.253 97.885ZM200.74 100H202.465V94.855C203.035 94.24 203.56 93.94 204.01 93.94C204.79 93.94 205.15 94.39 205.15 95.605V100H206.875V94.855C207.445 94.24 207.955 93.94 208.42 93.94C209.185 93.94 209.545 94.39 209.545 95.605V100H211.285V95.38C211.285 93.52 210.565 92.455 209.005 92.455C208.075 92.455 207.34 93.025 206.635 93.775C206.29 92.95 205.675 92.455 204.595 92.455C203.68 92.455 202.96 92.98 202.345 93.64H202.285L202.165 92.635H200.74V100ZM213.306 97.255C213.306 99.115 213.996 100.18 215.571 100.18C216.576 100.18 217.296 99.685 217.941 98.92H217.986L218.121 100H219.531V92.635H217.806V97.675C217.251 98.395 216.816 98.695 216.171 98.695C215.376 98.695 215.031 98.245 215.031 97.03V92.635H213.306V97.255ZM220.981 99.16C221.701 99.745 222.766 100.18 223.771 100.18C225.631 100.18 226.636 99.16 226.636 97.9C226.636 96.52 225.526 96.04 224.521 95.665C223.726 95.38 222.991 95.155 222.991 94.57C222.991 94.105 223.336 93.76 224.071 93.76C224.656 93.76 225.181 94.015 225.691 94.39L226.486 93.34C225.886 92.875 225.061 92.455 224.041 92.455C222.391 92.455 221.356 93.37 221.356 94.66C221.356 95.89 222.451 96.445 223.426 96.805C224.206 97.105 225.001 97.375 225.001 97.99C225.001 98.5 224.626 98.875 223.831 98.875C223.081 98.875 222.451 98.56 221.791 98.05L220.981 99.16ZM227.696 96.325C227.696 98.755 229.286 100.18 231.326 100.18C232.256 100.18 233.141 99.85 233.846 99.385L233.261 98.305C232.721 98.65 232.181 98.845 231.551 98.845C230.366 98.845 229.526 98.095 229.376 96.76H234.056C234.101 96.58 234.131 96.28 234.131 95.95C234.131 93.895 233.081 92.455 231.086 92.455C229.361 92.455 227.696 93.925 227.696 96.325ZM229.361 95.665C229.511 94.435 230.261 93.79 231.131 93.79C232.136 93.79 232.631 94.495 232.631 95.665H229.361ZM235.799 97.51C235.799 99.1 236.429 100.18 238.139 100.18C238.724 100.18 239.234 100.045 239.639 99.91L239.339 98.635C239.129 98.725 238.829 98.8 238.574 98.8C237.869 98.8 237.539 98.38 237.539 97.51V94H239.414V92.635H237.539V90.625H236.099L235.889 92.635L234.749 92.71V94H235.799V97.51ZM241.219 97.51C241.219 99.1 241.849 100.18 243.559 100.18C244.144 100.18 244.654 100.045 245.059 99.91L244.759 98.635C244.549 98.725 244.249 98.8 243.994 98.8C243.289 98.8 242.959 98.38 242.959 97.51V94H244.834V92.635H242.959V90.625H241.519L241.309 92.635L240.169 92.71V94H241.219V97.51ZM246.234 101.53L245.919 102.88C246.189 102.97 246.474 103.03 246.879 103.03C248.484 103.03 249.249 101.995 249.864 100.33L252.534 92.635H250.869L249.759 96.25C249.579 96.91 249.384 97.645 249.204 98.32H249.144C248.919 97.63 248.709 96.895 248.499 96.25L247.224 92.635H245.469L248.364 99.91L248.229 100.375C247.989 101.11 247.539 101.635 246.759 101.635C246.579 101.635 246.369 101.575 246.234 101.53Z" fill="#40424F"/>
<path d="M96.245 127V117.19H97.985V127H96.245ZM104.393 127.18C103.573 127.18 102.828 126.985 102.158 126.595C101.488 126.205 100.953 125.635 100.553 124.885C100.163 124.125 99.9684 123.205 99.9684 122.125C99.9684 121.055 100.168 120.14 100.568 119.38C100.978 118.61 101.523 118.025 102.203 117.625C102.883 117.215 103.633 117.01 104.453 117.01C105.073 117.01 105.623 117.135 106.103 117.385C106.583 117.635 106.978 117.925 107.288 118.255L106.358 119.38C106.108 119.12 105.828 118.915 105.518 118.765C105.218 118.605 104.878 118.525 104.498 118.525C103.968 118.525 103.493 118.67 103.073 118.96C102.663 119.24 102.338 119.645 102.098 120.175C101.868 120.705 101.753 121.34 101.753 122.08C101.753 123.2 101.998 124.08 102.488 124.72C102.978 125.35 103.633 125.665 104.453 125.665C104.893 125.665 105.283 125.575 105.623 125.395C105.963 125.205 106.273 124.96 106.553 124.66L107.483 125.755C107.083 126.215 106.623 126.57 106.103 126.82C105.593 127.06 105.023 127.18 104.393 127.18ZM109.121 127V117.19H110.861V127H109.121ZM117.269 127.18C116.449 127.18 115.704 126.985 115.034 126.595C114.364 126.205 113.829 125.635 113.429 124.885C113.039 124.125 112.844 123.205 112.844 122.125C112.844 121.055 113.044 120.14 113.444 119.38C113.854 118.61 114.399 118.025 115.079 117.625C115.759 117.215 116.509 117.01 117.329 117.01C117.949 117.01 118.499 117.135 118.979 117.385C119.459 117.635 119.854 117.925 120.164 118.255L119.234 119.38C118.984 119.12 118.704 118.915 118.394 118.765C118.094 118.605 117.754 118.525 117.374 118.525C116.844 118.525 116.369 118.67 115.949 118.96C115.539 119.24 115.214 119.645 114.974 120.175C114.744 120.705 114.629 121.34 114.629 122.08C114.629 123.2 114.874 124.08 115.364 124.72C115.854 125.35 116.509 125.665 117.329 125.665C117.769 125.665 118.159 125.575 118.499 125.395C118.839 125.205 119.149 124.96 119.429 124.66L120.359 125.755C119.959 126.215 119.499 126.57 118.979 126.82C118.469 127.06 117.899 127.18 117.269 127.18ZM121.997 127V117.19H123.737V127H121.997ZM132.653 127.18C131.953 127.18 131.283 126.86 130.643 126.22H130.598L130.448 127H129.083V116.41H130.808V119.14L130.763 120.37C131.073 120.1 131.413 119.88 131.783 119.71C132.153 119.54 132.523 119.455 132.893 119.455C133.813 119.455 134.528 119.795 135.038 120.475C135.548 121.155 135.803 122.06 135.803 123.19C135.803 124.03 135.653 124.75 135.353 125.35C135.053 125.94 134.663 126.395 134.183 126.715C133.713 127.025 133.203 127.18 132.653 127.18ZM132.293 125.755C132.783 125.755 133.193 125.54 133.523 125.11C133.853 124.68 134.018 124.05 134.018 123.22C134.018 122.48 133.893 121.905 133.643 121.495C133.393 121.085 132.988 120.88 132.428 120.88C131.908 120.88 131.368 121.155 130.808 121.705V125.14C131.068 125.36 131.323 125.52 131.573 125.62C131.833 125.71 132.073 125.755 132.293 125.755ZM139.145 127.18C138.505 127.18 137.98 126.98 137.57 126.58C137.17 126.18 136.97 125.66 136.97 125.02C136.97 124.23 137.315 123.62 138.005 123.19C138.695 122.75 139.795 122.45 141.305 122.29C141.295 121.9 141.19 121.565 140.99 121.285C140.8 120.995 140.455 120.85 139.955 120.85C139.595 120.85 139.24 120.92 138.89 121.06C138.55 121.2 138.215 121.37 137.885 121.57L137.255 120.415C137.665 120.155 138.125 119.93 138.635 119.74C139.155 119.55 139.705 119.455 140.285 119.455C141.205 119.455 141.89 119.73 142.34 120.28C142.8 120.82 143.03 121.605 143.03 122.635V127H141.605L141.485 126.19H141.425C141.095 126.47 140.74 126.705 140.36 126.895C139.99 127.085 139.585 127.18 139.145 127.18ZM139.7 125.83C140 125.83 140.27 125.76 140.51 125.62C140.76 125.47 141.025 125.27 141.305 125.02V123.37C140.305 123.5 139.61 123.695 139.22 123.955C138.83 124.205 138.635 124.515 138.635 124.885C138.635 125.215 138.735 125.455 138.935 125.605C139.135 125.755 139.39 125.83 139.7 125.83ZM145.094 127V119.635H146.519L146.639 120.625H146.699C147.029 120.305 147.389 120.03 147.779 119.8C148.169 119.57 148.614 119.455 149.114 119.455C149.904 119.455 150.479 119.71 150.839 120.22C151.199 120.73 151.379 121.45 151.379 122.38V127H149.654V122.605C149.654 121.995 149.564 121.565 149.384 121.315C149.204 121.065 148.909 120.94 148.499 120.94C148.179 120.94 147.894 121.02 147.644 121.18C147.404 121.33 147.129 121.555 146.819 121.855V127H145.094ZM153.488 127V116.41H155.183V123.025H155.228L157.958 119.635H159.848L157.328 122.635L160.103 127H158.228L156.338 123.805L155.183 125.125V127H153.488Z" fill="#40424F"/>
<path d="M301.495 39.0607L299.961 37.4393C299.695 37.158 299.334 37 298.957 37H293.866C293.082 37 292.447 37.6716 292.447 38.5V40H290.081C289.297 40 288.661 40.6716 288.661 41.5V51.5C288.661 52.3284 289.297 53 290.081 53H296.706C297.49 53 298.125 52.3284 298.125 51.5V50H300.491C301.276 50 301.911 49.3284 301.911 48.5V40.1213C301.911 39.7235 301.762 39.342 301.495 39.0607ZM296.528 51.5H290.258C290.211 51.5 290.166 51.4802 290.133 51.4451C290.099 51.4099 290.081 51.3622 290.081 51.3125V41.6875C290.081 41.6378 290.099 41.5901 290.133 41.5549C290.166 41.5198 290.211 41.5 290.258 41.5H292.447V48.5C292.447 49.3284 293.082 50 293.866 50H296.706V51.3125C296.706 51.3622 296.687 51.4099 296.654 51.4451C296.621 51.4802 296.575 51.5 296.528 51.5ZM300.314 48.5H294.044C293.997 48.5 293.952 48.4802 293.918 48.4451C293.885 48.4099 293.866 48.3622 293.866 48.3125V38.6875C293.866 38.6378 293.885 38.5901 293.918 38.5549C293.952 38.5198 293.997 38.5 294.044 38.5H297.179V41.25C297.179 41.6642 297.497 42 297.889 42H300.491V48.3125C300.491 48.3622 300.473 48.4099 300.44 48.4451C300.406 48.4802 300.361 48.5 300.314 48.5ZM300.491 40.5H298.599V38.5H298.884C298.931 38.5 298.976 38.5197 299.009 38.5549L300.44 40.0664C300.456 40.0838 300.469 40.1045 300.478 40.1272C300.487 40.15 300.491 40.1744 300.491 40.199V40.5Z" fill="#86AA16"/>
<path d="M301.495 64.0607L299.961 62.4393C299.695 62.158 299.334 62 298.957 62H293.866C293.082 62 292.447 62.6716 292.447 63.5V65H290.081C289.297 65 288.661 65.6716 288.661 66.5V76.5C288.661 77.3284 289.297 78 290.081 78H296.706C297.49 78 298.125 77.3284 298.125 76.5V75H300.491C301.276 75 301.911 74.3284 301.911 73.5V65.1213C301.911 64.7235 301.762 64.342 301.495 64.0607ZM296.528 76.5H290.258C290.211 76.5 290.166 76.4802 290.133 76.4451C290.099 76.4099 290.081 76.3622 290.081 76.3125V66.6875C290.081 66.6378 290.099 66.5901 290.133 66.5549C290.166 66.5198 290.211 66.5 290.258 66.5H292.447V73.5C292.447 74.3284 293.082 75 293.866 75H296.706V76.3125C296.706 76.3622 296.687 76.4099 296.654 76.4451C296.621 76.4802 296.575 76.5 296.528 76.5ZM300.314 73.5H294.044C293.997 73.5 293.952 73.4802 293.918 73.4451C293.885 73.4099 293.866 73.3622 293.866 73.3125V63.6875C293.866 63.6378 293.885 63.5901 293.918 63.5549C293.952 63.5198 293.997 63.5 294.044 63.5H297.179V66.25C297.179 66.6642 297.497 67 297.889 67H300.491V73.3125C300.491 73.3622 300.473 73.4099 300.44 73.4451C300.406 73.4802 300.361 73.5 300.314 73.5ZM300.491 65.5H298.599V63.5H298.884C298.931 63.5 298.976 63.5197 299.009 63.5549L300.44 65.0664C300.456 65.0838 300.469 65.1045 300.478 65.1272C300.487 65.15 300.491 65.1744 300.491 65.199V65.5Z" fill="#86AA16"/>
<path d="M301.495 90.0607L299.961 88.4393C299.695 88.158 299.334 88 298.957 88H293.866C293.082 88 292.447 88.6716 292.447 89.5V91H290.081C289.297 91 288.661 91.6716 288.661 92.5V102.5C288.661 103.328 289.297 104 290.081 104H296.706C297.49 104 298.125 103.328 298.125 102.5V101H300.491C301.276 101 301.911 100.328 301.911 99.5V91.1213C301.911 90.7235 301.762 90.342 301.495 90.0607ZM296.528 102.5H290.258C290.211 102.5 290.166 102.48 290.133 102.445C290.099 102.41 290.081 102.362 290.081 102.312V92.6875C290.081 92.6378 290.099 92.5901 290.133 92.5549C290.166 92.5198 290.211 92.5 290.258 92.5H292.447V99.5C292.447 100.328 293.082 101 293.866 101H296.706V102.312C296.706 102.362 296.687 102.41 296.654 102.445C296.621 102.48 296.575 102.5 296.528 102.5ZM300.314 99.5H294.044C293.997 99.5 293.952 99.4802 293.918 99.4451C293.885 99.4099 293.866 99.3622 293.866 99.3125V89.6875C293.866 89.6378 293.885 89.5901 293.918 89.5549C293.952 89.5198 293.997 89.5 294.044 89.5H297.179V92.25C297.179 92.6642 297.497 93 297.889 93H300.491V99.3125C300.491 99.3622 300.473 99.4099 300.44 99.4451C300.406 99.4802 300.361 99.5 300.314 99.5ZM300.491 91.5H298.599V89.5H298.884C298.931 89.5 298.976 89.5197 299.009 89.5549L300.44 91.0664C300.456 91.0838 300.469 91.1045 300.478 91.1272C300.487 91.15 300.491 91.1744 300.491 91.199V91.5Z" fill="#86AA16"/>
<path d="M301.495 115.061L299.961 113.439C299.695 113.158 299.334 113 298.957 113H293.866C293.082 113 292.447 113.672 292.447 114.5V116H290.081C289.297 116 288.661 116.672 288.661 117.5V127.5C288.661 128.328 289.297 129 290.081 129H296.706C297.49 129 298.125 128.328 298.125 127.5V126H300.491C301.276 126 301.911 125.328 301.911 124.5V116.121C301.911 115.723 301.762 115.342 301.495 115.061ZM296.528 127.5H290.258C290.211 127.5 290.166 127.48 290.133 127.445C290.099 127.41 290.081 127.362 290.081 127.312V117.688C290.081 117.638 290.099 117.59 290.133 117.555C290.166 117.52 290.211 117.5 290.258 117.5H292.447V124.5C292.447 125.328 293.082 126 293.866 126H296.706V127.312C296.706 127.362 296.687 127.41 296.654 127.445C296.621 127.48 296.575 127.5 296.528 127.5ZM300.314 124.5H294.044C293.997 124.5 293.952 124.48 293.918 124.445C293.885 124.41 293.866 124.362 293.866 124.312V114.688C293.866 114.638 293.885 114.59 293.918 114.555C293.952 114.52 293.997 114.5 294.044 114.5H297.179V117.25C297.179 117.664 297.497 118 297.889 118H300.491V124.312C300.491 124.362 300.473 124.41 300.44 124.445C300.406 124.48 300.361 124.5 300.314 124.5ZM300.491 116.5H298.599V114.5H298.884C298.931 114.5 298.976 114.52 299.009 114.555L300.44 116.066C300.456 116.084 300.469 116.104 300.478 116.127C300.487 116.15 300.491 116.174 300.491 116.199V116.5Z" fill="#86AA16"/>
<rect x="282" y="28" width="26" height="109" stroke="#F32F2F" stroke-width="2" stroke-dasharray="3 3"/>
<path fill-rule="evenodd" clip-rule="evenodd" d="M296.437 61.9761C296.1 61.4641 295.69 60.4172 294.96 59.1464C294.547 58.4275 293.521 57.074 293.216 56.3866C292.951 55.779 292.98 55.5066 293.043 55.0031C293.154 54.1074 293.919 53.41 294.736 53.5041C295.352 53.574 295.875 54.0632 296.346 54.5253C296.63 54.8034 296.979 55.344 297.189 55.6492C297.383 55.9287 297.43 56.0443 297.637 56.3752C297.91 56.813 297.996 57.0298 297.891 56.5477C297.807 55.8403 297.669 54.6323 297.47 53.564C297.318 52.7539 297.281 52.627 297.136 52.0051C296.982 51.3433 296.904 50.8798 296.76 50.1781C296.66 49.6817 296.481 48.6677 296.432 48.0972C296.365 47.317 296.329 46.0448 296.746 45.46C297.073 45.0022 297.822 44.8638 298.287 45.1462C298.895 45.5156 299.241 46.5768 299.399 47.0004C299.683 47.762 299.859 48.642 300.012 49.7973C300.207 51.2677 300.566 53.3087 300.578 53.738C300.606 53.2117 300.497 52.1035 300.573 51.5986C300.642 51.1408 300.963 50.6088 301.364 50.4648C301.704 50.3435 302.102 50.2993 302.453 50.3863C302.824 50.4776 303.217 50.7971 303.363 51.098C303.793 51.988 303.801 53.8065 303.819 53.7095C303.921 53.1732 303.903 51.9566 304.156 51.4503C304.323 51.1166 304.747 50.8156 304.973 50.7671C305.322 50.693 305.751 50.6701 306.118 50.7557C306.414 50.8256 306.814 51.2478 306.922 51.4503C307.181 51.9409 307.329 53.3287 307.373 53.815C307.39 54.0161 307.461 53.2559 307.721 52.7653C308.203 51.8539 309.91 51.6771 309.976 53.6767C310.005 54.6095 310 54.5667 310 55.1942C310 55.9316 309.985 56.3752 309.952 56.9086C309.915 57.4791 309.813 58.7684 309.664 59.3931C309.562 59.8224 309.224 60.788 308.89 61.3671C308.89 61.3671 307.614 63.1499 307.475 63.9529C307.335 64.7544 307.381 64.7601 307.354 65.3292C307.326 65.8969 307.497 66.6442 307.497 66.6442C307.497 66.6442 306.544 66.7926 306.031 66.6941C305.567 66.6043 304.992 65.4947 304.843 65.1552C304.639 64.6874 304.203 64.7773 304.033 65.1224C303.765 65.6687 303.19 66.6485 302.784 66.7098C301.99 66.8296 300.344 66.754 299.055 66.7384C299.055 66.7384 299.274 65.2964 298.785 64.8015C298.422 64.4321 297.799 63.6833 297.426 63.2897L296.437 61.9761Z" fill="white"/>
<path fill-rule="evenodd" clip-rule="evenodd" d="M296.437 61.9761C296.1 61.4641 295.69 60.4172 294.96 59.1464C294.547 58.4275 293.521 57.074 293.216 56.3866C292.951 55.779 292.98 55.5066 293.043 55.0031C293.154 54.1074 293.919 53.41 294.736 53.5041C295.352 53.574 295.875 54.0632 296.346 54.5253C296.63 54.8034 296.979 55.344 297.189 55.6492C297.383 55.9287 297.43 56.0443 297.637 56.3752C297.91 56.813 297.996 57.0298 297.891 56.5477C297.807 55.8403 297.669 54.6323 297.47 53.564C297.318 52.7539 297.281 52.627 297.136 52.0051C296.982 51.3433 296.904 50.8798 296.76 50.1781C296.66 49.6817 296.481 48.6677 296.432 48.0972C296.365 47.317 296.329 46.0448 296.746 45.46C297.073 45.0022 297.822 44.8638 298.287 45.1462C298.895 45.5156 299.241 46.5768 299.399 47.0004C299.683 47.762 299.859 48.642 300.012 49.7973C300.207 51.2677 300.566 53.3087 300.578 53.738C300.606 53.2117 300.497 52.1035 300.573 51.5986C300.642 51.1408 300.963 50.6088 301.364 50.4648C301.704 50.3435 302.102 50.2993 302.453 50.3863C302.824 50.4776 303.217 50.7971 303.363 51.098C303.793 51.988 303.801 53.8065 303.819 53.7095C303.921 53.1732 303.903 51.9566 304.156 51.4503C304.323 51.1166 304.747 50.8156 304.973 50.7671C305.322 50.693 305.751 50.6701 306.118 50.7557C306.414 50.8256 306.814 51.2478 306.922 51.4503C307.181 51.9409 307.329 53.3287 307.373 53.815C307.39 54.0161 307.461 53.2559 307.721 52.7653C308.203 51.8539 309.91 51.6771 309.976 53.6767C310.005 54.6095 310 54.5667 310 55.1942C310 55.9316 309.985 56.3752 309.952 56.9086C309.915 57.4791 309.813 58.7684 309.664 59.3931C309.562 59.8224 309.224 60.788 308.89 61.3671C308.89 61.3671 307.614 63.1499 307.475 63.9529C307.335 64.7544 307.381 64.7601 307.354 65.3292C307.326 65.8969 307.497 66.6442 307.497 66.6442C307.497 66.6442 306.544 66.7926 306.031 66.6941C305.567 66.6043 304.992 65.4947 304.843 65.1552C304.639 64.6874 304.203 64.7773 304.033 65.1224C303.765 65.6687 303.19 66.6485 302.784 66.7098C301.99 66.8296 300.344 66.754 299.055 66.7384C299.055 66.7384 299.274 65.2964 298.785 64.8015C298.422 64.4321 297.799 63.6833 297.426 63.2897L296.437 61.9761V61.9761Z" stroke="black" stroke-linecap="round" stroke-linejoin="round"/>
<path d="M306.357 62.4236V58.0684" stroke="black" stroke-linecap="round"/>
<path d="M303.948 62.4236L303.929 58.0684" stroke="black" stroke-linecap="round"/>
<path d="M301.5 58.0684L301.526 62.4236" stroke="black" stroke-linecap="round"/>
</svg>
