<svg width="266" height="336" viewBox="0 0 266 336" fill="none" xmlns="http://www.w3.org/2000/svg">
<path d="M122.065 45.5497C122.065 46.4819 121.963 47.2901 121.76 47.9744C121.561 48.6537 121.289 49.2164 120.941 49.6627C120.594 50.1089 120.183 50.4411 119.707 50.6593C119.236 50.8775 118.73 50.9866 118.19 50.9866C117.644 50.9866 117.136 50.8775 116.665 50.6593C116.199 50.4411 115.792 50.1089 115.445 49.6627C115.098 49.2164 114.825 48.6537 114.627 47.9744C114.429 47.2901 114.33 46.4819 114.33 45.5497C114.33 44.6176 114.429 43.8094 114.627 43.1251C114.825 42.4409 115.098 41.8756 115.445 41.4294C115.792 40.9782 116.199 40.6435 116.665 40.4253C117.136 40.2071 117.644 40.0981 118.19 40.0981C118.73 40.0981 119.236 40.2071 119.707 40.4253C120.183 40.6435 120.594 40.9782 120.941 41.4294C121.289 41.8756 121.561 42.4409 121.76 43.1251C121.963 43.8094 122.065 44.6176 122.065 45.5497ZM120.689 45.5497C120.689 44.7366 120.619 44.0548 120.48 43.5044C120.346 42.9491 120.163 42.5029 119.93 42.1657C119.702 41.8285 119.437 41.588 119.134 41.4442C118.832 41.2955 118.517 41.2211 118.19 41.2211C117.862 41.2211 117.548 41.2955 117.245 41.4442C116.943 41.588 116.677 41.8285 116.449 42.1657C116.221 42.5029 116.038 42.9491 115.899 43.5044C115.765 44.0548 115.698 44.7366 115.698 45.5497C115.698 46.3629 115.765 47.0447 115.899 47.5951C116.038 48.1454 116.221 48.5892 116.449 48.9264C116.677 49.2635 116.943 49.5065 117.245 49.6552C117.548 49.799 117.862 49.8709 118.19 49.8709C118.517 49.8709 118.832 49.799 119.134 49.6552C119.437 49.5065 119.702 49.2635 119.93 48.9264C120.163 48.5892 120.346 48.1454 120.48 47.5951C120.619 47.0447 120.689 46.3629 120.689 45.5497ZM130.693 45.5497C130.693 46.4819 130.592 47.2901 130.388 47.9744C130.19 48.6537 129.917 49.2164 129.57 49.6627C129.223 50.1089 128.812 50.4411 128.336 50.6593C127.864 50.8775 127.359 50.9866 126.818 50.9866C126.273 50.9866 125.765 50.8775 125.294 50.6593C124.828 50.4411 124.421 50.1089 124.074 49.6627C123.727 49.2164 123.454 48.6537 123.256 47.9744C123.057 47.2901 122.958 46.4819 122.958 45.5497C122.958 44.6176 123.057 43.8094 123.256 43.1251C123.454 42.4409 123.727 41.8756 124.074 41.4294C124.421 40.9782 124.828 40.6435 125.294 40.4253C125.765 40.2071 126.273 40.0981 126.818 40.0981C127.359 40.0981 127.864 40.2071 128.336 40.4253C128.812 40.6435 129.223 40.9782 129.57 41.4294C129.917 41.8756 130.19 42.4409 130.388 43.1251C130.592 43.8094 130.693 44.6176 130.693 45.5497ZM129.317 45.5497C129.317 44.7366 129.248 44.0548 129.109 43.5044C128.975 42.9491 128.792 42.5029 128.559 42.1657C128.331 41.8285 128.065 41.588 127.763 41.4442C127.46 41.2955 127.146 41.2211 126.818 41.2211C126.491 41.2211 126.176 41.2955 125.874 41.4442C125.571 41.588 125.306 41.8285 125.078 42.1657C124.85 42.5029 124.666 42.9491 124.528 43.5044C124.394 44.0548 124.327 44.7366 124.327 45.5497C124.327 46.3629 124.394 47.0447 124.528 47.5951C124.666 48.1454 124.85 48.5892 125.078 48.9264C125.306 49.2635 125.571 49.5065 125.874 49.6552C126.176 49.799 126.491 49.8709 126.818 49.8709C127.146 49.8709 127.46 49.799 127.763 49.6552C128.065 49.5065 128.331 49.2635 128.559 48.9264C128.792 48.5892 128.975 48.1454 129.109 47.5951C129.248 47.0447 129.317 46.3629 129.317 45.5497ZM132.07 50.0569C132.07 49.928 132.093 49.8065 132.137 49.6924C132.187 49.5784 132.251 49.4792 132.331 49.3949C132.415 49.3106 132.514 49.2437 132.628 49.1941C132.742 49.1445 132.864 49.1197 132.993 49.1197C133.121 49.1197 133.243 49.1445 133.357 49.1941C133.471 49.2437 133.57 49.3106 133.655 49.3949C133.739 49.4792 133.806 49.5784 133.855 49.6924C133.905 49.8065 133.93 49.928 133.93 50.0569C133.93 50.1907 133.905 50.3147 133.855 50.4287C133.806 50.5378 133.739 50.6345 133.655 50.7188C133.57 50.8031 133.471 50.8676 133.357 50.9122C133.243 50.9618 133.121 50.9866 132.993 50.9866C132.864 50.9866 132.742 50.9618 132.628 50.9122C132.514 50.8676 132.415 50.8031 132.331 50.7188C132.251 50.6345 132.187 50.5378 132.137 50.4287C132.093 50.3147 132.07 50.1907 132.07 50.0569ZM132.07 44.4787C132.07 44.3498 132.093 44.2284 132.137 44.1143C132.187 44.0003 132.251 43.9011 132.331 43.8168C132.415 43.7325 132.514 43.6656 132.628 43.616C132.742 43.5664 132.864 43.5416 132.993 43.5416C133.121 43.5416 133.243 43.5664 133.357 43.616C133.471 43.6656 133.57 43.7325 133.655 43.8168C133.739 43.9011 133.806 44.0003 133.855 44.1143C133.905 44.2284 133.93 44.3498 133.93 44.4787C133.93 44.6126 133.905 44.7366 133.855 44.8506C133.806 44.9597 133.739 45.0564 133.655 45.1407C133.57 45.225 133.471 45.2919 133.357 45.3415C133.243 45.3861 133.121 45.4084 132.993 45.4084C132.864 45.4084 132.742 45.3861 132.628 45.3415C132.514 45.2919 132.415 45.225 132.331 45.1407C132.251 45.0564 132.187 44.9597 132.137 44.8506C132.093 44.7366 132.07 44.6126 132.07 44.4787ZM137.552 44.2407C138.107 44.1217 138.618 44.0622 139.084 44.0622C139.639 44.0622 140.13 44.1441 140.557 44.3077C140.983 44.4713 141.337 44.6969 141.62 44.9845C141.908 45.2721 142.123 45.6117 142.267 46.0034C142.416 46.3951 142.49 46.8216 142.49 47.2827C142.49 47.8479 142.391 48.3586 142.193 48.8148C141.999 49.271 141.729 49.6627 141.382 49.9899C141.04 50.3122 140.636 50.5601 140.17 50.7337C139.704 50.9072 139.2 50.994 138.66 50.994C138.348 50.994 138.048 50.9618 137.76 50.8973C137.472 50.8378 137.202 50.756 136.949 50.6519C136.701 50.5477 136.471 50.4287 136.258 50.2949C136.044 50.161 135.856 50.0197 135.692 49.8709L136.101 49.3057C136.191 49.1768 136.307 49.1123 136.451 49.1123C136.55 49.1123 136.662 49.152 136.786 49.2313C136.91 49.3057 137.061 49.39 137.239 49.4842C137.418 49.5784 137.626 49.6652 137.864 49.7445C138.107 49.8189 138.395 49.8561 138.727 49.8561C139.099 49.8561 139.433 49.7966 139.731 49.6776C140.028 49.5586 140.284 49.39 140.497 49.1718C140.71 48.9487 140.874 48.6834 140.988 48.376C141.102 48.0686 141.159 47.724 141.159 47.3422C141.159 47.01 141.109 46.71 141.01 46.4422C140.916 46.1745 140.77 45.9464 140.571 45.758C140.378 45.5696 140.135 45.4233 139.843 45.3192C139.55 45.2151 139.208 45.163 138.816 45.163C138.548 45.163 138.268 45.1853 137.976 45.2299C137.688 45.2746 137.393 45.3465 137.091 45.4456L136.258 45.2002L137.113 40.2171H142.163V40.7972C142.163 40.9856 142.104 41.1418 141.985 41.2657C141.87 41.3847 141.672 41.4442 141.39 41.4442H138.043L137.552 44.2407ZM145.593 43.3482C145.593 43.6854 145.64 43.9879 145.734 44.2556C145.833 44.5184 145.972 44.7415 146.151 44.925C146.334 45.1085 146.555 45.2473 146.813 45.3415C147.075 45.4357 147.368 45.4828 147.69 45.4828C148.047 45.4828 148.362 45.4258 148.635 45.3117C148.912 45.1927 149.145 45.0366 149.334 44.8432C149.522 44.6498 149.666 44.4267 149.765 44.1738C149.864 43.9209 149.914 43.6581 149.914 43.3854C149.914 43.0532 149.859 42.7532 149.75 42.4855C149.646 42.2128 149.5 41.9822 149.312 41.7938C149.123 41.6054 148.898 41.4616 148.635 41.3624C148.377 41.2583 148.092 41.2062 147.779 41.2062C147.452 41.2062 147.155 41.2608 146.887 41.3699C146.619 41.474 146.389 41.6203 146.195 41.8087C146.002 41.9971 145.853 42.2227 145.749 42.4855C145.645 42.7483 145.593 43.0359 145.593 43.3482ZM148.687 46.6282C148.796 46.4844 148.898 46.348 148.992 46.2191C149.086 46.0902 149.175 45.9613 149.26 45.8324C148.987 46.0505 148.679 46.2166 148.337 46.3307C147.995 46.4447 147.633 46.5018 147.251 46.5018C146.85 46.5018 146.468 46.4348 146.106 46.3009C145.749 46.1671 145.434 45.9712 145.161 45.7134C144.889 45.4506 144.671 45.1308 144.507 44.7539C144.348 44.3721 144.269 43.9358 144.269 43.4449C144.269 42.9789 144.356 42.5425 144.529 42.1359C144.703 41.7294 144.946 41.3748 145.258 41.0724C145.571 40.7699 145.942 40.5319 146.374 40.3584C146.805 40.1848 147.279 40.0981 147.794 40.0981C148.305 40.0981 148.769 40.1824 149.185 40.3509C149.602 40.5195 149.959 40.755 150.256 41.0575C150.554 41.36 150.782 41.7219 150.94 42.1434C151.104 42.5648 151.186 43.0309 151.186 43.5416C151.186 43.849 151.156 44.1416 151.097 44.4192C151.042 44.692 150.96 44.9622 150.851 45.2299C150.747 45.4927 150.618 45.7555 150.464 46.0183C150.311 46.2761 150.137 46.5414 149.944 46.8141L147.348 50.5626C147.284 50.6568 147.192 50.7337 147.073 50.7932C146.954 50.8477 146.818 50.875 146.664 50.875H145.444L148.687 46.6282Z" fill="#40424F"/>
<path d="M164.572 13.1047C156.045 4.65459 144.707 0 132.648 0C120.589 0 109.251 4.65459 100.724 13.1047C92.1969 21.5547 87.5 32.7908 87.5 44.7412C87.5 56.6916 92.1969 67.9277 100.724 76.3778C109.251 84.8278 120.589 89.4824 132.648 89.4824C144.707 89.4824 156.045 84.8278 164.572 76.3778C173.099 67.9277 177.796 56.6916 177.796 44.7412C177.796 32.7908 173.099 21.5547 164.572 13.1047ZM132.648 84.2188C110.683 84.2188 92.8115 66.5084 92.8115 44.7412C92.8115 22.974 110.683 5.26367 132.648 5.26367C154.613 5.26367 172.484 22.974 172.484 44.7412C172.484 66.5084 154.613 84.2188 132.648 84.2188ZM169.829 44.7412C169.829 65.0571 153.149 81.5869 132.648 81.5869C112.147 81.5869 95.4673 65.0571 95.4673 44.7412C95.4673 24.4253 112.147 7.89551 132.648 7.89551C134.114 7.89551 135.304 9.07419 135.304 10.5273C135.304 11.9805 134.114 13.1592 132.648 13.1592C115.074 13.1592 100.779 27.326 100.779 44.7412C100.779 62.1564 115.074 76.3232 132.648 76.3232C150.222 76.3232 164.517 62.1564 164.517 44.7412C164.517 37.1371 161.74 29.7849 156.694 24.0381C155.73 22.9421 155.848 21.2784 156.954 20.3253C158.06 19.3722 159.739 19.4869 160.7 20.5828C166.587 27.2884 169.829 35.8663 169.829 44.7412Z" fill="url(#paint0_linear_1074_6951)"/>
<path d="M175.382 45.0625C175.382 68.2324 156.421 87.0625 132.972 87.0625C109.524 87.0625 90.5625 68.2324 90.5625 45.0625C90.5625 21.8926 109.524 3.0625 132.972 3.0625C156.421 3.0625 175.382 21.8926 175.382 45.0625Z" stroke="#86AA16" stroke-width="6.125"/>
<path d="M84.9699 236.283C84.3137 236.283 83.7405 236.151 83.2505 235.889C82.7605 235.626 82.3799 235.206 82.1087 234.629C81.8462 234.051 81.7149 233.294 81.7149 232.358V227.541H83.2374V232.476C83.2374 233.097 83.3074 233.592 83.4474 233.959C83.5962 234.318 83.8018 234.576 84.0643 234.734C84.3268 234.882 84.6287 234.957 84.9699 234.957C85.3199 234.957 85.6262 234.882 85.8887 234.734C86.1599 234.576 86.3699 234.318 86.5187 233.959C86.6762 233.592 86.7549 233.097 86.7549 232.476V227.541H88.2118V232.358C88.2118 233.294 88.0805 234.051 87.818 234.629C87.5555 235.206 87.1793 235.626 86.6893 235.889C86.208 236.151 85.6349 236.283 84.9699 236.283ZM92.0873 236.125V228.827H89.6066V227.541H96.0904V228.827H93.6098V236.125H92.0873ZM97.5197 236.125V227.541H100.42C101.015 227.541 101.549 227.62 102.022 227.777C102.503 227.935 102.879 228.202 103.15 228.578C103.43 228.946 103.57 229.449 103.57 230.087C103.57 230.744 103.413 231.273 103.098 231.676C102.792 232.078 102.38 232.367 101.864 232.542L103.912 236.125H102.205L100.355 232.765H99.0422V236.125H97.5197ZM99.0422 231.557H100.263C100.849 231.557 101.295 231.435 101.602 231.19C101.917 230.936 102.074 230.569 102.074 230.087C102.074 229.597 101.917 229.256 101.602 229.064C101.295 228.862 100.849 228.762 100.263 228.762H99.0422V231.557ZM106.009 231.794C105.738 231.794 105.506 231.697 105.313 231.505C105.121 231.312 105.025 231.067 105.025 230.77C105.025 230.472 105.121 230.227 105.313 230.035C105.506 229.842 105.738 229.746 106.009 229.746C106.289 229.746 106.521 229.842 106.705 230.035C106.888 230.227 106.98 230.472 106.98 230.77C106.98 231.067 106.888 231.312 106.705 231.505C106.521 231.697 106.289 231.794 106.009 231.794ZM106.009 236.283C105.738 236.283 105.506 236.186 105.313 235.994C105.121 235.801 105.025 235.556 105.025 235.259C105.025 234.961 105.121 234.716 105.313 234.524C105.506 234.331 105.738 234.235 106.009 234.235C106.289 234.235 106.521 234.331 106.705 234.524C106.888 234.716 106.98 234.961 106.98 235.259C106.98 235.556 106.888 235.801 106.705 235.994C106.521 236.186 106.289 236.283 106.009 236.283ZM112.645 236.125C112.697 235.136 112.802 234.252 112.96 233.474C113.117 232.686 113.358 231.938 113.682 231.229C114.005 230.521 114.434 229.794 114.968 229.051H111.017V227.777H116.622V228.696C116.132 229.3 115.733 229.877 115.427 230.429C115.13 230.98 114.893 231.54 114.718 232.109C114.552 232.669 114.43 233.277 114.351 233.933C114.272 234.581 114.215 235.311 114.18 236.125H112.645ZM119.374 236.125C119.426 235.136 119.531 234.252 119.689 233.474C119.846 232.686 120.087 231.938 120.411 231.229C120.734 230.521 121.163 229.794 121.697 229.051H117.746V227.777H123.351V228.696C122.861 229.3 122.463 229.877 122.156 230.429C121.859 230.98 121.623 231.54 121.448 232.109C121.281 232.669 121.159 233.277 121.08 233.933C121.001 234.581 120.944 235.311 120.909 236.125H119.374ZM126.103 236.125C126.155 235.136 126.26 234.252 126.418 233.474C126.575 232.686 126.816 231.938 127.14 231.229C127.464 230.521 127.892 229.794 128.426 229.051H124.475V227.777H130.08V228.696C129.59 229.3 129.192 229.877 128.885 230.429C128.588 230.98 128.352 231.54 128.177 232.109C128.01 232.669 127.888 233.277 127.809 233.933C127.73 234.581 127.674 235.311 127.639 236.125H126.103ZM132.832 236.125C132.885 235.136 132.99 234.252 133.147 233.474C133.305 232.686 133.545 231.938 133.869 231.229C134.193 230.521 134.621 229.794 135.155 229.051H131.205V227.777H136.809V228.696C136.319 229.3 135.921 229.877 135.615 230.429C135.317 230.98 135.081 231.54 134.906 232.109C134.74 232.669 134.617 233.277 134.538 233.933C134.46 234.581 134.403 235.311 134.368 236.125H132.832ZM139.233 230.35C139.233 230.84 139.347 231.212 139.574 231.466C139.811 231.719 140.139 231.846 140.559 231.846C140.804 231.846 141.057 231.772 141.32 231.623C141.591 231.466 141.836 231.216 142.055 230.875C141.976 230.14 141.797 229.606 141.517 229.274C141.237 228.941 140.891 228.775 140.48 228.775C140.139 228.775 139.846 228.911 139.601 229.182C139.356 229.453 139.233 229.842 139.233 230.35ZM140.204 236.283C139.706 236.283 139.272 236.191 138.905 236.007C138.537 235.823 138.227 235.6 137.973 235.337L138.787 234.419C138.944 234.602 139.141 234.756 139.377 234.878C139.622 234.992 139.872 235.049 140.126 235.049C140.476 235.049 140.795 234.952 141.084 234.76C141.372 234.567 141.609 234.248 141.792 233.802C141.976 233.347 142.077 232.734 142.094 231.964C141.849 232.262 141.561 232.498 141.228 232.673C140.896 232.848 140.576 232.936 140.27 232.936C139.552 232.936 138.966 232.726 138.511 232.306C138.065 231.877 137.842 231.225 137.842 230.35C137.842 229.79 137.96 229.309 138.196 228.906C138.441 228.495 138.761 228.18 139.154 227.961C139.557 227.734 139.994 227.62 140.467 227.62C141.009 227.62 141.508 227.764 141.963 228.053C142.427 228.342 142.794 228.788 143.066 229.392C143.346 229.987 143.486 230.752 143.486 231.689C143.486 232.765 143.332 233.644 143.026 234.327C142.72 235.001 142.317 235.495 141.819 235.81C141.32 236.125 140.782 236.283 140.204 236.283ZM145.962 230.35C145.962 230.84 146.076 231.212 146.303 231.466C146.54 231.719 146.868 231.846 147.288 231.846C147.533 231.846 147.787 231.772 148.049 231.623C148.32 231.466 148.565 231.216 148.784 230.875C148.705 230.14 148.526 229.606 148.246 229.274C147.966 228.941 147.62 228.775 147.209 228.775C146.868 228.775 146.575 228.911 146.33 229.182C146.085 229.453 145.962 229.842 145.962 230.35ZM146.933 236.283C146.435 236.283 146.002 236.191 145.634 236.007C145.267 235.823 144.956 235.6 144.702 235.337L145.516 234.419C145.673 234.602 145.87 234.756 146.107 234.878C146.352 234.992 146.601 235.049 146.855 235.049C147.205 235.049 147.524 234.952 147.813 234.76C148.102 234.567 148.338 234.248 148.522 233.802C148.705 233.347 148.806 232.734 148.823 231.964C148.578 232.262 148.29 232.498 147.957 232.673C147.625 232.848 147.305 232.936 146.999 232.936C146.282 232.936 145.695 232.726 145.24 232.306C144.794 231.877 144.571 231.225 144.571 230.35C144.571 229.79 144.689 229.309 144.925 228.906C145.17 228.495 145.49 228.18 145.883 227.961C146.286 227.734 146.723 227.62 147.196 227.62C147.738 227.62 148.237 227.764 148.692 228.053C149.156 228.342 149.523 228.788 149.795 229.392C150.075 229.987 150.215 230.752 150.215 231.689C150.215 232.765 150.062 233.644 149.755 234.327C149.449 235.001 149.047 235.495 148.548 235.81C148.049 236.125 147.511 236.283 146.933 236.283ZM154.174 236.283C153.308 236.283 152.617 235.906 152.101 235.154C151.593 234.401 151.339 233.321 151.339 231.912C151.339 230.503 151.593 229.436 152.101 228.709C152.617 227.983 153.308 227.62 154.174 227.62C155.041 227.62 155.728 227.983 156.235 228.709C156.751 229.436 157.009 230.503 157.009 231.912C157.009 233.321 156.751 234.401 156.235 235.154C155.728 235.906 155.041 236.283 154.174 236.283ZM154.174 235.101C154.446 235.101 154.686 235.001 154.896 234.799C155.106 234.589 155.268 234.252 155.382 233.789C155.504 233.325 155.566 232.699 155.566 231.912C155.566 231.124 155.504 230.503 155.382 230.048C155.268 229.593 155.106 229.274 154.896 229.09C154.686 228.897 154.446 228.801 154.174 228.801C153.912 228.801 153.676 228.897 153.466 229.09C153.256 229.274 153.089 229.593 152.967 230.048C152.844 230.503 152.783 231.124 152.783 231.912C152.783 232.699 152.844 233.325 152.967 233.789C153.089 234.252 153.256 234.589 153.466 234.799C153.676 235.001 153.912 235.101 154.174 235.101ZM160.904 236.283C160.037 236.283 159.346 235.906 158.83 235.154C158.322 234.401 158.069 233.321 158.069 231.912C158.069 230.503 158.322 229.436 158.83 228.709C159.346 227.983 160.037 227.62 160.904 227.62C161.77 227.62 162.457 227.983 162.964 228.709C163.48 229.436 163.739 230.503 163.739 231.912C163.739 233.321 163.48 234.401 162.964 235.154C162.457 235.906 161.77 236.283 160.904 236.283ZM160.904 235.101C161.175 235.101 161.415 235.001 161.625 234.799C161.835 234.589 161.997 234.252 162.111 233.789C162.234 233.325 162.295 232.699 162.295 231.912C162.295 231.124 162.234 230.503 162.111 230.048C161.997 229.593 161.835 229.274 161.625 229.09C161.415 228.897 161.175 228.801 160.904 228.801C160.641 228.801 160.405 228.897 160.195 229.09C159.985 229.274 159.819 229.593 159.696 230.048C159.574 230.503 159.512 231.124 159.512 231.912C159.512 232.699 159.574 233.325 159.696 233.789C159.819 234.252 159.985 234.589 160.195 234.799C160.405 235.001 160.641 235.101 160.904 235.101ZM167.436 236.283C166.762 236.283 166.193 236.169 165.73 235.941C165.275 235.705 164.894 235.434 164.588 235.127L165.283 234.156C165.537 234.392 165.821 234.602 166.136 234.786C166.451 234.961 166.819 235.049 167.239 235.049C167.703 235.049 168.088 234.909 168.394 234.629C168.7 234.349 168.853 233.955 168.853 233.447C168.853 232.949 168.713 232.564 168.433 232.292C168.153 232.021 167.781 231.886 167.318 231.886C167.046 231.886 166.819 231.925 166.635 232.004C166.451 232.074 166.233 232.192 165.979 232.358L165.257 231.899L165.506 227.777H169.969V229.051H166.819L166.648 231.072C166.823 230.984 166.994 230.919 167.16 230.875C167.335 230.822 167.532 230.796 167.751 230.796C168.232 230.796 168.67 230.888 169.063 231.072C169.457 231.256 169.772 231.54 170.008 231.925C170.253 232.31 170.376 232.804 170.376 233.408C170.376 234.012 170.236 234.528 169.956 234.957C169.685 235.386 169.326 235.714 168.88 235.941C168.433 236.169 167.952 236.283 167.436 236.283ZM171.501 236.125V235.246C172.279 234.493 172.949 233.824 173.509 233.237C174.077 232.642 174.515 232.104 174.821 231.623C175.127 231.133 175.281 230.678 175.281 230.258C175.281 229.821 175.162 229.471 174.926 229.208C174.69 228.946 174.349 228.814 173.902 228.814C173.579 228.814 173.281 228.906 173.01 229.09C172.747 229.274 172.502 229.492 172.275 229.746L171.435 228.906C171.82 228.495 172.218 228.18 172.629 227.961C173.041 227.734 173.531 227.62 174.099 227.62C174.904 227.62 175.543 227.852 176.016 228.316C176.497 228.779 176.737 229.401 176.737 230.179C176.737 230.669 176.597 231.172 176.317 231.689C176.046 232.196 175.679 232.717 175.215 233.251C174.76 233.784 174.257 234.344 173.706 234.931C173.924 234.913 174.161 234.896 174.414 234.878C174.668 234.852 174.896 234.839 175.097 234.839H177.144V236.125H171.501ZM180.881 236.283C180.207 236.283 179.638 236.169 179.175 235.941C178.72 235.705 178.343 235.425 178.046 235.101L178.768 234.13C179.022 234.384 179.31 234.602 179.634 234.786C179.958 234.961 180.33 235.049 180.75 235.049C181.205 235.049 181.572 234.939 181.852 234.721C182.141 234.493 182.285 234.182 182.285 233.789C182.285 233.5 182.211 233.251 182.062 233.041C181.922 232.822 181.673 232.656 181.314 232.542C180.964 232.428 180.47 232.371 179.831 232.371V231.269C180.653 231.269 181.222 231.142 181.537 230.888C181.852 230.634 182.01 230.315 182.01 229.93C182.01 229.58 181.9 229.309 181.682 229.116C181.463 228.915 181.161 228.814 180.776 228.814C180.452 228.814 180.155 228.889 179.883 229.037C179.612 229.177 179.35 229.366 179.096 229.602L178.322 228.67C178.68 228.355 179.061 228.101 179.463 227.909C179.875 227.716 180.33 227.62 180.828 227.62C181.633 227.62 182.285 227.812 182.784 228.197C183.283 228.574 183.532 229.116 183.532 229.825C183.532 230.289 183.401 230.682 183.138 231.006C182.885 231.321 182.53 231.566 182.075 231.741V231.794C182.565 231.925 182.977 232.166 183.309 232.516C183.642 232.866 183.808 233.316 183.808 233.867C183.808 234.375 183.672 234.808 183.401 235.167C183.138 235.526 182.784 235.801 182.338 235.994C181.9 236.186 181.415 236.283 180.881 236.283Z" fill="#40424F"/>
<rect x="36.75" y="303.625" width="89.25" height="32.375" rx="0.875" fill="#86AA16"/>
<path d="M73.1527 315.848V324.625H71.9644V320.631H67.2298V324.625H66.0415V315.848H67.2298V319.762H71.9644V315.848H73.1527ZM77.5632 318.322C78.0165 318.322 78.4248 318.398 78.7882 318.549C79.1516 318.7 79.462 318.914 79.7192 319.192C79.9765 319.47 80.1725 319.807 80.3072 320.203C80.4461 320.595 80.5155 321.034 80.5155 321.52C80.5155 322.01 80.4461 322.451 80.3072 322.843C80.1725 323.235 79.9765 323.569 79.7192 323.847C79.462 324.125 79.1516 324.339 78.7882 324.49C78.4248 324.637 78.0165 324.711 77.5632 324.711C77.1059 324.711 76.6935 324.637 76.326 324.49C75.9626 324.339 75.6522 324.125 75.395 323.847C75.1377 323.569 74.9397 323.235 74.8009 322.843C74.6661 322.451 74.5987 322.01 74.5987 321.52C74.5987 321.034 74.6661 320.595 74.8009 320.203C74.9397 319.807 75.1377 319.47 75.395 319.192C75.6522 318.914 75.9626 318.7 76.326 318.549C76.6935 318.398 77.1059 318.322 77.5632 318.322ZM77.5632 323.859C78.1757 323.859 78.6331 323.655 78.9352 323.247C79.2374 322.834 79.3885 322.261 79.3885 321.526C79.3885 320.787 79.2374 320.211 78.9352 319.798C78.6331 319.386 78.1757 319.18 77.5632 319.18C77.2529 319.18 76.9814 319.233 76.7486 319.339C76.5199 319.445 76.328 319.598 76.1729 319.798C76.0218 319.999 75.9074 320.246 75.8299 320.54C75.7564 320.83 75.7196 321.158 75.7196 321.526C75.7196 322.261 75.8707 322.834 76.1729 323.247C76.4791 323.655 76.9426 323.859 77.5632 323.859ZM81.8983 324.625V318.42H82.5537C82.7088 318.42 82.8048 318.496 82.8415 318.647L82.9212 319.284C83.1498 319.002 83.4071 318.772 83.6929 318.592C83.9788 318.412 84.3095 318.322 84.6852 318.322C85.1017 318.322 85.4385 318.439 85.6958 318.671C85.9571 318.904 86.145 319.219 86.2593 319.615C86.3491 319.39 86.4635 319.196 86.6023 319.033C86.7452 318.87 86.9045 318.735 87.08 318.629C87.2556 318.522 87.4414 318.445 87.6374 318.396C87.8375 318.347 88.0396 318.322 88.2438 318.322C88.5705 318.322 88.8604 318.375 89.1135 318.482C89.3708 318.584 89.5872 318.735 89.7628 318.935C89.9425 319.135 90.0793 319.382 90.1732 319.676C90.2671 319.966 90.314 320.299 90.314 320.674V324.625H89.2177V320.674C89.2177 320.188 89.1115 319.821 88.8992 319.572C88.6868 319.319 88.3806 319.192 87.9804 319.192C87.8008 319.192 87.6293 319.225 87.4659 319.29C87.3067 319.351 87.1658 319.443 87.0433 319.566C86.9208 319.688 86.8228 319.843 86.7493 320.031C86.6799 320.215 86.6452 320.429 86.6452 320.674V324.625H85.5488V320.674C85.5488 320.176 85.4488 319.805 85.2487 319.56C85.0486 319.315 84.7566 319.192 84.3728 319.192C84.1033 319.192 83.8542 319.266 83.6255 319.413C83.3969 319.556 83.1866 319.752 82.9947 320.001V324.625H81.8983ZM96.1238 320.846C96.1238 320.593 96.087 320.362 96.0135 320.154C95.9441 319.941 95.84 319.76 95.7012 319.609C95.5664 319.453 95.401 319.335 95.205 319.253C95.009 319.168 94.7865 319.125 94.5374 319.125C94.0148 319.125 93.6003 319.278 93.294 319.584C92.9919 319.886 92.804 320.307 92.7305 320.846H96.1238ZM97.0058 323.755C96.871 323.919 96.7098 324.061 96.5219 324.184C96.3341 324.302 96.132 324.4 95.9155 324.478C95.7032 324.556 95.4827 324.613 95.254 324.65C95.0254 324.69 94.7988 324.711 94.5742 324.711C94.1454 324.711 93.7493 324.639 93.3859 324.496C93.0266 324.349 92.7142 324.137 92.4488 323.859C92.1875 323.578 91.9833 323.231 91.8363 322.818C91.6893 322.406 91.6158 321.932 91.6158 321.397C91.6158 320.964 91.6811 320.56 91.8118 320.184C91.9465 319.809 92.1385 319.484 92.3875 319.21C92.6366 318.933 92.9408 318.716 93.3002 318.561C93.6595 318.402 94.0638 318.322 94.5129 318.322C94.8845 318.322 95.2275 318.386 95.5419 318.512C95.8604 318.635 96.134 318.814 96.3627 319.051C96.5954 319.284 96.7771 319.574 96.9078 319.921C97.0385 320.264 97.1038 320.656 97.1038 321.097C97.1038 321.268 97.0854 321.383 97.0487 321.44C97.0119 321.497 96.9425 321.526 96.8404 321.526H92.6938C92.706 321.918 92.7591 322.259 92.853 322.549C92.951 322.839 93.0858 323.081 93.2573 323.277C93.4288 323.469 93.633 323.614 93.8698 323.712C94.1066 323.806 94.372 323.853 94.666 323.853C94.9396 323.853 95.1744 323.823 95.3704 323.761C95.5705 323.696 95.742 323.627 95.8849 323.553C96.0278 323.48 96.1463 323.412 96.2402 323.351C96.3382 323.286 96.4219 323.253 96.4913 323.253C96.5811 323.253 96.6505 323.288 96.6995 323.357L97.0058 323.755Z" fill="white"/>
<rect x="135.625" y="303.625" width="93.625" height="32.375" rx="0.875" fill="#86AA16"/>
<path d="M155.973 316.534H153.131V324.312H151.949V316.534H149.101V315.535H155.973V316.534ZM156.702 319.351C156.898 318.927 157.139 318.596 157.425 318.359C157.711 318.118 158.06 317.998 158.472 317.998C158.603 317.998 158.727 318.012 158.846 318.04C158.968 318.069 159.076 318.114 159.17 318.175L159.091 318.99C159.066 319.092 159.005 319.143 158.907 319.143C158.85 319.143 158.766 319.131 158.656 319.106C158.546 319.082 158.421 319.069 158.282 319.069C158.086 319.069 157.911 319.098 157.755 319.155C157.604 319.212 157.468 319.298 157.345 319.412C157.227 319.523 157.118 319.662 157.02 319.829C156.927 319.992 156.841 320.18 156.763 320.392V324.312H155.667V318.108H156.292C156.41 318.108 156.492 318.13 156.537 318.175C156.582 318.22 156.612 318.298 156.628 318.408L156.702 319.351ZM163.396 321.519C162.894 321.536 162.465 321.577 162.11 321.642C161.759 321.703 161.471 321.785 161.246 321.887C161.026 321.989 160.864 322.11 160.762 322.248C160.664 322.387 160.615 322.542 160.615 322.714C160.615 322.877 160.642 323.018 160.695 323.136C160.748 323.255 160.819 323.353 160.909 323.43C161.003 323.504 161.111 323.559 161.234 323.596C161.36 323.629 161.495 323.645 161.638 323.645C161.83 323.645 162.006 323.626 162.165 323.59C162.324 323.549 162.473 323.492 162.612 323.418C162.755 323.345 162.89 323.257 163.016 323.155C163.147 323.053 163.273 322.936 163.396 322.806V321.519ZM159.874 318.984C160.217 318.653 160.587 318.406 160.983 318.243C161.379 318.079 161.818 317.998 162.3 317.998C162.647 317.998 162.955 318.055 163.224 318.169C163.494 318.283 163.721 318.443 163.904 318.647C164.088 318.851 164.227 319.098 164.321 319.388C164.415 319.678 164.462 319.996 164.462 320.343V324.312H163.978C163.872 324.312 163.79 324.296 163.733 324.263C163.676 324.227 163.631 324.157 163.598 324.055L163.476 323.467C163.312 323.618 163.153 323.753 162.998 323.871C162.843 323.986 162.679 324.084 162.508 324.165C162.336 324.243 162.153 324.302 161.957 324.343C161.765 324.388 161.55 324.411 161.313 324.411C161.073 324.411 160.846 324.378 160.634 324.312C160.421 324.243 160.235 324.141 160.076 324.006C159.921 323.871 159.796 323.702 159.703 323.498C159.613 323.29 159.568 323.045 159.568 322.763C159.568 322.518 159.635 322.283 159.77 322.058C159.905 321.83 160.123 321.628 160.425 321.452C160.727 321.277 161.122 321.134 161.607 321.023C162.093 320.909 162.69 320.844 163.396 320.827V320.343C163.396 319.862 163.292 319.498 163.084 319.253C162.875 319.004 162.571 318.88 162.171 318.88C161.901 318.88 161.675 318.914 161.491 318.984C161.311 319.049 161.154 319.125 161.019 319.21C160.889 319.292 160.774 319.368 160.676 319.437C160.583 319.502 160.489 319.535 160.395 319.535C160.321 319.535 160.258 319.517 160.205 319.48C160.152 319.439 160.107 319.39 160.07 319.333L159.874 318.984ZM167.151 319.008C167.286 318.857 167.429 318.72 167.58 318.598C167.731 318.475 167.89 318.371 168.058 318.285C168.229 318.196 168.409 318.128 168.597 318.083C168.789 318.034 168.995 318.01 169.216 318.01C169.554 318.01 169.853 318.067 170.11 318.181C170.371 318.292 170.588 318.451 170.759 318.659C170.935 318.863 171.067 319.11 171.157 319.4C171.247 319.69 171.292 320.011 171.292 320.362V324.312H170.196V320.362C170.196 319.892 170.087 319.529 169.871 319.272C169.659 319.01 169.334 318.88 168.897 318.88C168.574 318.88 168.272 318.957 167.991 319.112C167.713 319.268 167.456 319.478 167.219 319.743V324.312H166.122V318.108H166.778C166.933 318.108 167.029 318.183 167.066 318.334L167.151 319.008ZM176.567 319.131C176.518 319.221 176.442 319.265 176.34 319.265C176.279 319.265 176.21 319.243 176.132 319.198C176.055 319.153 175.959 319.104 175.844 319.051C175.734 318.994 175.601 318.943 175.446 318.898C175.291 318.849 175.107 318.824 174.895 318.824C174.711 318.824 174.546 318.849 174.399 318.898C174.252 318.943 174.125 319.006 174.019 319.088C173.917 319.17 173.837 319.265 173.78 319.376C173.727 319.482 173.7 319.598 173.7 319.725C173.7 319.884 173.745 320.017 173.835 320.123C173.929 320.229 174.052 320.321 174.203 320.399C174.354 320.476 174.525 320.546 174.717 320.607C174.909 320.664 175.105 320.727 175.305 320.797C175.509 320.862 175.707 320.936 175.899 321.017C176.091 321.099 176.263 321.201 176.414 321.323C176.565 321.446 176.685 321.597 176.775 321.777C176.869 321.952 176.916 322.165 176.916 322.414C176.916 322.7 176.865 322.965 176.763 323.21C176.661 323.451 176.51 323.661 176.31 323.841C176.11 324.016 175.865 324.155 175.575 324.257C175.285 324.359 174.95 324.411 174.57 324.411C174.137 324.411 173.745 324.341 173.394 324.202C173.043 324.059 172.745 323.878 172.5 323.657L172.757 323.241C172.79 323.188 172.829 323.147 172.874 323.118C172.919 323.09 172.976 323.075 173.045 323.075C173.119 323.075 173.196 323.104 173.278 323.161C173.36 323.218 173.458 323.281 173.572 323.351C173.69 323.42 173.833 323.484 174.001 323.541C174.168 323.598 174.376 323.626 174.625 323.626C174.838 323.626 175.023 323.6 175.183 323.547C175.342 323.49 175.475 323.414 175.581 323.32C175.687 323.226 175.765 323.118 175.814 322.996C175.867 322.873 175.893 322.742 175.893 322.604C175.893 322.432 175.846 322.291 175.752 322.181C175.663 322.067 175.542 321.971 175.391 321.893C175.24 321.811 175.066 321.742 174.87 321.685C174.678 321.624 174.48 321.56 174.276 321.495C174.076 321.43 173.878 321.356 173.682 321.274C173.49 321.189 173.319 321.083 173.168 320.956C173.017 320.829 172.894 320.674 172.8 320.49C172.71 320.303 172.665 320.076 172.665 319.811C172.665 319.574 172.714 319.347 172.812 319.131C172.91 318.91 173.053 318.718 173.241 318.555C173.429 318.388 173.66 318.255 173.933 318.157C174.207 318.059 174.519 318.01 174.87 318.01C175.279 318.01 175.644 318.075 175.967 318.206C176.293 318.332 176.575 318.508 176.812 318.733L176.567 319.131ZM181.615 321.519C181.113 321.536 180.684 321.577 180.329 321.642C179.978 321.703 179.69 321.785 179.466 321.887C179.245 321.989 179.084 322.11 178.982 322.248C178.884 322.387 178.835 322.542 178.835 322.714C178.835 322.877 178.861 323.018 178.914 323.136C178.967 323.255 179.039 323.353 179.129 323.43C179.223 323.504 179.331 323.559 179.453 323.596C179.58 323.629 179.715 323.645 179.858 323.645C180.049 323.645 180.225 323.626 180.384 323.59C180.544 323.549 180.693 323.492 180.831 323.418C180.974 323.345 181.109 323.257 181.236 323.155C181.366 323.053 181.493 322.936 181.615 322.806V321.519ZM178.094 318.984C178.437 318.653 178.806 318.406 179.202 318.243C179.598 318.079 180.037 317.998 180.519 317.998C180.866 317.998 181.174 318.055 181.444 318.169C181.713 318.283 181.94 318.443 182.124 318.647C182.308 318.851 182.446 319.098 182.54 319.388C182.634 319.678 182.681 319.996 182.681 320.343V324.312H182.197C182.091 324.312 182.009 324.296 181.952 324.263C181.895 324.227 181.85 324.157 181.818 324.055L181.695 323.467C181.532 323.618 181.372 323.753 181.217 323.871C181.062 323.986 180.899 324.084 180.727 324.165C180.556 324.243 180.372 324.302 180.176 324.343C179.984 324.388 179.77 324.411 179.533 324.411C179.292 324.411 179.065 324.378 178.853 324.312C178.641 324.243 178.455 324.141 178.296 324.006C178.14 323.871 178.016 323.702 177.922 323.498C177.832 323.29 177.787 323.045 177.787 322.763C177.787 322.518 177.855 322.283 177.989 322.058C178.124 321.83 178.343 321.628 178.645 321.452C178.947 321.277 179.341 321.134 179.827 321.023C180.313 320.909 180.909 320.844 181.615 320.827V320.343C181.615 319.862 181.511 319.498 181.303 319.253C181.095 319.004 180.791 318.88 180.39 318.88C180.121 318.88 179.894 318.914 179.711 318.984C179.531 319.049 179.374 319.125 179.239 319.21C179.108 319.292 178.994 319.368 178.896 319.437C178.802 319.502 178.708 319.535 178.614 319.535C178.541 319.535 178.477 319.517 178.424 319.48C178.371 319.439 178.326 319.39 178.29 319.333L178.094 318.984ZM188.66 319.21C188.627 319.255 188.595 319.29 188.562 319.314C188.529 319.339 188.484 319.351 188.427 319.351C188.366 319.351 188.299 319.327 188.225 319.278C188.152 319.225 188.06 319.167 187.95 319.106C187.843 319.045 187.711 318.99 187.551 318.941C187.396 318.888 187.204 318.861 186.976 318.861C186.669 318.861 186.4 318.916 186.167 319.027C185.934 319.133 185.738 319.288 185.579 319.492C185.424 319.696 185.306 319.943 185.224 320.233C185.146 320.523 185.108 320.848 185.108 321.207C185.108 321.583 185.15 321.918 185.236 322.212C185.322 322.502 185.442 322.747 185.598 322.947C185.757 323.143 185.947 323.294 186.167 323.4C186.392 323.502 186.643 323.553 186.921 323.553C187.186 323.553 187.404 323.522 187.576 323.461C187.747 323.396 187.888 323.324 187.999 323.247C188.113 323.169 188.207 323.1 188.28 323.038C188.358 322.973 188.433 322.94 188.507 322.94C188.597 322.94 188.666 322.975 188.715 323.045L189.021 323.443C188.887 323.61 188.734 323.753 188.562 323.871C188.391 323.99 188.205 324.09 188.005 324.172C187.809 324.249 187.602 324.306 187.386 324.343C187.17 324.38 186.949 324.398 186.725 324.398C186.337 324.398 185.975 324.327 185.64 324.184C185.31 324.041 185.022 323.835 184.777 323.565C184.532 323.292 184.34 322.957 184.201 322.561C184.062 322.165 183.993 321.713 183.993 321.207C183.993 320.746 184.056 320.319 184.183 319.927C184.313 319.535 184.501 319.198 184.746 318.916C184.995 318.631 185.299 318.408 185.659 318.249C186.022 318.089 186.439 318.01 186.908 318.01C187.345 318.01 187.729 318.081 188.06 318.224C188.395 318.363 188.691 318.561 188.948 318.818L188.66 319.21ZM195.949 324.312H194.859V319.02H191.662V322.744C191.662 323.006 191.725 323.2 191.852 323.326C191.978 323.453 192.142 323.516 192.342 323.516C192.456 323.516 192.554 323.502 192.636 323.473C192.721 323.441 192.795 323.406 192.856 323.369C192.917 323.332 192.968 323.3 193.009 323.271C193.054 323.239 193.093 323.222 193.126 323.222C193.183 323.222 193.234 323.257 193.279 323.326L193.597 323.847C193.409 324.023 193.183 324.161 192.917 324.263C192.652 324.362 192.378 324.411 192.097 324.411C191.607 324.411 191.229 324.274 190.964 324C190.702 323.727 190.572 323.332 190.572 322.818V319.02H189.824C189.759 319.02 189.704 319.002 189.659 318.965C189.614 318.925 189.592 318.863 189.592 318.782V318.347L190.608 318.212L190.859 316.301C190.872 316.24 190.898 316.191 190.939 316.154C190.984 316.113 191.041 316.093 191.111 316.093H191.662V318.23H195.949V324.312ZM196.219 316.117C196.219 316.223 196.196 316.323 196.151 316.417C196.111 316.507 196.053 316.587 195.98 316.656C195.91 316.726 195.829 316.781 195.735 316.822C195.641 316.862 195.541 316.883 195.435 316.883C195.329 316.883 195.229 316.862 195.135 316.822C195.045 316.781 194.965 316.726 194.896 316.656C194.826 316.587 194.771 316.507 194.73 316.417C194.69 316.323 194.669 316.223 194.669 316.117C194.669 316.011 194.69 315.911 194.73 315.817C194.771 315.719 194.826 315.635 194.896 315.566C194.965 315.492 195.045 315.435 195.135 315.394C195.229 315.354 195.329 315.333 195.435 315.333C195.541 315.333 195.641 315.354 195.735 315.394C195.829 315.435 195.91 315.492 195.98 315.566C196.053 315.635 196.111 315.719 196.151 315.817C196.196 315.911 196.219 316.011 196.219 316.117ZM200.356 318.01C200.809 318.01 201.217 318.085 201.581 318.236C201.944 318.388 202.254 318.602 202.512 318.88C202.769 319.157 202.965 319.494 203.1 319.89C203.239 320.282 203.308 320.721 203.308 321.207C203.308 321.697 203.239 322.138 203.1 322.53C202.965 322.922 202.769 323.257 202.512 323.535C202.254 323.812 201.944 324.027 201.581 324.178C201.217 324.325 200.809 324.398 200.356 324.398C199.898 324.398 199.486 324.325 199.118 324.178C198.755 324.027 198.445 323.812 198.187 323.535C197.93 323.257 197.732 322.922 197.593 322.53C197.459 322.138 197.391 321.697 197.391 321.207C197.391 320.721 197.459 320.282 197.593 319.89C197.732 319.494 197.93 319.157 198.187 318.88C198.445 318.602 198.755 318.388 199.118 318.236C199.486 318.085 199.898 318.01 200.356 318.01ZM200.356 323.547C200.968 323.547 201.426 323.343 201.728 322.934C202.03 322.522 202.181 321.948 202.181 321.213C202.181 320.474 202.03 319.898 201.728 319.486C201.426 319.074 200.968 318.867 200.356 318.867C200.045 318.867 199.774 318.92 199.541 319.027C199.312 319.133 199.121 319.286 198.965 319.486C198.814 319.686 198.7 319.933 198.622 320.227C198.549 320.517 198.512 320.846 198.512 321.213C198.512 321.948 198.663 322.522 198.965 322.934C199.272 323.343 199.735 323.547 200.356 323.547ZM205.72 319.008C205.855 318.857 205.997 318.72 206.149 318.598C206.3 318.475 206.459 318.371 206.626 318.285C206.798 318.196 206.977 318.128 207.165 318.083C207.357 318.034 207.563 318.01 207.784 318.01C208.123 318.01 208.421 318.067 208.678 318.181C208.939 318.292 209.156 318.451 209.327 318.659C209.503 318.863 209.636 319.11 209.726 319.4C209.815 319.69 209.86 320.011 209.86 320.362V324.312H208.764V320.362C208.764 319.892 208.656 319.529 208.439 319.272C208.227 319.01 207.902 318.88 207.465 318.88C207.143 318.88 206.841 318.957 206.559 319.112C206.281 319.268 206.024 319.478 205.787 319.743V324.312H204.691V318.108H205.346C205.501 318.108 205.597 318.183 205.634 318.334L205.72 319.008ZM215.135 319.131C215.086 319.221 215.011 319.265 214.909 319.265C214.847 319.265 214.778 319.243 214.7 319.198C214.623 319.153 214.527 319.104 214.413 319.051C214.302 318.994 214.17 318.943 214.014 318.898C213.859 318.849 213.676 318.824 213.463 318.824C213.279 318.824 213.114 318.849 212.967 318.898C212.82 318.943 212.694 319.006 212.587 319.088C212.485 319.17 212.406 319.265 212.348 319.376C212.295 319.482 212.269 319.598 212.269 319.725C212.269 319.884 212.314 320.017 212.404 320.123C212.498 320.229 212.62 320.321 212.771 320.399C212.922 320.476 213.094 320.546 213.286 320.607C213.478 320.664 213.674 320.727 213.874 320.797C214.078 320.862 214.276 320.936 214.468 321.017C214.66 321.099 214.831 321.201 214.982 321.323C215.133 321.446 215.254 321.597 215.344 321.777C215.438 321.952 215.484 322.165 215.484 322.414C215.484 322.7 215.433 322.965 215.331 323.21C215.229 323.451 215.078 323.661 214.878 323.841C214.678 324.016 214.433 324.155 214.143 324.257C213.853 324.359 213.518 324.411 213.139 324.411C212.706 324.411 212.314 324.341 211.963 324.202C211.611 324.059 211.313 323.878 211.068 323.657L211.326 323.241C211.358 323.188 211.397 323.147 211.442 323.118C211.487 323.09 211.544 323.075 211.613 323.075C211.687 323.075 211.765 323.104 211.846 323.161C211.928 323.218 212.026 323.281 212.14 323.351C212.259 323.42 212.402 323.484 212.569 323.541C212.736 323.598 212.945 323.626 213.194 323.626C213.406 323.626 213.592 323.6 213.751 323.547C213.91 323.49 214.043 323.414 214.149 323.32C214.255 323.226 214.333 323.118 214.382 322.996C214.435 322.873 214.462 322.742 214.462 322.604C214.462 322.432 214.415 322.291 214.321 322.181C214.231 322.067 214.11 321.971 213.959 321.893C213.808 321.811 213.635 321.742 213.439 321.685C213.247 321.624 213.049 321.56 212.845 321.495C212.645 321.43 212.446 321.356 212.25 321.274C212.059 321.189 211.887 321.083 211.736 320.956C211.585 320.829 211.462 320.674 211.368 320.49C211.279 320.303 211.234 320.076 211.234 319.811C211.234 319.574 211.283 319.347 211.381 319.131C211.479 318.91 211.622 318.718 211.809 318.555C211.997 318.388 212.228 318.255 212.502 318.157C212.775 318.059 213.088 318.01 213.439 318.01C213.847 318.01 214.213 318.075 214.535 318.206C214.862 318.332 215.144 318.508 215.38 318.733L215.135 319.131Z" fill="white"/>
<path d="M27.0989 279.366L25.7208 275.796C25.6799 275.689 25.6371 275.567 25.5921 275.428C25.5472 275.285 25.5044 275.134 25.4635 274.975C25.3778 275.306 25.29 275.581 25.2001 275.802L23.822 279.366H27.0989ZM29.5734 282.625H28.6546C28.5485 282.625 28.4627 282.598 28.3974 282.545C28.3321 282.492 28.2831 282.425 28.2504 282.343L27.4296 280.224H23.4913L22.6705 282.343C22.646 282.417 22.5991 282.482 22.5296 282.539C22.4602 282.596 22.3745 282.625 22.2724 282.625H21.3536L24.8633 273.848H26.0638L29.5734 282.625ZM31.5739 273.603V282.625H30.4836V273.603H31.5739ZM34.4689 273.603V282.625H33.3786V273.603H34.4689ZM47.2357 278.239C47.2357 278.897 47.1316 279.495 46.9233 280.034C46.7151 280.573 46.4211 281.035 46.0413 281.418C45.6616 281.802 45.2042 282.1 44.6693 282.313C44.1385 282.521 43.5505 282.625 42.9053 282.625H39.6284V273.848H42.9053C43.5505 273.848 44.1385 273.954 44.6693 274.166C45.2042 274.375 45.6616 274.673 46.0413 275.061C46.4211 275.444 46.7151 275.906 46.9233 276.445C47.1316 276.984 47.2357 277.582 47.2357 278.239ZM46.0168 278.239C46.0168 277.7 45.9433 277.219 45.7963 276.794C45.6493 276.369 45.4411 276.01 45.1716 275.716C44.9021 275.422 44.5754 275.197 44.1916 275.042C43.8077 274.887 43.379 274.809 42.9053 274.809H40.8167V281.663H42.9053C43.379 281.663 43.8077 281.586 44.1916 281.431C44.5754 281.275 44.9021 281.053 45.1716 280.763C45.4411 280.469 45.6493 280.11 45.7963 279.685C45.9433 279.26 46.0168 278.778 46.0168 278.239ZM51.2219 276.322C51.6752 276.322 52.0835 276.398 52.4469 276.549C52.8103 276.7 53.1207 276.914 53.3779 277.192C53.6352 277.47 53.8312 277.807 53.9659 278.203C54.1048 278.595 54.1742 279.034 54.1742 279.52C54.1742 280.01 54.1048 280.451 53.9659 280.843C53.8312 281.235 53.6352 281.569 53.3779 281.847C53.1207 282.125 52.8103 282.339 52.4469 282.49C52.0835 282.637 51.6752 282.711 51.2219 282.711C50.7646 282.711 50.3522 282.637 49.9847 282.49C49.6213 282.339 49.3109 282.125 49.0537 281.847C48.7964 281.569 48.5984 281.235 48.4595 280.843C48.3248 280.451 48.2574 280.01 48.2574 279.52C48.2574 279.034 48.3248 278.595 48.4595 278.203C48.5984 277.807 48.7964 277.47 49.0537 277.192C49.3109 276.914 49.6213 276.7 49.9847 276.549C50.3522 276.398 50.7646 276.322 51.2219 276.322ZM51.2219 281.859C51.8344 281.859 52.2918 281.655 52.5939 281.247C52.8961 280.834 53.0472 280.261 53.0472 279.526C53.0472 278.787 52.8961 278.211 52.5939 277.798C52.2918 277.386 51.8344 277.18 51.2219 277.18C50.9116 277.18 50.64 277.233 50.4073 277.339C50.1786 277.445 49.9867 277.598 49.8315 277.798C49.6805 277.999 49.5661 278.246 49.4885 278.54C49.415 278.83 49.3783 279.158 49.3783 279.526C49.3783 280.261 49.5294 280.834 49.8315 281.247C50.1378 281.655 50.6013 281.859 51.2219 281.859ZM56.586 277.321C56.7207 277.17 56.8637 277.033 57.0147 276.91C57.1658 276.788 57.3251 276.684 57.4925 276.598C57.664 276.508 57.8437 276.441 58.0315 276.396C58.2234 276.347 58.4296 276.322 58.6501 276.322C58.989 276.322 59.2871 276.38 59.5444 276.494C59.8057 276.604 60.0221 276.763 60.1936 276.972C60.3692 277.176 60.5019 277.423 60.5917 277.713C60.6816 278.003 60.7265 278.323 60.7265 278.674V282.625H59.6301V278.674C59.6301 278.205 59.5219 277.841 59.3055 277.584C59.0932 277.323 58.7685 277.192 58.3316 277.192C58.009 277.192 57.7069 277.27 57.4251 277.425C57.1474 277.58 56.8902 277.79 56.6534 278.056V282.625H55.557V276.42H56.2124C56.3675 276.42 56.4635 276.496 56.5002 276.647L56.586 277.321ZM66.5405 278.846C66.5405 278.593 66.5038 278.362 66.4303 278.154C66.3609 277.941 66.2568 277.76 66.1179 277.609C65.9832 277.453 65.8178 277.335 65.6218 277.253C65.4258 277.168 65.2033 277.125 64.9542 277.125C64.4315 277.125 64.017 277.278 63.7108 277.584C63.4086 277.886 63.2208 278.307 63.1473 278.846H66.5405ZM67.4225 281.755C67.2878 281.919 67.1265 282.061 66.9387 282.184C66.7508 282.302 66.5487 282.4 66.3323 282.478C66.12 282.556 65.8995 282.613 65.6708 282.65C65.4421 282.69 65.2155 282.711 64.9909 282.711C64.5622 282.711 64.1661 282.639 63.8027 282.496C63.4433 282.349 63.131 282.137 62.8655 281.859C62.6042 281.578 62.4 281.231 62.253 280.818C62.106 280.406 62.0325 279.932 62.0325 279.397C62.0325 278.964 62.0979 278.56 62.2285 278.184C62.3633 277.809 62.5552 277.484 62.8043 277.21C63.0534 276.933 63.3576 276.716 63.7169 276.561C64.0763 276.402 64.4805 276.322 64.9297 276.322C65.3013 276.322 65.6443 276.386 65.9587 276.512C66.2772 276.635 66.5508 276.814 66.7794 277.051C67.0122 277.284 67.1939 277.574 67.3245 277.921C67.4552 278.264 67.5205 278.656 67.5205 279.097C67.5205 279.268 67.5022 279.383 67.4654 279.44C67.4287 279.497 67.3593 279.526 67.2572 279.526H63.1105C63.1228 279.918 63.1759 280.259 63.2698 280.549C63.3678 280.839 63.5025 281.081 63.674 281.277C63.8455 281.469 64.0497 281.614 64.2865 281.712C64.5234 281.806 64.7888 281.853 65.0828 281.853C65.3564 281.853 65.5912 281.823 65.7872 281.761C65.9873 281.696 66.1588 281.627 66.3017 281.553C66.4446 281.48 66.563 281.412 66.6569 281.351C66.7549 281.286 66.8386 281.253 66.908 281.253C66.9979 281.253 67.0673 281.288 67.1163 281.357L67.4225 281.755ZM70.1705 273.848V277.351C70.1705 277.535 70.1664 277.715 70.1582 277.89C70.1501 278.066 70.1398 278.244 70.1276 278.423C70.1153 278.599 70.099 278.781 70.0786 278.968C70.0623 279.152 70.0418 279.35 70.0173 279.562H69.2823C69.2578 279.35 69.2354 279.152 69.215 278.968C69.1986 278.781 69.1843 278.599 69.1721 278.423C69.1598 278.244 69.1496 278.066 69.1415 277.89C69.1333 277.715 69.1292 277.535 69.1292 277.351V273.848H70.1705ZM68.8658 281.951C68.8658 281.845 68.8842 281.745 68.921 281.651C68.9618 281.557 69.0169 281.476 69.0863 281.406C69.1558 281.337 69.2354 281.282 69.3252 281.241C69.4191 281.2 69.5212 281.179 69.6315 281.179C69.7376 281.179 69.8356 281.2 69.9255 281.241C70.0194 281.282 70.1011 281.337 70.1705 281.406C70.2399 281.476 70.295 281.557 70.3358 281.651C70.3767 281.745 70.3971 281.845 70.3971 281.951C70.3971 282.061 70.3767 282.164 70.3358 282.257C70.295 282.347 70.2399 282.427 70.1705 282.496C70.1011 282.566 70.0194 282.619 69.9255 282.656C69.8356 282.696 69.7376 282.717 69.6315 282.717C69.5212 282.717 69.4191 282.696 69.3252 282.656C69.2354 282.619 69.1558 282.566 69.0863 282.496C69.0169 282.427 68.9618 282.347 68.921 282.257C68.8842 282.164 68.8658 282.061 68.8658 281.951ZM80.5207 281.627V282.625H75.541V273.848H76.7232V281.627H80.5207ZM85.2864 278.846C85.2864 278.593 85.2496 278.362 85.1761 278.154C85.1067 277.941 85.0026 277.76 84.8638 277.609C84.729 277.453 84.5636 277.335 84.3676 277.253C84.1716 277.168 83.9491 277.125 83.7 277.125C83.1774 277.125 82.7629 277.278 82.4566 277.584C82.1545 277.886 81.9666 278.307 81.8931 278.846H85.2864ZM86.1684 281.755C86.0336 281.919 85.8724 282.061 85.6845 282.184C85.4967 282.302 85.2946 282.4 85.0781 282.478C84.8658 282.556 84.6453 282.613 84.4166 282.65C84.188 282.69 83.9614 282.711 83.7368 282.711C83.308 282.711 82.9119 282.639 82.5485 282.496C82.1892 282.349 81.8768 282.137 81.6114 281.859C81.3501 281.578 81.1459 281.231 80.9989 280.818C80.8519 280.406 80.7784 279.932 80.7784 279.397C80.7784 278.964 80.8437 278.56 80.9744 278.184C81.1091 277.809 81.3011 277.484 81.5501 277.21C81.7992 276.933 82.1034 276.716 82.4628 276.561C82.8221 276.402 83.2264 276.322 83.6755 276.322C84.0471 276.322 84.3901 276.386 84.7045 276.512C85.023 276.635 85.2966 276.814 85.5253 277.051C85.758 277.284 85.9397 277.574 86.0704 277.921C86.2011 278.264 86.2664 278.656 86.2664 279.097C86.2664 279.268 86.248 279.383 86.2113 279.44C86.1745 279.497 86.1051 279.526 86.003 279.526H81.8564C81.8686 279.918 81.9217 280.259 82.0156 280.549C82.1136 280.839 82.2484 281.081 82.4199 281.277C82.5914 281.469 82.7956 281.614 83.0324 281.712C83.2692 281.806 83.5346 281.853 83.8286 281.853C84.1022 281.853 84.337 281.823 84.533 281.761C84.7331 281.696 84.9046 281.627 85.0475 281.553C85.1904 281.48 85.3089 281.412 85.4028 281.351C85.5008 281.286 85.5845 281.253 85.6539 281.253C85.7437 281.253 85.8131 281.288 85.8621 281.357L86.1684 281.755ZM89.4626 282.723C88.9726 282.723 88.5949 282.586 88.3295 282.313C88.0681 282.039 87.9375 281.645 87.9375 281.13V277.333H87.1902C87.1249 277.333 87.0698 277.315 87.0248 277.278C86.9799 277.237 86.9575 277.176 86.9575 277.094V276.659L87.9742 276.531L88.2253 274.613C88.2376 274.552 88.2641 274.503 88.305 274.466C88.3499 274.426 88.4071 274.405 88.4765 274.405H89.0277V276.543H90.8223V277.333H89.0277V281.057C89.0277 281.318 89.091 281.512 89.2176 281.639C89.3442 281.765 89.5075 281.829 89.7076 281.829C89.8219 281.829 89.9199 281.814 90.0016 281.786C90.0873 281.753 90.1608 281.718 90.2221 281.682C90.2833 281.645 90.3344 281.612 90.3752 281.584C90.4201 281.551 90.4589 281.535 90.4916 281.535C90.5488 281.535 90.5998 281.569 90.6447 281.639L90.9632 282.159C90.7754 282.335 90.5488 282.474 90.2833 282.576C90.0179 282.674 89.7443 282.723 89.4626 282.723ZM100.185 276.42V282.625H99.5353C99.3801 282.625 99.2821 282.549 99.2413 282.398L99.1555 281.731C98.886 282.029 98.5838 282.27 98.249 282.453C97.9142 282.633 97.5303 282.723 97.0975 282.723C96.7586 282.723 96.4585 282.668 96.1971 282.558C95.9399 282.443 95.7235 282.284 95.5479 282.08C95.3723 281.876 95.2396 281.629 95.1498 281.339C95.064 281.049 95.0211 280.728 95.0211 280.377V276.42H96.1114V280.377C96.1114 280.847 96.2175 281.21 96.4299 281.467C96.6463 281.725 96.975 281.853 97.416 281.853C97.7386 281.853 98.0387 281.778 98.3164 281.627C98.5981 281.471 98.8574 281.259 99.0943 280.99V276.42H100.185ZM105.527 277.443C105.478 277.533 105.402 277.578 105.3 277.578C105.239 277.578 105.17 277.556 105.092 277.511C105.014 277.466 104.919 277.417 104.804 277.364C104.694 277.306 104.561 277.255 104.406 277.21C104.251 277.161 104.067 277.137 103.855 277.137C103.671 277.137 103.506 277.161 103.359 277.21C103.212 277.255 103.085 277.319 102.979 277.4C102.877 277.482 102.797 277.578 102.74 277.688C102.687 277.794 102.66 277.911 102.66 278.037C102.66 278.197 102.705 278.329 102.795 278.435C102.889 278.542 103.012 278.634 103.163 278.711C103.314 278.789 103.485 278.858 103.677 278.919C103.869 278.977 104.065 279.04 104.265 279.109C104.469 279.175 104.667 279.248 104.859 279.33C105.051 279.411 105.223 279.513 105.374 279.636C105.525 279.758 105.645 279.91 105.735 280.089C105.829 280.265 105.876 280.477 105.876 280.726C105.876 281.012 105.825 281.277 105.723 281.522C105.621 281.763 105.47 281.974 105.27 282.153C105.07 282.329 104.825 282.468 104.535 282.57C104.245 282.672 103.91 282.723 103.53 282.723C103.097 282.723 102.705 282.654 102.354 282.515C102.003 282.372 101.705 282.19 101.46 281.97L101.717 281.553C101.75 281.5 101.789 281.459 101.834 281.431C101.878 281.402 101.936 281.388 102.005 281.388C102.079 281.388 102.156 281.416 102.238 281.473C102.319 281.531 102.417 281.594 102.532 281.663C102.65 281.733 102.793 281.796 102.961 281.853C103.128 281.91 103.336 281.939 103.585 281.939C103.798 281.939 103.983 281.912 104.143 281.859C104.302 281.802 104.435 281.727 104.541 281.633C104.647 281.539 104.725 281.431 104.774 281.308C104.827 281.186 104.853 281.055 104.853 280.916C104.853 280.745 104.806 280.604 104.712 280.493C104.622 280.379 104.502 280.283 104.351 280.206C104.2 280.124 104.026 280.055 103.83 279.997C103.638 279.936 103.44 279.873 103.236 279.807C103.036 279.742 102.838 279.669 102.642 279.587C102.45 279.501 102.279 279.395 102.128 279.268C101.976 279.142 101.854 278.987 101.76 278.803C101.67 278.615 101.625 278.389 101.625 278.123C101.625 277.886 101.674 277.66 101.772 277.443C101.87 277.223 102.013 277.031 102.201 276.867C102.389 276.7 102.62 276.567 102.893 276.469C103.167 276.371 103.479 276.322 103.83 276.322C104.239 276.322 104.604 276.388 104.927 276.518C105.253 276.645 105.535 276.821 105.772 277.045L105.527 277.443ZM114.665 277.523C114.632 277.568 114.6 277.602 114.567 277.627C114.534 277.651 114.49 277.664 114.432 277.664C114.371 277.664 114.304 277.639 114.23 277.59C114.157 277.537 114.065 277.48 113.955 277.419C113.848 277.357 113.716 277.302 113.557 277.253C113.401 277.2 113.209 277.174 112.981 277.174C112.675 277.174 112.405 277.229 112.172 277.339C111.94 277.445 111.744 277.6 111.584 277.805C111.429 278.009 111.311 278.256 111.229 278.546C111.151 278.836 111.113 279.16 111.113 279.52C111.113 279.895 111.156 280.23 111.241 280.524C111.327 280.814 111.447 281.059 111.603 281.259C111.762 281.455 111.952 281.606 112.172 281.712C112.397 281.814 112.648 281.865 112.926 281.865C113.191 281.865 113.41 281.835 113.581 281.774C113.753 281.708 113.893 281.637 114.004 281.559C114.118 281.482 114.212 281.412 114.285 281.351C114.363 281.286 114.439 281.253 114.512 281.253C114.602 281.253 114.671 281.288 114.72 281.357L115.027 281.755C114.892 281.923 114.739 282.066 114.567 282.184C114.396 282.302 114.21 282.402 114.01 282.484C113.814 282.562 113.608 282.619 113.391 282.656C113.175 282.692 112.954 282.711 112.73 282.711C112.342 282.711 111.98 282.639 111.646 282.496C111.315 282.353 111.027 282.147 110.782 281.878C110.537 281.604 110.345 281.269 110.206 280.873C110.067 280.477 109.998 280.026 109.998 279.52C109.998 279.058 110.061 278.631 110.188 278.239C110.318 277.847 110.506 277.511 110.751 277.229C111 276.943 111.305 276.72 111.664 276.561C112.027 276.402 112.444 276.322 112.913 276.322C113.35 276.322 113.734 276.394 114.065 276.537C114.4 276.676 114.696 276.874 114.953 277.131L114.665 277.523ZM118.705 276.322C119.158 276.322 119.566 276.398 119.93 276.549C120.293 276.7 120.603 276.914 120.861 277.192C121.118 277.47 121.314 277.807 121.449 278.203C121.587 278.595 121.657 279.034 121.657 279.52C121.657 280.01 121.587 280.451 121.449 280.843C121.314 281.235 121.118 281.569 120.861 281.847C120.603 282.125 120.293 282.339 119.93 282.49C119.566 282.637 119.158 282.711 118.705 282.711C118.247 282.711 117.835 282.637 117.467 282.49C117.104 282.339 116.794 282.125 116.536 281.847C116.279 281.569 116.081 281.235 115.942 280.843C115.807 280.451 115.74 280.01 115.74 279.52C115.74 279.034 115.807 278.595 115.942 278.203C116.081 277.807 116.279 277.47 116.536 277.192C116.794 276.914 117.104 276.7 117.467 276.549C117.835 276.398 118.247 276.322 118.705 276.322ZM118.705 281.859C119.317 281.859 119.774 281.655 120.077 281.247C120.379 280.834 120.53 280.261 120.53 279.526C120.53 278.787 120.379 278.211 120.077 277.798C119.774 277.386 119.317 277.18 118.705 277.18C118.394 277.18 118.123 277.233 117.89 277.339C117.661 277.445 117.469 277.598 117.314 277.798C117.163 277.999 117.049 278.246 116.971 278.54C116.898 278.83 116.861 279.158 116.861 279.526C116.861 280.261 117.012 280.834 117.314 281.247C117.62 281.655 118.084 281.859 118.705 281.859ZM124.069 277.321C124.203 277.17 124.346 277.033 124.497 276.91C124.648 276.788 124.808 276.684 124.975 276.598C125.147 276.508 125.326 276.441 125.514 276.396C125.706 276.347 125.912 276.322 126.133 276.322C126.472 276.322 126.77 276.38 127.027 276.494C127.288 276.604 127.505 276.763 127.676 276.972C127.852 277.176 127.985 277.423 128.074 277.713C128.164 278.003 128.209 278.323 128.209 278.674V282.625H127.113V278.674C127.113 278.205 127.005 277.841 126.788 277.584C126.576 277.323 126.251 277.192 125.814 277.192C125.492 277.192 125.19 277.27 124.908 277.425C124.63 277.58 124.373 277.79 124.136 278.056V282.625H123.04V276.42H123.695C123.85 276.42 123.946 276.496 123.983 276.647L124.069 277.321ZM130.191 282.625V277.351L129.505 277.272C129.415 277.251 129.344 277.221 129.291 277.18C129.238 277.135 129.211 277.072 129.211 276.99V276.543H130.191V276.2C130.191 275.82 130.25 275.473 130.369 275.159C130.487 274.84 130.665 274.567 130.902 274.338C131.139 274.109 131.433 273.932 131.784 273.805C132.139 273.678 132.549 273.615 133.015 273.615C133.17 273.615 133.329 273.625 133.493 273.646C133.656 273.666 133.797 273.697 133.915 273.738L133.872 274.307C133.868 274.348 133.852 274.377 133.823 274.393C133.799 274.409 133.764 274.42 133.719 274.424C133.674 274.428 133.617 274.43 133.548 274.43C133.482 274.426 133.407 274.424 133.321 274.424C132.594 274.424 132.068 274.575 131.741 274.877C131.414 275.175 131.251 275.626 131.251 276.23V276.543H134.999V282.625H133.903V277.333H131.282V282.625H130.191ZM137.82 277.664C138.016 277.239 138.257 276.908 138.543 276.671C138.829 276.431 139.178 276.31 139.59 276.31C139.721 276.31 139.845 276.324 139.964 276.353C140.086 276.382 140.195 276.426 140.289 276.488L140.209 277.302C140.184 277.404 140.123 277.455 140.025 277.455C139.968 277.455 139.884 277.443 139.774 277.419C139.664 277.394 139.539 277.382 139.4 277.382C139.204 277.382 139.029 277.411 138.874 277.468C138.723 277.525 138.586 277.611 138.463 277.725C138.345 277.835 138.237 277.974 138.139 278.141C138.045 278.305 137.959 278.493 137.881 278.705V282.625H136.785V276.42H137.41C137.528 276.42 137.61 276.443 137.655 276.488C137.7 276.533 137.73 276.61 137.747 276.72L137.82 277.664ZM141.247 282.625V276.42H141.903C142.058 276.42 142.154 276.496 142.19 276.647L142.27 277.284C142.499 277.002 142.756 276.772 143.042 276.592C143.328 276.412 143.658 276.322 144.034 276.322C144.451 276.322 144.787 276.439 145.045 276.671C145.306 276.904 145.494 277.219 145.608 277.615C145.698 277.39 145.812 277.196 145.951 277.033C146.094 276.87 146.253 276.735 146.429 276.629C146.605 276.522 146.79 276.445 146.986 276.396C147.186 276.347 147.389 276.322 147.593 276.322C147.919 276.322 148.209 276.375 148.462 276.482C148.72 276.584 148.936 276.735 149.112 276.935C149.291 277.135 149.428 277.382 149.522 277.676C149.616 277.966 149.663 278.299 149.663 278.674V282.625H148.567V278.674C148.567 278.188 148.46 277.821 148.248 277.572C148.036 277.319 147.729 277.192 147.329 277.192C147.15 277.192 146.978 277.225 146.815 277.29C146.656 277.351 146.515 277.443 146.392 277.566C146.27 277.688 146.172 277.843 146.098 278.031C146.029 278.215 145.994 278.429 145.994 278.674V282.625H144.898V278.674C144.898 278.176 144.798 277.805 144.598 277.56C144.397 277.315 144.106 277.192 143.722 277.192C143.452 277.192 143.203 277.266 142.974 277.413C142.746 277.556 142.535 277.752 142.344 278.001V282.625H141.247ZM159.496 276.42L156.036 284.456C155.999 284.538 155.952 284.603 155.895 284.652C155.842 284.701 155.758 284.726 155.644 284.726H154.835L155.968 282.264L153.408 276.42H154.351C154.445 276.42 154.519 276.445 154.572 276.494C154.629 276.539 154.668 276.59 154.688 276.647L156.348 280.555C156.413 280.726 156.469 280.906 156.514 281.094C156.571 280.902 156.632 280.72 156.697 280.549L158.308 276.647C158.333 276.582 158.373 276.529 158.431 276.488C158.492 276.443 158.559 276.42 158.633 276.42H159.496ZM162.907 276.322C163.361 276.322 163.769 276.398 164.132 276.549C164.496 276.7 164.806 276.914 165.063 277.192C165.321 277.47 165.517 277.807 165.651 278.203C165.79 278.595 165.86 279.034 165.86 279.52C165.86 280.01 165.79 280.451 165.651 280.843C165.517 281.235 165.321 281.569 165.063 281.847C164.806 282.125 164.496 282.339 164.132 282.49C163.769 282.637 163.361 282.711 162.907 282.711C162.45 282.711 162.038 282.637 161.67 282.49C161.307 282.339 160.996 282.125 160.739 281.847C160.482 281.569 160.284 281.235 160.145 280.843C160.01 280.451 159.943 280.01 159.943 279.52C159.943 279.034 160.01 278.595 160.145 278.203C160.284 277.807 160.482 277.47 160.739 277.192C160.996 276.914 161.307 276.7 161.67 276.549C162.038 276.398 162.45 276.322 162.907 276.322ZM162.907 281.859C163.52 281.859 163.977 281.655 164.279 281.247C164.582 280.834 164.733 280.261 164.733 279.526C164.733 278.787 164.582 278.211 164.279 277.798C163.977 277.386 163.52 277.18 162.907 277.18C162.597 277.18 162.326 277.233 162.093 277.339C161.864 277.445 161.672 277.598 161.517 277.798C161.366 277.999 161.252 278.246 161.174 278.54C161.101 278.83 161.064 279.158 161.064 279.526C161.064 280.261 161.215 280.834 161.517 281.247C161.823 281.655 162.287 281.859 162.907 281.859ZM172.345 276.42V282.625H171.695C171.54 282.625 171.442 282.549 171.401 282.398L171.316 281.731C171.046 282.029 170.744 282.27 170.409 282.453C170.074 282.633 169.69 282.723 169.258 282.723C168.919 282.723 168.619 282.668 168.357 282.558C168.1 282.443 167.884 282.284 167.708 282.08C167.532 281.876 167.4 281.629 167.31 281.339C167.224 281.049 167.181 280.728 167.181 280.377V276.42H168.272V280.377C168.272 280.847 168.378 281.21 168.59 281.467C168.806 281.725 169.135 281.853 169.576 281.853C169.899 281.853 170.199 281.778 170.477 281.627C170.758 281.471 171.018 281.259 171.254 280.99V276.42H172.345ZM175.108 277.664C175.304 277.239 175.545 276.908 175.831 276.671C176.117 276.431 176.466 276.31 176.879 276.31C177.009 276.31 177.134 276.324 177.252 276.353C177.375 276.382 177.483 276.426 177.577 276.488L177.497 277.302C177.473 277.404 177.411 277.455 177.313 277.455C177.256 277.455 177.173 277.443 177.062 277.419C176.952 277.394 176.828 277.382 176.689 277.382C176.493 277.382 176.317 277.411 176.162 277.468C176.011 277.525 175.874 277.611 175.752 277.725C175.633 277.835 175.525 277.974 175.427 278.141C175.333 278.305 175.247 278.493 175.17 278.705V282.625H174.073V276.42H174.698C174.817 276.42 174.898 276.443 174.943 276.488C174.988 276.533 175.019 276.61 175.035 276.72L175.108 277.664ZM183.311 282.723C182.821 282.723 182.444 282.586 182.178 282.313C181.917 282.039 181.786 281.645 181.786 281.13V277.333H181.039C180.974 277.333 180.919 277.315 180.874 277.278C180.829 277.237 180.806 277.176 180.806 277.094V276.659L181.823 276.531L182.074 274.613C182.086 274.552 182.113 274.503 182.154 274.466C182.199 274.426 182.256 274.405 182.325 274.405H182.877V276.543H184.671V277.333H182.877V281.057C182.877 281.318 182.94 281.512 183.066 281.639C183.193 281.765 183.356 281.829 183.556 281.829C183.671 281.829 183.769 281.814 183.85 281.786C183.936 281.753 184.01 281.718 184.071 281.682C184.132 281.645 184.183 281.612 184.224 281.584C184.269 281.551 184.308 281.535 184.34 281.535C184.398 281.535 184.449 281.569 184.494 281.639L184.812 282.159C184.624 282.335 184.398 282.474 184.132 282.576C183.867 282.674 183.593 282.723 183.311 282.723ZM186.832 277.664C187.028 277.239 187.269 276.908 187.555 276.671C187.841 276.431 188.19 276.31 188.602 276.31C188.733 276.31 188.857 276.324 188.976 276.353C189.098 276.382 189.207 276.426 189.3 276.488L189.221 277.302C189.196 277.404 189.135 277.455 189.037 277.455C188.98 277.455 188.896 277.443 188.786 277.419C188.676 277.394 188.551 277.382 188.412 277.382C188.216 277.382 188.041 277.411 187.886 277.468C187.735 277.525 187.598 277.611 187.475 277.725C187.357 277.835 187.249 277.974 187.151 278.141C187.057 278.305 186.971 278.493 186.893 278.705V282.625H185.797V276.42H186.422C186.54 276.42 186.622 276.443 186.667 276.488C186.712 276.533 186.742 276.61 186.759 276.72L186.832 277.664ZM193.526 279.832C193.024 279.848 192.595 279.889 192.24 279.954C191.889 280.016 191.601 280.097 191.376 280.199C191.156 280.302 190.994 280.422 190.892 280.561C190.794 280.7 190.745 280.855 190.745 281.026C190.745 281.19 190.772 281.331 190.825 281.449C190.878 281.567 190.949 281.665 191.039 281.743C191.133 281.816 191.241 281.872 191.364 281.908C191.491 281.941 191.625 281.957 191.768 281.957C191.96 281.957 192.136 281.939 192.295 281.902C192.454 281.861 192.603 281.804 192.742 281.731C192.885 281.657 193.02 281.569 193.146 281.467C193.277 281.365 193.404 281.249 193.526 281.118V279.832ZM190.004 277.296C190.347 276.965 190.717 276.718 191.113 276.555C191.509 276.392 191.948 276.31 192.43 276.31C192.777 276.31 193.085 276.367 193.355 276.482C193.624 276.596 193.851 276.755 194.034 276.959C194.218 277.164 194.357 277.411 194.451 277.7C194.545 277.99 194.592 278.309 194.592 278.656V282.625H194.108C194.002 282.625 193.92 282.609 193.863 282.576C193.806 282.539 193.761 282.47 193.728 282.368L193.606 281.78C193.442 281.931 193.283 282.066 193.128 282.184C192.973 282.298 192.809 282.396 192.638 282.478C192.466 282.556 192.283 282.615 192.087 282.656C191.895 282.701 191.68 282.723 191.444 282.723C191.203 282.723 190.976 282.69 190.764 282.625C190.551 282.556 190.366 282.453 190.206 282.319C190.051 282.184 189.927 282.015 189.833 281.81C189.743 281.602 189.698 281.357 189.698 281.075C189.698 280.83 189.765 280.596 189.9 280.371C190.035 280.142 190.253 279.94 190.555 279.765C190.858 279.589 191.252 279.446 191.738 279.336C192.223 279.222 192.82 279.156 193.526 279.14V278.656C193.526 278.174 193.422 277.811 193.214 277.566C193.005 277.317 192.701 277.192 192.301 277.192C192.032 277.192 191.805 277.227 191.621 277.296C191.442 277.362 191.284 277.437 191.15 277.523C191.019 277.605 190.905 277.68 190.807 277.749C190.713 277.815 190.619 277.847 190.525 277.847C190.451 277.847 190.388 277.829 190.335 277.792C190.282 277.752 190.237 277.703 190.2 277.645L190.004 277.296ZM197.282 277.321C197.416 277.17 197.559 277.033 197.71 276.91C197.861 276.788 198.021 276.684 198.188 276.598C198.36 276.508 198.539 276.441 198.727 276.396C198.919 276.347 199.125 276.322 199.346 276.322C199.685 276.322 199.983 276.38 200.24 276.494C200.501 276.604 200.718 276.763 200.889 276.972C201.065 277.176 201.197 277.423 201.287 277.713C201.377 278.003 201.422 278.323 201.422 278.674V282.625H200.326V278.674C200.326 278.205 200.217 277.841 200.001 277.584C199.789 277.323 199.464 277.192 199.027 277.192C198.705 277.192 198.402 277.27 198.121 277.425C197.843 277.58 197.586 277.79 197.349 278.056V282.625H196.253V276.42H196.908C197.063 276.42 197.159 276.496 197.196 276.647L197.282 277.321ZM206.697 277.443C206.648 277.533 206.573 277.578 206.47 277.578C206.409 277.578 206.34 277.556 206.262 277.511C206.185 277.466 206.089 277.417 205.974 277.364C205.864 277.306 205.731 277.255 205.576 277.21C205.421 277.161 205.237 277.137 205.025 277.137C204.841 277.137 204.676 277.161 204.529 277.21C204.382 277.255 204.255 277.319 204.149 277.4C204.047 277.482 203.967 277.578 203.91 277.688C203.857 277.794 203.831 277.911 203.831 278.037C203.831 278.197 203.876 278.329 203.965 278.435C204.059 278.542 204.182 278.634 204.333 278.711C204.484 278.789 204.655 278.858 204.847 278.919C205.039 278.977 205.235 279.04 205.435 279.109C205.64 279.175 205.838 279.248 206.029 279.33C206.221 279.411 206.393 279.513 206.544 279.636C206.695 279.758 206.816 279.91 206.905 280.089C206.999 280.265 207.046 280.477 207.046 280.726C207.046 281.012 206.995 281.277 206.893 281.522C206.791 281.763 206.64 281.974 206.44 282.153C206.24 282.329 205.995 282.468 205.705 282.57C205.415 282.672 205.08 282.723 204.7 282.723C204.268 282.723 203.876 282.654 203.524 282.515C203.173 282.372 202.875 282.19 202.63 281.97L202.887 281.553C202.92 281.5 202.959 281.459 203.004 281.431C203.049 281.402 203.106 281.388 203.175 281.388C203.249 281.388 203.326 281.416 203.408 281.473C203.49 281.531 203.588 281.594 203.702 281.663C203.82 281.733 203.963 281.796 204.131 281.853C204.298 281.91 204.506 281.939 204.755 281.939C204.968 281.939 205.154 281.912 205.313 281.859C205.472 281.802 205.605 281.727 205.711 281.633C205.817 281.539 205.895 281.431 205.944 281.308C205.997 281.186 206.023 281.055 206.023 280.916C206.023 280.745 205.976 280.604 205.882 280.493C205.793 280.379 205.672 280.283 205.521 280.206C205.37 280.124 205.196 280.055 205 279.997C204.809 279.936 204.611 279.873 204.406 279.807C204.206 279.742 204.008 279.669 203.812 279.587C203.62 279.501 203.449 279.395 203.298 279.268C203.147 279.142 203.024 278.987 202.93 278.803C202.84 278.615 202.795 278.389 202.795 278.123C202.795 277.886 202.844 277.66 202.942 277.443C203.04 277.223 203.183 277.031 203.371 276.867C203.559 276.7 203.79 276.567 204.063 276.469C204.337 276.371 204.649 276.322 205 276.322C205.409 276.322 205.774 276.388 206.097 276.518C206.424 276.645 206.705 276.821 206.942 277.045L206.697 277.443ZM211.746 279.832C211.243 279.848 210.815 279.889 210.459 279.954C210.108 280.016 209.82 280.097 209.596 280.199C209.375 280.302 209.214 280.422 209.112 280.561C209.014 280.7 208.965 280.855 208.965 281.026C208.965 281.19 208.991 281.331 209.044 281.449C209.097 281.567 209.169 281.665 209.259 281.743C209.353 281.816 209.461 281.872 209.583 281.908C209.71 281.941 209.845 281.957 209.988 281.957C210.18 281.957 210.355 281.939 210.514 281.902C210.674 281.861 210.823 281.804 210.962 281.731C211.104 281.657 211.239 281.569 211.366 281.467C211.496 281.365 211.623 281.249 211.746 281.118V279.832ZM208.224 277.296C208.567 276.965 208.936 276.718 209.332 276.555C209.728 276.392 210.167 276.31 210.649 276.31C210.996 276.31 211.305 276.367 211.574 276.482C211.844 276.596 212.07 276.755 212.254 276.959C212.438 277.164 212.576 277.411 212.67 277.7C212.764 277.99 212.811 278.309 212.811 278.656V282.625H212.327C212.221 282.625 212.14 282.609 212.082 282.576C212.025 282.539 211.98 282.47 211.948 282.368L211.825 281.78C211.662 281.931 211.503 282.066 211.347 282.184C211.192 282.298 211.029 282.396 210.857 282.478C210.686 282.556 210.502 282.615 210.306 282.656C210.114 282.701 209.9 282.723 209.663 282.723C209.422 282.723 209.195 282.69 208.983 282.625C208.771 282.556 208.585 282.453 208.426 282.319C208.271 282.184 208.146 282.015 208.052 281.81C207.962 281.602 207.917 281.357 207.917 281.075C207.917 280.83 207.985 280.596 208.12 280.371C208.254 280.142 208.473 279.94 208.775 279.765C209.077 279.589 209.471 279.446 209.957 279.336C210.443 279.222 211.039 279.156 211.746 279.14V278.656C211.746 278.174 211.641 277.811 211.433 277.566C211.225 277.317 210.921 277.192 210.521 277.192C210.251 277.192 210.024 277.227 209.841 277.296C209.661 277.362 209.504 277.437 209.369 277.523C209.238 277.605 209.124 277.68 209.026 277.749C208.932 277.815 208.838 277.847 208.744 277.847C208.671 277.847 208.607 277.829 208.554 277.792C208.501 277.752 208.456 277.703 208.42 277.645L208.224 277.296ZM218.79 277.523C218.757 277.568 218.725 277.602 218.692 277.627C218.659 277.651 218.615 277.664 218.557 277.664C218.496 277.664 218.429 277.639 218.355 277.59C218.282 277.537 218.19 277.48 218.08 277.419C217.973 277.357 217.841 277.302 217.682 277.253C217.526 277.2 217.334 277.174 217.106 277.174C216.8 277.174 216.53 277.229 216.297 277.339C216.065 277.445 215.869 277.6 215.709 277.805C215.554 278.009 215.436 278.256 215.354 278.546C215.276 278.836 215.238 279.16 215.238 279.52C215.238 279.895 215.281 280.23 215.366 280.524C215.452 280.814 215.572 281.059 215.728 281.259C215.887 281.455 216.077 281.606 216.297 281.712C216.522 281.814 216.773 281.865 217.051 281.865C217.316 281.865 217.535 281.835 217.706 281.774C217.878 281.708 218.018 281.637 218.129 281.559C218.243 281.482 218.337 281.412 218.41 281.351C218.488 281.286 218.564 281.253 218.637 281.253C218.727 281.253 218.796 281.288 218.845 281.357L219.152 281.755C219.017 281.923 218.864 282.066 218.692 282.184C218.521 282.302 218.335 282.402 218.135 282.484C217.939 282.562 217.733 282.619 217.516 282.656C217.3 282.692 217.079 282.711 216.855 282.711C216.467 282.711 216.105 282.639 215.771 282.496C215.44 282.353 215.152 282.147 214.907 281.878C214.662 281.604 214.47 281.269 214.331 280.873C214.192 280.477 214.123 280.026 214.123 279.52C214.123 279.058 214.186 278.631 214.313 278.239C214.443 277.847 214.631 277.511 214.876 277.229C215.125 276.943 215.43 276.72 215.789 276.561C216.152 276.402 216.569 276.322 217.038 276.322C217.475 276.322 217.859 276.394 218.19 276.537C218.525 276.676 218.821 276.874 219.078 277.131L218.79 277.523ZM226.079 282.625H224.989V277.333H221.792V281.057C221.792 281.318 221.855 281.512 221.982 281.639C222.108 281.765 222.272 281.829 222.472 281.829C222.586 281.829 222.684 281.814 222.766 281.786C222.852 281.753 222.925 281.718 222.986 281.682C223.048 281.645 223.099 281.612 223.139 281.584C223.184 281.551 223.223 281.535 223.256 281.535C223.313 281.535 223.364 281.569 223.409 281.639L223.727 282.159C223.54 282.335 223.313 282.474 223.048 282.576C222.782 282.674 222.509 282.723 222.227 282.723C221.737 282.723 221.359 282.586 221.094 282.313C220.832 282.039 220.702 281.645 220.702 281.13V277.333H219.954C219.889 277.333 219.834 277.315 219.789 277.278C219.744 277.237 219.722 277.176 219.722 277.094V276.659L220.738 276.524L220.99 274.613C221.002 274.552 221.028 274.503 221.069 274.466C221.114 274.426 221.171 274.405 221.241 274.405H221.792V276.543H226.079V282.625ZM226.349 274.43C226.349 274.536 226.326 274.636 226.282 274.73C226.241 274.82 226.184 274.899 226.11 274.969C226.041 275.038 225.959 275.093 225.865 275.134C225.771 275.175 225.671 275.195 225.565 275.195C225.459 275.195 225.359 275.175 225.265 275.134C225.175 275.093 225.095 275.038 225.026 274.969C224.956 274.899 224.901 274.82 224.861 274.73C224.82 274.636 224.799 274.536 224.799 274.43C224.799 274.324 224.82 274.224 224.861 274.13C224.901 274.032 224.956 273.948 225.026 273.878C225.095 273.805 225.175 273.748 225.265 273.707C225.359 273.666 225.459 273.646 225.565 273.646C225.671 273.646 225.771 273.666 225.865 273.707C225.959 273.748 226.041 273.805 226.11 273.878C226.184 273.948 226.241 274.032 226.282 274.13C226.326 274.224 226.349 274.324 226.349 274.43ZM230.486 276.322C230.939 276.322 231.347 276.398 231.711 276.549C232.074 276.7 232.385 276.914 232.642 277.192C232.899 277.47 233.095 277.807 233.23 278.203C233.369 278.595 233.438 279.034 233.438 279.52C233.438 280.01 233.369 280.451 233.23 280.843C233.095 281.235 232.899 281.569 232.642 281.847C232.385 282.125 232.074 282.339 231.711 282.49C231.347 282.637 230.939 282.711 230.486 282.711C230.029 282.711 229.616 282.637 229.249 282.49C228.885 282.339 228.575 282.125 228.318 281.847C228.06 281.569 227.862 281.235 227.723 280.843C227.589 280.451 227.521 280.01 227.521 279.52C227.521 279.034 227.589 278.595 227.723 278.203C227.862 277.807 228.06 277.47 228.318 277.192C228.575 276.914 228.885 276.7 229.249 276.549C229.616 276.398 230.029 276.322 230.486 276.322ZM230.486 281.859C231.098 281.859 231.556 281.655 231.858 281.247C232.16 280.834 232.311 280.261 232.311 279.526C232.311 278.787 232.16 278.211 231.858 277.798C231.556 277.386 231.098 277.18 230.486 277.18C230.176 277.18 229.904 277.233 229.671 277.339C229.443 277.445 229.251 277.598 229.095 277.798C228.944 277.999 228.83 278.246 228.752 278.54C228.679 278.83 228.642 279.158 228.642 279.526C228.642 280.261 228.793 280.834 229.095 281.247C229.402 281.655 229.865 281.859 230.486 281.859ZM235.85 277.321C235.985 277.17 236.128 277.033 236.279 276.91C236.43 276.788 236.589 276.684 236.756 276.598C236.928 276.508 237.108 276.441 237.295 276.396C237.487 276.347 237.694 276.322 237.914 276.322C238.253 276.322 238.551 276.38 238.808 276.494C239.07 276.604 239.286 276.763 239.458 276.972C239.633 277.176 239.766 277.423 239.856 277.713C239.945 278.003 239.99 278.323 239.99 278.674V282.625H238.894V278.674C238.894 278.205 238.786 277.841 238.569 277.584C238.357 277.323 238.032 277.192 237.596 277.192C237.273 277.192 236.971 277.27 236.689 277.425C236.411 277.58 236.154 277.79 235.917 278.056V282.625H234.821V276.42H235.476C235.631 276.42 235.727 276.496 235.764 276.647L235.85 277.321ZM241.468 281.951C241.468 281.845 241.486 281.745 241.523 281.651C241.564 281.557 241.617 281.476 241.682 281.406C241.752 281.337 241.833 281.282 241.927 281.241C242.021 281.2 242.121 281.179 242.227 281.179C242.334 281.179 242.434 281.2 242.528 281.241C242.622 281.282 242.703 281.337 242.773 281.406C242.842 281.476 242.897 281.557 242.938 281.651C242.979 281.745 242.999 281.845 242.999 281.951C242.999 282.061 242.979 282.164 242.938 282.257C242.897 282.347 242.842 282.427 242.773 282.496C242.703 282.566 242.622 282.619 242.528 282.656C242.434 282.696 242.334 282.717 242.227 282.717C242.121 282.717 242.021 282.696 241.927 282.656C241.833 282.619 241.752 282.566 241.682 282.496C241.617 282.427 241.564 282.347 241.523 282.257C241.486 282.164 241.468 282.061 241.468 281.951Z" fill="black"/>
<path d="M93.0513 144.742H90.3746C90.2218 143.267 89.4261 141.897 88.2617 141.054H93.0513C93.3411 141.054 93.5782 140.817 93.5782 140.527C93.5782 140.237 93.3411 140 93.0513 140H81.9019C81.6121 140 81.375 140.237 81.375 140.527C81.375 140.817 81.6121 141.054 81.9019 141.054H85.095C87.2658 141.054 89.0573 142.687 89.3155 144.742H81.9019C81.6121 144.742 81.375 144.979 81.375 145.269C81.375 145.559 81.6121 145.796 81.9019 145.796H89.3155C89.052 147.93 87.2395 149.532 85.095 149.537H81.9072C81.6121 149.542 81.375 149.785 81.3803 150.08C81.3803 150.222 81.4435 150.359 81.5436 150.459L89.5157 157.999C89.7265 158.199 90.0584 158.189 90.2587 157.978C90.4589 157.762 90.4484 157.43 90.2376 157.225L83.2244 150.591H85.0897C87.8402 150.591 90.1111 148.483 90.3746 145.796H93.0513C93.3411 145.796 93.5782 145.559 93.5782 145.269C93.5782 144.979 93.3411 144.742 93.0513 144.742Z" fill="black"/>
<path d="M103.409 148.844C104.814 148.543 106.106 148.393 107.285 148.393C108.689 148.393 109.931 148.6 111.009 149.014C112.088 149.427 112.985 149.998 113.7 150.725C114.427 151.453 114.973 152.312 115.336 153.303C115.713 154.294 115.901 155.372 115.901 156.539C115.901 157.968 115.65 159.26 115.148 160.414C114.659 161.568 113.976 162.559 113.098 163.386C112.232 164.202 111.21 164.829 110.031 165.268C108.852 165.707 107.579 165.926 106.212 165.926C105.422 165.926 104.663 165.844 103.936 165.681C103.209 165.531 102.525 165.324 101.885 165.061C101.258 164.797 100.675 164.496 100.136 164.158C99.5966 163.819 99.12 163.462 98.7061 163.085L99.7408 161.656C99.9666 161.329 100.261 161.166 100.625 161.166C100.876 161.166 101.158 161.267 101.472 161.467C101.785 161.656 102.168 161.869 102.619 162.107C103.071 162.345 103.597 162.565 104.199 162.765C104.814 162.954 105.541 163.048 106.382 163.048C107.322 163.048 108.169 162.897 108.921 162.596C109.674 162.295 110.32 161.869 110.859 161.317C111.398 160.753 111.812 160.082 112.101 159.304C112.389 158.526 112.533 157.655 112.533 156.689C112.533 155.849 112.408 155.09 112.157 154.413C111.919 153.735 111.549 153.159 111.047 152.682C110.558 152.205 109.943 151.835 109.203 151.572C108.464 151.309 107.598 151.177 106.607 151.177C105.93 151.177 105.222 151.233 104.482 151.346C103.754 151.459 103.008 151.641 102.243 151.892L100.136 151.271L102.299 138.667H115.073V140.134C115.073 140.611 114.922 141.006 114.621 141.319C114.333 141.62 113.831 141.771 113.116 141.771H104.651L103.409 148.844ZM139.118 152.155C139.118 154.513 138.861 156.557 138.347 158.288C137.845 160.006 137.156 161.43 136.278 162.559C135.4 163.687 134.359 164.528 133.155 165.079C131.963 165.631 130.684 165.907 129.317 165.907C127.937 165.907 126.652 165.631 125.46 165.079C124.282 164.528 123.253 163.687 122.375 162.559C121.497 161.43 120.807 160.006 120.306 158.288C119.804 156.557 119.553 154.513 119.553 152.155C119.553 149.797 119.804 147.753 120.306 146.022C120.807 144.292 121.497 142.862 122.375 141.733C123.253 140.592 124.282 139.745 125.46 139.193C126.652 138.642 127.937 138.366 129.317 138.366C130.684 138.366 131.963 138.642 133.155 139.193C134.359 139.745 135.4 140.592 136.278 141.733C137.156 142.862 137.845 144.292 138.347 146.022C138.861 147.753 139.118 149.797 139.118 152.155ZM135.638 152.155C135.638 150.098 135.462 148.374 135.111 146.982C134.773 145.577 134.309 144.448 133.719 143.596C133.142 142.743 132.471 142.134 131.706 141.771C130.941 141.394 130.145 141.206 129.317 141.206C128.489 141.206 127.693 141.394 126.928 141.771C126.163 142.134 125.492 142.743 124.915 143.596C124.338 144.448 123.874 145.577 123.523 146.982C123.184 148.374 123.015 150.098 123.015 152.155C123.015 154.212 123.184 155.937 123.523 157.329C123.874 158.721 124.338 159.843 124.915 160.696C125.492 161.549 126.163 162.163 126.928 162.54C127.693 162.903 128.489 163.085 129.317 163.085C130.145 163.085 130.941 162.903 131.706 162.54C132.471 162.163 133.142 161.549 133.719 160.696C134.309 159.843 134.773 158.721 135.111 157.329C135.462 155.937 135.638 154.212 135.638 152.155ZM160.944 152.155C160.944 154.513 160.687 156.557 160.172 158.288C159.671 160.006 158.981 161.43 158.103 162.559C157.225 163.687 156.184 164.528 154.98 165.079C153.789 165.631 152.509 165.907 151.142 165.907C149.763 165.907 148.477 165.631 147.286 165.079C146.107 164.528 145.079 163.687 144.201 162.559C143.323 161.43 142.633 160.006 142.131 158.288C141.63 156.557 141.379 154.513 141.379 152.155C141.379 149.797 141.63 147.753 142.131 146.022C142.633 144.292 143.323 142.862 144.201 141.733C145.079 140.592 146.107 139.745 147.286 139.193C148.477 138.642 149.763 138.366 151.142 138.366C152.509 138.366 153.789 138.642 154.98 139.193C156.184 139.745 157.225 140.592 158.103 141.733C158.981 142.862 159.671 144.292 160.172 146.022C160.687 147.753 160.944 149.797 160.944 152.155ZM157.463 152.155C157.463 150.098 157.288 148.374 156.937 146.982C156.598 145.577 156.134 144.448 155.545 143.596C154.968 142.743 154.297 142.134 153.532 141.771C152.767 141.394 151.97 141.206 151.142 141.206C150.315 141.206 149.518 141.394 148.753 141.771C147.988 142.134 147.317 142.743 146.74 143.596C146.163 144.448 145.699 145.577 145.348 146.982C145.01 148.374 144.84 150.098 144.84 152.155C144.84 154.212 145.01 155.937 145.348 157.329C145.699 158.721 146.163 159.843 146.74 160.696C147.317 161.549 147.988 162.163 148.753 162.54C149.518 162.903 150.315 163.085 151.142 163.085C151.97 163.085 152.767 162.903 153.532 162.54C154.297 162.163 154.968 161.549 155.545 160.696C156.134 159.843 156.598 158.721 156.937 157.329C157.288 155.937 157.463 154.212 157.463 152.155ZM182.769 152.155C182.769 154.513 182.512 156.557 181.998 158.288C181.496 160.006 180.806 161.43 179.929 162.559C179.051 163.687 178.01 164.528 176.806 165.079C175.614 165.631 174.335 165.907 172.968 165.907C171.588 165.907 170.303 165.631 169.111 165.079C167.932 164.528 166.904 163.687 166.026 162.559C165.148 161.43 164.458 160.006 163.957 158.288C163.455 156.557 163.204 154.513 163.204 152.155C163.204 149.797 163.455 147.753 163.957 146.022C164.458 144.292 165.148 142.862 166.026 141.733C166.904 140.592 167.932 139.745 169.111 139.193C170.303 138.642 171.588 138.366 172.968 138.366C174.335 138.366 175.614 138.642 176.806 139.193C178.01 139.745 179.051 140.592 179.929 141.733C180.806 142.862 181.496 144.292 181.998 146.022C182.512 147.753 182.769 149.797 182.769 152.155ZM179.289 152.155C179.289 150.098 179.113 148.374 178.762 146.982C178.424 145.577 177.959 144.448 177.37 143.596C176.793 142.743 176.122 142.134 175.357 141.771C174.592 141.394 173.796 141.206 172.968 141.206C172.14 141.206 171.344 141.394 170.579 141.771C169.814 142.134 169.143 142.743 168.566 143.596C167.989 144.448 167.525 145.577 167.174 146.982C166.835 148.374 166.666 150.098 166.666 152.155C166.666 154.212 166.835 155.937 167.174 157.329C167.525 158.721 167.989 159.843 168.566 160.696C169.143 161.549 169.814 162.163 170.579 162.54C171.344 162.903 172.14 163.085 172.968 163.085C173.796 163.085 174.592 162.903 175.357 162.54C176.122 162.163 176.793 161.549 177.37 160.696C177.959 159.843 178.424 158.721 178.762 157.329C179.113 155.937 179.289 154.212 179.289 152.155Z" fill="black"/>
<defs>
<linearGradient id="paint0_linear_1074_6951" x1="132.648" y1="89.4824" x2="132.648" y2="0" gradientUnits="userSpaceOnUse">
<stop stop-color="#95A051"/>
<stop offset="1" stop-color="#DFFD28"/>
</linearGradient>
</defs>
</svg>
