<svg width="304" height="333" viewBox="0 0 304 333" fill="none" xmlns="http://www.w3.org/2000/svg">
<path d="M126.664 252.353C126.592 252.479 126.514 252.572 126.43 252.632C126.352 252.686 126.253 252.713 126.133 252.713C126.007 252.713 125.869 252.668 125.719 252.578C125.575 252.482 125.401 252.377 125.197 252.263C124.993 252.149 124.753 252.047 124.477 251.957C124.207 251.861 123.886 251.813 123.514 251.813C123.178 251.813 122.884 251.855 122.632 251.939C122.38 252.017 122.167 252.128 121.993 252.272C121.825 252.416 121.699 252.59 121.615 252.794C121.531 252.992 121.489 253.211 121.489 253.451C121.489 253.757 121.573 254.012 121.741 254.216C121.915 254.42 122.143 254.594 122.425 254.738C122.707 254.882 123.028 255.011 123.388 255.125C123.748 255.239 124.117 255.362 124.495 255.494C124.873 255.62 125.242 255.77 125.602 255.944C125.962 256.112 126.283 256.328 126.565 256.592C126.847 256.85 127.072 257.168 127.24 257.546C127.414 257.924 127.501 258.383 127.501 258.923C127.501 259.511 127.399 260.063 127.195 260.579C126.997 261.089 126.703 261.536 126.313 261.92C125.929 262.298 125.458 262.598 124.9 262.82C124.342 263.036 123.703 263.144 122.983 263.144C122.569 263.144 122.161 263.102 121.759 263.018C121.357 262.94 120.97 262.826 120.598 262.676C120.232 262.526 119.887 262.346 119.563 262.136C119.239 261.926 118.951 261.692 118.699 261.434L119.41 260.273C119.47 260.189 119.548 260.12 119.644 260.066C119.74 260.006 119.842 259.976 119.95 259.976C120.1 259.976 120.262 260.039 120.436 260.165C120.61 260.285 120.817 260.42 121.057 260.57C121.297 260.72 121.576 260.858 121.894 260.984C122.218 261.104 122.605 261.164 123.055 261.164C123.745 261.164 124.279 261.002 124.657 260.678C125.035 260.348 125.224 259.877 125.224 259.265C125.224 258.923 125.137 258.644 124.963 258.428C124.795 258.212 124.57 258.032 124.288 257.888C124.006 257.738 123.685 257.612 123.325 257.51C122.965 257.408 122.599 257.297 122.227 257.177C121.855 257.057 121.489 256.913 121.129 256.745C120.769 256.577 120.448 256.358 120.166 256.088C119.884 255.818 119.656 255.482 119.482 255.08C119.314 254.672 119.23 254.171 119.23 253.577C119.23 253.103 119.323 252.641 119.509 252.191C119.701 251.741 119.977 251.342 120.337 250.994C120.697 250.646 121.141 250.367 121.669 250.157C122.197 249.947 122.803 249.842 123.487 249.842C124.255 249.842 124.963 249.962 125.611 250.202C126.259 250.442 126.811 250.778 127.267 251.21L126.664 252.353ZM137.06 253.766V263H135.701C135.407 263 135.221 262.865 135.143 262.595L134.99 261.857C134.612 262.241 134.195 262.553 133.739 262.793C133.283 263.027 132.746 263.144 132.128 263.144C131.624 263.144 131.177 263.06 130.787 262.892C130.403 262.718 130.079 262.475 129.815 262.163C129.551 261.851 129.35 261.482 129.212 261.056C129.08 260.624 129.014 260.15 129.014 259.634V253.766H131.237V259.634C131.237 260.198 131.366 260.636 131.624 260.948C131.888 261.254 132.281 261.407 132.803 261.407C133.187 261.407 133.547 261.323 133.883 261.155C134.219 260.981 134.537 260.744 134.837 260.444V253.766H137.06ZM145.879 255.719C145.813 255.803 145.747 255.869 145.681 255.917C145.621 255.965 145.531 255.989 145.411 255.989C145.297 255.989 145.186 255.956 145.078 255.89C144.97 255.818 144.841 255.74 144.691 255.656C144.541 255.566 144.361 255.488 144.151 255.422C143.947 255.35 143.692 255.314 143.386 255.314C142.996 255.314 142.654 255.386 142.36 255.53C142.066 255.668 141.82 255.869 141.622 256.133C141.43 256.397 141.286 256.718 141.19 257.096C141.094 257.468 141.046 257.891 141.046 258.365C141.046 258.857 141.097 259.295 141.199 259.679C141.307 260.063 141.46 260.387 141.658 260.651C141.856 260.909 142.096 261.107 142.378 261.245C142.66 261.377 142.978 261.443 143.332 261.443C143.686 261.443 143.971 261.401 144.187 261.317C144.409 261.227 144.595 261.131 144.745 261.029C144.895 260.921 145.024 260.825 145.132 260.741C145.246 260.651 145.372 260.606 145.51 260.606C145.69 260.606 145.825 260.675 145.915 260.813L146.554 261.623C146.308 261.911 146.041 262.154 145.753 262.352C145.465 262.544 145.165 262.7 144.853 262.82C144.547 262.934 144.229 263.015 143.899 263.063C143.575 263.111 143.251 263.135 142.927 263.135C142.357 263.135 141.82 263.03 141.316 262.82C140.812 262.604 140.371 262.292 139.993 261.884C139.615 261.476 139.315 260.978 139.093 260.39C138.877 259.796 138.769 259.121 138.769 258.365C138.769 257.687 138.865 257.06 139.057 256.484C139.255 255.902 139.543 255.401 139.921 254.981C140.299 254.555 140.767 254.222 141.325 253.982C141.883 253.742 142.525 253.622 143.251 253.622C143.941 253.622 144.544 253.733 145.06 253.955C145.582 254.177 146.05 254.495 146.464 254.909L145.879 255.719ZM154.404 255.719C154.338 255.803 154.272 255.869 154.206 255.917C154.146 255.965 154.056 255.989 153.936 255.989C153.822 255.989 153.711 255.956 153.603 255.89C153.495 255.818 153.366 255.74 153.216 255.656C153.066 255.566 152.886 255.488 152.676 255.422C152.472 255.35 152.217 255.314 151.911 255.314C151.521 255.314 151.179 255.386 150.885 255.53C150.591 255.668 150.345 255.869 150.147 256.133C149.955 256.397 149.811 256.718 149.715 257.096C149.619 257.468 149.571 257.891 149.571 258.365C149.571 258.857 149.622 259.295 149.724 259.679C149.832 260.063 149.985 260.387 150.183 260.651C150.381 260.909 150.621 261.107 150.903 261.245C151.185 261.377 151.503 261.443 151.857 261.443C152.211 261.443 152.496 261.401 152.712 261.317C152.934 261.227 153.12 261.131 153.27 261.029C153.42 260.921 153.549 260.825 153.657 260.741C153.771 260.651 153.897 260.606 154.035 260.606C154.215 260.606 154.35 260.675 154.44 260.813L155.079 261.623C154.833 261.911 154.566 262.154 154.278 262.352C153.99 262.544 153.69 262.7 153.378 262.82C153.072 262.934 152.754 263.015 152.424 263.063C152.1 263.111 151.776 263.135 151.452 263.135C150.882 263.135 150.345 263.03 149.841 262.82C149.337 262.604 148.896 262.292 148.518 261.884C148.14 261.476 147.84 260.978 147.618 260.39C147.402 259.796 147.294 259.121 147.294 258.365C147.294 257.687 147.39 257.06 147.582 256.484C147.78 255.902 148.068 255.401 148.446 254.981C148.824 254.555 149.292 254.222 149.85 253.982C150.408 253.742 151.05 253.622 151.776 253.622C152.466 253.622 153.069 253.733 153.585 253.955C154.107 254.177 154.575 254.495 154.989 254.909L154.404 255.719ZM162.264 257.321C162.264 257.033 162.222 256.763 162.138 256.511C162.06 256.253 161.94 256.028 161.778 255.836C161.616 255.644 161.409 255.494 161.157 255.386C160.911 255.272 160.623 255.215 160.293 255.215C159.651 255.215 159.144 255.398 158.772 255.764C158.406 256.13 158.172 256.649 158.07 257.321H162.264ZM158.025 258.662C158.061 259.136 158.145 259.547 158.277 259.895C158.409 260.237 158.583 260.522 158.799 260.75C159.015 260.972 159.27 261.14 159.564 261.254C159.864 261.362 160.194 261.416 160.554 261.416C160.914 261.416 161.223 261.374 161.481 261.29C161.745 261.206 161.973 261.113 162.165 261.011C162.363 260.909 162.534 260.816 162.678 260.732C162.828 260.648 162.972 260.606 163.11 260.606C163.296 260.606 163.434 260.675 163.524 260.813L164.163 261.623C163.917 261.911 163.641 262.154 163.335 262.352C163.029 262.544 162.708 262.7 162.372 262.82C162.042 262.934 161.703 263.015 161.355 263.063C161.013 263.111 160.68 263.135 160.356 263.135C159.714 263.135 159.117 263.03 158.565 262.82C158.013 262.604 157.533 262.289 157.125 261.875C156.717 261.455 156.396 260.939 156.162 260.327C155.928 259.709 155.811 258.995 155.811 258.185C155.811 257.555 155.913 256.964 156.117 256.412C156.321 255.854 156.612 255.371 156.99 254.963C157.374 254.549 157.839 254.222 158.385 253.982C158.937 253.742 159.558 253.622 160.248 253.622C160.83 253.622 161.367 253.715 161.859 253.901C162.351 254.087 162.774 254.36 163.128 254.72C163.482 255.074 163.758 255.512 163.956 256.034C164.16 256.55 164.262 257.141 164.262 257.807C164.262 258.143 164.226 258.371 164.154 258.491C164.082 258.605 163.944 258.662 163.74 258.662H158.025ZM171.564 255.566C171.504 255.662 171.441 255.731 171.375 255.773C171.309 255.809 171.225 255.827 171.123 255.827C171.015 255.827 170.898 255.797 170.772 255.737C170.652 255.677 170.511 255.611 170.349 255.539C170.187 255.461 170.001 255.392 169.791 255.332C169.587 255.272 169.344 255.242 169.062 255.242C168.624 255.242 168.279 255.335 168.027 255.521C167.781 255.707 167.658 255.95 167.658 256.25C167.658 256.448 167.721 256.616 167.847 256.754C167.979 256.886 168.15 257.003 168.36 257.105C168.576 257.207 168.819 257.3 169.089 257.384C169.359 257.462 169.632 257.549 169.908 257.645C170.19 257.741 170.466 257.852 170.736 257.978C171.006 258.098 171.246 258.254 171.456 258.446C171.672 258.632 171.843 258.857 171.969 259.121C172.101 259.385 172.167 259.703 172.167 260.075C172.167 260.519 172.086 260.93 171.924 261.308C171.768 261.68 171.534 262.004 171.222 262.28C170.91 262.55 170.523 262.763 170.061 262.919C169.605 263.069 169.077 263.144 168.477 263.144C168.159 263.144 167.847 263.114 167.541 263.054C167.241 263 166.95 262.922 166.668 262.82C166.392 262.718 166.134 262.598 165.894 262.46C165.66 262.322 165.453 262.172 165.273 262.01L165.786 261.164C165.852 261.062 165.93 260.984 166.02 260.93C166.11 260.876 166.224 260.849 166.362 260.849C166.5 260.849 166.629 260.888 166.749 260.966C166.875 261.044 167.019 261.128 167.181 261.218C167.343 261.308 167.532 261.392 167.748 261.47C167.97 261.548 168.249 261.587 168.585 261.587C168.849 261.587 169.074 261.557 169.26 261.497C169.452 261.431 169.608 261.347 169.728 261.245C169.854 261.143 169.944 261.026 169.998 260.894C170.058 260.756 170.088 260.615 170.088 260.471C170.088 260.255 170.022 260.078 169.89 259.94C169.764 259.802 169.593 259.682 169.377 259.58C169.167 259.478 168.924 259.388 168.648 259.31C168.378 259.226 168.099 259.136 167.811 259.04C167.529 258.944 167.25 258.833 166.974 258.707C166.704 258.575 166.461 258.41 166.245 258.212C166.035 258.014 165.864 257.771 165.732 257.483C165.606 257.195 165.543 256.847 165.543 256.439C165.543 256.061 165.618 255.701 165.768 255.359C165.918 255.017 166.137 254.72 166.425 254.468C166.719 254.21 167.082 254.006 167.514 253.856C167.952 253.7 168.456 253.622 169.026 253.622C169.662 253.622 170.241 253.727 170.763 253.937C171.285 254.147 171.72 254.423 172.068 254.765L171.564 255.566ZM179.474 255.566C179.414 255.662 179.351 255.731 179.285 255.773C179.219 255.809 179.135 255.827 179.033 255.827C178.925 255.827 178.808 255.797 178.682 255.737C178.562 255.677 178.421 255.611 178.259 255.539C178.097 255.461 177.911 255.392 177.701 255.332C177.497 255.272 177.254 255.242 176.972 255.242C176.534 255.242 176.189 255.335 175.937 255.521C175.691 255.707 175.568 255.95 175.568 256.25C175.568 256.448 175.631 256.616 175.757 256.754C175.889 256.886 176.06 257.003 176.27 257.105C176.486 257.207 176.729 257.3 176.999 257.384C177.269 257.462 177.542 257.549 177.818 257.645C178.1 257.741 178.376 257.852 178.646 257.978C178.916 258.098 179.156 258.254 179.366 258.446C179.582 258.632 179.753 258.857 179.879 259.121C180.011 259.385 180.077 259.703 180.077 260.075C180.077 260.519 179.996 260.93 179.834 261.308C179.678 261.68 179.444 262.004 179.132 262.28C178.82 262.55 178.433 262.763 177.971 262.919C177.515 263.069 176.987 263.144 176.387 263.144C176.069 263.144 175.757 263.114 175.451 263.054C175.151 263 174.86 262.922 174.578 262.82C174.302 262.718 174.044 262.598 173.804 262.46C173.57 262.322 173.363 262.172 173.183 262.01L173.696 261.164C173.762 261.062 173.84 260.984 173.93 260.93C174.02 260.876 174.134 260.849 174.272 260.849C174.41 260.849 174.539 260.888 174.659 260.966C174.785 261.044 174.929 261.128 175.091 261.218C175.253 261.308 175.442 261.392 175.658 261.47C175.88 261.548 176.159 261.587 176.495 261.587C176.759 261.587 176.984 261.557 177.17 261.497C177.362 261.431 177.518 261.347 177.638 261.245C177.764 261.143 177.854 261.026 177.908 260.894C177.968 260.756 177.998 260.615 177.998 260.471C177.998 260.255 177.932 260.078 177.8 259.94C177.674 259.802 177.503 259.682 177.287 259.58C177.077 259.478 176.834 259.388 176.558 259.31C176.288 259.226 176.009 259.136 175.721 259.04C175.439 258.944 175.16 258.833 174.884 258.707C174.614 258.575 174.371 258.41 174.155 258.212C173.945 258.014 173.774 257.771 173.642 257.483C173.516 257.195 173.453 256.847 173.453 256.439C173.453 256.061 173.528 255.701 173.678 255.359C173.828 255.017 174.047 254.72 174.335 254.468C174.629 254.21 174.992 254.006 175.424 253.856C175.862 253.7 176.366 253.622 176.936 253.622C177.572 253.622 178.151 253.727 178.673 253.937C179.195 254.147 179.63 254.423 179.978 254.765L179.474 255.566ZM184.234 249.986V255.134C184.234 255.68 184.207 256.217 184.153 256.745C184.099 257.267 184.03 257.822 183.946 258.41H182.434C182.35 257.822 182.281 257.267 182.227 256.745C182.173 256.217 182.146 255.68 182.146 255.134V249.986H184.234ZM181.795 261.776C181.795 261.59 181.828 261.413 181.894 261.245C181.966 261.077 182.062 260.933 182.182 260.813C182.308 260.693 182.455 260.597 182.623 260.525C182.791 260.453 182.971 260.417 183.163 260.417C183.349 260.417 183.526 260.453 183.694 260.525C183.862 260.597 184.006 260.693 184.126 260.813C184.252 260.933 184.351 261.077 184.423 261.245C184.495 261.413 184.531 261.59 184.531 261.776C184.531 261.968 184.495 262.148 184.423 262.316C184.351 262.478 184.252 262.619 184.126 262.739C184.006 262.859 183.862 262.952 183.694 263.018C183.526 263.09 183.349 263.126 183.163 263.126C182.971 263.126 182.791 263.09 182.623 263.018C182.455 262.952 182.308 262.859 182.182 262.739C182.062 262.619 181.966 262.478 181.894 262.316C181.828 262.148 181.795 261.968 181.795 261.776Z" fill="#40424F"/>
<path d="M85.606 8.015H83.054V15H81.9925V8.015H79.435V7.1185H85.606V8.015ZM86.2602 10.545C86.4362 10.1637 86.6525 9.86667 86.9092 9.654C87.1658 9.43767 87.4793 9.3295 87.8497 9.3295C87.967 9.3295 88.0788 9.34233 88.1852 9.368C88.2952 9.39367 88.3923 9.434 88.4767 9.489L88.4052 10.2205C88.3832 10.3122 88.3282 10.358 88.2402 10.358C88.1888 10.358 88.1137 10.347 88.0147 10.325C87.9157 10.303 87.8038 10.292 87.6792 10.292C87.5032 10.292 87.3455 10.3177 87.2062 10.369C87.0705 10.4203 86.9477 10.4973 86.8377 10.6C86.7313 10.699 86.6342 10.8237 86.5462 10.974C86.4618 11.1207 86.3848 11.2893 86.3152 11.48V15H85.3307V9.4285H85.8917C85.998 9.4285 86.0713 9.44867 86.1117 9.489C86.152 9.52933 86.1795 9.599 86.1942 9.698L86.2602 10.545ZM92.2711 12.492C91.8201 12.5067 91.4351 12.5433 91.1161 12.602C90.8007 12.657 90.5422 12.7303 90.3406 12.822C90.1426 12.9137 89.9977 13.0218 89.9061 13.1465C89.8181 13.2712 89.7741 13.4105 89.7741 13.5645C89.7741 13.7112 89.7979 13.8377 89.8456 13.944C89.8932 14.0503 89.9574 14.1383 90.0381 14.208C90.1224 14.274 90.2196 14.3235 90.3296 14.3565C90.4432 14.3858 90.5642 14.4005 90.6926 14.4005C90.8649 14.4005 91.0226 14.384 91.1656 14.351C91.3086 14.3143 91.4424 14.263 91.5671 14.197C91.6954 14.131 91.8164 14.0522 91.9301 13.9605C92.0474 13.8688 92.1611 13.7643 92.2711 13.647V12.492ZM89.1086 10.215C89.4166 9.918 89.7484 9.69617 90.1041 9.5495C90.4597 9.40283 90.8539 9.3295 91.2866 9.3295C91.5982 9.3295 91.8751 9.38083 92.1171 9.4835C92.3591 9.58617 92.5626 9.72917 92.7276 9.9125C92.8926 10.0958 93.0172 10.3177 93.1016 10.578C93.1859 10.8383 93.2281 11.1243 93.2281 11.436V15H92.7936C92.6982 15 92.6249 14.9853 92.5736 14.956C92.5222 14.923 92.4819 14.8607 92.4526 14.769L92.3426 14.241C92.1959 14.3767 92.0529 14.4977 91.9136 14.604C91.7742 14.7067 91.6276 14.7947 91.4736 14.868C91.3196 14.9377 91.1546 14.9908 90.9786 15.0275C90.8062 15.0678 90.6137 15.088 90.4011 15.088C90.1847 15.088 89.9812 15.0587 89.7906 15C89.5999 14.9377 89.4331 14.846 89.2901 14.725C89.1507 14.604 89.0389 14.4518 88.9546 14.2685C88.8739 14.0815 88.8336 13.8615 88.8336 13.6085C88.8336 13.3885 88.8941 13.1777 89.0151 12.976C89.1361 12.7707 89.3322 12.5892 89.6036 12.4315C89.8749 12.2738 90.2287 12.1455 90.6651 12.0465C91.1014 11.9438 91.6367 11.8852 92.2711 11.8705V11.436C92.2711 11.0033 92.1776 10.677 91.9906 10.457C91.8036 10.2333 91.5304 10.1215 91.1711 10.1215C90.9291 10.1215 90.7256 10.1527 90.5606 10.215C90.3992 10.2737 90.2581 10.3415 90.1371 10.4185C90.0197 10.4918 89.9171 10.5597 89.8291 10.622C89.7447 10.6807 89.6604 10.71 89.5761 10.71C89.5101 10.71 89.4532 10.6935 89.4056 10.6605C89.3579 10.6238 89.3176 10.5798 89.2846 10.5285L89.1086 10.215ZM95.6433 10.237C95.7643 10.1013 95.8927 9.9785 96.0283 9.8685C96.164 9.7585 96.307 9.665 96.4573 9.588C96.6113 9.50733 96.7727 9.44683 96.9413 9.4065C97.1137 9.3625 97.2988 9.3405 97.4968 9.3405C97.8012 9.3405 98.0688 9.39183 98.2998 9.4945C98.5345 9.5935 98.7288 9.7365 98.8828 9.9235C99.0405 10.1068 99.1597 10.3287 99.2403 10.589C99.321 10.8493 99.3613 11.1372 99.3613 11.4525V15H98.3768V11.4525C98.3768 11.0308 98.2797 10.7045 98.0853 10.4735C97.8947 10.2388 97.6032 10.1215 97.2108 10.1215C96.9212 10.1215 96.6498 10.1912 96.3968 10.3305C96.1475 10.4698 95.9165 10.6587 95.7038 10.897V15H94.7193V9.4285H95.3078C95.4472 9.4285 95.5333 9.49633 95.5663 9.632L95.6433 10.237ZM104.098 10.347C104.054 10.4277 103.986 10.468 103.895 10.468C103.84 10.468 103.777 10.4478 103.708 10.4075C103.638 10.3672 103.552 10.3232 103.449 10.2755C103.35 10.2242 103.231 10.1783 103.092 10.138C102.952 10.094 102.787 10.072 102.597 10.072C102.432 10.072 102.283 10.094 102.151 10.138C102.019 10.1783 101.905 10.2352 101.81 10.3085C101.718 10.3818 101.647 10.468 101.596 10.567C101.548 10.6623 101.524 10.7668 101.524 10.8805C101.524 11.0235 101.564 11.1427 101.645 11.238C101.729 11.3333 101.839 11.4158 101.975 11.4855C102.111 11.5552 102.265 11.6175 102.437 11.6725C102.609 11.7238 102.785 11.7807 102.965 11.843C103.148 11.9017 103.326 11.9677 103.499 12.041C103.671 12.1143 103.825 12.206 103.961 12.316C104.096 12.426 104.204 12.5617 104.285 12.723C104.369 12.8807 104.412 13.0713 104.412 13.295C104.412 13.5517 104.366 13.79 104.274 14.01C104.182 14.2263 104.047 14.4152 103.867 14.5765C103.687 14.7342 103.467 14.8588 103.207 14.9505C102.947 15.0422 102.646 15.088 102.305 15.088C101.916 15.088 101.564 15.0257 101.249 14.901C100.934 14.7727 100.666 14.6095 100.446 14.4115L100.677 14.0375C100.706 13.9898 100.741 13.9532 100.782 13.9275C100.822 13.9018 100.873 13.889 100.936 13.889C101.002 13.889 101.071 13.9147 101.145 13.966C101.218 14.0173 101.306 14.0742 101.409 14.1365C101.515 14.1988 101.643 14.2557 101.794 14.307C101.944 14.3583 102.131 14.384 102.355 14.384C102.545 14.384 102.712 14.3602 102.855 14.3125C102.998 14.2612 103.117 14.1933 103.213 14.109C103.308 14.0247 103.378 13.9275 103.422 13.8175C103.469 13.7075 103.493 13.5902 103.493 13.4655C103.493 13.3115 103.451 13.185 103.367 13.086C103.286 12.9833 103.178 12.8972 103.042 12.8275C102.906 12.7542 102.751 12.6918 102.575 12.6405C102.402 12.5855 102.224 12.5287 102.041 12.47C101.861 12.4113 101.684 12.3453 101.508 12.272C101.335 12.195 101.181 12.0997 101.046 11.986C100.91 11.8723 100.8 11.733 100.716 11.568C100.635 11.3993 100.595 11.1958 100.595 10.9575C100.595 10.7448 100.639 10.5413 100.727 10.347C100.815 10.149 100.943 9.97667 101.112 9.83C101.28 9.67967 101.487 9.5605 101.733 9.4725C101.979 9.3845 102.259 9.3405 102.575 9.3405C102.941 9.3405 103.269 9.39917 103.559 9.5165C103.852 9.63017 104.105 9.78783 104.318 9.9895L104.098 10.347ZM108.631 12.492C108.18 12.5067 107.795 12.5433 107.476 12.602C107.161 12.657 106.903 12.7303 106.701 12.822C106.503 12.9137 106.358 13.0218 106.266 13.1465C106.178 13.2712 106.134 13.4105 106.134 13.5645C106.134 13.7112 106.158 13.8377 106.206 13.944C106.254 14.0503 106.318 14.1383 106.398 14.208C106.483 14.274 106.58 14.3235 106.69 14.3565C106.804 14.3858 106.925 14.4005 107.053 14.4005C107.225 14.4005 107.383 14.384 107.526 14.351C107.669 14.3143 107.803 14.263 107.927 14.197C108.056 14.131 108.177 14.0522 108.29 13.9605C108.408 13.8688 108.521 13.7643 108.631 13.647V12.492ZM105.469 10.215C105.777 9.918 106.109 9.69617 106.464 9.5495C106.82 9.40283 107.214 9.3295 107.647 9.3295C107.959 9.3295 108.235 9.38083 108.477 9.4835C108.719 9.58617 108.923 9.72917 109.088 9.9125C109.253 10.0958 109.378 10.3177 109.462 10.578C109.546 10.8383 109.588 11.1243 109.588 11.436V15H109.154C109.059 15 108.985 14.9853 108.934 14.956C108.883 14.923 108.842 14.8607 108.813 14.769L108.703 14.241C108.556 14.3767 108.413 14.4977 108.274 14.604C108.135 14.7067 107.988 14.7947 107.834 14.868C107.68 14.9377 107.515 14.9908 107.339 15.0275C107.167 15.0678 106.974 15.088 106.761 15.088C106.545 15.088 106.342 15.0587 106.151 15C105.96 14.9377 105.793 14.846 105.65 14.725C105.511 14.604 105.399 14.4518 105.315 14.2685C105.234 14.0815 105.194 13.8615 105.194 13.6085C105.194 13.3885 105.254 13.1777 105.375 12.976C105.496 12.7707 105.693 12.5892 105.964 12.4315C106.235 12.2738 106.589 12.1455 107.025 12.0465C107.462 11.9438 107.997 11.8852 108.631 11.8705V11.436C108.631 11.0033 108.538 10.677 108.351 10.457C108.164 10.2333 107.891 10.1215 107.531 10.1215C107.289 10.1215 107.086 10.1527 106.921 10.215C106.76 10.2737 106.618 10.3415 106.497 10.4185C106.38 10.4918 106.277 10.5597 106.189 10.622C106.105 10.6807 106.021 10.71 105.936 10.71C105.87 10.71 105.814 10.6935 105.766 10.6605C105.718 10.6238 105.678 10.5798 105.645 10.5285L105.469 10.215ZM114.957 10.4185C114.928 10.4588 114.899 10.49 114.869 10.512C114.84 10.534 114.8 10.545 114.748 10.545C114.693 10.545 114.633 10.523 114.567 10.479C114.501 10.4313 114.418 10.38 114.319 10.325C114.224 10.27 114.105 10.2205 113.962 10.1765C113.822 10.1288 113.65 10.105 113.445 10.105C113.17 10.105 112.928 10.1545 112.719 10.2535C112.51 10.3488 112.334 10.4882 112.191 10.6715C112.051 10.8548 111.945 11.0767 111.872 11.337C111.802 11.5973 111.767 11.8888 111.767 12.2115C111.767 12.5488 111.806 12.8495 111.883 13.1135C111.96 13.3738 112.068 13.5938 112.207 13.7735C112.35 13.9495 112.521 14.0852 112.719 14.1805C112.92 14.2722 113.146 14.318 113.395 14.318C113.634 14.318 113.83 14.2905 113.984 14.2355C114.138 14.1768 114.264 14.1127 114.363 14.043C114.466 13.9733 114.55 13.911 114.616 13.856C114.686 13.7973 114.754 13.768 114.82 13.768C114.9 13.768 114.963 13.7992 115.007 13.8615L115.282 14.219C115.161 14.3693 115.023 14.4977 114.869 14.604C114.715 14.7103 114.548 14.8002 114.369 14.8735C114.193 14.9432 114.008 14.9945 113.813 15.0275C113.619 15.0605 113.421 15.077 113.219 15.077C112.871 15.077 112.546 15.0128 112.246 14.8845C111.949 14.7562 111.69 14.571 111.47 14.329C111.25 14.0833 111.078 13.7827 110.953 13.427C110.829 13.0713 110.766 12.6662 110.766 12.2115C110.766 11.7972 110.823 11.414 110.937 11.062C111.054 10.71 111.223 10.4075 111.443 10.1545C111.666 9.89783 111.94 9.698 112.262 9.555C112.589 9.412 112.963 9.3405 113.384 9.3405C113.777 9.3405 114.121 9.40467 114.418 9.533C114.719 9.65767 114.985 9.8355 115.216 10.0665L114.957 10.4185ZM121.503 15H120.524V10.248H117.653V13.592C117.653 13.8267 117.709 14.0008 117.823 14.1145C117.937 14.2282 118.083 14.285 118.263 14.285C118.366 14.285 118.454 14.2722 118.527 14.2465C118.604 14.2172 118.67 14.186 118.725 14.153C118.78 14.12 118.826 14.0907 118.863 14.065C118.903 14.0357 118.938 14.021 118.967 14.021C119.018 14.021 119.064 14.0522 119.105 14.1145L119.391 14.582C119.222 14.7397 119.018 14.8643 118.78 14.956C118.542 15.044 118.296 15.088 118.043 15.088C117.603 15.088 117.264 14.9652 117.026 14.7195C116.791 14.4738 116.674 14.12 116.674 13.658V10.248H116.003C115.944 10.248 115.894 10.2315 115.854 10.1985C115.814 10.1618 115.794 10.1068 115.794 10.0335V9.643L116.707 9.522L116.932 7.806C116.943 7.751 116.967 7.707 117.004 7.674C117.044 7.63733 117.095 7.619 117.158 7.619H117.653V9.5385H121.503V15ZM121.745 7.641C121.745 7.73633 121.724 7.82617 121.684 7.9105C121.647 7.99117 121.596 8.06267 121.53 8.125C121.468 8.18733 121.394 8.23683 121.31 8.2735C121.226 8.31017 121.136 8.3285 121.041 8.3285C120.945 8.3285 120.855 8.31017 120.771 8.2735C120.69 8.23683 120.619 8.18733 120.557 8.125C120.494 8.06267 120.445 7.99117 120.408 7.9105C120.371 7.82617 120.353 7.73633 120.353 7.641C120.353 7.54567 120.371 7.45583 120.408 7.3715C120.445 7.2835 120.494 7.20833 120.557 7.146C120.619 7.08 120.69 7.02867 120.771 6.992C120.855 6.95533 120.945 6.937 121.041 6.937C121.136 6.937 121.226 6.95533 121.31 6.992C121.394 7.02867 121.468 7.08 121.53 7.146C121.596 7.20833 121.647 7.2835 121.684 7.3715C121.724 7.45583 121.745 7.54567 121.745 7.641ZM125.459 9.3405C125.866 9.3405 126.233 9.40833 126.559 9.544C126.886 9.67967 127.164 9.87217 127.395 10.1215C127.626 10.3708 127.802 10.6733 127.923 11.029C128.048 11.381 128.11 11.7752 128.11 12.2115C128.11 12.6515 128.048 13.0475 127.923 13.3995C127.802 13.7515 127.626 14.0522 127.395 14.3015C127.164 14.5508 126.886 14.7433 126.559 14.879C126.233 15.011 125.866 15.077 125.459 15.077C125.049 15.077 124.678 15.011 124.348 14.879C124.022 14.7433 123.743 14.5508 123.512 14.3015C123.281 14.0522 123.104 13.7515 122.979 13.3995C122.858 13.0475 122.797 12.6515 122.797 12.2115C122.797 11.7752 122.858 11.381 122.979 11.029C123.104 10.6733 123.281 10.3708 123.512 10.1215C123.743 9.87217 124.022 9.67967 124.348 9.544C124.678 9.40833 125.049 9.3405 125.459 9.3405ZM125.459 14.3125C126.009 14.3125 126.42 14.1292 126.691 13.7625C126.963 13.3922 127.098 12.877 127.098 12.217C127.098 11.5533 126.963 11.0363 126.691 10.666C126.42 10.2957 126.009 10.1105 125.459 10.1105C125.181 10.1105 124.937 10.1582 124.728 10.2535C124.523 10.3488 124.35 10.4863 124.211 10.666C124.075 10.8457 123.973 11.0675 123.903 11.3315C123.837 11.5918 123.804 11.887 123.804 12.217C123.804 12.877 123.94 13.3922 124.211 13.7625C124.486 14.1292 124.902 14.3125 125.459 14.3125ZM130.276 10.237C130.397 10.1013 130.525 9.9785 130.661 9.8685C130.797 9.7585 130.94 9.665 131.09 9.588C131.244 9.50733 131.405 9.44683 131.574 9.4065C131.746 9.3625 131.932 9.3405 132.13 9.3405C132.434 9.3405 132.702 9.39183 132.933 9.4945C133.167 9.5935 133.362 9.7365 133.516 9.9235C133.673 10.1068 133.792 10.3287 133.873 10.589C133.954 10.8493 133.994 11.1372 133.994 11.4525V15H133.01V11.4525C133.01 11.0308 132.912 10.7045 132.718 10.4735C132.527 10.2388 132.236 10.1215 131.844 10.1215C131.554 10.1215 131.283 10.1912 131.03 10.3305C130.78 10.4698 130.549 10.6587 130.337 10.897V15H129.352V9.4285H129.941C130.08 9.4285 130.166 9.49633 130.199 9.632L130.276 10.237ZM139.598 15H138.531V7.1185H139.598V15ZM148.445 11.062C148.445 11.6523 148.352 12.1895 148.165 12.6735C147.978 13.1575 147.714 13.5718 147.373 13.9165C147.032 14.2612 146.621 14.5288 146.141 14.7195C145.664 14.9065 145.136 15 144.557 15H141.614V7.1185H144.557C145.136 7.1185 145.664 7.21383 146.141 7.4045C146.621 7.5915 147.032 7.85917 147.373 8.2075C147.714 8.55217 147.978 8.9665 148.165 9.4505C148.352 9.9345 148.445 10.4717 148.445 11.062ZM147.351 11.062C147.351 10.578 147.285 10.1453 147.153 9.764C147.021 9.38267 146.834 9.06 146.592 8.796C146.35 8.532 146.057 8.33033 145.712 8.191C145.367 8.05167 144.982 7.982 144.557 7.982H142.681V14.1365H144.557C144.982 14.1365 145.367 14.0668 145.712 13.9275C146.057 13.7882 146.35 13.5883 146.592 13.328C146.834 13.064 147.021 12.7413 147.153 12.36C147.285 11.9787 147.351 11.546 147.351 11.062ZM149.664 14.395C149.664 14.2997 149.68 14.2098 149.713 14.1255C149.75 14.0412 149.797 13.9678 149.856 13.9055C149.918 13.8432 149.992 13.7937 150.076 13.757C150.16 13.7203 150.25 13.702 150.346 13.702C150.441 13.702 150.531 13.7203 150.615 13.757C150.699 13.7937 150.773 13.8432 150.835 13.9055C150.897 13.9678 150.947 14.0412 150.984 14.1255C151.02 14.2098 151.039 14.2997 151.039 14.395C151.039 14.494 151.02 14.5857 150.984 14.67C150.947 14.7507 150.897 14.8222 150.835 14.8845C150.773 14.9468 150.699 14.9945 150.615 15.0275C150.531 15.0642 150.441 15.0825 150.346 15.0825C150.25 15.0825 150.16 15.0642 150.076 15.0275C149.992 14.9945 149.918 14.9468 149.856 14.8845C149.797 14.8222 149.75 14.7507 149.713 14.67C149.68 14.5857 149.664 14.494 149.664 14.395ZM149.664 10.27C149.664 10.1747 149.68 10.0848 149.713 10.0005C149.75 9.91617 149.797 9.84283 149.856 9.7805C149.918 9.71817 149.992 9.66867 150.076 9.632C150.16 9.59533 150.25 9.577 150.346 9.577C150.441 9.577 150.531 9.59533 150.615 9.632C150.699 9.66867 150.773 9.71817 150.835 9.7805C150.897 9.84283 150.947 9.91617 150.984 10.0005C151.02 10.0848 151.039 10.1747 151.039 10.27C151.039 10.369 151.02 10.4607 150.984 10.545C150.947 10.6257 150.897 10.6972 150.835 10.7595C150.773 10.8218 150.699 10.8713 150.615 10.908C150.531 10.941 150.441 10.9575 150.346 10.9575C150.25 10.9575 150.16 10.941 150.076 10.908C149.992 10.8713 149.918 10.8218 149.856 10.7595C149.797 10.6972 149.75 10.6257 149.713 10.545C149.68 10.4607 149.664 10.369 149.664 10.27ZM156.532 10.094C156.942 10.006 157.32 9.962 157.665 9.962C158.075 9.962 158.438 10.0225 158.754 10.1435C159.069 10.2645 159.331 10.4313 159.54 10.644C159.753 10.8567 159.912 11.1078 160.019 11.3975C160.129 11.6872 160.184 12.0025 160.184 12.3435C160.184 12.7615 160.11 13.1392 159.964 13.4765C159.821 13.8138 159.621 14.1035 159.364 14.3455C159.111 14.5838 158.812 14.7672 158.468 14.8955C158.123 15.0238 157.751 15.088 157.351 15.088C157.12 15.088 156.898 15.0642 156.686 15.0165C156.473 14.9725 156.273 14.912 156.086 14.835C155.903 14.758 155.732 14.67 155.575 14.571C155.417 14.472 155.278 14.3675 155.157 14.2575L155.459 13.8395C155.525 13.7442 155.611 13.6965 155.718 13.6965C155.791 13.6965 155.873 13.7258 155.965 13.7845C156.057 13.8395 156.169 13.9018 156.301 13.9715C156.433 14.0412 156.587 14.1053 156.763 14.164C156.942 14.219 157.155 14.2465 157.401 14.2465C157.676 14.2465 157.923 14.2025 158.143 14.1145C158.363 14.0265 158.552 13.9018 158.71 13.7405C158.867 13.5755 158.988 13.3793 159.073 13.152C159.157 12.9247 159.199 12.6698 159.199 12.3875C159.199 12.1418 159.162 11.92 159.089 11.722C159.019 11.524 158.911 11.3553 158.765 11.216C158.622 11.0767 158.442 10.9685 158.226 10.8915C158.009 10.8145 157.756 10.776 157.467 10.776C157.269 10.776 157.061 10.7925 156.845 10.8255C156.632 10.8585 156.414 10.9117 156.191 10.985L155.575 10.8035L156.207 7.1185H159.942V7.5475C159.942 7.68683 159.898 7.80233 159.81 7.894C159.725 7.982 159.579 8.026 159.37 8.026H156.895L156.532 10.094ZM162.912 10.094C163.323 10.006 163.701 9.962 164.045 9.962C164.456 9.962 164.819 10.0225 165.134 10.1435C165.45 10.2645 165.712 10.4313 165.921 10.644C166.134 10.8567 166.293 11.1078 166.399 11.3975C166.509 11.6872 166.564 12.0025 166.564 12.3435C166.564 12.7615 166.491 13.1392 166.344 13.4765C166.201 13.8138 166.002 14.1035 165.745 14.3455C165.492 14.5838 165.193 14.7672 164.848 14.8955C164.504 15.0238 164.132 15.088 163.732 15.088C163.501 15.088 163.279 15.0642 163.066 15.0165C162.854 14.9725 162.654 14.912 162.467 14.835C162.284 14.758 162.113 14.67 161.955 14.571C161.798 14.472 161.658 14.3675 161.537 14.2575L161.84 13.8395C161.906 13.7442 161.992 13.6965 162.098 13.6965C162.172 13.6965 162.254 13.7258 162.346 13.7845C162.438 13.8395 162.549 13.9018 162.681 13.9715C162.813 14.0412 162.967 14.1053 163.143 14.164C163.323 14.219 163.536 14.2465 163.781 14.2465C164.056 14.2465 164.304 14.2025 164.524 14.1145C164.744 14.0265 164.933 13.9018 165.09 13.7405C165.248 13.5755 165.369 13.3793 165.453 13.152C165.538 12.9247 165.58 12.6698 165.58 12.3875C165.58 12.1418 165.543 11.92 165.47 11.722C165.4 11.524 165.292 11.3553 165.145 11.216C165.002 11.0767 164.823 10.9685 164.606 10.8915C164.39 10.8145 164.137 10.776 163.847 10.776C163.649 10.776 163.442 10.7925 163.226 10.8255C163.013 10.8585 162.795 10.9117 162.571 10.985L161.955 10.8035L162.588 7.1185H166.322V7.5475C166.322 7.68683 166.278 7.80233 166.19 7.894C166.106 7.982 165.959 8.026 165.75 8.026H163.275L162.912 10.094ZM173.248 7.1185V7.5585C173.248 7.68317 173.233 7.78583 173.204 7.8665C173.178 7.94717 173.152 8.015 173.127 8.07L169.86 14.6535C169.812 14.7488 169.746 14.8313 169.662 14.901C169.577 14.967 169.466 15 169.326 15H168.622L171.933 8.499C171.981 8.40733 172.03 8.323 172.082 8.246C172.133 8.169 172.188 8.09567 172.247 8.026H168.133C168.07 8.026 168.015 8.00217 167.968 7.9545C167.92 7.90317 167.896 7.84633 167.896 7.784V7.1185H173.248ZM175.674 10.094C176.085 10.006 176.462 9.962 176.807 9.962C177.218 9.962 177.581 10.0225 177.896 10.1435C178.211 10.2645 178.474 10.4313 178.683 10.644C178.895 10.8567 179.055 11.1078 179.161 11.3975C179.271 11.6872 179.326 12.0025 179.326 12.3435C179.326 12.7615 179.253 13.1392 179.106 13.4765C178.963 13.8138 178.763 14.1035 178.507 14.3455C178.254 14.5838 177.955 14.7672 177.61 14.8955C177.265 15.0238 176.893 15.088 176.494 15.088C176.263 15.088 176.041 15.0642 175.828 15.0165C175.615 14.9725 175.416 14.912 175.229 14.835C175.045 14.758 174.875 14.67 174.717 14.571C174.559 14.472 174.42 14.3675 174.299 14.2575L174.602 13.8395C174.668 13.7442 174.754 13.6965 174.86 13.6965C174.933 13.6965 175.016 13.7258 175.108 13.7845C175.199 13.8395 175.311 13.9018 175.443 13.9715C175.575 14.0412 175.729 14.1053 175.905 14.164C176.085 14.219 176.297 14.2465 176.543 14.2465C176.818 14.2465 177.066 14.2025 177.286 14.1145C177.506 14.0265 177.694 13.9018 177.852 13.7405C178.01 13.5755 178.131 13.3793 178.215 13.152C178.299 12.9247 178.342 12.6698 178.342 12.3875C178.342 12.1418 178.305 11.92 178.232 11.722C178.162 11.524 178.054 11.3553 177.907 11.216C177.764 11.0767 177.584 10.9685 177.368 10.8915C177.152 10.8145 176.899 10.776 176.609 10.776C176.411 10.776 176.204 10.7925 175.988 10.8255C175.775 10.8585 175.557 10.9117 175.333 10.985L174.717 10.8035L175.35 7.1185H179.084V7.5475C179.084 7.68683 179.04 7.80233 178.952 7.894C178.868 7.982 178.721 8.026 178.512 8.026H176.037L175.674 10.094ZM186.009 7.1185V7.5585C186.009 7.68317 185.995 7.78583 185.965 7.8665C185.94 7.94717 185.914 8.015 185.888 8.07L182.621 14.6535C182.574 14.7488 182.508 14.8313 182.423 14.901C182.339 14.967 182.227 15 182.088 15H181.384L184.695 8.499C184.743 8.40733 184.792 8.323 184.843 8.246C184.895 8.169 184.95 8.09567 185.008 8.026H180.894C180.832 8.026 180.777 8.00217 180.729 7.9545C180.682 7.90317 180.658 7.84633 180.658 7.784V7.1185H186.009ZM190.46 12.1565V8.906C190.46 8.81067 190.463 8.70617 190.471 8.5925C190.478 8.47883 190.489 8.36333 190.504 8.246L187.633 12.1565H190.46ZM192.511 12.1565V12.7175C192.511 12.7762 192.493 12.8257 192.456 12.866C192.423 12.9063 192.37 12.9265 192.297 12.9265H191.318V15H190.46V12.9265H186.962C186.888 12.9265 186.824 12.9063 186.769 12.866C186.718 12.822 186.685 12.7688 186.67 12.7065L186.571 12.206L190.405 7.1185H191.318V12.1565H192.511ZM196.016 14.307C196.272 14.307 196.502 14.2722 196.703 14.2025C196.909 14.1292 197.081 14.0283 197.22 13.9C197.363 13.768 197.471 13.6122 197.545 13.4325C197.622 13.2492 197.66 13.0475 197.66 12.8275C197.66 12.5562 197.614 12.3252 197.523 12.1345C197.435 11.9402 197.314 11.7825 197.16 11.6615C197.009 11.5405 196.835 11.4525 196.637 11.3975C196.439 11.3388 196.232 11.3095 196.016 11.3095C195.799 11.3095 195.592 11.3388 195.394 11.3975C195.196 11.4525 195.02 11.5405 194.866 11.6615C194.716 11.7825 194.595 11.9402 194.503 12.1345C194.415 12.3252 194.371 12.5562 194.371 12.8275C194.371 13.0475 194.408 13.2492 194.481 13.4325C194.558 13.6122 194.666 13.768 194.806 13.9C194.949 14.0283 195.121 14.1292 195.323 14.2025C195.528 14.2722 195.759 14.307 196.016 14.307ZM196.016 7.7895C195.781 7.7895 195.574 7.82433 195.394 7.894C195.218 7.96367 195.07 8.059 194.949 8.18C194.831 8.301 194.742 8.44217 194.679 8.6035C194.621 8.76483 194.591 8.93717 194.591 9.1205C194.591 9.30017 194.617 9.47433 194.668 9.643C194.72 9.81167 194.802 9.962 194.916 10.094C195.029 10.2223 195.176 10.3268 195.356 10.4075C195.539 10.4845 195.759 10.523 196.016 10.523C196.272 10.523 196.491 10.4845 196.67 10.4075C196.854 10.3268 197.002 10.2223 197.116 10.094C197.229 9.962 197.312 9.81167 197.363 9.643C197.415 9.47433 197.44 9.30017 197.44 9.1205C197.44 8.93717 197.409 8.76483 197.347 8.6035C197.288 8.44217 197.198 8.301 197.077 8.18C196.96 8.059 196.811 7.96367 196.632 7.894C196.456 7.82433 196.25 7.7895 196.016 7.7895ZM197.143 10.8915C197.635 11.0308 198.012 11.2637 198.276 11.59C198.54 11.9163 198.672 12.3343 198.672 12.844C198.672 13.1887 198.606 13.5003 198.474 13.779C198.346 14.054 198.164 14.2887 197.93 14.483C197.699 14.6773 197.42 14.8277 197.094 14.934C196.767 15.0367 196.408 15.088 196.016 15.088C195.623 15.088 195.264 15.0367 194.938 14.934C194.611 14.8277 194.331 14.6773 194.096 14.483C193.862 14.2887 193.68 14.054 193.552 13.779C193.423 13.5003 193.359 13.1887 193.359 12.844C193.359 12.3343 193.491 11.9163 193.755 11.59C194.019 11.2637 194.397 11.0308 194.888 10.8915C194.474 10.7375 194.16 10.5083 193.948 10.204C193.739 9.896 193.634 9.52933 193.634 9.104C193.634 8.81433 193.691 8.543 193.805 8.29C193.918 8.037 194.08 7.817 194.289 7.63C194.498 7.443 194.747 7.29633 195.037 7.19C195.33 7.08367 195.656 7.0305 196.016 7.0305C196.371 7.0305 196.696 7.08367 196.989 7.19C197.283 7.29633 197.534 7.443 197.743 7.63C197.952 7.817 198.113 8.037 198.227 8.29C198.34 8.543 198.397 8.81433 198.397 9.104C198.397 9.52933 198.291 9.896 198.078 10.204C197.869 10.5083 197.558 10.7375 197.143 10.8915ZM199.922 9.2525C199.973 8.89317 200.072 8.576 200.219 8.301C200.365 8.02233 200.55 7.7895 200.774 7.6025C201.001 7.4155 201.26 7.27433 201.55 7.179C201.843 7.08 202.158 7.0305 202.496 7.0305C202.829 7.0305 203.137 7.07817 203.42 7.1735C203.702 7.26883 203.944 7.4045 204.146 7.5805C204.351 7.7565 204.51 7.96917 204.624 8.2185C204.738 8.46783 204.795 8.74467 204.795 9.049C204.795 9.29833 204.762 9.522 204.696 9.72C204.633 9.91433 204.542 10.0848 204.421 10.2315C204.303 10.3782 204.16 10.5028 203.992 10.6055C203.823 10.7082 203.634 10.7925 203.425 10.8585C203.938 10.9905 204.323 11.2178 204.58 11.5405C204.84 11.8595 204.971 12.2592 204.971 12.7395C204.971 13.1025 204.901 13.4288 204.762 13.7185C204.626 14.0082 204.439 14.2557 204.201 14.461C203.962 14.6627 203.684 14.8185 203.365 14.9285C203.049 15.0348 202.71 15.088 202.347 15.088C201.929 15.088 201.572 15.0367 201.275 14.934C200.978 14.8277 200.726 14.6828 200.521 14.4995C200.316 14.3162 200.147 14.0998 200.015 13.8505C199.883 13.5975 199.771 13.3243 199.68 13.031L200.103 12.855C200.213 12.8073 200.319 12.7945 200.422 12.8165C200.528 12.8385 200.605 12.899 200.653 12.998C200.701 13.1007 200.759 13.2235 200.829 13.3665C200.902 13.5095 201.001 13.647 201.126 13.779C201.251 13.911 201.408 14.0228 201.599 14.1145C201.793 14.2062 202.039 14.252 202.336 14.252C202.611 14.252 202.851 14.208 203.057 14.12C203.266 14.0283 203.438 13.911 203.574 13.768C203.713 13.625 203.817 13.4655 203.887 13.2895C203.957 13.1135 203.992 12.9393 203.992 12.767C203.992 12.5543 203.964 12.36 203.909 12.184C203.854 12.008 203.751 11.8558 203.601 11.7275C203.451 11.5992 203.244 11.4983 202.98 11.425C202.719 11.3517 202.384 11.315 201.973 11.315V10.6055C202.31 10.6018 202.596 10.5652 202.831 10.4955C203.069 10.4258 203.262 10.3305 203.409 10.2095C203.559 10.0885 203.667 9.94367 203.733 9.775C203.803 9.60633 203.838 9.41933 203.838 9.214C203.838 8.98667 203.801 8.78867 203.728 8.62C203.658 8.45133 203.561 8.312 203.436 8.202C203.311 8.092 203.163 8.0095 202.991 7.9545C202.822 7.8995 202.639 7.872 202.441 7.872C202.243 7.872 202.057 7.90133 201.885 7.96C201.716 8.01867 201.566 8.10117 201.434 8.2075C201.306 8.31017 201.198 8.433 201.11 8.576C201.022 8.719 200.959 8.87667 200.923 9.049C200.875 9.17733 200.814 9.2635 200.741 9.3075C200.671 9.34783 200.569 9.35883 200.433 9.3405L199.922 9.2525ZM207.144 9.434C207.144 9.68333 207.179 9.907 207.248 10.105C207.322 10.2993 207.424 10.4643 207.556 10.6C207.692 10.7357 207.855 10.8383 208.046 10.908C208.24 10.9777 208.457 11.0125 208.695 11.0125C208.959 11.0125 209.192 10.9703 209.393 10.886C209.599 10.798 209.771 10.6825 209.91 10.5395C210.05 10.3965 210.156 10.2315 210.229 10.0445C210.303 9.8575 210.339 9.66317 210.339 9.4615C210.339 9.21583 210.299 8.994 210.218 8.796C210.141 8.59433 210.033 8.42383 209.894 8.2845C209.755 8.14517 209.588 8.03883 209.393 7.9655C209.203 7.8885 208.992 7.85 208.761 7.85C208.519 7.85 208.299 7.89033 208.101 7.971C207.903 8.048 207.732 8.15617 207.589 8.2955C207.446 8.43483 207.336 8.60167 207.259 8.796C207.182 8.99033 207.144 9.203 207.144 9.434ZM209.432 11.8595C209.513 11.7532 209.588 11.6523 209.657 11.557C209.727 11.4617 209.793 11.3663 209.855 11.271C209.654 11.4323 209.426 11.5552 209.173 11.6395C208.92 11.7238 208.653 11.766 208.37 11.766C208.073 11.766 207.791 11.7165 207.523 11.6175C207.259 11.5185 207.027 11.3737 206.825 11.183C206.623 10.9887 206.462 10.7522 206.341 10.4735C206.224 10.1912 206.165 9.8685 206.165 9.5055C206.165 9.16083 206.229 8.83817 206.357 8.5375C206.486 8.23683 206.665 7.97467 206.896 7.751C207.127 7.52733 207.402 7.35133 207.721 7.223C208.04 7.09467 208.391 7.0305 208.772 7.0305C209.15 7.0305 209.492 7.09283 209.8 7.2175C210.108 7.34217 210.372 7.51633 210.592 7.74C210.812 7.96367 210.981 8.23133 211.098 8.543C211.219 8.85467 211.28 9.19933 211.28 9.577C211.28 9.80433 211.258 10.0207 211.214 10.226C211.174 10.4277 211.113 10.6275 211.032 10.8255C210.955 11.0198 210.86 11.2142 210.746 11.4085C210.633 11.5992 210.504 11.7953 210.361 11.997L208.442 14.769C208.394 14.8387 208.326 14.8955 208.238 14.9395C208.15 14.9798 208.05 15 207.936 15H207.034L209.432 11.8595ZM212.683 9.2525C212.735 8.89317 212.834 8.576 212.98 8.301C213.127 8.02233 213.312 7.7895 213.536 7.6025C213.763 7.4155 214.022 7.27433 214.311 7.179C214.605 7.08 214.92 7.0305 215.257 7.0305C215.591 7.0305 215.899 7.07817 216.181 7.1735C216.464 7.26883 216.706 7.4045 216.907 7.5805C217.113 7.7565 217.272 7.96917 217.386 8.2185C217.499 8.46783 217.556 8.74467 217.556 9.049C217.556 9.29833 217.523 9.522 217.457 9.72C217.395 9.91433 217.303 10.0848 217.182 10.2315C217.065 10.3782 216.922 10.5028 216.753 10.6055C216.585 10.7082 216.396 10.7925 216.187 10.8585C216.7 10.9905 217.085 11.2178 217.342 11.5405C217.602 11.8595 217.732 12.2592 217.732 12.7395C217.732 13.1025 217.663 13.4288 217.523 13.7185C217.388 14.0082 217.201 14.2557 216.962 14.461C216.724 14.6627 216.445 14.8185 216.126 14.9285C215.811 15.0348 215.472 15.088 215.109 15.088C214.691 15.088 214.333 15.0367 214.036 14.934C213.739 14.8277 213.488 14.6828 213.283 14.4995C213.077 14.3162 212.909 14.0998 212.777 13.8505C212.645 13.5975 212.533 13.3243 212.441 13.031L212.865 12.855C212.975 12.8073 213.081 12.7945 213.184 12.8165C213.29 12.8385 213.367 12.899 213.415 12.998C213.462 13.1007 213.521 13.2235 213.591 13.3665C213.664 13.5095 213.763 13.647 213.888 13.779C214.012 13.911 214.17 14.0228 214.361 14.1145C214.555 14.2062 214.801 14.252 215.098 14.252C215.373 14.252 215.613 14.208 215.818 14.12C216.027 14.0283 216.2 13.911 216.335 13.768C216.475 13.625 216.579 13.4655 216.649 13.2895C216.718 13.1135 216.753 12.9393 216.753 12.767C216.753 12.5543 216.726 12.36 216.671 12.184C216.616 12.008 216.513 11.8558 216.363 11.7275C216.212 11.5992 216.005 11.4983 215.741 11.425C215.481 11.3517 215.145 11.315 214.735 11.315V10.6055C215.072 10.6018 215.358 10.5652 215.593 10.4955C215.831 10.4258 216.024 10.3305 216.17 10.2095C216.321 10.0885 216.429 9.94367 216.495 9.775C216.564 9.60633 216.599 9.41933 216.599 9.214C216.599 8.98667 216.563 8.78867 216.489 8.62C216.42 8.45133 216.322 8.312 216.198 8.202C216.073 8.092 215.925 8.0095 215.752 7.9545C215.584 7.8995 215.4 7.872 215.202 7.872C215.004 7.872 214.819 7.90133 214.647 7.96C214.478 8.01867 214.328 8.10117 214.196 8.2075C214.067 8.31017 213.959 8.433 213.871 8.576C213.783 8.719 213.721 8.87667 213.684 9.049C213.637 9.17733 213.576 9.2635 213.503 9.3075C213.433 9.34783 213.33 9.35883 213.195 9.3405L212.683 9.2525ZM219.906 9.434C219.906 9.68333 219.94 9.907 220.01 10.105C220.083 10.2993 220.186 10.4643 220.318 10.6C220.454 10.7357 220.617 10.8383 220.808 10.908C221.002 10.9777 221.218 11.0125 221.457 11.0125C221.721 11.0125 221.953 10.9703 222.155 10.886C222.36 10.798 222.533 10.6825 222.672 10.5395C222.811 10.3965 222.918 10.2315 222.991 10.0445C223.064 9.8575 223.101 9.66317 223.101 9.4615C223.101 9.21583 223.061 8.994 222.98 8.796C222.903 8.59433 222.795 8.42383 222.656 8.2845C222.516 8.14517 222.349 8.03883 222.155 7.9655C221.964 7.8885 221.754 7.85 221.523 7.85C221.281 7.85 221.061 7.89033 220.863 7.971C220.665 8.048 220.494 8.15617 220.351 8.2955C220.208 8.43483 220.098 8.60167 220.021 8.796C219.944 8.99033 219.906 9.203 219.906 9.434ZM222.194 11.8595C222.274 11.7532 222.349 11.6523 222.419 11.557C222.489 11.4617 222.555 11.3663 222.617 11.271C222.415 11.4323 222.188 11.5552 221.935 11.6395C221.682 11.7238 221.414 11.766 221.132 11.766C220.835 11.766 220.553 11.7165 220.285 11.6175C220.021 11.5185 219.788 11.3737 219.587 11.183C219.385 10.9887 219.224 10.7522 219.103 10.4735C218.985 10.1912 218.927 9.8685 218.927 9.5055C218.927 9.16083 218.991 8.83817 219.119 8.5375C219.247 8.23683 219.427 7.97467 219.658 7.751C219.889 7.52733 220.164 7.35133 220.483 7.223C220.802 7.09467 221.152 7.0305 221.534 7.0305C221.911 7.0305 222.254 7.09283 222.562 7.2175C222.87 7.34217 223.134 7.51633 223.354 7.74C223.574 7.96367 223.743 8.23133 223.86 8.543C223.981 8.85467 224.042 9.19933 224.042 9.577C224.042 9.80433 224.02 10.0207 223.976 10.226C223.935 10.4277 223.875 10.6275 223.794 10.8255C223.717 11.0198 223.622 11.2142 223.508 11.4085C223.394 11.5992 223.266 11.7953 223.123 11.997L221.204 14.769C221.156 14.8387 221.088 14.8955 221 14.9395C220.912 14.9798 220.811 15 220.698 15H219.796L222.194 11.8595ZM105.291 35.0705C105.397 35.0705 105.481 35.1017 105.544 35.164C105.606 35.2263 105.637 35.307 105.637 35.406V36H100.379V35.6645C100.379 35.5948 100.394 35.5233 100.423 35.45C100.452 35.3767 100.498 35.3088 100.561 35.2465L103.085 32.711C103.294 32.4983 103.485 32.2948 103.657 32.1005C103.829 31.9025 103.976 31.7045 104.097 31.5065C104.218 31.3085 104.312 31.1087 104.378 30.907C104.444 30.7017 104.477 30.4835 104.477 30.2525C104.477 30.0215 104.44 29.8198 104.367 29.6475C104.293 29.4715 104.192 29.3267 104.064 29.213C103.939 29.0993 103.791 29.015 103.619 28.96C103.446 28.9013 103.261 28.872 103.063 28.872C102.861 28.872 102.676 28.9013 102.508 28.96C102.339 29.0187 102.189 29.1012 102.057 29.2075C101.928 29.3102 101.82 29.433 101.732 29.576C101.644 29.719 101.582 29.8767 101.545 30.049C101.501 30.1773 101.441 30.2635 101.364 30.3075C101.29 30.3478 101.186 30.3588 101.05 30.3405L100.539 30.2525C100.59 29.8932 100.689 29.576 100.836 29.301C100.986 29.0223 101.173 28.7895 101.397 28.6025C101.624 28.4155 101.882 28.2743 102.172 28.179C102.462 28.08 102.775 28.0305 103.113 28.0305C103.446 28.0305 103.758 28.08 104.048 28.179C104.337 28.278 104.588 28.4228 104.801 28.6135C105.014 28.8005 105.181 29.0297 105.302 29.301C105.423 29.5723 105.483 29.8803 105.483 30.225C105.483 30.5183 105.439 30.7915 105.351 31.0445C105.263 31.2938 105.144 31.5322 104.994 31.7595C104.843 31.9868 104.669 32.2087 104.471 32.425C104.277 32.6413 104.07 32.8595 103.85 33.0795L101.771 35.2025C101.917 35.1622 102.066 35.131 102.216 35.109C102.366 35.0833 102.511 35.0705 102.651 35.0705H105.291ZM106.958 30.2525C107.009 29.8932 107.108 29.576 107.255 29.301C107.402 29.0223 107.587 28.7895 107.811 28.6025C108.038 28.4155 108.296 28.2743 108.586 28.179C108.879 28.08 109.195 28.0305 109.532 28.0305C109.866 28.0305 110.174 28.0782 110.456 28.1735C110.738 28.2688 110.98 28.4045 111.182 28.5805C111.387 28.7565 111.547 28.9692 111.661 29.2185C111.774 29.4678 111.831 29.7447 111.831 30.049C111.831 30.2983 111.798 30.522 111.732 30.72C111.67 30.9143 111.578 31.0848 111.457 31.2315C111.34 31.3782 111.197 31.5028 111.028 31.6055C110.859 31.7082 110.671 31.7925 110.462 31.8585C110.975 31.9905 111.36 32.2178 111.617 32.5405C111.877 32.8595 112.007 33.2592 112.007 33.7395C112.007 34.1025 111.937 34.4288 111.798 34.7185C111.662 35.0082 111.475 35.2557 111.237 35.461C110.999 35.6627 110.72 35.8185 110.401 35.9285C110.086 36.0348 109.747 36.088 109.384 36.088C108.966 36.088 108.608 36.0367 108.311 35.934C108.014 35.8277 107.763 35.6828 107.558 35.4995C107.352 35.3162 107.184 35.0998 107.052 34.8505C106.92 34.5975 106.808 34.3243 106.716 34.031L107.14 33.855C107.25 33.8073 107.356 33.7945 107.459 33.8165C107.565 33.8385 107.642 33.899 107.69 33.998C107.737 34.1007 107.796 34.2235 107.866 34.3665C107.939 34.5095 108.038 34.647 108.163 34.779C108.287 34.911 108.445 35.0228 108.636 35.1145C108.83 35.2062 109.076 35.252 109.373 35.252C109.648 35.252 109.888 35.208 110.093 35.12C110.302 35.0283 110.474 34.911 110.61 34.768C110.749 34.625 110.854 34.4655 110.924 34.2895C110.993 34.1135 111.028 33.9393 111.028 33.767C111.028 33.5543 111.001 33.36 110.946 33.184C110.891 33.008 110.788 32.8558 110.638 32.7275C110.487 32.5992 110.28 32.4983 110.016 32.425C109.756 32.3517 109.42 32.315 109.01 32.315V31.6055C109.347 31.6018 109.633 31.5652 109.868 31.4955C110.106 31.4258 110.298 31.3305 110.445 31.2095C110.595 31.0885 110.704 30.9437 110.77 30.775C110.839 30.6063 110.874 30.4193 110.874 30.214C110.874 29.9867 110.837 29.7887 110.764 29.62C110.694 29.4513 110.597 29.312 110.473 29.202C110.348 29.092 110.199 29.0095 110.027 28.9545C109.858 28.8995 109.675 28.872 109.477 28.872C109.279 28.872 109.094 28.9013 108.922 28.96C108.753 29.0187 108.603 29.1012 108.471 29.2075C108.342 29.3102 108.234 29.433 108.146 29.576C108.058 29.719 107.996 29.8767 107.959 30.049C107.911 30.1773 107.851 30.2635 107.778 30.3075C107.708 30.3478 107.605 30.3588 107.47 30.3405L106.958 30.2525ZM113.234 35.395C113.234 35.2997 113.251 35.2098 113.284 35.1255C113.321 35.0412 113.368 34.9678 113.427 34.9055C113.489 34.8432 113.563 34.7937 113.647 34.757C113.731 34.7203 113.821 34.702 113.916 34.702C114.012 34.702 114.102 34.7203 114.186 34.757C114.27 34.7937 114.344 34.8432 114.406 34.9055C114.468 34.9678 114.518 35.0412 114.554 35.1255C114.591 35.2098 114.609 35.2997 114.609 35.395C114.609 35.494 114.591 35.5857 114.554 35.67C114.518 35.7507 114.468 35.8222 114.406 35.8845C114.344 35.9468 114.27 35.9945 114.186 36.0275C114.102 36.0642 114.012 36.0825 113.916 36.0825C113.821 36.0825 113.731 36.0642 113.647 36.0275C113.563 35.9945 113.489 35.9468 113.427 35.8845C113.368 35.8222 113.321 35.7507 113.284 35.67C113.251 35.5857 113.234 35.494 113.234 35.395ZM120.822 35.252V36H116.598V35.252H118.287V29.8785C118.287 29.7172 118.292 29.554 118.303 29.389L116.901 30.5935C116.853 30.6338 116.806 30.6595 116.758 30.6705C116.71 30.6778 116.666 30.6778 116.626 30.6705C116.586 30.6632 116.547 30.6485 116.51 30.6265C116.477 30.6045 116.452 30.5807 116.433 30.555L116.125 30.1315L118.474 28.102H119.271V35.252H120.822ZM127.654 32.062C127.654 32.7513 127.579 33.349 127.429 33.855C127.282 34.3573 127.081 34.7735 126.824 35.1035C126.567 35.4335 126.263 35.6792 125.911 35.8405C125.563 36.0018 125.189 36.0825 124.789 36.0825C124.386 36.0825 124.01 36.0018 123.661 35.8405C123.317 35.6792 123.016 35.4335 122.759 35.1035C122.503 34.7735 122.301 34.3573 122.154 33.855C122.008 33.349 121.934 32.7513 121.934 32.062C121.934 31.3727 122.008 30.775 122.154 30.269C122.301 29.763 122.503 29.345 122.759 29.015C123.016 28.6813 123.317 28.4338 123.661 28.2725C124.01 28.1112 124.386 28.0305 124.789 28.0305C125.189 28.0305 125.563 28.1112 125.911 28.2725C126.263 28.4338 126.567 28.6813 126.824 29.015C127.081 29.345 127.282 29.763 127.429 30.269C127.579 30.775 127.654 31.3727 127.654 32.062ZM126.637 32.062C126.637 31.4607 126.586 30.9565 126.483 30.5495C126.384 30.1388 126.248 29.8088 126.076 29.5595C125.907 29.3102 125.711 29.1323 125.487 29.026C125.264 28.916 125.031 28.861 124.789 28.861C124.547 28.861 124.314 28.916 124.09 29.026C123.867 29.1323 123.671 29.3102 123.502 29.5595C123.333 29.8088 123.198 30.1388 123.095 30.5495C122.996 30.9565 122.946 31.4607 122.946 32.062C122.946 32.6633 122.996 33.1675 123.095 33.5745C123.198 33.9815 123.333 34.3097 123.502 34.559C123.671 34.8083 123.867 34.988 124.09 35.098C124.314 35.2043 124.547 35.2575 124.789 35.2575C125.031 35.2575 125.264 35.2043 125.487 35.098C125.711 34.988 125.907 34.8083 126.076 34.559C126.248 34.3097 126.384 33.9815 126.483 33.5745C126.586 33.1675 126.637 32.6633 126.637 32.062ZM128.596 35.395C128.596 35.2997 128.612 35.2098 128.645 35.1255C128.682 35.0412 128.73 34.9678 128.788 34.9055C128.851 34.8432 128.924 34.7937 129.008 34.757C129.093 34.7203 129.182 34.702 129.278 34.702C129.373 34.702 129.463 34.7203 129.547 34.757C129.632 34.7937 129.705 34.8432 129.767 34.9055C129.83 34.9678 129.879 35.0412 129.916 35.1255C129.952 35.2098 129.971 35.2997 129.971 35.395C129.971 35.494 129.952 35.5857 129.916 35.67C129.879 35.7507 129.83 35.8222 129.767 35.8845C129.705 35.9468 129.632 35.9945 129.547 36.0275C129.463 36.0642 129.373 36.0825 129.278 36.0825C129.182 36.0825 129.093 36.0642 129.008 36.0275C128.924 35.9945 128.851 35.9468 128.788 35.8845C128.73 35.8222 128.682 35.7507 128.645 35.67C128.612 35.5857 128.596 35.494 128.596 35.395ZM136.123 35.0705C136.23 35.0705 136.314 35.1017 136.376 35.164C136.439 35.2263 136.47 35.307 136.47 35.406V36H131.212V35.6645C131.212 35.5948 131.226 35.5233 131.256 35.45C131.285 35.3767 131.331 35.3088 131.393 35.2465L133.918 32.711C134.127 32.4983 134.317 32.2948 134.49 32.1005C134.662 31.9025 134.809 31.7045 134.93 31.5065C135.051 31.3085 135.144 31.1087 135.21 30.907C135.276 30.7017 135.309 30.4835 135.309 30.2525C135.309 30.0215 135.273 29.8198 135.199 29.6475C135.126 29.4715 135.025 29.3267 134.897 29.213C134.772 29.0993 134.624 29.015 134.451 28.96C134.279 28.9013 134.094 28.872 133.896 28.872C133.694 28.872 133.509 28.9013 133.34 28.96C133.172 29.0187 133.021 29.1012 132.889 29.2075C132.761 29.3102 132.653 29.433 132.565 29.576C132.477 29.719 132.414 29.8767 132.378 30.049C132.334 30.1773 132.273 30.2635 132.196 30.3075C132.123 30.3478 132.018 30.3588 131.883 30.3405L131.371 30.2525C131.423 29.8932 131.522 29.576 131.668 29.301C131.819 29.0223 132.006 28.7895 132.229 28.6025C132.457 28.4155 132.715 28.2743 133.005 28.179C133.294 28.08 133.608 28.0305 133.945 28.0305C134.279 28.0305 134.591 28.08 134.88 28.179C135.17 28.278 135.421 28.4228 135.634 28.6135C135.846 28.8005 136.013 29.0297 136.134 29.301C136.255 29.5723 136.316 29.8803 136.316 30.225C136.316 30.5183 136.272 30.7915 136.184 31.0445C136.096 31.2938 135.977 31.5322 135.826 31.7595C135.676 31.9868 135.502 32.2087 135.304 32.425C135.109 32.6413 134.902 32.8595 134.682 33.0795L132.603 35.2025C132.75 35.1622 132.898 35.131 133.049 35.109C133.199 35.0833 133.344 35.0705 133.483 35.0705H136.123ZM143.236 32.062C143.236 32.7513 143.161 33.349 143.01 33.855C142.864 34.3573 142.662 34.7735 142.405 35.1035C142.149 35.4335 141.844 35.6792 141.492 35.8405C141.144 36.0018 140.77 36.0825 140.37 36.0825C139.967 36.0825 139.591 36.0018 139.243 35.8405C138.898 35.6792 138.597 35.4335 138.341 35.1035C138.084 34.7735 137.882 34.3573 137.736 33.855C137.589 33.349 137.516 32.7513 137.516 32.062C137.516 31.3727 137.589 30.775 137.736 30.269C137.882 29.763 138.084 29.345 138.341 29.015C138.597 28.6813 138.898 28.4338 139.243 28.2725C139.591 28.1112 139.967 28.0305 140.37 28.0305C140.77 28.0305 141.144 28.1112 141.492 28.2725C141.844 28.4338 142.149 28.6813 142.405 29.015C142.662 29.345 142.864 29.763 143.01 30.269C143.161 30.775 143.236 31.3727 143.236 32.062ZM142.218 32.062C142.218 31.4607 142.167 30.9565 142.064 30.5495C141.965 30.1388 141.83 29.8088 141.657 29.5595C141.489 29.3102 141.292 29.1323 141.069 29.026C140.845 28.916 140.612 28.861 140.37 28.861C140.128 28.861 139.895 28.916 139.672 29.026C139.448 29.1323 139.252 29.3102 139.083 29.5595C138.915 29.8088 138.779 30.1388 138.676 30.5495C138.577 30.9565 138.528 31.4607 138.528 32.062C138.528 32.6633 138.577 33.1675 138.676 33.5745C138.779 33.9815 138.915 34.3097 139.083 34.559C139.252 34.8083 139.448 34.988 139.672 35.098C139.895 35.2043 140.128 35.2575 140.37 35.2575C140.612 35.2575 140.845 35.2043 141.069 35.098C141.292 34.988 141.489 34.8083 141.657 34.559C141.83 34.3097 141.965 33.9815 142.064 33.5745C142.167 33.1675 142.218 32.6633 142.218 32.062ZM149.105 35.0705C149.211 35.0705 149.296 35.1017 149.358 35.164C149.42 35.2263 149.452 35.307 149.452 35.406V36H144.194V35.6645C144.194 35.5948 144.208 35.5233 144.238 35.45C144.267 35.3767 144.313 35.3088 144.375 35.2465L146.9 32.711C147.109 32.4983 147.299 32.2948 147.472 32.1005C147.644 31.9025 147.791 31.7045 147.912 31.5065C148.033 31.3085 148.126 31.1087 148.192 30.907C148.258 30.7017 148.291 30.4835 148.291 30.2525C148.291 30.0215 148.254 29.8198 148.181 29.6475C148.108 29.4715 148.007 29.3267 147.879 29.213C147.754 29.0993 147.605 29.015 147.433 28.96C147.261 28.9013 147.076 28.872 146.878 28.872C146.676 28.872 146.491 28.9013 146.322 28.96C146.153 29.0187 146.003 29.1012 145.871 29.2075C145.743 29.3102 145.635 29.433 145.547 29.576C145.459 29.719 145.396 29.8767 145.36 30.049C145.316 30.1773 145.255 30.2635 145.178 30.3075C145.105 30.3478 145 30.3588 144.865 30.3405L144.353 30.2525C144.404 29.8932 144.503 29.576 144.65 29.301C144.8 29.0223 144.987 28.7895 145.211 28.6025C145.438 28.4155 145.697 28.2743 145.987 28.179C146.276 28.08 146.59 28.0305 146.927 28.0305C147.261 28.0305 147.572 28.08 147.862 28.179C148.152 28.278 148.403 28.4228 148.616 28.6135C148.828 28.8005 148.995 29.0297 149.116 29.301C149.237 29.5723 149.298 29.8803 149.298 30.225C149.298 30.5183 149.254 30.7915 149.166 31.0445C149.078 31.2938 148.958 31.5322 148.808 31.7595C148.658 31.9868 148.484 32.2087 148.286 32.425C148.091 32.6413 147.884 32.8595 147.664 33.0795L145.585 35.2025C145.732 35.1622 145.88 35.131 146.031 35.109C146.181 35.0833 146.326 35.0705 146.465 35.0705H149.105ZM155.596 35.0705C155.702 35.0705 155.787 35.1017 155.849 35.164C155.911 35.2263 155.942 35.307 155.942 35.406V36H150.684V35.6645C150.684 35.5948 150.699 35.5233 150.728 35.45C150.758 35.3767 150.804 35.3088 150.866 35.2465L153.39 32.711C153.599 32.4983 153.79 32.2948 153.962 32.1005C154.135 31.9025 154.281 31.7045 154.402 31.5065C154.523 31.3085 154.617 31.1087 154.683 30.907C154.749 30.7017 154.782 30.4835 154.782 30.2525C154.782 30.0215 154.745 29.8198 154.672 29.6475C154.599 29.4715 154.498 29.3267 154.369 29.213C154.245 29.0993 154.096 29.015 153.924 28.96C153.752 28.9013 153.566 28.872 153.368 28.872C153.167 28.872 152.982 28.9013 152.813 28.96C152.644 29.0187 152.494 29.1012 152.362 29.2075C152.234 29.3102 152.125 29.433 152.037 29.576C151.949 29.719 151.887 29.8767 151.85 30.049C151.806 30.1773 151.746 30.2635 151.669 30.3075C151.596 30.3478 151.491 30.3588 151.355 30.3405L150.844 30.2525C150.895 29.8932 150.994 29.576 151.141 29.301C151.291 29.0223 151.478 28.7895 151.702 28.6025C151.929 28.4155 152.188 28.2743 152.477 28.179C152.767 28.08 153.081 28.0305 153.418 28.0305C153.752 28.0305 154.063 28.08 154.353 28.179C154.643 28.278 154.894 28.4228 155.106 28.6135C155.319 28.8005 155.486 29.0297 155.607 29.301C155.728 29.5723 155.788 29.8803 155.788 30.225C155.788 30.5183 155.744 30.7915 155.656 31.0445C155.568 31.2938 155.449 31.5322 155.299 31.7595C155.149 31.9868 154.974 32.2087 154.776 32.425C154.582 32.6413 154.375 32.8595 154.155 33.0795L152.076 35.2025C152.223 35.1622 152.371 35.131 152.521 35.109C152.672 35.0833 152.817 35.0705 152.956 35.0705H155.596Z" fill="#40424F"/>
<path d="M165.182 35.252V36H160.958V35.252H162.646V29.8785C162.646 29.7172 162.652 29.554 162.663 29.389L161.26 30.5935C161.213 30.6338 161.165 30.6595 161.117 30.6705C161.07 30.6778 161.026 30.6778 160.985 30.6705C160.945 30.6632 160.906 30.6485 160.87 30.6265C160.837 30.6045 160.811 30.5807 160.793 30.555L160.485 30.1315L162.833 28.102H163.631V35.252H165.182ZM171.673 35.252V36H167.449V35.252H169.137V29.8785C169.137 29.7172 169.143 29.554 169.154 29.389L167.751 30.5935C167.703 30.6338 167.656 30.6595 167.608 30.6705C167.56 30.6778 167.516 30.6778 167.476 30.6705C167.436 30.6632 167.397 30.6485 167.361 30.6265C167.328 30.6045 167.302 30.5807 167.284 30.555L166.976 30.1315L169.324 28.102H170.122V35.252H171.673ZM173.252 35.395C173.252 35.2997 173.268 35.2098 173.301 35.1255C173.338 35.0412 173.386 34.9678 173.444 34.9055C173.507 34.8432 173.58 34.7937 173.664 34.757C173.749 34.7203 173.839 34.702 173.934 34.702C174.029 34.702 174.119 34.7203 174.203 34.757C174.288 34.7937 174.361 34.8432 174.423 34.9055C174.486 34.9678 174.535 35.0412 174.572 35.1255C174.609 35.2098 174.627 35.2997 174.627 35.395C174.627 35.494 174.609 35.5857 174.572 35.67C174.535 35.7507 174.486 35.8222 174.423 35.8845C174.361 35.9468 174.288 35.9945 174.203 36.0275C174.119 36.0642 174.029 36.0825 173.934 36.0825C173.839 36.0825 173.749 36.0642 173.664 36.0275C173.58 35.9945 173.507 35.9468 173.444 35.8845C173.386 35.8222 173.338 35.7507 173.301 35.67C173.268 35.5857 173.252 35.494 173.252 35.395ZM173.252 31.27C173.252 31.1747 173.268 31.0848 173.301 31.0005C173.338 30.9162 173.386 30.8428 173.444 30.7805C173.507 30.7182 173.58 30.6687 173.664 30.632C173.749 30.5953 173.839 30.577 173.934 30.577C174.029 30.577 174.119 30.5953 174.203 30.632C174.288 30.6687 174.361 30.7182 174.423 30.7805C174.486 30.8428 174.535 30.9162 174.572 31.0005C174.609 31.0848 174.627 31.1747 174.627 31.27C174.627 31.369 174.609 31.4607 174.572 31.545C174.535 31.6257 174.486 31.6972 174.423 31.7595C174.361 31.8218 174.288 31.8713 174.203 31.908C174.119 31.941 174.029 31.9575 173.934 31.9575C173.839 31.9575 173.749 31.941 173.664 31.908C173.58 31.8713 173.507 31.8218 173.444 31.7595C173.386 31.6972 173.338 31.6257 173.301 31.545C173.268 31.4607 173.252 31.369 173.252 31.27ZM181.023 35.252V36H176.799V35.252H178.488V29.8785C178.488 29.7172 178.493 29.554 178.504 29.389L177.102 30.5935C177.054 30.6338 177.007 30.6595 176.959 30.6705C176.911 30.6778 176.867 30.6778 176.827 30.6705C176.787 30.6632 176.748 30.6485 176.711 30.6265C176.678 30.6045 176.653 30.5807 176.634 30.555L176.326 30.1315L178.675 28.102H179.472V35.252H181.023ZM187.344 35.0705C187.45 35.0705 187.534 35.1017 187.597 35.164C187.659 35.2263 187.69 35.307 187.69 35.406V36H182.432V35.6645C182.432 35.5948 182.447 35.5233 182.476 35.45C182.506 35.3767 182.551 35.3088 182.614 35.2465L185.138 32.711C185.347 32.4983 185.538 32.2948 185.71 32.1005C185.883 31.9025 186.029 31.7045 186.15 31.5065C186.271 31.3085 186.365 31.1087 186.431 30.907C186.497 30.7017 186.53 30.4835 186.53 30.2525C186.53 30.0215 186.493 29.8198 186.42 29.6475C186.346 29.4715 186.246 29.3267 186.117 29.213C185.993 29.0993 185.844 29.015 185.672 28.96C185.499 28.9013 185.314 28.872 185.116 28.872C184.915 28.872 184.729 28.9013 184.561 28.96C184.392 29.0187 184.242 29.1012 184.11 29.2075C183.981 29.3102 183.873 29.433 183.785 29.576C183.697 29.719 183.635 29.8767 183.598 30.049C183.554 30.1773 183.494 30.2635 183.417 30.3075C183.343 30.3478 183.239 30.3588 183.103 30.3405L182.592 30.2525C182.643 29.8932 182.742 29.576 182.889 29.301C183.039 29.0223 183.226 28.7895 183.45 28.6025C183.677 28.4155 183.936 28.2743 184.225 28.179C184.515 28.08 184.828 28.0305 185.166 28.0305C185.499 28.0305 185.811 28.08 186.101 28.179C186.39 28.278 186.642 28.4228 186.854 28.6135C187.067 28.8005 187.234 29.0297 187.355 29.301C187.476 29.5723 187.536 29.8803 187.536 30.225C187.536 30.5183 187.492 30.7915 187.404 31.0445C187.316 31.2938 187.197 31.5322 187.047 31.7595C186.896 31.9868 186.722 32.2087 186.524 32.425C186.33 32.6413 186.123 32.8595 185.903 33.0795L183.824 35.2025C183.97 35.1622 184.119 35.131 184.269 35.109C184.42 35.0833 184.564 35.0705 184.704 35.0705H187.344ZM189.094 35.395C189.094 35.2997 189.11 35.2098 189.143 35.1255C189.18 35.0412 189.227 34.9678 189.286 34.9055C189.348 34.8432 189.422 34.7937 189.506 34.757C189.59 34.7203 189.68 34.702 189.776 34.702C189.871 34.702 189.961 34.7203 190.045 34.757C190.129 34.7937 190.203 34.8432 190.265 34.9055C190.327 34.9678 190.377 35.0412 190.414 35.1255C190.45 35.2098 190.469 35.2997 190.469 35.395C190.469 35.494 190.45 35.5857 190.414 35.67C190.377 35.7507 190.327 35.8222 190.265 35.8845C190.203 35.9468 190.129 35.9945 190.045 36.0275C189.961 36.0642 189.871 36.0825 189.776 36.0825C189.68 36.0825 189.59 36.0642 189.506 36.0275C189.422 35.9945 189.348 35.9468 189.286 35.8845C189.227 35.8222 189.18 35.7507 189.143 35.67C189.11 35.5857 189.094 35.494 189.094 35.395ZM189.094 31.27C189.094 31.1747 189.11 31.0848 189.143 31.0005C189.18 30.9162 189.227 30.8428 189.286 30.7805C189.348 30.7182 189.422 30.6687 189.506 30.632C189.59 30.5953 189.68 30.577 189.776 30.577C189.871 30.577 189.961 30.5953 190.045 30.632C190.129 30.6687 190.203 30.7182 190.265 30.7805C190.327 30.8428 190.377 30.9162 190.414 31.0005C190.45 31.0848 190.469 31.1747 190.469 31.27C190.469 31.369 190.45 31.4607 190.414 31.545C190.377 31.6257 190.327 31.6972 190.265 31.7595C190.203 31.8218 190.129 31.8713 190.045 31.908C189.961 31.941 189.871 31.9575 189.776 31.9575C189.68 31.9575 189.59 31.941 189.506 31.908C189.422 31.8713 189.348 31.8218 189.286 31.7595C189.227 31.6972 189.18 31.6257 189.143 31.545C189.11 31.4607 189.094 31.369 189.094 31.27ZM196.865 35.252V36H192.641V35.252H194.33V29.8785C194.33 29.7172 194.335 29.554 194.346 29.389L192.944 30.5935C192.896 30.6338 192.848 30.6595 192.801 30.6705C192.753 30.6778 192.709 30.6778 192.669 30.6705C192.628 30.6632 192.59 30.6485 192.553 30.6265C192.52 30.6045 192.494 30.5807 192.476 30.555L192.168 30.1315L194.517 28.102H195.314V35.252H196.865ZM203.356 35.252V36H199.132V35.252H200.82V29.8785C200.82 29.7172 200.826 29.554 200.837 29.389L199.434 30.5935C199.387 30.6338 199.339 30.6595 199.291 30.6705C199.244 30.6778 199.2 30.6778 199.159 30.6705C199.119 30.6632 199.081 30.6485 199.044 30.6265C199.011 30.6045 198.985 30.5807 198.967 30.555L198.659 30.1315L201.007 28.102H201.805V35.252H203.356Z" fill="#ABABAB"/>
<rect width="94" height="37" transform="translate(104 296)" fill="#86AA16"/>
<path d="M140.954 318.922C141.342 318.922 141.675 318.878 141.955 318.789C142.235 318.7 142.464 318.577 142.641 318.418C142.823 318.255 142.956 318.063 143.04 317.844C143.124 317.62 143.166 317.375 143.166 317.109C143.166 316.591 142.982 316.183 142.613 315.884C142.245 315.581 141.692 315.429 140.954 315.429H138.784V318.922H140.954ZM138.784 311.04V314.463H140.576C140.959 314.463 141.29 314.421 141.57 314.337C141.855 314.253 142.088 314.136 142.27 313.987C142.457 313.838 142.595 313.658 142.683 313.448C142.772 313.233 142.816 313 142.816 312.748C142.816 312.155 142.639 311.724 142.284 311.453C141.93 311.178 141.379 311.04 140.632 311.04H138.784ZM140.632 309.969C141.248 309.969 141.778 310.03 142.221 310.151C142.669 310.272 143.036 310.445 143.32 310.669C143.61 310.893 143.822 311.168 143.957 311.495C144.093 311.817 144.16 312.181 144.16 312.587C144.16 312.834 144.121 313.072 144.041 313.301C143.967 313.525 143.852 313.735 143.698 313.931C143.544 314.127 143.348 314.304 143.11 314.463C142.877 314.617 142.602 314.743 142.284 314.841C143.022 314.981 143.575 315.245 143.943 315.632C144.317 316.015 144.503 316.519 144.503 317.144C144.503 317.569 144.424 317.956 144.265 318.306C144.111 318.656 143.883 318.957 143.579 319.209C143.281 319.461 142.912 319.657 142.473 319.797C142.035 319.932 141.535 320 140.975 320H137.433V309.969H140.632ZM149.924 316.808C149.35 316.827 148.86 316.873 148.454 316.948C148.052 317.018 147.723 317.111 147.467 317.228C147.215 317.345 147.03 317.482 146.914 317.641C146.802 317.8 146.746 317.977 146.746 318.173C146.746 318.36 146.776 318.521 146.837 318.656C146.897 318.791 146.979 318.903 147.082 318.992C147.189 319.076 147.313 319.139 147.453 319.181C147.597 319.218 147.751 319.237 147.915 319.237C148.134 319.237 148.335 319.216 148.517 319.174C148.699 319.127 148.869 319.062 149.028 318.978C149.191 318.894 149.345 318.794 149.49 318.677C149.639 318.56 149.784 318.427 149.924 318.278V316.808ZM145.899 313.91C146.291 313.532 146.713 313.25 147.166 313.063C147.618 312.876 148.12 312.783 148.671 312.783C149.067 312.783 149.42 312.848 149.728 312.979C150.036 313.11 150.295 313.292 150.505 313.525C150.715 313.758 150.873 314.041 150.981 314.372C151.088 314.703 151.142 315.067 151.142 315.464V320H150.589C150.467 320 150.374 319.981 150.309 319.944C150.243 319.902 150.192 319.823 150.155 319.706L150.015 319.034C149.828 319.207 149.646 319.361 149.469 319.496C149.291 319.627 149.105 319.739 148.909 319.832C148.713 319.921 148.503 319.988 148.279 320.035C148.059 320.086 147.814 320.112 147.544 320.112C147.268 320.112 147.009 320.075 146.767 320C146.524 319.921 146.312 319.804 146.13 319.65C145.952 319.496 145.81 319.302 145.703 319.069C145.6 318.831 145.549 318.551 145.549 318.229C145.549 317.949 145.626 317.681 145.78 317.424C145.934 317.163 146.183 316.932 146.529 316.731C146.874 316.53 147.324 316.367 147.88 316.241C148.435 316.11 149.116 316.036 149.924 316.017V315.464C149.924 314.913 149.805 314.498 149.567 314.218C149.329 313.933 148.981 313.791 148.524 313.791C148.216 313.791 147.957 313.831 147.747 313.91C147.541 313.985 147.362 314.071 147.208 314.169C147.058 314.262 146.928 314.349 146.816 314.428C146.708 314.503 146.601 314.54 146.494 314.54C146.41 314.54 146.337 314.519 146.277 314.477C146.216 314.43 146.165 314.374 146.123 314.309L145.899 313.91ZM157.975 314.169C157.937 314.22 157.9 314.26 157.863 314.288C157.825 314.316 157.774 314.33 157.709 314.33C157.639 314.33 157.562 314.302 157.478 314.246C157.394 314.185 157.289 314.12 157.163 314.05C157.041 313.98 156.89 313.917 156.708 313.861C156.53 313.8 156.311 313.77 156.05 313.77C155.7 313.77 155.392 313.833 155.126 313.959C154.86 314.08 154.636 314.258 154.454 314.491C154.276 314.724 154.141 315.007 154.048 315.338C153.959 315.669 153.915 316.04 153.915 316.451C153.915 316.88 153.964 317.263 154.062 317.599C154.16 317.93 154.297 318.21 154.475 318.439C154.657 318.663 154.874 318.836 155.126 318.957C155.382 319.074 155.669 319.132 155.987 319.132C156.29 319.132 156.54 319.097 156.736 319.027C156.932 318.952 157.093 318.871 157.219 318.782C157.349 318.693 157.457 318.614 157.541 318.544C157.629 318.469 157.716 318.432 157.8 318.432C157.902 318.432 157.982 318.472 158.038 318.551L158.388 319.006C158.234 319.197 158.059 319.361 157.863 319.496C157.667 319.631 157.454 319.746 157.226 319.839C157.002 319.928 156.766 319.993 156.519 320.035C156.271 320.077 156.019 320.098 155.763 320.098C155.319 320.098 154.906 320.016 154.524 319.853C154.146 319.69 153.817 319.454 153.537 319.146C153.257 318.833 153.037 318.451 152.879 317.998C152.72 317.545 152.641 317.03 152.641 316.451C152.641 315.924 152.713 315.436 152.858 314.988C153.007 314.54 153.222 314.155 153.502 313.833C153.786 313.506 154.134 313.252 154.545 313.07C154.96 312.888 155.436 312.797 155.973 312.797C156.472 312.797 156.911 312.879 157.289 313.042C157.671 313.201 158.01 313.427 158.304 313.721L157.975 314.169ZM160.978 309.689V315.758H161.3C161.394 315.758 161.471 315.746 161.531 315.723C161.597 315.695 161.664 315.641 161.734 315.562L163.974 313.161C164.04 313.082 164.107 313.021 164.177 312.979C164.252 312.932 164.35 312.909 164.471 312.909H165.598L162.987 315.688C162.861 315.847 162.726 315.97 162.581 316.059C162.665 316.115 162.74 316.18 162.805 316.255C162.875 316.325 162.941 316.407 163.001 316.5L165.773 320H164.66C164.553 320 164.46 319.984 164.38 319.951C164.306 319.914 164.24 319.848 164.184 319.755L161.853 316.85C161.783 316.752 161.713 316.689 161.643 316.661C161.578 316.628 161.475 316.612 161.335 316.612H160.978V320H159.725V309.689H160.978Z" fill="white"/>
<path d="M105.344 106.42H102.285C102.111 104.734 101.201 103.168 99.8705 102.204H105.344C105.676 102.204 105.946 101.933 105.946 101.602C105.946 101.271 105.676 101 105.344 101H92.6022C92.271 101 92 101.271 92 101.602C92 101.933 92.271 102.204 92.6022 102.204H96.2514C98.7324 102.204 100.78 104.071 101.075 106.42H92.6022C92.271 106.42 92 106.691 92 107.022C92 107.353 92.271 107.624 92.6022 107.624H101.075C100.774 110.063 98.7023 111.893 96.2514 111.899H92.6082C92.271 111.905 92 112.182 92.006 112.52C92.006 112.682 92.0783 112.839 92.1927 112.953L101.304 121.57C101.545 121.799 101.924 121.787 102.153 121.546C102.382 121.299 102.37 120.92 102.129 120.685L94.1137 113.104H96.2454C99.3888 113.104 101.984 110.695 102.285 107.624H105.344C105.676 107.624 105.946 107.353 105.946 107.022C105.946 106.691 105.676 106.42 105.344 106.42Z" fill="black"/>
<path d="M116.896 111.822C118.502 111.478 119.978 111.306 121.325 111.306C122.931 111.306 124.35 111.542 125.582 112.015C126.815 112.488 127.84 113.141 128.657 113.972C129.488 114.803 130.112 115.785 130.527 116.917C130.957 118.05 131.172 119.282 131.172 120.615C131.172 122.249 130.886 123.726 130.312 125.044C129.753 126.363 128.972 127.495 127.969 128.441C126.98 129.373 125.812 130.09 124.464 130.591C123.117 131.093 121.662 131.344 120.1 131.344C119.197 131.344 118.33 131.251 117.498 131.065C116.667 130.892 115.886 130.656 115.155 130.355C114.438 130.054 113.772 129.71 113.155 129.323C112.539 128.936 111.994 128.527 111.521 128.097L112.704 126.463C112.962 126.091 113.299 125.904 113.714 125.904C114.001 125.904 114.323 126.019 114.682 126.248C115.04 126.463 115.477 126.707 115.993 126.979C116.509 127.252 117.111 127.503 117.799 127.732C118.502 127.947 119.333 128.054 120.293 128.054C121.368 128.054 122.336 127.882 123.196 127.538C124.056 127.194 124.794 126.707 125.41 126.076C126.027 125.431 126.5 124.665 126.829 123.776C127.159 122.887 127.324 121.891 127.324 120.787C127.324 119.827 127.18 118.96 126.894 118.186C126.621 117.412 126.199 116.753 125.625 116.208C125.066 115.663 124.364 115.24 123.518 114.939C122.673 114.638 121.684 114.488 120.551 114.488C119.777 114.488 118.967 114.552 118.122 114.681C117.29 114.81 116.438 115.018 115.563 115.305L113.155 114.595L115.628 100.19H130.226V101.867C130.226 102.412 130.054 102.864 129.71 103.222C129.381 103.566 128.807 103.738 127.99 103.738H118.315L116.896 111.822ZM157.707 115.606C157.707 118.301 157.413 120.637 156.825 122.615C156.252 124.579 155.463 126.205 154.46 127.495C153.457 128.785 152.267 129.746 150.891 130.376C149.529 131.007 148.067 131.323 146.505 131.323C144.928 131.323 143.459 131.007 142.098 130.376C140.75 129.746 139.575 128.785 138.572 127.495C137.568 126.205 136.78 124.579 136.207 122.615C135.633 120.637 135.347 118.301 135.347 115.606C135.347 112.911 135.633 110.575 136.207 108.597C136.78 106.619 137.568 104.985 138.572 103.695C139.575 102.391 140.75 101.423 142.098 100.792C143.459 100.162 144.928 99.8465 146.505 99.8465C148.067 99.8465 149.529 100.162 150.891 100.792C152.267 101.423 153.457 102.391 154.46 103.695C155.463 104.985 156.252 106.619 156.825 108.597C157.413 110.575 157.707 112.911 157.707 115.606ZM153.729 115.606C153.729 113.255 153.528 111.284 153.127 109.693C152.74 108.088 152.21 106.798 151.536 105.823C150.877 104.849 150.11 104.154 149.236 103.738C148.361 103.308 147.451 103.093 146.505 103.093C145.559 103.093 144.649 103.308 143.775 103.738C142.9 104.154 142.133 104.849 141.474 105.823C140.815 106.798 140.284 108.088 139.883 109.693C139.496 111.284 139.303 113.255 139.303 115.606C139.303 117.957 139.496 119.927 139.883 121.518C140.284 123.109 140.815 124.392 141.474 125.367C142.133 126.342 142.9 127.044 143.775 127.474C144.649 127.89 145.559 128.097 146.505 128.097C147.451 128.097 148.361 127.89 149.236 127.474C150.11 127.044 150.877 126.342 151.536 125.367C152.21 124.392 152.74 123.109 153.127 121.518C153.528 119.927 153.729 117.957 153.729 115.606ZM182.65 115.606C182.65 118.301 182.356 120.637 181.769 122.615C181.195 124.579 180.407 126.205 179.404 127.495C178.4 128.785 177.211 129.746 175.835 130.376C174.473 131.007 173.011 131.323 171.449 131.323C169.872 131.323 168.403 131.007 167.041 130.376C165.694 129.746 164.518 128.785 163.515 127.495C162.512 126.205 161.723 124.579 161.15 122.615C160.577 120.637 160.29 118.301 160.29 115.606C160.29 112.911 160.577 110.575 161.15 108.597C161.723 106.619 162.512 104.985 163.515 103.695C164.518 102.391 165.694 101.423 167.041 100.792C168.403 100.162 169.872 99.8465 171.449 99.8465C173.011 99.8465 174.473 100.162 175.835 100.792C177.211 101.423 178.4 102.391 179.404 103.695C180.407 104.985 181.195 106.619 181.769 108.597C182.356 110.575 182.65 112.911 182.65 115.606ZM178.673 115.606C178.673 113.255 178.472 111.284 178.071 109.693C177.684 108.088 177.153 106.798 176.48 105.823C175.82 104.849 175.053 104.154 174.179 103.738C173.305 103.308 172.395 103.093 171.449 103.093C170.503 103.093 169.592 103.308 168.718 103.738C167.844 104.154 167.077 104.849 166.418 105.823C165.758 106.798 165.228 108.088 164.827 109.693C164.44 111.284 164.246 113.255 164.246 115.606C164.246 117.957 164.44 119.927 164.827 121.518C165.228 123.109 165.758 124.392 166.418 125.367C167.077 126.342 167.844 127.044 168.718 127.474C169.592 127.89 170.503 128.097 171.449 128.097C172.395 128.097 173.305 127.89 174.179 127.474C175.053 127.044 175.82 126.342 176.48 125.367C177.153 124.392 177.684 123.109 178.071 121.518C178.472 119.927 178.673 117.957 178.673 115.606ZM207.593 115.606C207.593 118.301 207.3 120.637 206.712 122.615C206.139 124.579 205.35 126.205 204.347 127.495C203.344 128.785 202.154 129.746 200.778 130.376C199.416 131.007 197.954 131.323 196.392 131.323C194.815 131.323 193.346 131.007 191.984 130.376C190.637 129.746 189.462 128.785 188.458 127.495C187.455 126.205 186.667 124.579 186.093 122.615C185.52 120.637 185.233 118.301 185.233 115.606C185.233 112.911 185.52 110.575 186.093 108.597C186.667 106.619 187.455 104.985 188.458 103.695C189.462 102.391 190.637 101.423 191.984 100.792C193.346 100.162 194.815 99.8465 196.392 99.8465C197.954 99.8465 199.416 100.162 200.778 100.792C202.154 101.423 203.344 102.391 204.347 103.695C205.35 104.985 206.139 106.619 206.712 108.597C207.3 110.575 207.593 112.911 207.593 115.606ZM203.616 115.606C203.616 113.255 203.415 111.284 203.014 109.693C202.627 108.088 202.097 106.798 201.423 105.823C200.764 104.849 199.997 104.154 199.122 103.738C198.248 103.308 197.338 103.093 196.392 103.093C195.446 103.093 194.536 103.308 193.661 103.738C192.787 104.154 192.02 104.849 191.361 105.823C190.702 106.798 190.171 108.088 189.77 109.693C189.383 111.284 189.189 113.255 189.189 115.606C189.189 117.957 189.383 119.927 189.77 121.518C190.171 123.109 190.702 124.392 191.361 125.367C192.02 126.342 192.787 127.044 193.661 127.474C194.536 127.89 195.446 128.097 196.392 128.097C197.338 128.097 198.248 127.89 199.122 127.474C199.997 127.044 200.764 126.342 201.423 125.367C202.097 124.392 202.627 123.109 203.014 121.518C203.415 119.927 203.616 117.957 203.616 115.606Z" fill="black"/>
</svg>
