<?xml version="1.0" encoding="UTF-8"?>
<svg version="1.1" xmlns="http://www.w3.org/2000/svg" width="64" height="64">
<path d="M0 0 C3.47263143 0.56373887 4.91317065 1.60850967 7.125 4.3125 C7.87136719 5.20388672 7.87136719 5.20388672 8.6328125 6.11328125 C12.38641952 11.29325893 12.15715193 15.23991588 11.83398438 21.59960938 C11.69567945 25.52433976 11.69567945 25.52433976 13.375 28.96484375 C14.96880582 30.18468622 14.96880582 30.18468622 17.0625 30 C19.26294207 29.108663 19.26294207 29.108663 20.25 26.4375 C20.4975 25.633125 20.745 24.82875 21 24 C21.99 24 22.98 24 24 24 C28.01303827 32.06340712 30.15514977 38.77440222 27.85546875 47.6953125 C25.33842581 54.47638708 21.36847596 59.60347949 15 63 C8.49603778 65.16798741 -0.18286114 65.30781164 -6.5 62.4375 C-11.87800084 59.18300164 -16.35698862 54.12395151 -18 48 C-19.65949874 39.84079787 -18.92949191 32.56087426 -14.375 25.4375 C-11.45246502 21.37762383 -8.15781179 17.68534627 -4.734375 14.04296875 C-1.95548372 10.7696351 -0.80036304 8.00363039 -0.375 3.75 C-0.25125 2.5125 -0.1275 1.275 0 0 Z M1 33 C-4.32303763 38.91912217 -4.32303763 38.91912217 -6.3125 46.4375 C-5.90025612 51.13708026 -4.54328246 53.55960304 -1.125 56.75 C1.41041563 58.24142096 3.0477515 58.85941674 6 59 C9.49393691 57.60242524 12.90183034 56.20246947 15 53 C15.54242754 50.31976978 15.77572609 47.73614169 16 45 C13.7852268 43.69454314 13.7852268 43.69454314 10.0625 44.125 C6.26881887 44.13874522 6.26881887 44.13874522 4.0625 43 C2.35699294 39.78963377 2.29565596 36.60700273 2 33 C1.67 33 1.34 33 1 33 Z " fill="#000000" transform="translate(27,0)"/>
</svg>
