<svg width="144" height="92" viewBox="0 0 144 92" fill="none" xmlns="http://www.w3.org/2000/svg">
    <path d="M15.6002 60.1999C20.6002 59.7999 25.3002 58.0999 29.7002 55.4999C29.5002 55.3999 29.5002 55.2999 29.5002 55.2999C18.3002 51.7999 12.2002 41.0999 15.0002 29.7999C17.2002 21.0999 24.9002 14.6999 34.1002 14.2999C42.3002 13.8999 48.6002 17.2999 53.1002 24.1999C53.4002 24.5999 53.5002 24.9999 54.1002 24.9999C58.8002 24.9999 63.4002 24.9999 68.1002 24.9999C67.6002 23.2999 67.0002 21.6999 66.2002 20.1999C60.3002 7.69993 47.4002 -0.50007 32.2002 0.79993C18.0002 2.09993 5.60016 11.9999 2.10016 26.0999C-0.799836 37.8999 1.60016 48.4999 9.40016 57.6999C12.4002 61.2999 11.1002 60.5999 15.6002 60.1999Z" fill="#FEFEFE"/>
    <path d="M34.7003 31.2C33.9003 31.2 33.7003 31.4 33.7003 32.2C33.7003 35.5 33.8003 38.8 33.7003 42.2C33.7003 43.1 33.9003 43.2999 34.8003 43.2999C40.4003 43.2999 45.9003 43.2999 51.5003 43.2999C51.9003 43.2999 52.3003 43.2999 52.8003 43.2999C50.4003 48.9999 46.9003 53.5999 42.2003 57.2999C34.9003 62.8999 26.6003 65.3 17.3003 64.4C25.7003 70.2 43.1003 73.4999 57.8003 61.5999C57.8003 63.1999 57.8003 64.8 57.8003 66.3C57.8003 67.1 57.9003 67.5 58.9003 67.5C61.8003 67.4 64.7003 67.4 67.5003 67.5C68.3003 67.5 68.6003 67.3 68.6003 66.4C68.6003 55 68.6003 43.6999 68.6003 32.2999C68.6003 31.3999 68.3003 31.2999 67.5003 31.2999C56.6003 31.2999 45.7003 31.3 34.7003 31.2Z" fill="#FFC629"/>
    <path d="M141 89.9H2.2C1.6 89.9 1 89.4 1 88.7V75.5C1 74.9 1.5 74.3 2.2 74.3H141C141.6 74.3 142.2 74.8 142.2 75.5V88.8C142.2 89.4 141.7 89.9 141 89.9Z" fill="#FFC629"/>
    <path d="M16.6998 86.4H11.7998V77.8H16.6998V78.7H12.8998V81.4H16.4998V82.3H12.8998V85.4H16.6998V86.4Z" fill="black" stroke="black" stroke-width="0.5" stroke-miterlimit="10" stroke-linecap="round" stroke-linejoin="round"/>
    <path d="M32.4998 86.4H31.1998L28.8998 82.7L26.4998 86.4H25.2998L28.1998 81.9L25.4998 77.8H26.6998L28.7998 81.2L30.9998 77.8H32.1998L29.4998 81.9L32.4998 86.4Z" fill="black" stroke="black" stroke-width="0.5" stroke-miterlimit="10" stroke-linecap="round" stroke-linejoin="round"/>
    <path d="M48.7996 85.3C47.8996 86.1 46.8996 86.5 45.5996 86.5C44.7996 86.5 44.1996 86.4 43.5996 86.1C42.9996 85.9 42.4996 85.5 42.1996 85.1C41.7996 84.7 41.5996 84.2 41.3996 83.7C41.1996 83.2 41.0996 82.7 41.0996 82.1C41.0996 81.5 41.1996 81 41.3996 80.5C41.5996 80 41.8996 79.5 42.1996 79.1C42.5996 78.7 42.9996 78.3 43.5996 78.1C44.1996 77.9 44.8996 77.7 45.5996 77.7C46.7996 77.7 47.8996 78.1 48.6996 79L47.6996 80C47.0996 79.4 46.2996 79.1 45.4996 79.1C44.7996 79.1 44.1996 79.3 43.6996 79.6C43.1996 79.9 42.8996 80.3 42.5996 80.8C42.2996 81.3 42.2996 81.8 42.2996 82.3C42.2996 82.8 42.3996 83.3 42.5996 83.8C42.7996 84.3 43.1996 84.6 43.6996 84.9C44.1996 85.2 44.7996 85.4 45.4996 85.4C45.8996 85.4 46.2996 85.3 46.6996 85.2C47.0996 85.1 47.4996 84.8 47.7996 84.5L48.7996 85.3Z" fill="black" stroke="black" stroke-width="0.5" stroke-miterlimit="10" stroke-linecap="round" stroke-linejoin="round"/>
    <path d="M64.8997 86.4H63.7997V82.4H59.2997V86.4H58.1997V77.8H59.2997V81.4H63.7997V77.8H64.8997V86.4Z" fill="black" stroke="black" stroke-width="0.5" stroke-miterlimit="10" stroke-linecap="round" stroke-linejoin="round"/>
    <path d="M81 84.6H76.3L75.5 86.4H74L77.9 78H79.4L83.3 86.4H81.8L81 84.6ZM78.7 79.4L76.9 83.4H80.5L78.7 79.4Z" fill="black" stroke="black" stroke-width="0.5" stroke-miterlimit="10" stroke-linecap="round" stroke-linejoin="round"/>
    <path d="M99.4 86.4H98.1L93.4 79.3V79.8C93.4 80.5 93.5 81.1 93.5 81.7V86.5H92.5V77.9H93.8L94.1 78.3L97 82.6L98.5 84.9C98.5 84.8 98.5 84.5 98.5 83.9C98.5 83.3 98.5 82.9 98.5 82.6V77.8H99.5V86.4H99.4Z" fill="black" stroke="black" stroke-width="0.5" stroke-miterlimit="10" stroke-linecap="round" stroke-linejoin="round"/>
    <path d="M113.5 81.9H116.5V86.1C116 86.2 115.6 86.4 115.1 86.4C114.6 86.5 114.1 86.5 113.4 86.5C112.1 86.5 111 86.1 110.3 85.3C109.6 84.5 109.2 83.4 109.2 82.1C109.2 81.2 109.4 80.4 109.7 79.8C110 79.2 110.6 78.6 111.3 78.3C112 78 112.8 77.8 113.7 77.8C114.6 77.8 115.5 78 116.3 78.3L115.9 79.2C115.1 78.9 114.4 78.7 113.6 78.7C112.6 78.7 111.7 79 111.2 79.6C110.6 80.2 110.3 81.1 110.3 82.1C110.3 83.2 110.6 84.1 111.1 84.7C111.7 85.3 112.5 85.6 113.6 85.6C114.2 85.6 114.8 85.5 115.3 85.4V82.9H113.4V81.9H113.5Z" fill="black" stroke="black" stroke-width="0.5" stroke-miterlimit="10" stroke-linecap="round" stroke-linejoin="round"/>
    <path d="M131.4 86.4H126.5V77.8H131.4V78.7H127.6V81.4H131.2V82.3H127.6V85.4H131.4V86.4Z" fill="black" stroke="black" stroke-width="0.5" stroke-miterlimit="10" stroke-linecap="round" stroke-linejoin="round"/>
    <path d="M109 0.699904C89.9 0.299904 73.5 15.3999 73.5 35.0999C73.5 54.5999 89.2 69.4999 107.9 69.5999C127.3 69.6999 142.9 53.1999 142.3 35.1999C143 16.8999 127.3 1.0999 109 0.699904ZM128.8 34.8999C129 46.4999 119.5 56.0999 107.9 56.0999C96.3 56.0999 86.9 46.7999 86.8 35.1999C86.7 23.8999 96.2 14.2999 107.5 14.1999C119.3 14.0999 128.6 23.2999 128.8 34.8999Z" fill="#FEFEFD"/>
    <path d="M140.9 34.8C141.2 53.1 126.3 68.2 108.1 68.2C89.8999 68.2 75.0999 53.6 74.8999 35.3C74.7999 17.5 89.6999 2.30004 107.4 2.20004C126 2.00004 140.6 16.5 140.9 34.8Z" stroke="#FFC629" stroke-width="0.5" stroke-miterlimit="10"/>
</svg>
