<svg width="210" height="48" viewBox="0 0 210 48" fill="none" xmlns="http://www.w3.org/2000/svg">
    <g filter="url(#filter0_d_914_1912)">
        <rect x="46.5" y="0.5" width="159" height="39" rx="1.5" stroke="#35795E" shape-rendering="crispEdges"/>
    </g>
    <path d="M87.1325 15.536L83.5565 27H82.1645L79.2605 18.256C79.2338 18.1707 79.2072 18.08 79.1805 17.984C79.1592 17.888 79.1352 17.7867 79.1085 17.68C79.0818 17.7867 79.0552 17.888 79.0285 17.984C79.0018 18.08 78.9752 18.1707 78.9485 18.256L76.0285 27H74.6365L71.0605 15.536H72.3485C72.4872 15.536 72.6018 15.5707 72.6925 15.64C72.7885 15.7093 72.8498 15.7973 72.8765 15.904L75.2445 23.872C75.2818 24.016 75.3165 24.1707 75.3485 24.336C75.3858 24.5013 75.4205 24.6773 75.4525 24.864C75.4898 24.6773 75.5272 24.5013 75.5645 24.336C75.6072 24.1653 75.6525 24.0107 75.7005 23.872L78.3965 15.904C78.4285 15.8133 78.4898 15.7307 78.5805 15.656C78.6765 15.576 78.7912 15.536 78.9245 15.536H79.3725C79.5112 15.536 79.6232 15.5707 79.7085 15.64C79.7938 15.7093 79.8578 15.7973 79.9005 15.904L82.5885 23.872C82.6365 24.0107 82.6792 24.16 82.7165 24.32C82.7592 24.48 82.7992 24.648 82.8365 24.824C82.8632 24.648 82.8925 24.48 82.9245 24.32C82.9565 24.16 82.9912 24.0107 83.0285 23.872L85.4045 15.904C85.4312 15.808 85.4898 15.7227 85.5805 15.648C85.6765 15.5733 85.7912 15.536 85.9245 15.536H87.1325ZM89.8569 19.976C90.2035 19.608 90.5875 19.3147 91.0089 19.096C91.4302 18.8773 91.9155 18.768 92.4649 18.768C92.9075 18.768 93.2969 18.8427 93.6329 18.992C93.9742 19.136 94.2569 19.344 94.4809 19.616C94.7102 19.8827 94.8835 20.2053 95.0009 20.584C95.1182 20.9627 95.1769 21.3813 95.1769 21.84V27H93.7449V21.84C93.7449 21.2267 93.6035 20.752 93.3209 20.416C93.0435 20.0747 92.6195 19.904 92.0489 19.904C91.6275 19.904 91.2329 20.0053 90.8649 20.208C90.5022 20.4107 90.1662 20.6853 89.8569 21.032V27H88.4249V15.216H89.8569V19.976ZM101.739 23.352C101.083 23.3733 100.523 23.4267 100.059 23.512C99.6001 23.592 99.2241 23.6987 98.9308 23.832C98.6428 23.9653 98.4321 24.1227 98.2988 24.304C98.1708 24.4853 98.1068 24.688 98.1068 24.912C98.1068 25.1253 98.1414 25.3093 98.2108 25.464C98.2801 25.6187 98.3734 25.7467 98.4908 25.848C98.6134 25.944 98.7548 26.016 98.9148 26.064C99.0801 26.1067 99.2561 26.128 99.4428 26.128C99.6934 26.128 99.9228 26.104 100.131 26.056C100.339 26.0027 100.533 25.928 100.715 25.832C100.901 25.736 101.077 25.6213 101.243 25.488C101.413 25.3547 101.579 25.2027 101.739 25.032V23.352ZM97.1388 20.04C97.5868 19.608 98.0694 19.2853 98.5868 19.072C99.1041 18.8587 99.6774 18.752 100.307 18.752C100.76 18.752 101.163 18.8267 101.515 18.976C101.867 19.1253 102.163 19.3333 102.403 19.6C102.643 19.8667 102.824 20.1893 102.947 20.568C103.069 20.9467 103.131 21.3627 103.131 21.816V27H102.499C102.36 27 102.253 26.9787 102.179 26.936C102.104 26.888 102.045 26.7973 102.003 26.664L101.843 25.896C101.629 26.0933 101.421 26.2693 101.219 26.424C101.016 26.5733 100.803 26.7013 100.579 26.808C100.355 26.9093 100.115 26.9867 99.8588 27.04C99.6081 27.0987 99.3281 27.128 99.0188 27.128C98.7041 27.128 98.4081 27.0853 98.1308 27C97.8534 26.9093 97.6108 26.776 97.4028 26.6C97.2001 26.424 97.0374 26.2027 96.9148 25.936C96.7974 25.664 96.7388 25.344 96.7388 24.976C96.7388 24.656 96.8268 24.3493 97.0028 24.056C97.1788 23.7573 97.4641 23.4933 97.8588 23.264C98.2534 23.0347 98.7681 22.848 99.4028 22.704C100.037 22.5547 100.816 22.4693 101.739 22.448V21.816C101.739 21.1867 101.603 20.712 101.331 20.392C101.059 20.0667 100.661 19.904 100.139 19.904C99.7868 19.904 99.4908 19.9493 99.2508 20.04C99.0161 20.1253 98.8108 20.224 98.6348 20.336C98.4641 20.4427 98.3148 20.5413 98.1868 20.632C98.0641 20.7173 97.9414 20.76 97.8188 20.76C97.7228 20.76 97.6401 20.736 97.5708 20.688C97.5014 20.6347 97.4428 20.5707 97.3947 20.496L97.1388 20.04ZM107.679 27.128C107.039 27.128 106.545 26.9493 106.199 26.592C105.857 26.2347 105.687 25.72 105.687 25.048V20.088H104.711C104.625 20.088 104.553 20.064 104.495 20.016C104.436 19.9627 104.407 19.8827 104.407 19.776V19.208L105.735 19.04L106.062 16.536C106.079 16.456 106.113 16.392 106.167 16.344C106.225 16.2907 106.3 16.264 106.391 16.264H107.111V19.056H109.455V20.088H107.111V24.952C107.111 25.2933 107.193 25.5467 107.359 25.712C107.524 25.8773 107.737 25.96 107.999 25.96C108.148 25.96 108.276 25.9413 108.383 25.904C108.495 25.8613 108.591 25.816 108.671 25.768C108.751 25.72 108.817 25.6773 108.871 25.64C108.929 25.5973 108.98 25.576 109.023 25.576C109.097 25.576 109.164 25.6213 109.223 25.712L109.639 26.392C109.393 26.6213 109.097 26.8027 108.751 26.936C108.404 27.064 108.047 27.128 107.679 27.128ZM115.645 20.232C115.581 20.3493 115.482 20.408 115.349 20.408C115.269 20.408 115.178 20.3787 115.077 20.32C114.976 20.2613 114.85 20.1973 114.701 20.128C114.557 20.0533 114.384 19.9867 114.181 19.928C113.978 19.864 113.738 19.832 113.461 19.832C113.221 19.832 113.005 19.864 112.813 19.928C112.621 19.9867 112.456 20.0693 112.317 20.176C112.184 20.2827 112.08 20.408 112.005 20.552C111.936 20.6907 111.901 20.8427 111.901 21.008C111.901 21.216 111.96 21.3893 112.077 21.528C112.2 21.6667 112.36 21.7867 112.557 21.888C112.754 21.9893 112.978 22.08 113.229 22.16C113.48 22.2347 113.736 22.3173 113.997 22.408C114.264 22.4933 114.522 22.5893 114.773 22.696C115.024 22.8027 115.248 22.936 115.445 23.096C115.642 23.256 115.8 23.4533 115.917 23.688C116.04 23.9173 116.101 24.1947 116.101 24.52C116.101 24.8933 116.034 25.24 115.901 25.56C115.768 25.8747 115.57 26.1493 115.309 26.384C115.048 26.6133 114.728 26.7947 114.349 26.928C113.97 27.0613 113.533 27.128 113.037 27.128C112.472 27.128 111.96 27.0373 111.501 26.856C111.042 26.6693 110.653 26.432 110.333 26.144L110.669 25.6C110.712 25.5307 110.762 25.4773 110.821 25.44C110.88 25.4027 110.954 25.384 111.045 25.384C111.141 25.384 111.242 25.4213 111.349 25.496C111.456 25.5707 111.584 25.6533 111.733 25.744C111.888 25.8347 112.074 25.9173 112.293 25.992C112.512 26.0667 112.784 26.104 113.109 26.104C113.386 26.104 113.629 26.0693 113.837 26C114.045 25.9253 114.218 25.8267 114.357 25.704C114.496 25.5813 114.597 25.44 114.661 25.28C114.73 25.12 114.765 24.9493 114.765 24.768C114.765 24.544 114.704 24.36 114.581 24.216C114.464 24.0667 114.306 23.9413 114.109 23.84C113.912 23.7333 113.685 23.6427 113.429 23.568C113.178 23.488 112.92 23.4053 112.653 23.32C112.392 23.2347 112.133 23.1387 111.877 23.032C111.626 22.92 111.402 22.7813 111.205 22.616C111.008 22.4507 110.848 22.248 110.725 22.008C110.608 21.7627 110.549 21.4667 110.549 21.12C110.549 20.8107 110.613 20.5147 110.741 20.232C110.869 19.944 111.056 19.6933 111.301 19.48C111.546 19.2613 111.848 19.088 112.205 18.96C112.562 18.832 112.97 18.768 113.429 18.768C113.962 18.768 114.44 18.8533 114.861 19.024C115.288 19.1893 115.656 19.4187 115.965 19.712L115.645 20.232ZM122.239 23.352C121.583 23.3733 121.023 23.4267 120.559 23.512C120.1 23.592 119.724 23.6987 119.431 23.832C119.143 23.9653 118.932 24.1227 118.799 24.304C118.671 24.4853 118.607 24.688 118.607 24.912C118.607 25.1253 118.641 25.3093 118.711 25.464C118.78 25.6187 118.873 25.7467 118.991 25.848C119.113 25.944 119.255 26.016 119.415 26.064C119.58 26.1067 119.756 26.128 119.943 26.128C120.193 26.128 120.423 26.104 120.631 26.056C120.839 26.0027 121.033 25.928 121.215 25.832C121.401 25.736 121.577 25.6213 121.743 25.488C121.913 25.3547 122.079 25.2027 122.239 25.032V23.352ZM117.639 20.04C118.087 19.608 118.569 19.2853 119.087 19.072C119.604 18.8587 120.177 18.752 120.807 18.752C121.26 18.752 121.663 18.8267 122.015 18.976C122.367 19.1253 122.663 19.3333 122.903 19.6C123.143 19.8667 123.324 20.1893 123.447 20.568C123.569 20.9467 123.631 21.3627 123.631 21.816V27H122.999C122.86 27 122.753 26.9787 122.679 26.936C122.604 26.888 122.545 26.7973 122.503 26.664L122.343 25.896C122.129 26.0933 121.921 26.2693 121.719 26.424C121.516 26.5733 121.303 26.7013 121.079 26.808C120.855 26.9093 120.615 26.9867 120.359 27.04C120.108 27.0987 119.828 27.128 119.519 27.128C119.204 27.128 118.908 27.0853 118.631 27C118.353 26.9093 118.111 26.776 117.903 26.6C117.7 26.424 117.537 26.2027 117.415 25.936C117.297 25.664 117.239 25.344 117.239 24.976C117.239 24.656 117.327 24.3493 117.503 24.056C117.679 23.7573 117.964 23.4933 118.359 23.264C118.753 23.0347 119.268 22.848 119.903 22.704C120.537 22.5547 121.316 22.4693 122.239 22.448V21.816C122.239 21.1867 122.103 20.712 121.831 20.392C121.559 20.0667 121.161 19.904 120.639 19.904C120.287 19.904 119.991 19.9493 119.751 20.04C119.516 20.1253 119.311 20.224 119.135 20.336C118.964 20.4427 118.815 20.5413 118.687 20.632C118.564 20.7173 118.441 20.76 118.319 20.76C118.223 20.76 118.14 20.736 118.071 20.688C118.001 20.6347 117.943 20.5707 117.895 20.496L117.639 20.04ZM127.232 25.048C127.493 25.4 127.779 25.648 128.088 25.792C128.397 25.936 128.744 26.008 129.128 26.008C129.885 26.008 130.467 25.7387 130.872 25.2C131.277 24.6613 131.48 23.8933 131.48 22.896C131.48 22.368 131.432 21.9147 131.336 21.536C131.245 21.1573 131.112 20.848 130.936 20.608C130.76 20.3627 130.544 20.184 130.288 20.072C130.032 19.96 129.741 19.904 129.416 19.904C128.952 19.904 128.544 20.0107 128.192 20.224C127.845 20.4373 127.525 20.7387 127.232 21.128V25.048ZM127.16 20.152C127.501 19.7307 127.896 19.392 128.344 19.136C128.792 18.88 129.304 18.752 129.88 18.752C130.349 18.752 130.773 18.8427 131.152 19.024C131.531 19.2 131.853 19.464 132.12 19.816C132.387 20.1627 132.592 20.5947 132.736 21.112C132.88 21.6293 132.952 22.224 132.952 22.896C132.952 23.4933 132.872 24.0507 132.712 24.568C132.552 25.08 132.32 25.5253 132.016 25.904C131.717 26.2773 131.349 26.5733 130.912 26.792C130.48 27.0053 129.992 27.112 129.448 27.112C128.952 27.112 128.525 27.0293 128.168 26.864C127.816 26.6933 127.504 26.4587 127.232 26.16V29.744H125.8V18.896H126.656C126.859 18.896 126.984 18.9947 127.032 19.192L127.16 20.152ZM136.201 25.048C136.462 25.4 136.747 25.648 137.057 25.792C137.366 25.936 137.713 26.008 138.097 26.008C138.854 26.008 139.435 25.7387 139.841 25.2C140.246 24.6613 140.449 23.8933 140.449 22.896C140.449 22.368 140.401 21.9147 140.305 21.536C140.214 21.1573 140.081 20.848 139.905 20.608C139.729 20.3627 139.513 20.184 139.257 20.072C139.001 19.96 138.71 19.904 138.385 19.904C137.921 19.904 137.513 20.0107 137.161 20.224C136.814 20.4373 136.494 20.7387 136.201 21.128V25.048ZM136.129 20.152C136.47 19.7307 136.865 19.392 137.313 19.136C137.761 18.88 138.273 18.752 138.849 18.752C139.318 18.752 139.742 18.8427 140.121 19.024C140.499 19.2 140.822 19.464 141.089 19.816C141.355 20.1627 141.561 20.5947 141.705 21.112C141.849 21.6293 141.921 22.224 141.921 22.896C141.921 23.4933 141.841 24.0507 141.681 24.568C141.521 25.08 141.289 25.5253 140.985 25.904C140.686 26.2773 140.318 26.5733 139.881 26.792C139.449 27.0053 138.961 27.112 138.417 27.112C137.921 27.112 137.494 27.0293 137.137 26.864C136.785 26.6933 136.473 26.4587 136.201 26.16V29.744H134.769V18.896H135.625C135.827 18.896 135.953 18.9947 136.001 19.192L136.129 20.152ZM157.455 15.536V27H156.679C156.556 27 156.452 26.9787 156.367 26.936C156.287 26.8933 156.207 26.8213 156.127 26.72L149.495 18.08C149.506 18.2133 149.514 18.344 149.519 18.472C149.524 18.6 149.527 18.72 149.527 18.832V27H148.167V15.536H148.967C149.036 15.536 149.095 15.5413 149.143 15.552C149.191 15.5573 149.234 15.5707 149.271 15.592C149.308 15.608 149.346 15.6347 149.383 15.672C149.42 15.704 149.46 15.7467 149.503 15.8L156.135 24.432C156.124 24.2933 156.114 24.16 156.103 24.032C156.098 23.8987 156.095 23.7733 156.095 23.656V15.536H157.455ZM163.216 18.768C163.808 18.768 164.341 18.8667 164.816 19.064C165.291 19.2613 165.696 19.5413 166.032 19.904C166.368 20.2667 166.624 20.7067 166.8 21.224C166.981 21.736 167.072 22.3093 167.072 22.944C167.072 23.584 166.981 24.16 166.8 24.672C166.624 25.184 166.368 25.6213 166.032 25.984C165.696 26.3467 165.291 26.6267 164.816 26.824C164.341 27.016 163.808 27.112 163.216 27.112C162.619 27.112 162.08 27.016 161.6 26.824C161.125 26.6267 160.72 26.3467 160.384 25.984C160.048 25.6213 159.789 25.184 159.608 24.672C159.432 24.16 159.344 23.584 159.344 22.944C159.344 22.3093 159.432 21.736 159.608 21.224C159.789 20.7067 160.048 20.2667 160.384 19.904C160.72 19.5413 161.125 19.2613 161.6 19.064C162.08 18.8667 162.619 18.768 163.216 18.768ZM163.216 26C164.016 26 164.613 25.7333 165.008 25.2C165.403 24.6613 165.6 23.912 165.6 22.952C165.6 21.9867 165.403 21.2347 165.008 20.696C164.613 20.1573 164.016 19.888 163.216 19.888C162.811 19.888 162.456 19.9573 162.152 20.096C161.853 20.2347 161.603 20.4347 161.4 20.696C161.203 20.9573 161.053 21.28 160.952 21.664C160.856 22.0427 160.808 22.472 160.808 22.952C160.808 23.912 161.005 24.6613 161.4 25.2C161.8 25.7333 162.405 26 163.216 26ZM179.929 18.896L177.305 27H176.177C176.038 27 175.942 26.9093 175.889 26.728L174.097 21.232C174.054 21.1093 174.02 20.9867 173.993 20.864C173.966 20.736 173.94 20.6107 173.913 20.488C173.886 20.6107 173.86 20.736 173.833 20.864C173.806 20.9867 173.772 21.112 173.729 21.24L171.905 26.728C171.857 26.9093 171.75 27 171.585 27H170.513L167.889 18.896H169.009C169.121 18.896 169.214 18.9253 169.289 18.984C169.369 19.0427 169.422 19.112 169.449 19.192L171.001 24.408C171.092 24.792 171.164 25.1547 171.217 25.496C171.265 25.32 171.313 25.1413 171.361 24.96C171.414 24.7787 171.47 24.5947 171.529 24.408L173.241 19.16C173.268 19.08 173.313 19.0133 173.377 18.96C173.446 18.9067 173.529 18.88 173.625 18.88H174.249C174.356 18.88 174.444 18.9067 174.513 18.96C174.582 19.0133 174.63 19.08 174.657 19.16L176.329 24.408C176.388 24.5947 176.441 24.7787 176.489 24.96C176.537 25.1413 176.582 25.32 176.625 25.496C176.652 25.32 176.684 25.144 176.721 24.968C176.764 24.7867 176.809 24.6 176.857 24.408L178.441 19.192C178.468 19.1067 178.518 19.0373 178.593 18.984C178.668 18.9253 178.756 18.896 178.857 18.896H179.929Z" fill="#35795E"/>
    <g clip-path="url(#clip0_914_1912)">
        <path d="M0 40L2.82712 29.7338C1.07927 26.7205 0.162369 23.308 0.17192 19.8194C0.17192 8.88783 9.11174 0 20.0859 0C25.4155 0 30.4202 2.06274 34.1738 5.80799C37.9369 9.55323 40.0095 14.5342 40 19.8289C40 30.7605 31.0601 39.6483 20.0764 39.6483H20.0668C16.7335 39.6483 13.4575 38.8118 10.5444 37.2338L0 40ZM11.0506 33.6502L11.6523 34.0114C14.1929 35.5133 17.106 36.3023 20.0764 36.3118H20.0859C29.2072 36.3118 36.638 28.9259 36.638 19.8384C36.638 15.4373 34.9188 11.3023 31.7956 8.18441C28.6724 5.06654 24.5081 3.35551 20.0859 3.35551C10.9647 3.34601 3.5339 10.7319 3.5339 19.8194C3.5339 22.9278 4.40305 25.9601 6.06494 28.5837L6.45654 29.211L4.7851 35.2852L11.0506 33.6502Z" fill="white"/>
        <path d="M0.697266 39.3061L3.42888 29.3916C1.73833 26.4924 0.850083 23.1939 0.850083 19.8289C0.859634 9.27756 9.48427 0.693909 20.086 0.693909C25.234 0.693909 30.0573 2.69011 33.6867 6.30228C37.3161 9.91444 39.3123 14.7243 39.3123 19.8384C39.3123 30.3897 30.6781 38.9734 20.086 38.9734H20.0764C16.8577 38.9734 13.6963 38.1654 10.8883 36.6445L0.697266 39.3061Z" fill="url(#paint0_linear_914_1912)"/>
        <path d="M0 40L2.82712 29.7338C1.07927 26.7205 0.162369 23.308 0.17192 19.8194C0.17192 8.88783 9.11174 0 20.0859 0C25.4155 0 30.4202 2.06274 34.1738 5.80799C37.9369 9.55323 40.0095 14.5342 40 19.8289C40 30.7605 31.0601 39.6483 20.0764 39.6483H20.0668C16.7335 39.6483 13.4575 38.8118 10.5444 37.2338L0 40ZM11.0506 33.6502L11.6523 34.0114C14.1929 35.5133 17.106 36.3023 20.0764 36.3118H20.0859C29.2072 36.3118 36.638 28.9259 36.638 19.8384C36.638 15.4373 34.9188 11.3023 31.7956 8.18441C28.6724 5.06654 24.5081 3.35551 20.0859 3.35551C10.9647 3.34601 3.5339 10.7319 3.5339 19.8194C3.5339 22.9278 4.40305 25.9601 6.06494 28.5837L6.45654 29.211L4.7851 35.2852L11.0506 33.6502Z" fill="url(#paint1_linear_914_1912)"/>
        <path fill-rule="evenodd" clip-rule="evenodd" d="M15.1102 11.5304C14.7377 10.7034 14.3461 10.6844 13.9927 10.6749C13.7062 10.6654 13.3719 10.6654 13.0376 10.6654C12.7033 10.6654 12.1684 10.789 11.71 11.2833C11.2515 11.7776 9.97168 12.9753 9.97168 15.4183C9.97168 17.8517 11.7577 20.2091 12.0061 20.5418C12.2544 20.8745 15.454 26.0361 20.5065 28.0228C24.709 29.6768 25.5686 29.3441 26.476 29.2586C27.3833 29.173 29.4177 28.0608 29.8379 26.9011C30.2486 25.7415 30.2486 24.7529 30.1245 24.5437C30.0003 24.3346 29.666 24.211 29.1694 23.9639C28.6727 23.7167 26.2276 22.519 25.7692 22.3479C25.3107 22.1863 24.9764 22.1008 24.6517 22.5951C24.3174 23.0894 23.3623 24.2015 23.0758 24.5342C22.7892 24.8669 22.4932 24.905 21.9965 24.6578C21.4998 24.4107 19.8953 23.8878 17.9946 22.1958C16.5142 20.884 15.5113 19.2586 15.2248 18.7643C14.9382 18.27 15.1961 18.0038 15.4445 17.7567C15.6641 17.538 15.9411 17.1768 16.1894 16.8916C16.4378 16.6065 16.5237 16.3973 16.6861 16.0646C16.8485 15.7319 16.7721 15.4468 16.6479 15.1996C16.5237 14.962 15.5495 12.5095 15.1102 11.5304Z" fill="white"/>
    </g>
    <defs>
        <filter id="filter0_d_914_1912" x="42" y="0" width="168" height="48" filterUnits="userSpaceOnUse" color-interpolation-filters="sRGB">
            <feFlood flood-opacity="0" result="BackgroundImageFix"/>
            <feColorMatrix in="SourceAlpha" type="matrix" values="0 0 0 0 0 0 0 0 0 0 0 0 0 0 0 0 0 0 127 0" result="hardAlpha"/>
            <feOffset dy="4"/>
            <feGaussianBlur stdDeviation="2"/>
            <feComposite in2="hardAlpha" operator="out"/>
            <feColorMatrix type="matrix" values="0 0 0 0 0 0 0 0 0 0 0 0 0 0 0 0 0 0 0.25 0"/>
            <feBlend mode="normal" in2="BackgroundImageFix" result="effect1_dropShadow_914_1912"/>
            <feBlend mode="normal" in="SourceGraphic" in2="effect1_dropShadow_914_1912" result="shape"/>
        </filter>
        <linearGradient id="paint0_linear_914_1912" x1="20.0038" y1="39.3042" x2="20.0038" y2="0.692558" gradientUnits="userSpaceOnUse">
            <stop stop-color="#20B038"/>
            <stop offset="1" stop-color="#60D66A"/>
        </linearGradient>
        <linearGradient id="paint1_linear_914_1912" x1="20.0039" y1="39.9962" x2="20.0039" y2="0" gradientUnits="userSpaceOnUse">
            <stop stop-color="#F9F9F9"/>
            <stop offset="1" stop-color="white"/>
        </linearGradient>
        <clipPath id="clip0_914_1912">
            <rect width="40" height="40" fill="white"/>
        </clipPath>
    </defs>
</svg>
