<svg width="13" height="18" viewBox="0 0 13 18" fill="none" xmlns="http://www.w3.org/2000/svg">
<path d="M7.57422 9.56641C7.75 9.39062 7.75 9.14453 7.57422 8.96875L2.44141 3.76562C2.26562 3.58984 1.98438 3.58984 1.84375 3.76562L1.14062 4.46875C0.964844 4.60938 0.964844 4.89062 1.14062 5.06641L5.28906 9.25L1.14062 13.4688C0.964844 13.6445 0.964844 13.8906 1.14062 14.0664L1.84375 14.7695C1.98438 14.9453 2.26562 14.9453 2.44141 14.7695L7.57422 9.56641Z" fill="#404152"/>
<path d="M5.42578 9.56641C5.25 9.39062 5.25 9.14453 5.42578 8.96875L10.5586 3.76562C10.7344 3.58984 11.0156 3.58984 11.1562 3.76562L11.8594 4.46875C12.0352 4.60938 12.0352 4.89062 11.8594 5.06641L7.71094 9.25L11.8594 13.4688C12.0352 13.6445 12.0352 13.8906 11.8594 14.0664L11.1562 14.7695C11.0156 14.9453 10.7344 14.9453 10.5586 14.7695L5.42578 9.56641Z" fill="#404152"/>
</svg>
