<svg width="14" height="14" viewBox="0 0 14 14" fill="none" xmlns="http://www.w3.org/2000/svg">
<circle cx="7" cy="7" r="6.33333" stroke="#6A9772" stroke-width="1.33333"/>
<path d="M7.5791 5.5455V10.3335H6.42177V5.5455H7.5791ZM7.73777 4.15016C7.73777 4.24972 7.71755 4.34305 7.6771 4.43016C7.63666 4.51727 7.58222 4.5935 7.51377 4.65883C7.44844 4.72416 7.37066 4.77705 7.28044 4.8175C7.19022 4.85483 7.09377 4.8735 6.9911 4.8735C6.89155 4.8735 6.79666 4.85483 6.70644 4.8175C6.61933 4.77705 6.5431 4.72416 6.47777 4.65883C6.41244 4.5935 6.35955 4.51727 6.3191 4.43016C6.28177 4.34305 6.2631 4.24972 6.2631 4.15016C6.2631 4.0475 6.28177 3.95105 6.3191 3.86083C6.35955 3.77061 6.41244 3.69283 6.47777 3.6275C6.5431 3.56216 6.61933 3.51083 6.70644 3.4735C6.79666 3.43305 6.89155 3.41283 6.9911 3.41283C7.09377 3.41283 7.19022 3.43305 7.28044 3.4735C7.37066 3.51083 7.44844 3.56216 7.51377 3.6275C7.58222 3.69283 7.63666 3.77061 7.6771 3.86083C7.71755 3.95105 7.73777 4.0475 7.73777 4.15016Z" fill="#6A9772"/>
</svg>
