<svg width="18" height="16" viewBox="0 0 18 16" fill="none" xmlns="http://www.w3.org/2000/svg">
    <path d="M16.5 0H1.5C0.65625 0 0 0.6875 0 1.5V10.5C0 11.3438 0.65625 12 1.5 12H7.5L6.75 15H4.5C4.21875 15 4 15.25 4 15.5C4 15.7812 4.21875 16 4.5 16H13.5C13.75 16 14 15.7812 14 15.5C14 15.25 13.75 15 13.5 15H11.25L10.5 12H16.5C17.3125 12 18 11.3438 18 10.5V1.5C18 0.6875 17.3125 0 16.5 0ZM7.78125 15L8.28125 13H9.71875L10.2188 15H7.78125ZM17 10.5C17 10.7812 16.75 11 16.5 11H1.5C1.21875 11 1 10.7812 1 10.5V1.5C1 1.25 1.21875 1 1.5 1H16.5C16.75 1 17 1.25 17 1.5V10.5Z" fill="#0D0D0D"/>
    <path d="M14.123 3.1901C14.1179 3.18398 14.1137 3.17735 14.1079 3.17162C14.1021 3.16589 14.0955 3.16157 14.0894 3.15655C13.3664 2.44205 12.3738 2 11.2795 2C10.1856 2 9.19314 2.44184 8.47022 3.15595C8.46389 3.16117 8.45706 3.16559 8.45103 3.17162C8.445 3.17765 8.44058 3.18448 8.43536 3.19081C7.72137 3.91365 7.27954 4.90614 7.27954 6C7.27954 7.09386 7.72127 8.08635 8.43536 8.80919C8.44058 8.81562 8.4451 8.82245 8.45103 8.82838C8.45696 8.83431 8.46379 8.83883 8.47022 8.84405C9.19304 9.55816 10.1855 10 11.2795 10C12.3738 10 13.3665 9.55795 14.0894 8.84345C14.0955 8.83833 14.1021 8.83411 14.1079 8.82838C14.1136 8.82265 14.1179 8.81602 14.123 8.8099C14.8375 8.08695 15.2795 7.09426 15.2795 5.9999C15.2795 4.90554 14.8375 3.91305 14.123 3.1901ZM13.9222 8.28768L13.2036 7.56906C13.5034 7.20206 13.7007 6.74816 13.7508 6.25136H14.7673C14.7118 7.02695 14.4027 7.73322 13.9222 8.28768ZM7.792 6.25126H8.80847C8.8586 6.74806 9.05581 7.20186 9.35569 7.56886L8.63698 8.28758C8.15647 7.73322 7.84735 7.02695 7.792 6.25126ZM8.63698 3.71262L9.35569 4.43135C9.05591 4.79834 8.8586 5.25224 8.80847 5.74894H7.792C7.84735 4.97325 8.15647 4.26708 8.63698 3.71262ZM11.2796 7.98167C10.187 7.98167 9.29813 7.09275 9.29813 6.0001C9.29813 4.90745 10.187 4.01854 11.2796 4.01854C12.3723 4.01854 13.2612 4.90745 13.2612 6.0001C13.2612 7.09275 12.3723 7.98167 11.2796 7.98167ZM12.8484 4.0761C12.4814 3.77632 12.0275 3.579 11.5308 3.52887V2.51227C12.3065 2.56763 13.0126 2.87676 13.5671 3.35738L12.8484 4.0761ZM11.0285 3.52887C10.5317 3.579 10.0778 3.77622 9.71082 4.0761L8.99222 3.35748C9.54667 2.87686 10.2528 2.56773 11.0286 2.51237L11.0285 3.52887ZM9.71072 7.9241C10.0777 8.22388 10.5316 8.4212 11.0284 8.47133V9.48793C10.2527 9.43258 9.54647 9.12345 8.99202 8.64282L9.71072 7.9241ZM11.5308 8.47133C12.0276 8.4212 12.4814 8.22399 12.8484 7.9241L13.5671 8.64282C13.0126 9.12334 12.3065 9.43248 11.5308 9.48793V8.47133ZM13.7507 5.74894C13.7006 5.25214 13.5034 4.79824 13.2035 4.43124L13.9221 3.71262C14.4026 4.26708 14.7118 4.97325 14.7672 5.74904L13.7507 5.74894Z" fill="#4C5BB3"/>
    <path d="M11.8126 6.53348C11.5182 6.82795 11.0409 6.82795 10.7465 6.53348C10.4521 6.23902 10.4521 5.76171 10.7465 5.46735C11.041 5.17288 11.5183 5.17288 11.8126 5.46735C12.107 5.76171 12.107 6.23912 11.8126 6.53348Z" fill="#4C5BB3"/>
    <path d="M14.123 3.1901C14.1179 3.18398 14.1137 3.17735 14.1079 3.17162C14.1021 3.16589 14.0955 3.16157 14.0894 3.15655C13.3664 2.44205 12.3738 2 11.2795 2C10.1856 2 9.19314 2.44184 8.47022 3.15595C8.46389 3.16117 8.45706 3.16559 8.45103 3.17162C8.445 3.17765 8.44058 3.18448 8.43536 3.19081C7.72137 3.91365 7.27954 4.90614 7.27954 6C7.27954 7.09386 7.72127 8.08635 8.43536 8.80919C8.44058 8.81562 8.4451 8.82245 8.45103 8.82838C8.45696 8.83431 8.46379 8.83883 8.47022 8.84405C9.19304 9.55816 10.1855 10 11.2795 10C12.3738 10 13.3665 9.55795 14.0894 8.84345C14.0955 8.83833 14.1021 8.83411 14.1079 8.82838C14.1136 8.82265 14.1179 8.81602 14.123 8.8099C14.8375 8.08695 15.2795 7.09426 15.2795 5.9999C15.2795 4.90554 14.8375 3.91305 14.123 3.1901ZM13.9222 8.28768L13.2036 7.56906C13.5034 7.20206 13.7007 6.74816 13.7508 6.25136H14.7673C14.7118 7.02695 14.4027 7.73322 13.9222 8.28768ZM7.792 6.25126H8.80847C8.8586 6.74806 9.05581 7.20186 9.35569 7.56886L8.63698 8.28758C8.15647 7.73322 7.84735 7.02695 7.792 6.25126ZM8.63698 3.71262L9.35569 4.43135C9.05591 4.79834 8.8586 5.25224 8.80847 5.74894H7.792C7.84735 4.97325 8.15647 4.26708 8.63698 3.71262ZM11.2796 7.98167C10.187 7.98167 9.29813 7.09275 9.29813 6.0001C9.29813 4.90745 10.187 4.01854 11.2796 4.01854C12.3723 4.01854 13.2612 4.90745 13.2612 6.0001C13.2612 7.09275 12.3723 7.98167 11.2796 7.98167ZM12.8484 4.0761C12.4814 3.77632 12.0275 3.579 11.5308 3.52887V2.51227C12.3065 2.56763 13.0126 2.87676 13.5671 3.35738L12.8484 4.0761ZM11.0285 3.52887C10.5317 3.579 10.0778 3.77622 9.71082 4.0761L8.99222 3.35748C9.54667 2.87686 10.2528 2.56773 11.0286 2.51237L11.0285 3.52887ZM9.71072 7.9241C10.0777 8.22388 10.5316 8.4212 11.0284 8.47133V9.48793C10.2527 9.43258 9.54647 9.12345 8.99202 8.64282L9.71072 7.9241ZM11.5308 8.47133C12.0276 8.4212 12.4814 8.22399 12.8484 7.9241L13.5671 8.64282C13.0126 9.12334 12.3065 9.43248 11.5308 9.48793V8.47133ZM13.7507 5.74894C13.7006 5.25214 13.5034 4.79824 13.2035 4.43124L13.9221 3.71262C14.4026 4.26708 14.7118 4.97325 14.7672 5.74904L13.7507 5.74894Z" stroke="#4C5BB3" stroke-width="0.2"/>
    <path d="M11.8126 6.53348C11.5182 6.82795 11.0409 6.82795 10.7465 6.53348C10.4521 6.23902 10.4521 5.76171 10.7465 5.46735C11.041 5.17288 11.5183 5.17288 11.8126 5.46735C12.107 5.76171 12.107 6.23912 11.8126 6.53348Z" stroke="#4C5BB3" stroke-width="0.2"/>
    <path d="M4.92651 3.04877L2.54694 4.58122C2.20884 4.79895 2.11088 5.25061 2.32868 5.58882L3.86118 7.96847C4.07895 8.30662 4.53071 8.40445 4.86886 8.18668L7.24844 6.65423C7.58653 6.43649 7.68431 5.98472 7.46656 5.6466L5.93406 3.26695C5.71635 2.92888 5.26458 2.83105 4.92651 3.04877Z" fill="#E84C4D" stroke="white" stroke-width="0.5"/>
    <path d="M5.08166 5.90871C5.24215 5.80535 5.28847 5.59145 5.18511 5.43095C5.08175 5.27046 4.86785 5.22414 4.70735 5.3275C4.54686 5.43086 4.50054 5.64476 4.6039 5.80525C4.70726 5.96575 4.92116 6.01207 5.08166 5.90871Z" fill="white"/>
    <path d="M9.83254 5.97383L7.19896 4.93701C6.82477 4.78969 6.40091 4.97392 6.25354 5.34822L5.21669 7.98189C5.06935 8.35614 5.25374 8.78 5.62799 8.92734L8.26158 9.96416C8.63577 10.1115 9.05961 9.92704 9.20693 9.55282L10.2438 6.91915C10.3911 6.54499 10.2067 6.12113 9.83254 5.97383Z" fill="#E84C4D" stroke="white" stroke-width="0.5"/>
    <path d="M7.26174 6.99839C7.43937 7.06832 7.64006 6.98102 7.70999 6.80339C7.77992 6.62576 7.69262 6.42507 7.51499 6.35514C7.33736 6.28521 7.13667 6.37251 7.06674 6.55014C6.99681 6.72777 7.08411 6.92846 7.26174 6.99839Z" fill="white"/>
    <path d="M6.82619 8.10582C7.00381 8.17574 7.20452 8.08842 7.27444 7.91081C7.34437 7.7332 7.25705 7.53248 7.07944 7.46256C6.90183 7.39264 6.70111 7.47995 6.63119 7.65757C6.56127 7.83518 6.64858 8.03589 6.82619 8.10582Z" fill="white"/>
    <path d="M8.38137 7.4398C8.55898 7.50972 8.7597 7.4224 8.82962 7.24479C8.89955 7.06718 8.81223 6.86647 8.63462 6.79654C8.457 6.72662 8.25629 6.81394 8.18637 6.99155C8.11644 7.16916 8.20376 7.36987 8.38137 7.4398Z" fill="white"/>
    <path d="M7.94708 8.54616C8.12478 8.61585 8.32538 8.52827 8.39507 8.35056C8.46476 8.17286 8.37718 7.97226 8.19948 7.90257C8.02178 7.83288 7.82118 7.92046 7.75148 8.09816C7.68179 8.27586 7.76937 8.47646 7.94708 8.54616Z" fill="white"/>
</svg>
