<svg width="16" height="16" viewBox="0 0 16 16" fill="none" xmlns="http://www.w3.org/2000/svg">
<g clip-path="url(#clip0_1_18015)">
<path d="M6.5624 1.875C3.97778 1.875 1.875 3.97778 1.875 6.5624C1.875 9.14777 3.97921 11.2498 6.5624 11.2498C9.15864 11.2498 11.2498 9.13318 11.2498 6.5624C11.2498 3.97778 9.14701 1.875 6.5624 1.875ZM6.5624 10.3123C5.88008 10.3123 5.23984 10.129 4.68806 9.8093C4.70574 8.76886 5.55999 7.96861 6.5624 7.96861C7.56446 7.96861 8.41905 8.76858 8.43673 9.8093C7.88495 10.129 7.24467 10.3123 6.5624 10.3123ZM5.6249 6.09365C5.6249 5.57671 6.04546 5.15618 6.56236 5.15618C7.0793 5.15618 7.49983 5.57674 7.49983 6.09365C7.49983 6.61059 7.07927 7.03112 6.56236 7.03112C6.04546 7.03115 5.6249 6.61059 5.6249 6.09365ZM9.28386 9.13952C9.08933 8.38758 8.59986 7.75668 7.92217 7.38255C8.24108 7.04624 8.43736 6.59255 8.43736 6.09365C8.43736 5.05981 7.59624 4.21868 6.5624 4.21868C5.52855 4.21868 4.68743 5.05978 4.68743 6.09365C4.68743 6.59259 4.88371 7.04624 5.20265 7.38255C4.52543 7.7564 4.03562 8.38699 3.84096 9.13952C3.20384 8.46708 2.8125 7.55962 2.8125 6.5624C2.8125 4.49468 4.49471 2.81247 6.56243 2.81247C8.63014 2.81247 10.3124 4.49468 10.3124 6.5624C10.3123 7.55962 9.92095 8.46711 9.28386 9.13952Z" fill="black"/>
<path d="M15.5877 13.5992L12.0878 10.0993C12.7439 9.07798 13.1247 7.8638 13.1247 6.56236C13.1247 2.94387 10.1809 0 6.56236 0C2.94387 0 0 2.94387 0 6.56236C0 10.1809 2.94387 13.1247 6.56236 13.1247C7.8638 13.1247 9.07795 12.7439 10.0993 12.0879L13.5992 15.5878C14.1488 16.1374 15.038 16.1375 15.5878 15.5878C16.1374 15.0381 16.1375 14.1489 15.5877 13.5992ZM6.56236 12.1872C3.46081 12.1872 0.937467 9.66392 0.937467 6.56236C0.937467 3.46081 3.46081 0.937467 6.56236 0.937467C9.66392 0.937467 12.1872 3.46077 12.1872 6.56236C12.1872 9.66395 9.66392 12.1872 6.56236 12.1872ZM14.9248 14.9248C14.7415 15.1081 14.4454 15.1081 14.262 14.9248L10.8573 11.5201C11.0936 11.3151 11.3151 11.0936 11.5201 10.8573L14.9248 14.2621C15.1081 14.4454 15.1081 14.7415 14.9248 14.9248Z" fill="black"/>
</g>
<defs>
<clipPath id="clip0_1_18015">
<rect width="16" height="16" fill="white"/>
</clipPath>
</defs>
</svg>
