<svg width="16" height="17" viewBox="0 0 16 17" fill="none" xmlns="http://www.w3.org/2000/svg">
<g clip-path="url(#clip0_571_3262)">
<path d="M16 2.33337C16 1.32202 15.178 0.5 14.1666 0.5H1.83337C0.822021 0.5 0 1.32202 0 2.33337V14.6666C0 15.678 0.822021 16.5 1.83337 16.5H14.1666C15.178 16.5 16 15.678 16 14.6666V2.33337Z" fill="#4CAF50"/>
<path d="M12.0547 5.86206C12.3153 6.12268 12.3153 6.54395 12.0547 6.80469L7.72131 11.1379C7.59131 11.2679 7.42065 11.3334 7.25 11.3334C7.07935 11.3334 6.90869 11.2679 6.77869 11.1379L4.61206 8.97131C4.35132 8.71069 4.35132 8.28931 4.61206 8.02869C4.87268 7.76794 5.29395 7.76794 5.55469 8.02869L7.25 9.724L11.1121 5.86206C11.3727 5.60132 11.7939 5.60132 12.0547 5.86206Z" fill="#FAFAFA"/>
</g>
<defs>
<clipPath id="clip0_571_3262">
<rect y="0.5" width="16" height="16" rx="8" fill="white"/>
</clipPath>
</defs>
</svg>
