<svg width="20" height="20" viewBox="0 0 20 20" fill="none" xmlns="http://www.w3.org/2000/svg">
<path d="M18 10.1509C18 10.9423 16.582 11.4999 16.3502 12.2141C16.1097 12.9543 16.9208 14.2373 16.4723 14.8532C16.0196 15.4755 14.5458 15.0983 13.9235 15.5513C13.3073 15.9995 13.2133 17.52 12.4733 17.7595C11.7591 17.9914 10.7923 16.8241 9.99998 16.8241C9.20761 16.8241 8.24172 17.9914 7.52667 17.7595C6.78647 17.519 6.69239 15.9987 6.07627 15.5513C5.45419 15.0986 3.98039 15.4757 3.52745 14.8534C3.07917 14.2373 3.89005 12.9543 3.64978 12.2143C3.41795 11.5001 2 10.9426 2 10.1511C2 9.35967 3.41795 8.80208 3.64982 8.08791C3.89009 7.3479 3.07922 6.06487 3.52749 5.4488C3.98043 4.82649 5.45424 5.20368 6.07655 4.75097C6.69244 4.30269 6.78652 2.78203 7.52672 2.54268C8.24089 2.31081 9.20766 3.47811 10 3.47811C10.7923 3.47811 11.7583 2.31081 12.4733 2.54268C13.2133 2.78296 13.3076 4.30357 13.9235 4.75097C14.5458 5.20391 16.0196 4.82672 16.4726 5.4488C16.9208 6.06492 16.1097 7.34794 16.3502 8.08791C16.582 8.80181 18 9.3594 18 10.1509Z" fill="#F9DF0F"/>
<path d="M9.30119 12.871C9.06692 12.8713 8.84215 12.7782 8.67666 12.6124L6.70731 10.643C6.3623 10.2981 6.3622 9.73881 6.70708 9.39379C7.052 9.04878 7.6113 9.04869 7.95631 9.39356L9.30114 10.7382L12.045 7.99463C12.3899 7.64962 12.9493 7.64957 13.2943 7.99454C13.6393 8.3395 13.6393 8.89885 13.2944 9.24386L9.92585 12.6124C9.76036 12.7783 9.5355 12.8713 9.30119 12.871Z" fill="#1E8067"/>
</svg>
