<svg xmlns="http://www.w3.org/2000/svg" width="15.155" height="15.155" viewBox="0 0 15.155 15.155">
  <g id="noun-cancel-1039506" transform="translate(-214.872 -144.85)">
    <path id="Path_44091" data-name="Path 44091" d="M222.446,144.85a7.541,7.541,0,0,0-5.315,2.176l-.047.043a7.577,7.577,0,0,0,10.671,10.76l.054-.042a7.578,7.578,0,0,0-5.363-12.937Zm4.167,11.741-.037.035a5.895,5.895,0,0,1-8.3-8.37l.04-.04a5.9,5.9,0,0,1,8.3.035v.007a5.875,5.875,0,0,1,0,8.333Z"/>
    <path id="Path_44092" data-name="Path 44092" d="M295.4,218.965a.849.849,0,0,0-1.2,0l-1.991,2-1.991-2a.849.849,0,0,0-1.2,0,.861.861,0,0,0,0,1.2l1.991,1.985-1.991,2a.861.861,0,0,0,0,1.2.849.849,0,0,0,1.2,0l1.991-2,1.991,2a.849.849,0,0,0,1.2,0,.859.859,0,0,0,0-1.2l-2-2,2-1.985A.859.859,0,0,0,295.4,218.965Z" transform="translate(-69.77 -69.726)"/>
  </g>
</svg>
