<svg xmlns="http://www.w3.org/2000/svg" width="12.16" height="12.16" viewBox="0 0 12.16 12.16">
  <path id="noun-edit-5160184" d="M102.8,24.6a.553.553,0,0,1,.782,0l.648.648a.553.553,0,0,1,0,.782L99.187,31.07H97.758V29.641Zm1.563-.782a1.658,1.658,0,0,0-2.345,0l-5.2,5.2a.553.553,0,0,0-.162.391v2.211a.553.553,0,0,0,.553.553h2.211a.553.553,0,0,0,.391-.162l5.2-5.2a1.658,1.658,0,0,0,0-2.345Zm-9.366-.486a1.658,1.658,0,0,0-1.658,1.658v8.843a1.658,1.658,0,0,0,1.658,1.658h8.843a1.658,1.658,0,0,0,1.658-1.658V29.412a.553.553,0,0,0-1.105,0v4.422a.553.553,0,0,1-.553.553H94.994a.553.553,0,0,1-.553-.553V24.99a.553.553,0,0,1,.553-.553h4.974a.553.553,0,1,0,0-1.105Z" transform="translate(-93.336 -23.332)" fill-rule="evenodd"/>
</svg>
