<svg xmlns="http://www.w3.org/2000/svg" width="22.264" height="22.264" viewBox="0 0 22.264 22.264">
  <g id="Icon_Waiting" transform="translate(-75.107 -26.602)" opacity="0.8">
    <path id="Path_44090" data-name="Path 44090" d="M107.732,26.6a11.132,11.132,0,1,0,11.132,11.132A11.144,11.144,0,0,0,107.732,26.6Zm0,20.665a9.533,9.533,0,1,1,9.533-9.533A9.544,9.544,0,0,1,107.732,47.267Zm0-18a.8.8,0,0,0-.8.8v7.327l-3.978,3.824a.8.8,0,1,0,1.108,1.153l4.223-4.059a.8.8,0,0,0,.245-.576V30.067a.8.8,0,0,0-.8-.8Z" transform="translate(-21.493)" fill="#475d61"/>
  </g>
</svg>
