<svg xmlns="http://www.w3.org/2000/svg" width="16.243" height="12.255" viewBox="0 0 16.243 12.255">
  <g id="Icon_Successful" transform="translate(-10.767 -100.791)">
    <path id="Path_44089" data-name="Path 44089" d="M60.385,101.088a.893.893,0,0,0-.651-.3.853.853,0,0,0-.66.268L49.4,110.707l-3.365-3.867a.883.883,0,0,0-.641-.316.867.867,0,0,0-.669.249.894.894,0,0,0-.316.66.942.942,0,0,0,.242.689l4.016,4.6a.958.958,0,0,0,.418.277.861.861,0,0,0,.493.01.9.9,0,0,0,.428-.239l10.366-10.337a.961.961,0,0,0,.279-.67.906.906,0,0,0-.26-.68Z" transform="translate(-33.636 0)" fill="#116a29"/>
  </g>
</svg>
