<svg width="209" height="48" viewBox="0 0 209 48" fill="none" xmlns="http://www.w3.org/2000/svg">
<g filter="url(#filter0_d_914_1912)">
<rect x="47.5" y="0.5" width="157" height="39" rx="1.5" stroke="#35795E" shape-rendering="crispEdges"/>
</g>
<path d="M61.1875 14.3594V13.2969H69.5625V14.3594H66V25H64.75V14.3594H61.1875ZM69.75 20.7344C69.75 19.4219 70.1042 18.3594 70.8125 17.5469C71.5208 16.724 72.4375 16.3125 73.5625 16.3125C74.7083 16.3125 75.6094 16.7135 76.2656 17.5156C76.9219 18.3073 77.25 19.3229 77.25 20.5625C77.25 20.7083 77.2396 20.9167 77.2188 21.1875H70.9688C70.9688 22.0312 71.2031 22.7552 71.6719 23.3594C72.1406 23.9635 72.7917 24.2656 73.625 24.2656C74.1667 24.2656 74.6458 24.1406 75.0625 23.8906C75.4792 23.6302 75.8021 23.2865 76.0312 22.8594L77.0625 23.1719C76.8021 23.7865 76.3802 24.2917 75.7969 24.6875C75.2135 25.0833 74.4896 25.2812 73.625 25.2812C72.4583 25.2812 71.5208 24.8646 70.8125 24.0312C70.1042 23.1979 69.75 22.099 69.75 20.7344ZM71 20.2656H76.0312C76.0312 19.4427 75.8073 18.75 75.3594 18.1875C74.9115 17.6146 74.3125 17.3281 73.5625 17.3281C72.8021 17.3281 72.1875 17.6198 71.7188 18.2031C71.2604 18.7865 71.0208 19.474 71 20.2656ZM79.3438 25V12.8594H80.5312V25H79.3438ZM82.6562 20.7344C82.6562 19.4219 83.0104 18.3594 83.7188 17.5469C84.4271 16.724 85.3438 16.3125 86.4688 16.3125C87.6146 16.3125 88.5156 16.7135 89.1719 17.5156C89.8281 18.3073 90.1562 19.3229 90.1562 20.5625C90.1562 20.7083 90.1458 20.9167 90.125 21.1875H83.875C83.875 22.0312 84.1094 22.7552 84.5781 23.3594C85.0469 23.9635 85.6979 24.2656 86.5312 24.2656C87.0729 24.2656 87.5521 24.1406 87.9688 23.8906C88.3854 23.6302 88.7083 23.2865 88.9375 22.8594L89.9688 23.1719C89.7083 23.7865 89.2865 24.2917 88.7031 24.6875C88.1198 25.0833 87.3958 25.2812 86.5312 25.2812C85.3646 25.2812 84.4271 24.8646 83.7188 24.0312C83.0104 23.1979 82.6562 22.099 82.6562 20.7344ZM83.9062 20.2656H88.9375C88.9375 19.4427 88.7135 18.75 88.2656 18.1875C87.8177 17.6146 87.2188 17.3281 86.4688 17.3281C85.7083 17.3281 85.0938 17.6198 84.625 18.2031C84.1667 18.7865 83.9271 19.474 83.9062 20.2656ZM92.7188 20.6406C92.7188 21.6302 92.9375 22.4323 93.375 23.0469C93.8125 23.651 94.3854 23.9531 95.0938 23.9531C95.8125 23.9531 96.3802 23.6615 96.7969 23.0781C97.224 22.4948 97.4375 21.6771 97.4375 20.625C97.4375 19.6042 97.2188 18.8021 96.7812 18.2188C96.3542 17.625 95.8021 17.3281 95.125 17.3281C94.3958 17.3281 93.8125 17.6406 93.375 18.2656C92.9375 18.8802 92.7188 19.6719 92.7188 20.6406ZM91.5 20.6562C91.5 19.3542 91.8229 18.3073 92.4688 17.5156C93.1146 16.7135 93.9479 16.3125 94.9688 16.3125C95.6146 16.3125 96.1406 16.4792 96.5469 16.8125C96.9635 17.1458 97.2604 17.5312 97.4375 17.9688V16.5938H98.625V24.0156C98.625 25.6094 98.3385 26.7917 97.7656 27.5625C97.2031 28.3438 96.3021 28.7344 95.0625 28.7344C93.7188 28.7344 92.6771 28.224 91.9375 27.2031L92.7812 26.6562C93.4271 27.3854 94.1979 27.75 95.0938 27.75C95.8333 27.75 96.4062 27.4583 96.8125 26.875C97.2292 26.3021 97.4375 25.5312 97.4375 24.5625V23.3594C97.2188 23.8281 96.901 24.2135 96.4844 24.5156C96.0781 24.8177 95.5833 24.9688 95 24.9688C93.9375 24.9688 93.0885 24.5677 92.4531 23.7656C91.8177 22.9531 91.5 21.9167 91.5 20.6562ZM101.172 25V16.5938H102.328V17.8125C102.495 17.4375 102.771 17.0938 103.156 16.7812C103.542 16.4688 104.036 16.3125 104.641 16.3125C105.089 16.3125 105.484 16.3854 105.828 16.5312V17.625C105.453 17.4792 105.057 17.4062 104.641 17.4062C103.932 17.4062 103.38 17.6719 102.984 18.2031C102.589 18.7344 102.391 19.4375 102.391 20.3125V25H101.172ZM107.578 22.8438C107.578 23.2396 107.745 23.5781 108.078 23.8594C108.411 24.1302 108.87 24.2656 109.453 24.2656C110.193 24.2656 110.823 24.026 111.344 23.5469C111.875 23.0677 112.141 22.4583 112.141 21.7188V20.5469C111.682 20.6615 110.953 20.7969 109.953 20.9531C109.141 21.099 108.542 21.3229 108.156 21.625C107.771 21.9271 107.578 22.3333 107.578 22.8438ZM106.359 22.9375C106.359 21.375 107.568 20.4062 109.984 20.0312C111.068 19.8542 111.786 19.7083 112.141 19.5938V19.1094C112.141 18.5885 111.953 18.1562 111.578 17.8125C111.203 17.4688 110.672 17.2969 109.984 17.2969C109.484 17.2969 109 17.4167 108.531 17.6562C108.073 17.8854 107.682 18.1979 107.359 18.5938L106.578 17.9375C106.995 17.4583 107.495 17.0677 108.078 16.7656C108.672 16.4635 109.297 16.3125 109.953 16.3125C112.203 16.3125 113.328 17.4115 113.328 19.6094V25H112.172V23.625C112.005 24.0729 111.661 24.4635 111.141 24.7969C110.62 25.1198 110.005 25.2812 109.297 25.2812C108.37 25.2812 107.646 25.0625 107.125 24.625C106.615 24.1875 106.359 23.625 106.359 22.9375ZM115.75 25V16.5938H116.938V17.8594C117.083 17.474 117.359 17.1198 117.766 16.7969C118.172 16.474 118.688 16.3125 119.312 16.3125C119.927 16.3125 120.396 16.4896 120.719 16.8438C121.042 17.1875 121.292 17.6354 121.469 18.1875C121.521 18.0521 121.604 17.8958 121.719 17.7188C121.833 17.5417 121.995 17.3385 122.203 17.1094C122.411 16.8802 122.688 16.6927 123.031 16.5469C123.385 16.3906 123.771 16.3125 124.188 16.3125C125.812 16.3125 126.625 17.3958 126.625 19.5625V25H125.406V19.6562C125.406 18.8854 125.302 18.3073 125.094 17.9219C124.885 17.526 124.49 17.3281 123.906 17.3281C123.302 17.3281 122.797 17.5833 122.391 18.0938C121.984 18.5938 121.781 19.2292 121.781 20V25H120.594V19.6406C120.594 18.099 120.083 17.3281 119.062 17.3281C118.427 17.3281 117.917 17.5677 117.531 18.0469C117.156 18.526 116.969 19.151 116.969 19.9219V25H115.75ZM132.312 22.7969L133.469 22.3906C134.167 23.599 135.25 24.2031 136.719 24.2031C137.531 24.2031 138.193 24.0052 138.703 23.6094C139.214 23.2135 139.469 22.6719 139.469 21.9844C139.469 21.6406 139.396 21.3385 139.25 21.0781C139.104 20.8073 138.87 20.5729 138.547 20.375C138.234 20.1771 137.943 20.0208 137.672 19.9062C137.401 19.7917 137.031 19.6562 136.562 19.5C136.188 19.375 135.922 19.2865 135.766 19.2344C135.609 19.1823 135.359 19.0885 135.016 18.9531C134.682 18.8177 134.432 18.6979 134.266 18.5938C134.109 18.4896 133.911 18.349 133.672 18.1719C133.432 17.9844 133.255 17.7969 133.141 17.6094C133.036 17.4219 132.938 17.1979 132.844 16.9375C132.76 16.6667 132.719 16.3802 132.719 16.0781C132.719 15.151 133.073 14.4115 133.781 13.8594C134.49 13.2969 135.438 13.0156 136.625 13.0156C137.531 13.0156 138.318 13.224 138.984 13.6406C139.661 14.0573 140.146 14.5781 140.438 15.2031L139.375 15.5781C138.76 14.5781 137.833 14.0781 136.594 14.0781C135.781 14.0781 135.146 14.2604 134.688 14.625C134.229 14.9896 134 15.474 134 16.0781C134 16.349 134.062 16.6042 134.188 16.8438C134.312 17.0729 134.448 17.2604 134.594 17.4062C134.75 17.5417 134.995 17.6927 135.328 17.8594C135.672 18.0156 135.938 18.1302 136.125 18.2031C136.323 18.2656 136.641 18.3698 137.078 18.5156C137.182 18.5469 137.26 18.5729 137.312 18.5938C137.823 18.7604 138.25 18.9219 138.594 19.0781C138.938 19.2344 139.292 19.4427 139.656 19.7031C140.021 19.9635 140.292 20.2812 140.469 20.6562C140.656 21.0208 140.75 21.4479 140.75 21.9375C140.75 22.9896 140.38 23.8125 139.641 24.4062C138.911 24.9896 137.927 25.2812 136.688 25.2812C135.625 25.2812 134.724 25.0573 133.984 24.6094C133.245 24.1615 132.688 23.5573 132.312 22.7969ZM142.547 22.0469V16.5938H143.766V21.7969C143.766 23.4427 144.37 24.2656 145.578 24.2656C146.318 24.2656 146.88 23.9792 147.266 23.4062C147.661 22.8333 147.859 22.1562 147.859 21.375V16.5938H149.047V25H147.891V23.6406C147.807 23.9844 147.547 24.3438 147.109 24.7188C146.682 25.0938 146.078 25.2812 145.297 25.2812C144.495 25.2812 143.833 25.0104 143.312 24.4688C142.802 23.9167 142.547 23.1094 142.547 22.0469ZM152.844 20.7812C152.844 21.8229 153.057 22.6667 153.484 23.3125C153.911 23.9479 154.5 24.2656 155.25 24.2656C155.958 24.2656 156.547 23.9531 157.016 23.3281C157.484 22.7031 157.719 21.8542 157.719 20.7812C157.719 19.7708 157.495 18.9427 157.047 18.2969C156.609 17.651 156.01 17.3281 155.25 17.3281C154.542 17.3281 153.964 17.6562 153.516 18.3125C153.068 18.9583 152.844 19.7812 152.844 20.7812ZM151.656 28.6719V16.5938H152.812V18.1094C153.052 17.5677 153.396 17.1354 153.844 16.8125C154.302 16.4792 154.823 16.3125 155.406 16.3125C156.427 16.3125 157.271 16.7188 157.938 17.5312C158.604 18.3438 158.938 19.4271 158.938 20.7812C158.938 22.2292 158.589 23.3438 157.891 24.125C157.193 24.8958 156.365 25.2812 155.406 25.2812C154.781 25.2812 154.25 25.1198 153.812 24.7969C153.375 24.4635 153.052 24.0469 152.844 23.5469V28.6719H151.656ZM162.156 20.7812C162.156 21.8229 162.37 22.6667 162.797 23.3125C163.224 23.9479 163.812 24.2656 164.562 24.2656C165.271 24.2656 165.859 23.9531 166.328 23.3281C166.797 22.7031 167.031 21.8542 167.031 20.7812C167.031 19.7708 166.807 18.9427 166.359 18.2969C165.922 17.651 165.323 17.3281 164.562 17.3281C163.854 17.3281 163.276 17.6562 162.828 18.3125C162.38 18.9583 162.156 19.7812 162.156 20.7812ZM160.969 28.6719V16.5938H162.125V18.1094C162.365 17.5677 162.708 17.1354 163.156 16.8125C163.615 16.4792 164.135 16.3125 164.719 16.3125C165.74 16.3125 166.583 16.7188 167.25 17.5312C167.917 18.3438 168.25 19.4271 168.25 20.7812C168.25 22.2292 167.901 23.3438 167.203 24.125C166.505 24.8958 165.677 25.2812 164.719 25.2812C164.094 25.2812 163.562 25.1198 163.125 24.7969C162.688 24.4635 162.365 24.0469 162.156 23.5469V28.6719H160.969ZM170.844 20.7969C170.844 21.8594 171.089 22.7031 171.578 23.3281C172.068 23.9531 172.677 24.2656 173.406 24.2656C174.125 24.2656 174.729 23.9531 175.219 23.3281C175.719 22.7031 175.969 21.8594 175.969 20.7969C175.969 19.7135 175.719 18.8646 175.219 18.25C174.719 17.6354 174.115 17.3281 173.406 17.3281C172.688 17.3281 172.078 17.6354 171.578 18.25C171.089 18.8646 170.844 19.7135 170.844 20.7969ZM169.625 20.7969C169.625 19.5156 169.953 18.4479 170.609 17.5938C171.276 16.7396 172.208 16.3125 173.406 16.3125C174.594 16.3125 175.521 16.7396 176.188 17.5938C176.854 18.4479 177.188 19.5156 177.188 20.7969C177.188 21.3385 177.115 21.8646 176.969 22.375C176.833 22.8854 176.62 23.3646 176.328 23.8125C176.047 24.25 175.651 24.6042 175.141 24.875C174.641 25.1458 174.062 25.2812 173.406 25.2812C172.76 25.2812 172.182 25.151 171.672 24.8906C171.172 24.6198 170.776 24.2656 170.484 23.8281C170.203 23.3802 169.99 22.901 169.844 22.3906C169.698 21.8802 169.625 21.349 169.625 20.7969ZM179.125 25V16.5938H180.281V17.8125C180.448 17.4375 180.724 17.0938 181.109 16.7812C181.495 16.4688 181.99 16.3125 182.594 16.3125C183.042 16.3125 183.438 16.3854 183.781 16.5312V17.625C183.406 17.4792 183.01 17.4062 182.594 17.4062C181.885 17.4062 181.333 17.6719 180.938 18.2031C180.542 18.7344 180.344 19.4375 180.344 20.3125V25H179.125ZM184.359 17.6094V16.5938H185.828V13.9062H187.047V16.5938H189.266V17.6094H187.047V22.5312C187.047 23.0521 187.146 23.4219 187.344 23.6406C187.542 23.8594 187.859 23.9688 188.297 23.9688H189.266V25H188.141C186.599 25 185.828 24.2135 185.828 22.6406V17.6094H184.359Z" fill="#35795E"/>
<rect width="40" height="40" rx="20" fill="url(#paint0_linear_914_1912)"/>
<path fill-rule="evenodd" clip-rule="evenodd" d="M9.05368 19.7889C14.8841 17.2487 18.7719 15.574 20.7172 14.7649C26.2715 12.4547 27.4256 12.0534 28.1778 12.0402C28.3433 12.0373 28.7132 12.0783 28.9528 12.2727C29.1551 12.4369 29.2108 12.6587 29.2375 12.8143C29.2641 12.97 29.2973 13.3246 29.2709 13.6017C28.9699 16.7641 27.6676 24.4386 27.005 27.9806C26.7246 29.4794 26.1726 29.9819 25.6382 30.0311C24.4767 30.138 23.5948 29.2635 22.4699 28.5261C20.7096 27.3723 19.7152 26.654 18.0066 25.528C16.0319 24.2268 17.312 23.5116 18.4373 22.3428C18.7318 22.0369 23.8492 17.3823 23.9482 16.96C23.9606 16.9072 23.9721 16.7104 23.8551 16.6065C23.7382 16.5025 23.5656 16.5381 23.4411 16.5663C23.2645 16.6064 20.4525 18.465 15.0049 22.1423C14.2067 22.6904 13.4838 22.9574 12.836 22.9434C12.1219 22.928 10.7483 22.5397 9.72709 22.2077C8.47459 21.8006 7.47913 21.5853 7.56581 20.8939C7.61096 20.5337 8.10692 20.1654 9.05368 19.7889Z" fill="white"/>
<defs>
<filter id="filter0_d_914_1912" x="43" y="0" width="166" height="48" filterUnits="userSpaceOnUse" color-interpolation-filters="sRGB">
<feFlood flood-opacity="0" result="BackgroundImageFix"/>
<feColorMatrix in="SourceAlpha" type="matrix" values="0 0 0 0 0 0 0 0 0 0 0 0 0 0 0 0 0 0 127 0" result="hardAlpha"/>
<feOffset dy="4"/>
<feGaussianBlur stdDeviation="2"/>
<feComposite in2="hardAlpha" operator="out"/>
<feColorMatrix type="matrix" values="0 0 0 0 0 0 0 0 0 0 0 0 0 0 0 0 0 0 0.25 0"/>
<feBlend mode="normal" in2="BackgroundImageFix" result="effect1_dropShadow_914_1912"/>
<feBlend mode="normal" in="SourceGraphic" in2="effect1_dropShadow_914_1912" result="shape"/>
</filter>
<linearGradient id="paint0_linear_914_1912" x1="20" y1="0" x2="20" y2="39.7033" gradientUnits="userSpaceOnUse">
<stop stop-color="#2AABEE"/>
<stop offset="1" stop-color="#229ED9"/>
</linearGradient>
</defs>
</svg>
