<svg width="80" height="80" viewBox="0 0 80 80" fill="none" xmlns="http://www.w3.org/2000/svg">
    <rect x="16" y="16" width="48" height="48" rx="24" fill="url(#paint0_linear_6404_7545)"/>
    <path fill-rule="evenodd" clip-rule="evenodd" d="M26.864 39.7466C33.8605 36.6984 38.5259 34.6888 40.8603 33.7179C47.5254 30.9456 48.9103 30.4641 49.813 30.4482C50.0115 30.4447 50.4554 30.4939 50.743 30.7272C50.9858 30.9242 51.0526 31.1904 51.0846 31.3771C51.1165 31.5639 51.1563 31.9895 51.1247 32.3219C50.7635 36.1169 49.2007 45.3263 48.4056 49.5767C48.0692 51.3752 47.4067 51.9783 46.7654 52.0373C45.3717 52.1655 44.3134 51.1162 42.9635 50.2313C40.8512 48.8467 39.6578 47.9847 37.6075 46.6336C35.2379 45.0721 36.774 44.2139 38.1244 42.8113C38.4778 42.4442 44.6186 36.8587 44.7375 36.352C44.7523 36.2886 44.7661 36.0524 44.6258 35.9277C44.4855 35.803 44.2783 35.8456 44.1289 35.8795C43.917 35.9276 40.5426 38.158 34.0055 42.5707C33.0477 43.2284 32.1801 43.5489 31.4028 43.5321C30.5459 43.5136 28.8975 43.0475 27.6721 42.6492C26.1691 42.1607 24.9746 41.9023 25.0786 41.0726C25.1328 40.6404 25.7279 40.1984 26.864 39.7466Z" fill="white"/>
    <defs>
        <linearGradient id="paint0_linear_6404_7545" x1="40" y1="16" x2="40" y2="63.644" gradientUnits="userSpaceOnUse">
            <stop stop-color="#2AABEE"/>
            <stop offset="1" stop-color="#229ED9"/>
        </linearGradient>
    </defs>
</svg>
