<svg width="209" height="48" viewBox="0 0 209 48" fill="none" xmlns="http://www.w3.org/2000/svg">
    <g filter="url(#filter0_d_914_1912)">
        <rect x="47.5" y="0.5" width="157" height="39" rx="1.5" stroke="#35795E" shape-rendering="crispEdges"/>
    </g>
    <path d="M76.32 15.536L72.744 27H71.352L68.448 18.256C68.4213 18.1707 68.3947 18.08 68.368 17.984C68.3467 17.888 68.3227 17.7867 68.296 17.68C68.2693 17.7867 68.2427 17.888 68.216 17.984C68.1893 18.08 68.1627 18.1707 68.136 18.256L65.216 27H63.824L60.248 15.536H61.536C61.6747 15.536 61.7893 15.5707 61.88 15.64C61.976 15.7093 62.0373 15.7973 62.064 15.904L64.432 23.872C64.4693 24.016 64.504 24.1707 64.536 24.336C64.5733 24.5013 64.608 24.6773 64.64 24.864C64.6773 24.6773 64.7147 24.5013 64.752 24.336C64.7947 24.1653 64.84 24.0107 64.888 23.872L67.584 15.904C67.616 15.8133 67.6773 15.7307 67.768 15.656C67.864 15.576 67.9787 15.536 68.112 15.536H68.56C68.6987 15.536 68.8107 15.5707 68.896 15.64C68.9813 15.7093 69.0453 15.7973 69.088 15.904L71.776 23.872C71.824 24.0107 71.8667 24.16 71.904 24.32C71.9467 24.48 71.9867 24.648 72.024 24.824C72.0507 24.648 72.08 24.48 72.112 24.32C72.144 24.16 72.1787 24.0107 72.216 23.872L74.592 15.904C74.6187 15.808 74.6773 15.7227 74.768 15.648C74.864 15.5733 74.9787 15.536 75.112 15.536H76.32ZM79.0444 19.976C79.391 19.608 79.775 19.3147 80.1964 19.096C80.6177 18.8773 81.103 18.768 81.6524 18.768C82.095 18.768 82.4844 18.8427 82.8204 18.992C83.1617 19.136 83.4444 19.344 83.6684 19.616C83.8977 19.8827 84.071 20.2053 84.1884 20.584C84.3057 20.9627 84.3644 21.3813 84.3644 21.84V27H82.9324V21.84C82.9324 21.2267 82.791 20.752 82.5084 20.416C82.231 20.0747 81.807 19.904 81.2364 19.904C80.815 19.904 80.4204 20.0053 80.0524 20.208C79.6897 20.4107 79.3537 20.6853 79.0444 21.032V27H77.6124V15.216H79.0444V19.976ZM90.9263 23.352C90.2703 23.3733 89.7103 23.4267 89.2463 23.512C88.7876 23.592 88.4116 23.6987 88.1183 23.832C87.8303 23.9653 87.6196 24.1227 87.4863 24.304C87.3583 24.4853 87.2943 24.688 87.2943 24.912C87.2943 25.1253 87.3289 25.3093 87.3983 25.464C87.4676 25.6187 87.5609 25.7467 87.6783 25.848C87.8009 25.944 87.9423 26.016 88.1023 26.064C88.2676 26.1067 88.4436 26.128 88.6303 26.128C88.8809 26.128 89.1103 26.104 89.3183 26.056C89.5263 26.0027 89.7209 25.928 89.9023 25.832C90.0889 25.736 90.2649 25.6213 90.4303 25.488C90.6009 25.3547 90.7663 25.2027 90.9263 25.032V23.352ZM86.3263 20.04C86.7743 19.608 87.2569 19.2853 87.7743 19.072C88.2916 18.8587 88.8649 18.752 89.4943 18.752C89.9476 18.752 90.3503 18.8267 90.7023 18.976C91.0543 19.1253 91.3503 19.3333 91.5903 19.6C91.8303 19.8667 92.0116 20.1893 92.1343 20.568C92.2569 20.9467 92.3183 21.3627 92.3183 21.816V27H91.6863C91.5476 27 91.4409 26.9787 91.3663 26.936C91.2916 26.888 91.2329 26.7973 91.1903 26.664L91.0303 25.896C90.8169 26.0933 90.6089 26.2693 90.4062 26.424C90.2036 26.5733 89.9903 26.7013 89.7663 26.808C89.5423 26.9093 89.3023 26.9867 89.0463 27.04C88.7956 27.0987 88.5156 27.128 88.2063 27.128C87.8916 27.128 87.5956 27.0853 87.3183 27C87.0409 26.9093 86.7983 26.776 86.5903 26.6C86.3876 26.424 86.2249 26.2027 86.1023 25.936C85.9849 25.664 85.9263 25.344 85.9263 24.976C85.9263 24.656 86.0143 24.3493 86.1903 24.056C86.3663 23.7573 86.6516 23.4933 87.0463 23.264C87.4409 23.0347 87.9556 22.848 88.5903 22.704C89.2249 22.5547 90.0036 22.4693 90.9263 22.448V21.816C90.9263 21.1867 90.7903 20.712 90.5183 20.392C90.2463 20.0667 89.8489 19.904 89.3263 19.904C88.9743 19.904 88.6783 19.9493 88.4383 20.04C88.2036 20.1253 87.9983 20.224 87.8223 20.336C87.6516 20.4427 87.5023 20.5413 87.3743 20.632C87.2516 20.7173 87.1289 20.76 87.0063 20.76C86.9103 20.76 86.8276 20.736 86.7583 20.688C86.6889 20.6347 86.6303 20.5707 86.5822 20.496L86.3263 20.04ZM96.866 27.128C96.226 27.128 95.7327 26.9493 95.386 26.592C95.0447 26.2347 94.874 25.72 94.874 25.048V20.088H93.898C93.8127 20.088 93.7407 20.064 93.682 20.016C93.6233 19.9627 93.594 19.8827 93.594 19.776V19.208L94.922 19.04L95.25 16.536C95.266 16.456 95.3007 16.392 95.354 16.344C95.4127 16.2907 95.4873 16.264 95.578 16.264H96.298V19.056H98.642V20.088H96.298V24.952C96.298 25.2933 96.3807 25.5467 96.546 25.712C96.7113 25.8773 96.9247 25.96 97.186 25.96C97.3353 25.96 97.4633 25.9413 97.57 25.904C97.682 25.8613 97.778 25.816 97.858 25.768C97.938 25.72 98.0047 25.6773 98.058 25.64C98.1167 25.5973 98.1673 25.576 98.21 25.576C98.2847 25.576 98.3513 25.6213 98.41 25.712L98.826 26.392C98.5807 26.6213 98.2847 26.8027 97.938 26.936C97.5913 27.064 97.234 27.128 96.866 27.128ZM104.832 20.232C104.768 20.3493 104.67 20.408 104.536 20.408C104.456 20.408 104.366 20.3787 104.264 20.32C104.163 20.2613 104.038 20.1973 103.888 20.128C103.744 20.0533 103.571 19.9867 103.368 19.928C103.166 19.864 102.926 19.832 102.648 19.832C102.408 19.832 102.192 19.864 102 19.928C101.808 19.9867 101.643 20.0693 101.504 20.176C101.371 20.2827 101.267 20.408 101.192 20.552C101.123 20.6907 101.088 20.8427 101.088 21.008C101.088 21.216 101.147 21.3893 101.264 21.528C101.387 21.6667 101.547 21.7867 101.744 21.888C101.942 21.9893 102.166 22.08 102.416 22.16C102.667 22.2347 102.923 22.3173 103.184 22.408C103.451 22.4933 103.71 22.5893 103.96 22.696C104.211 22.8027 104.435 22.936 104.632 23.096C104.83 23.256 104.987 23.4533 105.104 23.688C105.227 23.9173 105.288 24.1947 105.288 24.52C105.288 24.8933 105.222 25.24 105.088 25.56C104.955 25.8747 104.758 26.1493 104.496 26.384C104.235 26.6133 103.915 26.7947 103.536 26.928C103.158 27.0613 102.72 27.128 102.224 27.128C101.659 27.128 101.147 27.0373 100.688 26.856C100.23 26.6693 99.8404 26.432 99.5204 26.144L99.8564 25.6C99.899 25.5307 99.9497 25.4773 100.008 25.44C100.067 25.4027 100.142 25.384 100.232 25.384C100.328 25.384 100.43 25.4213 100.536 25.496C100.643 25.5707 100.771 25.6533 100.92 25.744C101.075 25.8347 101.262 25.9173 101.48 25.992C101.699 26.0667 101.971 26.104 102.296 26.104C102.574 26.104 102.816 26.0693 103.024 26C103.232 25.9253 103.406 25.8267 103.544 25.704C103.683 25.5813 103.784 25.44 103.848 25.28C103.918 25.12 103.952 24.9493 103.952 24.768C103.952 24.544 103.891 24.36 103.768 24.216C103.651 24.0667 103.494 23.9413 103.296 23.84C103.099 23.7333 102.872 23.6427 102.616 23.568C102.366 23.488 102.107 23.4053 101.84 23.32C101.579 23.2347 101.32 23.1387 101.064 23.032C100.814 22.92 100.59 22.7813 100.392 22.616C100.195 22.4507 100.035 22.248 99.9124 22.008C99.795 21.7627 99.7364 21.4667 99.7364 21.12C99.7364 20.8107 99.8004 20.5147 99.9284 20.232C100.056 19.944 100.243 19.6933 100.488 19.48C100.734 19.2613 101.035 19.088 101.392 18.96C101.75 18.832 102.158 18.768 102.616 18.768C103.15 18.768 103.627 18.8533 104.048 19.024C104.475 19.1893 104.843 19.4187 105.152 19.712L104.832 20.232ZM111.426 23.352C110.77 23.3733 110.21 23.4267 109.746 23.512C109.288 23.592 108.912 23.6987 108.618 23.832C108.33 23.9653 108.12 24.1227 107.986 24.304C107.858 24.4853 107.794 24.688 107.794 24.912C107.794 25.1253 107.829 25.3093 107.898 25.464C107.968 25.6187 108.061 25.7467 108.178 25.848C108.301 25.944 108.442 26.016 108.602 26.064C108.768 26.1067 108.944 26.128 109.13 26.128C109.381 26.128 109.61 26.104 109.818 26.056C110.026 26.0027 110.221 25.928 110.402 25.832C110.589 25.736 110.765 25.6213 110.93 25.488C111.101 25.3547 111.266 25.2027 111.426 25.032V23.352ZM106.826 20.04C107.274 19.608 107.757 19.2853 108.274 19.072C108.792 18.8587 109.365 18.752 109.994 18.752C110.448 18.752 110.85 18.8267 111.202 18.976C111.554 19.1253 111.85 19.3333 112.09 19.6C112.33 19.8667 112.512 20.1893 112.634 20.568C112.757 20.9467 112.818 21.3627 112.818 21.816V27H112.186C112.048 27 111.941 26.9787 111.866 26.936C111.792 26.888 111.733 26.7973 111.69 26.664L111.53 25.896C111.317 26.0933 111.109 26.2693 110.906 26.424C110.704 26.5733 110.49 26.7013 110.266 26.808C110.042 26.9093 109.802 26.9867 109.546 27.04C109.296 27.0987 109.016 27.128 108.706 27.128C108.392 27.128 108.096 27.0853 107.818 27C107.541 26.9093 107.298 26.776 107.09 26.6C106.888 26.424 106.725 26.2027 106.602 25.936C106.485 25.664 106.426 25.344 106.426 24.976C106.426 24.656 106.514 24.3493 106.69 24.056C106.866 23.7573 107.152 23.4933 107.546 23.264C107.941 23.0347 108.456 22.848 109.09 22.704C109.725 22.5547 110.504 22.4693 111.426 22.448V21.816C111.426 21.1867 111.29 20.712 111.018 20.392C110.746 20.0667 110.349 19.904 109.826 19.904C109.474 19.904 109.178 19.9493 108.938 20.04C108.704 20.1253 108.498 20.224 108.322 20.336C108.152 20.4427 108.002 20.5413 107.874 20.632C107.752 20.7173 107.629 20.76 107.506 20.76C107.41 20.76 107.328 20.736 107.258 20.688C107.189 20.6347 107.13 20.5707 107.082 20.496L106.826 20.04ZM116.419 25.048C116.681 25.4 116.966 25.648 117.275 25.792C117.585 25.936 117.931 26.008 118.315 26.008C119.073 26.008 119.654 25.7387 120.059 25.2C120.465 24.6613 120.667 23.8933 120.667 22.896C120.667 22.368 120.619 21.9147 120.523 21.536C120.433 21.1573 120.299 20.848 120.123 20.608C119.947 20.3627 119.731 20.184 119.475 20.072C119.219 19.96 118.929 19.904 118.603 19.904C118.139 19.904 117.731 20.0107 117.379 20.224C117.033 20.4373 116.713 20.7387 116.419 21.128V25.048ZM116.347 20.152C116.689 19.7307 117.083 19.392 117.531 19.136C117.979 18.88 118.491 18.752 119.067 18.752C119.537 18.752 119.961 18.8427 120.339 19.024C120.718 19.2 121.041 19.464 121.307 19.816C121.574 20.1627 121.779 20.5947 121.923 21.112C122.067 21.6293 122.139 22.224 122.139 22.896C122.139 23.4933 122.059 24.0507 121.899 24.568C121.739 25.08 121.507 25.5253 121.203 25.904C120.905 26.2773 120.537 26.5733 120.099 26.792C119.667 27.0053 119.179 27.112 118.635 27.112C118.139 27.112 117.713 27.0293 117.355 26.864C117.003 26.6933 116.691 26.4587 116.419 26.16V29.744H114.987V18.896H115.843C116.046 18.896 116.171 18.9947 116.219 19.192L116.347 20.152ZM125.388 25.048C125.649 25.4 125.935 25.648 126.244 25.792C126.553 25.936 126.9 26.008 127.284 26.008C128.041 26.008 128.623 25.7387 129.028 25.2C129.433 24.6613 129.636 23.8933 129.636 22.896C129.636 22.368 129.588 21.9147 129.492 21.536C129.401 21.1573 129.268 20.848 129.092 20.608C128.916 20.3627 128.7 20.184 128.444 20.072C128.188 19.96 127.897 19.904 127.572 19.904C127.108 19.904 126.7 20.0107 126.348 20.224C126.001 20.4373 125.681 20.7387 125.388 21.128V25.048ZM125.316 20.152C125.657 19.7307 126.052 19.392 126.5 19.136C126.948 18.88 127.46 18.752 128.036 18.752C128.505 18.752 128.929 18.8427 129.308 19.024C129.687 19.2 130.009 19.464 130.276 19.816C130.543 20.1627 130.748 20.5947 130.892 21.112C131.036 21.6293 131.108 22.224 131.108 22.896C131.108 23.4933 131.028 24.0507 130.868 24.568C130.708 25.08 130.476 25.5253 130.172 25.904C129.873 26.2773 129.505 26.5733 129.068 26.792C128.636 27.0053 128.148 27.112 127.604 27.112C127.108 27.112 126.681 27.0293 126.324 26.864C125.972 26.6933 125.66 26.4587 125.388 26.16V29.744H123.956V18.896H124.812C125.015 18.896 125.14 18.9947 125.188 19.192L125.316 20.152ZM143.219 17.328C143.171 17.408 143.117 17.4693 143.059 17.512C143.005 17.5493 142.939 17.568 142.859 17.568C142.768 17.568 142.661 17.5227 142.539 17.432C142.416 17.3413 142.261 17.2427 142.075 17.136C141.893 17.024 141.672 16.9227 141.411 16.832C141.155 16.7413 140.843 16.696 140.475 16.696C140.128 16.696 139.821 16.744 139.555 16.84C139.293 16.9307 139.072 17.056 138.891 17.216C138.715 17.376 138.581 17.5653 138.491 17.784C138.4 17.9973 138.355 18.2293 138.355 18.48C138.355 18.8 138.432 19.0667 138.587 19.28C138.747 19.488 138.955 19.6667 139.211 19.816C139.472 19.9653 139.765 20.096 140.091 20.208C140.421 20.3147 140.757 20.4267 141.099 20.544C141.445 20.6613 141.781 20.7947 142.107 20.944C142.437 21.088 142.731 21.272 142.987 21.496C143.248 21.72 143.456 21.9947 143.611 22.32C143.771 22.6453 143.851 23.0453 143.851 23.52C143.851 24.0213 143.765 24.4933 143.595 24.936C143.424 25.3733 143.173 25.7547 142.843 26.08C142.517 26.4053 142.115 26.6613 141.635 26.848C141.16 27.0347 140.619 27.128 140.011 27.128C139.264 27.128 138.587 26.9947 137.979 26.728C137.371 26.456 136.851 26.0907 136.419 25.632L136.867 24.896C136.909 24.8373 136.96 24.7893 137.019 24.752C137.083 24.7093 137.152 24.688 137.227 24.688C137.296 24.688 137.373 24.7173 137.459 24.776C137.549 24.8293 137.651 24.8987 137.763 24.984C137.875 25.0693 138.003 25.1627 138.147 25.264C138.291 25.3653 138.453 25.4587 138.635 25.544C138.821 25.6293 139.032 25.7013 139.267 25.76C139.501 25.8133 139.765 25.84 140.059 25.84C140.427 25.84 140.755 25.7893 141.043 25.688C141.331 25.5867 141.573 25.4453 141.771 25.264C141.973 25.0773 142.128 24.856 142.235 24.6C142.341 24.344 142.395 24.0587 142.395 23.744C142.395 23.3973 142.315 23.1147 142.155 22.896C142 22.672 141.795 22.4853 141.539 22.336C141.283 22.1867 140.989 22.0613 140.659 21.96C140.328 21.8533 139.992 21.7467 139.651 21.64C139.309 21.528 138.973 21.4 138.643 21.256C138.312 21.112 138.019 20.9253 137.763 20.696C137.507 20.4667 137.299 20.1813 137.139 19.84C136.984 19.4933 136.907 19.0667 136.907 18.56C136.907 18.1547 136.984 17.7627 137.139 17.384C137.299 17.0053 137.528 16.6693 137.827 16.376C138.131 16.0827 138.501 15.848 138.939 15.672C139.381 15.496 139.888 15.408 140.459 15.408C141.099 15.408 141.68 15.5093 142.203 15.712C142.731 15.9147 143.195 16.208 143.595 16.592L143.219 17.328ZM152.214 18.896V27H151.366C151.163 27 151.035 26.9013 150.982 26.704L150.87 25.832C150.518 26.2213 150.123 26.536 149.686 26.776C149.249 27.0107 148.747 27.128 148.182 27.128C147.739 27.128 147.347 27.056 147.006 26.912C146.67 26.7627 146.387 26.5547 146.158 26.288C145.929 26.0213 145.755 25.6987 145.638 25.32C145.526 24.9413 145.47 24.5227 145.47 24.064V18.896H146.894V24.064C146.894 24.6773 147.033 25.152 147.31 25.488C147.593 25.824 148.022 25.992 148.598 25.992C149.019 25.992 149.411 25.8933 149.774 25.696C150.142 25.4933 150.481 25.216 150.79 24.864V18.896H152.214ZM155.904 25.048C156.165 25.4 156.45 25.648 156.76 25.792C157.069 25.936 157.416 26.008 157.8 26.008C158.557 26.008 159.138 25.7387 159.544 25.2C159.949 24.6613 160.152 23.8933 160.152 22.896C160.152 22.368 160.104 21.9147 160.008 21.536C159.917 21.1573 159.784 20.848 159.608 20.608C159.432 20.3627 159.216 20.184 158.96 20.072C158.704 19.96 158.413 19.904 158.088 19.904C157.624 19.904 157.216 20.0107 156.864 20.224C156.517 20.4373 156.197 20.7387 155.904 21.128V25.048ZM155.832 20.152C156.173 19.7307 156.568 19.392 157.016 19.136C157.464 18.88 157.976 18.752 158.552 18.752C159.021 18.752 159.445 18.8427 159.824 19.024C160.202 19.2 160.525 19.464 160.792 19.816C161.058 20.1627 161.264 20.5947 161.408 21.112C161.552 21.6293 161.624 22.224 161.624 22.896C161.624 23.4933 161.544 24.0507 161.384 24.568C161.224 25.08 160.992 25.5253 160.688 25.904C160.389 26.2773 160.021 26.5733 159.584 26.792C159.152 27.0053 158.664 27.112 158.12 27.112C157.624 27.112 157.197 27.0293 156.84 26.864C156.488 26.6933 156.176 26.4587 155.904 26.16V29.744H154.472V18.896H155.328C155.53 18.896 155.656 18.9947 155.704 19.192L155.832 20.152ZM164.873 25.048C165.134 25.4 165.419 25.648 165.729 25.792C166.038 25.936 166.385 26.008 166.769 26.008C167.526 26.008 168.107 25.7387 168.513 25.2C168.918 24.6613 169.121 23.8933 169.121 22.896C169.121 22.368 169.073 21.9147 168.977 21.536C168.886 21.1573 168.753 20.848 168.577 20.608C168.401 20.3627 168.185 20.184 167.929 20.072C167.673 19.96 167.382 19.904 167.057 19.904C166.593 19.904 166.185 20.0107 165.833 20.224C165.486 20.4373 165.166 20.7387 164.873 21.128V25.048ZM164.801 20.152C165.142 19.7307 165.537 19.392 165.985 19.136C166.433 18.88 166.945 18.752 167.521 18.752C167.99 18.752 168.414 18.8427 168.793 19.024C169.171 19.2 169.494 19.464 169.761 19.816C170.027 20.1627 170.233 20.5947 170.377 21.112C170.521 21.6293 170.593 22.224 170.593 22.896C170.593 23.4933 170.513 24.0507 170.352 24.568C170.193 25.08 169.961 25.5253 169.657 25.904C169.358 26.2773 168.99 26.5733 168.553 26.792C168.121 27.0053 167.633 27.112 167.089 27.112C166.593 27.112 166.166 27.0293 165.809 26.864C165.457 26.6933 165.145 26.4587 164.873 26.16V29.744H163.441V18.896H164.297C164.499 18.896 164.625 18.9947 164.673 19.192L164.801 20.152ZM175.825 18.768C176.417 18.768 176.951 18.8667 177.425 19.064C177.9 19.2613 178.305 19.5413 178.641 19.904C178.977 20.2667 179.233 20.7067 179.409 21.224C179.591 21.736 179.681 22.3093 179.681 22.944C179.681 23.584 179.591 24.16 179.409 24.672C179.233 25.184 178.977 25.6213 178.641 25.984C178.305 26.3467 177.9 26.6267 177.425 26.824C176.951 27.016 176.417 27.112 175.825 27.112C175.228 27.112 174.689 27.016 174.209 26.824C173.735 26.6267 173.329 26.3467 172.993 25.984C172.657 25.6213 172.399 25.184 172.217 24.672C172.041 24.16 171.953 23.584 171.953 22.944C171.953 22.3093 172.041 21.736 172.217 21.224C172.399 20.7067 172.657 20.2667 172.993 19.904C173.329 19.5413 173.735 19.2613 174.209 19.064C174.689 18.8667 175.228 18.768 175.825 18.768ZM175.825 26C176.625 26 177.223 25.7333 177.617 25.2C178.012 24.6613 178.209 23.912 178.209 22.952C178.209 21.9867 178.012 21.2347 177.617 20.696C177.223 20.1573 176.625 19.888 175.825 19.888C175.42 19.888 175.065 19.9573 174.761 20.096C174.463 20.2347 174.212 20.4347 174.009 20.696C173.812 20.9573 173.663 21.28 173.561 21.664C173.465 22.0427 173.417 22.472 173.417 22.952C173.417 23.912 173.615 24.6613 174.009 25.2C174.409 25.7333 175.015 26 175.825 26ZM182.839 20.52C183.095 19.9653 183.41 19.5333 183.783 19.224C184.157 18.9093 184.613 18.752 185.151 18.752C185.322 18.752 185.485 18.7707 185.639 18.808C185.799 18.8453 185.941 18.904 186.063 18.984L185.959 20.048C185.927 20.1813 185.847 20.248 185.719 20.248C185.645 20.248 185.535 20.232 185.391 20.2C185.247 20.168 185.085 20.152 184.903 20.152C184.647 20.152 184.418 20.1893 184.215 20.264C184.018 20.3387 183.839 20.4507 183.679 20.6C183.525 20.744 183.383 20.9253 183.255 21.144C183.133 21.3573 183.021 21.6027 182.919 21.88V27H181.487V18.896H182.303C182.458 18.896 182.565 18.9253 182.623 18.984C182.682 19.0427 182.722 19.144 182.743 19.288L182.839 20.52ZM189.804 27.128C189.164 27.128 188.67 26.9493 188.324 26.592C187.982 26.2347 187.812 25.72 187.812 25.048V20.088H186.836C186.75 20.088 186.678 20.064 186.62 20.016C186.561 19.9627 186.532 19.8827 186.532 19.776V19.208L187.86 19.04L188.188 16.536C188.204 16.456 188.238 16.392 188.292 16.344C188.35 16.2907 188.425 16.264 188.516 16.264H189.236V19.056H191.58V20.088H189.236V24.952C189.236 25.2933 189.318 25.5467 189.484 25.712C189.649 25.8773 189.862 25.96 190.124 25.96C190.273 25.96 190.401 25.9413 190.508 25.904C190.62 25.8613 190.716 25.816 190.796 25.768C190.876 25.72 190.942 25.6773 190.996 25.64C191.054 25.5973 191.105 25.576 191.148 25.576C191.222 25.576 191.289 25.6213 191.348 25.712L191.764 26.392C191.518 26.6213 191.222 26.8027 190.876 26.936C190.529 27.064 190.172 27.128 189.804 27.128Z" fill="#35795E"/>
    <rect width="40" height="40" rx="20" fill="url(#paint0_linear_914_1912)"/>
    <path d="M7.86816 31.6358L9.58305 25.4085C8.52283 23.5807 7.96665 21.5107 7.97245 19.3945C7.97245 12.7636 13.3952 7.37241 20.052 7.37241C23.2848 7.37241 26.3206 8.62363 28.5975 10.8954C30.8801 13.1673 32.1373 16.1886 32.1315 19.4003C32.1315 26.0312 26.7088 31.4225 20.0462 31.4225H20.0404C18.0185 31.4225 16.0313 30.915 14.2642 29.9579L7.86816 31.6358ZM14.5713 27.7841L14.9363 28.0032C16.4774 28.9142 18.2444 29.3928 20.0462 29.3986H20.052C25.5848 29.3986 30.0922 24.9184 30.0922 19.4061C30.0922 16.7364 29.0494 14.2282 27.1549 12.3369C25.2604 10.4457 22.7344 9.40781 20.052 9.40781C14.5192 9.40204 10.0118 13.8822 10.0118 19.3945C10.0118 21.28 10.539 23.1194 11.5471 24.7108L11.7846 25.0914L10.7707 28.7759L14.5713 27.7841Z" fill="white"/>
    <path d="M8.29102 31.2149L9.94797 25.2009C8.92251 23.4423 8.38371 21.4415 8.38371 19.4003C8.38951 13 13.6211 7.79333 20.0519 7.79333C23.1746 7.79333 26.1004 9.0042 28.3019 11.1953C30.5035 13.3864 31.7143 16.304 31.7143 19.4061C31.7143 25.8064 26.477 31.0131 20.0519 31.0131H20.0461C18.0937 31.0131 16.176 30.523 14.4727 29.6004L8.29102 31.2149Z" fill="url(#paint1_linear_914_1912)"/>
    <path d="M7.86816 31.6358L9.58305 25.4085C8.52283 23.5807 7.96665 21.5107 7.97245 19.3945C7.97245 12.7636 13.3952 7.37241 20.052 7.37241C23.2848 7.37241 26.3206 8.62363 28.5975 10.8954C30.8801 13.1673 32.1373 16.1886 32.1315 19.4003C32.1315 26.0312 26.7088 31.4225 20.0462 31.4225H20.0404C18.0185 31.4225 16.0313 30.915 14.2642 29.9579L7.86816 31.6358ZM14.5713 27.7841L14.9363 28.0032C16.4774 28.9142 18.2444 29.3928 20.0462 29.3986H20.052C25.5848 29.3986 30.0922 24.9184 30.0922 19.4061C30.0922 16.7364 29.0494 14.2282 27.1549 12.3369C25.2604 10.4457 22.7344 9.40781 20.052 9.40781C14.5192 9.40204 10.0118 13.8822 10.0118 19.3945C10.0118 21.28 10.539 23.1194 11.5471 24.7108L11.7846 25.0914L10.7707 28.7759L14.5713 27.7841Z" fill="url(#paint2_linear_914_1912)"/>
    <path fill-rule="evenodd" clip-rule="evenodd" d="M17.0339 14.3666C16.808 13.865 16.5704 13.8534 16.3561 13.8477C16.1823 13.8419 15.9795 13.8419 15.7767 13.8419C15.5739 13.8419 15.2495 13.9168 14.9714 14.2167C14.6933 14.5165 13.917 15.243 13.917 16.7249C13.917 18.201 15.0004 19.631 15.151 19.8328C15.3016 20.0346 17.2425 23.1655 20.3073 24.3706C22.8564 25.3739 23.3779 25.1721 23.9282 25.1202C24.4786 25.0683 25.7126 24.3937 25.9676 23.6902C26.2167 22.9868 26.2167 22.3871 26.1414 22.2603C26.0661 22.1334 25.8633 22.0585 25.562 21.9085C25.2608 21.7586 23.7776 21.0321 23.4995 20.9283C23.2214 20.8303 23.0187 20.7784 22.8217 21.0782C22.6189 21.3781 22.0395 22.0527 21.8657 22.2545C21.6919 22.4563 21.5123 22.4794 21.2111 22.3295C20.9098 22.1795 19.9365 21.8624 18.7836 20.8361C17.8856 20.0404 17.2772 19.0544 17.1034 18.7545C16.9296 18.4547 17.0861 18.2933 17.2367 18.1433C17.3699 18.0107 17.538 17.7916 17.6886 17.6186C17.8392 17.4456 17.8914 17.3188 17.9899 17.117C18.0883 16.9152 18.042 16.7422 17.9667 16.5923C17.8914 16.4481 17.3004 14.9605 17.0339 14.3666Z" fill="white"/>
    <defs>
        <filter id="filter0_d_914_1912" x="43" y="0" width="166" height="48" filterUnits="userSpaceOnUse" color-interpolation-filters="sRGB">
            <feFlood flood-opacity="0" result="BackgroundImageFix"/>
            <feColorMatrix in="SourceAlpha" type="matrix" values="0 0 0 0 0 0 0 0 0 0 0 0 0 0 0 0 0 0 127 0" result="hardAlpha"/>
            <feOffset dy="4"/>
            <feGaussianBlur stdDeviation="2"/>
            <feComposite in2="hardAlpha" operator="out"/>
            <feColorMatrix type="matrix" values="0 0 0 0 0 0 0 0 0 0 0 0 0 0 0 0 0 0 0.25 0"/>
            <feBlend mode="normal" in2="BackgroundImageFix" result="effect1_dropShadow_914_1912"/>
            <feBlend mode="normal" in="SourceGraphic" in2="effect1_dropShadow_914_1912" result="shape"/>
        </filter>
        <linearGradient id="paint0_linear_914_1912" x1="19.999" y1="39.998" x2="19.999" y2="-0.0013995" gradientUnits="userSpaceOnUse">
            <stop stop-color="#20B038"/>
            <stop offset="1" stop-color="#60D66A"/>
        </linearGradient>
        <linearGradient id="paint1_linear_914_1912" x1="20.0021" y1="31.2137" x2="20.0021" y2="7.79252" gradientUnits="userSpaceOnUse">
            <stop stop-color="#20B038"/>
            <stop offset="1" stop-color="#60D66A"/>
        </linearGradient>
        <linearGradient id="paint2_linear_914_1912" x1="20.0022" y1="31.6335" x2="20.0022" y2="7.37241" gradientUnits="userSpaceOnUse">
            <stop stop-color="#F9F9F9"/>
            <stop offset="1" stop-color="white"/>
        </linearGradient>
    </defs>
</svg>
