<svg xmlns="http://www.w3.org/2000/svg" id="tennis" viewBox="0 0 20 20" fill="none">
  <g clip-path="url(#clip0_713_793)">
    <path d="M10 20C15.5228 20 20 15.5228 20 10C20 4.47715 15.5228 0 10 0C4.47715 0 0 4.47715 0 10C0 15.5228 4.47715 20 10 20Z" fill="#8CC63E"/>
    <path d="M2.45961 3.44637C4.11648 5.13824 5.14211 7.45074 5.14211 10.0001C5.14211 12.5495 4.11648 14.862 2.45898 16.5539C2.73273 16.8689 3.02711 17.1639 3.33773 17.4426C5.22398 15.5239 6.39211 12.897 6.39211 10.0007C6.39211 7.10449 5.22398 4.47637 3.33836 2.55762C3.02711 2.83637 2.73336 3.13199 2.45961 3.44637ZM17.5421 16.5532C15.8852 14.8614 14.8596 12.5495 14.8596 10.0001C14.8596 7.45074 15.8852 5.13887 17.5421 3.44699C17.268 3.1327 16.9745 2.83587 16.6634 2.55824C14.7771 4.47699 13.6096 7.10387 13.6096 10.0001C13.6096 12.8964 14.7777 15.5232 16.6634 17.442C16.9746 17.1639 17.2684 16.8682 17.5421 16.5532Z" fill="#E9EFF4"/>
    <path opacity="0.1" d="M12.0313 3.45C12.0313 8.15375 8.2175 11.9662 3.51438 11.9662C2.29125 11.9662 1.12813 11.7081 0.0775008 11.2444C0.0257203 10.8316 -0.000163658 10.416 7.78534e-07 10C7.78534e-07 4.47688 4.47688 0 10 0C10.455 0 10.9031 0.030625 11.3419 0.089375C11.7982 1.15093 12.0328 2.29453 12.0313 3.45Z" fill="white"/>
    <path opacity="0.1" d="M7.05895 6.11949C8.34037 4.7816 8.72018 3.06584 7.90728 2.28724C7.09437 1.50865 5.39658 1.96205 4.11515 3.29994C2.83372 4.63783 2.45391 6.35359 3.26682 7.13219C4.07973 7.91078 5.77752 7.45739 7.05895 6.11949Z" fill="white"/>
    <path opacity="0.15" d="M19.9992 9.99995C19.9992 15.5225 15.5217 20 9.99922 20C6.52234 20 3.45984 18.2256 1.66797 15.5331C3.3067 16.6243 5.23227 17.2051 7.20109 17.2018C12.7236 17.2018 17.2011 12.7243 17.2011 7.20183C17.2011 5.15558 16.5867 3.25308 15.5323 1.6687C18.2248 3.46058 19.9992 6.52308 19.9992 9.99995Z" fill="#64892F"/>
  </g>
  <defs>
    <clipPath id="clip0_713_793">
      <rect width="20" height="20" fill="white"/>
    </clipPath>
  </defs>
</svg>
