<svg width="16" height="16" viewBox="0 0 16 16" fill="none" xmlns="http://www.w3.org/2000/svg">
<path d="M9.46585 7.99996L15.6959 1.76969C16.1014 1.36443 16.1014 0.709193 15.6959 0.30394C15.2907 -0.101313 14.6354 -0.101313 14.2302 0.30394L7.99991 6.53421L1.76983 0.30394C1.36438 -0.101313 0.709336 -0.101313 0.304082 0.30394C-0.101361 0.709193 -0.101361 1.36443 0.304082 1.76969L6.53416 7.99996L0.304082 14.2302C-0.101361 14.6355 -0.101361 15.2907 0.304082 15.696C0.506045 15.8981 0.771595 15.9997 1.03695 15.9997C1.30232 15.9997 1.56768 15.8981 1.76983 15.696L7.99991 9.4657L14.2302 15.696C14.4323 15.8981 14.6977 15.9997 14.9631 15.9997C15.2284 15.9997 15.4938 15.8981 15.6959 15.696C16.1014 15.2907 16.1014 14.6355 15.6959 14.2302L9.46585 7.99996Z" fill="black"/>
</svg>
