<svg xmlns="http://www.w3.org/2000/svg" width="20" height="20" viewBox="0 0 20 20" fill="none">
<path d="M18.2837 2.29997L17.692 1.7083C16.8003 0.816634 15.342 0.816634 14.4503 1.7083L5.85866 10.3166C5.61699 10.5583 5.46699 10.875 5.43366 11.2166L5.20866 13.6583C5.18366 13.9666 5.29199 14.2666 5.50866 14.4916C5.70866 14.6916 5.96699 14.8 6.24199 14.8H6.33366L8.77533 14.575C9.11699 14.5416 9.43366 14.3916 9.67533 14.15L18.2753 5.54997C18.7087 5.11663 18.9503 4.54163 18.9503 3.9333C18.9503 3.32497 18.7087 2.74163 18.2753 2.31663L18.2837 2.29997ZM8.80033 13.2583C8.80033 13.2583 8.71699 13.3166 8.67533 13.3166L6.48366 13.5166L6.68366 11.325C6.68366 11.275 6.70866 11.2333 6.74199 11.1916L13.7253 4.2083L15.7837 6.26663L8.80033 13.25V13.2583ZM17.4003 4.6583L16.667 5.39163L14.6087 3.3333L15.342 2.59997C15.542 2.39997 15.8087 2.29163 16.0753 2.29163C16.342 2.29163 16.6087 2.39163 16.8087 2.59997L17.4003 3.19163C17.6003 3.39163 17.7087 3.64997 17.7087 3.92497C17.7087 4.19997 17.6003 4.46663 17.4003 4.6583ZM17.292 10.9916V15.8333C17.292 17.5583 15.892 18.9583 14.167 18.9583H4.16699C2.44199 18.9583 1.04199 17.5583 1.04199 15.8333V5.8333C1.04199 4.1083 2.44199 2.7083 4.16699 2.7083H9.00866C9.35033 2.7083 9.63366 2.99163 9.63366 3.3333C9.63366 3.67497 9.35033 3.9583 9.00866 3.9583H4.16699C3.13366 3.9583 2.29199 4.79997 2.29199 5.8333V15.8333C2.29199 16.8666 3.13366 17.7083 4.16699 17.7083H14.167C15.2003 17.7083 16.042 16.8666 16.042 15.8333V10.9916C16.042 10.65 16.3253 10.3666 16.667 10.3666C17.0087 10.3666 17.292 10.65 17.292 10.9916Z" fill="#000000"/>
</svg>