<svg width="17" height="17" viewBox="0 0 17 17" fill="none" xmlns="http://www.w3.org/2000/svg">
<g clip-path="url(#clip0_706_2970)">
<path d="M16.5 2.33435C16.5 1.323 15.678 0.500977 14.6666 0.500977H2.33337C1.32202 0.500977 0.5 1.323 0.5 2.33435V14.6676C0.5 15.679 1.32202 16.501 2.33337 16.501H14.6666C15.678 16.501 16.5 15.679 16.5 14.6676V2.33435Z" fill="#4CAF50"/>
<path d="M12.5547 5.86304C12.8153 6.12366 12.8153 6.54492 12.5547 6.80566L8.22131 11.1389C8.09131 11.2689 7.92065 11.3344 7.75 11.3344C7.57935 11.3344 7.40869 11.2689 7.27869 11.1389L5.11206 8.97229C4.85132 8.71167 4.85132 8.29028 5.11206 8.02966C5.37268 7.76892 5.79395 7.76892 6.05469 8.02966L7.75 9.72498L11.6121 5.86304C11.8727 5.60229 12.2939 5.60229 12.5547 5.86304Z" fill="#FAFAFA"/>
</g>
<defs>
<clipPath id="clip0_706_2970">
<rect x="0.5" y="0.500977" width="16" height="16" rx="8" fill="white"/>
</clipPath>
</defs>
</svg>
