<svg width="44" height="60" viewBox="0 0 44 60" fill="none" xmlns="http://www.w3.org/2000/svg">
<rect x="0.153687" y="0.4375" width="43.4766" height="58.9349" rx="2.89844" fill="white"/>
<path d="M19.4034 10.0973V27.269H15.2638V10.0973H19.4034ZM29.6522 10.0973L23.0005 18.8011L19.1085 23.0587L18.3537 19.2611L20.8422 15.4871L24.5455 10.0973H29.6522ZM24.7577 27.269L20.3233 19.5323L23.543 17.1618L29.6522 27.269H24.7577Z" fill="black"/>
<path d="M27.7133 40.1408C26.183 40.1408 24.9074 40.8692 23.694 41.6561C24.6734 40.1352 25.849 38.6029 25.849 36.6348C25.849 34.4496 24.0752 32.6777 21.8919 32.6777C19.7087 32.6777 17.9368 34.4515 17.9368 36.6348C17.9368 38.5859 19.1161 40.122 20.0974 41.6485C18.8878 40.8636 17.6122 40.1408 16.0705 40.1408C13.8873 40.1408 12.1154 41.9127 12.1154 44.1017C12.1154 46.2849 13.8891 48.0568 16.0705 48.0568C17.8952 48.0568 19.3558 47.0265 20.7843 46.0924L18.8388 52.6328C20.8729 52.2686 22.9279 52.2856 24.9451 52.6328C24.9451 52.6328 23.8752 49.0381 23.0034 46.1019C24.4224 47.0341 25.8792 48.0568 27.7133 48.0568C29.8966 48.0568 31.6685 46.2849 31.6685 44.1017C31.6685 41.9146 29.8947 40.1408 27.7133 40.1408Z" fill="black"/>
</svg>
