<svg width="45" height="60" viewBox="0 0 45 60" fill="none" xmlns="http://www.w3.org/2000/svg">
<rect x="0.849487" y="0.469238" width="43.4766" height="58.9349" rx="2.89844" fill="white"/>
<path d="M20.0995 10.129V27.3008H15.9599V10.129H20.0995ZM30.3483 10.129L23.6966 18.8329L19.8047 23.0904L19.0499 19.2928L21.5384 15.5188L25.2416 10.129H30.3483ZM25.4539 27.3008L21.0194 19.5641L24.2391 17.1935L30.3483 27.3008H25.4539Z" fill="#FF0000"/>
<path d="M22.5872 32.0283C22.3139 32.0287 22.0452 32.0986 21.8064 32.2315C21.5677 32.3644 21.3666 32.5558 21.2222 32.7878L14.1381 41.4272C13.8764 41.7213 13.7315 42.1012 13.7308 42.4949C13.7313 42.8856 13.8738 43.2629 14.1318 43.5563L21.2175 52.1972C21.3617 52.4308 21.5633 52.6236 21.803 52.7574C22.0427 52.8911 22.3127 52.9614 22.5872 52.9615C22.8604 52.9611 23.1291 52.8912 23.3679 52.7583C23.6067 52.6254 23.8077 52.434 23.9521 52.202L31.0362 43.5626C31.298 43.2685 31.4429 42.8886 31.4435 42.4949C31.4426 42.1139 31.3066 41.7457 31.0598 41.4555L31.0425 41.4335L23.9568 32.7926C23.8126 32.559 23.6111 32.3662 23.3713 32.2324C23.1316 32.0986 22.8617 32.0284 22.5872 32.0283Z" fill="#FF0000"/>
</svg>
