<svg width="45" height="60" viewBox="0 0 45 60" fill="none" xmlns="http://www.w3.org/2000/svg">
<rect x="0.849487" y="0.995605" width="43.4766" height="58.9349" rx="2.89844" fill="white"/>
<path d="M20.0995 10.6554V27.8271H15.9599V10.6554H20.0995ZM30.3483 10.6554L23.6966 19.3592L19.8047 23.6168L19.0499 19.8192L21.5384 16.0452L25.2416 10.6554H30.3483ZM25.4539 27.8271L21.0194 20.0904L24.2391 17.7199L30.3483 27.8271H25.4539Z" fill="#FF0000"/>
<path d="M26.8705 33.9696C24.112 34.0824 22.5873 36.068 22.5873 36.068C22.5873 36.068 21.0626 34.0824 18.304 33.9696C16.4543 33.8942 14.7585 34.815 13.6414 36.2914C9.75466 41.4281 17.1135 47.4373 18.8445 49.0506C19.8801 50.0157 21.1582 51.162 21.921 51.8413C22.3025 52.1815 22.8711 52.1815 23.2525 51.8413C24.0154 51.162 25.2935 50.0157 26.3291 49.0506C28.0601 47.4373 35.4199 41.4281 31.5322 36.2914C30.4161 34.815 28.7203 33.8942 26.8705 33.9696Z" fill="#FF0000"/>
</svg>
