<svg width="31" height="31" viewBox="0 0 31 31" fill="none" xmlns="http://www.w3.org/2000/svg">
<path d="M15.5 0.700195C14.9643 0.700888 14.4435 0.875916 14.0161 1.19883V1.19642C9.8536 4.45982 0.699951 8.24089 0.699951 16.0615C0.699951 20.52 4.31352 24.1335 8.77202 24.1335C11.5754 24.1335 13.5814 22.5434 14.64 21.4477C13.9084 23.6599 12.5563 26.1884 10.0246 27.9564V27.9612C9.81759 28.0625 9.64308 28.2198 9.52088 28.4152C9.39869 28.6106 9.3337 28.8364 9.33329 29.0669C9.33329 29.394 9.46323 29.7077 9.69452 29.939C9.92582 30.1703 10.2395 30.3002 10.5666 30.3002H20.4333C20.7604 30.3002 21.0741 30.1703 21.3054 29.939C21.5367 29.7077 21.6666 29.394 21.6666 29.0669C21.6662 28.8364 21.6012 28.6106 21.479 28.4152C21.3568 28.2198 21.1823 28.0625 20.9753 27.9612V27.9564C18.4436 26.1884 17.0915 23.6599 16.3599 21.4477C17.4185 22.5434 19.4245 24.1335 22.2279 24.1335C26.6864 24.1335 30.3 20.52 30.3 16.0615C30.3 8.24089 21.1463 4.45982 16.9838 1.19642L16.9814 1.19883C16.5547 0.876411 16.0348 0.70141 15.5 0.700195Z" fill="white"/>
</svg>
