<svg width="24" height="24" viewBox="0 0 24 24" fill="none" xmlns="http://www.w3.org/2000/svg">
<path d="M12 0C12 0 0 6.62142 0 13.7371C2.39955e-05 15.0528 0.385926 16.3389 1.10895 17.4331C1.83197 18.5272 2.85967 19.3801 4.06219 19.8842C5.26471 20.3883 6.58808 20.5208 7.8651 20.265C9.14212 20.0093 10.3155 19.3767 11.2369 18.4473C10.0634 21.6171 7.9498 24 7.9498 24H16.0502C16.0502 24 13.9366 21.6144 12.7631 18.4473C13.6845 19.3767 14.8579 20.0093 16.1349 20.265C17.4119 20.5208 18.7353 20.3883 19.9378 19.8842C21.1403 19.3801 22.168 18.5272 22.891 17.4331C23.6141 16.3389 24 15.0528 24 13.7371C24 6.62142 12 0 12 0Z" fill="black"/>
</svg>
