<svg width="24" height="21" viewBox="0 0 24 21" fill="none" xmlns="http://www.w3.org/2000/svg">
<path d="M12 21C12 21 24 13.7866 24 6.66439C24.0001 5.24406 23.5517 3.86085 22.7203 2.71652C21.8889 1.57219 20.7179 0.726608 19.3782 0.303114C18.0385 -0.120379 16.6 -0.099631 15.2728 0.362333C13.9455 0.824297 12.7988 1.70331 12 2.87115C11.2012 1.70331 10.0545 0.824297 8.72721 0.362333C7.39995 -0.099631 5.96155 -0.120379 4.62182 0.303114C3.28208 0.726608 2.11111 1.57219 1.27969 2.71652C0.448272 3.86085 -9.09008e-05 5.24406 1.38233e-08 6.66439C0.000592753 13.7866 12 21 12 21Z" fill="#FF4057"/>
</svg>
