<svg width="31" height="32" viewBox="0 0 31 32" fill="none" xmlns="http://www.w3.org/2000/svg">
<path d="M24.4175 11.9388C22.0732 11.9388 20.1191 13.0545 18.2604 14.2599C19.7607 11.9301 21.5615 9.58291 21.5615 6.56799C21.5615 3.22064 18.8443 0.506348 15.4999 0.506348C12.1554 0.506348 9.44114 3.22354 9.44114 6.56799C9.44114 9.55689 11.2478 11.9099 12.7509 14.2484C10.898 13.0459 8.94395 11.9388 6.58231 11.9388C3.23786 11.9388 0.52356 14.6531 0.52356 18.0062C0.52356 21.3506 3.24075 24.0649 6.58231 24.0649C9.37754 24.0649 11.6149 22.4867 13.8031 21.0558L10.8229 31.0747C13.9389 30.5168 17.0868 30.5428 20.1769 31.0747C20.1769 31.0747 18.5379 25.5681 17.2025 21.0702C19.3762 22.4982 21.6078 24.0649 24.4175 24.0649C27.7619 24.0649 30.4762 21.3506 30.4762 18.0062C30.4762 14.656 27.759 11.9388 24.4175 11.9388Z" fill="white"/>
</svg>
