<svg width="29" height="33" viewBox="0 0 29 33" fill="none" xmlns="http://www.w3.org/2000/svg">
<path d="M14.4998 0.466797C14.0812 0.467379 13.6696 0.574483 13.3038 0.778027C12.938 0.981571 12.63 1.27486 12.4089 1.63027L1.557 14.8645C1.15606 15.3151 0.934107 15.897 0.933105 16.5001C0.933794 17.0987 1.15211 17.6766 1.54736 18.1261L12.4017 31.3628C12.6226 31.7206 12.9313 32.0159 13.2985 32.2208C13.6658 32.4257 14.0793 32.5333 14.4998 32.5335C14.9184 32.5329 15.33 32.4258 15.6957 32.2222C16.0615 32.0187 16.3695 31.7254 16.5907 31.37L27.4425 18.1357C27.8435 17.6852 28.0654 17.1033 28.0664 16.5001C28.065 15.9166 27.8568 15.3524 27.4787 14.9079L27.4522 14.8742L16.5979 1.6375C16.377 1.2797 16.0682 0.984327 15.701 0.779429C15.3338 0.57453 14.9203 0.466913 14.4998 0.466797Z" fill="white"/>
</svg>
