<svg width="24" height="25" viewBox="0 0 24 25" fill="none" xmlns="http://www.w3.org/2000/svg">
<path d="M20.9741 10.5908C19.6622 9.83144 18.112 9.59434 16.6329 9.92684C17.3724 9.04543 17.8448 7.97141 17.9948 6.83095C18.1447 5.69048 17.9658 4.53094 17.4793 3.48854C16.9927 2.44613 16.2186 1.56415 15.2479 0.946204C14.2771 0.328254 13.1501 0 11.9992 0C10.8483 0 9.72133 0.328254 8.75061 0.946204C7.7799 1.56415 7.00578 2.44613 6.51921 3.48854C6.03263 4.53094 5.85379 5.69048 6.00371 6.83095C6.15363 7.97141 6.62608 9.04543 7.36555 9.92684C6.26484 9.68106 5.11729 9.74784 4.05255 10.1196C2.98782 10.4914 2.04834 11.1534 1.34026 12.0308C0.632179 12.9082 0.18372 13.966 0.0455513 15.0847C-0.0926174 16.2035 0.0850117 17.3385 0.558369 18.3616C1.03173 19.3848 1.78194 20.2552 2.72426 20.8746C3.66658 21.494 4.76344 21.8377 5.89091 21.8668C7.01838 21.8959 8.13153 21.6093 9.10458 21.0393C10.0776 20.4694 10.8718 19.6388 11.3974 18.6415C10.2216 22.2241 7.73416 25 7.73416 25H16.2679C16.2679 25 13.7805 22.2241 12.6047 18.6415C13.0416 19.4702 13.6654 20.186 14.4267 20.7325C15.188 21.2789 16.066 21.641 16.9913 21.7901C17.9166 21.9392 18.864 21.8712 19.7585 21.5916C20.6531 21.312 21.4703 20.8283 22.1457 20.1789C22.8212 19.5294 23.3363 18.7318 23.6504 17.8493C23.9645 16.9667 24.069 16.0232 23.9556 15.0933C23.8423 14.1634 23.5142 13.2726 22.9972 12.4912C22.4803 11.7098 21.7886 11.0592 20.9769 10.5908H20.9741Z" fill="black"/>
</svg>
