<svg width="44" height="60" viewBox="0 0 44 60" fill="none" xmlns="http://www.w3.org/2000/svg">
<rect x="0.153809" y="0.961426" width="43.4766" height="58.9349" rx="2.89844" fill="white"/>
<path d="M21.8923 33.3252C21.5426 33.3256 21.2026 33.4399 20.9236 33.6507V33.6491C18.2063 35.7795 12.2308 38.2478 12.2308 43.353C12.2308 46.2636 14.5898 48.6225 17.5003 48.6225C19.3304 48.6225 20.6399 47.5845 21.3309 46.8692C20.8533 48.3133 19.9707 49.9639 18.318 51.1181V51.1212C18.1828 51.1873 18.0689 51.29 17.9891 51.4176C17.9094 51.5452 17.867 51.6925 17.8667 51.843C17.8667 52.0565 17.9515 52.2613 18.1025 52.4123C18.2535 52.5633 18.4583 52.6481 18.6718 52.6481H25.1128C25.3263 52.6481 25.5311 52.5633 25.6821 52.4123C25.8331 52.2613 25.9179 52.0565 25.9179 51.843C25.9176 51.6925 25.8752 51.5452 25.7954 51.4176C25.7157 51.29 25.6017 51.1873 25.4666 51.1212V51.1181C23.8139 49.9639 22.9313 48.3133 22.4537 46.8692C23.1447 47.5845 24.4542 48.6225 26.2843 48.6225C29.1948 48.6225 31.5538 46.2636 31.5538 43.353C31.5538 38.2478 25.5782 35.7795 22.861 33.6491L22.8594 33.6507C22.5808 33.4402 22.2414 33.326 21.8923 33.3252Z" fill="black"/>
<path d="M19.4036 10.6212V27.793H15.264V10.6212H19.4036ZM29.6524 10.6212L23.0007 19.325L19.1088 23.5826L18.354 19.785L20.8425 16.011L24.5457 10.6212H29.6524ZM24.758 27.793L20.3235 20.0563L23.5432 17.6857L29.6524 27.793H24.758Z" fill="black"/>
</svg>
