<svg width="49" height="63" viewBox="0 0 49 63" fill="none" xmlns="http://www.w3.org/2000/svg">
<rect width="49" height="63" rx="3" fill="white"/>
<path d="M37.1598 32.878C35.4467 32.948 34.4998 34.1812 34.4998 34.1812C34.4998 34.1812 33.553 32.948 31.8398 32.878C30.6911 32.8312 29.638 33.403 28.9442 34.3199C26.5305 37.5099 31.1005 41.2418 32.1755 42.2437C32.8186 42.843 33.6123 43.5549 34.0861 43.9768C34.323 44.188 34.6761 44.188 34.913 43.9768C35.3867 43.5549 36.1805 42.843 36.8236 42.2437C37.8986 41.2418 42.4692 37.5099 40.0548 34.3199C39.3617 33.403 38.3086 32.8312 37.1598 32.878Z" fill="#FF0000"/>
<path d="M18.1151 52.0563C17.1647 52.0563 16.3725 52.5086 15.619 52.9973C16.2272 52.0528 16.9573 51.1012 16.9573 49.8789C16.9573 48.5219 15.8558 47.4215 14.4999 47.4215C13.144 47.4215 12.0436 48.5231 12.0436 49.8789C12.0436 51.0906 12.7761 52.0446 13.3854 52.9926C12.6343 52.5051 11.8421 52.0563 10.8847 52.0563C9.5288 52.0563 8.42841 53.1567 8.42841 54.516C8.42841 55.8719 9.52997 56.9723 10.8847 56.9723C12.0179 56.9723 12.9249 56.3324 13.812 55.7524L12.6038 59.8141C13.8671 59.5879 15.1432 59.5985 16.396 59.8141C16.396 59.8141 15.7315 57.5817 15.1901 55.7582C16.0714 56.3371 16.9761 56.9723 18.1151 56.9723C19.471 56.9723 20.5714 55.8719 20.5714 54.516C20.5714 53.1578 19.4698 52.0563 18.1151 52.0563Z" fill="black"/>
<path d="M34.4998 48C34.3301 48.0002 34.1633 48.0437 34.015 48.1262C33.8667 48.2087 33.7418 48.3276 33.6522 48.4717L29.2527 53.8369C29.0902 54.0196 29.0002 54.2555 28.9998 54.5C29.0001 54.7427 29.0886 54.9769 29.2488 55.1592L33.6492 60.5254C33.7388 60.6704 33.864 60.7902 34.0128 60.8733C34.1617 60.9563 34.3293 61 34.4998 61C34.6695 60.9998 34.8364 60.9563 34.9847 60.8738C35.133 60.7913 35.2578 60.6724 35.3475 60.5283L39.7469 55.1631C39.9094 54.9804 39.9994 54.7445 39.9998 54.5C39.9992 54.2634 39.9148 54.0347 39.7615 53.8545L39.7508 53.8408L35.3504 48.4746C35.2608 48.3296 35.1357 48.2098 34.9868 48.1267C34.8379 48.0437 34.6703 48 34.4998 48Z" fill="#FF0000"/>
<path d="M14.5 32.5C14.2828 32.5003 14.0717 32.5712 13.8984 32.7021V32.7012C12.2109 34.0242 8.5 35.557 8.5 38.7275C8.5 40.535 9.96496 42 11.7725 42C12.909 42 13.7222 41.3553 14.1514 40.9111C13.8548 41.808 13.3066 42.8331 12.2803 43.5498V43.5518C12.1963 43.5928 12.1256 43.6566 12.0761 43.7358C12.0265 43.815 12.0002 43.9066 12 44C12 44.1326 12.0527 44.2598 12.1464 44.3536C12.2402 44.4473 12.3674 44.5 12.5 44.5H16.5C16.6326 44.5 16.7598 44.4473 16.8536 44.3536C16.9473 44.2598 17 44.1326 17 44C16.9998 43.9066 16.9735 43.815 16.9239 43.7358C16.8744 43.6566 16.8037 43.5928 16.7197 43.5518V43.5498C15.6934 42.8331 15.1452 41.808 14.8486 40.9111C15.2778 41.3553 16.091 42 17.2275 42C19.035 42 20.5 40.535 20.5 38.7275C20.5 35.557 16.7891 34.0242 15.1016 32.7012L15.1006 32.7021C14.9276 32.5714 14.7168 32.5005 14.5 32.5Z" fill="black"/>
<path d="M18.5918 16.3086L19.6782 7.22656H30.0664V10.4248H23.0229L22.6201 13.9526C22.9131 13.7817 23.2956 13.6312 23.7676 13.501C24.2477 13.3708 24.7157 13.3057 25.1714 13.3057C26.9373 13.3057 28.2923 13.8306 29.2363 14.8804C30.1885 15.922 30.6646 17.3869 30.6646 19.2749C30.6646 20.4142 30.4082 21.4478 29.8955 22.3755C29.391 23.2951 28.6789 24.0031 27.7593 24.4995C26.8397 24.9959 25.7533 25.2441 24.5 25.2441C23.3851 25.2441 22.3394 25.0163 21.3628 24.5605C20.3862 24.0967 19.6213 23.466 19.0679 22.6685C18.5145 21.8628 18.2419 20.9554 18.25 19.9463H22.376C22.4167 20.5973 22.6242 21.1141 22.9985 21.4966C23.3729 21.8791 23.8652 22.0703 24.4756 22.0703C25.859 22.0703 26.5508 21.0449 26.5508 18.9941C26.5508 17.098 25.7044 16.1499 24.0117 16.1499C23.0514 16.1499 22.3353 16.4591 21.8633 17.0776L18.5918 16.3086Z" fill="black"/>
</svg>
