<svg width="49" height="63" viewBox="0 0 49 63" fill="none" xmlns="http://www.w3.org/2000/svg">
<rect width="49" height="63" rx="3" fill="white"/>
<path d="M37.1598 32.878C35.4467 32.948 34.4998 34.1812 34.4998 34.1812C34.4998 34.1812 33.553 32.948 31.8398 32.878C30.6911 32.8312 29.638 33.403 28.9442 34.3199C26.5305 37.5099 31.1005 41.2418 32.1755 42.2437C32.8186 42.843 33.6123 43.5549 34.0861 43.9768C34.323 44.188 34.6761 44.188 34.913 43.9768C35.3867 43.5549 36.1805 42.843 36.8236 42.2437C37.8986 41.2418 42.4692 37.5099 40.0548 34.3199C39.3617 33.403 38.3086 32.8312 37.1598 32.878Z" fill="#FF0000"/>
<path d="M18.1151 52.0563C17.1647 52.0563 16.3725 52.5086 15.619 52.9973C16.2272 52.0528 16.9573 51.1012 16.9573 49.8789C16.9573 48.5219 15.8558 47.4215 14.4999 47.4215C13.144 47.4215 12.0436 48.5231 12.0436 49.8789C12.0436 51.0906 12.7761 52.0446 13.3854 52.9926C12.6343 52.5051 11.8421 52.0563 10.8847 52.0563C9.5288 52.0563 8.42841 53.1567 8.42841 54.516C8.42841 55.8719 9.52997 56.9723 10.8847 56.9723C12.0179 56.9723 12.9249 56.3324 13.812 55.7524L12.6038 59.8141C13.8671 59.5879 15.1432 59.5985 16.396 59.8141C16.396 59.8141 15.7315 57.5817 15.1901 55.7582C16.0714 56.3371 16.9761 56.9723 18.1151 56.9723C19.471 56.9723 20.5714 55.8719 20.5714 54.516C20.5714 53.1578 19.4698 52.0563 18.1151 52.0563Z" fill="black"/>
<path d="M34.4998 48C34.3301 48.0002 34.1633 48.0437 34.015 48.1262C33.8667 48.2087 33.7418 48.3276 33.6522 48.4717L29.2527 53.8369C29.0902 54.0196 29.0002 54.2555 28.9998 54.5C29.0001 54.7427 29.0886 54.9769 29.2488 55.1592L33.6492 60.5254C33.7388 60.6704 33.864 60.7902 34.0128 60.8733C34.1617 60.9563 34.3293 61 34.4998 61C34.6695 60.9998 34.8364 60.9563 34.9847 60.8738C35.133 60.7913 35.2578 60.6724 35.3475 60.5283L39.7469 55.1631C39.9094 54.9804 39.9994 54.7445 39.9998 54.5C39.9992 54.2634 39.9148 54.0347 39.7615 53.8545L39.7508 53.8408L35.3504 48.4746C35.2608 48.3296 35.1357 48.2098 34.9868 48.1267C34.8379 48.0437 34.6703 48 34.4998 48Z" fill="#FF0000"/>
<path d="M14.5 32.5C14.2828 32.5003 14.0717 32.5712 13.8984 32.7021V32.7012C12.2109 34.0242 8.5 35.557 8.5 38.7275C8.5 40.535 9.96496 42 11.7725 42C12.909 42 13.7222 41.3553 14.1514 40.9111C13.8548 41.808 13.3066 42.8331 12.2803 43.5498V43.5518C12.1963 43.5928 12.1256 43.6566 12.0761 43.7358C12.0265 43.815 12.0002 43.9066 12 44C12 44.1326 12.0527 44.2598 12.1464 44.3536C12.2402 44.4473 12.3674 44.5 12.5 44.5H16.5C16.6326 44.5 16.7598 44.4473 16.8536 44.3536C16.9473 44.2598 17 44.1326 17 44C16.9998 43.9066 16.9735 43.815 16.9239 43.7358C16.8744 43.6566 16.8037 43.5928 16.7197 43.5518V43.5498C15.6934 42.8331 15.1452 41.808 14.8486 40.9111C15.2778 41.3553 16.091 42 17.2275 42C19.035 42 20.5 40.535 20.5 38.7275C20.5 35.557 16.7891 34.0242 15.1016 32.7012L15.1006 32.7021C14.9276 32.5714 14.7168 32.5005 14.5 32.5Z" fill="black"/>
<path d="M26.4531 18.1274C25.5661 18.925 24.5732 19.3237 23.4746 19.3237C21.8633 19.3237 20.5856 18.7785 19.6416 17.688C18.6976 16.5975 18.2256 15.1408 18.2256 13.3179C18.2256 12.1785 18.4901 11.1206 19.019 10.144C19.548 9.16748 20.2886 8.39437 21.2407 7.82471C22.201 7.25505 23.259 6.97021 24.4146 6.97021C25.5864 6.97021 26.6444 7.26725 27.5884 7.86133C28.5405 8.44727 29.2811 9.28141 29.8101 10.3638C30.339 11.438 30.6117 12.679 30.6279 14.0869V15.6616C30.6279 17.6229 30.2414 19.3237 29.4683 20.7642C28.7033 22.2046 27.6087 23.3114 26.1846 24.0845C24.7604 24.8576 23.1003 25.2441 21.2041 25.2441H20.9478V21.9482L21.729 21.936C24.561 21.7977 26.1357 20.5282 26.4531 18.1274ZM24.5854 16.3574C25.4806 16.3574 26.1235 15.9709 26.5142 15.1978V13.4888C26.5142 12.3494 26.3229 11.5072 25.9404 10.9619C25.5579 10.4167 25.0412 10.144 24.3901 10.144C23.8123 10.144 23.3281 10.4533 22.9375 11.0718C22.5469 11.6903 22.3516 12.439 22.3516 13.3179C22.3516 14.2456 22.5509 14.9862 22.9497 15.5396C23.3485 16.0848 23.8937 16.3574 24.5854 16.3574Z" fill="black"/>
</svg>
