<svg width="49" height="63" viewBox="0 0 49 63" fill="none" xmlns="http://www.w3.org/2000/svg">
<rect width="49" height="63" rx="3" fill="white"/>
<path d="M37.1599 32.878C35.4468 32.948 34.4999 34.1812 34.4999 34.1812C34.4999 34.1812 33.553 32.948 31.8399 32.878C30.6911 32.8312 29.638 33.403 28.9443 34.3199C26.5305 37.5099 31.1005 41.2418 32.1755 42.2437C32.8186 42.843 33.6124 43.5549 34.0861 43.9768C34.323 44.188 34.6761 44.188 34.913 43.9768C35.3868 43.5549 36.1805 42.843 36.8236 42.2437C37.8986 41.2418 42.4693 37.5099 40.0549 34.3199C39.3618 33.403 38.3086 32.8312 37.1599 32.878Z" fill="#FF0000"/>
<path d="M18.1152 52.0563C17.1648 52.0563 16.3726 52.5086 15.6191 52.9973C16.2273 52.0528 16.9574 51.1012 16.9574 49.8789C16.9574 48.5219 15.8558 47.4215 14.5 47.4215C13.1441 47.4215 12.0437 48.5231 12.0437 49.8789C12.0437 51.0906 12.7761 52.0446 13.3855 52.9926C12.6343 52.5051 11.8421 52.0563 10.8847 52.0563C9.52886 52.0563 8.42847 53.1567 8.42847 54.516C8.42847 55.8719 9.53003 56.9723 10.8847 56.9723C12.0179 56.9723 12.925 56.3324 13.8121 55.7524L12.6039 59.8141C13.8671 59.5879 15.1433 59.5985 16.396 59.8141C16.396 59.8141 15.7316 57.5817 15.1902 55.7582C16.0714 56.3371 16.9761 56.9723 18.1152 56.9723C19.471 56.9723 20.5714 55.8719 20.5714 54.516C20.5714 53.1578 19.4699 52.0563 18.1152 52.0563Z" fill="black"/>
<path d="M34.4999 48C34.3302 48.0002 34.1633 48.0437 34.015 48.1262C33.8667 48.2087 33.7419 48.3276 33.6522 48.4717L29.2528 53.8369C29.0903 54.0196 29.0003 54.2555 28.9999 54.5C29.0002 54.7427 29.0887 54.9769 29.2489 55.1592L33.6493 60.5254C33.7389 60.6704 33.864 60.7902 34.0129 60.8733C34.1618 60.9563 34.3294 61 34.4999 61C34.6696 60.9998 34.8364 60.9563 34.9847 60.8738C35.133 60.7913 35.2579 60.6724 35.3475 60.5283L39.7469 55.1631C39.9095 54.9804 39.9995 54.7445 39.9999 54.5C39.9993 54.2634 39.9149 54.0347 39.7616 53.8545L39.7509 53.8408L35.3505 48.4746C35.2609 48.3296 35.1357 48.2098 34.9869 48.1267C34.838 48.0437 34.6704 48 34.4999 48Z" fill="#FF0000"/>
<path d="M14.5 32.5C14.2828 32.5003 14.0717 32.5712 13.8984 32.7021V32.7012C12.2109 34.0242 8.5 35.557 8.5 38.7275C8.5 40.535 9.96496 42 11.7725 42C12.909 42 13.7222 41.3553 14.1514 40.9111C13.8548 41.808 13.3066 42.8331 12.2803 43.5498V43.5518C12.1963 43.5928 12.1256 43.6566 12.0761 43.7358C12.0265 43.815 12.0002 43.9066 12 44C12 44.1326 12.0527 44.2598 12.1464 44.3536C12.2402 44.4473 12.3674 44.5 12.5 44.5H16.5C16.6326 44.5 16.7598 44.4473 16.8536 44.3536C16.9473 44.2598 17 44.1326 17 44C16.9998 43.9066 16.9735 43.815 16.9239 43.7358C16.8744 43.6566 16.8037 43.5928 16.7197 43.5518V43.5498C15.6934 42.8331 15.1452 41.808 14.8486 40.9111C15.2778 41.3553 16.091 42 17.2275 42C19.035 42 20.5 40.535 20.5 38.7275C20.5 35.557 16.7891 34.0242 15.1016 32.7012L15.1006 32.7021C14.9276 32.5714 14.7168 32.5005 14.5 32.5Z" fill="black"/>
<path d="M25.8916 7.22656H30.1641V19.4214C30.1641 20.5526 29.8996 21.5617 29.3706 22.4487C28.8498 23.3358 28.1174 24.0234 27.1733 24.5117C26.2375 25 25.1917 25.2441 24.0361 25.2441C22.0993 25.2441 20.5938 24.7559 19.5195 23.7793C18.4453 22.8027 17.9082 21.4193 17.9082 19.6289H22.2051C22.2051 20.4427 22.3434 21.0327 22.6201 21.3989C22.9049 21.7651 23.377 21.9482 24.0361 21.9482C24.6302 21.9482 25.0859 21.7285 25.4033 21.2891C25.7288 20.8415 25.8916 20.2189 25.8916 19.4214V7.22656Z" fill="black"/>
</svg>
