<svg width="49" height="63" viewBox="0 0 49 63" fill="none" xmlns="http://www.w3.org/2000/svg">
<rect width="49" height="63" rx="3" fill="white"/>
<path d="M37.1598 32.878C35.4467 32.948 34.4998 34.1812 34.4998 34.1812C34.4998 34.1812 33.553 32.948 31.8398 32.878C30.6911 32.8312 29.638 33.403 28.9442 34.3199C26.5305 37.5099 31.1005 41.2418 32.1755 42.2437C32.8186 42.843 33.6123 43.5549 34.0861 43.9768C34.323 44.188 34.6761 44.188 34.913 43.9768C35.3867 43.5549 36.1805 42.843 36.8236 42.2437C37.8986 41.2418 42.4692 37.5099 40.0548 34.3199C39.3617 33.403 38.3086 32.8312 37.1598 32.878Z" fill="#FF0000"/>
<path d="M18.1151 52.0563C17.1647 52.0563 16.3725 52.5086 15.619 52.9973C16.2272 52.0528 16.9573 51.1012 16.9573 49.8789C16.9573 48.5219 15.8558 47.4215 14.4999 47.4215C13.144 47.4215 12.0436 48.5231 12.0436 49.8789C12.0436 51.0906 12.7761 52.0446 13.3854 52.9926C12.6343 52.5051 11.8421 52.0563 10.8847 52.0563C9.5288 52.0563 8.42841 53.1567 8.42841 54.516C8.42841 55.8719 9.52997 56.9723 10.8847 56.9723C12.0179 56.9723 12.9249 56.3324 13.812 55.7524L12.6038 59.8141C13.8671 59.5879 15.1432 59.5985 16.396 59.8141C16.396 59.8141 15.7315 57.5817 15.1901 55.7582C16.0714 56.3371 16.9761 56.9723 18.1151 56.9723C19.471 56.9723 20.5714 55.8719 20.5714 54.516C20.5714 53.1578 19.4698 52.0563 18.1151 52.0563Z" fill="black"/>
<path d="M34.4998 48C34.3301 48.0002 34.1633 48.0437 34.015 48.1262C33.8667 48.2087 33.7418 48.3276 33.6522 48.4717L29.2527 53.8369C29.0902 54.0196 29.0002 54.2555 28.9998 54.5C29.0001 54.7427 29.0886 54.9769 29.2488 55.1592L33.6492 60.5254C33.7388 60.6704 33.864 60.7902 34.0128 60.8733C34.1617 60.9563 34.3293 61 34.4998 61C34.6695 60.9998 34.8364 60.9563 34.9847 60.8738C35.133 60.7913 35.2578 60.6724 35.3475 60.5283L39.7469 55.1631C39.9094 54.9804 39.9994 54.7445 39.9998 54.5C39.9992 54.2634 39.9148 54.0347 39.7615 53.8545L39.7508 53.8408L35.3504 48.4746C35.2608 48.3296 35.1357 48.2098 34.9868 48.1267C34.8379 48.0437 34.6703 48 34.4998 48Z" fill="#FF0000"/>
<path d="M14.5 32.5C14.2828 32.5003 14.0717 32.5712 13.8984 32.7021V32.7012C12.2109 34.0242 8.5 35.557 8.5 38.7275C8.5 40.535 9.96496 42 11.7725 42C12.909 42 13.7222 41.3553 14.1514 40.9111C13.8548 41.808 13.3066 42.8331 12.2803 43.5498V43.5518C12.1963 43.5928 12.1256 43.6566 12.0761 43.7358C12.0265 43.815 12.0002 43.9066 12 44C12 44.1326 12.0527 44.2598 12.1464 44.3536C12.2402 44.4473 12.3674 44.5 12.5 44.5H16.5C16.6326 44.5 16.7598 44.4473 16.8536 44.3536C16.9473 44.2598 17 44.1326 17 44C16.9998 43.9066 16.9735 43.815 16.9239 43.7358C16.8744 43.6566 16.8037 43.5928 16.7197 43.5518V43.5498C15.6934 42.8331 15.1452 41.808 14.8486 40.9111C15.2778 41.3553 16.091 42 17.2275 42C19.035 42 20.5 40.535 20.5 38.7275C20.5 35.557 16.7891 34.0242 15.1016 32.7012L15.1006 32.7021C14.9276 32.5714 14.7168 32.5005 14.5 32.5Z" fill="black"/>
<path d="M31.7881 16.4795C31.7881 18.1234 31.5155 19.5597 30.9702 20.7886C30.425 22.0093 29.6722 22.9899 28.7119 23.7305L31.5806 26.001L28.9316 28.2471L25.1108 25.1709C24.7528 25.2197 24.3947 25.2441 24.0366 25.2441C22.5229 25.2441 21.1802 24.8942 20.0083 24.1943C18.8364 23.4945 17.9209 22.4935 17.2617 21.1914C16.6107 19.8893 16.2729 18.3919 16.2485 16.6992V15.7593C16.2485 14.0096 16.5659 12.4715 17.2007 11.145C17.8436 9.81852 18.755 8.79313 19.9351 8.06885C21.1232 7.34456 22.4823 6.98242 24.0122 6.98242C25.5177 6.98242 26.8605 7.34049 28.0405 8.05664C29.2205 8.77279 30.1361 9.79411 30.7871 11.1206C31.4463 12.439 31.7799 13.9526 31.7881 15.6616V16.4795ZM27.4302 15.7349C27.4302 13.9689 27.1331 12.6302 26.5391 11.7188C25.9531 10.7992 25.1108 10.3394 24.0122 10.3394C22.881 10.3394 22.0306 10.791 21.4609 11.6943C20.8913 12.5977 20.6024 13.9201 20.5942 15.6616V16.4795C20.5942 18.2292 20.8831 19.5719 21.4609 20.5078C22.0387 21.4355 22.8973 21.8994 24.0366 21.8994C25.1271 21.8994 25.9613 21.4396 26.5391 20.52C27.125 19.6004 27.422 18.278 27.4302 16.5527V15.7349Z" fill="black"/>
</svg>
