<svg width="18" height="18" viewBox="0 0 18 18" fill="none" xmlns="http://www.w3.org/2000/svg">
<path d="M13.8204 7.07519C12.5532 7.07519 11.4969 7.67832 10.4922 8.32988C11.3032 7.07051 12.2766 5.80176 12.2766 4.17207C12.2766 2.3627 10.8078 0.895508 9.00004 0.895508C7.19222 0.895508 5.72504 2.36426 5.72504 4.17207C5.72504 5.7877 6.7016 7.05957 7.5141 8.32363C6.51254 7.67363 5.45629 7.07519 4.17972 7.07519C2.37191 7.07519 0.904724 8.54238 0.904724 10.3549C0.904724 12.1627 2.37347 13.6299 4.17972 13.6299C5.69066 13.6299 6.90004 12.7768 8.08285 12.0033L6.47191 17.4189C8.15629 17.1174 9.85785 17.1314 11.5282 17.4189C11.5282 17.4189 10.6422 14.4424 9.92035 12.0111C11.0954 12.783 12.3016 13.6299 13.8204 13.6299C15.6282 13.6299 17.0954 12.1627 17.0954 10.3549C17.0954 8.54394 15.6266 7.07519 13.8204 7.07519Z" fill="black"/>
</svg>
