<svg width="16" height="18" viewBox="0 0 16 18" fill="none" xmlns="http://www.w3.org/2000/svg">
<path d="M7.99996 0.333496C7.77368 0.333811 7.55121 0.391705 7.35349 0.501729C7.15577 0.611752 6.9893 0.770285 6.86975 0.962402L1.00387 8.11605C0.787142 8.35961 0.667167 8.67414 0.666626 9.00016C0.666998 9.32371 0.785007 9.63609 0.998657 9.87907L6.86584 17.034C6.98527 17.2274 7.15215 17.3871 7.35065 17.4978C7.54914 17.6086 7.77265 17.6668 7.99996 17.6668C8.22623 17.6665 8.4487 17.6086 8.64643 17.4986C8.84415 17.3886 9.01062 17.23 9.13017 17.0379L14.9961 9.88428C15.2128 9.64071 15.3327 9.32619 15.3333 9.00016C15.3325 8.68472 15.22 8.37976 15.0156 8.13949L15.0013 8.12126L9.13407 0.966309C9.01465 0.772905 8.84776 0.613242 8.64927 0.502486C8.45078 0.39173 8.22726 0.333559 7.99996 0.333496Z" fill="#FF0000"/>
</svg>
