<svg width="16" height="16" viewBox="0 0 16 16" fill="none" xmlns="http://www.w3.org/2000/svg">
<path d="M8 0C7.71047 0.000374244 7.42892 0.0949841 7.19792 0.269531V0.268229C4.94792 2.03223 0 4.07605 0 8.30339C0 10.7134 1.95328 12.6667 4.36328 12.6667C5.87864 12.6667 6.96295 11.8071 7.53516 11.2148C7.13968 12.4106 6.40882 13.7774 5.04036 14.7331V14.7357C4.92845 14.7904 4.83412 14.8754 4.76807 14.9811C4.70202 15.0867 4.66689 15.2087 4.66667 15.3333C4.66667 15.5101 4.7369 15.6797 4.86193 15.8047C4.98695 15.9298 5.15652 16 5.33333 16H10.6667C10.8435 16 11.013 15.9298 11.1381 15.8047C11.2631 15.6797 11.3333 15.5101 11.3333 15.3333C11.3331 15.2087 11.298 15.0867 11.2319 14.9811C11.1659 14.8754 11.0715 14.7904 10.9596 14.7357V14.7331C9.59118 13.7774 8.86032 12.4106 8.46484 11.2148C9.03705 11.8071 10.1214 12.6667 11.6367 12.6667C14.0467 12.6667 16 10.7134 16 8.30339C16 4.07605 11.0521 2.03223 8.80208 0.268229L8.80078 0.269531C8.57013 0.0952518 8.28909 0.000656631 8 0Z" fill="black"/>
</svg>
