<svg width="120" height="40" viewBox="0 0 120 40" fill="none" xmlns="http://www.w3.org/2000/svg">
<path d="M110.135 0.00013H9.53468C9.16798 0.00013 8.80568 0.00013 8.43995 0.00213C8.1338 0.00413 7.83009 0.00994 7.521 0.01483C6.84951 0.0227318 6.17961 0.0818063 5.5171 0.19154C4.85552 0.303663 4.21467 0.515046 3.61622 0.81854C3.0185 1.1246 2.47235 1.5223 1.99757 1.9972C1.5203 2.47077 1.12246 3.01815 0.81935 3.61829C0.5154 4.21724 0.304641 4.85907 0.19435 5.52161C0.0830109 6.18332 0.0230984 6.85265 0.01515 7.52361C0.00587 7.83021 0.00489 8.13783 0 8.44447V31.5587C0.00489 31.8692 0.00587 32.17 0.01515 32.4806C0.0231008 33.1516 0.0830134 33.8209 0.19435 34.4825C0.304336 35.1455 0.515108 35.7877 0.81935 36.3868C1.12233 36.985 1.52022 37.5302 1.99757 38.0011C2.47054 38.4781 3.01705 38.8761 3.61622 39.1798C4.21467 39.4841 4.85545 39.6968 5.5171 39.8106C6.17972 39.9195 6.84956 39.9786 7.521 39.9874C7.83009 39.9942 8.1338 39.9981 8.43995 39.9981C8.80567 40.0001 9.168 40.0001 9.53468 40.0001H110.135C110.494 40.0001 110.859 40.0001 111.219 39.9981C111.523 39.9981 111.836 39.9942 112.141 39.9874C112.811 39.9791 113.479 39.92 114.141 39.8106C114.804 39.696 115.448 39.4834 116.049 39.1798C116.647 38.8759 117.193 38.478 117.666 38.0011C118.142 37.5284 118.541 36.9836 118.848 36.3868C119.15 35.7872 119.358 35.1451 119.467 34.4825C119.578 33.8208 119.64 33.1516 119.652 32.4806C119.656 32.17 119.656 31.8692 119.656 31.5587C119.664 31.1954 119.664 30.8341 119.664 30.4649V9.53626C119.664 9.17005 119.664 8.80677 119.656 8.44447C119.656 8.13783 119.656 7.83021 119.652 7.52357C119.64 6.85255 119.578 6.18337 119.467 5.52157C119.358 4.85941 119.149 4.21763 118.848 3.61825C118.23 2.41533 117.252 1.43616 116.049 0.81845C115.448 0.515697 114.804 0.30437 114.141 0.19145C113.48 0.0812328 112.811 0.0221378 112.141 0.01469C111.836 0.00981 111.523 0.00395 111.219 0.002C110.859 0 110.494 0 110.135 0V0.00013Z" fill="#A6A6A6"/>
<path d="M8.44487 39.1251C8.14019 39.1251 7.84287 39.1212 7.54058 39.1144C6.91436 39.1063 6.2896 39.0517 5.67144 38.9513C5.09503 38.852 4.53664 38.6674 4.0147 38.4034C3.49754 38.1416 3.02585 37.7984 2.6177 37.3868C2.20364 36.9801 1.85891 36.5084 1.59719 35.9903C1.33258 35.4689 1.14945 34.91 1.05419 34.3331C0.951311 33.7132 0.895651 33.0864 0.887687 32.4581C0.881347 32.2472 0.873047 31.545 0.873047 31.545V8.44446C0.873047 8.44446 0.881887 7.75305 0.887737 7.54992C0.895363 6.9226 0.950699 6.29678 1.05327 5.67785C1.14871 5.09937 1.33197 4.53887 1.59673 4.01575C1.85749 3.49807 2.2003 3.02598 2.61187 2.6178C3.02297 2.20574 3.49617 1.86073 4.01421 1.59533C4.53495 1.33222 5.09228 1.14885 5.66753 1.05139C6.28772 0.949958 6.91465 0.895118 7.54304 0.887332L8.44536 0.875122H111.214L112.127 0.887822C112.75 0.895221 113.371 0.949572 113.985 1.05041C114.566 1.1491 115.13 1.33374 115.656 1.59826C116.694 2.13311 117.539 2.97929 118.071 4.01819C118.332 4.5377 118.512 5.09363 118.607 5.66711C118.71 6.29111 118.768 6.92186 118.78 7.55432C118.783 7.83752 118.783 8.14172 118.783 8.44446C118.791 8.81946 118.791 9.17639 118.791 9.53625V30.4649C118.791 30.8282 118.791 31.1827 118.783 31.5401C118.783 31.8653 118.783 32.1632 118.779 32.4698C118.768 33.091 118.711 33.7105 118.608 34.3233C118.515 34.9044 118.333 35.4676 118.068 35.9933C117.805 36.5057 117.462 36.9734 117.053 37.379C116.644 37.7928 116.172 38.1381 115.653 38.4015C115.128 38.6675 114.566 38.8529 113.985 38.9513C113.367 39.0523 112.742 39.1068 112.116 39.1144C111.823 39.1212 111.517 39.1251 111.219 39.1251L110.135 39.1271L8.44487 39.1251Z" fill="black"/>
<path d="M24.769 20.3008C24.7797 19.4662 25.0014 18.6478 25.4135 17.9218C25.8255 17.1959 26.4145 16.5859 27.1256 16.1488C26.6738 15.5036 26.0779 14.9727 25.385 14.5981C24.6922 14.2236 23.9216 14.0157 23.1344 13.9911C21.4552 13.8148 19.8272 14.9959 18.9715 14.9959C18.0992 14.9959 16.7817 14.0086 15.363 14.0378C14.4453 14.0674 13.551 14.3343 12.7671 14.8123C11.9832 15.2904 11.3365 15.9633 10.8901 16.7656C8.95607 20.1141 10.3987 25.0351 12.2513 27.7417C13.1782 29.0671 14.2615 30.5475 15.6789 30.495C17.066 30.4375 17.584 29.6105 19.2583 29.6105C20.9171 29.6105 21.4031 30.495 22.8493 30.4616C24.3377 30.4375 25.2754 29.1304 26.1698 27.7925C26.8358 26.8481 27.3483 25.8044 27.6882 24.7C26.8235 24.3343 26.0856 23.7221 25.5665 22.9398C25.0474 22.1575 24.77 21.2397 24.769 20.3008Z" fill="white"/>
<path d="M22.0376 12.211C22.8491 11.2368 23.2489 9.98463 23.1521 8.7204C21.9123 8.85062 20.767 9.44318 19.9445 10.38C19.5424 10.8377 19.2344 11.3701 19.0381 11.9469C18.8419 12.5236 18.7612 13.1334 18.8008 13.7414C19.4209 13.7478 20.0344 13.6134 20.5951 13.3483C21.1558 13.0832 21.649 12.6943 22.0376 12.211Z" fill="white"/>
<path d="M42.3022 27.1398H37.5688L36.4321 30.4962H34.4272L38.9106 18.0782H40.9936L45.477 30.4962H43.438L42.3022 27.1398ZM38.0591 25.591H41.8111L39.9615 20.1437H39.9097L38.0591 25.591Z" fill="white"/>
<path d="M55.1597 25.9698C55.1597 28.7833 53.6538 30.5909 51.3814 30.5909C50.8057 30.621 50.2332 30.4884 49.7294 30.2083C49.2256 29.9281 48.8109 29.5118 48.5327 29.0069H48.4897V33.4913H46.6313V21.4425H48.4302V22.9483H48.4644C48.7553 22.4459 49.1771 22.0317 49.6847 21.7498C50.1923 21.468 50.7669 21.329 51.3472 21.3477C53.645 21.3477 55.1597 23.1641 55.1597 25.9698ZM53.2495 25.9698C53.2495 24.1368 52.3023 22.9317 50.857 22.9317C49.437 22.9317 48.482 24.1622 48.482 25.9698C48.482 27.794 49.437 29.0157 50.857 29.0157C52.3023 29.0157 53.2495 27.8194 53.2495 25.9698Z" fill="white"/>
<path d="M65.1245 25.9698C65.1245 28.7833 63.6187 30.5909 61.3462 30.5909C60.7706 30.621 60.1981 30.4884 59.6943 30.2083C59.1905 29.9281 58.7758 29.5118 58.4976 29.0069H58.4546V33.4913H56.5962V21.4425H58.395V22.9483H58.4292C58.7201 22.4459 59.1419 22.0317 59.6495 21.7498C60.1571 21.468 60.7317 21.329 61.312 21.3477C63.6099 21.3477 65.1245 23.1641 65.1245 25.9698ZM63.2144 25.9698C63.2144 24.1368 62.2671 22.9317 60.8218 22.9317C59.4019 22.9317 58.4468 24.1622 58.4468 25.9698C58.4468 27.794 59.4019 29.0157 60.8218 29.0157C62.2671 29.0157 63.2144 27.8194 63.2144 25.9698H63.2144Z" fill="white"/>
<path d="M71.7105 27.0362C71.8482 28.2677 73.0445 29.0762 74.6792 29.0762C76.2456 29.0762 77.3726 28.2677 77.3726 27.1573C77.3726 26.1934 76.6929 25.6163 75.0835 25.2208L73.4742 24.8331C71.1939 24.2823 70.1353 23.2159 70.1353 21.4854C70.1353 19.3428 72.0025 17.8712 74.6538 17.8712C77.2778 17.8712 79.0767 19.3428 79.1372 21.4854H77.2612C77.1489 20.2462 76.1245 19.4981 74.6274 19.4981C73.1304 19.4981 72.106 20.255 72.106 21.3565C72.106 22.2344 72.7603 22.751 74.3608 23.1465L75.729 23.4825C78.2769 24.085 79.3355 25.1085 79.3355 26.9248C79.3355 29.2481 77.4849 30.7032 74.5415 30.7032C71.7876 30.7032 69.9282 29.2823 69.8081 27.0362L71.7105 27.0362Z" fill="white"/>
<path d="M83.3462 19.2999V21.4425H85.0679V22.9142H83.3462V27.9054C83.3462 28.6808 83.6909 29.0421 84.4477 29.0421C84.6521 29.0386 84.8562 29.0242 85.0591 28.9991V30.462C84.7188 30.5256 84.3729 30.5544 84.0268 30.5479C82.1938 30.5479 81.479 29.8595 81.479 28.1036V22.9142H80.1626V21.4425H81.479V19.2999H83.3462Z" fill="white"/>
<path d="M86.0649 25.9698C86.0649 23.1212 87.7427 21.3312 90.3589 21.3312C92.9839 21.3312 94.6538 23.1212 94.6538 25.9698C94.6538 28.8263 92.9927 30.6085 90.3589 30.6085C87.726 30.6085 86.0649 28.8263 86.0649 25.9698ZM92.7602 25.9698C92.7602 24.0157 91.8647 22.8624 90.3589 22.8624C88.853 22.8624 87.9585 24.0245 87.9585 25.9698C87.9585 27.9318 88.853 29.0763 90.3589 29.0763C91.8647 29.0763 92.7602 27.9318 92.7602 25.9698H92.7602Z" fill="white"/>
<path d="M96.186 21.4425H97.9585V22.9835H98.0015C98.1214 22.5022 98.4034 22.0769 98.8 21.779C99.1966 21.4811 99.6836 21.3288 100.179 21.3478C100.393 21.347 100.607 21.3703 100.816 21.4171V23.1554C100.546 23.0728 100.264 23.0348 99.981 23.0431C99.711 23.0321 99.4418 23.0797 99.192 23.1826C98.9421 23.2855 98.7175 23.4412 98.5335 23.6391C98.3496 23.837 98.2106 24.0724 98.1262 24.3291C98.0417 24.5857 98.0139 24.8576 98.0444 25.1261V30.4962H96.186L96.186 21.4425Z" fill="white"/>
<path d="M109.384 27.837C109.134 29.4806 107.534 30.6085 105.486 30.6085C102.852 30.6085 101.217 28.8439 101.217 26.0128C101.217 23.173 102.861 21.3312 105.408 21.3312C107.913 21.3312 109.488 23.0519 109.488 25.797V26.4337H103.093V26.546C103.064 26.8792 103.105 27.2149 103.216 27.5307C103.326 27.8466 103.502 28.1353 103.732 28.3779C103.963 28.6204 104.242 28.8112 104.552 28.9375C104.861 29.0638 105.195 29.1228 105.529 29.1105C105.968 29.1516 106.409 29.0499 106.785 28.8205C107.162 28.591 107.455 28.2461 107.62 27.837L109.384 27.837ZM103.102 25.1349H107.628C107.645 24.8353 107.6 24.5355 107.495 24.2543C107.39 23.9731 107.229 23.7165 107.02 23.5008C106.812 23.285 106.561 23.1147 106.283 23.0004C106.006 22.8862 105.708 22.8306 105.408 22.837C105.105 22.8352 104.805 22.8934 104.525 23.0081C104.245 23.1229 103.99 23.2919 103.776 23.5056C103.562 23.7192 103.392 23.9732 103.276 24.2528C103.16 24.5325 103.101 24.8323 103.102 25.1349V25.1349Z" fill="white"/>
<path d="M37.8262 8.73114C38.2158 8.70318 38.6067 8.76204 38.9709 8.90347C39.335 9.0449 39.6632 9.26538 39.9317 9.54901C40.2003 9.83263 40.4026 10.1723 40.524 10.5436C40.6454 10.9149 40.6829 11.3085 40.6338 11.696C40.6338 13.6022 39.6035 14.698 37.8262 14.698H35.6709V8.73114H37.8262ZM36.5976 13.8541H37.7226C38.0011 13.8708 38.2797 13.8251 38.5382 13.7205C38.7967 13.6159 39.0287 13.455 39.2172 13.2494C39.4057 13.0438 39.546 12.7988 39.6278 12.5322C39.7097 12.2656 39.7311 11.9841 39.6904 11.7081C39.7281 11.4333 39.7046 11.1535 39.6215 10.8889C39.5383 10.6242 39.3977 10.3812 39.2096 10.1773C39.0216 9.97334 38.7907 9.81353 38.5337 9.70929C38.2766 9.60506 37.9996 9.55897 37.7226 9.57435H36.5976V13.8541Z" fill="white"/>
<path d="M41.6805 12.4445C41.6521 12.1486 41.686 11.85 41.7798 11.5679C41.8737 11.2858 42.0254 11.0265 42.2254 10.8065C42.4253 10.5865 42.669 10.4108 42.9409 10.2905C43.2127 10.1702 43.5067 10.1081 43.804 10.1081C44.1013 10.1081 44.3952 10.1702 44.6671 10.2905C44.939 10.4108 45.1827 10.5865 45.3826 10.8065C45.5825 11.0265 45.7343 11.2858 45.8281 11.5679C45.922 11.85 45.9558 12.1486 45.9275 12.4445C45.9564 12.7407 45.9229 13.0397 45.8293 13.3222C45.7357 13.6047 45.5841 13.8645 45.3841 14.085C45.1841 14.3054 44.9402 14.4815 44.6681 14.602C44.3959 14.7226 44.1016 14.7848 43.804 14.7848C43.5064 14.7848 43.212 14.7226 42.9399 14.602C42.6678 14.4815 42.4239 14.3054 42.2239 14.085C42.0239 13.8645 41.8722 13.6047 41.7786 13.3222C41.6851 13.0397 41.6516 12.7407 41.6805 12.4445ZM45.0135 12.4445C45.0135 11.4684 44.575 10.8976 43.8055 10.8976C43.033 10.8976 42.5985 11.4684 42.5985 12.4445C42.5985 13.4284 43.033 13.9948 43.8055 13.9948C44.575 13.9948 45.0135 13.4245 45.0135 12.4445H45.0135Z" fill="white"/>
<path d="M51.5732 14.6979H50.6514L49.7207 11.3815H49.6504L48.7236 14.6979H47.8105L46.5693 10.1949H47.4707L48.2773 13.6309H48.3438L49.2695 10.1949H50.1221L51.0479 13.6309H51.1182L51.9209 10.1949H52.8096L51.5732 14.6979Z" fill="white"/>
<path d="M53.8535 10.1949H54.709V10.9103H54.7754C54.888 10.6533 55.0781 10.438 55.3189 10.2942C55.5598 10.1504 55.8395 10.0853 56.1191 10.108C56.3382 10.0915 56.5582 10.1246 56.7628 10.2047C56.9674 10.2848 57.1514 10.4099 57.3011 10.5707C57.4508 10.7316 57.5623 10.924 57.6275 11.1338C57.6927 11.3437 57.7099 11.5655 57.6777 11.7828V14.6978H56.7891V12.006C56.7891 11.2823 56.4746 10.9225 55.8174 10.9225C55.6686 10.9155 55.5201 10.9409 55.3821 10.9967C55.244 11.0525 55.1197 11.1375 55.0175 11.2459C54.9154 11.3543 54.8379 11.4835 54.7904 11.6246C54.7429 11.7658 54.7264 11.9155 54.7422 12.0636V14.6979H53.8535L53.8535 10.1949Z" fill="white"/>
<path d="M59.0938 8.43713H59.9824V14.6979H59.0938V8.43713Z" fill="white"/>
<path d="M61.2175 12.4445C61.1893 12.1486 61.2231 11.85 61.317 11.5679C61.4109 11.2858 61.5626 11.0265 61.7626 10.8065C61.9626 10.5865 62.2063 10.4107 62.4782 10.2904C62.75 10.1702 63.044 10.108 63.3413 10.108C63.6386 10.108 63.9326 10.1702 64.2045 10.2904C64.4764 10.4107 64.7201 10.5865 64.92 10.8065C65.12 11.0265 65.2718 11.2858 65.3656 11.5679C65.4595 11.85 65.4934 12.1486 65.4651 12.4445C65.4939 12.7407 65.4604 13.0397 65.3668 13.3222C65.2732 13.6048 65.1215 13.8646 64.9215 14.085C64.7215 14.3054 64.4776 14.4815 64.2054 14.602C63.9333 14.7226 63.639 14.7848 63.3413 14.7848C63.0437 14.7848 62.7493 14.7226 62.4772 14.602C62.2051 14.4815 61.9612 14.3054 61.7612 14.085C61.5611 13.8646 61.4095 13.6048 61.3158 13.3222C61.2222 13.0397 61.1887 12.7407 61.2175 12.4445ZM64.5505 12.4445C64.5505 11.4684 64.1121 10.8976 63.3425 10.8976C62.5701 10.8976 62.1355 11.4684 62.1355 12.4445C62.1355 13.4284 62.5701 13.9948 63.3425 13.9948C64.1121 13.9948 64.5505 13.4245 64.5505 12.4445H64.5505Z" fill="white"/>
<path d="M66.4009 13.4244C66.4009 12.6139 67.0044 12.1466 68.0757 12.0802L69.2954 12.0099V11.6212C69.2954 11.1456 68.981 10.8771 68.3735 10.8771C67.8774 10.8771 67.5337 11.0592 67.4351 11.3776H66.5747C66.6655 10.6041 67.3931 10.108 68.4146 10.108C69.5435 10.108 70.1802 10.67 70.1802 11.6212V14.6979H69.3247V14.0651H69.2544C69.1117 14.2921 68.9113 14.4771 68.6737 14.6013C68.436 14.7255 68.1697 14.7844 67.9019 14.7721C67.7128 14.7917 67.5218 14.7716 67.341 14.7129C67.1602 14.6542 66.9938 14.5582 66.8524 14.4313C66.711 14.3043 66.5977 14.1491 66.52 13.9757C66.4422 13.8023 66.4016 13.6145 66.4009 13.4244ZM69.2954 13.0397V12.6632L68.1958 12.7335C67.5757 12.775 67.2944 12.986 67.2944 13.3829C67.2944 13.7882 67.646 14.024 68.1294 14.024C68.2711 14.0384 68.4142 14.0241 68.5502 13.982C68.6862 13.9399 68.8123 13.8709 68.9211 13.779C69.0299 13.6872 69.1191 13.5744 69.1834 13.4474C69.2477 13.3204 69.2858 13.1817 69.2954 13.0397Z" fill="white"/>
<path d="M71.3481 12.4445C71.3481 11.0216 72.0796 10.1203 73.2173 10.1203C73.4987 10.1073 73.778 10.1747 74.0225 10.3146C74.267 10.4545 74.4667 10.6611 74.5981 10.9103H74.6646V8.43713H75.5532V14.6979H74.7017V13.9864H74.6314C74.4897 14.2339 74.2831 14.438 74.0339 14.5765C73.7846 14.7149 73.5022 14.7826 73.2173 14.7721C72.0718 14.7721 71.3481 13.8707 71.3481 12.4445ZM72.2661 12.4445C72.2661 13.3996 72.7163 13.9743 73.4693 13.9743C74.2183 13.9743 74.6812 13.3913 74.6812 12.4484C74.6812 11.5099 74.2134 10.9186 73.4693 10.9186C72.7212 10.9186 72.2661 11.4972 72.2661 12.4445H72.2661Z" fill="white"/>
<path d="M79.2298 12.4445C79.2015 12.1486 79.2353 11.85 79.3292 11.5679C79.423 11.2858 79.5748 11.0265 79.7747 10.8065C79.9746 10.5865 80.2183 10.4108 80.4902 10.2905C80.762 10.1702 81.056 10.1081 81.3533 10.1081C81.6506 10.1081 81.9446 10.1702 82.2164 10.2905C82.4883 10.4108 82.732 10.5865 82.9319 10.8065C83.1319 11.0265 83.2836 11.2858 83.3775 11.5679C83.4713 11.85 83.5052 12.1486 83.4768 12.4445C83.5057 12.7407 83.4722 13.0397 83.3786 13.3222C83.2851 13.6047 83.1334 13.8645 82.9334 14.085C82.7334 14.3054 82.4895 14.4815 82.2174 14.602C81.9453 14.7226 81.6509 14.7848 81.3533 14.7848C81.0557 14.7848 80.7613 14.7226 80.4892 14.602C80.2171 14.4815 79.9732 14.3054 79.7732 14.085C79.5732 13.8645 79.4216 13.6047 79.328 13.3222C79.2344 13.0397 79.2009 12.7407 79.2298 12.4445ZM82.5628 12.4445C82.5628 11.4684 82.1243 10.8976 81.3548 10.8976C80.5823 10.8976 80.1478 11.4684 80.1478 12.4445C80.1478 13.4284 80.5823 13.9948 81.3548 13.9948C82.1243 13.9948 82.5628 13.4245 82.5628 12.4445Z" fill="white"/>
<path d="M84.6694 10.1949H85.5249V10.9103H85.5913C85.704 10.6533 85.894 10.438 86.1348 10.2942C86.3757 10.1504 86.6555 10.0853 86.9351 10.108C87.1542 10.0915 87.3742 10.1246 87.5788 10.2047C87.7834 10.2848 87.9673 10.4099 88.117 10.5707C88.2667 10.7316 88.3783 10.924 88.4435 11.1338C88.5087 11.3437 88.5258 11.5655 88.4937 11.7828V14.6978H87.605V12.006C87.605 11.2823 87.2905 10.9225 86.6333 10.9225C86.4846 10.9155 86.336 10.9409 86.198 10.9967C86.0599 11.0525 85.9356 11.1375 85.8335 11.2459C85.7313 11.3543 85.6539 11.4835 85.6063 11.6246C85.5588 11.7658 85.5423 11.9155 85.5581 12.0636V14.6979H84.6694V10.1949Z" fill="white"/>
<path d="M93.5151 9.07385V10.2155H94.4907V10.964H93.5151V13.2794C93.5151 13.7511 93.7095 13.9576 94.1519 13.9576C94.2651 13.9573 94.3783 13.9504 94.4907 13.9371V14.6774C94.3311 14.7059 94.1694 14.7211 94.0073 14.7228C93.019 14.7228 92.6255 14.3751 92.6255 13.507V10.964H91.9106V10.2154H92.6255V9.07385H93.5151Z" fill="white"/>
<path d="M95.7046 8.43713H96.5854V10.9186H96.6558C96.7739 10.6593 96.9691 10.4427 97.2148 10.2983C97.4605 10.154 97.7447 10.0889 98.0288 10.1119C98.2467 10.1001 98.4646 10.1365 98.6669 10.2185C98.8692 10.3006 99.0508 10.4262 99.199 10.5866C99.3471 10.7469 99.458 10.938 99.5238 11.1461C99.5896 11.3542 99.6086 11.5743 99.5795 11.7907V14.6979H98.69V12.0099C98.69 11.2906 98.355 10.9264 97.7271 10.9264C97.5743 10.9139 97.4207 10.9349 97.2769 10.9879C97.1332 11.041 97.0027 11.1248 96.8947 11.2335C96.7867 11.3423 96.7038 11.4733 96.6517 11.6174C96.5997 11.7616 96.5797 11.9153 96.5933 12.068V14.6979H95.7046L95.7046 8.43713Z" fill="white"/>
<path d="M104.761 13.4821C104.641 13.8936 104.379 14.2496 104.022 14.4877C103.666 14.7259 103.237 14.831 102.81 14.7848C102.514 14.7926 102.219 14.7358 101.946 14.6183C101.674 14.5008 101.43 14.3253 101.232 14.1042C101.034 13.8831 100.887 13.6215 100.8 13.3377C100.713 13.0539 100.69 12.7546 100.73 12.4606C100.691 12.1657 100.715 11.8658 100.801 11.5811C100.888 11.2964 101.035 11.0337 101.231 10.8106C101.428 10.5875 101.671 10.4093 101.943 10.2881C102.214 10.1669 102.509 10.1055 102.806 10.108C104.059 10.108 104.815 10.964 104.815 12.378V12.6881H101.635V12.7379C101.621 12.9032 101.642 13.0695 101.696 13.2263C101.751 13.383 101.837 13.5267 101.95 13.6482C102.063 13.7696 102.2 13.8662 102.352 13.9316C102.504 13.9969 102.669 14.0298 102.835 14.0279C103.047 14.0535 103.263 14.0152 103.453 13.918C103.644 13.8208 103.802 13.669 103.906 13.482L104.761 13.4821ZM101.635 12.0309H103.91C103.921 11.8798 103.9 11.728 103.85 11.5853C103.799 11.4425 103.718 11.3121 103.614 11.2022C103.51 11.0923 103.383 11.0055 103.243 10.9474C103.103 10.8892 102.953 10.8609 102.801 10.8644C102.648 10.8625 102.495 10.8913 102.353 10.9493C102.21 11.0072 102.081 11.0931 101.972 11.2018C101.864 11.3105 101.778 11.4399 101.72 11.5823C101.662 11.7247 101.633 11.8772 101.635 12.0309H101.635Z" fill="white"/>
</svg>
