<svg width="32" height="44" viewBox="0 0 32 44" fill="none" xmlns="http://www.w3.org/2000/svg">
<rect width="32" height="44" rx="2" fill="white"/>
<path d="M11.4578 35.0898C10.8242 35.0898 10.2961 35.3914 9.79375 35.7172C10.1992 35.0875 10.6859 34.4531 10.6859 33.6383C10.6859 32.7336 9.95156 32 9.04766 32C8.14375 32 7.41016 32.7344 7.41016 33.6383C7.41016 34.4461 7.89844 35.082 8.30469 35.7141C7.80391 35.3891 7.27578 35.0898 6.6375 35.0898C5.73359 35.0898 5 35.8234 5 36.7297C5 37.6336 5.73438 38.3672 6.6375 38.3672C7.39297 38.3672 7.99766 37.9406 8.58906 37.5539L7.78359 40.2617C8.62578 40.1109 9.47656 40.118 10.3117 40.2617C10.3117 40.2617 9.86875 38.7734 9.50781 37.5578C10.0953 37.9437 10.6984 38.3672 11.4578 38.3672C12.3617 38.3672 13.0953 37.6336 13.0953 36.7297C13.0953 35.8242 12.3609 35.0898 11.4578 35.0898Z" fill="black"/>
<path d="M22.9987 32.6665C22.8856 32.6667 22.7743 32.6956 22.6755 32.7506C22.5766 32.8056 22.4934 32.8849 22.4336 32.981L19.5007 36.5578C19.3923 36.6796 19.3323 36.8368 19.332 36.9998C19.3322 37.1616 19.3912 37.3178 19.498 37.4393L22.4316 41.0168C22.4914 41.1135 22.5748 41.1933 22.674 41.2487C22.7733 41.3041 22.885 41.3331 22.9987 41.3332C23.1118 41.333 23.2231 41.3041 23.3219 41.2491C23.4208 41.194 23.504 41.1148 23.5638 41.0187L26.4967 37.4419C26.6051 37.3201 26.6651 37.1628 26.6654 36.9998C26.665 36.8421 26.6087 36.6896 26.5065 36.5695L26.4993 36.5604L23.5658 32.9829C23.506 32.8862 23.4226 32.8064 23.3234 32.751C23.2241 32.6956 23.1123 32.6665 22.9987 32.6665Z" fill="#FF0000"/>
<path d="M24.772 21.252C23.6299 21.2987 22.9986 22.1208 22.9986 22.1208C22.9986 22.1208 22.3674 21.2987 21.2253 21.252C20.4595 21.2208 19.7574 21.602 19.2949 22.2133C17.6857 24.3399 20.7324 26.8279 21.449 27.4958C21.8778 27.8954 22.407 28.3699 22.7228 28.6512C22.8807 28.792 23.1161 28.792 23.274 28.6512C23.5899 28.3699 24.119 27.8954 24.5478 27.4958C25.2645 26.8279 28.3115 24.3399 26.702 22.2133C26.2399 21.602 25.5378 21.2208 24.772 21.252Z" fill="#FF0000"/>
<path d="M16.835 4.33594H19.3984V11.6528C19.3984 12.3315 19.2397 12.937 18.9224 13.4692C18.6099 14.0015 18.1704 14.4141 17.604 14.707C17.0425 15 16.415 15.1465 15.7217 15.1465C14.5596 15.1465 13.6562 14.8535 13.0117 14.2676C12.3672 13.6816 12.0449 12.8516 12.0449 11.7773H14.623C14.623 12.2656 14.7061 12.6196 14.8721 12.8394C15.043 13.0591 15.3262 13.1689 15.7217 13.1689C16.0781 13.1689 16.3516 13.0371 16.542 12.7734C16.7373 12.5049 16.835 12.1313 16.835 11.6528V4.33594Z" fill="black"/>
<path d="M9.00024 21C8.85548 21.0002 8.7147 21.0475 8.5992 21.1348V21.1341C7.4742 22.0161 5.00024 23.038 5.00024 25.1517C5.00024 26.3567 5.97688 27.3333 7.18188 27.3333C7.93957 27.3333 8.48172 26.9036 8.76782 26.6074C8.57009 27.2053 8.20465 27.8887 7.52043 28.3665V28.3678C7.46447 28.3952 7.4173 28.4377 7.38428 28.4905C7.35125 28.5434 7.33369 28.6044 7.33358 28.6667C7.33358 28.7551 7.3687 28.8399 7.43121 28.9024C7.49372 28.9649 7.57851 29 7.66691 29H10.3336C10.422 29 10.5068 28.9649 10.5693 28.9024C10.6318 28.8399 10.6669 28.7551 10.6669 28.6667C10.6668 28.6044 10.6492 28.5434 10.6162 28.4905C10.5832 28.4377 10.536 28.3952 10.4801 28.3678V28.3665C9.79584 27.8887 9.4304 27.2053 9.23267 26.6074C9.51877 26.9036 10.0609 27.3333 10.8186 27.3333C12.0236 27.3333 13.0002 26.3567 13.0002 25.1517C13.0002 23.038 10.5263 22.0161 9.40129 21.1341L9.40063 21.1348C9.28531 21.0476 9.14479 21.0003 9.00024 21Z" fill="black"/>
</svg>
